<?xml version="1.0" encoding="utf-8"?>
<!-- Generator: Adobe Illustrator 24.1.0, SVG Export Plug-In . SVG Version: 6.00 Build 0)  -->
<svg version="1.1" id="レイヤー_1" xmlns="http://www.w3.org/2000/svg" xmlns:xlink="http://www.w3.org/1999/xlink" x="0px"
	 y="0px" viewBox="0 0 775 1000" style="enable-background:new 0 0 775 1000;" xml:space="preserve">
<style type="text/css">
	.st0{fill:none;stroke:#DBCAB9;stroke-width:0.25;}
	.st1{fill:#DBCAB9;}
	.st2{fill:#3A4348;}
	.st3{fill:none;stroke:#3A4348;stroke-width:0.5;stroke-miterlimit:10;}
</style>
<g id="レイヤー_1_2_">
	<g id="レイヤー_1_1_">
		<g>
			<g>
				<g>
					<g>
						<g>
							<path class="st0" d="M939.4,164.3c-0.4-2.5-1.4-4.9-2.9-6.9c-1.6-2-2.7-4.3-3.2-6.9l-1.9-11.6c-0.5-2.7-1.4-5.3-2.6-7.8
								l-1.7-3.4c-1.2-2.5-2-5.1-2.3-7.9l-1.8-16.6c-0.4-2.7-1.4-5.3-2.8-7.6l-6.2-9.1c-1.4-2.2-1.8-4.9-1.2-7.4l4.7-15.6
								c0.6-2.5,0-5.1-1.7-7l-6.3-6.6c-2-1.9-4.3-3.3-6.8-4.3l-11.1-3.5c-2.4-0.9-4.4-2.8-5.5-5.1l-0.8-1.9l-14.7,4.3
								c-2.6,0.6-5.3,0.6-7.9-0.2l-4.1-1.4c-2.5-0.7-5.2-0.5-7.6,0.7l-0.6,0.4c-2.4,1.2-5.1,1.7-7.7,1.5l-11-1.6
								c-2.5-0.2-5,0.7-6.8,2.6l-15.2,18.3c-1.8,2-4.1,3.5-6.7,4.3l-4,1.1c-2.4,0.8-4.3,2.7-5.2,5.1l-0.7,2.3
								c-0.6,2.4,0.3,4.9,2.2,6.3l4.1,2.8c1.6,1,2,3,1.1,4.6c-0.2,0.3-0.4,0.5-0.6,0.7l-1.3,1.3c-2,1.8-4.4,3-7,3.6l-6.9,1.1
								c-2.6,0.5-5.1,1.7-7.2,3.5l-2.1,1.9c-2.1,1.7-4.6,2.7-7.2,2.8h-10.6c-2.7,0.1-5.5,0.6-8.1,1.4l-6.6,2.3
								c-2.6,0.8-5.3,1.1-8,0.8l-14.4-2c-2.6-0.2-5.1,0.7-7,2.5L698.6,122c-1.7,2-2.9,4.5-3.3,7.2l-1.8,17.4
								c-0.4,2.6-1.8,4.9-3.8,6.6l-4,2.9c-2,1.7-3.4,4-3.9,6.6l-1,7.5c-0.5,2.6-1.7,5.1-3.5,7l-0.5,0.4c-1.8,1.9-3,4.4-3.3,7
								l-0.5,7.1c-1.8-0.6-3.8,0.3-4.4,2.1l-2.9,7.2c-1.1,2.3-3.1,4.1-5.6,4.8l-18.2,4.2c-2.5,0.4-5.1-0.3-7.1-1.9l-4.9-4.6
								c-1.7-1.8-2.3-4.3-1.8-6.7l0.9-2.8c0.6-2.3-0.4-4.8-2.4-6l-0.4-0.2c-2-1.1-5.2-3-7.2-4.1l-1.1-0.6c-2.2-1.4-4.3-3.2-6-5.2
								c-1.4-1.9-1.8-4.3-1.1-6.6c1-2.2,2.4-4.3,4.1-6c1.7-1.8,2.5-4.2,2.4-6.6l-1.5-19.1c-0.2-1.9-0.6-3.8-1.1-5.7
								c-1.4,0.9-2.7,1.5-3.3,1.4c-1.1-0.2-2.2-0.5-3.2-0.8c-0.7-0.3-2-0.8-2.8-1.1s-3.5,2-5.9,5.2l-3.2,4.1
								c-2.4,3.1-4.7,7.3-5.1,9.2s-3,5.4-5.9,7.7c-2,1.7-4.1,3.3-6.4,4.6c-0.9,0.5-1.5,1.3-1.7,2.3c-0.7,1.8-1.6,3.5-2.7,5
								c-1.5,2.6-2.5,5.4-2.9,8.4s-4,5.7-7.9,6l-1,0.1c-4,0.4-8.7,2.2-10.5,4.2s-6.5,3.6-10.5,3.8l-3.1,0.1c-4,0.1-7.7,0.5-8.2,0.8
								c-0.9,0.4-2,0.6-3,0.6c-1.6-0.3-3.1-1-4.3-2.1c-2.5-2-5.1-3.8-7.9-5.4c-3.5-1.8-7.5-2.4-11.3-1.6c-4.4,1.3-4.9,4.1-7.1,7.4
								c-3.2,4.8-10.1,7-15.5,6.7c-2.9-0.2-5.5-0.1-5.9,0.3c-0.4,0.4-0.9,0.8-1.4,1c-0.4,0.2-0.7,0.7-0.7,1.2
								c0.1,0.7,0.6,1.3,1.2,1.6c0.7,0.4,1.4,1.9,1.7,3.4s0.7,5,1,7.7c0.3,3,1,6,2.1,8.9c1.1,2.8,1.7,5.7,1.8,8.6
								c-0.1,3.1-0.9,6.1-2.3,8.9c-1.2,2.2-2.9,4.2-4.9,5.7c-1.4,0.9-1.9,4.8-1.1,8.6l0.9,4.4c0.8,3.9,2,8.8,2.6,10.9
								c0.7,3.2,0.8,6.5,0.3,9.8c-0.2,1.3-0.4,3.4-1.1,4.5s-2.3,1.2-3,2.3c-0.4,0.8-0.1,1.8,0.6,2.4c1.4,1,5.1,3,6.7,2
								c1.2-0.7,2-1.8,2.4-3.1c0.1-1,2.3-3.8,4.9-6.3c2.9-2.8,5.5-5.9,7.7-9.3c1.6-2.6,3.9-5.3,5.1-6.1c1.6-0.8,3.4-1.3,5.1-1.2
								c1.6,0.1,4.9,2.5,7.3,5.3c2,2.5,4.2,4.8,6.7,6.9c1.6,1.5,2.7,3.4,3.3,5.5c0.5,2,1.4,3.9,2.7,5.5c0.9,0.9,2.2,1.4,3.5,1.5
								c1.8-0.3,3.5-0.9,5.2-1.6c1.5-0.7,3.1-1.1,4.8-1.3c0.7,0.1,1.9,1.4,2.7,2.8s2.4,2.2,4,1.9c1.4-0.4,4.9-2.7,7.8-5.1
								c3.1-2.6,5.9-5.6,8.2-8.9c1.6-2.5,3-5.2,3.1-6.1c0.2-1.4,0.7-2.6,1.4-3.8c0.5-0.7,1.6-2.4,2.5-1.5s0.4,2.8,0.7,3.8
								c0.6,1.6,1.7,3,3.2,3.9c2.3,1.6,4.9,2.7,6,2.6c1.1-0.2,2-0.8,2.7-1.7c0.5-0.8,0.9-1.7,1.1-2.6c0.2-0.6,1.4-1.1,2.7-1
								s2.8,1.5,3.3,3.2c0.6,1.8,2.5,2.9,4.4,2.5c1.9-0.3,3.6-1.3,4.9-2.6c1.1-0.9,2.6-1,3.5-2c0.3-0.3,0.5-0.7,0.8-1
								c1.3-1.6,4.2-1.9,6-2.1c4-0.5,7.9-1.3,11.7-2.4l4-1.1c2.7-0.8,5.5-1.3,8.4-1.4c1.7,0,6-0.7,7.4,0.4c0.6,0.5,1.6,2.7,2.2,5
								c1,2.7,3.1,4.7,5.7,5.7c3.6,1.6,7,3.7,10,6.3l0.7,0.6c3.4,2.8,7.1,5.2,11.1,7c3.1,1.3,8.7,3.4,12.4,4.8l2.8,1.1
								c4.3,1.9,7.9,4.9,10.5,8.7l0.8,1.4c2,3.4,4.3,6,5,5.8s1.1-3.6,0.9-7.6l-0.4-6.5c-0.2-4,0.8-7.8,2.4-8.4s4.5-2.1,6.6-3.3
								c2.2-1.2,4.2-2.9,5.8-4.8c1.1-1.5,1.7-6,1.4-10l-0.7-8.1c-0.3-3.6-0.3-7.3,0-10.9c0.4-2.2,1.6-4.2,3.4-5.6
								c0.9-0.6,1.6-2.2,1.9-4.3c0.3-1.6,0.3-3.2,0.1-4.8l-0.4-3.6c-0.4-3.9,0.9-9.2,2.9-11.7s5.6-7.1,8.1-10.2l7-8.9
								c3-3.4,7.2-5.5,11.8-5.8l4.4-0.1c4-0.1,8.3-0.3,9.7-0.6c1.1-0.3,2.3,0.3,2.7,1.5v0.1c0.1,1.5,0.1,3-0.1,4.4
								c-0.2,2-0.1,4.1,0.2,6.1s2.8,5.9,5.7,8.7l2.1,2.1c2.8,2.8,4.2,7.2,3,9.9c-1.8,3.7-4,7.3-6.4,10.8l-4.9,6.9
								c-2.3,3.2-4,6.4-3.8,7.1s1.4,0.7,2.6,0.1c2.2-1,4.6-1.7,6.9-2.2c2.6-0.6,4.8-3.5,4.9-6.4c0.1-3.3,0.8-6.6,2.1-9.7
								c1.2-2.4,2.8-4.7,4.8-6.5c1.5-1.2,6-1.7,9.9-1l0.7,0.1c3.9,0.7,8.3,0.4,9.8-0.6c2.2-1.3,4.5-2.2,7-2.7c2.4-0.5,4.8-3,5.5-5.7
								c0.4-1.7,1-4.2,2.2-5.6c1.3-1.6,4-2.2,5.6-3.6c1.8-1.6,3.8-2.8,4.5-2.6c0.8,0.3,1.6,0.7,2.4,1.2c1,0.6,2.2,0.8,3.3,0.7
								s3.3-1.4,4.9-2.9s6.1-2.8,10-3l9-0.5c3.6-0.2,7.2-0.7,10.7-1.6c1.6-0.6,3.2-1.1,4.9-1.5c0.7-0.1,2.5-2.4,3.9-5.1
								s5.6-4.6,9.3-4.3s7.4,0.2,11.1-0.4c2.7-0.7,5-2.4,6.6-4.7c1.2-2,2.5-3.7,3-3.7s0.6,1.5,0.4,3.3c-0.4,3.3,3.8,5.3,6.3,6.2
								c3.3,1.2,6.3,1.1,9.8,0.7c4.2-0.7,7.8-3.7,9.3-7.7c1.2-3.8,3.7-7,5.7-7.3h0.7L939.4,164.3z"/>
						</g>
					</g>
				</g>
			</g>
		</g>
		<path class="st1" d="M210.5,158.1c0.2-0.6,0.5-1.2,0.6-1.8c0.9-3,1.8-6.3,0.7-9.3c-1.2-3.4-1-7.1,0.7-10.2l0.3-0.6
			c1.5-3.2,0.9-7.3-1.3-9.1c-2.2-1.8-6.1-1.4-8.7,1l-3.6,3.4c-2.5,2.4-6.5,4.9-8.8,5.6s-5.2,3.9-6.4,7.2l-1.8,4.9
			c-0.8,2.2-1.4,5.1-0.3,7.3c0.7,1.1,1.2,2.2,1.8,3.4c0.7,2.1-0.1,4.8-0.4,7l-1.9,9.8c-1.2,6.1-3.5,11.9-6.9,17.1l-0.2,0.3
			c-0.4,0.5-0.7,1.1-0.9,1.7c-0.2,0.6,0,1.3,0.5,1.8c0.4,0.3,1,0.4,1.5,0.4c2.2,0,4.1-0.9,6.2-0.9c3.6,0.1,6.5,2.8,6.8,6.4l0.1,1.8
			c0.2,3.5-0.8,6.9-2.3,7.5c-3.1,1.4-4.5-2.1-6.3-3.6c-1.1-0.9-2.8-1.4-4-0.6c-0.4,0.3-0.8,0.7-1.1,1.1c-1.1,1.5-2.6,4.3-4.8,4.3
			c-2.5,0-4-3.4-4.6-5.4c-0.1-0.5-0.4-1.1-0.9-1.1s-0.7,0.7-0.8,1.3c-0.3,2.4-1.3,4.6-1.8,6.9c-0.3,1.4-0.6,2.8-1,4.3
			c-0.9,4.1-1.5,8.3-1.8,12.6l-1.1,16.9c-0.2,3.5,2.3,5.6,5.7,4.7l8.6-2.4c3.6-1.2,6.3-4.3,6.9-8l0.1-0.9c0.6-4.2,1.7-8.3,3.1-12.2
			l1.7-4.3c1.6-3.6,3.8-7,6.6-9.8c2.7-2.8,4.4-6.4,4.9-10.2c0.5-4.2,1.4-8.2,1.7-12.4c0.1-0.4,0-0.7-0.1-1.1c-0.7-1.4-2.7-0.2-3.6-1
			c-0.8-0.6-0.6-2.6-0.5-3.4c0.3-2.2,2-6.5,3.9-9.4l6.4-10.1C205.6,165.7,208.8,161.9,210.5,158.1z"/>
	</g>
	<g id="レイヤー_2_1_">
		<path class="st1" d="M707.9,236.2c-2.4-1.5-4.5-3.6-6.2-6l-4.9-7.9c-1.2-2-3.2-5.1-4.5-7l-10.2-15.6c-1.5-2.1-3.4-3.9-5.5-5.3
			l-2.1-1.2c-0.1,0-0.2-0.1-0.3-0.1h-0.1c-0.2,0-0.3-0.1-0.5-0.2c-0.5-0.1-0.9-0.1-1.4,0.1c-0.7,0.3-1.3,0.8-1.6,1.6l-2.9,7.3
			c-1.2,2.6-3.5,4.6-6.3,5.4l-18.2,4.2c-2.8,0.5-5.8-0.3-8-2.2l-4.9-4.6c-2-2.1-2.8-5-2.1-7.8l0.9-2.8c0.5-1.9-0.3-3.8-2-4.9
			l-0.4-0.2c-2-1.1-5.3-3-7.3-4.2l-1.1-0.7c-2.3-1.5-4.5-3.3-6.3-5.4c-1.6-2.2-2.1-5-1.3-7.6c1-2.4,2.5-4.6,4.4-6.4
			c1.4-1.6,2.2-3.7,2.1-5.8l-1.5-19.2c-0.2-1.8-0.5-3.5-1-5.3c-0.7,0.5-1.6,0.8-2.4,0.9c-1.1-0.2-2.2-0.5-3.2-0.8l-2.8-1.1
			c-0.8-0.3-3.5,2-5.9,5.2l-3.2,4.1c-2.4,3.2-4.7,7.3-5.1,9.2c-0.4,1.9-3.1,5.4-5.9,7.7c-2,1.7-4.1,3.2-6.4,4.6
			c-0.9,0.5-1.5,1.3-1.8,2.3c-0.7,1.8-1.6,3.5-2.7,5c-1.5,2.6-2.5,5.4-2.9,8.4s-3.9,5.7-7.9,6l-1,0.1c-3.9,0.4-8.7,2.2-10.5,4.2
			c-1.8,1.9-6.5,3.6-10.5,3.8l-3.1,0.1c-4,0.2-7.7,0.5-8.3,0.9c-0.9,0.4-2,0.6-3,0.6c-1.6-0.3-3.1-1-4.3-2.1c-2.5-2-5.1-3.8-7.9-5.4
			c-3.4-1.8-7.4-2.4-11.3-1.6c-4.4,1.3-4.9,4.1-7.1,7.4c-3.2,4.8-10.1,7.1-15.5,6.7c-2.9-0.2-5.5,0-5.9,0.3c-0.4,0.4-0.9,0.7-1.4,1
			c-0.5,0.2-0.7,0.7-0.7,1.2c0.1,0.7,0.6,1.3,1.2,1.6c0.9,0.9,1.6,2.1,1.7,3.4c0.3,1.5,0.7,5,0.9,7.7c0.3,3,1,6,2.2,8.9
			c1.1,2.8,1.7,5.7,1.8,8.7c-0.1,3.1-0.9,6.1-2.3,8.9c-1.2,2.2-2.9,4.2-4.9,5.7c-1.4,0.9-1.9,4.8-1.1,8.7l0.9,4.4
			c0.8,3.9,2,8.8,2.6,10.9c0.7,3.2,0.8,6.5,0.3,9.8c-0.2,1.3-0.4,3.3-1.1,4.4s-2.3,1.2-3,2.3c-0.4,0.8-0.1,1.9,0.6,2.4
			c1.4,1,5.1,3,6.7,2c1.2-0.7,2-1.8,2.4-3.1c0.1-1,2.3-3.8,4.9-6.3c2.9-2.8,5.5-5.9,7.7-9.3c1.4-2.3,3.1-4.4,5.1-6.1
			c1.6-0.8,3.4-1.2,5.2-1.2c1.7,0.1,4.9,2.5,7.3,5.3c2,2.5,4.2,4.8,6.7,6.9c1.6,1.5,2.7,3.4,3.3,5.5c0.5,2,1.4,3.9,2.7,5.5
			c0.9,0.9,2.2,1.4,3.5,1.5c1.8-0.3,3.5-0.9,5.2-1.6c1.5-0.7,3.1-1.1,4.8-1.3c0.7,0.1,1.9,1.4,2.7,2.8s2.4,2.2,4,1.9
			c1.4-0.4,4.9-2.7,7.8-5.1c3.1-2.6,5.9-5.6,8.3-8.9c1.6-2.5,3-5.2,3.1-6.1c0.2-1.4,0.7-2.6,1.4-3.8c0.5-0.7,1.6-2.4,2.5-1.5
			c0.8,0.9,0.4,2.8,0.7,3.8c0.6,1.6,1.7,3,3.2,3.9c2.3,1.6,4.9,2.7,6,2.6c1.1-0.2,2.1-0.8,2.7-1.7c0.5-0.8,0.8-1.7,1.1-2.6
			c0.2-0.6,1.4-1.1,2.7-1c1.4,0.1,2.8,1.5,3.3,3.2c0.6,1.8,2.5,2.9,4.4,2.5c1.9-0.3,3.6-1.3,4.9-2.7c1.1-0.9,2.6-1,3.5-2
			c0.3-0.3,0.5-0.7,0.8-1c1.3-1.6,4.2-1.9,6.1-2.1c4-0.5,7.9-1.3,11.7-2.3l4-1.1c2.7-0.8,5.5-1.3,8.4-1.4c1.7-0.1,6-0.7,7.4,0.4
			c0.6,0.5,1.6,2.7,2.2,5c1,2.7,3.1,4.8,5.7,5.7c3.7,1.6,7.1,3.7,10,6.3l0.7,0.6c3.4,2.8,7.1,5.2,11.1,7c3.1,1.3,8.7,3.4,12.4,4.8
			l2.8,1.1c4.3,1.9,7.9,4.9,10.5,8.7l0.8,1.4c2.1,3.4,4.3,6,5,5.8s1.1-3.6,0.9-7.6l-0.4-6.5c-0.2-4,0.8-7.8,2.4-8.5
			c1.5-0.7,4.5-2.2,6.7-3.3c2.2-1.2,4.2-2.9,5.8-4.8c1.1-1.5,1.7-6,1.4-10l-0.7-8.1c-0.3-3.7-0.3-7.3,0-11c0.4-2.2,1.6-4.2,3.4-5.6
			c0.9-0.9,1.5-2.1,1.7-3.3l0,0L707.9,236.2z"/>
		<path class="st1" d="M937.2,157.7c-1.7-2.1-2.9-4.7-3.4-7.3l-1.9-11.6c-0.5-2.6-1.3-5.1-2.5-7.6l-1.7-3.4c-1.2-2.6-2-5.4-2.4-8.2
			l-1.8-16.6c-0.4-2.5-1.3-5-2.7-7.1l-6.3-9c-1.5-2.5-2-5.4-1.3-8.3l4.7-15.6c0.5-2.1,0-4.4-1.5-6.1l-6.3-6.7
			c-1.5-1.4-3.2-2.6-5-3.5H905c-0.4-0.2-0.8-0.4-1.3-0.5l-11.1-3.5c-2.7-1-4.9-3.1-6.1-5.7l-0.4-1.1L872.2,40
			c-2.8,0.7-5.8,0.6-8.5-0.2l-4.1-1.4c-2.3-0.6-4.7-0.4-6.8,0.6l-0.6,0.4c-2.6,1.3-5.5,1.9-8.4,1.6l-11-1.6
			c-2.2-0.2-4.4,0.7-5.9,2.3l-15.3,18.4c-1.9,2.1-4.4,3.8-7.2,4.7l-4,1.1c-2.1,0.7-3.8,2.4-4.5,4.4l-0.7,2.3c-0.5,2,0.2,4,1.9,5.3
			l4.1,2.8c2,1.3,2.6,4,1.3,6c-0.2,0.3-0.4,0.6-0.7,0.8l-1.3,1.3c-2.1,2-4.8,3.3-7.6,3.9l-6.9,1.1c-2.4,0.5-4.7,1.6-6.7,3.2
			l-2.1,1.9c-2.2,1.9-5,2.9-7.9,3.1h-10.5c-2.6,0.1-5.3,0.5-7.8,1.3l-6.6,2.4c-2.8,0.9-5.6,1.2-8.5,0.9l-14.4-2
			c-2.3-0.2-4.5,0.6-6.1,2.2l-15,15.9c-1.6,1.9-2.7,4.2-3,6.7l-1.9,17.5c-0.4,2.9-1.9,5.5-4.2,7.3l-4,2.9c-1.8,1.5-3.1,3.6-3.5,6
			l-1,7.5c-0.5,2.9-1.8,5.5-3.8,7.6l-0.5,0.5c-1.7,1.8-2.7,4-3,6.4l-0.4,6.5l0.2,0.1l2.1,1.2c2.4,1.5,4.6,3.5,6.2,5.9l10.3,15.6
			c1.3,1.9,3.3,5.1,4.5,7l4.9,7.9c1.5,2.1,3.3,3.9,5.5,5.3l13.9,8c0.1-1.2,0.1-2.5,0-3.7l-0.4-3.6c-0.4-3.9,0.9-9.2,2.9-11.7
			s5.6-7.1,8.1-10.2l7-8.9c3-3.4,7.2-5.5,11.7-5.8l4.4-0.1c4-0.1,8.4-0.3,9.7-0.6c1.2-0.3,2.4,0.4,2.7,1.6c0.1,1.5,0.1,3-0.1,4.4
			c-0.1,2-0.1,4.1,0.2,6.1s2.8,5.9,5.7,8.7l2.1,2.1c2.8,2.8,4.2,7.3,3,10c-1.8,3.7-4,7.3-6.4,10.8l-4.9,6.9c-2.3,3.2-4,6.4-3.8,7.1
			s1.4,0.7,2.6,0.1c2.2-1,4.6-1.7,6.9-2.2c2.8-0.9,4.8-3.5,4.9-6.4c0.1-3.3,0.8-6.6,2.1-9.6c1.2-2.5,2.8-4.7,4.8-6.5
			c1.5-1.3,6-1.7,9.9-1l0.7,0.1c3.9,0.7,8.3,0.4,9.8-0.6c2.2-1.3,4.6-2.2,7-2.7c2.7-0.8,4.8-3,5.5-5.7c0.4-2,1.1-3.9,2.2-5.7
			c1.3-1.6,4-2.2,5.5-3.6c1.8-1.6,3.8-2.8,4.4-2.6c0.9,0.3,1.7,0.7,2.4,1.2c1,0.6,2.2,0.8,3.3,0.7c1.9-0.5,3.5-1.5,4.9-2.9
			c1.6-1.5,6.1-2.8,10-3l9.1-0.5c3.6-0.2,7.2-0.7,10.8-1.6c1.6-0.6,3.2-1.1,4.9-1.5c0.7-0.1,2.5-2.4,3.9-5.1
			c1.4-2.7,5.5-4.6,9.3-4.3c3.7,0.3,7.4,0.2,11.1-0.4c2.7-0.7,5.1-2.4,6.7-4.7c1.2-2,2.5-3.7,3-3.7c0.4,0,0.6,1.5,0.4,3.3
			c-0.4,3.3,3.8,5.3,6.3,6.2c3.2,1,6.5,1.3,9.8,0.7c4.3-0.7,7.8-3.7,9.3-7.8c1.1-3.6,3.5-6.8,5.4-7.2l-1.7-14.8
			C939.7,161.7,938.7,159.6,937.2,157.7z"/>
		<path class="st1" d="M617.7,139.7l1.5,19.1c0.2,2.7-0.8,5.4-2.7,7.4c-1.6,1.6-3,3.5-3.9,5.7c-0.6,1.9-0.2,4,1,5.6
			c1.7,1.9,3.6,3.6,5.8,5l1.1,0.6c2,1.2,5.2,3,7.2,4.1l0.4,0.2c2.5,1.5,3.6,4.4,2.9,7.1l-0.9,2.8c-0.5,2.1,0.1,4.3,1.6,5.8l4.9,4.6
			c1.7,1.4,4,2,6.2,1.7l18.2-4.1c2.2-0.7,4-2.2,4.9-4.2l2.9-7.3c0.5-1.3,1.5-2.3,2.8-2.7c0.5-0.2,1.1-0.3,1.7-0.2l0.4-6.1
			c0.3-2.9,1.6-5.6,3.6-7.7l0.5-0.5c1.7-1.8,2.8-4,3.3-6.4l1-7.5c0.5-2.9,2-5.4,4.3-7.3l4-2.9c1.8-1.5,3-3.6,3.4-5.9l1.9-17.5
			c0.4-2.9,1.7-5.6,3.5-7.8l14.9-15.8c2.1-2,4.9-3,7.8-2.8l14.4,2c2.6,0.2,5.1,0,7.6-0.8l6.6-2.4c2.7-0.9,5.6-1.4,8.4-1.5h10.5
			c2.4-0.1,4.8-1,6.7-2.6l2-2c2.2-1.9,4.9-3.1,7.8-3.7l6.9-1.1c2.4-0.5,4.7-1.7,6.5-3.3l1.3-1.3c1-0.9,1.1-2.4,0.2-3.4
			c-0.2-0.2-0.3-0.3-0.6-0.5l-4.1-2.8c-2.3-1.7-3.3-4.7-2.6-7.4l0.7-2.3c1-2.7,3.1-4.9,5.9-5.8l4-1.1c2.4-0.8,4.5-2.2,6.2-4
			l15.1-18.2c1.9-2.1,4.8-3.2,7.7-3l11,1.6c2.5,0.2,4.9-0.3,7.2-1.4l0.6-0.4c2.6-1.3,5.6-1.6,8.4-0.8l4.1,1.4
			c2.4,0.7,4.9,0.7,7.4,0.2l13.7-4l-0.3-0.9c-1-2.6,0.1-5.6,2.5-7c1.7-1,2.6-3,2.2-4.9l-0.9-3.9c-0.6-2.4-1.9-4.6-3.7-6.3
			c-1-0.8-1.5-2-1.4-3.3c0.3-1.2,1.2-2.2,2.4-2.6l14.2-5.7c2.1-1,3.7-2.7,4.5-4.9l4.7-15.1c0.7-2.2,1.9-5.8,2.7-7.9l1.4-3.7
			c0.6-2,0.1-4.1-1.4-5.5l-10.3-8.9c-2.1-2-3.8-4.4-4.8-7.1c-0.2-0.8-0.4-1.7-0.7-2.7c-0.9-3-1.9-6.3-1-8.6c1.2-3,4.9-3.7,7.9-4.4
			c0.9-0.2,1.8-0.4,2.4-0.6l4.9-1.6c0.1-0.2,0.2-0.5,0.3-0.7c0.5-0.8,1-1.9,0.3-2.6c-0.5-0.3-1.2-0.4-1.8-0.2
			c-3.9,0.8-7.8,1.9-11.7,2.7c-1.9,0.4-4,0.6-5.9,0.3c-1,0-1.9-0.4-2.5-1.1c-1.3-1.7-3-3.1-5-4.2s-5.9,0.4-8.7,3.2l-0.2,0.2
			c-2.8,2.8-6,5.5-7,6c-2,0.6-4,0.9-6.1,0.9c-2.7,0.2-5.2,1.4-7.1,3.2c-1.6,1.7-6.1,3.3-10.1,3.7l-3.6,0.3c-3.2,0.2-6.4,0.7-9.5,1.6
			c-2.8,1.6-5.4,3.5-7.8,5.6l-2.6,2.2c-3,2.6-7.9,4.8-10.7,5c-2.3,0.2-5.3-2.2-6.8-1.6c-2.2,0.9-2.5,4.9-2.1,6.6
			c0.6,3.5,0.9,7.1,0.9,10.7v0.2c-0.2,4.5-2.1,8.8-5.4,11.8l-28,23.5c-3.8,3.1-10.5,3.4-13.5,7.5c-2.2,3-3.6,7.4-5.5,10.8
			c-2.2,3.8-5.1,6-8.6,8.4c-4.3,3.1-7,8.1-10.9,11.6c-6,5.4-13.8,6.4-19.2,12.8c-1.9,2.3-4.3,4.4-5.3,4.9c-1,0.4-3.2,2.4-4.8,4.4
			c-2.9,3.8-7.6,6-10.3,9.9c-1.5,2.1-2.4,4.9-4.8,6c-0.8,0.4-1.7,0.5-2.6,0.8c-3.7,1.5-4.9,7.1-7.5,9.9c-2.5,2.7-5.2,5-6.1,5.2
			c-2.7,0.7-2.7,4.4-4.8,5.6c-1,0.5-2,0.9-3.1,1c-0.8,0.1-1.5,0.3-2.1,0.7c-1.1,0.8-1.2,2.4-1.8,3.7c-0.9,1.6-2.7,2.3-3.7,3.8
			c-0.7,1.1-0.8,2.6-1.4,3.8c-1.9,3.2-4.7,5.7-8,7.2l-1.3,0.6c-4.4,1.9-9,3-13.7,3.4h-1c-4,0.2-9.1,2-11.3,4.1
			c-0.6,0.6-1.2,1.1-1.9,1.5c0.1,0.1,0.1,0.2,0.1,0.3C617.1,135.7,617.5,137.7,617.7,139.7z"/>
	</g>
</g>
<g id="レイヤー_2_2_">
	<g>
		<g>
			<g>
				<path class="st0" d="M382.1,455.1c1.6-1.7,4.1-4.4,5.6-6.1l8-8.9c2-2.1,4.2-3.9,6.7-5.4l7.5-4.2c1.7-1.1,2.7-3,2.6-5l-0.6-5.2
					c-0.4-2.6-1.2-5.1-2.3-7.4l-1.3-2.5c-0.9-1.7-2.6-2.5-3.7-2.1c-1.5,0.6-2.8,1.8-3.4,3.3c-0.7,2-3.4,4-6,4.6l-0.5,0.1
					c-2.6,0.6-5.9-0.2-7.4-1.6c-1.5-1.3-3.3-2.2-5.2-2.8c-2.6-0.8-4.9-2.3-6.9-4.2l-0.9-1c-1.8-1.7-4-2.8-6.4-3.3l-8.4-1.3
					c-2.5-0.3-5,0.1-7.3,1l-1.3,0.6c-2.7,1.1-5.6,1.6-8.5,1.5l-12-0.8c-2.9-0.3-5.6-1.9-7.4-4.2l-3.5-4.9c-3.2,7.7-17,9.4-18.4-0.6
					l-0.4-3c-0.6-3.9-2.8-8.2-4.9-9.5s-5.4-1.9-7.3-1.3c-3.3,1-4.1,3.7-6.1,6c-0.5,0.5-0.9,1-1.3,1.6c-1,1.9,4.8,8.4,1.3,9.6
					c-1,0.2-2,0-2.9-0.5l-2.6-1c-0.9-0.4-2.2-0.7-2.8,0.2c-0.3,0.6-0.2,1.3,0.1,1.9c1.1,3.5,2,7.1,2.7,10.7c0.4,1.9,0.7,3.8,1.1,5.8
					c0.2,1.2,0.2,3.5,1.6,4.1s4.8-1.9,4.8,1c0,1.3-2,4.2-4.5,6.4s-5.9,2-7.6-0.4c-0.1-0.1-0.2-0.2-0.3-0.4l2.3,14.3
					c0.4,2.2,1.2,5.8,1.8,8l0.6,2.4c0.8,2.5,1.9,4.9,3.3,7.1l1.7,2.5c1.5,1.9,3.5,3.3,5.7,4l5.1,1.3c2.8,0.8,5.4,2.1,7.7,3.8
					l3.5,2.8c2.2,1.7,2.5,4.9,0.8,7c-0.1,0.1-0.2,0.2-0.3,0.3l-1.3,1.4c-1.1,1.2-1,3,0.1,4.1c0,0,0,0,0.1,0.1l0.5,0.4
					c2.1,1.9,4,4.1,5.6,6.5l3.4,5.2c1.4,1.9,3.4,3.4,5.7,4.1l3.1,0.9c2.8,0.9,5.2,2.7,7,5l0.1,0.1c1.4,1.8,3.5,3,5.7,3.4l14.6,1.7
					c0.3-0.3,0.6-0.6,1-0.9s0.8-0.7,1.2-1.1c0.3-0.4,0.4-1,0.3-1.5c-0.2-0.4-0.4-0.7-0.7-1c-4.1-4-6.4-10.1-9.1-15.2l-5.2-9.6
					c-1.9-3.6-0.7-8,2.8-10.2l12.5-7.8c3.4-2.1,7.6-1.9,9.5,0.5c1.6,2,5.3,3.6,8.8,3.9c1-1.7,2.1-3.3,3.3-4.8L382.1,455.1z"/>
				<path class="st0" d="M404.1,498.7l1.2-4.2c0.9-2.8,2.8-5.2,5.2-6.8l7.7-4.5c2.6-1.4,5.5-2,8.5-1.7l2.4,0.4
					c1.9,0.2,3.7-0.8,4.6-2.5l0.5-1.1c1.3-2.7,3.9-4.4,6.9-4.5h5.8c2.9,0.1,5.7,1.3,7.9,3.4l1.5,1.6c1.7,1.6,3.9,2.6,6.2,2.8
					l6.9,0.2c-1.5-2.3-2.2-5.1-2-7.8l1.6-12.6c0.3-1.8,0.1-3.7-0.6-5.5c-1.1-1.7-0.8-4.7-0.1-6.7c0.8-2.4,1.3-4.9,1.5-7.4l1-16.4
					c0.3-2.9,1.3-5.7,3-8.1l1.1-1.5c1.4-2.1,2.4-4.5,2.8-7v-0.2c0.5-2.9,2.2-5.5,4.6-7.2l4.4-2.8c2-1.2,5.2-3.2,7.2-4.3l4.1-2.4
					c2.6-1.3,5.6-1.5,8.4-0.6c2.5,1,5.1,1.7,7.7,2.3l4.4,0.9c2.1,0.4,4.3,0.1,6.3-0.9c1.4-1.1,1.9-2.9,1.5-4.6l-2.5-9.4
					c-0.6-2.9-0.2-5.9,1.1-8.5l3.3-5.4c-3.6-0.9-7.2-1.5-10.8-2c-3.4-0.4-7.9-3.5-9.9-7l-6.7-11.3c-2.3-4.2-3.8-8.7-4.4-13.4
					l-0.2-2.5c-0.4-4-1.7-8.5-2.9-10s-1.5-5.2-0.6-8.1c1.3-3.9,2.9-7.7,4.8-11.4c1.8-3.4,2.3-7,1.3-8c-1.1-1.1-2.6-1.7-4.2-1.9
					c-1.2,0-4.5,2.1-7.1,4.7c-2.2,2.2-4.6,4.2-7.2,5.9c-2.2,0.8-4.5,1.2-6.8,1.3c-2.7,0-5.4-1-7.4-2.8c-2-1.9-2.2-6.6-5.1-7.1
					c-1-0.1-2,0-3,0.2c-3.8,0.8-8,1.1-11.5,2.6c-2,0.6-4.1,0.8-6.1,0.6c-2.2-0.1-5.8,2.4-8.1,5.6l-0.2,0.4c-2.8,3.4-7,5.5-11.4,5.6
					l-5-0.1c-8.1-0.2-17,10.7-17,18.5v0.6c-0.3,3.9-0.3,7.9-0.1,11.9c0.2,2.6-1.8,6.2-4.6,8c-3.5,2.6-6.4,5.8-8.8,9.5l-4.2,6.9
					c-2.6,3.7-6.6,6.1-11,6.7l-0.8,0.1c-4.5,0.1-8.8-1.6-12-4.8l-0.2-0.3c-2.7-2.9-7.2-3.2-10.2-0.5c-3.5,3.1-6.9,4.8-11,7.1
					c-1.1,0.6-2.3,1.4-2.5,2.6c-0.3,1.8,1.5,3.1,3.2,3.9s3.6,1.9,3.6,3.7c0,5.4-9.7,7.2-13.4,7.2c-1.4,0-3-0.2-4.1,0.6
					s-1.5,2.3-1.8,3.8l4.6,6.4c1.4,1.8,3.4,2.9,5.7,3.2l12,0.8c2.5,0.1,5-0.4,7.4-1.3l1.3-0.6c2.7-1.1,5.7-1.5,8.6-1.1l8.4,1.3
					c2.9,0.6,5.5,2,7.7,4l0.9,1c1.6,1.6,3.6,2.8,5.8,3.5c2.3,0.6,4.4,1.8,6.2,3.4c1.6,1.1,3.5,1.4,5.3,1l0.5-0.1
					c2-0.4,3.9-2,4.3-3.1c0.9-2.2,2.7-3.9,4.9-4.7c2.2-0.7,5,0.7,6.4,3.2l1.3,2.5c1.3,2.6,2.1,5.4,2.5,8.2l0.6,5.2
					c0.2,2.9-1.2,5.8-3.7,7.3l-7.5,4.2c-2.3,1.4-4.3,3-6.1,4.9l-8,8.9c-1.5,1.7-4.1,4.5-5.6,6.2l-8.8,9.5c-0.8,1-1.6,2.1-2.3,3.2
					l1.7-0.1c4.3,0.1,8.2,2.5,10.3,6.3l0.6,1.3c1.1,2.5,1.7,5.2,1.9,8c0.3,2.7-1,5.1-2.5,7.4c-0.6,0.8-1,1.7-1.2,2.6
					c0,0.9,0.2,1.7,0.6,2.5c0.2,0.4,0.4,0.7,0.7,1.1l15.4,2.8C402,501.4,403.6,500.3,404.1,498.7z"/>
				<path class="st0" d="M339,653.7l0.4-1.8c0.7-2.5,2.6-4.5,5-5.3l1.4-0.4c2.4-0.9,4.4-2.8,5.2-5.3c0.8-3.1,1.1-6.8,2.9-9.5
					c0.3-0.4,0.8-0.9,1.2-0.7c1,0.5-0.2,2.3,0.4,3.2c0.5,0.5,1.3,0.5,1.8,0.1c0.5-0.5,1-1,1.4-1.5c2.5-2.6,6.1-3.9,9.8-3.5
					c1.8,0.2,3.6,0.6,5.4,1.2c2.2,1,4.7,1.4,7.1,1.2c4.9-0.6,6.2-5.5,8-9.4l4.3-9.3c1-2.1,0.1-4.7-1.9-5.8c-2.4-1.1-5.1-1.2-7.6-0.4
					l-30.4,12.3c-1.7,0.8-3.7,0.1-4.4-1.6c-0.1-0.3-0.2-0.6-0.3-1l-0.9-4.9c-0.4-2-0.6-4.1-0.7-6.1c-0.1-1.5,0.1-4.4-0.8-5.5
					c-0.4-0.5-1-0.7-1.6-0.8c-0.6,0-1.2,0.1-1.8,0.3c-1.8,0.6-3.4,1.5-5.2,2.2l-5.5,1.9l-6.5,2.2c-2.5,1-4.4,2.9-5.5,5.3l-4.1,10.5
					c-1.1,2.8-2.2,5.7-3.3,8.5s-1.8,5.7-3.1,8.3c-0.2,0.4-0.5,0.9-0.8,1.3c-0.8,1.1-1.8,2.2-1.8,3.6s1.2,2.7,2,4
					c1.1,1.9,1.1,3.7,1.1,5.8l-1.6,10.7c-0.5,3.7,0.4,8.2,3.2,10.8c0.6,0.7,1.5,1.1,2.4,1.3c0.7,0.1,1.5-0.1,2.1-0.4
					c2.7-1.2,4.4-3.6,6.6-5.4c1.4-1.2,2.9-2.2,4.3-3.3l7.7-5.8C336.8,658.7,338.3,656.3,339,653.7z"/>
				<path class="st0" d="M534.1,829.3l1.2-6.9c0.3-2.4-0.1-4.8-1.2-7l-1.3-2.4c-1.3-2-3.1-3.6-5.3-4.5l-15.3-5.4
					c-2.7-1.1-5.1-2.9-6.9-5.2l-11.9-17.1c-1.6-2.1-3.4-3.9-5.5-5.4l-3.5-2.3c-2.4-1.7-4.1-4.2-5-7l-3-12c-0.7-2.4-2-4.5-3.8-6.2
					l-6.9-6.1c-2.1-2-3.9-4.2-5.5-6.6l-7.3-12.2c-1.2-2-3-5.2-4.2-7.2l-6-10.9l0,0c-1.4-2.3-2.9-4.5-4.6-6.5l-3.7-4.2
					c-1.7-1.8-3.9-3-6.2-3.7l-5-1.2c-2.1-0.3-4.2,0.3-5.7,1.8l-3.4,3.8c-2,2.1-4.6,3.6-7.4,4.4l-7,1.6c-2.9,0.5-5.8,0.4-8.6-0.5
					l-0.7-0.2c-2.7-1.1-5.2-2.6-7.3-4.5l-8.4-7.7c-1.9,1.7-4.3,2.8-6.8,3.3l-15.7,2.2c-2.9,0.6-5.8-1.3-6.4-4.2
					c-0.1-0.6-0.1-1.3,0-1.9l0.2-1.7c0.4-4-0.2-8.5-1.4-10.1c-1.8-2.4-4.9-1.9-7.5-2.1c-1.1-0.2-2.3-0.1-3.4,0.5
					c-1.2,0.9-1.2,2.6-1.1,4.1c0.3,4.7,0.6,9.5,2.6,13.8c1.3,3,3.1,5.7,5.4,8c1.8,1.5,3.8,2.6,6,3.3c1.9,0.6,3.3,2.2,3.5,4.2
					c0.1,2.3-0.7,4.6-2.2,6.3c-1.5,1.6-1.9,6.1-1.1,9.9l2.2,9.8c0.8,4.5,0.8,9-0.2,13.5c-1.1,4.5-1.9,9-2.4,13.6l-0.4,3.9
					c-0.2,4.5,1.5,8.8,4.6,12.1l8.9,8.2c3.1,2.9,5.7,6.3,7.7,10c1.5,3.9,2.4,8.1,2.4,12.3v18.6c0,4-1.7,9.3-3.7,11.9
					s-6.8,5.7-10.5,7l-0.4,0.2c-3.6,1.2-7.2,1.9-10.5-0.3c-0.8-0.7-1.8-1.3-2.7-1.7c-1.1-0.3-2.2-0.3-3.3-0.2
					c-0.8,0-1.5,0.2-2.2,0.4c-0.7,0.3-1.3,0.8-1.5,1.6c-0.1,0.8,0,1.5,0.5,2.2c0.6,1,1.1,2.1,1.8,3.1c1.6,2.6,3.8,5.1,4.8,5.6
					c3.6,1.8,2.4,8.2,5.3,10.6c1,0.9,2.2,1.4,3.2,2.2c0.8,0.5,1.3,1.5,1.3,2.5c-0.2,0.7-0.5,1.3-0.9,1.8c-0.9,1.3-1.6,3.5-0.8,5
					c1.1,2.1,4.4,4.1,7.2,4.5s8.5,0.6,12.4,0.6h21.8c4.4,0.2,8.3,2.7,10.5,6.4l2.1,4.1c1.8,3.5,6.1,6.4,9.5,6.4s8.5-2.4,11.2-5.3
					l0.4-0.4c2.7-3.1,3.1-7.7,0.9-11.2l-5-7.3c-2.7-4-5-8.2-7-12.6l-5.7-13.1c-1.7-4.4-2.2-9.1-1.4-13.7l2.3-11.5
					c1.1-4.6,2.8-9.1,5.1-13.3l6.7-11.6c2.1-3.7,3.8-7.7,4.9-11.8c0.7-3,3.1-6.5,5.3-7.7c3.2-1.5,6.6-2.4,10.1-2.6
					c3.4-0.2,8.7,1.5,11.9,3.9l3.4,2.6c3.2,2.4,5.2,6.1,4.4,8.2s-2.1,7.1-3,10.9l-0.5,1.9c-0.9,3.9-4,7.3-6.8,7.6s-5.9-0.6-6.8-2.1
					s-2.2-3.9-3-5.4s-4.6-2.1-8.4-1.2s-7.5,2.3-8.2,3.2s-0.4,3.1,0.4,4.8c1.1,2,2.6,3.7,4.5,4.9c1.7,1,3.7,1.4,5.7,1
					c1.6-0.4,3.3-0.6,5-0.4c1.2,0.2,2,3.7,1.8,7.6l-0.3,5.1c0,4.7,1.2,9.2,3.6,13.2l9.4,14.4c2.3,3.9,3,8.5,2.2,13
					c-0.7,2.9-1.5,5.9-2.2,8.8c-0.5,1.8-0.7,3.7-1.2,5.4c-0.9,2.9-1.9,5.2-1.5,8.3c0.3,2.2,0.7,4.1,0.2,6.3c-0.5,2-3.4,5.7-6.5,8.2
					c-2.7,2.2-4.9,5.1-8.4,6.1c-0.7,0.2-1.4,0.4-2.1,0.6c-0.7,0.3-1.3,0.8-1.6,1.5c-0.2,0.9,0,1.9,0.4,2.7c0.9,2.2,2.5,4.8,1,7.2
					c-0.5,1-0.9,2.1-1.1,3.2c-0.4,1.2-0.9,2.3-1.7,3.3c-0.4,0.5-0.6,1.1-0.5,1.7c0.3,0.8,1.3,0.9,2.1,0.9c2.5-0.2,5-1.1,6.9-2.8
					c1.7-1.4,4.1-2.8,5.2-4.9c0.8-1.5,4.5-4,8.2-5.4l14.4-5.6c4.4-1.8,8.6-4.2,12.5-6.9l3.1-2.3c3.7-2.9,6.9-6.3,9.4-10.2
					c2.1-3.5,3.1-6.8,6.5-9.2c2.5-1.6,4.8-3.5,6.9-5.6c1.2-1.4,2-3.1,3.3-4.5c0.3-0.3,0.5-0.7,0.6-1.1c0.1-0.7-0.5-1.3-0.9-1.8
					c-1.5-1.8-1.7-3.8-1.6-6s-0.2-4.5-0.1-6.8c0-0.3,0-0.7-0.3-0.9c-0.1-0.1-0.3-0.1-0.5-0.1h-2.8c-0.7,0-1.5-0.1-2.1-0.3
					c-2.4-0.9-3.1-5.5-2.3-7.6c1.7-4.2,4.3-8,7.7-11l3.6-3c3.5-2.6,8.1-3.4,12.2-2l5.7,2.2l1.8-2.7
					C532.5,834.1,533.6,831.8,534.1,829.3z"/>
				<path class="st0" d="M640.9,550c-2.7,0.3-5.4,0.7-8,1.4l-6.1,1.7c-2.5,0.8-4.9,1.9-7.2,3.3l-1.6,1.1c-2.5,1.5-5.2,2.5-8.1,2.9
					l-6.2,0.7c-0.2,0-0.5,0-0.7,0c-2.7-0.1-5.2-1.4-6.8-3.6l-2.1-3.2c-1.5-2.2-3.2-4.3-5-6.3l-1.6-1.6c-1.5-1.4-3.7-1.8-5.7-1.2
					l-5.7,2.1c-2.8,0.9-5.7,1.2-8.6,0.8l-14.8-2.3c-2-0.2-3.9,0.7-4.9,2.4l-4,7.5c-1.4,2.5-2.9,4.9-4.6,7.1l-8.7,11.1
					c-1.6,2.1-3,4.4-4.1,6.8l-4.5,9.9c-1.3,2.6-3.1,4.9-5.3,6.8l-14.3,11.5c-1.6,1.5-2.5,3.6-2.5,5.8l1,13.8c0.3,2.1,1.6,4,3.4,5.1
					l5.4,2.8c2.6,1.4,4.6,3.7,5.8,6.3l3.1,7.8c1,2.8,0.2,5.9-2,7.8l-3.5,2.9c-1.9,1.7-3.4,3.8-4.5,6.1l-0.7,1.6
					c-0.6,1.7,0,3.6,1.4,4.7l2.2,1.4c2.4,1.7,3.9,4.4,4,7.4v1.2c-0.1,2.9-2.1,5.4-5,6.1l-7.6,1.4c-2.3,0.6-4.3,1.9-5.8,3.7l-0.8,1.1
					c-1.8,2.3-4.7,3.6-7.6,3.5l-8.8-0.8c-2.1-0.1-4.1,0.9-5.3,2.6l-0.8,1.2c-1.7,2.4-4.5,3.8-7.5,3.6l-6.9-0.8
					c-2.5-0.2-5.1,0.2-7.5,1l-4.9,2l3.5,6.4c1.1,2,3,5.2,4.1,7.2l7.3,12.2c1.4,2.2,3.1,4.3,5,6.1l6.9,6.1c2.1,2,3.7,4.6,4.5,7.4
					l3,12c0.7,2.3,2.1,4.2,4,5.7l3.5,2.3c2.3,1.7,4.4,3.7,6.1,6l11.9,17.1c1.5,1.9,3.5,3.4,5.7,4.4l15.3,5.4c2.7,1.1,5,3,6.6,5.5
					l1.4,2.4c1.3,2.6,1.8,5.6,1.4,8.5l-1.2,6.9c-0.6,2.8-1.9,5.5-3.6,7.8l-1.4,2.1l0.4,0.2c3,1,5.9,2.5,8.5,4.3c2.2,1.8,3.8,4.2,6,6
					l1.2,1c3.1,2.4,6.7,4,8,3.5s2.3-2.3,2.3-4c0.2-2.2,1.3-4.3,2.9-5.8c1.8-2,2.9-4.6,2.9-7.3c-0.1-1.6,0.2-3.2,0.9-4.7
					c0.7-1.2,1.5-1.9,1-3.5c-0.3-1.1-1.1-2-1.2-3.1c0-0.7,0.2-1.4,0.5-2.1c0.6-2.1,1.4-4.3,2.3-6.3c0.7-1.2,1.4-2.4,2-3.7
					c1.4-2.7,3-5.4,4.8-7.8c2.1-3,3.9-7.5,3.9-10.1c0.3-3.9,1.1-7.8,2.4-11.6l4-11.6c0.8-2,2.2-7.7,0.6-9.6
					c-0.5-0.6-1.4-0.7-2.1-1.1c-0.6-0.4-1.1-0.9-1.6-1.5c-1.2-1.5-2.2-3-2.1-5c0.1-1.4,0.1-2.7,0-4.1c-0.2-4.7,0.3-9.5,1.7-14
					c1.2-3.6,2-7.3,2.4-11.1c0.2-1.7-0.2-3.3,0.2-5c0.5-1.9,1.5-3.5,2.1-5.4s0.6-3.5,1.3-5.2c0.9-2.5,2.4-4.5,3.1-7.1
					c0.5-2.4,1.2-4.7,2.1-7c1.2-3.2,2-6.6,2.4-9.9l0.5-3c0.8-4.7,1.9-9.4,3.3-14l0.2-0.7c1.6-4.5,3.5-8.9,5.8-13.1l4.2-7.4
					c2-3.4,3.5-8.2,3.3-10.6c-0.1-2.5,1.2-4.9,3.4-6.2c3.2-1.6,3.9-6.6,4-9.8c0.1-3.5,2-6.7,4.9-8.5c1-0.6,1.9-1.3,2.8-2.1
					c0.8-0.7,1.2-1.9,0.9-3c-0.5-0.8-1.2-1.5-2-1.9c-2.1-1.4-4.1-7.2-3.4-9.7c0.5-1.7,3.3-5.1,6.3-7.6l3.7-3.1c3-2.5,5.9-6,6.4-7.5
					s3.7-4.6,7.1-6.7l1.1-0.7c3.4-2.1,5.8-5.2,5.3-6.9c-0.3-2.1,0.5-4.2,2.1-5.5c1.7-1.4,3-3.2,3.8-5.2c0.3-0.8,0.6-1.5,1.1-2.2
					c-2.5-1.5-5.8-2.9-7-2.8L640.9,550z"/>
				<path class="st0" d="M682.2,514.6c-2.9-0.6-5.8-1.4-8.6-2.4c-1.7-0.7-4.7-2-6.6-1.4c-1.1,0.4-2.3,0.5-3.5,0.3
					c-1.6-0.7,1.5-3.2,1.6-3.9c0-0.6-0.3-1.1-0.8-1.4c-0.5-0.2-1-0.4-1.6-0.6c-2.4-1-2.1-2.7-1.5-4.6c0.5-2.2,0.9-4.5,1.1-6.8
					c0.2-2,3.6-4.2,7.5-4.9c0,0,1.3-0.2,1.6-0.2c1.1-0.1,2.2-0.3,3.3-0.6c0.7,0,1.4-0.2,2-0.5c0.7-0.3,1.1-1,1.1-1.7
					c0-0.1,0-0.2-0.1-0.3c-0.1-0.1-0.3-0.2-0.5-0.1c-3.1-0.2-6.1,0.1-9.1,0.8c-1.7,0.4-3.5,0.1-5.1-0.7c-1.7-0.9-3.5-1.3-5.4-1.4
					c-1.6,0-2.5-0.8-1.9-1.8c0.7-1.1,1.7-2.2,2.3-3.3c0.5-0.9,0.6-2,1.4-2.9c0.6-0.6,1.3-1,1.9-1.6c0.2-0.2,0.3-0.4,0.3-0.7
					c-0.1-0.3-0.4-0.4-0.7-0.5c-1.9-0.4-3.6,1.1-5.5,0.2c-0.3-0.2-0.7-0.3-1.1-0.4c-0.8-0.1-1.7,0-2.4,0.4c-2.6,0.8-3.6-1.4-4.2-3.6
					c-0.3-2.5-0.1-5,0.8-7.3c1.3-3,3.2-5.7,5.5-8.1c2.2-2.1,3.4-4.6,2.7-5.6c-1.2-1.3-2.7-2.2-4.3-2.8c-2.3-0.5-4.6-0.4-6.8,0.4
					c-2.1,0.8-6.9,1.1-10.7,0.8s-9.2-1.2-12-1.8c-4.1-0.7-8.2-0.8-12.3-0.4l-2.2,0.2c-4,0.4-9.7-0.5-12.7-2.1s-5.5-6-5.5-9.8
					s0.7-8.1,1.5-9.6s3.5-2.4,6-2.1c2.2,0.3,4.5,0.3,6.8,0c2.2-0.8,4.2-1.9,6.1-3.3c2.1-1.5,3.7-3.3,3.5-4.1
					c-0.5-1.3-1.4-2.4-2.5-3.2c-1.2-0.9-1-2,0.5-2.5c2.2-0.6,4.5-0.1,6.8-0.2c2.7-0.1,3.8-1.3,5.4-3.2c2.2-2.7,4.2-8.1,4.5-12.1
					l0.2-2.6c0.3-4,0.7-9.6,1-12.5s-1.5-7.9-3.8-11.1l-3.6-4.9c-2.1-2.9-3.5-5-4-8.5c0-0.6-0.2-1.1-0.5-1.6
					c-0.7-0.6-1.6-0.7-2.5-0.5c-3.1,0.2-5.7-1.1-8.6-2c-1.5-0.6-3.1-0.4-4.4,0.4c-0.8,0.7-1.3,1.8-2.4,2.1s-1.8-0.4-2.7-0.8
					c-2.3-1.2-5-1.2-7.3,0c-3.2,1.7-4.5,5.6-5.6,8.9c-1.2,3.7-4.3,8.4-6.9,10.5s-7.9,3.6-11.9,3.4l-13.8-0.8
					c-4.3-0.3-8.5-1.5-12.4-3.4c-2.9-1.5-5.9-2.8-8.9-3.9l-3.6,5.9c-1,2.1-1.3,4.5-0.8,6.8l2.5,9.4c0.7,2.7-0.4,5.9-2.5,7.2
					c-2.5,1.3-5.3,1.7-8,1.2l-4.8-0.6c-2.7-0.6-5.4-1.4-8.1-2.5c-2.1-0.7-4.4-0.5-6.4,0.5l-4.1,2.4c-2,1.1-5.2,3-7.1,4.2l-4.3,2.8
					c-1.8,1.3-3.1,3.3-3.5,5.5v0.2c-0.5,2.9-1.6,5.6-3.2,8l-1.1,1.5c-1.4,2.1-2.2,4.4-2.5,6.9l-1,16.4c-0.2,2.8-0.8,5.5-1.7,8.1
					c-0.6,1.8-0.6,3.9-0.1,4.7c1,1.6,1.3,4.8,1,7l-1.6,12.6c-0.2,2.3,0.5,4.6,1.8,6.5l0,0l0.9,1.2l8.7,10.9c1.5,1.7,3.6,2.8,5.9,3.1
					l11.1,0.6c1.2,0.1,2.3-0.7,2.5-2c0-0.2,0-0.4,0-0.6l-0.6-5c-0.4-2.4-1.5-4.5-3.2-6.2l-3.4-3.1c-2.1-2.1-2.8-5.2-1.9-8l1.2-3.2
					c1.2-2.7,3.5-4.7,6.4-5.5l2.5-0.5c2.9-0.5,5.9,0.3,8.2,2.1l2,1.8c1.9,1.5,4.2,2.3,6.5,2.5h7.2c2.7-0.1,4.9,2.1,4.9,4.7
					c0,0.2,0,0.5,0,0.7l-1,9.6c-0.1,2.3,0.6,4.6,2.1,6.4l11.9,13.2c1.9,2.3,2.6,5.3,1.9,8.2l-1.5,5.4c-0.5,2.2-0.1,4.5,1.1,6.4
					l4.3,6c1.6,2.4,2.8,5,3.7,7.8l1.9,6.8l13,2c2.5,0.3,5,0,7.4-0.7l5.7-2.1c2.8-0.9,5.9-0.2,8.1,1.8l1.7,1.7c2,2,3.8,4.3,5.4,6.6
					l2.1,3.2c1.2,1.7,3.2,2.6,5.3,2.6l6.2-0.7c2.5-0.4,4.9-1.2,7.1-2.6l1.6-1.1c2.4-1.5,5.1-2.7,7.8-3.6l6.1-1.7
					c2.7-0.7,5.6-1.2,8.4-1.5l11.1-0.9c1.8-0.2,5.7,1.4,8.5,3.2c0.3-0.3,0.5-0.6,0.8-0.8c1.4-1.1,3.1-1.8,4.8-2
					c1.8-0.2,3.5-0.8,5-1.8c1.3-0.9,2.7-1.8,4.2-2.5c1.4-0.9,2.5-2.2,3.3-3.6c0.9-1.7,0.6-3.3-0.7-3.7c-1.2-0.4-2.4-0.5-3.6-0.3
					c-0.7,0.2-1.3-0.6-1.4-1.8c0.1-1.7,0.7-3.4,1.8-4.7c1.2-1.6,2-3.5,2.4-5.4c0.4-3.2,3.1-5,5.7-6.3c0.5-0.2,1-0.6,1.1-1.1
					C683.7,515.1,682.9,514.8,682.2,514.6z"/>
				<path class="st0" d="M326.7,508.3l-0.1-0.1c-1.5-1.9-3.5-3.3-5.8-4.1l-3.1-0.9c-2.8-0.9-5.2-2.7-6.9-5.1l-3.4-5.2
					c-1.5-2.2-3.3-4.2-5.2-6l-0.5-0.4c-2.2-1.9-2.4-5.2-0.5-7.3l0.1-0.1l1.3-1.4c0.5-0.5,0.8-1.3,0.8-2c-0.1-0.7-0.4-1.4-1-1.9
					l-3.5-2.8c-2.1-1.5-4.4-2.7-6.9-3.4l-5.1-1.3c-2.8-0.9-5.2-2.6-7-4.9l-1.8-2.5c-1.6-2.4-2.8-5-3.6-7.8l-0.6-2.4
					c-0.6-2.2-1.4-5.9-1.8-8.2l-2.8-17.5c-0.9-0.8-1.9-1.3-3-1.6c-2.1-0.1-4.3,0.4-6.1,1.4c-2,1-4.3,0.7-6-0.7
					c-1.6-1.4-3.8-2.5-5-2.5c-2,0-4.1,0.6-6.1,0.3c-2.3-0.3-4.5-1.9-6.8-1.3c-0.3,0.1-0.5,0.2-0.8,0.4c-0.9,0.7-0.8,2.2-0.4,3.3
					c0.6,1.7,0.9,3.1,1.3,4.8l0.2,0.9c0.9,4.5,0.2,9.1-2,13.2l-2.2,3.6c-2,3.4-1.7,7.1,0.7,8.3s6.4,3.2,8.7,4.5s4.5,3.2,4.8,4.2
					c0.8,1.8,2,3.5,3.4,4.9c1,1,2.9,3.1,1.8,4.6c-0.4,0.5-0.9,0.9-1.5,1.1c-1.1,0.5-2.3,0.7-3.5,0.7c-0.4,0.3-0.2,1,0.2,1.3
					c0.4,0.2,1,0.3,1.4,0.3c3-0.1,5.8,0.2,8.2-1.8c1.5-1.2,3.5-1.7,5.4-1.5c1.7,0.5,2.9,2,3.1,3.8c0.3,3-1.8,5.1-1.6,8
					c0,1.5,0.8,2.8,2.1,3.5c0.3,0.2,0.6,0.2,0.9,0.2c0.5-0.1,0.9-0.3,1.3-0.7c3.3-2.3,7.7-0.6,10.9,0.9c2.5,1,5.1,1.4,7.8,1.1
					c2.3-0.4,6.1,1.1,8.4,3.3c2.7,2.9,4.4,6.5,5,10.4c0.4,4.1,0.4,8.3,0,12.4c-0.3,3.7,0.8,7.4,2.9,10.4c2,2.4,3.1,5.1,2.4,6
					s-2.8,0.8-4.8,0c-1.9-0.8-3.9-1.3-6-1.3c-1.9,0.4-3.7,1.3-5.3,2.5s-5.4,1.1-8.5-0.2s-5.5-5.5-5.5-9.3c0-3.5,0.4-7,1.1-10.4
					c0.5-1.7,0.9-3.5,1.1-5.3c0-1.2-0.4-2.4-1-3.4c-0.6-0.9-2.5-1.7-4.2-1.8c-1.7-0.1-3.9,1-5.6,0.1c-0.9-0.5-1.6-1.3-2-2.3
					c-1.2-2.4,0.1-5.4-1.1-8c-1.1-2.3-3.4-3.5-4.9-5.4c-1.1-1.3-2.3-2.4-3.6-3.5c-0.6-0.5-1.3-0.9-2-1.1c-0.8-0.2-1.6,0-2.1,0.6
					c-0.5,0.8-0.6,1.7-0.5,2.6c0.1,3.8-1.4,5.6-3.7,8.4c-0.2,0.3-0.4,0.6-0.5,0.9s-0.1,0.6-0.1,0.9c0,2,0.7,3.9,0.8,5.8
					s-1.2,3.3-3,4.2c-0.8,0.4-1.7,0.8-2.1,1.6c-0.1,0.3-0.2,0.7-0.1,1c0,3.8,3.2,8.6,5.8,11.3c1.8,1.9,4.1,6.6,5.2,10.4l0.3,1.1
					c1,3.8,2.1,8.3,2.3,9.9s3.3,2.7,6.9,2.4c3.6-0.3,8,2.3,10,5.8s4.4,8.2,5.4,10.5c1.6,3.3,2.3,6.3,0.7,9.8
					c-0.6,1.3-1.7,2.5-2.3,3.8c-0.6,1.5-1.1,3.1-1.5,4.6c-0.6,2.2-1.6,5.4,0.1,7.3c0.9,1,2.2,1.5,3.5,1.4c2.9-0.2,4.8-2.9,6.5-5
					l15.8-19.4c3.1-3.6,6.9-6.5,11.2-8.6l4.7-2.2c4.4-1.9,9-2.9,13.8-3h4.3c4,0,8.9,2.5,10.9,5.4s1.6,7.8-0.9,10.9
					c-0.9,1.1-1.8,2.2-2.7,3.3c-1.2,1.6-3.5,2.7-4.4,4.5c-0.3,0.6-0.4,1.3-0.4,1.9c-0.2,4.4,1.7,8.7,5.2,11.4
					c2.9,2.5,6.9,3.9,8.7,3.1c5.1-2.1,6.6-8,11.5-9.8c1.6-0.6,3.3-1.2,4.4-2.5c0.6-0.8,0.9-1.8,1.5-2.6c0.8-1,1.8-1.9,2.6-3l4.4-6.1
					c2.3-3.2,4-7.7,3.8-10s-1.9-7-3.8-10.5l-3.7-7.1c-1.9-3.5-6.1-6.5-9.6-6.6c-4.4,0.2-8.6,1.4-12.4,3.5l-2.9,1.7
					c-2.4,1.6-5.6,1-7.3-1.4c-0.4-0.6-0.7-1.3-0.8-2l-0.5-1.7c-0.9-4.2,0.6-8.5,4-11.2l3.8-2.8c0.4-0.3,0.9-0.7,1.2-1.1l-12.9-1.5
					C331.2,512.2,328.6,510.7,326.7,508.3z"/>
				<path class="st0" d="M391.2,697.8l0.7,0.2c2.4,0.7,4.9,0.9,7.3,0.5l7-1.6c2.4-0.7,4.5-1.9,6.2-3.7l3.4-3.8
					c2.1-2.1,5-3.1,7.9-2.5l5,1.2c2.8,0.8,5.4,2.3,7.4,4.4l3.7,4.2c1.9,2.2,3.5,4.5,4.9,7l-1,0.6l0,0l1-0.6l1.3,2.4l5.2-2.1
					c2.7-1,5.7-1.4,8.6-1.2l6.9,0.7c2.1,0.1,4.1-0.9,5.3-2.5l0.8-1.2c1.7-2.4,4.5-3.8,7.5-3.6l8.8,0.8c2.1,0.1,4.2-0.9,5.5-2.5
					l0.8-1.1c1.8-2.3,4.4-3.9,7.2-4.6l7.6-1.4c1.8-0.4,3.1-2,3.1-3.8v-1.2c-0.2-2.2-1.3-4.2-3-5.5l-2.2-1.4
					c-2.4-1.7-3.4-4.8-2.3-7.5l0.7-1.6c1.2-2.6,3-5,5.2-6.9l3.5-2.9c1.4-1.3,1.9-3.4,1.3-5.2l-3.1-7.8c-1-2.2-2.7-4-4.7-5.2
					l-5.4-2.8c-2.6-1.5-4.3-4.1-4.6-7l-1-13.8c-0.1-2.9,1.1-5.8,3.3-7.8l14.3-11.5c1.9-1.7,3.5-3.7,4.6-6l4.5-9.9
					c1.2-2.6,2.7-5,4.4-7.3l8.7-11.1c1.6-2.2,3.1-4.4,4.4-6.8l4-7.5c1.4-2.3,3.9-3.7,6.6-3.7l-1.6-5.9c-0.8-2.5-1.9-4.9-3.4-7
					l-4.2-6c-1.6-2.5-2.1-5.5-1.5-8.4l1.5-5.4c0.4-2.1-0.1-4.3-1.4-6L530,491.3c-1.9-2.3-2.8-5.2-2.6-8.1l1-9.6
					c0.1-0.7-0.1-1.5-0.6-2c-0.5-0.6-1.2-0.9-2-0.8h-7.3c-2.9-0.1-5.8-1.2-8.1-3l-2-1.8c-1.8-1.3-4-1.9-6.2-1.6l-2.5,0.5
					c-2.1,0.6-3.8,2.1-4.7,4l-1.2,3.2c-0.6,1.9-0.1,4,1.3,5.5l3.4,3.1c2.1,2.1,3.4,4.8,3.9,7.7l0.6,5c0.4,2.5-1.3,4.8-3.8,5.1
					c-0.4,0.1-0.7,0.1-1.1,0l-11.1-0.6c-2.9-0.3-5.6-1.7-7.6-3.9l-8.1-10.2l-8.9-0.3c-2.9-0.2-5.7-1.5-7.8-3.5l-1.5-1.6
					c-1.7-1.6-3.9-2.5-6.2-2.7h-5.8c-2,0.1-3.8,1.3-4.8,3.1l-0.5,1.1c-1.3,2.7-4.1,4.2-7,3.9l-2.4-0.3c-2.4-0.2-4.8,0.3-7,1.4
					l-7.7,4.5c-2,1.3-3.4,3.2-4.2,5.5l-1.2,4.2c-0.7,2.5-3,4.1-5.6,4.2c-0.3,0-0.7,0-1-0.1l-12.8-2.3c0.7,0.7,1.3,1.5,1.8,2.4
					c1.4,2.4,2.4,5,3,7.7c0.7,3.2,2.8,6.9,4.6,8.1c2.9,2.3,5.6,4.8,8,7.7l3.8,4.4c2.9,3.3,6.2,6.2,9.9,8.6c2.8,1.7,5,6.3,4.9,10.3
					l-0.1,2.7c-0.4,4.6-2.1,9-4.9,12.7l-3.3,4c-2.5,3-6.5,5.9-8.9,6.4c-5.4,1.2-8.7,7.4-14.3,7.6c-0.7,0-1.5-0.1-2.2-0.1
					s-1.4,0.2-2,0.7c-1,0.9-0.7,2.1-0.7,3.2c-0.1,2.4,0,4.9,0.2,7.3c0,0.2,0.1,0.5,0.2,0.7c0.3,0.3,0.7,0.4,1,0.2s0.6-0.4,0.9-0.7
					c2.6-2.7,6.4-6.1,10.2-6.9c2.5-0.6,4.9-1.6,7.2-2.8c2.1-1.2,7-2.4,11-2.7l2.4-0.2c4-0.3,6.5,0.2,5.6,1.1
					c-1.9,2.5-3.6,5.1-5.1,7.9l-2,3.5c-1,1.7-2,3.3-3.2,4.8c-0.9,1.1-1.5,2.3-2,3.6c-0.4,1.4,0,2.5,0.1,3.9c0,0.9-0.1,1.8-0.4,2.7
					c-0.2,0.7-0.2,1.7,0.4,2c0.4,0.2,0.8,0.2,1.1,0.2l2.4-0.2c0.7-0.1,1.4-0.1,2,0.2c2.3,1.1,0.4,5-0.5,6.3l-13.9,22
					c-2.8,4.4-4.6,10.2-8.4,13.8c-0.7,0.7-1.6,1.2-2.3,1.9c-2.5,2.5-2.9,7-3.4,10.2c-0.8,3.4-2.8,6.4-5.5,8.4
					c-3.1,2.5-5.6,5.6-7.2,9.2c-0.3,0.7-0.7,1.4-1.2,2l8.4,7.7C386.5,695.5,388.8,696.9,391.2,697.8z"/>
				<path class="st0" d="M382.1,455.1c1.6-1.7,4.1-4.4,5.6-6.1l8-8.9c2-2.1,4.2-3.9,6.7-5.4l7.5-4.2c1.7-1.1,2.7-3,2.6-5l-0.6-5.2
					c-0.4-2.6-1.2-5.1-2.3-7.4l-1.3-2.5c-0.9-1.7-2.6-2.5-3.7-2.1c-1.5,0.6-2.8,1.8-3.4,3.3c-0.7,2-3.4,4-6,4.6l-0.5,0.1
					c-2.6,0.6-5.9-0.2-7.4-1.6c-1.5-1.3-3.3-2.2-5.2-2.8c-2.6-0.8-4.9-2.3-6.9-4.2l-0.9-1c-1.8-1.7-4-2.8-6.4-3.3l-8.4-1.3
					c-2.5-0.3-5,0.1-7.3,1l-1.3,0.6c-2.7,1.1-5.6,1.6-8.5,1.5l-12-0.8c-2.9-0.3-5.6-1.9-7.4-4.2l-3.5-4.9c-3.2,7.7-17,9.4-18.4-0.6
					l-0.4-3c-0.6-3.9-2.8-8.2-4.9-9.5s-5.4-1.9-7.3-1.3c-3.3,1-4.1,3.7-6.1,6c-0.5,0.5-0.9,1-1.3,1.6c-1,1.9,4.8,8.4,1.3,9.6
					c-1,0.2-2,0-2.9-0.5l-2.6-1c-0.9-0.4-2.2-0.7-2.8,0.2c-0.3,0.6-0.2,1.3,0.1,1.9c1.1,3.5,2,7.1,2.7,10.7c0.4,1.9,0.7,3.8,1.1,5.8
					c0.2,1.2,0.2,3.5,1.6,4.1s4.8-1.9,4.8,1c0,1.3-2,4.2-4.5,6.4s-5.9,2-7.6-0.4c-0.1-0.1-0.2-0.2-0.3-0.4l2.3,14.3
					c0.4,2.2,1.2,5.8,1.8,8l0.6,2.4c0.8,2.5,1.9,4.9,3.3,7.1l1.7,2.5c1.5,1.9,3.5,3.3,5.7,4l5.1,1.3c2.8,0.8,5.4,2.1,7.7,3.8
					l3.5,2.8c2.2,1.7,2.5,4.9,0.8,7c-0.1,0.1-0.2,0.2-0.3,0.3l-1.3,1.4c-1.1,1.2-1,3,0.1,4.1c0,0,0,0,0.1,0.1l0.5,0.4
					c2.1,1.9,4,4.1,5.6,6.5l3.4,5.2c1.4,1.9,3.4,3.4,5.7,4.1l3.1,0.9c2.8,0.9,5.2,2.7,7,5l0.1,0.1c1.4,1.8,3.5,3,5.7,3.4l14.6,1.7
					c0.3-0.3,0.6-0.6,1-0.9s0.8-0.7,1.2-1.1c0.3-0.4,0.4-1,0.3-1.5c-0.2-0.4-0.4-0.7-0.7-1c-4.1-4-6.4-10.1-9.1-15.2l-5.2-9.6
					c-1.9-3.6-0.7-8,2.8-10.2l12.5-7.8c3.4-2.1,7.6-1.9,9.5,0.5c1.6,2,5.3,3.6,8.8,3.9c1-1.7,2.1-3.3,3.3-4.8L382.1,455.1z"/>
				<path class="st0" d="M404.1,498.7l1.2-4.2c0.9-2.8,2.8-5.2,5.2-6.8l7.7-4.5c2.6-1.4,5.5-2,8.5-1.7l2.4,0.4
					c1.9,0.2,3.7-0.8,4.6-2.5l0.5-1.1c1.3-2.7,3.9-4.4,6.9-4.5h5.8c2.9,0.1,5.7,1.3,7.9,3.4l1.5,1.6c1.7,1.6,3.9,2.6,6.2,2.8
					l6.9,0.2c-1.5-2.3-2.2-5.1-2-7.8l1.6-12.6c0.3-1.8,0.1-3.7-0.6-5.5c-1.1-1.7-0.8-4.7-0.1-6.7c0.8-2.4,1.3-4.9,1.5-7.4l1-16.4
					c0.3-2.9,1.3-5.7,3-8.1l1.1-1.5c1.4-2.1,2.4-4.5,2.8-7v-0.2c0.5-2.9,2.2-5.5,4.6-7.2l4.4-2.8c2-1.2,5.2-3.2,7.2-4.3l4.1-2.4
					c2.6-1.3,5.6-1.5,8.4-0.6c2.5,1,5.1,1.7,7.7,2.3l4.4,0.9c2.1,0.4,4.3,0.1,6.3-0.9c1.4-1.1,1.9-2.9,1.5-4.6l-2.5-9.4
					c-0.6-2.9-0.2-5.9,1.1-8.5l3.3-5.4c-3.6-0.9-7.2-1.5-10.8-2c-3.4-0.4-7.9-3.5-9.9-7l-6.7-11.3c-2.3-4.2-3.8-8.7-4.4-13.4
					l-0.2-2.5c-0.4-4-1.7-8.5-2.9-10s-1.5-5.2-0.6-8.1c1.3-3.9,2.9-7.7,4.8-11.4c1.8-3.4,2.3-7,1.3-8c-1.1-1.1-2.6-1.7-4.2-1.9
					c-1.2,0-4.5,2.1-7.1,4.7c-2.2,2.2-4.6,4.2-7.2,5.9c-2.2,0.8-4.5,1.2-6.8,1.3c-2.7,0-5.4-1-7.4-2.8c-2-1.9-2.2-6.6-5.1-7.1
					c-1-0.1-2,0-3,0.2c-3.8,0.8-8,1.1-11.5,2.6c-2,0.6-4.1,0.8-6.1,0.6c-2.2-0.1-5.8,2.4-8.1,5.6l-0.2,0.4c-2.8,3.4-7,5.5-11.4,5.6
					l-5-0.1c-8.1-0.2-17,10.7-17,18.5v0.6c-0.3,3.9-0.3,7.9-0.1,11.9c0.2,2.6-1.8,6.2-4.6,8c-3.5,2.6-6.4,5.8-8.8,9.5l-4.2,6.9
					c-2.6,3.7-6.6,6.1-11,6.7l-0.8,0.1c-4.5,0.1-8.8-1.6-12-4.8l-0.2-0.3c-2.7-2.9-7.2-3.2-10.2-0.5c-3.5,3.1-6.9,4.8-11,7.1
					c-1.1,0.6-2.3,1.4-2.5,2.6c-0.3,1.8,1.5,3.1,3.2,3.9s3.6,1.9,3.6,3.7c0,5.4-9.7,7.2-13.4,7.2c-1.4,0-3-0.2-4.1,0.6
					s-1.5,2.3-1.8,3.8l4.6,6.4c1.4,1.8,3.4,2.9,5.7,3.2l12,0.8c2.5,0.1,5-0.4,7.4-1.3l1.3-0.6c2.7-1.1,5.7-1.5,8.6-1.1l8.4,1.3
					c2.9,0.6,5.5,2,7.7,4l0.9,1c1.6,1.6,3.6,2.8,5.8,3.5c2.3,0.6,4.4,1.8,6.2,3.4c1.6,1.1,3.5,1.4,5.3,1l0.5-0.1
					c2-0.4,3.9-2,4.3-3.1c0.9-2.2,2.7-3.9,4.9-4.7c2.2-0.7,5,0.7,6.4,3.2l1.3,2.5c1.3,2.6,2.1,5.4,2.5,8.2l0.6,5.2
					c0.2,2.9-1.2,5.8-3.7,7.3l-7.5,4.2c-2.3,1.4-4.3,3-6.1,4.9l-8,8.9c-1.5,1.7-4.1,4.5-5.6,6.2l-8.8,9.5c-0.8,1-1.6,2.1-2.3,3.2
					l1.7-0.1c4.3,0.1,8.2,2.5,10.3,6.3l0.6,1.3c1.1,2.5,1.7,5.2,1.9,8c0.3,2.7-1,5.1-2.5,7.4c-0.6,0.8-1,1.7-1.2,2.6
					c0,0.9,0.2,1.7,0.6,2.5c0.2,0.4,0.4,0.7,0.7,1.1l15.4,2.8C402,501.4,403.6,500.3,404.1,498.7z"/>
				<path class="st0" d="M339,653.7l0.4-1.8c0.7-2.5,2.6-4.5,5-5.3l1.4-0.4c2.4-0.9,4.4-2.8,5.2-5.3c0.8-3.1,1.1-6.8,2.9-9.5
					c0.3-0.4,0.8-0.9,1.2-0.7c1,0.5-0.2,2.3,0.4,3.2c0.5,0.5,1.3,0.5,1.8,0.1c0.5-0.5,1-1,1.4-1.5c2.5-2.6,6.1-3.9,9.8-3.5
					c1.8,0.2,3.6,0.6,5.4,1.2c2.2,1,4.7,1.4,7.1,1.2c4.9-0.6,6.2-5.5,8-9.4l4.3-9.3c1-2.1,0.1-4.7-1.9-5.8c-2.4-1.1-5.1-1.2-7.6-0.4
					l-30.4,12.3c-1.7,0.8-3.7,0.1-4.4-1.6c-0.1-0.3-0.2-0.6-0.3-1l-0.9-4.9c-0.4-2-0.6-4.1-0.7-6.1c-0.1-1.5,0.1-4.4-0.8-5.5
					c-0.4-0.5-1-0.7-1.6-0.8c-0.6,0-1.2,0.1-1.8,0.3c-1.8,0.6-3.4,1.5-5.2,2.2l-5.5,1.9l-6.5,2.2c-2.5,1-4.4,2.9-5.5,5.3l-4.1,10.5
					c-1.1,2.8-2.2,5.7-3.3,8.5s-1.8,5.7-3.1,8.3c-0.2,0.4-0.5,0.9-0.8,1.3c-0.8,1.1-1.8,2.2-1.8,3.6s1.2,2.7,2,4
					c1.1,1.9,1.1,3.7,1.1,5.8l-1.6,10.7c-0.5,3.7,0.4,8.2,3.2,10.8c0.6,0.7,1.5,1.1,2.4,1.3c0.7,0.1,1.5-0.1,2.1-0.4
					c2.7-1.2,4.4-3.6,6.6-5.4c1.4-1.2,2.9-2.2,4.3-3.3l7.7-5.8C336.8,658.7,338.3,656.3,339,653.7z"/>
				<path class="st0" d="M534.1,829.3l1.2-6.9c0.3-2.4-0.1-4.8-1.2-7l-1.3-2.4c-1.3-2-3.1-3.6-5.3-4.5l-15.3-5.4
					c-2.7-1.1-5.1-2.9-6.9-5.2l-11.9-17.1c-1.6-2.1-3.4-3.9-5.5-5.4l-3.5-2.3c-2.4-1.7-4.1-4.2-5-7l-3-12c-0.7-2.4-2-4.5-3.8-6.2
					l-6.9-6.1c-2.1-2-3.9-4.2-5.5-6.6l-7.3-12.2c-1.2-2-3-5.2-4.2-7.2l-6-10.9l0,0c-1.4-2.3-2.9-4.5-4.6-6.5l-3.7-4.2
					c-1.7-1.8-3.9-3-6.2-3.7l-5-1.2c-2.1-0.3-4.2,0.3-5.7,1.8l-3.4,3.8c-2,2.1-4.6,3.6-7.4,4.4l-7,1.6c-2.9,0.5-5.8,0.4-8.6-0.5
					l-0.7-0.2c-2.7-1.1-5.2-2.6-7.3-4.5l-8.4-7.7c-1.9,1.7-4.3,2.8-6.8,3.3l-15.7,2.2c-2.9,0.6-5.8-1.3-6.4-4.2
					c-0.1-0.6-0.1-1.3,0-1.9l0.2-1.7c0.4-4-0.2-8.5-1.4-10.1c-1.8-2.4-4.9-1.9-7.5-2.1c-1.1-0.2-2.3-0.1-3.4,0.5
					c-1.2,0.9-1.2,2.6-1.1,4.1c0.3,4.7,0.6,9.5,2.6,13.8c1.3,3,3.1,5.7,5.4,8c1.8,1.5,3.8,2.6,6,3.3c1.9,0.6,3.3,2.2,3.5,4.2
					c0.1,2.3-0.7,4.6-2.2,6.3c-1.5,1.6-1.9,6.1-1.1,9.9l2.2,9.8c0.8,4.5,0.8,9-0.2,13.5c-1.1,4.5-1.9,9-2.4,13.6l-0.4,3.9
					c-0.2,4.5,1.5,8.8,4.6,12.1l8.9,8.2c3.1,2.9,5.7,6.3,7.7,10c1.5,3.9,2.4,8.1,2.4,12.3v18.6c0,4-1.7,9.3-3.7,11.9
					s-6.8,5.7-10.5,7l-0.4,0.2c-3.6,1.2-7.2,1.9-10.5-0.3c-0.8-0.7-1.8-1.3-2.7-1.7c-1.1-0.3-2.2-0.3-3.3-0.2
					c-0.8,0-1.5,0.2-2.2,0.4c-0.7,0.3-1.3,0.8-1.5,1.6c-0.1,0.8,0,1.5,0.5,2.2c0.6,1,1.1,2.1,1.8,3.1c1.6,2.6,3.8,5.1,4.8,5.6
					c3.6,1.8,2.4,8.2,5.3,10.6c1,0.9,2.2,1.4,3.2,2.2c0.8,0.5,1.3,1.5,1.3,2.5c-0.2,0.7-0.5,1.3-0.9,1.8c-0.9,1.3-1.6,3.5-0.8,5
					c1.1,2.1,4.4,4.1,7.2,4.5s8.5,0.6,12.4,0.6h21.8c4.4,0.2,8.3,2.7,10.5,6.4l2.1,4.1c1.8,3.5,6.1,6.4,9.5,6.4s8.5-2.4,11.2-5.3
					l0.4-0.4c2.7-3.1,3.1-7.7,0.9-11.2l-5-7.3c-2.7-4-5-8.2-7-12.6l-5.7-13.1c-1.7-4.4-2.2-9.1-1.4-13.7l2.3-11.5
					c1.1-4.6,2.8-9.1,5.1-13.3l6.7-11.6c2.1-3.7,3.8-7.7,4.9-11.8c0.7-3,3.1-6.5,5.3-7.7c3.2-1.5,6.6-2.4,10.1-2.6
					c3.4-0.2,8.7,1.5,11.9,3.9l3.4,2.6c3.2,2.4,5.2,6.1,4.4,8.2s-2.1,7.1-3,10.9l-0.5,1.9c-0.9,3.9-4,7.3-6.8,7.6s-5.9-0.6-6.8-2.1
					s-2.2-3.9-3-5.4s-4.6-2.1-8.4-1.2s-7.5,2.3-8.2,3.2s-0.4,3.1,0.4,4.8c1.1,2,2.6,3.7,4.5,4.9c1.7,1,3.7,1.4,5.7,1
					c1.6-0.4,3.3-0.6,5-0.4c1.2,0.2,2,3.7,1.8,7.6l-0.3,5.1c0,4.7,1.2,9.2,3.6,13.2l9.4,14.4c2.3,3.9,3,8.5,2.2,13
					c-0.7,2.9-1.5,5.9-2.2,8.8c-0.5,1.8-0.7,3.7-1.2,5.4c-0.9,2.9-1.9,5.2-1.5,8.3c0.3,2.2,0.7,4.1,0.2,6.3c-0.5,2-3.4,5.7-6.5,8.2
					c-2.7,2.2-4.9,5.1-8.4,6.1c-0.7,0.2-1.4,0.4-2.1,0.6c-0.7,0.3-1.3,0.8-1.6,1.5c-0.2,0.9,0,1.9,0.4,2.7c0.9,2.2,2.5,4.8,1,7.2
					c-0.5,1-0.9,2.1-1.1,3.2c-0.4,1.2-0.9,2.3-1.7,3.3c-0.4,0.5-0.6,1.1-0.5,1.7c0.3,0.8,1.3,0.9,2.1,0.9c2.5-0.2,5-1.1,6.9-2.8
					c1.7-1.4,4.1-2.8,5.2-4.9c0.8-1.5,4.5-4,8.2-5.4l14.4-5.6c4.4-1.8,8.6-4.2,12.5-6.9l3.1-2.3c3.7-2.9,6.9-6.3,9.4-10.2
					c2.1-3.5,3.1-6.8,6.5-9.2c2.5-1.6,4.8-3.5,6.9-5.6c1.2-1.4,2-3.1,3.3-4.5c0.3-0.3,0.5-0.7,0.6-1.1c0.1-0.7-0.5-1.3-0.9-1.8
					c-1.5-1.8-1.7-3.8-1.6-6s-0.2-4.5-0.1-6.8c0-0.3,0-0.7-0.3-0.9c-0.1-0.1-0.3-0.1-0.5-0.1h-2.8c-0.7,0-1.5-0.1-2.1-0.3
					c-2.4-0.9-3.1-5.5-2.3-7.6c1.7-4.2,4.3-8,7.7-11l3.6-3c3.5-2.6,8.1-3.4,12.2-2l5.7,2.2l1.8-2.7
					C532.5,834.1,533.6,831.8,534.1,829.3z"/>
				<path class="st0" d="M640.9,550c-2.7,0.3-5.4,0.7-8,1.4l-6.1,1.7c-2.5,0.8-4.9,1.9-7.2,3.3l-1.6,1.1c-2.5,1.5-5.2,2.5-8.1,2.9
					l-6.2,0.7c-0.2,0-0.5,0-0.7,0c-2.7-0.1-5.2-1.4-6.8-3.6l-2.1-3.2c-1.5-2.2-3.2-4.3-5-6.3l-1.6-1.6c-1.5-1.4-3.7-1.8-5.7-1.2
					l-5.7,2.1c-2.8,0.9-5.7,1.2-8.6,0.8l-14.8-2.3c-2-0.2-3.9,0.7-4.9,2.4l-4,7.5c-1.4,2.5-2.9,4.9-4.6,7.1l-8.7,11.1
					c-1.6,2.1-3,4.4-4.1,6.8l-4.5,9.9c-1.3,2.6-3.1,4.9-5.3,6.8l-14.3,11.5c-1.6,1.5-2.5,3.6-2.5,5.8l1,13.8c0.3,2.1,1.6,4,3.4,5.1
					l5.4,2.8c2.6,1.4,4.6,3.7,5.8,6.3l3.1,7.8c1,2.8,0.2,5.9-2,7.8l-3.5,2.9c-1.9,1.7-3.4,3.8-4.5,6.1l-0.7,1.6
					c-0.6,1.7,0,3.6,1.4,4.7l2.2,1.4c2.4,1.7,3.9,4.4,4,7.4v1.2c-0.1,2.9-2.1,5.4-5,6.1l-7.6,1.4c-2.3,0.6-4.3,1.9-5.8,3.7l-0.8,1.1
					c-1.8,2.3-4.7,3.6-7.6,3.5l-8.8-0.8c-2.1-0.1-4.1,0.9-5.3,2.6l-0.8,1.2c-1.7,2.4-4.5,3.8-7.5,3.6l-6.9-0.8
					c-2.5-0.2-5.1,0.2-7.5,1l-4.9,2l3.5,6.4c1.1,2,3,5.2,4.1,7.2l7.3,12.2c1.4,2.2,3.1,4.3,5,6.1l6.9,6.1c2.1,2,3.7,4.6,4.5,7.4
					l3,12c0.7,2.3,2.1,4.2,4,5.7l3.5,2.3c2.3,1.7,4.4,3.7,6.1,6l11.9,17.1c1.5,1.9,3.5,3.4,5.7,4.4l15.3,5.4c2.7,1.1,5,3,6.6,5.5
					l1.4,2.4c1.3,2.6,1.8,5.6,1.4,8.5l-1.2,6.9c-0.6,2.8-1.9,5.5-3.6,7.8l-1.4,2.1l0.4,0.2c3,1,5.9,2.5,8.5,4.3c2.2,1.8,3.8,4.2,6,6
					l1.2,1c3.1,2.4,6.7,4,8,3.5s2.3-2.3,2.3-4c0.2-2.2,1.3-4.3,2.9-5.8c1.8-2,2.9-4.6,2.9-7.3c-0.1-1.6,0.2-3.2,0.9-4.7
					c0.7-1.2,1.5-1.9,1-3.5c-0.3-1.1-1.1-2-1.2-3.1c0-0.7,0.2-1.4,0.5-2.1c0.6-2.1,1.4-4.3,2.3-6.3c0.7-1.2,1.4-2.4,2-3.7
					c1.4-2.7,3-5.4,4.8-7.8c2.1-3,3.9-7.5,3.9-10.1c0.3-3.9,1.1-7.8,2.4-11.6l4-11.6c0.8-2,2.2-7.7,0.6-9.6
					c-0.5-0.6-1.4-0.7-2.1-1.1c-0.6-0.4-1.1-0.9-1.6-1.5c-1.2-1.5-2.2-3-2.1-5c0.1-1.4,0.1-2.7,0-4.1c-0.2-4.7,0.3-9.5,1.7-14
					c1.2-3.6,2-7.3,2.4-11.1c0.2-1.7-0.2-3.3,0.2-5c0.5-1.9,1.5-3.5,2.1-5.4s0.6-3.5,1.3-5.2c0.9-2.5,2.4-4.5,3.1-7.1
					c0.5-2.4,1.2-4.7,2.1-7c1.2-3.2,2-6.6,2.4-9.9l0.5-3c0.8-4.7,1.9-9.4,3.3-14l0.2-0.7c1.6-4.5,3.5-8.9,5.8-13.1l4.2-7.4
					c2-3.4,3.5-8.2,3.3-10.6c-0.1-2.5,1.2-4.9,3.4-6.2c3.2-1.6,3.9-6.6,4-9.8c0.1-3.5,2-6.7,4.9-8.5c1-0.6,1.9-1.3,2.8-2.1
					c0.8-0.7,1.2-1.9,0.9-3c-0.5-0.8-1.2-1.5-2-1.9c-2.1-1.4-4.1-7.2-3.4-9.7c0.5-1.7,3.3-5.1,6.3-7.6l3.7-3.1c3-2.5,5.9-6,6.4-7.5
					s3.7-4.6,7.1-6.7l1.1-0.7c3.4-2.1,5.8-5.2,5.3-6.9c-0.3-2.1,0.5-4.2,2.1-5.5c1.7-1.4,3-3.2,3.8-5.2c0.3-0.8,0.6-1.5,1.1-2.2
					c-2.5-1.5-5.8-2.9-7-2.8L640.9,550z"/>
				<path class="st0" d="M682.2,514.6c-2.9-0.6-5.8-1.4-8.6-2.4c-1.7-0.7-4.7-2-6.6-1.4c-1.1,0.4-2.3,0.5-3.5,0.3
					c-1.6-0.7,1.5-3.2,1.6-3.9c0-0.6-0.3-1.1-0.8-1.4c-0.5-0.2-1-0.4-1.6-0.6c-2.4-1-2.1-2.7-1.5-4.6c0.5-2.2,0.9-4.5,1.1-6.8
					c0.2-2,3.6-4.2,7.5-4.9c0,0,1.3-0.2,1.6-0.2c1.1-0.1,2.2-0.3,3.3-0.6c0.7,0,1.4-0.2,2-0.5c0.7-0.3,1.1-1,1.1-1.7
					c0-0.1,0-0.2-0.1-0.3c-0.1-0.1-0.3-0.2-0.5-0.1c-3.1-0.2-6.1,0.1-9.1,0.8c-1.7,0.4-3.5,0.1-5.1-0.7c-1.7-0.9-3.5-1.3-5.4-1.4
					c-1.6,0-2.5-0.8-1.9-1.8c0.7-1.1,1.7-2.2,2.3-3.3c0.5-0.9,0.6-2,1.4-2.9c0.6-0.6,1.3-1,1.9-1.6c0.2-0.2,0.3-0.4,0.3-0.7
					c-0.1-0.3-0.4-0.4-0.7-0.5c-1.9-0.4-3.6,1.1-5.5,0.2c-0.3-0.2-0.7-0.3-1.1-0.4c-0.8-0.1-1.7,0-2.4,0.4c-2.6,0.8-3.6-1.4-4.2-3.6
					c-0.3-2.5-0.1-5,0.8-7.3c1.3-3,3.2-5.7,5.5-8.1c2.2-2.1,3.4-4.6,2.7-5.6c-1.2-1.3-2.7-2.2-4.3-2.8c-2.3-0.5-4.6-0.4-6.8,0.4
					c-2.1,0.8-6.9,1.1-10.7,0.8s-9.2-1.2-12-1.8c-4.1-0.7-8.2-0.8-12.3-0.4l-2.2,0.2c-4,0.4-9.7-0.5-12.7-2.1s-5.5-6-5.5-9.8
					s0.7-8.1,1.5-9.6s3.5-2.4,6-2.1c2.2,0.3,4.5,0.3,6.8,0c2.2-0.8,4.2-1.9,6.1-3.3c2.1-1.5,3.7-3.3,3.5-4.1
					c-0.5-1.3-1.4-2.4-2.5-3.2c-1.2-0.9-1-2,0.5-2.5c2.2-0.6,4.5-0.1,6.8-0.2c2.7-0.1,3.8-1.3,5.4-3.2c2.2-2.7,4.2-8.1,4.5-12.1
					l0.2-2.6c0.3-4,0.7-9.6,1-12.5s-1.5-7.9-3.8-11.1l-3.6-4.9c-2.1-2.9-3.5-5-4-8.5c0-0.6-0.2-1.1-0.5-1.6
					c-0.7-0.6-1.6-0.7-2.5-0.5c-3.1,0.2-5.7-1.1-8.6-2c-1.5-0.6-3.1-0.4-4.4,0.4c-0.8,0.7-1.3,1.8-2.4,2.1s-1.8-0.4-2.7-0.8
					c-2.3-1.2-5-1.2-7.3,0c-3.2,1.7-4.5,5.6-5.6,8.9c-1.2,3.7-4.3,8.4-6.9,10.5s-7.9,3.6-11.9,3.4l-13.8-0.8
					c-4.3-0.3-8.5-1.5-12.4-3.4c-2.9-1.5-5.9-2.8-8.9-3.9l-3.6,5.9c-1,2.1-1.3,4.5-0.8,6.8l2.5,9.4c0.7,2.7-0.4,5.9-2.5,7.2
					c-2.5,1.3-5.3,1.7-8,1.2l-4.8-0.6c-2.7-0.6-5.4-1.4-8.1-2.5c-2.1-0.7-4.4-0.5-6.4,0.5l-4.1,2.4c-2,1.1-5.2,3-7.1,4.2l-4.3,2.8
					c-1.8,1.3-3.1,3.3-3.5,5.5v0.2c-0.5,2.9-1.6,5.6-3.2,8l-1.1,1.5c-1.4,2.1-2.2,4.4-2.5,6.9l-1,16.4c-0.2,2.8-0.8,5.5-1.7,8.1
					c-0.6,1.8-0.6,3.9-0.1,4.7c1,1.6,1.3,4.8,1,7l-1.6,12.6c-0.2,2.3,0.5,4.6,1.8,6.5l0,0l0.9,1.2l8.7,10.9c1.5,1.7,3.6,2.8,5.9,3.1
					l11.1,0.6c1.2,0.1,2.3-0.7,2.5-2c0-0.2,0-0.4,0-0.6l-0.6-5c-0.4-2.4-1.5-4.5-3.2-6.2l-3.4-3.1c-2.1-2.1-2.8-5.2-1.9-8l1.2-3.2
					c1.2-2.7,3.5-4.7,6.4-5.5l2.5-0.5c2.9-0.5,5.9,0.3,8.2,2.1l2,1.8c1.9,1.5,4.2,2.3,6.5,2.5h7.2c2.7-0.1,4.9,2.1,4.9,4.7
					c0,0.2,0,0.5,0,0.7l-1,9.6c-0.1,2.3,0.6,4.6,2.1,6.4l11.9,13.2c1.9,2.3,2.6,5.3,1.9,8.2l-1.5,5.4c-0.5,2.2-0.1,4.5,1.1,6.4
					l4.3,6c1.6,2.4,2.8,5,3.7,7.8l1.9,6.8l13,2c2.5,0.3,5,0,7.4-0.7l5.7-2.1c2.8-0.9,5.9-0.2,8.1,1.8l1.7,1.7c2,2,3.8,4.3,5.4,6.6
					l2.1,3.2c1.2,1.7,3.2,2.6,5.3,2.6l6.2-0.7c2.5-0.4,4.9-1.2,7.1-2.6l1.6-1.1c2.4-1.5,5.1-2.7,7.8-3.6l6.1-1.7
					c2.7-0.7,5.6-1.2,8.4-1.5l11.1-0.9c1.8-0.2,5.7,1.4,8.5,3.2c0.3-0.3,0.5-0.6,0.8-0.8c1.4-1.1,3.1-1.8,4.8-2
					c1.8-0.2,3.5-0.8,5-1.8c1.3-0.9,2.7-1.8,4.2-2.5c1.4-0.9,2.5-2.2,3.3-3.6c0.9-1.7,0.6-3.3-0.7-3.7c-1.2-0.4-2.4-0.5-3.6-0.3
					c-0.7,0.2-1.3-0.6-1.4-1.8c0.1-1.7,0.7-3.4,1.8-4.7c1.2-1.6,2-3.5,2.4-5.4c0.4-3.2,3.1-5,5.7-6.3c0.5-0.2,1-0.6,1.1-1.1
					C683.7,515.1,682.9,514.8,682.2,514.6z"/>
				<path class="st0" d="M326.7,508.3l-0.1-0.1c-1.5-1.9-3.5-3.3-5.8-4.1l-3.1-0.9c-2.8-0.9-5.2-2.7-6.9-5.1l-3.4-5.2
					c-1.5-2.2-3.3-4.2-5.2-6l-0.5-0.4c-2.2-1.9-2.4-5.2-0.5-7.3l0.1-0.1l1.3-1.4c0.5-0.5,0.8-1.3,0.8-2c-0.1-0.7-0.4-1.4-1-1.9
					l-3.5-2.8c-2.1-1.5-4.4-2.7-6.9-3.4l-5.1-1.3c-2.8-0.9-5.2-2.6-7-4.9l-1.8-2.5c-1.6-2.4-2.8-5-3.6-7.8l-0.6-2.4
					c-0.6-2.2-1.4-5.9-1.8-8.2l-2.8-17.5c-0.9-0.8-1.9-1.3-3-1.6c-2.1-0.1-4.3,0.4-6.1,1.4c-2,1-4.3,0.7-6-0.7
					c-1.6-1.4-3.8-2.5-5-2.5c-2,0-4.1,0.6-6.1,0.3c-2.3-0.3-4.5-1.9-6.8-1.3c-0.3,0.1-0.5,0.2-0.8,0.4c-0.9,0.7-0.8,2.2-0.4,3.3
					c0.6,1.7,0.9,3.1,1.3,4.8l0.2,0.9c0.9,4.5,0.2,9.1-2,13.2l-2.2,3.6c-2,3.4-1.7,7.1,0.7,8.3s6.4,3.2,8.7,4.5s4.5,3.2,4.8,4.2
					c0.8,1.8,2,3.5,3.4,4.9c1,1,2.9,3.1,1.8,4.6c-0.4,0.5-0.9,0.9-1.5,1.1c-1.1,0.5-2.3,0.7-3.5,0.7c-0.4,0.3-0.2,1,0.2,1.3
					c0.4,0.2,1,0.3,1.4,0.3c3-0.1,5.8,0.2,8.2-1.8c1.5-1.2,3.5-1.7,5.4-1.5c1.7,0.5,2.9,2,3.1,3.8c0.3,3-1.8,5.1-1.6,8
					c0,1.5,0.8,2.8,2.1,3.5c0.3,0.2,0.6,0.2,0.9,0.2c0.5-0.1,0.9-0.3,1.3-0.7c3.3-2.3,7.7-0.6,10.9,0.9c2.5,1,5.1,1.4,7.8,1.1
					c2.3-0.4,6.1,1.1,8.4,3.3c2.7,2.9,4.4,6.5,5,10.4c0.4,4.1,0.4,8.3,0,12.4c-0.3,3.7,0.8,7.4,2.9,10.4c2,2.4,3.1,5.1,2.4,6
					s-2.8,0.8-4.8,0c-1.9-0.8-3.9-1.3-6-1.3c-1.9,0.4-3.7,1.3-5.3,2.5s-5.4,1.1-8.5-0.2s-5.5-5.5-5.5-9.3c0-3.5,0.4-7,1.1-10.4
					c0.5-1.7,0.9-3.5,1.1-5.3c0-1.2-0.4-2.4-1-3.4c-0.6-0.9-2.5-1.7-4.2-1.8c-1.7-0.1-3.9,1-5.6,0.1c-0.9-0.5-1.6-1.3-2-2.3
					c-1.2-2.4,0.1-5.4-1.1-8c-1.1-2.3-3.4-3.5-4.9-5.4c-1.1-1.3-2.3-2.4-3.6-3.5c-0.6-0.5-1.3-0.9-2-1.1c-0.8-0.2-1.6,0-2.1,0.6
					c-0.5,0.8-0.6,1.7-0.5,2.6c0.1,3.8-1.4,5.6-3.7,8.4c-0.2,0.3-0.4,0.6-0.5,0.9s-0.1,0.6-0.1,0.9c0,2,0.7,3.9,0.8,5.8
					s-1.2,3.3-3,4.2c-0.8,0.4-1.7,0.8-2.1,1.6c-0.1,0.3-0.2,0.7-0.1,1c0,3.8,3.2,8.6,5.8,11.3c1.8,1.9,4.1,6.6,5.2,10.4l0.3,1.1
					c1,3.8,2.1,8.3,2.3,9.9s3.3,2.7,6.9,2.4c3.6-0.3,8,2.3,10,5.8s4.4,8.2,5.4,10.5c1.6,3.3,2.3,6.3,0.7,9.8
					c-0.6,1.3-1.7,2.5-2.3,3.8c-0.6,1.5-1.1,3.1-1.5,4.6c-0.6,2.2-1.6,5.4,0.1,7.3c0.9,1,2.2,1.5,3.5,1.4c2.9-0.2,4.8-2.9,6.5-5
					l15.8-19.4c3.1-3.6,6.9-6.5,11.2-8.6l4.7-2.2c4.4-1.9,9-2.9,13.8-3h4.3c4,0,8.9,2.5,10.9,5.4s1.6,7.8-0.9,10.9
					c-0.9,1.1-1.8,2.2-2.7,3.3c-1.2,1.6-3.5,2.7-4.4,4.5c-0.3,0.6-0.4,1.3-0.4,1.9c-0.2,4.4,1.7,8.7,5.2,11.4
					c2.9,2.5,6.9,3.9,8.7,3.1c5.1-2.1,6.6-8,11.5-9.8c1.6-0.6,3.3-1.2,4.4-2.5c0.6-0.8,0.9-1.8,1.5-2.6c0.8-1,1.8-1.9,2.6-3l4.4-6.1
					c2.3-3.2,4-7.7,3.8-10s-1.9-7-3.8-10.5l-3.7-7.1c-1.9-3.5-6.1-6.5-9.6-6.6c-4.4,0.2-8.6,1.4-12.4,3.5l-2.9,1.7
					c-2.4,1.6-5.6,1-7.3-1.4c-0.4-0.6-0.7-1.3-0.8-2l-0.5-1.7c-0.9-4.2,0.6-8.5,4-11.2l3.8-2.8c0.4-0.3,0.9-0.7,1.2-1.1l-12.9-1.5
					C331.2,512.2,328.6,510.7,326.7,508.3z"/>
				<path class="st0" d="M391.2,697.8l0.7,0.2c2.4,0.7,4.9,0.9,7.3,0.5l7-1.6c2.4-0.7,4.5-1.9,6.2-3.7l3.4-3.8
					c2.1-2.1,5-3.1,7.9-2.5l5,1.2c2.8,0.8,5.4,2.3,7.4,4.4l3.7,4.2c1.9,2.2,3.5,4.5,4.9,7l-1,0.6l0,0l1-0.6l1.3,2.4l5.2-2.1
					c2.7-1,5.7-1.4,8.6-1.2l6.9,0.7c2.1,0.1,4.1-0.9,5.3-2.5l0.8-1.2c1.7-2.4,4.5-3.8,7.5-3.6l8.8,0.8c2.1,0.1,4.2-0.9,5.5-2.5
					l0.8-1.1c1.8-2.3,4.4-3.9,7.2-4.6l7.6-1.4c1.8-0.4,3.1-2,3.1-3.8v-1.2c-0.2-2.2-1.3-4.2-3-5.5l-2.2-1.4
					c-2.4-1.7-3.4-4.8-2.3-7.5l0.7-1.6c1.2-2.6,3-5,5.2-6.9l3.5-2.9c1.4-1.3,1.9-3.4,1.3-5.2l-3.1-7.8c-1-2.2-2.7-4-4.7-5.2
					l-5.4-2.8c-2.6-1.5-4.3-4.1-4.6-7l-1-13.8c-0.1-2.9,1.1-5.8,3.3-7.8l14.3-11.5c1.9-1.7,3.5-3.7,4.6-6l4.5-9.9
					c1.2-2.6,2.7-5,4.4-7.3l8.7-11.1c1.6-2.2,3.1-4.4,4.4-6.8l4-7.5c1.4-2.3,3.9-3.7,6.6-3.7l-1.6-5.9c-0.8-2.5-1.9-4.9-3.4-7
					l-4.2-6c-1.6-2.5-2.1-5.5-1.5-8.4l1.5-5.4c0.4-2.1-0.1-4.3-1.4-6L530,491.3c-1.9-2.3-2.8-5.2-2.6-8.1l1-9.6
					c0.1-0.7-0.1-1.5-0.6-2c-0.5-0.6-1.2-0.9-2-0.8h-7.3c-2.9-0.1-5.8-1.2-8.1-3l-2-1.8c-1.8-1.3-4-1.9-6.2-1.6l-2.5,0.5
					c-2.1,0.6-3.8,2.1-4.7,4l-1.2,3.2c-0.6,1.9-0.1,4,1.3,5.5l3.4,3.1c2.1,2.1,3.4,4.8,3.9,7.7l0.6,5c0.4,2.5-1.3,4.8-3.8,5.1
					c-0.4,0.1-0.7,0.1-1.1,0l-11.1-0.6c-2.9-0.3-5.6-1.7-7.6-3.9l-8.1-10.2l-8.9-0.3c-2.9-0.2-5.7-1.5-7.8-3.5l-1.5-1.6
					c-1.7-1.6-3.9-2.5-6.2-2.7h-5.8c-2,0.1-3.8,1.3-4.8,3.1l-0.5,1.1c-1.3,2.7-4.1,4.2-7,3.9l-2.4-0.3c-2.4-0.2-4.8,0.3-7,1.4
					l-7.7,4.5c-2,1.3-3.4,3.2-4.2,5.5l-1.2,4.2c-0.7,2.5-3,4.1-5.6,4.2c-0.3,0-0.7,0-1-0.1l-12.8-2.3c0.7,0.7,1.3,1.5,1.8,2.4
					c1.4,2.4,2.4,5,3,7.7c0.7,3.2,2.8,6.9,4.6,8.1c2.9,2.3,5.6,4.8,8,7.7l3.8,4.4c2.9,3.3,6.2,6.2,9.9,8.6c2.8,1.7,5,6.3,4.9,10.3
					l-0.1,2.7c-0.4,4.6-2.1,9-4.9,12.7l-3.3,4c-2.5,3-6.5,5.9-8.9,6.4c-5.4,1.2-8.7,7.4-14.3,7.6c-0.7,0-1.5-0.1-2.2-0.1
					s-1.4,0.2-2,0.7c-1,0.9-0.7,2.1-0.7,3.2c-0.1,2.4,0,4.9,0.2,7.3c0,0.2,0.1,0.5,0.2,0.7c0.3,0.3,0.7,0.4,1,0.2s0.6-0.4,0.9-0.7
					c2.6-2.7,6.4-6.1,10.2-6.9c2.5-0.6,4.9-1.6,7.2-2.8c2.1-1.2,7-2.4,11-2.7l2.4-0.2c4-0.3,6.5,0.2,5.6,1.1
					c-1.9,2.5-3.6,5.1-5.1,7.9l-2,3.5c-1,1.7-2,3.3-3.2,4.8c-0.9,1.1-1.5,2.3-2,3.6c-0.4,1.4,0,2.5,0.1,3.9c0,0.9-0.1,1.8-0.4,2.7
					c-0.2,0.7-0.2,1.7,0.4,2c0.4,0.2,0.8,0.2,1.1,0.2l2.4-0.2c0.7-0.1,1.4-0.1,2,0.2c2.3,1.1,0.4,5-0.5,6.3l-13.9,22
					c-2.8,4.4-4.6,10.2-8.4,13.8c-0.7,0.7-1.6,1.2-2.3,1.9c-2.5,2.5-2.9,7-3.4,10.2c-0.8,3.4-2.8,6.4-5.5,8.4
					c-3.1,2.5-5.6,5.6-7.2,9.2c-0.3,0.7-0.7,1.4-1.2,2l8.4,7.7C386.5,695.5,388.8,696.9,391.2,697.8z"/>
				<path class="st0" d="M382.1,455.1c1.6-1.7,4.1-4.4,5.6-6.1l8-8.9c2-2.1,4.2-3.9,6.7-5.4l7.5-4.2c1.7-1.1,2.7-3,2.6-5l-0.6-5.2
					c-0.4-2.6-1.2-5.1-2.3-7.4l-1.3-2.5c-0.9-1.7-2.6-2.5-3.7-2.1c-1.5,0.6-2.8,1.8-3.4,3.3c-0.7,2-3.4,4-6,4.6l-0.5,0.1
					c-2.6,0.6-5.9-0.2-7.4-1.6c-1.5-1.3-3.3-2.2-5.2-2.8c-2.6-0.8-4.9-2.3-6.9-4.2l-0.9-1c-1.8-1.7-4-2.8-6.4-3.3l-8.4-1.3
					c-2.5-0.3-5,0.1-7.3,1l-1.3,0.6c-2.7,1.1-5.6,1.6-8.5,1.5l-12-0.8c-2.9-0.3-5.6-1.9-7.4-4.2l-3.5-4.9c-3.2,7.7-17,9.4-18.4-0.6
					l-0.4-3c-0.6-3.9-2.8-8.2-4.9-9.5s-5.4-1.9-7.3-1.3c-3.3,1-4.1,3.7-6.1,6c-0.5,0.5-0.9,1-1.3,1.6c-1,1.9,4.8,8.4,1.3,9.6
					c-1,0.2-2,0-2.9-0.5l-2.6-1c-0.9-0.4-2.2-0.7-2.8,0.2c-0.3,0.6-0.2,1.3,0.1,1.9c1.1,3.5,2,7.1,2.7,10.7c0.4,1.9,0.7,3.8,1.1,5.8
					c0.2,1.2,0.2,3.5,1.6,4.1s4.8-1.9,4.8,1c0,1.3-2,4.2-4.5,6.4s-5.9,2-7.6-0.4c-0.1-0.1-0.2-0.2-0.3-0.4l2.3,14.3
					c0.4,2.2,1.2,5.8,1.8,8l0.6,2.4c0.8,2.5,1.9,4.9,3.3,7.1l1.7,2.5c1.5,1.9,3.5,3.3,5.7,4l5.1,1.3c2.8,0.8,5.4,2.1,7.7,3.8
					l3.5,2.8c2.2,1.7,2.5,4.9,0.8,7c-0.1,0.1-0.2,0.2-0.3,0.3l-1.3,1.4c-1.1,1.2-1,3,0.1,4.1c0,0,0,0,0.1,0.1l0.5,0.4
					c2.1,1.9,4,4.1,5.6,6.5l3.4,5.2c1.4,1.9,3.4,3.4,5.7,4.1l3.1,0.9c2.8,0.9,5.2,2.7,7,5l0.1,0.1c1.4,1.8,3.5,3,5.7,3.4l14.6,1.7
					c0.3-0.3,0.6-0.6,1-0.9s0.8-0.7,1.2-1.1c0.3-0.4,0.4-1,0.3-1.5c-0.2-0.4-0.4-0.7-0.7-1c-4.1-4-6.4-10.1-9.1-15.2l-5.2-9.6
					c-1.9-3.6-0.7-8,2.8-10.2l12.5-7.8c3.4-2.1,7.6-1.9,9.5,0.5c1.6,2,5.3,3.6,8.8,3.9c1-1.7,2.1-3.3,3.3-4.8L382.1,455.1z"/>
				<path class="st0" d="M404.1,498.7l1.2-4.2c0.9-2.8,2.8-5.2,5.2-6.8l7.7-4.5c2.6-1.4,5.5-2,8.5-1.7l2.4,0.4
					c1.9,0.2,3.7-0.8,4.6-2.5l0.5-1.1c1.3-2.7,3.9-4.4,6.9-4.5h5.8c2.9,0.1,5.7,1.3,7.9,3.4l1.5,1.6c1.7,1.6,3.9,2.6,6.2,2.8
					l6.9,0.2c-1.5-2.3-2.2-5.1-2-7.8l1.6-12.6c0.3-1.8,0.1-3.7-0.6-5.5c-1.1-1.7-0.8-4.7-0.1-6.7c0.8-2.4,1.3-4.9,1.5-7.4l1-16.4
					c0.3-2.9,1.3-5.7,3-8.1l1.1-1.5c1.4-2.1,2.4-4.5,2.8-7v-0.2c0.5-2.9,2.2-5.5,4.6-7.2l4.4-2.8c2-1.2,5.2-3.2,7.2-4.3l4.1-2.4
					c2.6-1.3,5.6-1.5,8.4-0.6c2.5,1,5.1,1.7,7.7,2.3l4.4,0.9c2.1,0.4,4.3,0.1,6.3-0.9c1.4-1.1,1.9-2.9,1.5-4.6l-2.5-9.4
					c-0.6-2.9-0.2-5.9,1.1-8.5l3.3-5.4c-3.6-0.9-7.2-1.5-10.8-2c-3.4-0.4-7.9-3.5-9.9-7l-6.7-11.3c-2.3-4.2-3.8-8.7-4.4-13.4
					l-0.2-2.5c-0.4-4-1.7-8.5-2.9-10s-1.5-5.2-0.6-8.1c1.3-3.9,2.9-7.7,4.8-11.4c1.8-3.4,2.3-7,1.3-8c-1.1-1.1-2.6-1.7-4.2-1.9
					c-1.2,0-4.5,2.1-7.1,4.7c-2.2,2.2-4.6,4.2-7.2,5.9c-2.2,0.8-4.5,1.2-6.8,1.3c-2.7,0-5.4-1-7.4-2.8c-2-1.9-2.2-6.6-5.1-7.1
					c-1-0.1-2,0-3,0.2c-3.8,0.8-8,1.1-11.5,2.6c-2,0.6-4.1,0.8-6.1,0.6c-2.2-0.1-5.8,2.4-8.1,5.6l-0.2,0.4c-2.8,3.4-7,5.5-11.4,5.6
					l-5-0.1c-8.1-0.2-17,10.7-17,18.5v0.6c-0.3,3.9-0.3,7.9-0.1,11.9c0.2,2.6-1.8,6.2-4.6,8c-3.5,2.6-6.4,5.8-8.8,9.5l-4.2,6.9
					c-2.6,3.7-6.6,6.1-11,6.7l-0.8,0.1c-4.5,0.1-8.8-1.6-12-4.8l-0.2-0.3c-2.7-2.9-7.2-3.2-10.2-0.5c-3.5,3.1-6.9,4.8-11,7.1
					c-1.1,0.6-2.3,1.4-2.5,2.6c-0.3,1.8,1.5,3.1,3.2,3.9s3.6,1.9,3.6,3.7c0,5.4-9.7,7.2-13.4,7.2c-1.4,0-3-0.2-4.1,0.6
					s-1.5,2.3-1.8,3.8l4.6,6.4c1.4,1.8,3.4,2.9,5.7,3.2l12,0.8c2.5,0.1,5-0.4,7.4-1.3l1.3-0.6c2.7-1.1,5.7-1.5,8.6-1.1l8.4,1.3
					c2.9,0.6,5.5,2,7.7,4l0.9,1c1.6,1.6,3.6,2.8,5.8,3.5c2.3,0.6,4.4,1.8,6.2,3.4c1.6,1.1,3.5,1.4,5.3,1l0.5-0.1
					c2-0.4,3.9-2,4.3-3.1c0.9-2.2,2.7-3.9,4.9-4.7c2.2-0.7,5,0.7,6.4,3.2l1.3,2.5c1.3,2.6,2.1,5.4,2.5,8.2l0.6,5.2
					c0.2,2.9-1.2,5.8-3.7,7.3l-7.5,4.2c-2.3,1.4-4.3,3-6.1,4.9l-8,8.9c-1.5,1.7-4.1,4.5-5.6,6.2l-8.8,9.5c-0.8,1-1.6,2.1-2.3,3.2
					l1.7-0.1c4.3,0.1,8.2,2.5,10.3,6.3l0.6,1.3c1.1,2.5,1.7,5.2,1.9,8c0.3,2.7-1,5.1-2.5,7.4c-0.6,0.8-1,1.7-1.2,2.6
					c0,0.9,0.2,1.7,0.6,2.5c0.2,0.4,0.4,0.7,0.7,1.1l15.4,2.8C402,501.4,403.6,500.3,404.1,498.7z"/>
				<path class="st0" d="M339,653.7l0.4-1.8c0.7-2.5,2.6-4.5,5-5.3l1.4-0.4c2.4-0.9,4.4-2.8,5.2-5.3c0.8-3.1,1.1-6.8,2.9-9.5
					c0.3-0.4,0.8-0.9,1.2-0.7c1,0.5-0.2,2.3,0.4,3.2c0.5,0.5,1.3,0.5,1.8,0.1c0.5-0.5,1-1,1.4-1.5c2.5-2.6,6.1-3.9,9.8-3.5
					c1.8,0.2,3.6,0.6,5.4,1.2c2.2,1,4.7,1.4,7.1,1.2c4.9-0.6,6.2-5.5,8-9.4l4.3-9.3c1-2.1,0.1-4.7-1.9-5.8c-2.4-1.1-5.1-1.2-7.6-0.4
					l-30.4,12.3c-1.7,0.8-3.7,0.1-4.4-1.6c-0.1-0.3-0.2-0.6-0.3-1l-0.9-4.9c-0.4-2-0.6-4.1-0.7-6.1c-0.1-1.5,0.1-4.4-0.8-5.5
					c-0.4-0.5-1-0.7-1.6-0.8c-0.6,0-1.2,0.1-1.8,0.3c-1.8,0.6-3.4,1.5-5.2,2.2l-5.5,1.9l-6.5,2.2c-2.5,1-4.4,2.9-5.5,5.3l-4.1,10.5
					c-1.1,2.8-2.2,5.7-3.3,8.5s-1.8,5.7-3.1,8.3c-0.2,0.4-0.5,0.9-0.8,1.3c-0.8,1.1-1.8,2.2-1.8,3.6s1.2,2.7,2,4
					c1.1,1.9,1.1,3.7,1.1,5.8l-1.6,10.7c-0.5,3.7,0.4,8.2,3.2,10.8c0.6,0.7,1.5,1.1,2.4,1.3c0.7,0.1,1.5-0.1,2.1-0.4
					c2.7-1.2,4.4-3.6,6.6-5.4c1.4-1.2,2.9-2.2,4.3-3.3l7.7-5.8C336.8,658.7,338.3,656.3,339,653.7z"/>
				<path class="st0" d="M534.1,829.3l1.2-6.9c0.3-2.4-0.1-4.8-1.2-7l-1.3-2.4c-1.3-2-3.1-3.6-5.3-4.5l-15.3-5.4
					c-2.7-1.1-5.1-2.9-6.9-5.2l-11.9-17.1c-1.6-2.1-3.4-3.9-5.5-5.4l-3.5-2.3c-2.4-1.7-4.1-4.2-5-7l-3-12c-0.7-2.4-2-4.5-3.8-6.2
					l-6.9-6.1c-2.1-2-3.9-4.2-5.5-6.6l-7.3-12.2c-1.2-2-3-5.2-4.2-7.2l-6-10.9l0,0c-1.4-2.3-2.9-4.5-4.6-6.5l-3.7-4.2
					c-1.7-1.8-3.9-3-6.2-3.7l-5-1.2c-2.1-0.3-4.2,0.3-5.7,1.8l-3.4,3.8c-2,2.1-4.6,3.6-7.4,4.4l-7,1.6c-2.9,0.5-5.8,0.4-8.6-0.5
					l-0.7-0.2c-2.7-1.1-5.2-2.6-7.3-4.5l-8.4-7.7c-1.9,1.7-4.3,2.8-6.8,3.3l-15.7,2.2c-2.9,0.6-5.8-1.3-6.4-4.2
					c-0.1-0.6-0.1-1.3,0-1.9l0.2-1.7c0.4-4-0.2-8.5-1.4-10.1c-1.8-2.4-4.9-1.9-7.5-2.1c-1.1-0.2-2.3-0.1-3.4,0.5
					c-1.2,0.9-1.2,2.6-1.1,4.1c0.3,4.7,0.6,9.5,2.6,13.8c1.3,3,3.1,5.7,5.4,8c1.8,1.5,3.8,2.6,6,3.3c1.9,0.6,3.3,2.2,3.5,4.2
					c0.1,2.3-0.7,4.6-2.2,6.3c-1.5,1.6-1.9,6.1-1.1,9.9l2.2,9.8c0.8,4.5,0.8,9-0.2,13.5c-1.1,4.5-1.9,9-2.4,13.6l-0.4,3.9
					c-0.2,4.5,1.5,8.8,4.6,12.1l8.9,8.2c3.1,2.9,5.7,6.3,7.7,10c1.5,3.9,2.4,8.1,2.4,12.3v18.6c0,4-1.7,9.3-3.7,11.9
					s-6.8,5.7-10.5,7l-0.4,0.2c-3.6,1.2-7.2,1.9-10.5-0.3c-0.8-0.7-1.8-1.3-2.7-1.7c-1.1-0.3-2.2-0.3-3.3-0.2
					c-0.8,0-1.5,0.2-2.2,0.4c-0.7,0.3-1.3,0.8-1.5,1.6c-0.1,0.8,0,1.5,0.5,2.2c0.6,1,1.1,2.1,1.8,3.1c1.6,2.6,3.8,5.1,4.8,5.6
					c3.6,1.8,2.4,8.2,5.3,10.6c1,0.9,2.2,1.4,3.2,2.2c0.8,0.5,1.3,1.5,1.3,2.5c-0.2,0.7-0.5,1.3-0.9,1.8c-0.9,1.3-1.6,3.5-0.8,5
					c1.1,2.1,4.4,4.1,7.2,4.5s8.5,0.6,12.4,0.6h21.8c4.4,0.2,8.3,2.7,10.5,6.4l2.1,4.1c1.8,3.5,6.1,6.4,9.5,6.4s8.5-2.4,11.2-5.3
					l0.4-0.4c2.7-3.1,3.1-7.7,0.9-11.2l-5-7.3c-2.7-4-5-8.2-7-12.6l-5.7-13.1c-1.7-4.4-2.2-9.1-1.4-13.7l2.3-11.5
					c1.1-4.6,2.8-9.1,5.1-13.3l6.7-11.6c2.1-3.7,3.8-7.7,4.9-11.8c0.7-3,3.1-6.5,5.3-7.7c3.2-1.5,6.6-2.4,10.1-2.6
					c3.4-0.2,8.7,1.5,11.9,3.9l3.4,2.6c3.2,2.4,5.2,6.1,4.4,8.2s-2.1,7.1-3,10.9l-0.5,1.9c-0.9,3.9-4,7.3-6.8,7.6s-5.9-0.6-6.8-2.1
					s-2.2-3.9-3-5.4s-4.6-2.1-8.4-1.2s-7.5,2.3-8.2,3.2s-0.4,3.1,0.4,4.8c1.1,2,2.6,3.7,4.5,4.9c1.7,1,3.7,1.4,5.7,1
					c1.6-0.4,3.3-0.6,5-0.4c1.2,0.2,2,3.7,1.8,7.6l-0.3,5.1c0,4.7,1.2,9.2,3.6,13.2l9.4,14.4c2.3,3.9,3,8.5,2.2,13
					c-0.7,2.9-1.5,5.9-2.2,8.8c-0.5,1.8-0.7,3.7-1.2,5.4c-0.9,2.9-1.9,5.2-1.5,8.3c0.3,2.2,0.7,4.1,0.2,6.3c-0.5,2-3.4,5.7-6.5,8.2
					c-2.7,2.2-4.9,5.1-8.4,6.1c-0.7,0.2-1.4,0.4-2.1,0.6c-0.7,0.3-1.3,0.8-1.6,1.5c-0.2,0.9,0,1.9,0.4,2.7c0.9,2.2,2.5,4.8,1,7.2
					c-0.5,1-0.9,2.1-1.1,3.2c-0.4,1.2-0.9,2.3-1.7,3.3c-0.4,0.5-0.6,1.1-0.5,1.7c0.3,0.8,1.3,0.9,2.1,0.9c2.5-0.2,5-1.1,6.9-2.8
					c1.7-1.4,4.1-2.8,5.2-4.9c0.8-1.5,4.5-4,8.2-5.4l14.4-5.6c4.4-1.8,8.6-4.2,12.5-6.9l3.1-2.3c3.7-2.9,6.9-6.3,9.4-10.2
					c2.1-3.5,3.1-6.8,6.5-9.2c2.5-1.6,4.8-3.5,6.9-5.6c1.2-1.4,2-3.1,3.3-4.5c0.3-0.3,0.5-0.7,0.6-1.1c0.1-0.7-0.5-1.3-0.9-1.8
					c-1.5-1.8-1.7-3.8-1.6-6s-0.2-4.5-0.1-6.8c0-0.3,0-0.7-0.3-0.9c-0.1-0.1-0.3-0.1-0.5-0.1h-2.8c-0.7,0-1.5-0.1-2.1-0.3
					c-2.4-0.9-3.1-5.5-2.3-7.6c1.7-4.2,4.3-8,7.7-11l3.6-3c3.5-2.6,8.1-3.4,12.2-2l5.7,2.2l1.8-2.7
					C532.5,834.1,533.6,831.8,534.1,829.3z"/>
				<path class="st0" d="M640.9,550c-2.7,0.3-5.4,0.7-8,1.4l-6.1,1.7c-2.5,0.8-4.9,1.9-7.2,3.3l-1.6,1.1c-2.5,1.5-5.2,2.5-8.1,2.9
					l-6.2,0.7c-0.2,0-0.5,0-0.7,0c-2.7-0.1-5.2-1.4-6.8-3.6l-2.1-3.2c-1.5-2.2-3.2-4.3-5-6.3l-1.6-1.6c-1.5-1.4-3.7-1.8-5.7-1.2
					l-5.7,2.1c-2.8,0.9-5.7,1.2-8.6,0.8l-14.8-2.3c-2-0.2-3.9,0.7-4.9,2.4l-4,7.5c-1.4,2.5-2.9,4.9-4.6,7.1l-8.7,11.1
					c-1.6,2.1-3,4.4-4.1,6.8l-4.5,9.9c-1.3,2.6-3.1,4.9-5.3,6.8l-14.3,11.5c-1.6,1.5-2.5,3.6-2.5,5.8l1,13.8c0.3,2.1,1.6,4,3.4,5.1
					l5.4,2.8c2.6,1.4,4.6,3.7,5.8,6.3l3.1,7.8c1,2.8,0.2,5.9-2,7.8l-3.5,2.9c-1.9,1.7-3.4,3.8-4.5,6.1l-0.7,1.6
					c-0.6,1.7,0,3.6,1.4,4.7l2.2,1.4c2.4,1.7,3.9,4.4,4,7.4v1.2c-0.1,2.9-2.1,5.4-5,6.1l-7.6,1.4c-2.3,0.6-4.3,1.9-5.8,3.7l-0.8,1.1
					c-1.8,2.3-4.7,3.6-7.6,3.5l-8.8-0.8c-2.1-0.1-4.1,0.9-5.3,2.6l-0.8,1.2c-1.7,2.4-4.5,3.8-7.5,3.6l-6.9-0.8
					c-2.5-0.2-5.1,0.2-7.5,1l-4.9,2l3.5,6.4c1.1,2,3,5.2,4.1,7.2l7.3,12.2c1.4,2.2,3.1,4.3,5,6.1l6.9,6.1c2.1,2,3.7,4.6,4.5,7.4
					l3,12c0.7,2.3,2.1,4.2,4,5.7l3.5,2.3c2.3,1.7,4.4,3.7,6.1,6l11.9,17.1c1.5,1.9,3.5,3.4,5.7,4.4l15.3,5.4c2.7,1.1,5,3,6.6,5.5
					l1.4,2.4c1.3,2.6,1.8,5.6,1.4,8.5l-1.2,6.9c-0.6,2.8-1.9,5.5-3.6,7.8l-1.4,2.1l0.4,0.2c3,1,5.9,2.5,8.5,4.3c2.2,1.8,3.8,4.2,6,6
					l1.2,1c3.1,2.4,6.7,4,8,3.5s2.3-2.3,2.3-4c0.2-2.2,1.3-4.3,2.9-5.8c1.8-2,2.9-4.6,2.9-7.3c-0.1-1.6,0.2-3.2,0.9-4.7
					c0.7-1.2,1.5-1.9,1-3.5c-0.3-1.1-1.1-2-1.2-3.1c0-0.7,0.2-1.4,0.5-2.1c0.6-2.1,1.4-4.3,2.3-6.3c0.7-1.2,1.4-2.4,2-3.7
					c1.4-2.7,3-5.4,4.8-7.8c2.1-3,3.9-7.5,3.9-10.1c0.3-3.9,1.1-7.8,2.4-11.6l4-11.6c0.8-2,2.2-7.7,0.6-9.6
					c-0.5-0.6-1.4-0.7-2.1-1.1c-0.6-0.4-1.1-0.9-1.6-1.5c-1.2-1.5-2.2-3-2.1-5c0.1-1.4,0.1-2.7,0-4.1c-0.2-4.7,0.3-9.5,1.7-14
					c1.2-3.6,2-7.3,2.4-11.1c0.2-1.7-0.2-3.3,0.2-5c0.5-1.9,1.5-3.5,2.1-5.4s0.6-3.5,1.3-5.2c0.9-2.5,2.4-4.5,3.1-7.1
					c0.5-2.4,1.2-4.7,2.1-7c1.2-3.2,2-6.6,2.4-9.9l0.5-3c0.8-4.7,1.9-9.4,3.3-14l0.2-0.7c1.6-4.5,3.5-8.9,5.8-13.1l4.2-7.4
					c2-3.4,3.5-8.2,3.3-10.6c-0.1-2.5,1.2-4.9,3.4-6.2c3.2-1.6,3.9-6.6,4-9.8c0.1-3.5,2-6.7,4.9-8.5c1-0.6,1.9-1.3,2.8-2.1
					c0.8-0.7,1.2-1.9,0.9-3c-0.5-0.8-1.2-1.5-2-1.9c-2.1-1.4-4.1-7.2-3.4-9.7c0.5-1.7,3.3-5.1,6.3-7.6l3.7-3.1c3-2.5,5.9-6,6.4-7.5
					s3.7-4.6,7.1-6.7l1.1-0.7c3.4-2.1,5.8-5.2,5.3-6.9c-0.3-2.1,0.5-4.2,2.1-5.5c1.7-1.4,3-3.2,3.8-5.2c0.3-0.8,0.6-1.5,1.1-2.2
					c-2.5-1.5-5.8-2.9-7-2.8L640.9,550z"/>
				<path class="st0" d="M682.2,514.6c-2.9-0.6-5.8-1.4-8.6-2.4c-1.7-0.7-4.7-2-6.6-1.4c-1.1,0.4-2.3,0.5-3.5,0.3
					c-1.6-0.7,1.5-3.2,1.6-3.9c0-0.6-0.3-1.1-0.8-1.4c-0.5-0.2-1-0.4-1.6-0.6c-2.4-1-2.1-2.7-1.5-4.6c0.5-2.2,0.9-4.5,1.1-6.8
					c0.2-2,3.6-4.2,7.5-4.9c0,0,1.3-0.2,1.6-0.2c1.1-0.1,2.2-0.3,3.3-0.6c0.7,0,1.4-0.2,2-0.5c0.7-0.3,1.1-1,1.1-1.7
					c0-0.1,0-0.2-0.1-0.3c-0.1-0.1-0.3-0.2-0.5-0.1c-3.1-0.2-6.1,0.1-9.1,0.8c-1.7,0.4-3.5,0.1-5.1-0.7c-1.7-0.9-3.5-1.3-5.4-1.4
					c-1.6,0-2.5-0.8-1.9-1.8c0.7-1.1,1.7-2.2,2.3-3.3c0.5-0.9,0.6-2,1.4-2.9c0.6-0.6,1.3-1,1.9-1.6c0.2-0.2,0.3-0.4,0.3-0.7
					c-0.1-0.3-0.4-0.4-0.7-0.5c-1.9-0.4-3.6,1.1-5.5,0.2c-0.3-0.2-0.7-0.3-1.1-0.4c-0.8-0.1-1.7,0-2.4,0.4c-2.6,0.8-3.6-1.4-4.2-3.6
					c-0.3-2.5-0.1-5,0.8-7.3c1.3-3,3.2-5.7,5.5-8.1c2.2-2.1,3.4-4.6,2.7-5.6c-1.2-1.3-2.7-2.2-4.3-2.8c-2.3-0.5-4.6-0.4-6.8,0.4
					c-2.1,0.8-6.9,1.1-10.7,0.8s-9.2-1.2-12-1.8c-4.1-0.7-8.2-0.8-12.3-0.4l-2.2,0.2c-4,0.4-9.7-0.5-12.7-2.1s-5.5-6-5.5-9.8
					s0.7-8.1,1.5-9.6s3.5-2.4,6-2.1c2.2,0.3,4.5,0.3,6.8,0c2.2-0.8,4.2-1.9,6.1-3.3c2.1-1.5,3.7-3.3,3.5-4.1
					c-0.5-1.3-1.4-2.4-2.5-3.2c-1.2-0.9-1-2,0.5-2.5c2.2-0.6,4.5-0.1,6.8-0.2c2.7-0.1,3.8-1.3,5.4-3.2c2.2-2.7,4.2-8.1,4.5-12.1
					l0.2-2.6c0.3-4,0.7-9.6,1-12.5s-1.5-7.9-3.8-11.1l-3.6-4.9c-2.1-2.9-3.5-5-4-8.5c0-0.6-0.2-1.1-0.5-1.6
					c-0.7-0.6-1.6-0.7-2.5-0.5c-3.1,0.2-5.7-1.1-8.6-2c-1.5-0.6-3.1-0.4-4.4,0.4c-0.8,0.7-1.3,1.8-2.4,2.1s-1.8-0.4-2.7-0.8
					c-2.3-1.2-5-1.2-7.3,0c-3.2,1.7-4.5,5.6-5.6,8.9c-1.2,3.7-4.3,8.4-6.9,10.5s-7.9,3.6-11.9,3.4l-13.8-0.8
					c-4.3-0.3-8.5-1.5-12.4-3.4c-2.9-1.5-5.9-2.8-8.9-3.9l-3.6,5.9c-1,2.1-1.3,4.5-0.8,6.8l2.5,9.4c0.7,2.7-0.4,5.9-2.5,7.2
					c-2.5,1.3-5.3,1.7-8,1.2l-4.8-0.6c-2.7-0.6-5.4-1.4-8.1-2.5c-2.1-0.7-4.4-0.5-6.4,0.5l-4.1,2.4c-2,1.1-5.2,3-7.1,4.2l-4.3,2.8
					c-1.8,1.3-3.1,3.3-3.5,5.5v0.2c-0.5,2.9-1.6,5.6-3.2,8l-1.1,1.5c-1.4,2.1-2.2,4.4-2.5,6.9l-1,16.4c-0.2,2.8-0.8,5.5-1.7,8.1
					c-0.6,1.8-0.6,3.9-0.1,4.7c1,1.6,1.3,4.8,1,7l-1.6,12.6c-0.2,2.3,0.5,4.6,1.8,6.5l0,0l0.9,1.2l8.7,10.9c1.5,1.7,3.6,2.8,5.9,3.1
					l11.1,0.6c1.2,0.1,2.3-0.7,2.5-2c0-0.2,0-0.4,0-0.6l-0.6-5c-0.4-2.4-1.5-4.5-3.2-6.2l-3.4-3.1c-2.1-2.1-2.8-5.2-1.9-8l1.2-3.2
					c1.2-2.7,3.5-4.7,6.4-5.5l2.5-0.5c2.9-0.5,5.9,0.3,8.2,2.1l2,1.8c1.9,1.5,4.2,2.3,6.5,2.5h7.2c2.7-0.1,4.9,2.1,4.9,4.7
					c0,0.2,0,0.5,0,0.7l-1,9.6c-0.1,2.3,0.6,4.6,2.1,6.4l11.9,13.2c1.9,2.3,2.6,5.3,1.9,8.2l-1.5,5.4c-0.5,2.2-0.1,4.5,1.1,6.4
					l4.3,6c1.6,2.4,2.8,5,3.7,7.8l1.9,6.8l13,2c2.5,0.3,5,0,7.4-0.7l5.7-2.1c2.8-0.9,5.9-0.2,8.1,1.8l1.7,1.7c2,2,3.8,4.3,5.4,6.6
					l2.1,3.2c1.2,1.7,3.2,2.6,5.3,2.6l6.2-0.7c2.5-0.4,4.9-1.2,7.1-2.6l1.6-1.1c2.4-1.5,5.1-2.7,7.8-3.6l6.1-1.7
					c2.7-0.7,5.6-1.2,8.4-1.5l11.1-0.9c1.8-0.2,5.7,1.4,8.5,3.2c0.3-0.3,0.5-0.6,0.8-0.8c1.4-1.1,3.1-1.8,4.8-2
					c1.8-0.2,3.5-0.8,5-1.8c1.3-0.9,2.7-1.8,4.2-2.5c1.4-0.9,2.5-2.2,3.3-3.6c0.9-1.7,0.6-3.3-0.7-3.7c-1.2-0.4-2.4-0.5-3.6-0.3
					c-0.7,0.2-1.3-0.6-1.4-1.8c0.1-1.7,0.7-3.4,1.8-4.7c1.2-1.6,2-3.5,2.4-5.4c0.4-3.2,3.1-5,5.7-6.3c0.5-0.2,1-0.6,1.1-1.1
					C683.7,515.1,682.9,514.8,682.2,514.6z"/>
				<path class="st0" d="M326.7,508.3l-0.1-0.1c-1.5-1.9-3.5-3.3-5.8-4.1l-3.1-0.9c-2.8-0.9-5.2-2.7-6.9-5.1l-3.4-5.2
					c-1.5-2.2-3.3-4.2-5.2-6l-0.5-0.4c-2.2-1.9-2.4-5.2-0.5-7.3l0.1-0.1l1.3-1.4c0.5-0.5,0.8-1.3,0.8-2c-0.1-0.7-0.4-1.4-1-1.9
					l-3.5-2.8c-2.1-1.5-4.4-2.7-6.9-3.4l-5.1-1.3c-2.8-0.9-5.2-2.6-7-4.9l-1.8-2.5c-1.6-2.4-2.8-5-3.6-7.8l-0.6-2.4
					c-0.6-2.2-1.4-5.9-1.8-8.2l-2.8-17.5c-0.9-0.8-1.9-1.3-3-1.6c-2.1-0.1-4.3,0.4-6.1,1.4c-2,1-4.3,0.7-6-0.7
					c-1.6-1.4-3.8-2.5-5-2.5c-2,0-4.1,0.6-6.1,0.3c-2.3-0.3-4.5-1.9-6.8-1.3c-0.3,0.1-0.5,0.2-0.8,0.4c-0.9,0.7-0.8,2.2-0.4,3.3
					c0.6,1.7,0.9,3.1,1.3,4.8l0.2,0.9c0.9,4.5,0.2,9.1-2,13.2l-2.2,3.6c-2,3.4-1.7,7.1,0.7,8.3s6.4,3.2,8.7,4.5s4.5,3.2,4.8,4.2
					c0.8,1.8,2,3.5,3.4,4.9c1,1,2.9,3.1,1.8,4.6c-0.4,0.5-0.9,0.9-1.5,1.1c-1.1,0.5-2.3,0.7-3.5,0.7c-0.4,0.3-0.2,1,0.2,1.3
					c0.4,0.2,1,0.3,1.4,0.3c3-0.1,5.8,0.2,8.2-1.8c1.5-1.2,3.5-1.7,5.4-1.5c1.7,0.5,2.9,2,3.1,3.8c0.3,3-1.8,5.1-1.6,8
					c0,1.5,0.8,2.8,2.1,3.5c0.3,0.2,0.6,0.2,0.9,0.2c0.5-0.1,0.9-0.3,1.3-0.7c3.3-2.3,7.7-0.6,10.9,0.9c2.5,1,5.1,1.4,7.8,1.1
					c2.3-0.4,6.1,1.1,8.4,3.3c2.7,2.9,4.4,6.5,5,10.4c0.4,4.1,0.4,8.3,0,12.4c-0.3,3.7,0.8,7.4,2.9,10.4c2,2.4,3.1,5.1,2.4,6
					s-2.8,0.8-4.8,0c-1.9-0.8-3.9-1.3-6-1.3c-1.9,0.4-3.7,1.3-5.3,2.5s-5.4,1.1-8.5-0.2s-5.5-5.5-5.5-9.3c0-3.5,0.4-7,1.1-10.4
					c0.5-1.7,0.9-3.5,1.1-5.3c0-1.2-0.4-2.4-1-3.4c-0.6-0.9-2.5-1.7-4.2-1.8c-1.7-0.1-3.9,1-5.6,0.1c-0.9-0.5-1.6-1.3-2-2.3
					c-1.2-2.4,0.1-5.4-1.1-8c-1.1-2.3-3.4-3.5-4.9-5.4c-1.1-1.3-2.3-2.4-3.6-3.5c-0.6-0.5-1.3-0.9-2-1.1c-0.8-0.2-1.6,0-2.1,0.6
					c-0.5,0.8-0.6,1.7-0.5,2.6c0.1,3.8-1.4,5.6-3.7,8.4c-0.2,0.3-0.4,0.6-0.5,0.9s-0.1,0.6-0.1,0.9c0,2,0.7,3.9,0.8,5.8
					s-1.2,3.3-3,4.2c-0.8,0.4-1.7,0.8-2.1,1.6c-0.1,0.3-0.2,0.7-0.1,1c0,3.8,3.2,8.6,5.8,11.3c1.8,1.9,4.1,6.6,5.2,10.4l0.3,1.1
					c1,3.8,2.1,8.3,2.3,9.9s3.3,2.7,6.9,2.4c3.6-0.3,8,2.3,10,5.8s4.4,8.2,5.4,10.5c1.6,3.3,2.3,6.3,0.7,9.8
					c-0.6,1.3-1.7,2.5-2.3,3.8c-0.6,1.5-1.1,3.1-1.5,4.6c-0.6,2.2-1.6,5.4,0.1,7.3c0.9,1,2.2,1.5,3.5,1.4c2.9-0.2,4.8-2.9,6.5-5
					l15.8-19.4c3.1-3.6,6.9-6.5,11.2-8.6l4.7-2.2c4.4-1.9,9-2.9,13.8-3h4.3c4,0,8.9,2.5,10.9,5.4s1.6,7.8-0.9,10.9
					c-0.9,1.1-1.8,2.2-2.7,3.3c-1.2,1.6-3.5,2.7-4.4,4.5c-0.3,0.6-0.4,1.3-0.4,1.9c-0.2,4.4,1.7,8.7,5.2,11.4
					c2.9,2.5,6.9,3.9,8.7,3.1c5.1-2.1,6.6-8,11.5-9.8c1.6-0.6,3.3-1.2,4.4-2.5c0.6-0.8,0.9-1.8,1.5-2.6c0.8-1,1.8-1.9,2.6-3l4.4-6.1
					c2.3-3.2,4-7.7,3.8-10s-1.9-7-3.8-10.5l-3.7-7.1c-1.9-3.5-6.1-6.5-9.6-6.6c-4.4,0.2-8.6,1.4-12.4,3.5l-2.9,1.7
					c-2.4,1.6-5.6,1-7.3-1.4c-0.4-0.6-0.7-1.3-0.8-2l-0.5-1.7c-0.9-4.2,0.6-8.5,4-11.2l3.8-2.8c0.4-0.3,0.9-0.7,1.2-1.1l-12.9-1.5
					C331.2,512.2,328.6,510.7,326.7,508.3z"/>
				<path class="st0" d="M391.2,697.8l0.7,0.2c2.4,0.7,4.9,0.9,7.3,0.5l7-1.6c2.4-0.7,4.5-1.9,6.2-3.7l3.4-3.8
					c2.1-2.1,5-3.1,7.9-2.5l5,1.2c2.8,0.8,5.4,2.3,7.4,4.4l3.7,4.2c1.9,2.2,3.5,4.5,4.9,7l-1,0.6l0,0l1-0.6l1.3,2.4l5.2-2.1
					c2.7-1,5.7-1.4,8.6-1.2l6.9,0.7c2.1,0.1,4.1-0.9,5.3-2.5l0.8-1.2c1.7-2.4,4.5-3.8,7.5-3.6l8.8,0.8c2.1,0.1,4.2-0.9,5.5-2.5
					l0.8-1.1c1.8-2.3,4.4-3.9,7.2-4.6l7.6-1.4c1.8-0.4,3.1-2,3.1-3.8v-1.2c-0.2-2.2-1.3-4.2-3-5.5l-2.2-1.4
					c-2.4-1.7-3.4-4.8-2.3-7.5l0.7-1.6c1.2-2.6,3-5,5.2-6.9l3.5-2.9c1.4-1.3,1.9-3.4,1.3-5.2l-3.1-7.8c-1-2.2-2.7-4-4.7-5.2
					l-5.4-2.8c-2.6-1.5-4.3-4.1-4.6-7l-1-13.8c-0.1-2.9,1.1-5.8,3.3-7.8l14.3-11.5c1.9-1.7,3.5-3.7,4.6-6l4.5-9.9
					c1.2-2.6,2.7-5,4.4-7.3l8.7-11.1c1.6-2.2,3.1-4.4,4.4-6.8l4-7.5c1.4-2.3,3.9-3.7,6.6-3.7l-1.6-5.9c-0.8-2.5-1.9-4.9-3.4-7
					l-4.2-6c-1.6-2.5-2.1-5.5-1.5-8.4l1.5-5.4c0.4-2.1-0.1-4.3-1.4-6L530,491.3c-1.9-2.3-2.8-5.2-2.6-8.1l1-9.6
					c0.1-0.7-0.1-1.5-0.6-2c-0.5-0.6-1.2-0.9-2-0.8h-7.3c-2.9-0.1-5.8-1.2-8.1-3l-2-1.8c-1.8-1.3-4-1.9-6.2-1.6l-2.5,0.5
					c-2.1,0.6-3.8,2.1-4.7,4l-1.2,3.2c-0.6,1.9-0.1,4,1.3,5.5l3.4,3.1c2.1,2.1,3.4,4.8,3.9,7.7l0.6,5c0.4,2.5-1.3,4.8-3.8,5.1
					c-0.4,0.1-0.7,0.1-1.1,0l-11.1-0.6c-2.9-0.3-5.6-1.7-7.6-3.9l-8.1-10.2l-8.9-0.3c-2.9-0.2-5.7-1.5-7.8-3.5l-1.5-1.6
					c-1.7-1.6-3.9-2.5-6.2-2.7h-5.8c-2,0.1-3.8,1.3-4.8,3.1l-0.5,1.1c-1.3,2.7-4.1,4.2-7,3.9l-2.4-0.3c-2.4-0.2-4.8,0.3-7,1.4
					l-7.7,4.5c-2,1.3-3.4,3.2-4.2,5.5l-1.2,4.2c-0.7,2.5-3,4.1-5.6,4.2c-0.3,0-0.7,0-1-0.1l-12.8-2.3c0.7,0.7,1.3,1.5,1.8,2.4
					c1.4,2.4,2.4,5,3,7.7c0.7,3.2,2.8,6.9,4.6,8.1c2.9,2.3,5.6,4.8,8,7.7l3.8,4.4c2.9,3.3,6.2,6.2,9.9,8.6c2.8,1.7,5,6.3,4.9,10.3
					l-0.1,2.7c-0.4,4.6-2.1,9-4.9,12.7l-3.3,4c-2.5,3-6.5,5.9-8.9,6.4c-5.4,1.2-8.7,7.4-14.3,7.6c-0.7,0-1.5-0.1-2.2-0.1
					s-1.4,0.2-2,0.7c-1,0.9-0.7,2.1-0.7,3.2c-0.1,2.4,0,4.9,0.2,7.3c0,0.2,0.1,0.5,0.2,0.7c0.3,0.3,0.7,0.4,1,0.2s0.6-0.4,0.9-0.7
					c2.6-2.7,6.4-6.1,10.2-6.9c2.5-0.6,4.9-1.6,7.2-2.8c2.1-1.2,7-2.4,11-2.7l2.4-0.2c4-0.3,6.5,0.2,5.6,1.1
					c-1.9,2.5-3.6,5.1-5.1,7.9l-2,3.5c-1,1.7-2,3.3-3.2,4.8c-0.9,1.1-1.5,2.3-2,3.6c-0.4,1.4,0,2.5,0.1,3.9c0,0.9-0.1,1.8-0.4,2.7
					c-0.2,0.7-0.2,1.7,0.4,2c0.4,0.2,0.8,0.2,1.1,0.2l2.4-0.2c0.7-0.1,1.4-0.1,2,0.2c2.3,1.1,0.4,5-0.5,6.3l-13.9,22
					c-2.8,4.4-4.6,10.2-8.4,13.8c-0.7,0.7-1.6,1.2-2.3,1.9c-2.5,2.5-2.9,7-3.4,10.2c-0.8,3.4-2.8,6.4-5.5,8.4
					c-3.1,2.5-5.6,5.6-7.2,9.2c-0.3,0.7-0.7,1.4-1.2,2l8.4,7.7C386.5,695.5,388.8,696.9,391.2,697.8z"/>
				<path class="st1" d="M382.1,455.1c1.6-1.7,4.1-4.4,5.6-6.1l8-8.9c2-2.1,4.2-3.9,6.7-5.4l7.5-4.2c1.7-1.1,2.7-3,2.6-5l-0.6-5.2
					c-0.4-2.6-1.2-5.1-2.3-7.4l-1.3-2.5c-0.9-1.7-2.6-2.5-3.7-2.1c-1.5,0.6-2.8,1.8-3.4,3.3c-0.7,2-3.4,4-6,4.6l-0.5,0.1
					c-2.6,0.6-5.9-0.2-7.4-1.6c-1.5-1.3-3.3-2.2-5.2-2.8c-2.6-0.8-4.9-2.3-6.9-4.2l-0.9-1c-1.8-1.7-4-2.8-6.4-3.3l-8.4-1.3
					c-2.5-0.3-5,0.1-7.3,1l-1.3,0.6c-2.7,1.1-5.6,1.6-8.5,1.5l-12-0.8c-2.9-0.3-5.6-1.9-7.4-4.2l-3.5-4.9c-3.2,7.7-17,9.4-18.4-0.6
					l-0.4-3c-0.6-3.9-2.8-8.2-4.9-9.5s-5.4-1.9-7.3-1.3c-3.3,1-4.1,3.7-6.1,6c-0.5,0.5-0.9,1-1.3,1.6c-1,1.9,4.8,8.4,1.3,9.6
					c-1,0.2-2,0-2.9-0.5l-2.6-1c-0.9-0.4-2.2-0.7-2.8,0.2c-0.3,0.6-0.2,1.3,0.1,1.9c1.1,3.5,2,7.1,2.7,10.7c0.4,1.9,0.7,3.8,1.1,5.8
					c0.2,1.2,0.2,3.5,1.6,4.1s4.8-1.9,4.8,1c0,1.3-2,4.2-4.5,6.4s-5.9,2-7.6-0.4c-0.1-0.1-0.2-0.2-0.3-0.4l2.3,14.3
					c0.4,2.2,1.2,5.8,1.8,8l0.6,2.4c0.8,2.5,1.9,4.9,3.3,7.1l1.7,2.5c1.5,1.9,3.5,3.3,5.7,4l5.1,1.3c2.8,0.8,5.4,2.1,7.7,3.8
					l3.5,2.8c2.2,1.7,2.5,4.9,0.8,7c-0.1,0.1-0.2,0.2-0.3,0.3l-1.3,1.4c-1.1,1.2-1,3,0.1,4.1c0,0,0,0,0.1,0.1l0.5,0.4
					c2.1,1.9,4,4.1,5.6,6.5l3.4,5.2c1.4,1.9,3.4,3.4,5.7,4.1l3.1,0.9c2.8,0.9,5.2,2.7,7,5l0.1,0.1c1.4,1.8,3.5,3,5.7,3.4l14.6,1.7
					c0.3-0.3,0.6-0.6,1-0.9s0.8-0.7,1.2-1.1c0.3-0.4,0.4-1,0.3-1.5c-0.2-0.4-0.4-0.7-0.7-1c-4.1-4-6.4-10.1-9.1-15.2l-5.2-9.6
					c-1.9-3.6-0.7-8,2.8-10.2l12.5-7.8c3.4-2.1,7.6-1.9,9.5,0.5c1.6,2,5.3,3.6,8.8,3.9c1-1.7,2.1-3.3,3.3-4.8L382.1,455.1z"/>
				<path class="st1" d="M404.1,498.7l1.2-4.2c0.9-2.8,2.8-5.2,5.2-6.8l7.7-4.5c2.6-1.4,5.5-2,8.5-1.7l2.4,0.4
					c1.9,0.2,3.7-0.8,4.6-2.5l0.5-1.1c1.3-2.7,3.9-4.4,6.9-4.5h5.8c2.9,0.1,5.7,1.3,7.9,3.4l1.5,1.6c1.7,1.6,3.9,2.6,6.2,2.8
					l6.9,0.2c-1.5-2.3-2.2-5.1-2-7.8l1.6-12.6c0.3-1.8,0.1-3.7-0.6-5.5c-1.1-1.7-0.8-4.7-0.1-6.7c0.8-2.4,1.3-4.9,1.5-7.4l1-16.4
					c0.3-2.9,1.3-5.7,3-8.1l1.1-1.5c1.4-2.1,2.4-4.5,2.8-7v-0.2c0.5-2.9,2.2-5.5,4.6-7.2l4.4-2.8c2-1.2,5.2-3.2,7.2-4.3l4.1-2.4
					c2.6-1.3,5.6-1.5,8.4-0.6c2.5,1,5.1,1.7,7.7,2.3l4.4,0.9c2.1,0.4,4.3,0.1,6.3-0.9c1.4-1.1,1.9-2.9,1.5-4.6l-2.5-9.4
					c-0.6-2.9-0.2-5.9,1.1-8.5l3.3-5.4c-3.6-0.9-7.2-1.5-10.8-2c-3.4-0.4-7.9-3.5-9.9-7l-6.7-11.3c-2.3-4.2-3.8-8.7-4.4-13.4
					l-0.2-2.5c-0.4-4-1.7-8.5-2.9-10s-1.5-5.2-0.6-8.1c1.3-3.9,2.9-7.7,4.8-11.4c1.8-3.4,2.3-7,1.3-8c-1.1-1.1-2.6-1.7-4.2-1.9
					c-1.2,0-4.5,2.1-7.1,4.7c-2.2,2.2-4.6,4.2-7.2,5.9c-2.2,0.8-4.5,1.2-6.8,1.3c-2.7,0-5.4-1-7.4-2.8c-2-1.9-2.2-6.6-5.1-7.1
					c-1-0.1-2,0-3,0.2c-3.8,0.8-8,1.1-11.5,2.6c-2,0.6-4.1,0.8-6.1,0.6c-2.2-0.1-5.8,2.4-8.1,5.6l-0.2,0.4c-2.8,3.4-7,5.5-11.4,5.6
					l-5-0.1c-8.1-0.2-17,10.7-17,18.5v0.6c-0.3,3.9-0.3,7.9-0.1,11.9c0.2,2.6-1.8,6.2-4.6,8c-3.5,2.6-6.4,5.8-8.8,9.5l-4.2,6.9
					c-2.6,3.7-6.6,6.1-11,6.7l-0.8,0.1c-4.5,0.1-8.8-1.6-12-4.8l-0.2-0.3c-2.7-2.9-7.2-3.2-10.2-0.5c-3.5,3.1-6.9,4.8-11,7.1
					c-1.1,0.6-2.3,1.4-2.5,2.6c-0.3,1.8,1.5,3.1,3.2,3.9s3.6,1.9,3.6,3.7c0,5.4-9.7,7.2-13.4,7.2c-1.4,0-3-0.2-4.1,0.6
					s-1.5,2.3-1.8,3.8l4.6,6.4c1.4,1.8,3.4,2.9,5.7,3.2l12,0.8c2.5,0.1,5-0.4,7.4-1.3l1.3-0.6c2.7-1.1,5.7-1.5,8.6-1.1l8.4,1.3
					c2.9,0.6,5.5,2,7.7,4l0.9,1c1.6,1.6,3.6,2.8,5.8,3.5c2.3,0.6,4.4,1.8,6.2,3.4c1.6,1.1,3.5,1.4,5.3,1l0.5-0.1
					c2-0.4,3.9-2,4.3-3.1c0.9-2.2,2.7-3.9,4.9-4.7c2.2-0.7,5,0.7,6.4,3.2l1.3,2.5c1.3,2.6,2.1,5.4,2.5,8.2l0.6,5.2
					c0.2,2.9-1.2,5.8-3.7,7.3l-7.5,4.2c-2.3,1.4-4.3,3-6.1,4.9l-8,8.9c-1.5,1.7-4.1,4.5-5.6,6.2l-8.8,9.5c-0.8,1-1.6,2.1-2.3,3.2
					l1.7-0.1c4.3,0.1,8.2,2.5,10.3,6.3l0.6,1.3c1.1,2.5,1.7,5.2,1.9,8c0.3,2.7-1,5.1-2.5,7.4c-0.6,0.8-1,1.7-1.2,2.6
					c0,0.9,0.2,1.7,0.6,2.5c0.2,0.4,0.4,0.7,0.7,1.1l15.4,2.8C402,501.4,403.6,500.3,404.1,498.7z"/>
				<path class="st1" d="M339,653.7l0.4-1.8c0.7-2.5,2.6-4.5,5-5.3l1.4-0.4c2.4-0.9,4.4-2.8,5.2-5.3c0.8-3.1,1.1-6.8,2.9-9.5
					c0.3-0.4,0.8-0.9,1.2-0.7c1,0.5-0.2,2.3,0.4,3.2c0.5,0.5,1.3,0.5,1.8,0.1c0.5-0.5,1-1,1.4-1.5c2.5-2.6,6.1-3.9,9.8-3.5
					c1.8,0.2,3.6,0.6,5.4,1.2c2.2,1,4.7,1.4,7.1,1.2c4.9-0.6,6.2-5.5,8-9.4l4.3-9.3c1-2.1,0.1-4.7-1.9-5.8c-2.4-1.1-5.1-1.2-7.6-0.4
					l-30.4,12.3c-1.7,0.8-3.7,0.1-4.4-1.6c-0.1-0.3-0.2-0.6-0.3-1l-0.9-4.9c-0.4-2-0.6-4.1-0.7-6.1c-0.1-1.5,0.1-4.4-0.8-5.5
					c-0.4-0.5-1-0.7-1.6-0.8c-0.6,0-1.2,0.1-1.8,0.3c-1.8,0.6-3.4,1.5-5.2,2.2l-5.5,1.9l-6.5,2.2c-2.5,1-4.4,2.9-5.5,5.3l-4.1,10.5
					c-1.1,2.8-2.2,5.7-3.3,8.5s-1.8,5.7-3.1,8.3c-0.2,0.4-0.5,0.9-0.8,1.3c-0.8,1.1-1.8,2.2-1.8,3.6s1.2,2.7,2,4
					c1.1,1.9,1.1,3.7,1.1,5.8l-1.6,10.7c-0.5,3.7,0.4,8.2,3.2,10.8c0.6,0.7,1.5,1.1,2.4,1.3c0.7,0.1,1.5-0.1,2.1-0.4
					c2.7-1.2,4.4-3.6,6.6-5.4c1.4-1.2,2.9-2.2,4.3-3.3l7.7-5.8C336.8,658.7,338.3,656.3,339,653.7z"/>
				<path class="st1" d="M534.1,829.3l1.2-6.9c0.3-2.4-0.1-4.8-1.2-7l-1.3-2.4c-1.3-2-3.1-3.6-5.3-4.5l-15.3-5.4
					c-2.7-1.1-5.1-2.9-6.9-5.2l-11.9-17.1c-1.6-2.1-3.4-3.9-5.5-5.4l-3.5-2.3c-2.4-1.7-4.1-4.2-5-7l-3-12c-0.7-2.4-2-4.5-3.8-6.2
					l-6.9-6.1c-2.1-2-3.9-4.2-5.5-6.6l-7.3-12.2c-1.2-2-3-5.2-4.2-7.2l-6-10.9l0,0c-1.4-2.3-2.9-4.5-4.6-6.5l-3.7-4.2
					c-1.7-1.8-3.9-3-6.2-3.7l-5-1.2c-2.1-0.3-4.2,0.3-5.7,1.8l-3.4,3.8c-2,2.1-4.6,3.6-7.4,4.4l-7,1.6c-2.9,0.5-5.8,0.4-8.6-0.5
					l-0.7-0.2c-2.7-1.1-5.2-2.6-7.3-4.5l-8.4-7.7c-1.9,1.7-4.3,2.8-6.8,3.3l-15.7,2.2c-2.9,0.6-5.8-1.3-6.4-4.2
					c-0.1-0.6-0.1-1.3,0-1.9l0.2-1.7c0.4-4-0.2-8.5-1.4-10.1c-1.8-2.4-4.9-1.9-7.5-2.1c-1.1-0.2-2.3-0.1-3.4,0.5
					c-1.2,0.9-1.2,2.6-1.1,4.1c0.3,4.7,0.6,9.5,2.6,13.8c1.3,3,3.1,5.7,5.4,8c1.8,1.5,3.8,2.6,6,3.3c1.9,0.6,3.3,2.2,3.5,4.2
					c0.1,2.3-0.7,4.6-2.2,6.3c-1.5,1.6-1.9,6.1-1.1,9.9l2.2,9.8c0.8,4.5,0.8,9-0.2,13.5c-1.1,4.5-1.9,9-2.4,13.6l-0.4,3.9
					c-0.2,4.5,1.5,8.8,4.6,12.1l8.9,8.2c3.1,2.9,5.7,6.3,7.7,10c1.5,3.9,2.4,8.1,2.4,12.3v18.6c0,4-1.7,9.3-3.7,11.9
					s-6.8,5.7-10.5,7l-0.4,0.2c-3.6,1.2-7.2,1.9-10.5-0.3c-0.8-0.7-1.8-1.3-2.7-1.7c-1.1-0.3-2.2-0.3-3.3-0.2
					c-0.8,0-1.5,0.2-2.2,0.4c-0.7,0.3-1.3,0.8-1.5,1.6c-0.1,0.8,0,1.5,0.5,2.2c0.6,1,1.1,2.1,1.8,3.1c1.6,2.6,3.8,5.1,4.8,5.6
					c3.6,1.8,2.4,8.2,5.3,10.6c1,0.9,2.2,1.4,3.2,2.2c0.8,0.5,1.3,1.5,1.3,2.5c-0.2,0.7-0.5,1.3-0.9,1.8c-0.9,1.3-1.6,3.5-0.8,5
					c1.1,2.1,4.4,4.1,7.2,4.5s8.5,0.6,12.4,0.6h21.8c4.4,0.2,8.3,2.7,10.5,6.4l2.1,4.1c1.8,3.5,6.1,6.4,9.5,6.4s8.5-2.4,11.2-5.3
					l0.4-0.4c2.7-3.1,3.1-7.7,0.9-11.2l-5-7.3c-2.7-4-5-8.2-7-12.6l-5.7-13.1c-1.7-4.4-2.2-9.1-1.4-13.7l2.3-11.5
					c1.1-4.6,2.8-9.1,5.1-13.3l6.7-11.6c2.1-3.7,3.8-7.7,4.9-11.8c0.7-3,3.1-6.5,5.3-7.7c3.2-1.5,6.6-2.4,10.1-2.6
					c3.4-0.2,8.7,1.5,11.9,3.9l3.4,2.6c3.2,2.4,5.2,6.1,4.4,8.2s-2.1,7.1-3,10.9l-0.5,1.9c-0.9,3.9-4,7.3-6.8,7.6s-5.9-0.6-6.8-2.1
					s-2.2-3.9-3-5.4s-4.6-2.1-8.4-1.2s-7.5,2.3-8.2,3.2s-0.4,3.1,0.4,4.8c1.1,2,2.6,3.7,4.5,4.9c1.7,1,3.7,1.4,5.7,1
					c1.6-0.4,3.3-0.6,5-0.4c1.2,0.2,2,3.7,1.8,7.6l-0.3,5.1c0,4.7,1.2,9.2,3.6,13.2l9.4,14.4c2.3,3.9,3,8.5,2.2,13
					c-0.7,2.9-1.5,5.9-2.2,8.8c-0.5,1.8-0.7,3.7-1.2,5.4c-0.9,2.9-1.9,5.2-1.5,8.3c0.3,2.2,0.7,4.1,0.2,6.3c-0.5,2-3.4,5.7-6.5,8.2
					c-2.7,2.2-4.9,5.1-8.4,6.1c-0.7,0.2-1.4,0.4-2.1,0.6c-0.7,0.3-1.3,0.8-1.6,1.5c-0.2,0.9,0,1.9,0.4,2.7c0.9,2.2,2.5,4.8,1,7.2
					c-0.5,1-0.9,2.1-1.1,3.2c-0.4,1.2-0.9,2.3-1.7,3.3c-0.4,0.5-0.6,1.1-0.5,1.7c0.3,0.8,1.3,0.9,2.1,0.9c2.5-0.2,5-1.1,6.9-2.8
					c1.7-1.4,4.1-2.8,5.2-4.9c0.8-1.5,4.5-4,8.2-5.4l14.4-5.6c4.4-1.8,8.6-4.2,12.5-6.9l3.1-2.3c3.7-2.9,6.9-6.3,9.4-10.2
					c2.1-3.5,3.1-6.8,6.5-9.2c2.5-1.6,4.8-3.5,6.9-5.6c1.2-1.4,2-3.1,3.3-4.5c0.3-0.3,0.5-0.7,0.6-1.1c0.1-0.7-0.5-1.3-0.9-1.8
					c-1.5-1.8-1.7-3.8-1.6-6s-0.2-4.5-0.1-6.8c0-0.3,0-0.7-0.3-0.9c-0.1-0.1-0.3-0.1-0.5-0.1h-2.8c-0.7,0-1.5-0.1-2.1-0.3
					c-2.4-0.9-3.1-5.5-2.3-7.6c1.7-4.2,4.3-8,7.7-11l3.6-3c3.5-2.6,8.1-3.4,12.2-2l5.7,2.2l1.8-2.7
					C532.5,834.1,533.6,831.8,534.1,829.3z"/>
				<path class="st1" d="M640.9,550c-2.7,0.3-5.4,0.7-8,1.4l-6.1,1.7c-2.5,0.8-4.9,1.9-7.2,3.3l-1.6,1.1c-2.5,1.5-5.2,2.5-8.1,2.9
					l-6.2,0.7c-0.2,0-0.5,0-0.7,0c-2.7-0.1-5.2-1.4-6.8-3.6l-2.1-3.2c-1.5-2.2-3.2-4.3-5-6.3l-1.6-1.6c-1.5-1.4-3.7-1.8-5.7-1.2
					l-5.7,2.1c-2.8,0.9-5.7,1.2-8.6,0.8l-14.8-2.3c-2-0.2-3.9,0.7-4.9,2.4l-4,7.5c-1.4,2.5-2.9,4.9-4.6,7.1l-8.7,11.1
					c-1.6,2.1-3,4.4-4.1,6.8l-4.5,9.9c-1.3,2.6-3.1,4.9-5.3,6.8l-14.3,11.5c-1.6,1.5-2.5,3.6-2.5,5.8l1,13.8c0.3,2.1,1.6,4,3.4,5.1
					l5.4,2.8c2.6,1.4,4.6,3.7,5.8,6.3l3.1,7.8c1,2.8,0.2,5.9-2,7.8l-3.5,2.9c-1.9,1.7-3.4,3.8-4.5,6.1l-0.7,1.6
					c-0.6,1.7,0,3.6,1.4,4.7l2.2,1.4c2.4,1.7,3.9,4.4,4,7.4v1.2c-0.1,2.9-2.1,5.4-5,6.1l-7.6,1.4c-2.3,0.6-4.3,1.9-5.8,3.7l-0.8,1.1
					c-1.8,2.3-4.7,3.6-7.6,3.5l-8.8-0.8c-2.1-0.1-4.1,0.9-5.3,2.6l-0.8,1.2c-1.7,2.4-4.5,3.8-7.5,3.6l-6.9-0.8
					c-2.5-0.2-5.1,0.2-7.5,1l-4.9,2l3.5,6.4c1.1,2,3,5.2,4.1,7.2l7.3,12.2c1.4,2.2,3.1,4.3,5,6.1l6.9,6.1c2.1,2,3.7,4.6,4.5,7.4
					l3,12c0.7,2.3,2.1,4.2,4,5.7l3.5,2.3c2.3,1.7,4.4,3.7,6.1,6l11.9,17.1c1.5,1.9,3.5,3.4,5.7,4.4l15.3,5.4c2.7,1.1,5,3,6.6,5.5
					l1.4,2.4c1.3,2.6,1.8,5.6,1.4,8.5l-1.2,6.9c-0.6,2.8-1.9,5.5-3.6,7.8l-1.4,2.1l0.4,0.2c3,1,5.9,2.5,8.5,4.3c2.2,1.8,3.8,4.2,6,6
					l1.2,1c3.1,2.4,6.7,4,8,3.5s2.3-2.3,2.3-4c0.2-2.2,1.3-4.3,2.9-5.8c1.8-2,2.9-4.6,2.9-7.3c-0.1-1.6,0.2-3.2,0.9-4.7
					c0.7-1.2,1.5-1.9,1-3.5c-0.3-1.1-1.1-2-1.2-3.1c0-0.7,0.2-1.4,0.5-2.1c0.6-2.1,1.4-4.3,2.3-6.3c0.7-1.2,1.4-2.4,2-3.7
					c1.4-2.7,3-5.4,4.8-7.8c2.1-3,3.9-7.5,3.9-10.1c0.3-3.9,1.1-7.8,2.4-11.6l4-11.6c0.8-2,2.2-7.7,0.6-9.6
					c-0.5-0.6-1.4-0.7-2.1-1.1c-0.6-0.4-1.1-0.9-1.6-1.5c-1.2-1.5-2.2-3-2.1-5c0.1-1.4,0.1-2.7,0-4.1c-0.2-4.7,0.3-9.5,1.7-14
					c1.2-3.6,2-7.3,2.4-11.1c0.2-1.7-0.2-3.3,0.2-5c0.5-1.9,1.5-3.5,2.1-5.4s0.6-3.5,1.3-5.2c0.9-2.5,2.4-4.5,3.1-7.1
					c0.5-2.4,1.2-4.7,2.1-7c1.2-3.2,2-6.6,2.4-9.9l0.5-3c0.8-4.7,1.9-9.4,3.3-14l0.2-0.7c1.6-4.5,3.5-8.9,5.8-13.1l4.2-7.4
					c2-3.4,3.5-8.2,3.3-10.6c-0.1-2.5,1.2-4.9,3.4-6.2c3.2-1.6,3.9-6.6,4-9.8c0.1-3.5,2-6.7,4.9-8.5c1-0.6,1.9-1.3,2.8-2.1
					c0.8-0.7,1.2-1.9,0.9-3c-0.5-0.8-1.2-1.5-2-1.9c-2.1-1.4-4.1-7.2-3.4-9.7c0.5-1.7,3.3-5.1,6.3-7.6l3.7-3.1c3-2.5,5.9-6,6.4-7.5
					s3.7-4.6,7.1-6.7l1.1-0.7c3.4-2.1,5.8-5.2,5.3-6.9c-0.3-2.1,0.5-4.2,2.1-5.5c1.7-1.4,3-3.2,3.8-5.2c0.3-0.8,0.6-1.5,1.1-2.2
					c-2.5-1.5-5.8-2.9-7-2.8L640.9,550z"/>
				<path class="st1" d="M682.2,514.6c-2.9-0.6-5.8-1.4-8.6-2.4c-1.7-0.7-4.7-2-6.6-1.4c-1.1,0.4-2.3,0.5-3.5,0.3
					c-1.6-0.7,1.5-3.2,1.6-3.9c0-0.6-0.3-1.1-0.8-1.4c-0.5-0.2-1-0.4-1.6-0.6c-2.4-1-2.1-2.7-1.5-4.6c0.5-2.2,0.9-4.5,1.1-6.8
					c0.2-2,3.6-4.2,7.5-4.9c0,0,1.3-0.2,1.6-0.2c1.1-0.1,2.2-0.3,3.3-0.6c0.7,0,1.4-0.2,2-0.5c0.7-0.3,1.1-1,1.1-1.7
					c0-0.1,0-0.2-0.1-0.3c-0.1-0.1-0.3-0.2-0.5-0.1c-3.1-0.2-6.1,0.1-9.1,0.8c-1.7,0.4-3.5,0.1-5.1-0.7c-1.7-0.9-3.5-1.3-5.4-1.4
					c-1.6,0-2.5-0.8-1.9-1.8c0.7-1.1,1.7-2.2,2.3-3.3c0.5-0.9,0.6-2,1.4-2.9c0.6-0.6,1.3-1,1.9-1.6c0.2-0.2,0.3-0.4,0.3-0.7
					c-0.1-0.3-0.4-0.4-0.7-0.5c-1.9-0.4-3.6,1.1-5.5,0.2c-0.3-0.2-0.7-0.3-1.1-0.4c-0.8-0.1-1.7,0-2.4,0.4c-2.6,0.8-3.6-1.4-4.2-3.6
					c-0.3-2.5-0.1-5,0.8-7.3c1.3-3,3.2-5.7,5.5-8.1c2.2-2.1,3.4-4.6,2.7-5.6c-1.2-1.3-2.7-2.2-4.3-2.8c-2.3-0.5-4.6-0.4-6.8,0.4
					c-2.1,0.8-6.9,1.1-10.7,0.8s-9.2-1.2-12-1.8c-4.1-0.7-8.2-0.8-12.3-0.4l-2.2,0.2c-4,0.4-9.7-0.5-12.7-2.1s-5.5-6-5.5-9.8
					s0.7-8.1,1.5-9.6s3.5-2.4,6-2.1c2.2,0.3,4.5,0.3,6.8,0c2.2-0.8,4.2-1.9,6.1-3.3c2.1-1.5,3.7-3.3,3.5-4.1
					c-0.5-1.3-1.4-2.4-2.5-3.2c-1.2-0.9-1-2,0.5-2.5c2.2-0.6,4.5-0.1,6.8-0.2c2.7-0.1,3.8-1.3,5.4-3.2c2.2-2.7,4.2-8.1,4.5-12.1
					l0.2-2.6c0.3-4,0.7-9.6,1-12.5s-1.5-7.9-3.8-11.1l-3.6-4.9c-2.1-2.9-3.5-5-4-8.5c0-0.6-0.2-1.1-0.5-1.6
					c-0.7-0.6-1.6-0.7-2.5-0.5c-3.1,0.2-5.7-1.1-8.6-2c-1.5-0.6-3.1-0.4-4.4,0.4c-0.8,0.7-1.3,1.8-2.4,2.1s-1.8-0.4-2.7-0.8
					c-2.3-1.2-5-1.2-7.3,0c-3.2,1.7-4.5,5.6-5.6,8.9c-1.2,3.7-4.3,8.4-6.9,10.5s-7.9,3.6-11.9,3.4l-13.8-0.8
					c-4.3-0.3-8.5-1.5-12.4-3.4c-2.9-1.5-5.9-2.8-8.9-3.9l-3.6,5.9c-1,2.1-1.3,4.5-0.8,6.8l2.5,9.4c0.7,2.7-0.4,5.9-2.5,7.2
					c-2.5,1.3-5.3,1.7-8,1.2l-4.8-0.6c-2.7-0.6-5.4-1.4-8.1-2.5c-2.1-0.7-4.4-0.5-6.4,0.5l-4.1,2.4c-2,1.1-5.2,3-7.1,4.2l-4.3,2.8
					c-1.8,1.3-3.1,3.3-3.5,5.5v0.2c-0.5,2.9-1.6,5.6-3.2,8l-1.1,1.5c-1.4,2.1-2.2,4.4-2.5,6.9l-1,16.4c-0.2,2.8-0.8,5.5-1.7,8.1
					c-0.6,1.8-0.6,3.9-0.1,4.7c1,1.6,1.3,4.8,1,7l-1.6,12.6c-0.2,2.3,0.5,4.6,1.8,6.5l0,0l0.9,1.2l8.7,10.9c1.5,1.7,3.6,2.8,5.9,3.1
					l11.1,0.6c1.2,0.1,2.3-0.7,2.5-2c0-0.2,0-0.4,0-0.6l-0.6-5c-0.4-2.4-1.5-4.5-3.2-6.2l-3.4-3.1c-2.1-2.1-2.8-5.2-1.9-8l1.2-3.2
					c1.2-2.7,3.5-4.7,6.4-5.5l2.5-0.5c2.9-0.5,5.9,0.3,8.2,2.1l2,1.8c1.9,1.5,4.2,2.3,6.5,2.5h7.2c2.7-0.1,4.9,2.1,4.9,4.7
					c0,0.2,0,0.5,0,0.7l-1,9.6c-0.1,2.3,0.6,4.6,2.1,6.4l11.9,13.2c1.9,2.3,2.6,5.3,1.9,8.2l-1.5,5.4c-0.5,2.2-0.1,4.5,1.1,6.4
					l4.3,6c1.6,2.4,2.8,5,3.7,7.8l1.9,6.8l13,2c2.5,0.3,5,0,7.4-0.7l5.7-2.1c2.8-0.9,5.9-0.2,8.1,1.8l1.7,1.7c2,2,3.8,4.3,5.4,6.6
					l2.1,3.2c1.2,1.7,3.2,2.6,5.3,2.6l6.2-0.7c2.5-0.4,4.9-1.2,7.1-2.6l1.6-1.1c2.4-1.5,5.1-2.7,7.8-3.6l6.1-1.7
					c2.7-0.7,5.6-1.2,8.4-1.5l11.1-0.9c1.8-0.2,5.7,1.4,8.5,3.2c0.3-0.3,0.5-0.6,0.8-0.8c1.4-1.1,3.1-1.8,4.8-2
					c1.8-0.2,3.5-0.8,5-1.8c1.3-0.9,2.7-1.8,4.2-2.5c1.4-0.9,2.5-2.2,3.3-3.6c0.9-1.7,0.6-3.3-0.7-3.7c-1.2-0.4-2.4-0.5-3.6-0.3
					c-0.7,0.2-1.3-0.6-1.4-1.8c0.1-1.7,0.7-3.4,1.8-4.7c1.2-1.6,2-3.5,2.4-5.4c0.4-3.2,3.1-5,5.7-6.3c0.5-0.2,1-0.6,1.1-1.1
					C683.7,515.1,682.9,514.8,682.2,514.6z"/>
				<path class="st1" d="M326.7,508.3l-0.1-0.1c-1.5-1.9-3.5-3.3-5.8-4.1l-3.1-0.9c-2.8-0.9-5.2-2.7-6.9-5.1l-3.4-5.2
					c-1.5-2.2-3.3-4.2-5.2-6l-0.5-0.4c-2.2-1.9-2.4-5.2-0.5-7.3l0.1-0.1l1.3-1.4c0.5-0.5,0.8-1.3,0.8-2c-0.1-0.7-0.4-1.4-1-1.9
					l-3.5-2.8c-2.1-1.5-4.4-2.7-6.9-3.4l-5.1-1.3c-2.8-0.9-5.2-2.6-7-4.9l-1.8-2.5c-1.6-2.4-2.8-5-3.6-7.8l-0.6-2.4
					c-0.6-2.2-1.4-5.9-1.8-8.2l-2.8-17.5c-0.9-0.8-1.9-1.3-3-1.6c-2.1-0.1-4.3,0.4-6.1,1.4c-2,1-4.3,0.7-6-0.7
					c-1.6-1.4-3.8-2.5-5-2.5c-2,0-4.1,0.6-6.1,0.3c-2.3-0.3-4.5-1.9-6.8-1.3c-0.3,0.1-0.5,0.2-0.8,0.4c-0.9,0.7-0.8,2.2-0.4,3.3
					c0.6,1.7,0.9,3.1,1.3,4.8l0.2,0.9c0.9,4.5,0.2,9.1-2,13.2l-2.2,3.6c-2,3.4-1.7,7.1,0.7,8.3s6.4,3.2,8.7,4.5s4.5,3.2,4.8,4.2
					c0.8,1.8,2,3.5,3.4,4.9c1,1,2.9,3.1,1.8,4.6c-0.4,0.5-0.9,0.9-1.5,1.1c-1.1,0.5-2.3,0.7-3.5,0.7c-0.4,0.3-0.2,1,0.2,1.3
					c0.4,0.2,1,0.3,1.4,0.3c3-0.1,5.8,0.2,8.2-1.8c1.5-1.2,3.5-1.7,5.4-1.5c1.7,0.5,2.9,2,3.1,3.8c0.3,3-1.8,5.1-1.6,8
					c0,1.5,0.8,2.8,2.1,3.5c0.3,0.2,0.6,0.2,0.9,0.2c0.5-0.1,0.9-0.3,1.3-0.7c3.3-2.3,7.7-0.6,10.9,0.9c2.5,1,5.1,1.4,7.8,1.1
					c2.3-0.4,6.1,1.1,8.4,3.3c2.7,2.9,4.4,6.5,5,10.4c0.4,4.1,0.4,8.3,0,12.4c-0.3,3.7,0.8,7.4,2.9,10.4c2,2.4,3.1,5.1,2.4,6
					s-2.8,0.8-4.8,0c-1.9-0.8-3.9-1.3-6-1.3c-1.9,0.4-3.7,1.3-5.3,2.5s-5.4,1.1-8.5-0.2s-5.5-5.5-5.5-9.3c0-3.5,0.4-7,1.1-10.4
					c0.5-1.7,0.9-3.5,1.1-5.3c0-1.2-0.4-2.4-1-3.4c-0.6-0.9-2.5-1.7-4.2-1.8c-1.7-0.1-3.9,1-5.6,0.1c-0.9-0.5-1.6-1.3-2-2.3
					c-1.2-2.4,0.1-5.4-1.1-8c-1.1-2.3-3.4-3.5-4.9-5.4c-1.1-1.3-2.3-2.4-3.6-3.5c-0.6-0.5-1.3-0.9-2-1.1c-0.8-0.2-1.6,0-2.1,0.6
					c-0.5,0.8-0.6,1.7-0.5,2.6c0.1,3.8-1.4,5.6-3.7,8.4c-0.2,0.3-0.4,0.6-0.5,0.9s-0.1,0.6-0.1,0.9c0,2,0.7,3.9,0.8,5.8
					s-1.2,3.3-3,4.2c-0.8,0.4-1.7,0.8-2.1,1.6c-0.1,0.3-0.2,0.7-0.1,1c0,3.8,3.2,8.6,5.8,11.3c1.8,1.9,4.1,6.6,5.2,10.4l0.3,1.1
					c1,3.8,2.1,8.3,2.3,9.9s3.3,2.7,6.9,2.4c3.6-0.3,8,2.3,10,5.8s4.4,8.2,5.4,10.5c1.6,3.3,2.3,6.3,0.7,9.8
					c-0.6,1.3-1.7,2.5-2.3,3.8c-0.6,1.5-1.1,3.1-1.5,4.6c-0.6,2.2-1.6,5.4,0.1,7.3c0.9,1,2.2,1.5,3.5,1.4c2.9-0.2,4.8-2.9,6.5-5
					l15.8-19.4c3.1-3.6,6.9-6.5,11.2-8.6l4.7-2.2c4.4-1.9,9-2.9,13.8-3h4.3c4,0,8.9,2.5,10.9,5.4s1.6,7.8-0.9,10.9
					c-0.9,1.1-1.8,2.2-2.7,3.3c-1.2,1.6-3.5,2.7-4.4,4.5c-0.3,0.6-0.4,1.3-0.4,1.9c-0.2,4.4,1.7,8.7,5.2,11.4
					c2.9,2.5,6.9,3.9,8.7,3.1c5.1-2.1,6.6-8,11.5-9.8c1.6-0.6,3.3-1.2,4.4-2.5c0.6-0.8,0.9-1.8,1.5-2.6c0.8-1,1.8-1.9,2.6-3l4.4-6.1
					c2.3-3.2,4-7.7,3.8-10s-1.9-7-3.8-10.5l-3.7-7.1c-1.9-3.5-6.1-6.5-9.6-6.6c-4.4,0.2-8.6,1.4-12.4,3.5l-2.9,1.7
					c-2.4,1.6-5.6,1-7.3-1.4c-0.4-0.6-0.7-1.3-0.8-2l-0.5-1.7c-0.9-4.2,0.6-8.5,4-11.2l3.8-2.8c0.4-0.3,0.9-0.7,1.2-1.1l-12.9-1.5
					C331.2,512.2,328.6,510.7,326.7,508.3z"/>
				<path class="st1" d="M391.2,697.8l0.7,0.2c2.4,0.7,4.9,0.9,7.3,0.5l7-1.6c2.4-0.7,4.5-1.9,6.2-3.7l3.4-3.8
					c2.1-2.1,5-3.1,7.9-2.5l5,1.2c2.8,0.8,5.4,2.3,7.4,4.4l3.7,4.2c1.9,2.2,3.5,4.5,4.9,7l-1,0.6l0,0l1-0.6l1.3,2.4l5.2-2.1
					c2.7-1,5.7-1.4,8.6-1.2l6.9,0.7c2.1,0.1,4.1-0.9,5.3-2.5l0.8-1.2c1.7-2.4,4.5-3.8,7.5-3.6l8.8,0.8c2.1,0.1,4.2-0.9,5.5-2.5
					l0.8-1.1c1.8-2.3,4.4-3.9,7.2-4.6l7.6-1.4c1.8-0.4,3.1-2,3.1-3.8v-1.2c-0.2-2.2-1.3-4.2-3-5.5l-2.2-1.4
					c-2.4-1.7-3.4-4.8-2.3-7.5l0.7-1.6c1.2-2.6,3-5,5.2-6.9l3.5-2.9c1.4-1.3,1.9-3.4,1.3-5.2l-3.1-7.8c-1-2.2-2.7-4-4.7-5.2
					l-5.4-2.8c-2.6-1.5-4.3-4.1-4.6-7l-1-13.8c-0.1-2.9,1.1-5.8,3.3-7.8l14.3-11.5c1.9-1.7,3.5-3.7,4.6-6l4.5-9.9
					c1.2-2.6,2.7-5,4.4-7.3l8.7-11.1c1.6-2.2,3.1-4.4,4.4-6.8l4-7.5c1.4-2.3,3.9-3.7,6.6-3.7l-1.6-5.9c-0.8-2.5-1.9-4.9-3.4-7
					l-4.2-6c-1.6-2.5-2.1-5.5-1.5-8.4l1.5-5.4c0.4-2.1-0.1-4.3-1.4-6L530,491.3c-1.9-2.3-2.8-5.2-2.6-8.1l1-9.6
					c0.1-0.7-0.1-1.5-0.6-2c-0.5-0.6-1.2-0.9-2-0.8h-7.3c-2.9-0.1-5.8-1.2-8.1-3l-2-1.8c-1.8-1.3-4-1.9-6.2-1.6l-2.5,0.5
					c-2.1,0.6-3.8,2.1-4.7,4l-1.2,3.2c-0.6,1.9-0.1,4,1.3,5.5l3.4,3.1c2.1,2.1,3.4,4.8,3.9,7.7l0.6,5c0.4,2.5-1.3,4.8-3.8,5.1
					c-0.4,0.1-0.7,0.1-1.1,0l-11.1-0.6c-2.9-0.3-5.6-1.7-7.6-3.9l-8.1-10.2l-8.9-0.3c-2.9-0.2-5.7-1.5-7.8-3.5l-1.5-1.6
					c-1.7-1.6-3.9-2.5-6.2-2.7h-5.8c-2,0.1-3.8,1.3-4.8,3.1l-0.5,1.1c-1.3,2.7-4.1,4.2-7,3.9l-2.4-0.3c-2.4-0.2-4.8,0.3-7,1.4
					l-7.7,4.5c-2,1.3-3.4,3.2-4.2,5.5l-1.2,4.2c-0.7,2.5-3,4.1-5.6,4.2c-0.3,0-0.7,0-1-0.1l-12.8-2.3c0.7,0.7,1.3,1.5,1.8,2.4
					c1.4,2.4,2.4,5,3,7.7c0.7,3.2,2.8,6.9,4.6,8.1c2.9,2.3,5.6,4.8,8,7.7l3.8,4.4c2.9,3.3,6.2,6.2,9.9,8.6c2.8,1.7,5,6.3,4.9,10.3
					l-0.1,2.7c-0.4,4.6-2.1,9-4.9,12.7l-3.3,4c-2.5,3-6.5,5.9-8.9,6.4c-5.4,1.2-8.7,7.4-14.3,7.6c-0.7,0-1.5-0.1-2.2-0.1
					s-1.4,0.2-2,0.7c-1,0.9-0.7,2.1-0.7,3.2c-0.1,2.4,0,4.9,0.2,7.3c0,0.2,0.1,0.5,0.2,0.7c0.3,0.3,0.7,0.4,1,0.2s0.6-0.4,0.9-0.7
					c2.6-2.7,6.4-6.1,10.2-6.9c2.5-0.6,4.9-1.6,7.2-2.8c2.1-1.2,7-2.4,11-2.7l2.4-0.2c4-0.3,6.5,0.2,5.6,1.1
					c-1.9,2.5-3.6,5.1-5.1,7.9l-2,3.5c-1,1.7-2,3.3-3.2,4.8c-0.9,1.1-1.5,2.3-2,3.6c-0.4,1.4,0,2.5,0.1,3.9c0,0.9-0.1,1.8-0.4,2.7
					c-0.2,0.7-0.2,1.7,0.4,2c0.4,0.2,0.8,0.2,1.1,0.2l2.4-0.2c0.7-0.1,1.4-0.1,2,0.2c2.3,1.1,0.4,5-0.5,6.3l-13.9,22
					c-2.8,4.4-4.6,10.2-8.4,13.8c-0.7,0.7-1.6,1.2-2.3,1.9c-2.5,2.5-2.9,7-3.4,10.2c-0.8,3.4-2.8,6.4-5.5,8.4
					c-3.1,2.5-5.6,5.6-7.2,9.2c-0.3,0.7-0.7,1.4-1.2,2l8.4,7.7C386.5,695.5,388.8,696.9,391.2,697.8z"/>
			</g>
		</g>
	</g>
	<path class="st2" d="M270.4,265.3l0.7,0.4c0,0.1-0.1,0.1-0.2,0.1c-0.5,1.3-1.2,2.5-2.1,3.7c0.6,0.5,1.9,1.6,2.3,1.8l-0.6,1
		c-0.6-0.6-1.2-1.2-1.8-1.8v6.6h-1.1V271c-0.6,0.6-1.2,1.2-1.9,1.8c-0.1-0.3-0.3-0.7-0.6-0.9c2-1.4,3.5-3.3,4.5-5.5h-4.3v-1h2.2v-3
		l1.4,0.1c0,0.1-0.1,0.2-0.3,0.2v2.7h1.5L270.4,265.3z M271,262.9h9v0.9h-9V262.9z M271.3,277.2v-7.1h8.2v7h-1v-0.7h-6.1v0.8
		L271.3,277.2z M272.3,265h6.3v3.9h-6.3V265z M274.9,271h-2.5v1.8h2.5V271z M272.3,275.4h2.5v-1.8h-2.5V275.4z M277.6,268v-2.2h-4.4
		v2.2H277.6z M278.5,272.8V271h-2.6v1.8H278.5z M275.9,275.4h2.6v-1.8h-2.6V275.4z"/>
	<path class="st2" d="M296.1,263.2v12.6c0,1.3-0.7,1.4-3.2,1.4c-0.1-0.3-0.2-0.7-0.4-1c0.4,0,0.8,0,1.2,0c0.5,0,0.8,0,1,0
		c0.3,0,0.4-0.1,0.4-0.4v-11.6h-11.2v12.9h-1v-13.9H296.1z M293.1,275.1h-1v-0.9h-5.6v1.1h-1v-5.5l1.2,0.1c0,0.1-0.1,0.2-0.3,0.2
		v3.1h2.3v-4.7h-4.2v-0.9h9.7v0.9H290c0,0.1-0.1,0.1-0.3,0.1v4.5h2.3v-3.3l1.3,0.1c0,0.1-0.1,0.2-0.3,0.2L293.1,275.1z M287.1,267.5
		c-0.3-0.9-0.7-1.8-1.2-2.6l0.9-0.3c0.6,0.8,1,1.6,1.3,2.6L287.1,267.5z M293.1,264.9c-0.1,0.1-0.2,0.2-0.3,0.1
		c-0.4,0.9-0.9,1.7-1.4,2.5c-0.2-0.1-0.6-0.3-0.8-0.3c0.5-0.9,0.9-1.8,1.3-2.7L293.1,264.9z"/>
	<path class="st2" d="M303.9,273.8c-0.1,0.1-0.2,0.2-0.3,0.1c-1.1,1.2-2.4,2.2-3.8,3c-0.3-0.3-0.6-0.5-0.8-0.7
		c1.4-0.7,2.6-1.7,3.7-2.9L303.9,273.8z M300.9,271.6h12.4v1h-6.6v4.6h-1.1v-4.6h-4.7v0.5h-1.1v-9.3l1.4,0.1c0,0.1-0.1,0.2-0.3,0.2
		L300.9,271.6L300.9,271.6z M311.4,263v7.4h-8.8V263H311.4z M310.4,265.2v-1.4h-6.7v1.4H310.4z M310.4,267.3v-1.4h-6.7v1.4H310.4z
		 M310.4,269.5v-1.4h-6.7v1.4H310.4z M312.4,277c-1.2-1.1-2.5-2.2-3.8-3.1l0.9-0.6c1.4,0.9,2.7,1.9,3.9,3L312.4,277z"/>
	<path class="st2" d="M315.4,276.7l14.4-14.4l0.5,0.5l-14.4,14.4L315.4,276.7z"/>
	<path class="st2" d="M336.3,266.2h2.5c0.1-0.4,0.1-0.9,0.2-1.4h-6.5v-1h6.6c0-0.6,0.1-1.1,0.1-1.6l1.5,0.1
		c-0.1,0.1-0.2,0.2-0.4,0.2c0,0.4-0.1,0.8-0.1,1.2h6.4v1H340c-0.1,0.5-0.1,1-0.2,1.4h4.9v7.6h-8.5v-7.5L336.3,266.2L336.3,266.2z
		 M346.8,275.3v1h-12.3v0.9h-1.1v-10.4l1.4,0.1c0,0.1-0.1,0.2-0.3,0.2v8.3h12.3V275.3z M343.8,268.5v-1.4h-6.4v1.4H343.8z
		 M343.8,270.7v-1.4h-6.4v1.4H343.8z M343.8,273v-1.5h-6.4v1.5H343.8z"/>
	<path class="st2" d="M363.5,266.2h-8.2c-0.1,0.9-0.1,1.8-0.3,2.8h5.7h0.2l0.6,0.1c0,0.1,0,0.2-0.1,0.3c-0.3,4.8-0.7,6.6-1.3,7.2
		c-0.4,0.5-0.9,0.5-1.9,0.5c-0.6,0-1.4,0-2.2-0.1c0-0.4-0.2-0.7-0.4-1.1c1.2,0.1,2.3,0.1,2.7,0.1c0.4,0,0.6,0,0.8-0.2
		c0.5-0.4,0.8-2.1,1.1-6h-5.6c-0.5,2.8-1.8,5.6-5.2,7.2c-0.2-0.3-0.5-0.6-0.8-0.9c4.5-2,5-6.3,5.2-10.1h-5v-1h6.6v-2.9l1.4,0.1
		c0,0.1-0.1,0.2-0.3,0.2v2.6h6.7L363.5,266.2z"/>
	<path class="st2" d="M380.3,264.6v1.1h-6.7l0,0h0.2c0,0.1-0.1,0.2-0.3,0.2v2.1h5.2v5.8c0,1.3-0.5,1.4-3.5,1.4
		c-0.1-0.4-0.2-0.7-0.4-1.1c1.1,0,2.1,0,2.4,0s0.4-0.1,0.4-0.3v-4.7h-4.1v8.2h-1.1v-8.2h-3.9v6.1h-1V268h5v-2.3h-6.6v-1h6.6v-2.3
		l1.4,0.1c0,0.1-0.1,0.2-0.3,0.2v2L380.3,264.6z"/>
	<polyline class="st3" points="447.6,337.5 410.3,280.2 263.6,280.2 	"/>
	<path class="st2" d="M450.6,335.3c1.1,1.7,0.6,4.1-1.1,5.2s-4.1,0.6-5.2-1.1s-0.6-4.1,1.1-5.2C447.2,333.1,449.5,333.6,450.6,335.3
		L450.6,335.3z"/>
	<path class="st2" d="M483.9,517.6l0.7,0.4c0,0.1-0.1,0.1-0.2,0.1c-0.5,1.3-1.2,2.5-2.1,3.7c0.7,0.5,1.9,1.6,2.3,1.8l-0.6,1
		c-0.6-0.6-1.2-1.2-1.8-1.8v6.6h-1v-6.1c-0.6,0.6-1.2,1.2-1.9,1.8c-0.1-0.3-0.3-0.7-0.6-0.9c1.9-1.4,3.5-3.3,4.5-5.5h-4.3v-1h2.2v-3
		l1.4,0.1c0,0.1-0.1,0.2-0.3,0.2v2.7h1.5L483.9,517.6z M484.5,515.1h9v0.9h-9V515.1z M484.8,529.4v-7.1h8.2v7h-1v-0.7h-6.1v0.8
		H484.8z M485.8,517.3h6.4v3.9h-6.4V517.3z M488.4,523.3h-2.5v1.8h2.5V523.3z M485.8,527.7h2.5v-1.8h-2.5V527.7z M491.1,520.3v-2.2
		h-4.4v2.1L491.1,520.3z M492,525v-1.8h-2.6v1.8H492z M489.4,527.7h2.6v-1.8h-2.6V527.7z"/>
	<path class="st2" d="M509.6,515.4V528c0,1.3-0.7,1.4-3.2,1.4c-0.1-0.3-0.2-0.7-0.4-1c0.4,0,0.8,0,1.2,0c0.5,0,0.8,0,1,0
		c0.3,0,0.4-0.1,0.4-0.4v-11.6h-11.2v12.9h-1v-14L509.6,515.4L509.6,515.4z M506.6,527.3h-1v-0.9H500v1.1h-0.9V522l1.2,0.1
		c0,0.1-0.1,0.2-0.3,0.2v3.1h2.3v-4.6h-4.2v-0.9h9.7v0.9h-4.2c0,0.1-0.1,0.1-0.3,0.1v4.5h2.4V522l1.3,0.1c0,0.1-0.1,0.2-0.3,0.2v5
		H506.6z M500.6,519.7c-0.3-0.9-0.7-1.8-1.2-2.6l0.9-0.3c0.6,0.8,1,1.6,1.3,2.6L500.6,519.7z M506.6,517.2c-0.1,0.1-0.2,0.2-0.3,0.1
		c-0.4,0.9-0.9,1.7-1.4,2.5c-0.2-0.1-0.6-0.3-0.8-0.3c0.5-0.9,0.9-1.8,1.3-2.7L506.6,517.2z"/>
	<path class="st2" d="M517.4,526c-0.1,0.1-0.2,0.2-0.3,0.1c-1.1,1.2-2.4,2.2-3.8,3c-0.3-0.3-0.6-0.5-0.8-0.7
		c1.4-0.7,2.6-1.7,3.7-2.9L517.4,526z M514.4,523.8h12.5v1h-6.6v4.6h-1.1v-4.6h-4.7v0.5h-1.1V516l1.4,0.1c0,0.1-0.1,0.2-0.3,0.2
		L514.4,523.8z M524.9,515.2v7.4h-8.8v-7.4H524.9z M523.9,517.4V516h-6.7v1.4H523.9z M523.9,519.6v-1.4h-6.7v1.4H523.9z
		 M523.9,521.7v-1.4h-6.7v1.4H523.9z M525.9,529.2c-1.2-1.1-2.5-2.2-3.8-3.1l0.9-0.6c1.4,0.9,2.6,1.9,3.9,3L525.9,529.2z"/>
	<path class="st2" d="M528.9,528.9l14.4-14.4l0.5,0.5l-14.4,14.4L528.9,528.9z"/>
	<path class="st2" d="M549.6,519.5c-0.2-0.8-0.5-1.6-0.9-2.4H548c-0.4,0.9-1,1.7-1.6,2.4c-0.3-0.2-0.5-0.4-0.8-0.6
		c1.1-1.3,1.9-2.8,2.4-4.5l1.3,0.4c-0.1,0.1-0.2,0.2-0.3,0.1c-0.1,0.4-0.3,0.8-0.5,1.2h4.4v0.9h-3.1c0.3,0.6,0.6,1.3,0.8,2
		L549.6,519.5z M549.3,525.7c0.7-0.1,1.5-0.3,2.2-0.4l0.1,0.9c-2,0.4-4,0.9-5.3,1.2c0,0.1-0.1,0.2-0.2,0.2l-0.4-1.2
		c0.7-0.1,1.6-0.3,2.6-0.5v-4.6H546v-1h5.6v1h-2.2L549.3,525.7z M558.3,527.3c0,0.8,0.1,0.8,0.4,0.8h0.5c0.1,0,0.3,0,0.4-0.1
		c0.2-0.2,0.2-1.4,0.2-2.4c0.3,0.2,0.5,0.4,0.8,0.5c0,2.2-0.1,2.9-1.4,2.9h-0.7c-0.3,0-0.6-0.1-0.9-0.3c-0.2-0.2-0.3-0.5-0.3-1.6
		v-6.3h-3.7v2.6c0,2.1-0.6,4.4-4,5.9c-0.2-0.3-0.4-0.6-0.7-0.8c3.2-1.3,3.7-3.3,3.7-5.1v-3.6h5.8L558.3,527.3z M556.8,519.4
		c-0.3-0.8-0.8-1.6-1.4-2.3h-1.2c-0.5,0.8-1.1,1.6-1.8,2.2c-0.2-0.2-0.5-0.4-0.8-0.6c1.3-1.2,2.2-2.6,2.8-4.3l1.3,0.4
		c0,0.1-0.1,0.1-0.3,0.1c-0.2,0.4-0.3,0.8-0.5,1.2h5.6v0.9h-3.8c0.4,0.6,0.8,1.2,1.1,1.9L556.8,519.4z M556.2,526.1
		c-0.7-1.1-1.5-2-2.4-2.9l0.8-0.5c0.9,0.8,1.8,1.8,2.5,2.8L556.2,526.1z"/>
	<path class="st2" d="M564.6,522.1c-0.6,0.7-1.2,1.3-1.8,1.9c-0.1-0.2-0.4-0.7-0.6-0.9c1.6-1.4,3-3.1,4-5l1.2,0.5
		c0,0.1-0.2,0.1-0.4,0.1c-0.4,0.6-0.9,1.3-1.4,2l0.3,0.1c-0.1,0.1-0.2,0.2-0.3,0.2v8.3h-1V522.1L564.6,522.1z M566.9,515
		c-0.1,0.1-0.2,0.2-0.3,0.1c-1,1.4-2.3,2.7-3.6,3.8c-0.2-0.3-0.4-0.6-0.6-0.8c1.3-1,2.4-2.2,3.4-3.6L566.9,515z M574.9,523.1
		l0.7,0.3c0,0.1-0.1,0.1-0.2,0.1c-0.6,1.3-1.6,2.4-2.7,3.3c1.4,0.8,3,1.3,4.6,1.6c-0.3,0.3-0.5,0.6-0.6,0.9c-1.7-0.4-3.3-1-4.8-2
		c-1.5,0.9-3.2,1.6-4.9,2c-0.2-0.3-0.3-0.6-0.5-0.9c1.6-0.3,3.1-0.9,4.5-1.7c-0.8-0.6-1.5-1.3-2-2.1c-0.6,0.5-1.3,1-1.9,1.5
		c-0.2-0.3-0.4-0.5-0.7-0.7c1.6-1,2.9-2.2,4-3.7l-3.3,0.1c0,0.1-0.1,0.2-0.2,0.2l-0.4-1.2h2.5c0.4-0.3,0.7-0.6,1.1-0.9
		c-0.9-1-2-1.9-3.1-2.7l0.7-0.7c0.3,0.2,0.6,0.4,1,0.7c0.8-0.8,1.5-1.7,2.1-2.6l1.2,0.6c-0.1,0.1-0.2,0.1-0.4,0.1
		c-0.7,0.9-1.4,1.7-2.2,2.5c0.5,0.5,1.1,1,1.5,1.5c1.1-1.1,2.2-2.2,3.2-3.3l1.2,0.6c-0.1,0.1-0.2,0.1-0.4,0.1
		c-1.4,1.5-2.9,2.9-4.4,4.2c1.5,0,3.1-0.1,4.7-0.1c-0.4-0.5-0.8-1-1.3-1.5l0.8-0.5c1.1,1,2,2.2,2.8,3.4l-0.9,0.5
		c-0.2-0.4-0.5-0.8-0.8-1.2l-4.1,0.2l0.2,0.1c0,0.1-0.2,0.1-0.4,0.1c-0.3,0.4-0.6,0.9-1,1.3h4.2L574.9,523.1z M569.8,524L569.8,524
		c0.5,1,1.3,1.7,2.1,2.3c0.9-0.6,1.6-1.4,2.2-2.3H569.8z"/>
	<path class="st2" d="M593.8,516.8v1.1h-6.7l0,0h0.2c0,0.1-0.1,0.2-0.3,0.2v2.1h5.2v5.8c0,1.3-0.5,1.4-3.5,1.4
		c-0.1-0.4-0.2-0.7-0.4-1.1c1.1,0,2.1,0,2.4,0s0.4-0.1,0.4-0.3v-4.7H587v8.2h-1.1v-8.2H582v6.1h-1.1v-7.2h5v-2.3h-6.6v-1.1h6.6v-2.3
		l1.4,0.1c0,0.1-0.1,0.2-0.3,0.2v2H593.8z"/>
	<polyline class="st3" points="403.8,465.3 443.5,532.5 594.5,532.5 	"/>
	<path class="st2" d="M400.6,467.4c-1.1-1.8-0.5-4.1,1.3-5.1c1.8-1.1,4.1-0.5,5.1,1.3c1.1,1.8,0.5,4.1-1.3,5.1
		C404,469.8,401.7,469.2,400.6,467.4L400.6,467.4z"/>
</g>
</svg>
