<?xml version="1.0" encoding="utf-8"?>
<!-- Generator: Adobe Illustrator 24.1.0, SVG Export Plug-In . SVG Version: 6.00 Build 0)  -->
<svg version="1.1" id="レイヤー_1" xmlns="http://www.w3.org/2000/svg" xmlns:xlink="http://www.w3.org/1999/xlink" x="0px"
	 y="0px" viewBox="0 0 707.7 813.1" style="enable-background:new 0 0 707.7 813.1;" xml:space="preserve">
<style type="text/css">
	.st0{clip-path:url(#SVGID_2_);}
	.st1{fill:none;stroke:#DBCAB9;stroke-width:0.25;}
	.st2{fill:#DBCAB9;}
	.st3{fill:#3A4348;}
	.st4{font-family:'YuGo-Medium-83pv-RKSJ-H';}
	.st5{font-size:14.4px;}
	.st6{fill:none;stroke:#3A4348;stroke-width:0.5;stroke-miterlimit:10;}
</style>
<g id="レイヤー_1_1_">
	<g id="レイヤー_2_1_">
		<g id="デザイン-2500px">
			<g>
				<g>
					<g>
						<g>
							<defs>
								<rect id="SVGID_1_" x="225.1" y="-26" width="572.7" height="847"/>
							</defs>
							<clipPath id="SVGID_2_">
								<use xlink:href="#SVGID_1_"  style="overflow:visible;"/>
							</clipPath>
							<g class="st0">
								<path class="st1" d="M388.1,376.6c1.4-1.5,3.7-4,5.1-5.5l7.2-8c1.8-1.9,3.8-3.5,6.1-4.9l6.8-3.8c1.5-1,2.4-2.7,2.3-4.6
									L415,345c-0.3-2.3-1-4.6-2.1-6.7l-1.2-2.2c-0.8-1.5-2.4-2.2-3.3-1.9c-1.4,0.6-2.5,1.6-3.1,3c-0.6,1.8-3,3.7-5.4,4.2
									l-0.4,0.1c-2.4,0.5-5.3-0.1-6.7-1.5c-1.4-1.2-3-2-4.7-2.5c-2.3-0.7-4.5-2-6.2-3.8l-0.8-0.9c-1.6-1.5-3.6-2.5-5.8-3l-7.6-1.2
									c-2.2-0.2-4.5,0.1-6.6,0.9L360,330c-2.4,1-5.1,1.5-7.7,1.4l-10.8-0.7c-2.6-0.3-5.1-1.7-6.7-3.8l-3.2-4.4
									c-2.9,7-15.4,8.5-16.7-0.5l-0.4-2.7c-0.5-3.5-2.5-7.4-4.5-8.6s-4.9-1.7-6.6-1.2c-2.9,0.9-3.7,3.3-5.6,5.4
									c-0.4,0.4-0.8,0.9-1.1,1.4c-0.9,1.7,4.4,7.6,1.2,8.6c-0.9,0.2-1.8,0-2.6-0.4l-2.3-0.9c-0.8-0.4-2-0.6-2.5,0.2
									c-0.3,0.5-0.3,1.2,0,1.7c1,3.2,1.9,6.4,2.5,9.7c0.3,1.7,0.7,3.5,1,5.2c0.2,1.1,0.2,3.2,1.4,3.8c1.2,0.6,4.3-1.7,4.3,0.9
									c0,1.2-1.8,3.8-4,5.8c-2.2,2-5.3,1.8-6.9-0.4c-0.1-0.1-0.2-0.2-0.3-0.4l2.1,12.9c0.4,2,1.1,5.3,1.6,7.2l0.6,2.2
									c0.7,2.3,1.7,4.4,3,6.4l1.6,2.3c1.3,1.7,3.1,3,5.2,3.6l4.6,1.2c2.5,0.7,4.9,1.9,7,3.5l3.2,2.5c2,1.5,2.3,4.3,0.8,6.3
									c-0.1,0.1-0.2,0.2-0.3,0.3l-1.2,1.2c-1,1-0.9,2.7,0.1,3.7c0,0,0.1,0,0.1,0.1l0.4,0.4c1.9,1.8,3.6,3.7,5.1,5.8l3.1,4.7
									c1.3,1.7,3.1,3,5.1,3.7l2.8,0.8c2.5,0.8,4.7,2.4,6.4,4.5l0.1,0.1c1.3,1.6,3.1,2.7,5.2,3l13.2,1.6c0.3-0.3,0.6-0.6,0.9-0.8
									c0.4-0.3,0.8-0.6,1.1-1c0.3-0.4,0.4-0.9,0.3-1.4c-0.2-0.3-0.4-0.6-0.7-0.9c-3.7-3.6-5.8-9.1-8.2-13.7l-4.7-8.7
									c-1.7-3.2-0.6-7.2,2.4-9.2l11.3-7c3.1-1.9,6.9-1.7,8.6,0.4c1.4,1.8,4.8,3.2,8,3.5c0.9-1.5,1.9-2.9,3-4.3L388.1,376.6z"/>
								<path class="st1" d="M408.1,415.9l1.1-3.8c0.8-2.5,2.5-4.7,4.7-6.1l7-4.1c2.3-1.2,5-1.8,7.6-1.5l2.2,0.3
									c1.7,0.2,3.4-0.8,4.1-2.3l0.4-1c1.2-2.4,3.5-4,6.2-4.1h5.2c2.7,0.1,5.2,1.2,7.1,3l1.4,1.4c1.5,1.5,3.5,2.3,5.6,2.5l6.3,0.2
									c-1.4-2.1-2-4.6-1.8-7l1.5-11.4c0.2-1.7,0.1-3.4-0.6-4.9c-1-1.5-0.8-4.3-0.1-6.1c0.7-2.2,1.2-4.4,1.4-6.7l0.9-14.8
									c0.3-2.6,1.2-5.1,2.7-7.3l1-1.4c1.3-1.9,2.1-4,2.5-6.3v-0.2c0.5-2.6,2-4.9,4.2-6.5l3.9-2.5c1.8-1.1,4.7-2.9,6.5-3.9l3.8-2.1
									c2.4-1.2,5.1-1.4,7.6-0.5c2.3,0.9,4.6,1.6,7,2.1l4,0.8c1.9,0.3,3.9,0.1,5.7-0.8c1.2-1,1.7-2.7,1.3-4.2l-2.3-8.5
									c-0.6-2.6-0.2-5.3,1-7.7l3-4.9c-3.2-0.8-6.5-1.4-9.8-1.8c-3.1-0.4-7.1-3.2-8.9-6.3l-6-10.2c-2-3.8-3.4-7.9-4-12.1l-0.2-2.2
									c-0.4-3.6-1.5-7.6-2.6-9.1s-1.3-4.7-0.5-7.3c1.2-3.5,2.7-6.9,4.4-10.3c1.6-3,2.1-6.3,1.2-7.2c-1-1-2.4-1.6-3.8-1.7
									c-1.1,0-4,1.9-6.4,4.3c-2,2-4.1,3.8-6.5,5.3c-2,0.7-4,1.1-6.1,1.2c-2.5,0-4.9-0.9-6.8-2.5c-1.8-1.7-2-6-4.6-6.4
									c-0.9-0.1-1.8,0-2.7,0.2c-3.4,0.7-7.2,1-10.4,2.3c-1.8,0.5-3.7,0.7-5.5,0.6c-1.9-0.1-5.2,2.2-7.3,5.1l-0.2,0.3
									c-2.5,3.1-6.3,5-10.3,5.1l-4.5-0.1c-7.4-0.2-15.4,9.6-15.4,16.7v0.6c-0.2,3.6-0.3,7.1-0.1,10.7c0.2,2.3-1.6,5.6-4.1,7.2
									c-3.1,2.4-5.8,5.3-7.9,8.6l-3.9,6.2c-2.3,3.3-5.9,5.5-9.9,6h-0.8c-4.1,0.1-8-1.5-10.9-4.3l-0.2-0.2
									c-2.4-2.7-6.5-2.9-9.2-0.5c-3.1,2.8-6.3,4.4-10,6.4c-1,0.5-2.1,1.2-2.3,2.4c-0.3,1.6,1.4,2.8,2.9,3.5s3.3,1.7,3.2,3.3
									c0,4.8-8.7,6.5-12.1,6.5c-1.3,0-2.7-0.2-3.7,0.6s-1.4,2.1-1.6,3.4l4.2,5.8c1.3,1.6,3.1,2.7,5.1,2.9l10.8,0.7
									c2.3,0.1,4.6-0.3,6.7-1.2l1.2-0.5c2.5-1,5.1-1.3,7.7-1l7.6,1.2c2.6,0.5,5,1.8,6.9,3.6l0.8,0.9c1.5,1.4,3.3,2.5,5.2,3.2
									c2.1,0.6,4,1.6,5.6,3c1.4,1,3.2,1.3,4.8,1l0.4-0.1c1.6-0.3,3.1-1.4,3.9-2.9c0.8-2,2.4-3.5,4.4-4.2c2-0.6,4.6,0.6,5.8,2.9
									l1.2,2.2c1.2,2.3,1.9,4.8,2.3,7.4l0.5,4.8c0.2,2.7-1.1,5.2-3.4,6.6l-6.8,3.8c-2,1.2-3.9,2.7-5.5,4.4l-7.2,8
									c-1.4,1.5-3.7,4-5.1,5.6l-8,8.6c-0.7,0.9-1.4,1.9-2.1,2.9h1.6c3.9,0,7.4,2.2,9.3,5.7l0.5,1.1c1,2.3,1.5,4.7,1.7,7.2
									c0.3,2.5-1,4.6-2.3,6.7c-0.5,0.7-0.9,1.5-1,2.3c0,0.8,0.2,1.6,0.6,2.3c0.2,0.3,0.4,0.7,0.6,1l14,2.5
									C406.1,418.3,407.6,417.4,408.1,415.9z"/>
								<path class="st1" d="M349.2,556l0.4-1.7c0.6-2.2,2.3-4,4.5-4.8l1.3-0.4c2.2-0.8,3.9-2.6,4.6-4.8c0.7-2.8,1-6.2,2.6-8.6
									c0.3-0.4,0.7-0.8,1.1-0.6c1,0.4-0.2,2.1,0.3,2.8c0.4,0.5,1.2,0.5,1.6,0.1c0.5-0.4,0.9-0.9,1.2-1.4c2.3-2.4,5.6-3.5,8.8-3.2
									c1.7,0.2,3.3,0.5,4.9,1.1c2,0.9,4.2,1.2,6.4,1.1c4.4-0.6,5.6-5,7.2-8.5c1.3-2.8,2.6-5.6,3.9-8.4c0.9-1.9,0.1-4.2-1.7-5.3
									c-2.2-1-4.6-1.1-6.9-0.3L362,524.2c-1.5,0.7-3.3,0.1-4-1.4c-0.1-0.3-0.2-0.6-0.3-0.9l-0.9-4.4c-0.3-1.8-0.5-3.7-0.6-5.5
									c-0.1-1.3,0.1-4-0.7-5c-0.4-0.4-0.9-0.7-1.5-0.7c-0.5,0-1.1,0.1-1.6,0.3c-1.6,0.5-3,1.4-4.7,2l-5,1.7l-5.9,2
									c-2.2,0.9-4,2.6-5,4.8l-3.7,9.5l-3,7.7c-0.8,2.5-1.7,5-2.8,7.5c-0.2,0.4-0.4,0.8-0.7,1.2c-0.7,1-1.6,2-1.6,3.2
									s1.1,2.4,1.8,3.6c1,1.7,0.9,3.4,0.9,5.2l-1.4,9.7c-0.5,3.4,0.4,7.4,2.9,9.8c0.6,0.6,1.3,1,2.1,1.2c0.7,0.1,1.3-0.1,1.9-0.3
									c2.4-1,4-3.3,6-4.9c1.3-1,2.6-2,3.9-3l7-5.2C347.2,560.5,348.5,558.4,349.2,556z"/>
								<path class="st1" d="M525.5,714.6l1.1-6.2c0.3-2.2-0.1-4.3-1.1-6.3l-1.2-2.2c-1.2-1.8-2.8-3.2-4.8-4.1l-13.9-4.9
									c-2.5-1-4.6-2.6-6.2-4.7l-10.7-15.5c-1.4-1.9-3.1-3.5-5-4.9l-3.2-2.1c-2.1-1.6-3.7-3.8-4.5-6.3l-2.7-10.9
									c-0.6-2.1-1.8-4-3.4-5.6l-6.2-5.5c-1.9-1.8-3.6-3.8-5-6l-6.6-11c-1.1-1.8-2.8-4.7-3.8-6.5l-5.4-9.8l0,0
									c-1.2-2.1-2.6-4.1-4.2-5.9l-3.4-3.8c-1.6-1.6-3.5-2.7-5.6-3.3l-4.6-1.1c-1.9-0.3-3.8,0.3-5.1,1.6l-3.1,3.4
									c-1.8,1.9-4.1,3.3-6.7,4l-6.3,1.4c-2.6,0.5-5.3,0.3-7.8-0.5l-0.6-0.2c-2.4-1-4.7-2.4-6.6-4.1l-7.6-7c-1.7,1.6-3.8,2.6-6.1,3
									l-14.2,2c-2.7,0.5-5.2-1.2-5.8-3.8c-0.1-0.6-0.1-1.2,0-1.8l0.1-1.5c0.4-3.6-0.2-7.7-1.3-9.1c-1.6-2.2-4.4-1.7-6.7-1.9
									c-1-0.2-2.1,0-3,0.5c-1.1,0.8-1.1,2.4-1,3.7c0.2,4.2,0.6,8.6,2.3,12.5c1.2,2.7,2.8,5.1,4.9,7.2c1.6,1.3,3.5,2.4,5.5,3
									c1.7,0.6,2.9,2,3.2,3.8c0.1,2.1-0.6,4.1-2,5.7c-1.3,1.4-1.8,5.5-1,9l2,8.9c0.8,4,0.7,8.2-0.1,12.2c-1,4-1.7,8.1-2.2,12.2
									l-0.3,3.5c-0.2,4.1,1.3,8,4.2,10.9l8.1,7.4c2.8,2.6,5.2,5.6,7,9c1.4,3.6,2.1,7.4,2.1,11.2V711c0,3.6-1.5,8.4-3.3,10.7
									c-2.6,2.8-5.9,5-9.5,6.3l-0.4,0.1c-3.2,1.1-6.5,1.7-9.5-0.3c-0.8-0.6-1.6-1.1-2.5-1.6c-1-0.3-2-0.3-3-0.2
									c-0.7,0-1.4,0.2-2,0.4s-1.1,0.8-1.4,1.4c-0.1,0.7,0,1.4,0.4,2c0.5,0.9,1,1.9,1.6,2.8c1.4,2.3,3.4,4.6,4.3,5.1
									c3.3,1.6,2.2,7.4,4.8,9.6c0.9,0.8,2,1.3,2.9,2c0.8,0.5,1.2,1.3,1.2,2.2c-0.2,0.6-0.4,1.2-0.9,1.6c-0.8,1.2-1.5,3.2-0.8,4.5
									c1,1.9,3.9,3.7,6.5,4.1s7.6,0.6,11.2,0.6h19.7c3.9,0.2,7.5,2.4,9.5,5.8l1.9,3.7c1.6,3.2,5.5,5.8,8.6,5.8s7.6-2.1,10.1-4.7
									l0.3-0.3c2.5-2.8,2.8-7,0.8-10.1l-4.5-6.6c-2.4-3.6-4.5-7.4-6.3-11.3l-5.2-11.8c-1.5-3.9-2-8.2-1.3-12.4l2.1-10.4
									c1-4.2,2.5-8.2,4.6-12l6.1-10.5c1.9-3.3,3.4-6.9,4.4-10.6c0.6-2.8,2.8-5.9,4.8-7c2.9-1.3,6-2.1,9.1-2.4
									c3-0.2,7.9,1.4,10.8,3.5l3.1,2.3c2.9,2.2,4.7,5.5,4,7.5s-1.9,6.4-2.7,9.9l-0.4,1.8c-0.8,3.5-3.6,6.6-6.2,6.8
									s-5.3-0.6-6.1-1.9s-2-3.5-2.7-4.9s-4.1-1.9-7.6-1.1s-6.8,2.1-7.4,2.9s-0.4,2.8,0.4,4.3c1,1.8,2.3,3.3,4,4.5
									c1.5,0.9,3.4,1.2,5.1,0.9c1.5-0.4,3-0.5,4.5-0.3c1.1,0.2,1.8,3.3,1.7,6.9l-0.2,4.6c0,4.2,1.1,8.4,3.2,12l8.5,13
									c2.1,3.6,2.8,7.7,2,11.8l-2,7.9c-0.4,1.6-0.6,3.3-1.1,4.9c-0.8,2.6-1.8,4.7-1.4,7.5c0.3,2,0.7,3.7,0.2,5.7
									c-0.5,1.8-3.1,5.1-5.9,7.4c-2.4,2-4.4,4.6-7.6,5.5c-0.7,0.1-1.3,0.3-1.9,0.6c-0.6,0.2-1.2,0.7-1.4,1.4
									c-0.2,0.8,0,1.7,0.4,2.4c0.8,2,2.3,4.4,0.9,6.5c-0.5,0.9-0.8,1.9-1,2.8c-0.3,1.1-0.9,2.1-1.5,3c-0.4,0.4-0.5,1-0.4,1.5
									c0.2,0.7,1.1,0.8,1.9,0.8c2.3-0.1,4.5-1,6.2-2.5c1.6-1.3,3.7-2.6,4.7-4.4c0.7-1.4,4.1-3.6,7.4-4.9l13-5.1
									c4-1.7,7.8-3.7,11.3-6.2l2.8-2.1c3.3-2.6,6.2-5.7,8.5-9.3c1.9-3.1,2.8-6.1,5.8-8.3c2.3-1.4,4.4-3.2,6.2-5.1
									c1.1-1.3,1.8-2.8,3-4.1c0.3-0.3,0.5-0.6,0.6-1c0.1-0.6-0.4-1.2-0.9-1.7c-1.4-1.6-1.5-3.4-1.4-5.4s-0.2-4-0.1-6.2
									c0.1-0.3,0-0.6-0.2-0.8c-0.1-0.1-0.3-0.1-0.4-0.1h-2.5c-0.7,0-1.3-0.1-1.9-0.3c-2.1-0.9-2.8-5-2.1-6.9
									c1.6-3.8,3.9-7.2,7-9.9l3.2-2.7c3.2-2.4,7.3-3.1,11.1-1.8l5.1,2l1.6-2.4C524.1,719,525,716.9,525.5,714.6z"/>
								<path class="st1" d="M622,462.3c-2.4,0.2-4.8,0.7-7.2,1.3l-5.5,1.5c-2.3,0.7-4.4,1.7-6.5,3l-1.5,1c-2.2,1.4-4.7,2.3-7.3,2.6
									l-5.6,0.6c-0.2,0-0.4,0-0.6,0c-2.4-0.1-4.7-1.3-6.1-3.2l-1.9-2.9c-1.4-2-2.9-3.9-4.6-5.6l-1.5-1.5c-1.4-1.2-3.3-1.6-5.1-1.1
									l-5.1,1.9c-2.5,0.8-5.2,1.1-7.8,0.8l-13.4-2.1c-1.8-0.2-3.5,0.7-4.4,2.2l-3.6,6.8c-1.2,2.2-2.6,4.4-4.2,6.4l-7.9,10.1
									c-1.4,1.9-2.7,4-3.7,6.2l-4,8.9c-1.2,2.4-2.8,4.5-4.8,6.2l-12.9,10.4c-1.5,1.4-2.3,3.2-2.3,5.2l0.9,12.4
									c0.3,1.9,1.4,3.6,3.1,4.6l4.9,2.5c2.3,1.3,4.1,3.3,5.2,5.7l2.8,7c0.9,2.5,0.2,5.3-1.8,7.1l-3.1,2.6
									c-1.7,1.5-3.1,3.4-4.1,5.5l-0.6,1.4c-0.6,1.5-0.1,3.3,1.3,4.2l2,1.3c2.2,1.5,3.5,4,3.6,6.7v1.1c-0.1,2.7-2,4.9-4.5,5.5
									l-6.9,1.3c-2.1,0.5-3.9,1.7-5.2,3.3l-0.7,1c-1.6,2.1-4.2,3.3-6.9,3.2l-8-0.8c-1.9,0-3.7,0.8-4.8,2.3L471,600
									c-1.5,2.2-4.1,3.4-6.8,3.2l-6.2-0.7c-2.3-0.2-4.6,0.2-6.8,0.9l-4.4,1.8l3.2,5.8c1,1.8,2.7,4.7,3.7,6.5l6.6,11
									c1.3,2,2.8,3.8,4.5,5.5l6.2,5.5c1.9,1.8,3.3,4.1,4.1,6.7l2.7,10.9c0.6,2,1.9,3.8,3.6,5.1l3.2,2.1c2.1,1.5,4,3.4,5.5,5.5
									l10.7,15.5c1.4,1.7,3.1,3.1,5.2,4l13.9,4.8c2.5,1,4.6,2.7,6,5l1.2,2.2c1.2,2.4,1.6,5,1.3,7.7l-1.2,6.2
									c-0.6,2.6-1.7,5-3.3,7.1L523,724l0.4,0.1c2.7,0.9,5.3,2.2,7.6,3.9c2,1.6,3.4,3.8,5.5,5.4l1.1,0.9c2.8,2.2,6.1,3.6,7.2,3.2
									c1.3-0.7,2.1-2.1,2-3.6c0.2-2,1.2-3.9,2.6-5.2c1.6-1.8,2.6-4.1,2.6-6.5c-0.1-1.5,0.2-2.9,0.8-4.2c0.6-1.1,1.4-1.7,0.9-3.1
									c-0.3-1-1-1.8-1-2.8c0-0.7,0.1-1.3,0.4-1.9c0.5-1.9,1.2-3.8,2-5.7c0.7-1.1,1.2-2.2,1.8-3.4c1.2-2.5,2.7-4.8,4.4-7
									c1.9-2.7,3.5-6.8,3.5-9.1c0.2-3.6,1-7.1,2.2-10.5l3.6-10.5c0.7-1.8,2-6.9,0.5-8.7c-0.5-0.5-1.2-0.7-1.9-1
									c-0.6-0.4-1-0.8-1.4-1.4c-1.1-1.4-2-2.7-1.9-4.5c0.1-1.2,0.1-2.5,0-3.7c-0.2-4.3,0.3-8.6,1.6-12.7c1.1-3.2,1.8-6.6,2.1-10
									c0.1-1.5-0.2-3,0.2-4.5c0.5-1.7,1.4-3.2,1.9-4.9s0.6-3.2,1.1-4.7c0.8-2.2,2.2-4.1,2.8-6.4c0.4-2.2,1.1-4.3,1.9-6.4
									c1-2.9,1.8-5.9,2.2-9l0.4-2.8c0.7-4.3,1.7-8.5,3-12.7l0.2-0.6c1.4-4.1,3.2-8.1,5.2-11.8l3.8-6.7c1.8-3.1,3.1-7.4,3-9.6
									c-0.1-2.3,1.1-4.4,3.1-5.6c2.9-1.4,3.5-6,3.6-8.8c0.1-3.1,1.8-6,4.5-7.7c0.9-0.5,1.7-1,2.4-1.7c0.8-0.7,1.1-1.7,0.8-2.7
									c-0.4-0.8-1.1-1.4-1.9-1.8c-1.9-1.2-3.7-6.5-3.1-8.8c0.4-1.5,3-4.6,5.7-6.9l3.3-2.8c2.8-2.3,5.4-5.4,5.8-6.8
									c0.4-1.4,3.3-4.2,6.4-6l1-0.6c3.1-1.9,5.2-4.7,4.8-6.3c-0.3-1.9,0.4-3.8,1.9-5c1.5-1.3,2.7-2.9,3.5-4.7
									c0.3-0.7,0.6-1.3,1-1.9c-2.2-1.4-5.2-2.6-6.3-2.5L622,462.3z"/>
								<path class="st1" d="M659.3,430.3c-2.6-0.5-5.2-1.2-7.8-2.2c-1.5-0.6-4.3-1.8-6-1.2c-1,0.4-2.1,0.5-3.2,0.2
									c-1.4-0.6,1.3-2.9,1.5-3.5c0-0.5-0.3-1-0.8-1.2s-1-0.4-1.4-0.5c-2.1-0.9-1.9-2.4-1.4-4.2c0.5-2,0.8-4,1-6.1
									c0.2-1.8,3.3-3.8,6.8-4.5c0,0,1.2-0.2,1.4-0.2c1-0.1,2-0.3,3-0.5c0.6,0,1.3-0.2,1.8-0.5c0.6-0.3,1-0.9,1-1.5
									c0-0.1,0-0.2-0.1-0.3c-0.1-0.1-0.3-0.2-0.4-0.1c-2.8-0.2-5.5,0.1-8.2,0.7c-1.6,0.3-3.2,0.1-4.6-0.6
									c-1.5-0.8-3.2-1.2-4.9-1.3c-1.5,0-2.2-0.7-1.7-1.6c0.6-1,1.5-2,2.1-3c0.5-0.9,0.5-1.8,1.3-2.6c0.5-0.5,1.1-0.9,1.7-1.4
									c0.2-0.1,0.3-0.4,0.3-0.6c0-0.3-0.4-0.4-0.6-0.4c-1.7-0.3-3.2,1-5,0.2c-0.3-0.2-0.7-0.3-1-0.4c-0.8-0.1-1.5,0-2.2,0.3
									c-2.3,0.7-3.3-1.3-3.8-3.2c-0.3-2.2-0.1-4.5,0.7-6.6c1.2-2.7,2.9-5.2,5-7.3c2-1.9,3-4.2,2.4-5.1c-1.1-1.2-2.4-2-3.9-2.5
									c-2-0.5-4.2-0.3-6.1,0.4c-1.9,0.7-6.2,1-9.6,0.7c-3.4-0.3-8.3-1.1-10.9-1.7c-3.7-0.6-7.4-0.7-11.1-0.4l-2,0.2
									c-3.9,0.3-7.8-0.3-11.4-1.9c-2.7-1.4-5-5.4-5-8.9s0.6-7.4,1.3-8.7c0.7-1.3,3.2-2.2,5.4-1.9c2,0.3,4.1,0.3,6.1,0
									c2-0.8,3.8-1.8,5.5-3c1.9-1.3,3.4-3,3.2-3.7c-0.5-1.1-1.3-2.1-2.3-2.9c-1.1-0.9-0.9-1.9,0.4-2.2c2-0.5,4.1-0.1,6.1-0.2
									c2.4-0.1,3.4-1.1,4.9-2.9c2.3-3.2,3.6-7,4-10.9l0.2-2.4c0.2-3.6,0.6-8.6,0.9-11.3s-1.3-7.1-3.4-10l-3.3-4.4
									c-1.9-2.6-3.2-4.5-3.6-7.7c0-0.5-0.2-1-0.5-1.4c-0.5-0.6-1.5-0.5-2.3-0.5c-2.8,0.2-5.2-1-7.8-1.8c-1.3-0.5-2.8-0.4-4,0.4
									c-0.8,0.6-1.2,1.6-2.2,1.9c-0.9,0-1.7-0.2-2.4-0.8c-2.1-1-4.5-1-6.6,0c-2.9,1.5-4,5.1-5,8c-1.3,3.6-3.4,6.9-6.2,9.5
									c-2.3,1.9-7.1,3.2-10.7,3l-12.5-0.7c-3.9-0.3-7.7-1.3-11.2-3c-2.6-1.4-5.3-2.6-8.1-3.5l-3.3,5.4c-0.9,1.9-1.2,4-0.8,6.1
									l2.3,8.5c0.7,2.4-0.2,5-2.2,6.5c-2.2,1.2-4.7,1.5-7.2,1.1l-4-0.8c-2.5-0.6-4.9-1.3-7.3-2.2c-1.9-0.6-4-0.5-5.8,0.4L490,323
									c-1.8,1-4.6,2.7-6.4,3.8l-3.9,2.5c-1.7,1.2-2.8,3-3.2,5v0.2c-0.4,2.6-1.4,5.1-2.9,7.2l-1,1.4c-1.2,1.9-2,4-2.3,6.2
									l-0.9,14.8c-0.2,2.5-0.7,4.9-1.5,7.3c-0.5,1.4-0.6,2.9-0.1,4.2c0.9,1.4,1.1,4.3,0.9,6.3l-1.5,11.4c-0.1,2.1,0.4,4.2,1.6,5.9
									l0,0l0.9,1.1l7.9,9.9c1.4,1.5,3.3,2.5,5.4,2.8l10,0.6c1.1,0.2,2.1-0.6,2.3-1.7c0-0.2,0-0.4,0-0.7l-0.5-4.5
									c-0.4-2.1-1.4-4.1-2.9-5.6l-3-2.8c-1.9-1.9-2.6-4.7-1.7-7.2l1.1-2.9c1.1-2.4,3.2-4.3,5.8-5l2.2-0.5c2.6-0.4,5.3,0.3,7.4,1.9
									l1.9,1.6c1.7,1.3,3.8,2.1,5.9,2.2h6.5c2.4,0,4.4,1.9,4.4,4.3c0,0.2,0,0.4,0,0.6l-0.9,8.6c-0.1,2.1,0.6,4.1,1.9,5.7l10.7,12
									c1.7,2.1,2.3,4.8,1.7,7.4l-1.4,4.9c-0.4,2-0.1,4.1,1,5.8l3.9,5.4c1.4,2.2,2.6,4.5,3.3,7l1.7,6.2l11.7,1.9
									c2.3,0.3,4.6,0,6.7-0.7l5.1-1.9c2.5-0.8,5.3-0.2,7.3,1.6l1.5,1.5c1.8,1.8,3.4,3.9,4.8,6l1.9,2.9c1.1,1.5,2.9,2.4,4.8,2.3
									l5.6-0.6c2.3-0.3,4.5-1.1,6.4-2.3l1.5-1c2.2-1.4,4.6-2.5,7.1-3.2l5.5-1.5c2.5-0.7,5-1.1,7.6-1.4l10.1-0.9
									c1.6-0.1,5.1,1.2,7.7,2.9c0.2-0.3,0.5-0.5,0.7-0.7c1.2-1,2.8-1.6,4.4-1.8c1.6-0.1,3.2-0.7,4.5-1.6c1.2-0.9,2.5-1.6,3.8-2.2
									c1.3-0.8,2.3-1.9,3-3.3c0.8-1.5,0.5-3-0.6-3.3c-1-0.3-2.1-0.4-3.2-0.3c-0.6,0.1-1.2-0.6-1.3-1.6c0.1-1.5,0.6-3,1.6-4.2
									c1.1-1.5,1.8-3.1,2.1-4.9c0.4-2.9,2.8-4.5,5.2-5.7c0.4-0.2,0.9-0.5,1-1C660.7,430.8,659.9,430.5,659.3,430.3z"/>
								<path class="st1" d="M338.1,424.6l-0.1-0.1c-1.3-1.7-3.2-3-5.2-3.7L330,420c-2.5-0.8-4.7-2.4-6.3-4.6l-3.1-4.7
									c-1.4-2-2.9-3.8-4.7-5.4l-0.4-0.4c-1-0.8-1.5-2-1.6-3.3s0.4-2.5,1.3-3.4l1.2-1.2c0.9-0.9,0.9-2.5,0-3.4
									c-0.1-0.1-0.1-0.1-0.2-0.2l-3.2-2.5c-1.9-1.4-4-2.4-6.2-3.1l-4.6-1.2c-2.5-0.8-4.8-2.3-6.4-4.5l-1.6-2.3
									c-1.4-2.2-2.5-4.6-3.3-7l-0.6-2.2c-0.6-2-1.3-5.4-1.7-7.4l-2.6-15.8c-0.8-0.7-1.7-1.2-2.7-1.4c-1.9-0.1-3.8,0.3-5.5,1.2
									c-1.8,0.9-3.9,0.6-5.4-0.7c-1.4-1.3-3.4-2.3-4.4-2.3c-1.8,0-3.7,0.5-5.5,0.3c-2.1-0.2-4.1-1.7-6.1-1.2
									c-0.3,0.1-0.5,0.2-0.7,0.3c-0.8,0.6-0.7,2-0.4,3c0.5,1.5,0.8,2.8,1.2,4.4l0.2,0.8c0.8,4.1,0.2,8.3-1.8,11.9l-2,3.3
									c-1.8,3.1-1.6,6.5,0.6,7.5s5.8,2.9,7.9,4.1c2.2,1.2,4.1,2.9,4.4,3.8c0.7,1.7,1.8,3.2,3.1,4.4c0.9,0.9,2.6,2.8,1.7,4.1
									c-0.4,0.5-0.8,0.8-1.4,1c-1,0.4-2.1,0.6-3.2,0.7c-0.4,0.3-0.2,0.9,0.2,1.1s0.9,0.3,1.3,0.2c2.7-0.1,5.2,0.2,7.5-1.6
									c1.4-1.1,3.1-1.6,4.9-1.3c1.5,0.5,2.6,1.8,2.8,3.4c0.3,2.7-1.6,4.6-1.5,7.2c0,1.3,0.7,2.6,1.9,3.2c0.2,0.1,0.5,0.2,0.8,0.2
									c0.4-0.1,0.8-0.3,1.1-0.6c3-2.1,6.9-0.6,9.9,0.8c2.2,0.9,4.6,1.2,7,1c2.1-0.3,5.5,1,7.6,3c2.4,2.6,4,5.9,4.5,9.4
									c0.4,3.7,0.4,7.5,0,11.2c-0.3,3.3,0.7,6.7,2.7,9.4c1.8,2.2,2.8,4.6,2.2,5.4s-2.6,0.8-4.4,0c-1.7-0.8-3.5-1.2-5.4-1.2
									c-1.7,0.4-3.4,1.1-4.8,2.2c-1.5,1.1-4.9,1-7.7-0.1c-2.8-1.1-5-5-4.9-8.4c0-3.1,0.4-6.3,1-9.4c0.5-1.6,0.8-3.2,1-4.8
									c0-1.1-0.3-2.2-0.9-3.1c-1-1-2.3-1.6-3.8-1.6c-1.7-0.1-3.5,0.9-5,0.1c-0.9-0.5-1.6-1.2-2-2.1c-1.1-2.2,0.1-4.9-1-7.2
									c-1-2.1-3-3.1-4.5-4.8c-1-1.1-2-2.2-3.2-3.1c-0.5-0.5-1.1-0.8-1.8-1c-0.7-0.2-1.4,0-1.9,0.5c-0.4,0.7-0.6,1.5-0.4,2.4
									c0,3.5-1.3,5-3.3,7.6c-0.2,0.2-0.4,0.5-0.5,0.8s-0.1,0.5-0.1,0.8c0,1.8,0.6,3.5,0.7,5.2c0.1,1.7-1.1,3-2.7,3.8
									c-0.7,0.4-1.6,0.7-1.9,1.4c-0.1,0.3-0.2,0.6-0.1,0.9c0,3.4,2.9,7.8,5.2,10.2c1.6,1.7,3.7,5.9,4.7,9.4l0.3,1
									c0.9,3.5,1.9,7.5,2.1,9s3,2.4,6.2,2.1c3.2-0.3,7.2,2,9,5.3c1.8,3.2,3.9,7.4,4.9,9.5c1.4,3,2.1,5.7,0.6,8.8
									c-0.6,1.2-1.5,2.2-2.1,3.5c-0.6,1.4-1,2.8-1.4,4.2c-0.5,2-1.4,4.9,0.1,6.6c0.8,0.9,2,1.3,3.2,1.2c2.6-0.1,4.3-2.7,5.8-4.5
									l14.3-17.5c2.8-3.2,6.2-5.8,10-7.8l4.3-2c4-1.7,8.2-2.6,12.5-2.8h3.9c3.6,0,8,2.2,9.8,4.8c1.8,2.6,1.5,7.1-0.8,9.9
									c-0.8,1-1.7,2-2.4,3c-1.1,1.5-3.1,2.4-3.9,4c-0.2,0.6-0.4,1.1-0.4,1.8c-0.2,4,1.6,7.9,4.8,10.4c2.6,2.2,6.2,3.5,7.9,2.8
									c4.6-1.9,6-7.2,10.4-8.9c1.4-0.5,3-1.1,4-2.3c0.6-0.7,0.8-1.6,1.3-2.4c0.7-0.9,1.6-1.8,2.3-2.7l4-5.5c2.1-2.9,3.7-7,3.5-9
									c-0.7-3.3-1.8-6.5-3.4-9.5l-3.4-6.5c-1.7-3.2-5.5-5.8-8.6-5.9c-3.9,0.2-7.8,1.2-11.2,3.1l-2.7,1.5c-2.2,1.5-5.1,0.9-6.6-1.2
									c-0.4-0.5-0.6-1.1-0.7-1.8l-0.4-1.6c-0.8-3.8,0.6-7.7,3.6-10.1l3.5-2.5c0.4-0.3,0.8-0.6,1.1-1l-11.7-1.4
									C342.1,428.1,339.8,426.7,338.1,424.6z"/>
								<path class="st1" d="M396.4,595.9l0.6,0.2c2.1,0.7,4.4,0.8,6.6,0.4l6.3-1.5c2.1-0.6,4.1-1.8,5.6-3.3l3-3.5
									c1.9-1.9,4.5-2.8,7.2-2.3l4.6,1.1c2.5,0.7,4.9,2.1,6.7,4l3.4,3.8c1.7,2,3.2,4.1,4.5,6.3l-0.9,0.5l0,0l0.9-0.5l1.2,2.2
									l4.7-1.9c2.5-0.9,5.1-1.2,7.7-1l6.2,0.7c1.9,0.1,3.7-0.8,4.8-2.3l0.7-1.1c1.5-2.2,4.1-3.4,6.8-3.3l8,0.8
									c1.9,0.1,3.8-0.8,5-2.3l0.7-1c1.6-2.1,3.9-3.6,6.5-4.2l6.9-1.3c1.6-0.4,2.8-1.8,2.9-3.4v-1.1c-0.1-2-1.1-3.8-2.7-4.9l-2-1.3
									c-2.2-1.5-3-4.3-2.1-6.8l0.6-1.4c1.1-2.4,2.7-4.5,4.7-6.3l3.1-2.6c1.3-1.2,1.8-3,1.2-4.7l-2.8-7c-0.9-2-2.4-3.6-4.3-4.7
									l-4.9-2.5c-2.3-1.3-3.9-3.7-4.2-6.3l-0.9-12.4c-0.1-2.7,1-5.2,3-7l12.9-10.4c1.7-1.5,3.1-3.4,4.2-5.4l4-8.9
									c1.1-2.3,2.5-4.5,4-6.6l7.9-10.1c1.5-1.9,2.8-4,4-6.1l3.6-6.8c1.2-2.1,3.5-3.4,6-3.3l-1.5-5.3c-0.7-2.3-1.7-4.4-3-6.4
									l-3.9-5.4c-1.4-2.2-1.9-5-1.3-7.6l1.4-4.9c0.4-1.9-0.1-3.9-1.3-5.4l-10.8-11.9c-1.7-2.1-2.5-4.7-2.4-7.3l0.9-8.6
									c0.1-0.7-0.1-1.3-0.6-1.8s-1.1-0.8-1.8-0.8h-6.5c-2.7-0.1-5.2-1.1-7.3-2.7l-1.9-1.6c-1.6-1.2-3.6-1.7-5.6-1.5l-2.3,0.5
									c-1.9,0.5-3.4,1.9-4.3,3.7l-1.1,2.9c-0.5,1.7-0.1,3.6,1.2,4.9l3,2.8c1.9,1.9,3.1,4.3,3.5,6.9l0.5,4.5
									c0.3,2.2-1.2,4.3-3.5,4.7c-0.3,0-0.6,0.1-0.9,0l-10-0.6c-2.6-0.3-5.1-1.6-6.9-3.6l-7.3-9.2l-8-0.3c-2.7-0.2-5.2-1.3-7.1-3.2
									l-1.4-1.4c-1.5-1.4-3.5-2.3-5.6-2.4h-5.2c-1.8,0.1-3.5,1.2-4.3,2.8l-0.4,1c-1.1,2.4-3.7,3.8-6.3,3.5l-2.2-0.3
									c-2.2-0.2-4.4,0.2-6.3,1.2l-7,4.1c-1.8,1.2-3.1,2.9-3.8,4.9l-1.1,3.8c-0.7,2.2-2.7,3.7-5,3.8c-0.3,0-0.6,0-0.9-0.1
									l-11.5-2.1c0.6,0.7,1.2,1.4,1.7,2.2c1.3,2.2,2.2,4.5,2.7,6.9c0.6,2.9,2.5,6.2,4.1,7.3c2.6,2.1,5,4.4,7.2,6.9l3.4,4
									c2.6,3,5.6,5.6,8.9,7.7c2.6,1.5,4.5,5.7,4.4,9.3l-0.1,2.5c-0.4,4.2-1.9,8.2-4.4,11.5l-3,3.6c-2.3,2.8-5.9,5.4-8,5.8
									c-4.9,1-7.9,6.7-12.9,6.8c-0.7,0-1.3-0.1-2,0c-0.7,0-1.3,0.2-1.8,0.6c-0.9,0.8-0.6,1.9-0.7,2.9c-0.1,2.2,0,4.4,0.2,6.6
									c0,0.2,0.1,0.4,0.2,0.6c0.2,0.3,0.6,0.3,0.9,0.2c0.3-0.1,0.6-0.4,0.8-0.6c2.4-2.5,5.8-5.5,9.3-6.2c2.3-0.5,4.4-1.4,6.5-2.5
									c1.9-1.1,6.4-2.2,10-2.4l2.2-0.2c3.6-0.2,5.9,0.2,5.1,1c-1.7,2.2-3.3,4.6-4.6,7.1l-1.8,3.1c-0.9,1.5-1.9,2.9-2.9,4.4
									c-0.8,1-1.4,2.1-1.8,3.2c-0.4,1.3,0,2.2,0.1,3.5c0,0.8-0.1,1.6-0.3,2.4c-0.1,0.7-0.2,1.5,0.4,1.8c0.3,0.1,0.7,0.2,1,0.1
									l2.2-0.2c0.6-0.1,1.2,0,1.8,0.2c2.1,1,0.3,4.5-0.5,5.7l-12.5,19.9c-2.5,4-4.1,9.2-7.6,12.5c-0.6,0.6-1.4,1.1-2,1.7
									c-2.2,2.2-2.6,6.3-3.1,9.3c-0.7,3-2.5,5.7-5,7.6c-2.8,2.2-5.1,5.1-6.5,8.3c-0.3,0.7-0.7,1.3-1.1,1.8l7.6,6.9
									C392.2,593.8,394.2,595,396.4,595.9z"/>
								<path class="st1" d="M388.1,376.6c1.4-1.5,3.7-4,5.1-5.5l7.2-8c1.8-1.9,3.8-3.5,6.1-4.9l6.8-3.8c1.5-1,2.4-2.7,2.3-4.6
									L415,345c-0.3-2.3-1-4.6-2.1-6.7l-1.2-2.2c-0.8-1.5-2.4-2.2-3.3-1.9c-1.4,0.6-2.5,1.6-3.1,3c-0.6,1.8-3,3.7-5.4,4.2
									l-0.4,0.1c-2.4,0.5-5.3-0.1-6.7-1.5c-1.4-1.2-3-2-4.7-2.5c-2.3-0.7-4.5-2-6.2-3.8l-0.8-0.9c-1.6-1.5-3.6-2.5-5.8-3l-7.6-1.2
									c-2.2-0.2-4.5,0.1-6.6,0.9L360,330c-2.4,1-5.1,1.5-7.7,1.4l-10.8-0.7c-2.6-0.3-5.1-1.7-6.7-3.8l-3.2-4.4
									c-2.9,7-15.4,8.5-16.7-0.5l-0.4-2.7c-0.5-3.5-2.5-7.4-4.5-8.6s-4.9-1.7-6.6-1.2c-2.9,0.9-3.7,3.3-5.6,5.4
									c-0.4,0.4-0.8,0.9-1.1,1.4c-0.9,1.7,4.4,7.6,1.2,8.6c-0.9,0.2-1.8,0-2.6-0.4l-2.3-0.9c-0.8-0.4-2-0.6-2.5,0.2
									c-0.3,0.5-0.3,1.2,0,1.7c1,3.2,1.9,6.4,2.5,9.7c0.3,1.7,0.7,3.5,1,5.2c0.2,1.1,0.2,3.2,1.4,3.8c1.2,0.6,4.3-1.7,4.3,0.9
									c0,1.2-1.8,3.8-4,5.8c-2.2,2-5.3,1.8-6.9-0.4c-0.1-0.1-0.2-0.2-0.3-0.4l2.1,12.9c0.4,2,1.1,5.3,1.6,7.2l0.6,2.2
									c0.7,2.3,1.7,4.4,3,6.4l1.6,2.3c1.3,1.7,3.1,3,5.2,3.6l4.6,1.2c2.5,0.7,4.9,1.9,7,3.5l3.2,2.5c2,1.5,2.3,4.3,0.8,6.3
									c-0.1,0.1-0.2,0.2-0.3,0.3l-1.2,1.2c-1,1-0.9,2.7,0.1,3.7c0,0,0.1,0,0.1,0.1l0.4,0.4c1.9,1.8,3.6,3.7,5.1,5.8l3.1,4.7
									c1.3,1.7,3.1,3,5.1,3.7l2.8,0.8c2.5,0.8,4.7,2.4,6.4,4.5l0.1,0.1c1.3,1.6,3.1,2.7,5.2,3l13.2,1.6c0.3-0.3,0.6-0.6,0.9-0.8
									c0.4-0.3,0.8-0.6,1.1-1c0.3-0.4,0.4-0.9,0.3-1.4c-0.2-0.3-0.4-0.6-0.7-0.9c-3.7-3.6-5.8-9.1-8.2-13.7l-4.7-8.7
									c-1.7-3.2-0.6-7.2,2.4-9.2l11.3-7c3.1-1.9,6.9-1.7,8.6,0.4c1.4,1.8,4.8,3.2,8,3.5c0.9-1.5,1.9-2.9,3-4.3L388.1,376.6z"/>
								<path class="st1" d="M408.1,415.9l1.1-3.8c0.8-2.5,2.5-4.7,4.7-6.1l7-4.1c2.3-1.2,5-1.8,7.6-1.5l2.2,0.3
									c1.7,0.2,3.4-0.8,4.1-2.3l0.4-1c1.2-2.4,3.5-4,6.2-4.1h5.2c2.7,0.1,5.2,1.2,7.1,3l1.4,1.4c1.5,1.5,3.5,2.3,5.6,2.5l6.3,0.2
									c-1.4-2.1-2-4.6-1.8-7l1.5-11.4c0.2-1.7,0.1-3.4-0.6-4.9c-1-1.5-0.8-4.3-0.1-6.1c0.7-2.2,1.2-4.4,1.4-6.7l0.9-14.8
									c0.3-2.6,1.2-5.1,2.7-7.3l1-1.4c1.3-1.9,2.1-4,2.5-6.3v-0.2c0.5-2.6,2-4.9,4.2-6.5l3.9-2.5c1.8-1.1,4.7-2.9,6.5-3.9l3.8-2.1
									c2.4-1.2,5.1-1.4,7.6-0.5c2.3,0.9,4.6,1.6,7,2.1l4,0.8c1.9,0.3,3.9,0.1,5.7-0.8c1.2-1,1.7-2.7,1.3-4.2l-2.3-8.5
									c-0.6-2.6-0.2-5.3,1-7.7l3-4.9c-3.2-0.8-6.5-1.4-9.8-1.8c-3.1-0.4-7.1-3.2-8.9-6.3l-6-10.2c-2-3.8-3.4-7.9-4-12.1l-0.2-2.2
									c-0.4-3.6-1.5-7.6-2.6-9.1s-1.3-4.7-0.5-7.3c1.2-3.5,2.7-6.9,4.4-10.3c1.6-3,2.1-6.3,1.2-7.2c-1-1-2.4-1.6-3.8-1.7
									c-1.1,0-4,1.9-6.4,4.3c-2,2-4.1,3.8-6.5,5.3c-2,0.7-4,1.1-6.1,1.2c-2.5,0-4.9-0.9-6.8-2.5c-1.8-1.7-2-6-4.6-6.4
									c-0.9-0.1-1.8,0-2.7,0.2c-3.4,0.7-7.2,1-10.4,2.3c-1.8,0.5-3.7,0.7-5.5,0.6c-1.9-0.1-5.2,2.2-7.3,5.1l-0.2,0.3
									c-2.5,3.1-6.3,5-10.3,5.1l-4.5-0.1c-7.4-0.2-15.4,9.6-15.4,16.7v0.6c-0.2,3.6-0.3,7.1-0.1,10.7c0.2,2.3-1.6,5.6-4.1,7.2
									c-3.1,2.4-5.8,5.3-7.9,8.6l-3.9,6.2c-2.3,3.3-5.9,5.5-9.9,6h-0.8c-4.1,0.1-8-1.5-10.9-4.3l-0.2-0.2
									c-2.4-2.7-6.5-2.9-9.2-0.5c-3.1,2.8-6.3,4.4-10,6.4c-1,0.5-2.1,1.2-2.3,2.4c-0.3,1.6,1.4,2.8,2.9,3.5s3.3,1.7,3.2,3.3
									c0,4.8-8.7,6.5-12.1,6.5c-1.3,0-2.7-0.2-3.7,0.6s-1.4,2.1-1.6,3.4l4.2,5.8c1.3,1.6,3.1,2.7,5.1,2.9l10.8,0.7
									c2.3,0.1,4.6-0.3,6.7-1.2l1.2-0.5c2.5-1,5.1-1.3,7.7-1l7.6,1.2c2.6,0.5,5,1.8,6.9,3.6l0.8,0.9c1.5,1.4,3.3,2.5,5.2,3.2
									c2.1,0.6,4,1.6,5.6,3c1.4,1,3.2,1.3,4.8,1l0.4-0.1c1.6-0.3,3.1-1.4,3.9-2.9c0.8-2,2.4-3.5,4.4-4.2c2-0.6,4.6,0.6,5.8,2.9
									l1.2,2.2c1.2,2.3,1.9,4.8,2.3,7.4l0.5,4.8c0.2,2.7-1.1,5.2-3.4,6.6l-6.8,3.8c-2,1.2-3.9,2.7-5.5,4.4l-7.2,8
									c-1.4,1.5-3.7,4-5.1,5.6l-8,8.6c-0.7,0.9-1.4,1.9-2.1,2.9h1.6c3.9,0,7.4,2.2,9.3,5.7l0.5,1.1c1,2.3,1.5,4.7,1.7,7.2
									c0.3,2.5-1,4.6-2.3,6.7c-0.5,0.7-0.9,1.5-1,2.3c0,0.8,0.2,1.6,0.6,2.3c0.2,0.3,0.4,0.7,0.6,1l14,2.5
									C406.1,418.3,407.6,417.4,408.1,415.9z"/>
								<path class="st1" d="M349.2,556l0.4-1.7c0.6-2.2,2.3-4,4.5-4.8l1.3-0.4c2.2-0.8,3.9-2.6,4.6-4.8c0.7-2.8,1-6.2,2.6-8.6
									c0.3-0.4,0.7-0.8,1.1-0.6c1,0.4-0.2,2.1,0.3,2.8c0.4,0.5,1.2,0.5,1.6,0.1c0.5-0.4,0.9-0.9,1.2-1.4c2.3-2.4,5.6-3.5,8.8-3.2
									c1.7,0.2,3.3,0.5,4.9,1.1c2,0.9,4.2,1.2,6.4,1.1c4.4-0.6,5.6-5,7.2-8.5c1.3-2.8,2.6-5.6,3.9-8.4c0.9-1.9,0.1-4.2-1.7-5.3
									c-2.2-1-4.6-1.1-6.9-0.3L362,524.2c-1.5,0.7-3.3,0.1-4-1.4c-0.1-0.3-0.2-0.6-0.3-0.9l-0.9-4.4c-0.3-1.8-0.5-3.7-0.6-5.5
									c-0.1-1.3,0.1-4-0.7-5c-0.4-0.4-0.9-0.7-1.5-0.7c-0.5,0-1.1,0.1-1.6,0.3c-1.6,0.5-3,1.4-4.7,2l-5,1.7l-5.9,2
									c-2.2,0.9-4,2.6-5,4.8l-3.7,9.5l-3,7.7c-0.8,2.5-1.7,5-2.8,7.5c-0.2,0.4-0.4,0.8-0.7,1.2c-0.7,1-1.6,2-1.6,3.2
									s1.1,2.4,1.8,3.6c1,1.7,0.9,3.4,0.9,5.2l-1.4,9.7c-0.5,3.4,0.4,7.4,2.9,9.8c0.6,0.6,1.3,1,2.1,1.2c0.7,0.1,1.3-0.1,1.9-0.3
									c2.4-1,4-3.3,6-4.9c1.3-1,2.6-2,3.9-3l7-5.2C347.2,560.5,348.5,558.4,349.2,556z"/>
								<path class="st1" d="M525.5,714.6l1.1-6.2c0.3-2.2-0.1-4.3-1.1-6.3l-1.2-2.2c-1.2-1.8-2.8-3.2-4.8-4.1l-13.9-4.9
									c-2.5-1-4.6-2.6-6.2-4.7l-10.7-15.5c-1.4-1.9-3.1-3.5-5-4.9l-3.2-2.1c-2.1-1.6-3.7-3.8-4.5-6.3l-2.7-10.9
									c-0.6-2.1-1.8-4-3.4-5.6l-6.2-5.5c-1.9-1.8-3.6-3.8-5-6l-6.6-11c-1.1-1.8-2.8-4.7-3.8-6.5l-5.4-9.8l0,0
									c-1.2-2.1-2.6-4.1-4.2-5.9l-3.4-3.8c-1.6-1.6-3.5-2.7-5.6-3.3l-4.6-1.1c-1.9-0.3-3.8,0.3-5.1,1.6l-3.1,3.4
									c-1.8,1.9-4.1,3.3-6.7,4l-6.3,1.4c-2.6,0.5-5.3,0.3-7.8-0.5l-0.6-0.2c-2.4-1-4.7-2.4-6.6-4.1l-7.6-7c-1.7,1.6-3.8,2.6-6.1,3
									l-14.2,2c-2.7,0.5-5.2-1.2-5.8-3.8c-0.1-0.6-0.1-1.2,0-1.8l0.1-1.5c0.4-3.6-0.2-7.7-1.3-9.1c-1.6-2.2-4.4-1.7-6.7-1.9
									c-1-0.2-2.1,0-3,0.5c-1.1,0.8-1.1,2.4-1,3.7c0.2,4.2,0.6,8.6,2.3,12.5c1.2,2.7,2.8,5.1,4.9,7.2c1.6,1.3,3.5,2.4,5.5,3
									c1.7,0.6,2.9,2,3.2,3.8c0.1,2.1-0.6,4.1-2,5.7c-1.3,1.4-1.8,5.5-1,9l2,8.9c0.8,4,0.7,8.2-0.1,12.2c-1,4-1.7,8.1-2.2,12.2
									l-0.3,3.5c-0.2,4.1,1.3,8,4.2,10.9l8.1,7.4c2.8,2.6,5.2,5.6,7,9c1.4,3.6,2.1,7.4,2.1,11.2V711c0,3.6-1.5,8.4-3.3,10.7
									c-2.6,2.8-5.9,5-9.5,6.3l-0.4,0.1c-3.2,1.1-6.5,1.7-9.5-0.3c-0.8-0.6-1.6-1.1-2.5-1.6c-1-0.3-2-0.3-3-0.2
									c-0.7,0-1.4,0.2-2,0.4s-1.1,0.8-1.4,1.4c-0.1,0.7,0,1.4,0.4,2c0.5,0.9,1,1.9,1.6,2.8c1.4,2.3,3.4,4.6,4.3,5.1
									c3.3,1.6,2.2,7.4,4.8,9.6c0.9,0.8,2,1.3,2.9,2c0.8,0.5,1.2,1.3,1.2,2.2c-0.2,0.6-0.4,1.2-0.9,1.6c-0.8,1.2-1.5,3.2-0.8,4.5
									c1,1.9,3.9,3.7,6.5,4.1s7.6,0.6,11.2,0.6h19.7c3.9,0.2,7.5,2.4,9.5,5.8l1.9,3.7c1.6,3.2,5.5,5.8,8.6,5.8s7.6-2.1,10.1-4.7
									l0.3-0.3c2.5-2.8,2.8-7,0.8-10.1l-4.5-6.6c-2.4-3.6-4.5-7.4-6.3-11.3l-5.2-11.8c-1.5-3.9-2-8.2-1.3-12.4l2.1-10.4
									c1-4.2,2.5-8.2,4.6-12l6.1-10.5c1.9-3.3,3.4-6.9,4.4-10.6c0.6-2.8,2.8-5.9,4.8-7c2.9-1.3,6-2.1,9.1-2.4
									c3-0.2,7.9,1.4,10.8,3.5l3.1,2.3c2.9,2.2,4.7,5.5,4,7.5s-1.9,6.4-2.7,9.9l-0.4,1.8c-0.8,3.5-3.6,6.6-6.2,6.8
									s-5.3-0.6-6.1-1.9s-2-3.5-2.7-4.9s-4.1-1.9-7.6-1.1s-6.8,2.1-7.4,2.9s-0.4,2.8,0.4,4.3c1,1.8,2.3,3.3,4,4.5
									c1.5,0.9,3.4,1.2,5.1,0.9c1.5-0.4,3-0.5,4.5-0.3c1.1,0.2,1.8,3.3,1.7,6.9l-0.2,4.6c0,4.2,1.1,8.4,3.2,12l8.5,13
									c2.1,3.6,2.8,7.7,2,11.8l-2,7.9c-0.4,1.6-0.6,3.3-1.1,4.9c-0.8,2.6-1.8,4.7-1.4,7.5c0.3,2,0.7,3.7,0.2,5.7
									c-0.5,1.8-3.1,5.1-5.9,7.4c-2.4,2-4.4,4.6-7.6,5.5c-0.7,0.1-1.3,0.3-1.9,0.6c-0.6,0.2-1.2,0.7-1.4,1.4
									c-0.2,0.8,0,1.7,0.4,2.4c0.8,2,2.3,4.4,0.9,6.5c-0.5,0.9-0.8,1.9-1,2.8c-0.3,1.1-0.9,2.1-1.5,3c-0.4,0.4-0.5,1-0.4,1.5
									c0.2,0.7,1.1,0.8,1.9,0.8c2.3-0.1,4.5-1,6.2-2.5c1.6-1.3,3.7-2.6,4.7-4.4c0.7-1.4,4.1-3.6,7.4-4.9l13-5.1
									c4-1.7,7.8-3.7,11.3-6.2l2.8-2.1c3.3-2.6,6.2-5.7,8.5-9.3c1.9-3.1,2.8-6.1,5.8-8.3c2.3-1.4,4.4-3.2,6.2-5.1
									c1.1-1.3,1.8-2.8,3-4.1c0.3-0.3,0.5-0.6,0.6-1c0.1-0.6-0.4-1.2-0.9-1.7c-1.4-1.6-1.5-3.4-1.4-5.4s-0.2-4-0.1-6.2
									c0.1-0.3,0-0.6-0.2-0.8c-0.1-0.1-0.3-0.1-0.4-0.1h-2.5c-0.7,0-1.3-0.1-1.9-0.3c-2.1-0.9-2.8-5-2.1-6.9
									c1.6-3.8,3.9-7.2,7-9.9l3.2-2.7c3.2-2.4,7.3-3.1,11.1-1.8l5.1,2l1.6-2.4C524.1,719,525,716.9,525.5,714.6z"/>
								<path class="st1" d="M622,462.3c-2.4,0.2-4.8,0.7-7.2,1.3l-5.5,1.5c-2.3,0.7-4.4,1.7-6.5,3l-1.5,1c-2.2,1.4-4.7,2.3-7.3,2.6
									l-5.6,0.6c-0.2,0-0.4,0-0.6,0c-2.4-0.1-4.7-1.3-6.1-3.2l-1.9-2.9c-1.4-2-2.9-3.9-4.6-5.6l-1.5-1.5c-1.4-1.2-3.3-1.6-5.1-1.1
									l-5.1,1.9c-2.5,0.8-5.2,1.1-7.8,0.8l-13.4-2.1c-1.8-0.2-3.5,0.7-4.4,2.2l-3.6,6.8c-1.2,2.2-2.6,4.4-4.2,6.4l-7.9,10.1
									c-1.4,1.9-2.7,4-3.7,6.2l-4,8.9c-1.2,2.4-2.8,4.5-4.8,6.2l-12.9,10.4c-1.5,1.4-2.3,3.2-2.3,5.2l0.9,12.4
									c0.3,1.9,1.4,3.6,3.1,4.6l4.9,2.5c2.3,1.3,4.1,3.3,5.2,5.7l2.8,7c0.9,2.5,0.2,5.3-1.8,7.1l-3.1,2.6
									c-1.7,1.5-3.1,3.4-4.1,5.5l-0.6,1.4c-0.6,1.5-0.1,3.3,1.3,4.2l2,1.3c2.2,1.5,3.5,4,3.6,6.7v1.1c-0.1,2.7-2,4.9-4.5,5.5
									l-6.9,1.3c-2.1,0.5-3.9,1.7-5.2,3.3l-0.7,1c-1.6,2.1-4.2,3.3-6.9,3.2l-8-0.8c-1.9,0-3.7,0.8-4.8,2.3L471,600
									c-1.5,2.2-4.1,3.4-6.8,3.2l-6.2-0.7c-2.3-0.2-4.6,0.2-6.8,0.9l-4.4,1.8l3.2,5.8c1,1.8,2.7,4.7,3.7,6.5l6.6,11
									c1.3,2,2.8,3.8,4.5,5.5l6.2,5.5c1.9,1.8,3.3,4.1,4.1,6.7l2.7,10.9c0.6,2,1.9,3.8,3.6,5.1l3.2,2.1c2.1,1.5,4,3.4,5.5,5.5
									l10.7,15.5c1.4,1.7,3.1,3.1,5.2,4l13.9,4.8c2.5,1,4.6,2.7,6,5l1.2,2.2c1.2,2.4,1.6,5,1.3,7.7l-1.2,6.2
									c-0.6,2.6-1.7,5-3.3,7.1L523,724l0.4,0.1c2.7,0.9,5.3,2.2,7.6,3.9c2,1.6,3.4,3.8,5.5,5.4l1.1,0.9c2.8,2.2,6.1,3.6,7.2,3.2
									c1.3-0.7,2.1-2.1,2-3.6c0.2-2,1.2-3.9,2.6-5.2c1.6-1.8,2.6-4.1,2.6-6.5c-0.1-1.5,0.2-2.9,0.8-4.2c0.6-1.1,1.4-1.7,0.9-3.1
									c-0.3-1-1-1.8-1-2.8c0-0.7,0.1-1.3,0.4-1.9c0.5-1.9,1.2-3.8,2-5.7c0.7-1.1,1.2-2.2,1.8-3.4c1.2-2.5,2.7-4.8,4.4-7
									c1.9-2.7,3.5-6.8,3.5-9.1c0.2-3.6,1-7.1,2.2-10.5l3.6-10.5c0.7-1.8,2-6.9,0.5-8.7c-0.5-0.5-1.2-0.7-1.9-1
									c-0.6-0.4-1-0.8-1.4-1.4c-1.1-1.4-2-2.7-1.9-4.5c0.1-1.2,0.1-2.5,0-3.7c-0.2-4.3,0.3-8.6,1.6-12.7c1.1-3.2,1.8-6.6,2.1-10
									c0.1-1.5-0.2-3,0.2-4.5c0.5-1.7,1.4-3.2,1.9-4.9s0.6-3.2,1.1-4.7c0.8-2.2,2.2-4.1,2.8-6.4c0.4-2.2,1.1-4.3,1.9-6.4
									c1-2.9,1.8-5.9,2.2-9l0.4-2.8c0.7-4.3,1.7-8.5,3-12.7l0.2-0.6c1.4-4.1,3.2-8.1,5.2-11.8l3.8-6.7c1.8-3.1,3.1-7.4,3-9.6
									c-0.1-2.3,1.1-4.4,3.1-5.6c2.9-1.4,3.5-6,3.6-8.8c0.1-3.1,1.8-6,4.5-7.7c0.9-0.5,1.7-1,2.4-1.7c0.8-0.7,1.1-1.7,0.8-2.7
									c-0.4-0.8-1.1-1.4-1.9-1.8c-1.9-1.2-3.7-6.5-3.1-8.8c0.4-1.5,3-4.6,5.7-6.9l3.3-2.8c2.8-2.3,5.4-5.4,5.8-6.8
									c0.4-1.4,3.3-4.2,6.4-6l1-0.6c3.1-1.9,5.2-4.7,4.8-6.3c-0.3-1.9,0.4-3.8,1.9-5c1.5-1.3,2.7-2.9,3.5-4.7
									c0.3-0.7,0.6-1.3,1-1.9c-2.2-1.4-5.2-2.6-6.3-2.5L622,462.3z"/>
								<path class="st1" d="M659.3,430.3c-2.6-0.5-5.2-1.2-7.8-2.2c-1.5-0.6-4.3-1.8-6-1.2c-1,0.4-2.1,0.5-3.2,0.2
									c-1.4-0.6,1.3-2.9,1.5-3.5c0-0.5-0.3-1-0.8-1.2s-1-0.4-1.4-0.5c-2.1-0.9-1.9-2.4-1.4-4.2c0.5-2,0.8-4,1-6.1
									c0.2-1.8,3.3-3.8,6.8-4.5c0,0,1.2-0.2,1.4-0.2c1-0.1,2-0.3,3-0.5c0.6,0,1.3-0.2,1.8-0.5c0.6-0.3,1-0.9,1-1.5
									c0-0.1,0-0.2-0.1-0.3c-0.1-0.1-0.3-0.2-0.4-0.1c-2.8-0.2-5.5,0.1-8.2,0.7c-1.6,0.3-3.2,0.1-4.6-0.6
									c-1.5-0.8-3.2-1.2-4.9-1.3c-1.5,0-2.2-0.7-1.7-1.6c0.6-1,1.5-2,2.1-3c0.5-0.9,0.5-1.8,1.3-2.6c0.5-0.5,1.1-0.9,1.7-1.4
									c0.2-0.1,0.3-0.4,0.3-0.6c0-0.3-0.4-0.4-0.6-0.4c-1.7-0.3-3.2,1-5,0.2c-0.3-0.2-0.7-0.3-1-0.4c-0.8-0.1-1.5,0-2.2,0.3
									c-2.3,0.7-3.3-1.3-3.8-3.2c-0.3-2.2-0.1-4.5,0.7-6.6c1.2-2.7,2.9-5.2,5-7.3c2-1.9,3-4.2,2.4-5.1c-1.1-1.2-2.4-2-3.9-2.5
									c-2-0.5-4.2-0.3-6.1,0.4c-1.9,0.7-6.2,1-9.6,0.7c-3.4-0.3-8.3-1.1-10.9-1.7c-3.7-0.6-7.4-0.7-11.1-0.4l-2,0.2
									c-3.9,0.3-7.8-0.3-11.4-1.9c-2.7-1.4-5-5.4-5-8.9s0.6-7.4,1.3-8.7c0.7-1.3,3.2-2.2,5.4-1.9c2,0.3,4.1,0.3,6.1,0
									c2-0.8,3.8-1.8,5.5-3c1.9-1.3,3.4-3,3.2-3.7c-0.5-1.1-1.3-2.1-2.3-2.9c-1.1-0.9-0.9-1.9,0.4-2.2c2-0.5,4.1-0.1,6.1-0.2
									c2.4-0.1,3.4-1.1,4.9-2.9c2.3-3.2,3.6-7,4-10.9l0.2-2.4c0.2-3.6,0.6-8.6,0.9-11.3s-1.3-7.1-3.4-10l-3.3-4.4
									c-1.9-2.6-3.2-4.5-3.6-7.7c0-0.5-0.2-1-0.5-1.4c-0.5-0.6-1.5-0.5-2.3-0.5c-2.8,0.2-5.2-1-7.8-1.8c-1.3-0.5-2.8-0.4-4,0.4
									c-0.8,0.6-1.2,1.6-2.2,1.9c-0.9,0-1.7-0.2-2.4-0.8c-2.1-1-4.5-1-6.6,0c-2.9,1.5-4,5.1-5,8c-1.3,3.6-3.4,6.9-6.2,9.5
									c-2.3,1.9-7.1,3.2-10.7,3l-12.5-0.7c-3.9-0.3-7.7-1.3-11.2-3c-2.6-1.4-5.3-2.6-8.1-3.5l-3.3,5.4c-0.9,1.9-1.2,4-0.8,6.1
									l2.3,8.5c0.7,2.4-0.2,5-2.2,6.5c-2.2,1.2-4.7,1.5-7.2,1.1l-4-0.8c-2.5-0.6-4.9-1.3-7.3-2.2c-1.9-0.6-4-0.5-5.8,0.4L490,323
									c-1.8,1-4.6,2.7-6.4,3.8l-3.9,2.5c-1.7,1.2-2.8,3-3.2,5v0.2c-0.4,2.6-1.4,5.1-2.9,7.2l-1,1.4c-1.2,1.9-2,4-2.3,6.2
									l-0.9,14.8c-0.2,2.5-0.7,4.9-1.5,7.3c-0.5,1.4-0.6,2.9-0.1,4.2c0.9,1.4,1.1,4.3,0.9,6.3l-1.5,11.4c-0.1,2.1,0.4,4.2,1.6,5.9
									l0,0l0.9,1.1l7.9,9.9c1.4,1.5,3.3,2.5,5.4,2.8l10,0.6c1.1,0.2,2.1-0.6,2.3-1.7c0-0.2,0-0.4,0-0.7l-0.5-4.5
									c-0.4-2.1-1.4-4.1-2.9-5.6l-3-2.8c-1.9-1.9-2.6-4.7-1.7-7.2l1.1-2.9c1.1-2.4,3.2-4.3,5.8-5l2.2-0.5c2.6-0.4,5.3,0.3,7.4,1.9
									l1.9,1.6c1.7,1.3,3.8,2.1,5.9,2.2h6.5c2.4,0,4.4,1.9,4.4,4.3c0,0.2,0,0.4,0,0.6l-0.9,8.6c-0.1,2.1,0.6,4.1,1.9,5.7l10.7,12
									c1.7,2.1,2.3,4.8,1.7,7.4l-1.4,4.9c-0.4,2-0.1,4.1,1,5.8l3.9,5.4c1.4,2.2,2.6,4.5,3.3,7l1.7,6.2l11.7,1.9
									c2.3,0.3,4.6,0,6.7-0.7l5.1-1.9c2.5-0.8,5.3-0.2,7.3,1.6l1.5,1.5c1.8,1.8,3.4,3.9,4.8,6l1.9,2.9c1.1,1.5,2.9,2.4,4.8,2.3
									l5.6-0.6c2.3-0.3,4.5-1.1,6.4-2.3l1.5-1c2.2-1.4,4.6-2.5,7.1-3.2l5.5-1.5c2.5-0.7,5-1.1,7.6-1.4l10.1-0.9
									c1.6-0.1,5.1,1.2,7.7,2.9c0.2-0.3,0.5-0.5,0.7-0.7c1.2-1,2.8-1.6,4.4-1.8c1.6-0.1,3.2-0.7,4.5-1.6c1.2-0.9,2.5-1.6,3.8-2.2
									c1.3-0.8,2.3-1.9,3-3.3c0.8-1.5,0.5-3-0.6-3.3c-1-0.3-2.1-0.4-3.2-0.3c-0.6,0.1-1.2-0.6-1.3-1.6c0.1-1.5,0.6-3,1.6-4.2
									c1.1-1.5,1.8-3.1,2.1-4.9c0.4-2.9,2.8-4.5,5.2-5.7c0.4-0.2,0.9-0.5,1-1C660.7,430.8,659.9,430.5,659.3,430.3z"/>
								<path class="st1" d="M338.1,424.6l-0.1-0.1c-1.3-1.7-3.2-3-5.2-3.7L330,420c-2.5-0.8-4.7-2.4-6.3-4.6l-3.1-4.7
									c-1.4-2-2.9-3.8-4.7-5.4l-0.4-0.4c-1-0.8-1.5-2-1.6-3.3s0.4-2.5,1.3-3.4l1.2-1.2c0.9-0.9,0.9-2.5,0-3.4
									c-0.1-0.1-0.1-0.1-0.2-0.2l-3.2-2.5c-1.9-1.4-4-2.4-6.2-3.1l-4.6-1.2c-2.5-0.8-4.8-2.3-6.4-4.5l-1.6-2.3
									c-1.4-2.2-2.5-4.6-3.3-7l-0.6-2.2c-0.6-2-1.3-5.4-1.7-7.4l-2.6-15.8c-0.8-0.7-1.7-1.2-2.7-1.4c-1.9-0.1-3.8,0.3-5.5,1.2
									c-1.8,0.9-3.9,0.6-5.4-0.7c-1.4-1.3-3.4-2.3-4.4-2.3c-1.8,0-3.7,0.5-5.5,0.3c-2.1-0.2-4.1-1.7-6.1-1.2
									c-0.3,0.1-0.5,0.2-0.7,0.3c-0.8,0.6-0.7,2-0.4,3c0.5,1.5,0.8,2.8,1.2,4.4l0.2,0.8c0.8,4.1,0.2,8.3-1.8,11.9l-2,3.3
									c-1.8,3.1-1.6,6.5,0.6,7.5s5.8,2.9,7.9,4.1c2.2,1.2,4.1,2.9,4.4,3.8c0.7,1.7,1.8,3.2,3.1,4.4c0.9,0.9,2.6,2.8,1.7,4.1
									c-0.4,0.5-0.8,0.8-1.4,1c-1,0.4-2.1,0.6-3.2,0.7c-0.4,0.3-0.2,0.9,0.2,1.1s0.9,0.3,1.3,0.2c2.7-0.1,5.2,0.2,7.5-1.6
									c1.4-1.1,3.1-1.6,4.9-1.3c1.5,0.5,2.6,1.8,2.8,3.4c0.3,2.7-1.6,4.6-1.5,7.2c0,1.3,0.7,2.6,1.9,3.2c0.2,0.1,0.5,0.2,0.8,0.2
									c0.4-0.1,0.8-0.3,1.1-0.6c3-2.1,6.9-0.6,9.9,0.8c2.2,0.9,4.6,1.2,7,1c2.1-0.3,5.5,1,7.6,3c2.4,2.6,4,5.9,4.5,9.4
									c0.4,3.7,0.4,7.5,0,11.2c-0.3,3.3,0.7,6.7,2.7,9.4c1.8,2.2,2.8,4.6,2.2,5.4s-2.6,0.8-4.4,0c-1.7-0.8-3.5-1.2-5.4-1.2
									c-1.7,0.4-3.4,1.1-4.8,2.2c-1.5,1.1-4.9,1-7.7-0.1c-2.8-1.1-5-5-4.9-8.4c0-3.1,0.4-6.3,1-9.4c0.5-1.6,0.8-3.2,1-4.8
									c0-1.1-0.3-2.2-0.9-3.1c-1-1-2.3-1.6-3.8-1.6c-1.7-0.1-3.5,0.9-5,0.1c-0.9-0.5-1.6-1.2-2-2.1c-1.1-2.2,0.1-4.9-1-7.2
									c-1-2.1-3-3.1-4.5-4.8c-1-1.1-2-2.2-3.2-3.1c-0.5-0.5-1.1-0.8-1.8-1c-0.7-0.2-1.4,0-1.9,0.5c-0.4,0.7-0.6,1.5-0.4,2.4
									c0,3.5-1.3,5-3.3,7.6c-0.2,0.2-0.4,0.5-0.5,0.8s-0.1,0.5-0.1,0.8c0,1.8,0.6,3.5,0.7,5.2c0.1,1.7-1.1,3-2.7,3.8
									c-0.7,0.4-1.6,0.7-1.9,1.4c-0.1,0.3-0.2,0.6-0.1,0.9c0,3.4,2.9,7.8,5.2,10.2c1.6,1.7,3.7,5.9,4.7,9.4l0.3,1
									c0.9,3.5,1.9,7.5,2.1,9s3,2.4,6.2,2.1c3.2-0.3,7.2,2,9,5.3c1.8,3.2,3.9,7.4,4.9,9.5c1.4,3,2.1,5.7,0.6,8.8
									c-0.6,1.2-1.5,2.2-2.1,3.5c-0.6,1.4-1,2.8-1.4,4.2c-0.5,2-1.4,4.9,0.1,6.6c0.8,0.9,2,1.3,3.2,1.2c2.6-0.1,4.3-2.7,5.8-4.5
									l14.3-17.5c2.8-3.2,6.2-5.8,10-7.8l4.3-2c4-1.7,8.2-2.6,12.5-2.8h3.9c3.6,0,8,2.2,9.8,4.8c1.8,2.6,1.5,7.1-0.8,9.9
									c-0.8,1-1.7,2-2.4,3c-1.1,1.5-3.1,2.4-3.9,4c-0.2,0.6-0.4,1.1-0.4,1.8c-0.2,4,1.6,7.9,4.8,10.4c2.6,2.2,6.2,3.5,7.9,2.8
									c4.6-1.9,6-7.2,10.4-8.9c1.4-0.5,3-1.1,4-2.3c0.6-0.7,0.8-1.6,1.3-2.4c0.7-0.9,1.6-1.8,2.3-2.7l4-5.5c2.1-2.9,3.7-7,3.5-9
									c-0.7-3.3-1.8-6.5-3.4-9.5l-3.4-6.5c-1.7-3.2-5.5-5.8-8.6-5.9c-3.9,0.2-7.8,1.2-11.2,3.1l-2.7,1.5c-2.2,1.5-5.1,0.9-6.6-1.2
									c-0.4-0.5-0.6-1.1-0.7-1.8l-0.4-1.6c-0.8-3.8,0.6-7.7,3.6-10.1l3.5-2.5c0.4-0.3,0.8-0.6,1.1-1l-11.7-1.4
									C342.1,428.1,339.8,426.7,338.1,424.6z"/>
								<path class="st1" d="M396.4,595.9l0.6,0.2c2.1,0.7,4.4,0.8,6.6,0.4l6.3-1.5c2.1-0.6,4.1-1.8,5.6-3.3l3-3.5
									c1.9-1.9,4.5-2.8,7.2-2.3l4.6,1.1c2.5,0.7,4.9,2.1,6.7,4l3.4,3.8c1.7,2,3.2,4.1,4.5,6.3l-0.9,0.5l0,0l0.9-0.5l1.2,2.2
									l4.7-1.9c2.5-0.9,5.1-1.2,7.7-1l6.2,0.7c1.9,0.1,3.7-0.8,4.8-2.3l0.7-1.1c1.5-2.2,4.1-3.4,6.8-3.3l8,0.8
									c1.9,0.1,3.8-0.8,5-2.3l0.7-1c1.6-2.1,3.9-3.6,6.5-4.2l6.9-1.3c1.6-0.4,2.8-1.8,2.9-3.4v-1.1c-0.1-2-1.1-3.8-2.7-4.9l-2-1.3
									c-2.2-1.5-3-4.3-2.1-6.8l0.6-1.4c1.1-2.4,2.7-4.5,4.7-6.3l3.1-2.6c1.3-1.2,1.8-3,1.2-4.7l-2.8-7c-0.9-2-2.4-3.6-4.3-4.7
									l-4.9-2.5c-2.3-1.3-3.9-3.7-4.2-6.3l-0.9-12.4c-0.1-2.7,1-5.2,3-7l12.9-10.4c1.7-1.5,3.1-3.4,4.2-5.4l4-8.9
									c1.1-2.3,2.5-4.5,4-6.6l7.9-10.1c1.5-1.9,2.8-4,4-6.1l3.6-6.8c1.2-2.1,3.5-3.4,6-3.3l-1.5-5.3c-0.7-2.3-1.7-4.4-3-6.4
									l-3.9-5.4c-1.4-2.2-1.9-5-1.3-7.6l1.4-4.9c0.4-1.9-0.1-3.9-1.3-5.4l-10.8-11.9c-1.7-2.1-2.5-4.7-2.4-7.3l0.9-8.6
									c0.1-0.7-0.1-1.3-0.6-1.8s-1.1-0.8-1.8-0.8h-6.5c-2.7-0.1-5.2-1.1-7.3-2.7l-1.9-1.6c-1.6-1.2-3.6-1.7-5.6-1.5l-2.3,0.5
									c-1.9,0.5-3.4,1.9-4.3,3.7l-1.1,2.9c-0.5,1.7-0.1,3.6,1.2,4.9l3,2.8c1.9,1.9,3.1,4.3,3.5,6.9l0.5,4.5
									c0.3,2.2-1.2,4.3-3.5,4.7c-0.3,0-0.6,0.1-0.9,0l-10-0.6c-2.6-0.3-5.1-1.6-6.9-3.6l-7.3-9.2l-8-0.3c-2.7-0.2-5.2-1.3-7.1-3.2
									l-1.4-1.4c-1.5-1.4-3.5-2.3-5.6-2.4h-5.2c-1.8,0.1-3.5,1.2-4.3,2.8l-0.4,1c-1.1,2.4-3.7,3.8-6.3,3.5l-2.2-0.3
									c-2.2-0.2-4.4,0.2-6.3,1.2l-7,4.1c-1.8,1.2-3.1,2.9-3.8,4.9l-1.1,3.8c-0.7,2.2-2.7,3.7-5,3.8c-0.3,0-0.6,0-0.9-0.1
									l-11.5-2.1c0.6,0.7,1.2,1.4,1.7,2.2c1.3,2.2,2.2,4.5,2.7,6.9c0.6,2.9,2.5,6.2,4.1,7.3c2.6,2.1,5,4.4,7.2,6.9l3.4,4
									c2.6,3,5.6,5.6,8.9,7.7c2.6,1.5,4.5,5.7,4.4,9.3l-0.1,2.5c-0.4,4.2-1.9,8.2-4.4,11.5l-3,3.6c-2.3,2.8-5.9,5.4-8,5.8
									c-4.9,1-7.9,6.7-12.9,6.8c-0.7,0-1.3-0.1-2,0c-0.7,0-1.3,0.2-1.8,0.6c-0.9,0.8-0.6,1.9-0.7,2.9c-0.1,2.2,0,4.4,0.2,6.6
									c0,0.2,0.1,0.4,0.2,0.6c0.2,0.3,0.6,0.3,0.9,0.2c0.3-0.1,0.6-0.4,0.8-0.6c2.4-2.5,5.8-5.5,9.3-6.2c2.3-0.5,4.4-1.4,6.5-2.5
									c1.9-1.1,6.4-2.2,10-2.4l2.2-0.2c3.6-0.2,5.9,0.2,5.1,1c-1.7,2.2-3.3,4.6-4.6,7.1l-1.8,3.1c-0.9,1.5-1.9,2.9-2.9,4.4
									c-0.8,1-1.4,2.1-1.8,3.2c-0.4,1.3,0,2.2,0.1,3.5c0,0.8-0.1,1.6-0.3,2.4c-0.1,0.7-0.2,1.5,0.4,1.8c0.3,0.1,0.7,0.2,1,0.1
									l2.2-0.2c0.6-0.1,1.2,0,1.8,0.2c2.1,1,0.3,4.5-0.5,5.7l-12.5,19.9c-2.5,4-4.1,9.2-7.6,12.5c-0.6,0.6-1.4,1.1-2,1.7
									c-2.2,2.2-2.6,6.3-3.1,9.3c-0.7,3-2.5,5.7-5,7.6c-2.8,2.2-5.1,5.1-6.5,8.3c-0.3,0.7-0.7,1.3-1.1,1.8l7.6,6.9
									C392.2,593.8,394.2,595,396.4,595.9z"/>
								<path class="st1" d="M388.1,376.6c1.4-1.5,3.7-4,5.1-5.5l7.2-8c1.8-1.9,3.8-3.5,6.1-4.9l6.8-3.8c1.5-1,2.4-2.7,2.3-4.6
									L415,345c-0.3-2.3-1-4.6-2.1-6.7l-1.2-2.2c-0.8-1.5-2.4-2.2-3.3-1.9c-1.4,0.6-2.5,1.6-3.1,3c-0.6,1.8-3,3.7-5.4,4.2
									l-0.4,0.1c-2.4,0.5-5.3-0.1-6.7-1.5c-1.4-1.2-3-2-4.7-2.5c-2.3-0.7-4.5-2-6.2-3.8l-0.8-0.9c-1.6-1.5-3.6-2.5-5.8-3l-7.6-1.2
									c-2.2-0.2-4.5,0.1-6.6,0.9L360,330c-2.4,1-5.1,1.5-7.7,1.4l-10.8-0.7c-2.6-0.3-5.1-1.7-6.7-3.8l-3.2-4.4
									c-2.9,7-15.4,8.5-16.7-0.5l-0.4-2.7c-0.5-3.5-2.5-7.4-4.5-8.6s-4.9-1.7-6.6-1.2c-2.9,0.9-3.7,3.3-5.6,5.4
									c-0.4,0.4-0.8,0.9-1.1,1.4c-0.9,1.7,4.4,7.6,1.2,8.6c-0.9,0.2-1.8,0-2.6-0.4l-2.3-0.9c-0.8-0.4-2-0.6-2.5,0.2
									c-0.3,0.5-0.3,1.2,0,1.7c1,3.2,1.9,6.4,2.5,9.7c0.3,1.7,0.7,3.5,1,5.2c0.2,1.1,0.2,3.2,1.4,3.8c1.2,0.6,4.3-1.7,4.3,0.9
									c0,1.2-1.8,3.8-4,5.8c-2.2,2-5.3,1.8-6.9-0.4c-0.1-0.1-0.2-0.2-0.3-0.4l2.1,12.9c0.4,2,1.1,5.3,1.6,7.2l0.6,2.2
									c0.7,2.3,1.7,4.4,3,6.4l1.6,2.3c1.3,1.7,3.1,3,5.2,3.6l4.6,1.2c2.5,0.7,4.9,1.9,7,3.5l3.2,2.5c2,1.5,2.3,4.3,0.8,6.3
									c-0.1,0.1-0.2,0.2-0.3,0.3l-1.2,1.2c-1,1-0.9,2.7,0.1,3.7c0,0,0.1,0,0.1,0.1l0.4,0.4c1.9,1.8,3.6,3.7,5.1,5.8l3.1,4.7
									c1.3,1.7,3.1,3,5.1,3.7l2.8,0.8c2.5,0.8,4.7,2.4,6.4,4.5l0.1,0.1c1.3,1.6,3.1,2.7,5.2,3l13.2,1.6c0.3-0.3,0.6-0.6,0.9-0.8
									c0.4-0.3,0.8-0.6,1.1-1c0.3-0.4,0.4-0.9,0.3-1.4c-0.2-0.3-0.4-0.6-0.7-0.9c-3.7-3.6-5.8-9.1-8.2-13.7l-4.7-8.7
									c-1.7-3.2-0.6-7.2,2.4-9.2l11.3-7c3.1-1.9,6.9-1.7,8.6,0.4c1.4,1.8,4.8,3.2,8,3.5c0.9-1.5,1.9-2.9,3-4.3L388.1,376.6z"/>
								<path class="st1" d="M408.1,415.9l1.1-3.8c0.8-2.5,2.5-4.7,4.7-6.1l7-4.1c2.3-1.2,5-1.8,7.6-1.5l2.2,0.3
									c1.7,0.2,3.4-0.8,4.1-2.3l0.4-1c1.2-2.4,3.5-4,6.2-4.1h5.2c2.7,0.1,5.2,1.2,7.1,3l1.4,1.4c1.5,1.5,3.5,2.3,5.6,2.5l6.3,0.2
									c-1.4-2.1-2-4.6-1.8-7l1.5-11.4c0.2-1.7,0.1-3.4-0.6-4.9c-1-1.5-0.8-4.3-0.1-6.1c0.7-2.2,1.2-4.4,1.4-6.7l0.9-14.8
									c0.3-2.6,1.2-5.1,2.7-7.3l1-1.4c1.3-1.9,2.1-4,2.5-6.3v-0.2c0.5-2.6,2-4.9,4.2-6.5l3.9-2.5c1.8-1.1,4.7-2.9,6.5-3.9l3.8-2.1
									c2.4-1.2,5.1-1.4,7.6-0.5c2.3,0.9,4.6,1.6,7,2.1l4,0.8c1.9,0.3,3.9,0.1,5.7-0.8c1.2-1,1.7-2.7,1.3-4.2l-2.3-8.5
									c-0.6-2.6-0.2-5.3,1-7.7l3-4.9c-3.2-0.8-6.5-1.4-9.8-1.8c-3.1-0.4-7.1-3.2-8.9-6.3l-6-10.2c-2-3.8-3.4-7.9-4-12.1l-0.2-2.2
									c-0.4-3.6-1.5-7.6-2.6-9.1s-1.3-4.7-0.5-7.3c1.2-3.5,2.7-6.9,4.4-10.3c1.6-3,2.1-6.3,1.2-7.2c-1-1-2.4-1.6-3.8-1.7
									c-1.1,0-4,1.9-6.4,4.3c-2,2-4.1,3.8-6.5,5.3c-2,0.7-4,1.1-6.1,1.2c-2.5,0-4.9-0.9-6.8-2.5c-1.8-1.7-2-6-4.6-6.4
									c-0.9-0.1-1.8,0-2.7,0.2c-3.4,0.7-7.2,1-10.4,2.3c-1.8,0.5-3.7,0.7-5.5,0.6c-1.9-0.1-5.2,2.2-7.3,5.1l-0.2,0.3
									c-2.5,3.1-6.3,5-10.3,5.1l-4.5-0.1c-7.4-0.2-15.4,9.6-15.4,16.7v0.6c-0.2,3.6-0.3,7.1-0.1,10.7c0.2,2.3-1.6,5.6-4.1,7.2
									c-3.1,2.4-5.8,5.3-7.9,8.6l-3.9,6.2c-2.3,3.3-5.9,5.5-9.9,6h-0.8c-4.1,0.1-8-1.5-10.9-4.3l-0.2-0.2
									c-2.4-2.7-6.5-2.9-9.2-0.5c-3.1,2.8-6.3,4.4-10,6.4c-1,0.5-2.1,1.2-2.3,2.4c-0.3,1.6,1.4,2.8,2.9,3.5s3.3,1.7,3.2,3.3
									c0,4.8-8.7,6.5-12.1,6.5c-1.3,0-2.7-0.2-3.7,0.6s-1.4,2.1-1.6,3.4l4.2,5.8c1.3,1.6,3.1,2.7,5.1,2.9l10.8,0.7
									c2.3,0.1,4.6-0.3,6.7-1.2l1.2-0.5c2.5-1,5.1-1.3,7.7-1l7.6,1.2c2.6,0.5,5,1.8,6.9,3.6l0.8,0.9c1.5,1.4,3.3,2.5,5.2,3.2
									c2.1,0.6,4,1.6,5.6,3c1.4,1,3.2,1.3,4.8,1l0.4-0.1c1.6-0.3,3.1-1.4,3.9-2.9c0.8-2,2.4-3.5,4.4-4.2c2-0.6,4.6,0.6,5.8,2.9
									l1.2,2.2c1.2,2.3,1.9,4.8,2.3,7.4l0.5,4.8c0.2,2.7-1.1,5.2-3.4,6.6l-6.8,3.8c-2,1.2-3.9,2.7-5.5,4.4l-7.2,8
									c-1.4,1.5-3.7,4-5.1,5.6l-8,8.6c-0.7,0.9-1.4,1.9-2.1,2.9h1.6c3.9,0,7.4,2.2,9.3,5.7l0.5,1.1c1,2.3,1.5,4.7,1.7,7.2
									c0.3,2.5-1,4.6-2.3,6.7c-0.5,0.7-0.9,1.5-1,2.3c0,0.8,0.2,1.6,0.6,2.3c0.2,0.3,0.4,0.7,0.6,1l14,2.5
									C406.1,418.3,407.6,417.4,408.1,415.9z"/>
								<path class="st1" d="M349.2,556l0.4-1.7c0.6-2.2,2.3-4,4.5-4.8l1.3-0.4c2.2-0.8,3.9-2.6,4.6-4.8c0.7-2.8,1-6.2,2.6-8.6
									c0.3-0.4,0.7-0.8,1.1-0.6c1,0.4-0.2,2.1,0.3,2.8c0.4,0.5,1.2,0.5,1.6,0.1c0.5-0.4,0.9-0.9,1.2-1.4c2.3-2.4,5.6-3.5,8.8-3.2
									c1.7,0.2,3.3,0.5,4.9,1.1c2,0.9,4.2,1.2,6.4,1.1c4.4-0.6,5.6-5,7.2-8.5c1.3-2.8,2.6-5.6,3.9-8.4c0.9-1.9,0.1-4.2-1.7-5.3
									c-2.2-1-4.6-1.1-6.9-0.3L362,524.2c-1.5,0.7-3.3,0.1-4-1.4c-0.1-0.3-0.2-0.6-0.3-0.9l-0.9-4.4c-0.3-1.8-0.5-3.7-0.6-5.5
									c-0.1-1.3,0.1-4-0.7-5c-0.4-0.4-0.9-0.7-1.5-0.7c-0.5,0-1.1,0.1-1.6,0.3c-1.6,0.5-3,1.4-4.7,2l-5,1.7l-5.9,2
									c-2.2,0.9-4,2.6-5,4.8l-3.7,9.5l-3,7.7c-0.8,2.5-1.7,5-2.8,7.5c-0.2,0.4-0.4,0.8-0.7,1.2c-0.7,1-1.6,2-1.6,3.2
									s1.1,2.4,1.8,3.6c1,1.7,0.9,3.4,0.9,5.2l-1.4,9.7c-0.5,3.4,0.4,7.4,2.9,9.8c0.6,0.6,1.3,1,2.1,1.2c0.7,0.1,1.3-0.1,1.9-0.3
									c2.4-1,4-3.3,6-4.9c1.3-1,2.6-2,3.9-3l7-5.2C347.2,560.5,348.5,558.4,349.2,556z"/>
								<path class="st1" d="M525.5,714.6l1.1-6.2c0.3-2.2-0.1-4.3-1.1-6.3l-1.2-2.2c-1.2-1.8-2.8-3.2-4.8-4.1l-13.9-4.9
									c-2.5-1-4.6-2.6-6.2-4.7l-10.7-15.5c-1.4-1.9-3.1-3.5-5-4.9l-3.2-2.1c-2.1-1.6-3.7-3.8-4.5-6.3l-2.7-10.9
									c-0.6-2.1-1.8-4-3.4-5.6l-6.2-5.5c-1.9-1.8-3.6-3.8-5-6l-6.6-11c-1.1-1.8-2.8-4.7-3.8-6.5l-5.4-9.8l0,0
									c-1.2-2.1-2.6-4.1-4.2-5.9l-3.4-3.8c-1.6-1.6-3.5-2.7-5.6-3.3l-4.6-1.1c-1.9-0.3-3.8,0.3-5.1,1.6l-3.1,3.4
									c-1.8,1.9-4.1,3.3-6.7,4l-6.3,1.4c-2.6,0.5-5.3,0.3-7.8-0.5l-0.6-0.2c-2.4-1-4.7-2.4-6.6-4.1l-7.6-7c-1.7,1.6-3.8,2.6-6.1,3
									l-14.2,2c-2.7,0.5-5.2-1.2-5.8-3.8c-0.1-0.6-0.1-1.2,0-1.8l0.1-1.5c0.4-3.6-0.2-7.7-1.3-9.1c-1.6-2.2-4.4-1.7-6.7-1.9
									c-1-0.2-2.1,0-3,0.5c-1.1,0.8-1.1,2.4-1,3.7c0.2,4.2,0.6,8.6,2.3,12.5c1.2,2.7,2.8,5.1,4.9,7.2c1.6,1.3,3.5,2.4,5.5,3
									c1.7,0.6,2.9,2,3.2,3.8c0.1,2.1-0.6,4.1-2,5.7c-1.3,1.4-1.8,5.5-1,9l2,8.9c0.8,4,0.7,8.2-0.1,12.2c-1,4-1.7,8.1-2.2,12.2
									l-0.3,3.5c-0.2,4.1,1.3,8,4.2,10.9l8.1,7.4c2.8,2.6,5.2,5.6,7,9c1.4,3.6,2.1,7.4,2.1,11.2V711c0,3.6-1.5,8.4-3.3,10.7
									c-2.6,2.8-5.9,5-9.5,6.3l-0.4,0.1c-3.2,1.1-6.5,1.7-9.5-0.3c-0.8-0.6-1.6-1.1-2.5-1.6c-1-0.3-2-0.3-3-0.2
									c-0.7,0-1.4,0.2-2,0.4s-1.1,0.8-1.4,1.4c-0.1,0.7,0,1.4,0.4,2c0.5,0.9,1,1.9,1.6,2.8c1.4,2.3,3.4,4.6,4.3,5.1
									c3.3,1.6,2.2,7.4,4.8,9.6c0.9,0.8,2,1.3,2.9,2c0.8,0.5,1.2,1.3,1.2,2.2c-0.2,0.6-0.4,1.2-0.9,1.6c-0.8,1.2-1.5,3.2-0.8,4.5
									c1,1.9,3.9,3.7,6.5,4.1s7.6,0.6,11.2,0.6h19.7c3.9,0.2,7.5,2.4,9.5,5.8l1.9,3.7c1.6,3.2,5.5,5.8,8.6,5.8s7.6-2.1,10.1-4.7
									l0.3-0.3c2.5-2.8,2.8-7,0.8-10.1l-4.5-6.6c-2.4-3.6-4.5-7.4-6.3-11.3l-5.2-11.8c-1.5-3.9-2-8.2-1.3-12.4l2.1-10.4
									c1-4.2,2.5-8.2,4.6-12l6.1-10.5c1.9-3.3,3.4-6.9,4.4-10.6c0.6-2.8,2.8-5.9,4.8-7c2.9-1.3,6-2.1,9.1-2.4
									c3-0.2,7.9,1.4,10.8,3.5l3.1,2.3c2.9,2.2,4.7,5.5,4,7.5s-1.9,6.4-2.7,9.9l-0.4,1.8c-0.8,3.5-3.6,6.6-6.2,6.8
									s-5.3-0.6-6.1-1.9s-2-3.5-2.7-4.9s-4.1-1.9-7.6-1.1s-6.8,2.1-7.4,2.9s-0.4,2.8,0.4,4.3c1,1.8,2.3,3.3,4,4.5
									c1.5,0.9,3.4,1.2,5.1,0.9c1.5-0.4,3-0.5,4.5-0.3c1.1,0.2,1.8,3.3,1.7,6.9l-0.2,4.6c0,4.2,1.1,8.4,3.2,12l8.5,13
									c2.1,3.6,2.8,7.7,2,11.8l-2,7.9c-0.4,1.6-0.6,3.3-1.1,4.9c-0.8,2.6-1.8,4.7-1.4,7.5c0.3,2,0.7,3.7,0.2,5.7
									c-0.5,1.8-3.1,5.1-5.9,7.4c-2.4,2-4.4,4.6-7.6,5.5c-0.7,0.1-1.3,0.3-1.9,0.6c-0.6,0.2-1.2,0.7-1.4,1.4
									c-0.2,0.8,0,1.7,0.4,2.4c0.8,2,2.3,4.4,0.9,6.5c-0.5,0.9-0.8,1.9-1,2.8c-0.3,1.1-0.9,2.1-1.5,3c-0.4,0.4-0.5,1-0.4,1.5
									c0.2,0.7,1.1,0.8,1.9,0.8c2.3-0.1,4.5-1,6.2-2.5c1.6-1.3,3.7-2.6,4.7-4.4c0.7-1.4,4.1-3.6,7.4-4.9l13-5.1
									c4-1.7,7.8-3.7,11.3-6.2l2.8-2.1c3.3-2.6,6.2-5.7,8.5-9.3c1.9-3.1,2.8-6.1,5.8-8.3c2.3-1.4,4.4-3.2,6.2-5.1
									c1.1-1.3,1.8-2.8,3-4.1c0.3-0.3,0.5-0.6,0.6-1c0.1-0.6-0.4-1.2-0.9-1.7c-1.4-1.6-1.5-3.4-1.4-5.4s-0.2-4-0.1-6.2
									c0.1-0.3,0-0.6-0.2-0.8c-0.1-0.1-0.3-0.1-0.4-0.1h-2.5c-0.7,0-1.3-0.1-1.9-0.3c-2.1-0.9-2.8-5-2.1-6.9
									c1.6-3.8,3.9-7.2,7-9.9l3.2-2.7c3.2-2.4,7.3-3.1,11.1-1.8l5.1,2l1.6-2.4C524.1,719,525,716.9,525.5,714.6z"/>
								<path class="st1" d="M622,462.3c-2.4,0.2-4.8,0.7-7.2,1.3l-5.5,1.5c-2.3,0.7-4.4,1.7-6.5,3l-1.5,1c-2.2,1.4-4.7,2.3-7.3,2.6
									l-5.6,0.6c-0.2,0-0.4,0-0.6,0c-2.4-0.1-4.7-1.3-6.1-3.2l-1.9-2.9c-1.4-2-2.9-3.9-4.6-5.6l-1.5-1.5c-1.4-1.2-3.3-1.6-5.1-1.1
									l-5.1,1.9c-2.5,0.8-5.2,1.1-7.8,0.8l-13.4-2.1c-1.8-0.2-3.5,0.7-4.4,2.2l-3.6,6.8c-1.2,2.2-2.6,4.4-4.2,6.4l-7.9,10.1
									c-1.4,1.9-2.7,4-3.7,6.2l-4,8.9c-1.2,2.4-2.8,4.5-4.8,6.2l-12.9,10.4c-1.5,1.4-2.3,3.2-2.3,5.2l0.9,12.4
									c0.3,1.9,1.4,3.6,3.1,4.6l4.9,2.5c2.3,1.3,4.1,3.3,5.2,5.7l2.8,7c0.9,2.5,0.2,5.3-1.8,7.1l-3.1,2.6
									c-1.7,1.5-3.1,3.4-4.1,5.5l-0.6,1.4c-0.6,1.5-0.1,3.3,1.3,4.2l2,1.3c2.2,1.5,3.5,4,3.6,6.7v1.1c-0.1,2.7-2,4.9-4.5,5.5
									l-6.9,1.3c-2.1,0.5-3.9,1.7-5.2,3.3l-0.7,1c-1.6,2.1-4.2,3.3-6.9,3.2l-8-0.8c-1.9,0-3.7,0.8-4.8,2.3L471,600
									c-1.5,2.2-4.1,3.4-6.8,3.2l-6.2-0.7c-2.3-0.2-4.6,0.2-6.8,0.9l-4.4,1.8l3.2,5.8c1,1.8,2.7,4.7,3.7,6.5l6.6,11
									c1.3,2,2.8,3.8,4.5,5.5l6.2,5.5c1.9,1.8,3.3,4.1,4.1,6.7l2.7,10.9c0.6,2,1.9,3.8,3.6,5.1l3.2,2.1c2.1,1.5,4,3.4,5.5,5.5
									l10.7,15.5c1.4,1.7,3.1,3.1,5.2,4l13.9,4.8c2.5,1,4.6,2.7,6,5l1.2,2.2c1.2,2.4,1.6,5,1.3,7.7l-1.2,6.2
									c-0.6,2.6-1.7,5-3.3,7.1L523,724l0.4,0.1c2.7,0.9,5.3,2.2,7.6,3.9c2,1.6,3.4,3.8,5.5,5.4l1.1,0.9c2.8,2.2,6.1,3.6,7.2,3.2
									c1.3-0.7,2.1-2.1,2-3.6c0.2-2,1.2-3.9,2.6-5.2c1.6-1.8,2.6-4.1,2.6-6.5c-0.1-1.5,0.2-2.9,0.8-4.2c0.6-1.1,1.4-1.7,0.9-3.1
									c-0.3-1-1-1.8-1-2.8c0-0.7,0.1-1.3,0.4-1.9c0.5-1.9,1.2-3.8,2-5.7c0.7-1.1,1.2-2.2,1.8-3.4c1.2-2.5,2.7-4.8,4.4-7
									c1.9-2.7,3.5-6.8,3.5-9.1c0.2-3.6,1-7.1,2.2-10.5l3.6-10.5c0.7-1.8,2-6.9,0.5-8.7c-0.5-0.5-1.2-0.7-1.9-1
									c-0.6-0.4-1-0.8-1.4-1.4c-1.1-1.4-2-2.7-1.9-4.5c0.1-1.2,0.1-2.5,0-3.7c-0.2-4.3,0.3-8.6,1.6-12.7c1.1-3.2,1.8-6.6,2.1-10
									c0.1-1.5-0.2-3,0.2-4.5c0.5-1.7,1.4-3.2,1.9-4.9s0.6-3.2,1.1-4.7c0.8-2.2,2.2-4.1,2.8-6.4c0.4-2.2,1.1-4.3,1.9-6.4
									c1-2.9,1.8-5.9,2.2-9l0.4-2.8c0.7-4.3,1.7-8.5,3-12.7l0.2-0.6c1.4-4.1,3.2-8.1,5.2-11.8l3.8-6.7c1.8-3.1,3.1-7.4,3-9.6
									c-0.1-2.3,1.1-4.4,3.1-5.6c2.9-1.4,3.5-6,3.6-8.8c0.1-3.1,1.8-6,4.5-7.7c0.9-0.5,1.7-1,2.4-1.7c0.8-0.7,1.1-1.7,0.8-2.7
									c-0.4-0.8-1.1-1.4-1.9-1.8c-1.9-1.2-3.7-6.5-3.1-8.8c0.4-1.5,3-4.6,5.7-6.9l3.3-2.8c2.8-2.3,5.4-5.4,5.8-6.8
									c0.4-1.4,3.3-4.2,6.4-6l1-0.6c3.1-1.9,5.2-4.7,4.8-6.3c-0.3-1.9,0.4-3.8,1.9-5c1.5-1.3,2.7-2.9,3.5-4.7
									c0.3-0.7,0.6-1.3,1-1.9c-2.2-1.4-5.2-2.6-6.3-2.5L622,462.3z"/>
								<path class="st1" d="M659.3,430.3c-2.6-0.5-5.2-1.2-7.8-2.2c-1.5-0.6-4.3-1.8-6-1.2c-1,0.4-2.1,0.5-3.2,0.2
									c-1.4-0.6,1.3-2.9,1.5-3.5c0-0.5-0.3-1-0.8-1.2s-1-0.4-1.4-0.5c-2.1-0.9-1.9-2.4-1.4-4.2c0.5-2,0.8-4,1-6.1
									c0.2-1.8,3.3-3.8,6.8-4.5c0,0,1.2-0.2,1.4-0.2c1-0.1,2-0.3,3-0.5c0.6,0,1.3-0.2,1.8-0.5c0.6-0.3,1-0.9,1-1.5
									c0-0.1,0-0.2-0.1-0.3c-0.1-0.1-0.3-0.2-0.4-0.1c-2.8-0.2-5.5,0.1-8.2,0.7c-1.6,0.3-3.2,0.1-4.6-0.6
									c-1.5-0.8-3.2-1.2-4.9-1.3c-1.5,0-2.2-0.7-1.7-1.6c0.6-1,1.5-2,2.1-3c0.5-0.9,0.5-1.8,1.3-2.6c0.5-0.5,1.1-0.9,1.7-1.4
									c0.2-0.1,0.3-0.4,0.3-0.6c0-0.3-0.4-0.4-0.6-0.4c-1.7-0.3-3.2,1-5,0.2c-0.3-0.2-0.7-0.3-1-0.4c-0.8-0.1-1.5,0-2.2,0.3
									c-2.3,0.7-3.3-1.3-3.8-3.2c-0.3-2.2-0.1-4.5,0.7-6.6c1.2-2.7,2.9-5.2,5-7.3c2-1.9,3-4.2,2.4-5.1c-1.1-1.2-2.4-2-3.9-2.5
									c-2-0.5-4.2-0.3-6.1,0.4c-1.9,0.7-6.2,1-9.6,0.7c-3.4-0.3-8.3-1.1-10.9-1.7c-3.7-0.6-7.4-0.7-11.1-0.4l-2,0.2
									c-3.9,0.3-7.8-0.3-11.4-1.9c-2.7-1.4-5-5.4-5-8.9s0.6-7.4,1.3-8.7c0.7-1.3,3.2-2.2,5.4-1.9c2,0.3,4.1,0.3,6.1,0
									c2-0.8,3.8-1.8,5.5-3c1.9-1.3,3.4-3,3.2-3.7c-0.5-1.1-1.3-2.1-2.3-2.9c-1.1-0.9-0.9-1.9,0.4-2.2c2-0.5,4.1-0.1,6.1-0.2
									c2.4-0.1,3.4-1.1,4.9-2.9c2.3-3.2,3.6-7,4-10.9l0.2-2.4c0.2-3.6,0.6-8.6,0.9-11.3s-1.3-7.1-3.4-10l-3.3-4.4
									c-1.9-2.6-3.2-4.5-3.6-7.7c0-0.5-0.2-1-0.5-1.4c-0.5-0.6-1.5-0.5-2.3-0.5c-2.8,0.2-5.2-1-7.8-1.8c-1.3-0.5-2.8-0.4-4,0.4
									c-0.8,0.6-1.2,1.6-2.2,1.9c-0.9,0-1.7-0.2-2.4-0.8c-2.1-1-4.5-1-6.6,0c-2.9,1.5-4,5.1-5,8c-1.3,3.6-3.4,6.9-6.2,9.5
									c-2.3,1.9-7.1,3.2-10.7,3l-12.5-0.7c-3.9-0.3-7.7-1.3-11.2-3c-2.6-1.4-5.3-2.6-8.1-3.5l-3.3,5.4c-0.9,1.9-1.2,4-0.8,6.1
									l2.3,8.5c0.7,2.4-0.2,5-2.2,6.5c-2.2,1.2-4.7,1.5-7.2,1.1l-4-0.8c-2.5-0.6-4.9-1.3-7.3-2.2c-1.9-0.6-4-0.5-5.8,0.4L490,323
									c-1.8,1-4.6,2.7-6.4,3.8l-3.9,2.5c-1.7,1.2-2.8,3-3.2,5v0.2c-0.4,2.6-1.4,5.1-2.9,7.2l-1,1.4c-1.2,1.9-2,4-2.3,6.2
									l-0.9,14.8c-0.2,2.5-0.7,4.9-1.5,7.3c-0.5,1.4-0.6,2.9-0.1,4.2c0.9,1.4,1.1,4.3,0.9,6.3l-1.5,11.4c-0.1,2.1,0.4,4.2,1.6,5.9
									l0,0l0.9,1.1l7.9,9.9c1.4,1.5,3.3,2.5,5.4,2.8l10,0.6c1.1,0.2,2.1-0.6,2.3-1.7c0-0.2,0-0.4,0-0.7l-0.5-4.5
									c-0.4-2.1-1.4-4.1-2.9-5.6l-3-2.8c-1.9-1.9-2.6-4.7-1.7-7.2l1.1-2.9c1.1-2.4,3.2-4.3,5.8-5l2.2-0.5c2.6-0.4,5.3,0.3,7.4,1.9
									l1.9,1.6c1.7,1.3,3.8,2.1,5.9,2.2h6.5c2.4,0,4.4,1.9,4.4,4.3c0,0.2,0,0.4,0,0.6l-0.9,8.6c-0.1,2.1,0.6,4.1,1.9,5.7l10.7,12
									c1.7,2.1,2.3,4.8,1.7,7.4l-1.4,4.9c-0.4,2-0.1,4.1,1,5.8l3.9,5.4c1.4,2.2,2.6,4.5,3.3,7l1.7,6.2l11.7,1.9
									c2.3,0.3,4.6,0,6.7-0.7l5.1-1.9c2.5-0.8,5.3-0.2,7.3,1.6l1.5,1.5c1.8,1.8,3.4,3.9,4.8,6l1.9,2.9c1.1,1.5,2.9,2.4,4.8,2.3
									l5.6-0.6c2.3-0.3,4.5-1.1,6.4-2.3l1.5-1c2.2-1.4,4.6-2.5,7.1-3.2l5.5-1.5c2.5-0.7,5-1.1,7.6-1.4l10.1-0.9
									c1.6-0.1,5.1,1.2,7.7,2.9c0.2-0.3,0.5-0.5,0.7-0.7c1.2-1,2.8-1.6,4.4-1.8c1.6-0.1,3.2-0.7,4.5-1.6c1.2-0.9,2.5-1.6,3.8-2.2
									c1.3-0.8,2.3-1.9,3-3.3c0.8-1.5,0.5-3-0.6-3.3c-1-0.3-2.1-0.4-3.2-0.3c-0.6,0.1-1.2-0.6-1.3-1.6c0.1-1.5,0.6-3,1.6-4.2
									c1.1-1.5,1.8-3.1,2.1-4.9c0.4-2.9,2.8-4.5,5.2-5.7c0.4-0.2,0.9-0.5,1-1C660.7,430.8,659.9,430.5,659.3,430.3z"/>
								<path class="st1" d="M338.1,424.6l-0.1-0.1c-1.3-1.7-3.2-3-5.2-3.7L330,420c-2.5-0.8-4.7-2.4-6.3-4.6l-3.1-4.7
									c-1.4-2-2.9-3.8-4.7-5.4l-0.4-0.4c-1-0.8-1.5-2-1.6-3.3s0.4-2.5,1.3-3.4l1.2-1.2c0.9-0.9,0.9-2.5,0-3.4
									c-0.1-0.1-0.1-0.1-0.2-0.2l-3.2-2.5c-1.9-1.4-4-2.4-6.2-3.1l-4.6-1.2c-2.5-0.8-4.8-2.3-6.4-4.5l-1.6-2.3
									c-1.4-2.2-2.5-4.6-3.3-7l-0.6-2.2c-0.6-2-1.3-5.4-1.7-7.4l-2.6-15.8c-0.8-0.7-1.7-1.2-2.7-1.4c-1.9-0.1-3.8,0.3-5.5,1.2
									c-1.8,0.9-3.9,0.6-5.4-0.7c-1.4-1.3-3.4-2.3-4.4-2.3c-1.8,0-3.7,0.5-5.5,0.3c-2.1-0.2-4.1-1.7-6.1-1.2
									c-0.3,0.1-0.5,0.2-0.7,0.3c-0.8,0.6-0.7,2-0.4,3c0.5,1.5,0.8,2.8,1.2,4.4l0.2,0.8c0.8,4.1,0.2,8.3-1.8,11.9l-2,3.3
									c-1.8,3.1-1.6,6.5,0.6,7.5s5.8,2.9,7.9,4.1c2.2,1.2,4.1,2.9,4.4,3.8c0.7,1.7,1.8,3.2,3.1,4.4c0.9,0.9,2.6,2.8,1.7,4.1
									c-0.4,0.5-0.8,0.8-1.4,1c-1,0.4-2.1,0.6-3.2,0.7c-0.4,0.3-0.2,0.9,0.2,1.1s0.9,0.3,1.3,0.2c2.7-0.1,5.2,0.2,7.5-1.6
									c1.4-1.1,3.1-1.6,4.9-1.3c1.5,0.5,2.6,1.8,2.8,3.4c0.3,2.7-1.6,4.6-1.5,7.2c0,1.3,0.7,2.6,1.9,3.2c0.2,0.1,0.5,0.2,0.8,0.2
									c0.4-0.1,0.8-0.3,1.1-0.6c3-2.1,6.9-0.6,9.9,0.8c2.2,0.9,4.6,1.2,7,1c2.1-0.3,5.5,1,7.6,3c2.4,2.6,4,5.9,4.5,9.4
									c0.4,3.7,0.4,7.5,0,11.2c-0.3,3.3,0.7,6.7,2.7,9.4c1.8,2.2,2.8,4.6,2.2,5.4s-2.6,0.8-4.4,0c-1.7-0.8-3.5-1.2-5.4-1.2
									c-1.7,0.4-3.4,1.1-4.8,2.2c-1.5,1.1-4.9,1-7.7-0.1c-2.8-1.1-5-5-4.9-8.4c0-3.1,0.4-6.3,1-9.4c0.5-1.6,0.8-3.2,1-4.8
									c0-1.1-0.3-2.2-0.9-3.1c-1-1-2.3-1.6-3.8-1.6c-1.7-0.1-3.5,0.9-5,0.1c-0.9-0.5-1.6-1.2-2-2.1c-1.1-2.2,0.1-4.9-1-7.2
									c-1-2.1-3-3.1-4.5-4.8c-1-1.1-2-2.2-3.2-3.1c-0.5-0.5-1.1-0.8-1.8-1c-0.7-0.2-1.4,0-1.9,0.5c-0.4,0.7-0.6,1.5-0.4,2.4
									c0,3.5-1.3,5-3.3,7.6c-0.2,0.2-0.4,0.5-0.5,0.8s-0.1,0.5-0.1,0.8c0,1.8,0.6,3.5,0.7,5.2c0.1,1.7-1.1,3-2.7,3.8
									c-0.7,0.4-1.6,0.7-1.9,1.4c-0.1,0.3-0.2,0.6-0.1,0.9c0,3.4,2.9,7.8,5.2,10.2c1.6,1.7,3.7,5.9,4.7,9.4l0.3,1
									c0.9,3.5,1.9,7.5,2.1,9s3,2.4,6.2,2.1c3.2-0.3,7.2,2,9,5.3c1.8,3.2,3.9,7.4,4.9,9.5c1.4,3,2.1,5.7,0.6,8.8
									c-0.6,1.2-1.5,2.2-2.1,3.5c-0.6,1.4-1,2.8-1.4,4.2c-0.5,2-1.4,4.9,0.1,6.6c0.8,0.9,2,1.3,3.2,1.2c2.6-0.1,4.3-2.7,5.8-4.5
									l14.3-17.5c2.8-3.2,6.2-5.8,10-7.8l4.3-2c4-1.7,8.2-2.6,12.5-2.8h3.9c3.6,0,8,2.2,9.8,4.8c1.8,2.6,1.5,7.1-0.8,9.9
									c-0.8,1-1.7,2-2.4,3c-1.1,1.5-3.1,2.4-3.9,4c-0.2,0.6-0.4,1.1-0.4,1.8c-0.2,4,1.6,7.9,4.8,10.4c2.6,2.2,6.2,3.5,7.9,2.8
									c4.6-1.9,6-7.2,10.4-8.9c1.4-0.5,3-1.1,4-2.3c0.6-0.7,0.8-1.6,1.3-2.4c0.7-0.9,1.6-1.8,2.3-2.7l4-5.5c2.1-2.9,3.7-7,3.5-9
									c-0.7-3.3-1.8-6.5-3.4-9.5l-3.4-6.5c-1.7-3.2-5.5-5.8-8.6-5.9c-3.9,0.2-7.8,1.2-11.2,3.1l-2.7,1.5c-2.2,1.5-5.1,0.9-6.6-1.2
									c-0.4-0.5-0.6-1.1-0.7-1.8l-0.4-1.6c-0.8-3.8,0.6-7.7,3.6-10.1l3.5-2.5c0.4-0.3,0.8-0.6,1.1-1l-11.7-1.4
									C342.1,428.1,339.8,426.7,338.1,424.6z"/>
								<path class="st1" d="M396.4,595.9l0.6,0.2c2.1,0.7,4.4,0.8,6.6,0.4l6.3-1.5c2.1-0.6,4.1-1.8,5.6-3.3l3-3.5
									c1.9-1.9,4.5-2.8,7.2-2.3l4.6,1.1c2.5,0.7,4.9,2.1,6.7,4l3.4,3.8c1.7,2,3.2,4.1,4.5,6.3l-0.9,0.5l0,0l0.9-0.5l1.2,2.2
									l4.7-1.9c2.5-0.9,5.1-1.2,7.7-1l6.2,0.7c1.9,0.1,3.7-0.8,4.8-2.3l0.7-1.1c1.5-2.2,4.1-3.4,6.8-3.3l8,0.8
									c1.9,0.1,3.8-0.8,5-2.3l0.7-1c1.6-2.1,3.9-3.6,6.5-4.2l6.9-1.3c1.6-0.4,2.8-1.8,2.9-3.4v-1.1c-0.1-2-1.1-3.8-2.7-4.9l-2-1.3
									c-2.2-1.5-3-4.3-2.1-6.8l0.6-1.4c1.1-2.4,2.7-4.5,4.7-6.3l3.1-2.6c1.3-1.2,1.8-3,1.2-4.7l-2.8-7c-0.9-2-2.4-3.6-4.3-4.7
									l-4.9-2.5c-2.3-1.3-3.9-3.7-4.2-6.3l-0.9-12.4c-0.1-2.7,1-5.2,3-7l12.9-10.4c1.7-1.5,3.1-3.4,4.2-5.4l4-8.9
									c1.1-2.3,2.5-4.5,4-6.6l7.9-10.1c1.5-1.9,2.8-4,4-6.1l3.6-6.8c1.2-2.1,3.5-3.4,6-3.3l-1.5-5.3c-0.7-2.3-1.7-4.4-3-6.4
									l-3.9-5.4c-1.4-2.2-1.9-5-1.3-7.6l1.4-4.9c0.4-1.9-0.1-3.9-1.3-5.4l-10.8-11.9c-1.7-2.1-2.5-4.7-2.4-7.3l0.9-8.6
									c0.1-0.7-0.1-1.3-0.6-1.8s-1.1-0.8-1.8-0.8h-6.5c-2.7-0.1-5.2-1.1-7.3-2.7l-1.9-1.6c-1.6-1.2-3.6-1.7-5.6-1.5l-2.3,0.5
									c-1.9,0.5-3.4,1.9-4.3,3.7l-1.1,2.9c-0.5,1.7-0.1,3.6,1.2,4.9l3,2.8c1.9,1.9,3.1,4.3,3.5,6.9l0.5,4.5
									c0.3,2.2-1.2,4.3-3.5,4.7c-0.3,0-0.6,0.1-0.9,0l-10-0.6c-2.6-0.3-5.1-1.6-6.9-3.6l-7.3-9.2l-8-0.3c-2.7-0.2-5.2-1.3-7.1-3.2
									l-1.4-1.4c-1.5-1.4-3.5-2.3-5.6-2.4h-5.2c-1.8,0.1-3.5,1.2-4.3,2.8l-0.4,1c-1.1,2.4-3.7,3.8-6.3,3.5l-2.2-0.3
									c-2.2-0.2-4.4,0.2-6.3,1.2l-7,4.1c-1.8,1.2-3.1,2.9-3.8,4.9l-1.1,3.8c-0.7,2.2-2.7,3.7-5,3.8c-0.3,0-0.6,0-0.9-0.1
									l-11.5-2.1c0.6,0.7,1.2,1.4,1.7,2.2c1.3,2.2,2.2,4.5,2.7,6.9c0.6,2.9,2.5,6.2,4.1,7.3c2.6,2.1,5,4.4,7.2,6.9l3.4,4
									c2.6,3,5.6,5.6,8.9,7.7c2.6,1.5,4.5,5.7,4.4,9.3l-0.1,2.5c-0.4,4.2-1.9,8.2-4.4,11.5l-3,3.6c-2.3,2.8-5.9,5.4-8,5.8
									c-4.9,1-7.9,6.7-12.9,6.8c-0.7,0-1.3-0.1-2,0c-0.7,0-1.3,0.2-1.8,0.6c-0.9,0.8-0.6,1.9-0.7,2.9c-0.1,2.2,0,4.4,0.2,6.6
									c0,0.2,0.1,0.4,0.2,0.6c0.2,0.3,0.6,0.3,0.9,0.2c0.3-0.1,0.6-0.4,0.8-0.6c2.4-2.5,5.8-5.5,9.3-6.2c2.3-0.5,4.4-1.4,6.5-2.5
									c1.9-1.1,6.4-2.2,10-2.4l2.2-0.2c3.6-0.2,5.9,0.2,5.1,1c-1.7,2.2-3.3,4.6-4.6,7.1l-1.8,3.1c-0.9,1.5-1.9,2.9-2.9,4.4
									c-0.8,1-1.4,2.1-1.8,3.2c-0.4,1.3,0,2.2,0.1,3.5c0,0.8-0.1,1.6-0.3,2.4c-0.1,0.7-0.2,1.5,0.4,1.8c0.3,0.1,0.7,0.2,1,0.1
									l2.2-0.2c0.6-0.1,1.2,0,1.8,0.2c2.1,1,0.3,4.5-0.5,5.7l-12.5,19.9c-2.5,4-4.1,9.2-7.6,12.5c-0.6,0.6-1.4,1.1-2,1.7
									c-2.2,2.2-2.6,6.3-3.1,9.3c-0.7,3-2.5,5.7-5,7.6c-2.8,2.2-5.1,5.1-6.5,8.3c-0.3,0.7-0.7,1.3-1.1,1.8l7.6,6.9
									C392.2,593.8,394.2,595,396.4,595.9z"/>
								<path class="st2" d="M388.1,376.6c1.4-1.5,3.7-4,5.1-5.5l7.2-8c1.8-1.9,3.8-3.5,6.1-4.9l6.8-3.8c1.5-1,2.4-2.7,2.3-4.6
									L415,345c-0.3-2.3-1-4.6-2.1-6.7l-1.2-2.2c-0.8-1.5-2.4-2.2-3.3-1.9c-1.4,0.6-2.5,1.6-3.1,3c-0.6,1.8-3,3.7-5.4,4.2
									l-0.4,0.1c-2.4,0.5-5.3-0.1-6.7-1.5c-1.4-1.2-3-2-4.7-2.5c-2.3-0.7-4.5-2-6.2-3.8l-0.8-0.9c-1.6-1.5-3.6-2.5-5.8-3l-7.6-1.2
									c-2.2-0.2-4.5,0.1-6.6,0.9L360,330c-2.4,1-5.1,1.5-7.7,1.4l-10.8-0.7c-2.6-0.3-5.1-1.7-6.7-3.8l-3.2-4.4
									c-2.9,7-15.4,8.5-16.7-0.5l-0.4-2.7c-0.5-3.5-2.5-7.4-4.5-8.6s-4.9-1.7-6.6-1.2c-2.9,0.9-3.7,3.3-5.6,5.4
									c-0.4,0.4-0.8,0.9-1.1,1.4c-0.9,1.7,4.4,7.6,1.2,8.6c-0.9,0.2-1.8,0-2.6-0.4l-2.3-0.9c-0.8-0.4-2-0.6-2.5,0.2
									c-0.3,0.5-0.3,1.2,0,1.7c1,3.2,1.9,6.4,2.5,9.7c0.3,1.7,0.7,3.5,1,5.2c0.2,1.1,0.2,3.2,1.4,3.8c1.2,0.6,4.3-1.7,4.3,0.9
									c0,1.2-1.8,3.8-4,5.8c-2.2,2-5.3,1.8-6.9-0.4c-0.1-0.1-0.2-0.2-0.3-0.4l2.1,12.9c0.4,2,1.1,5.3,1.6,7.2l0.6,2.2
									c0.7,2.3,1.7,4.4,3,6.4l1.6,2.3c1.3,1.7,3.1,3,5.2,3.6l4.6,1.2c2.5,0.7,4.9,1.9,7,3.5l3.2,2.5c2,1.5,2.3,4.3,0.8,6.3
									c-0.1,0.1-0.2,0.2-0.3,0.3l-1.2,1.2c-1,1-0.9,2.7,0.1,3.7c0,0,0.1,0,0.1,0.1l0.4,0.4c1.9,1.8,3.6,3.7,5.1,5.8l3.1,4.7
									c1.3,1.7,3.1,3,5.1,3.7l2.8,0.8c2.5,0.8,4.7,2.4,6.4,4.5l0.1,0.1c1.3,1.6,3.1,2.7,5.2,3l13.2,1.6c0.3-0.3,0.6-0.6,0.9-0.8
									c0.4-0.3,0.8-0.6,1.1-1c0.3-0.4,0.4-0.9,0.3-1.4c-0.2-0.3-0.4-0.6-0.7-0.9c-3.7-3.6-5.8-9.1-8.2-13.7l-4.7-8.7
									c-1.7-3.2-0.6-7.2,2.4-9.2l11.3-7c3.1-1.9,6.9-1.7,8.6,0.4c1.4,1.8,4.8,3.2,8,3.5c0.9-1.5,1.9-2.9,3-4.3L388.1,376.6z"/>
								<path class="st2" d="M408.1,415.9l1.1-3.8c0.8-2.5,2.5-4.7,4.7-6.1l7-4.1c2.3-1.2,5-1.8,7.6-1.5l2.2,0.3
									c1.7,0.2,3.4-0.8,4.1-2.3l0.4-1c1.2-2.4,3.5-4,6.2-4.1h5.2c2.7,0.1,5.2,1.2,7.1,3l1.4,1.4c1.5,1.5,3.5,2.3,5.6,2.5l6.3,0.2
									c-1.4-2.1-2-4.6-1.8-7l1.5-11.4c0.2-1.7,0.1-3.4-0.6-4.9c-1-1.5-0.8-4.3-0.1-6.1c0.7-2.2,1.2-4.4,1.4-6.7l0.9-14.8
									c0.3-2.6,1.2-5.1,2.7-7.3l1-1.4c1.3-1.9,2.1-4,2.5-6.3v-0.2c0.5-2.6,2-4.9,4.2-6.5l3.9-2.5c1.8-1.1,4.7-2.9,6.5-3.9l3.8-2.1
									c2.4-1.2,5.1-1.4,7.6-0.5c2.3,0.9,4.6,1.6,7,2.1l4,0.8c1.9,0.3,3.9,0.1,5.7-0.8c1.2-1,1.7-2.7,1.3-4.2l-2.3-8.5
									c-0.6-2.6-0.2-5.3,1-7.7l3-4.9c-3.2-0.8-6.5-1.4-9.8-1.8c-3.1-0.4-7.1-3.2-8.9-6.3l-6-10.2c-2-3.8-3.4-7.9-4-12.1l-0.2-2.2
									c-0.4-3.6-1.5-7.6-2.6-9.1s-1.3-4.7-0.5-7.3c1.2-3.5,2.7-6.9,4.4-10.3c1.6-3,2.1-6.3,1.2-7.2c-1-1-2.4-1.6-3.8-1.7
									c-1.1,0-4,1.9-6.4,4.3c-2,2-4.1,3.8-6.5,5.3c-2,0.7-4,1.1-6.1,1.2c-2.5,0-4.9-0.9-6.8-2.5c-1.8-1.7-2-6-4.6-6.4
									c-0.9-0.1-1.8,0-2.7,0.2c-3.4,0.7-7.2,1-10.4,2.3c-1.8,0.5-3.7,0.7-5.5,0.6c-1.9-0.1-5.2,2.2-7.3,5.1l-0.2,0.3
									c-2.5,3.1-6.3,5-10.3,5.1l-4.5-0.1c-7.4-0.2-15.4,9.6-15.4,16.7v0.6c-0.2,3.6-0.3,7.1-0.1,10.7c0.2,2.3-1.6,5.6-4.1,7.2
									c-3.1,2.4-5.8,5.3-7.9,8.6l-3.9,6.2c-2.3,3.3-5.9,5.5-9.9,6h-0.8c-4.1,0.1-8-1.5-10.9-4.3l-0.2-0.2
									c-2.4-2.7-6.5-2.9-9.2-0.5c-3.1,2.8-6.3,4.4-10,6.4c-1,0.5-2.1,1.2-2.3,2.4c-0.3,1.6,1.4,2.8,2.9,3.5s3.3,1.7,3.2,3.3
									c0,4.8-8.7,6.5-12.1,6.5c-1.3,0-2.7-0.2-3.7,0.6s-1.4,2.1-1.6,3.4l4.2,5.8c1.3,1.6,3.1,2.7,5.1,2.9l10.8,0.7
									c2.3,0.1,4.6-0.3,6.7-1.2l1.2-0.5c2.5-1,5.1-1.3,7.7-1l7.6,1.2c2.6,0.5,5,1.8,6.9,3.6l0.8,0.9c1.5,1.4,3.3,2.5,5.2,3.2
									c2.1,0.6,4,1.6,5.6,3c1.4,1,3.2,1.3,4.8,1l0.4-0.1c1.6-0.3,3.1-1.4,3.9-2.9c0.8-2,2.4-3.5,4.4-4.2c2-0.6,4.6,0.6,5.8,2.9
									l1.2,2.2c1.2,2.3,1.9,4.8,2.3,7.4l0.5,4.8c0.2,2.7-1.1,5.2-3.4,6.6l-6.8,3.8c-2,1.2-3.9,2.7-5.5,4.4l-7.2,8
									c-1.4,1.5-3.7,4-5.1,5.6l-8,8.6c-0.7,0.9-1.4,1.9-2.1,2.9h1.6c3.9,0,7.4,2.2,9.3,5.7l0.5,1.1c1,2.3,1.5,4.7,1.7,7.2
									c0.3,2.5-1,4.6-2.3,6.7c-0.5,0.7-0.9,1.5-1,2.3c0,0.8,0.2,1.6,0.6,2.3c0.2,0.3,0.4,0.7,0.6,1l14,2.5
									C406.1,418.3,407.6,417.4,408.1,415.9z"/>
								<path class="st2" d="M349.2,556l0.4-1.7c0.6-2.2,2.3-4,4.5-4.8l1.3-0.4c2.2-0.8,3.9-2.6,4.6-4.8c0.7-2.8,1-6.2,2.6-8.6
									c0.3-0.4,0.7-0.8,1.1-0.6c1,0.4-0.2,2.1,0.3,2.8c0.4,0.5,1.2,0.5,1.6,0.1c0.5-0.4,0.9-0.9,1.2-1.4c2.3-2.4,5.6-3.5,8.8-3.2
									c1.7,0.2,3.3,0.5,4.9,1.1c2,0.9,4.2,1.2,6.4,1.1c4.4-0.6,5.6-5,7.2-8.5c1.3-2.8,2.6-5.6,3.9-8.4c0.9-1.9,0.1-4.2-1.7-5.3
									c-2.2-1-4.6-1.1-6.9-0.3L362,524.2c-1.5,0.7-3.3,0.1-4-1.4c-0.1-0.3-0.2-0.6-0.3-0.9l-0.9-4.4c-0.3-1.8-0.5-3.7-0.6-5.5
									c-0.1-1.3,0.1-4-0.7-5c-0.4-0.4-0.9-0.7-1.5-0.7c-0.5,0-1.1,0.1-1.6,0.3c-1.6,0.5-3,1.4-4.7,2l-5,1.7l-5.9,2
									c-2.2,0.9-4,2.6-5,4.8l-3.7,9.5l-3,7.7c-0.8,2.5-1.7,5-2.8,7.5c-0.2,0.4-0.4,0.8-0.7,1.2c-0.7,1-1.6,2-1.6,3.2
									s1.1,2.4,1.8,3.6c1,1.7,0.9,3.4,0.9,5.2l-1.4,9.7c-0.5,3.4,0.4,7.4,2.9,9.8c0.6,0.6,1.3,1,2.1,1.2c0.7,0.1,1.3-0.1,1.9-0.3
									c2.4-1,4-3.3,6-4.9c1.3-1,2.6-2,3.9-3l7-5.2C347.2,560.5,348.5,558.4,349.2,556z"/>
								<path class="st2" d="M525.5,714.6l1.1-6.2c0.3-2.2-0.1-4.3-1.1-6.3l-1.2-2.2c-1.2-1.8-2.8-3.2-4.8-4.1l-13.9-4.9
									c-2.5-1-4.6-2.6-6.2-4.7l-10.7-15.5c-1.4-1.9-3.1-3.5-5-4.9l-3.2-2.1c-2.1-1.6-3.7-3.8-4.5-6.3l-2.7-10.9
									c-0.6-2.1-1.8-4-3.4-5.6l-6.2-5.5c-1.9-1.8-3.6-3.8-5-6l-6.6-11c-1.1-1.8-2.8-4.7-3.8-6.5l-5.4-9.8l0,0
									c-1.2-2.1-2.6-4.1-4.2-5.9l-3.4-3.8c-1.6-1.6-3.5-2.7-5.6-3.3l-4.6-1.1c-1.9-0.3-3.8,0.3-5.1,1.6l-3.1,3.4
									c-1.8,1.9-4.1,3.3-6.7,4l-6.3,1.4c-2.6,0.5-5.3,0.3-7.8-0.5l-0.6-0.2c-2.4-1-4.7-2.4-6.6-4.1l-7.6-7c-1.7,1.6-3.8,2.6-6.1,3
									l-14.2,2c-2.7,0.5-5.2-1.2-5.8-3.8c-0.1-0.6-0.1-1.2,0-1.8l0.1-1.5c0.4-3.6-0.2-7.7-1.3-9.1c-1.6-2.2-4.4-1.7-6.7-1.9
									c-1-0.2-2.1,0-3,0.5c-1.1,0.8-1.1,2.4-1,3.7c0.2,4.2,0.6,8.6,2.3,12.5c1.2,2.7,2.8,5.1,4.9,7.2c1.6,1.3,3.5,2.4,5.5,3
									c1.7,0.6,2.9,2,3.2,3.8c0.1,2.1-0.6,4.1-2,5.7c-1.3,1.4-1.8,5.5-1,9l2,8.9c0.8,4,0.7,8.2-0.1,12.2c-1,4-1.7,8.1-2.2,12.2
									l-0.3,3.5c-0.2,4.1,1.3,8,4.2,10.9l8.1,7.4c2.8,2.6,5.2,5.6,7,9c1.4,3.6,2.1,7.4,2.1,11.2V711c0,3.6-1.5,8.4-3.3,10.7
									c-2.6,2.8-5.9,5-9.5,6.3l-0.4,0.1c-3.2,1.1-6.5,1.7-9.5-0.3c-0.8-0.6-1.6-1.1-2.5-1.6c-1-0.3-2-0.3-3-0.2
									c-0.7,0-1.4,0.2-2,0.4s-1.1,0.8-1.4,1.4c-0.1,0.7,0,1.4,0.4,2c0.5,0.9,1,1.9,1.6,2.8c1.4,2.3,3.4,4.6,4.3,5.1
									c3.3,1.6,2.2,7.4,4.8,9.6c0.9,0.8,2,1.3,2.9,2c0.8,0.5,1.2,1.3,1.2,2.2c-0.2,0.6-0.4,1.2-0.9,1.6c-0.8,1.2-1.5,3.2-0.8,4.5
									c1,1.9,3.9,3.7,6.5,4.1s7.6,0.6,11.2,0.6h19.7c3.9,0.2,7.5,2.4,9.5,5.8l1.9,3.7c1.6,3.2,5.5,5.8,8.6,5.8s7.6-2.1,10.1-4.7
									l0.3-0.3c2.5-2.8,2.8-7,0.8-10.1l-4.5-6.6c-2.4-3.6-4.5-7.4-6.3-11.3l-5.2-11.8c-1.5-3.9-2-8.2-1.3-12.4l2.1-10.4
									c1-4.2,2.5-8.2,4.6-12l6.1-10.5c1.9-3.3,3.4-6.9,4.4-10.6c0.6-2.8,2.8-5.9,4.8-7c2.9-1.3,6-2.1,9.1-2.4
									c3-0.2,7.9,1.4,10.8,3.5l3.1,2.3c2.9,2.2,4.7,5.5,4,7.5s-1.9,6.4-2.7,9.9l-0.4,1.8c-0.8,3.5-3.6,6.6-6.2,6.8
									s-5.3-0.6-6.1-1.9s-2-3.5-2.7-4.9s-4.1-1.9-7.6-1.1s-6.8,2.1-7.4,2.9s-0.4,2.8,0.4,4.3c1,1.8,2.3,3.3,4,4.5
									c1.5,0.9,3.4,1.2,5.1,0.9c1.5-0.4,3-0.5,4.5-0.3c1.1,0.2,1.8,3.3,1.7,6.9l-0.2,4.6c0,4.2,1.1,8.4,3.2,12l8.5,13
									c2.1,3.6,2.8,7.7,2,11.8l-2,7.9c-0.4,1.6-0.6,3.3-1.1,4.9c-0.8,2.6-1.8,4.7-1.4,7.5c0.3,2,0.7,3.7,0.2,5.7
									c-0.5,1.8-3.1,5.1-5.9,7.4c-2.4,2-4.4,4.6-7.6,5.5c-0.7,0.1-1.3,0.3-1.9,0.6c-0.6,0.2-1.2,0.7-1.4,1.4
									c-0.2,0.8,0,1.7,0.4,2.4c0.8,2,2.3,4.4,0.9,6.5c-0.5,0.9-0.8,1.9-1,2.8c-0.3,1.1-0.9,2.1-1.5,3c-0.4,0.4-0.5,1-0.4,1.5
									c0.2,0.7,1.1,0.8,1.9,0.8c2.3-0.1,4.5-1,6.2-2.5c1.6-1.3,3.7-2.6,4.7-4.4c0.7-1.4,4.1-3.6,7.4-4.9l13-5.1
									c4-1.7,7.8-3.7,11.3-6.2l2.8-2.1c3.3-2.6,6.2-5.7,8.5-9.3c1.9-3.1,2.8-6.1,5.8-8.3c2.3-1.4,4.4-3.2,6.2-5.1
									c1.1-1.3,1.8-2.8,3-4.1c0.3-0.3,0.5-0.6,0.6-1c0.1-0.6-0.4-1.2-0.9-1.7c-1.4-1.6-1.5-3.4-1.4-5.4s-0.2-4-0.1-6.2
									c0.1-0.3,0-0.6-0.2-0.8c-0.1-0.1-0.3-0.1-0.4-0.1h-2.5c-0.7,0-1.3-0.1-1.9-0.3c-2.1-0.9-2.8-5-2.1-6.9
									c1.6-3.8,3.9-7.2,7-9.9l3.2-2.7c3.2-2.4,7.3-3.1,11.1-1.8l5.1,2l1.6-2.4C524.1,719,525,716.9,525.5,714.6z"/>
								<path class="st2" d="M622,462.3c-2.4,0.2-4.8,0.7-7.2,1.3l-5.5,1.5c-2.3,0.7-4.4,1.7-6.5,3l-1.5,1c-2.2,1.4-4.7,2.3-7.3,2.6
									l-5.6,0.6c-0.2,0-0.4,0-0.6,0c-2.4-0.1-4.7-1.3-6.1-3.2l-1.9-2.9c-1.4-2-2.9-3.9-4.6-5.6l-1.5-1.5c-1.4-1.2-3.3-1.6-5.1-1.1
									l-5.1,1.9c-2.5,0.8-5.2,1.1-7.8,0.8l-13.4-2.1c-1.8-0.2-3.5,0.7-4.4,2.2l-3.6,6.8c-1.2,2.2-2.6,4.4-4.2,6.4l-7.9,10.1
									c-1.4,1.9-2.7,4-3.7,6.2l-4,8.9c-1.2,2.4-2.8,4.5-4.8,6.2l-12.9,10.4c-1.5,1.4-2.3,3.2-2.3,5.2l0.9,12.4
									c0.3,1.9,1.4,3.6,3.1,4.6l4.9,2.5c2.3,1.3,4.1,3.3,5.2,5.7l2.8,7c0.9,2.5,0.2,5.3-1.8,7.1l-3.1,2.6
									c-1.7,1.5-3.1,3.4-4.1,5.5l-0.6,1.4c-0.6,1.5-0.1,3.3,1.3,4.2l2,1.3c2.2,1.5,3.5,4,3.6,6.7v1.1c-0.1,2.7-2,4.9-4.5,5.5
									l-6.9,1.3c-2.1,0.5-3.9,1.7-5.2,3.3l-0.7,1c-1.6,2.1-4.2,3.3-6.9,3.2l-8-0.8c-1.9,0-3.7,0.8-4.8,2.3L471,600
									c-1.5,2.2-4.1,3.4-6.8,3.2l-6.2-0.7c-2.3-0.2-4.6,0.2-6.8,0.9l-4.4,1.8l3.2,5.8c1,1.8,2.7,4.7,3.7,6.5l6.6,11
									c1.3,2,2.8,3.8,4.5,5.5l6.2,5.5c1.9,1.8,3.3,4.1,4.1,6.7l2.7,10.9c0.6,2,1.9,3.8,3.6,5.1l3.2,2.1c2.1,1.5,4,3.4,5.5,5.5
									l10.7,15.5c1.4,1.7,3.1,3.1,5.2,4l13.9,4.8c2.5,1,4.6,2.7,6,5l1.2,2.2c1.2,2.4,1.6,5,1.3,7.7l-1.2,6.2
									c-0.6,2.6-1.7,5-3.3,7.1L523,724l0.4,0.1c2.7,0.9,5.3,2.2,7.6,3.9c2,1.6,3.4,3.8,5.5,5.4l1.1,0.9c2.8,2.2,6.1,3.6,7.2,3.2
									c1.3-0.7,2.1-2.1,2-3.6c0.2-2,1.2-3.9,2.6-5.2c1.6-1.8,2.6-4.1,2.6-6.5c-0.1-1.5,0.2-2.9,0.8-4.2c0.6-1.1,1.4-1.7,0.9-3.1
									c-0.3-1-1-1.8-1-2.8c0-0.7,0.1-1.3,0.4-1.9c0.5-1.9,1.2-3.8,2-5.7c0.7-1.1,1.2-2.2,1.8-3.4c1.2-2.5,2.7-4.8,4.4-7
									c1.9-2.7,3.5-6.8,3.5-9.1c0.2-3.6,1-7.1,2.2-10.5l3.6-10.5c0.7-1.8,2-6.9,0.5-8.7c-0.5-0.5-1.2-0.7-1.9-1
									c-0.6-0.4-1-0.8-1.4-1.4c-1.1-1.4-2-2.7-1.9-4.5c0.1-1.2,0.1-2.5,0-3.7c-0.2-4.3,0.3-8.6,1.6-12.7c1.1-3.2,1.8-6.6,2.1-10
									c0.1-1.5-0.2-3,0.2-4.5c0.5-1.7,1.4-3.2,1.9-4.9s0.6-3.2,1.1-4.7c0.8-2.2,2.2-4.1,2.8-6.4c0.4-2.2,1.1-4.3,1.9-6.4
									c1-2.9,1.8-5.9,2.2-9l0.4-2.8c0.7-4.3,1.7-8.5,3-12.7l0.2-0.6c1.4-4.1,3.2-8.1,5.2-11.8l3.8-6.7c1.8-3.1,3.1-7.4,3-9.6
									c-0.1-2.3,1.1-4.4,3.1-5.6c2.9-1.4,3.5-6,3.6-8.8c0.1-3.1,1.8-6,4.5-7.7c0.9-0.5,1.7-1,2.4-1.7c0.8-0.7,1.1-1.7,0.8-2.7
									c-0.4-0.8-1.1-1.4-1.9-1.8c-1.9-1.2-3.7-6.5-3.1-8.8c0.4-1.5,3-4.6,5.7-6.9l3.3-2.8c2.8-2.3,5.4-5.4,5.8-6.8
									c0.4-1.4,3.3-4.2,6.4-6l1-0.6c3.1-1.9,5.2-4.7,4.8-6.3c-0.3-1.9,0.4-3.8,1.9-5c1.5-1.3,2.7-2.9,3.5-4.7
									c0.3-0.7,0.6-1.3,1-1.9c-2.2-1.4-5.2-2.6-6.3-2.5L622,462.3z"/>
								<path class="st2" d="M659.3,430.3c-2.6-0.5-5.2-1.2-7.8-2.2c-1.5-0.6-4.3-1.8-6-1.2c-1,0.4-2.1,0.5-3.2,0.2
									c-1.4-0.6,1.3-2.9,1.5-3.5c0-0.5-0.3-1-0.8-1.2s-1-0.4-1.4-0.5c-2.1-0.9-1.9-2.4-1.4-4.2c0.5-2,0.8-4,1-6.1
									c0.2-1.8,3.3-3.8,6.8-4.5c0,0,1.2-0.2,1.4-0.2c1-0.1,2-0.3,3-0.5c0.6,0,1.3-0.2,1.8-0.5c0.6-0.3,1-0.9,1-1.5
									c0-0.1,0-0.2-0.1-0.3c-0.1-0.1-0.3-0.2-0.4-0.1c-2.8-0.2-5.5,0.1-8.2,0.7c-1.6,0.3-3.2,0.1-4.6-0.6
									c-1.5-0.8-3.2-1.2-4.9-1.3c-1.5,0-2.2-0.7-1.7-1.6c0.6-1,1.5-2,2.1-3c0.5-0.9,0.5-1.8,1.3-2.6c0.5-0.5,1.1-0.9,1.7-1.4
									c0.2-0.1,0.3-0.4,0.3-0.6c0-0.3-0.4-0.4-0.6-0.4c-1.7-0.3-3.2,1-5,0.2c-0.3-0.2-0.7-0.3-1-0.4c-0.8-0.1-1.5,0-2.2,0.3
									c-2.3,0.7-3.3-1.3-3.8-3.2c-0.3-2.2-0.1-4.5,0.7-6.6c1.2-2.7,2.9-5.2,5-7.3c2-1.9,3-4.2,2.4-5.1c-1.1-1.2-2.4-2-3.9-2.5
									c-2-0.5-4.2-0.3-6.1,0.4c-1.9,0.7-6.2,1-9.6,0.7c-3.4-0.3-8.3-1.1-10.9-1.7c-3.7-0.6-7.4-0.7-11.1-0.4l-2,0.2
									c-3.9,0.3-7.8-0.3-11.4-1.9c-2.7-1.4-5-5.4-5-8.9s0.6-7.4,1.3-8.7c0.7-1.3,3.2-2.2,5.4-1.9c2,0.3,4.1,0.3,6.1,0
									c2-0.8,3.8-1.8,5.5-3c1.9-1.3,3.4-3,3.2-3.7c-0.5-1.1-1.3-2.1-2.3-2.9c-1.1-0.9-0.9-1.9,0.4-2.2c2-0.5,4.1-0.1,6.1-0.2
									c2.4-0.1,3.4-1.1,4.9-2.9c2.3-3.2,3.6-7,4-10.9l0.2-2.4c0.2-3.6,0.6-8.6,0.9-11.3s-1.3-7.1-3.4-10l-3.3-4.4
									c-1.9-2.6-3.2-4.5-3.6-7.7c0-0.5-0.2-1-0.5-1.4c-0.5-0.6-1.5-0.5-2.3-0.5c-2.8,0.2-5.2-1-7.8-1.8c-1.3-0.5-2.8-0.4-4,0.4
									c-0.8,0.6-1.2,1.6-2.2,1.9c-0.9,0-1.7-0.2-2.4-0.8c-2.1-1-4.5-1-6.6,0c-2.9,1.5-4,5.1-5,8c-1.3,3.6-3.4,6.9-6.2,9.5
									c-2.3,1.9-7.1,3.2-10.7,3l-12.5-0.7c-3.9-0.3-7.7-1.3-11.2-3c-2.6-1.4-5.3-2.6-8.1-3.5l-3.3,5.4c-0.9,1.9-1.2,4-0.8,6.1
									l2.3,8.5c0.7,2.4-0.2,5-2.2,6.5c-2.2,1.2-4.7,1.5-7.2,1.1l-4-0.8c-2.5-0.6-4.9-1.3-7.3-2.2c-1.9-0.6-4-0.5-5.8,0.4L490,323
									c-1.8,1-4.6,2.7-6.4,3.8l-3.9,2.5c-1.7,1.2-2.8,3-3.2,5v0.2c-0.4,2.6-1.4,5.1-2.9,7.2l-1,1.4c-1.2,1.9-2,4-2.3,6.2
									l-0.9,14.8c-0.2,2.5-0.7,4.9-1.5,7.3c-0.5,1.4-0.6,2.9-0.1,4.2c0.9,1.4,1.1,4.3,0.9,6.3l-1.5,11.4c-0.1,2.1,0.4,4.2,1.6,5.9
									l0,0l0.9,1.1l7.9,9.9c1.4,1.5,3.3,2.5,5.4,2.8l10,0.6c1.1,0.2,2.1-0.6,2.3-1.7c0-0.2,0-0.4,0-0.7l-0.5-4.5
									c-0.4-2.1-1.4-4.1-2.9-5.6l-3-2.8c-1.9-1.9-2.6-4.7-1.7-7.2l1.1-2.9c1.1-2.4,3.2-4.3,5.8-5l2.2-0.5c2.6-0.4,5.3,0.3,7.4,1.9
									l1.9,1.6c1.7,1.3,3.8,2.1,5.9,2.2h6.5c2.4,0,4.4,1.9,4.4,4.3c0,0.2,0,0.4,0,0.6l-0.9,8.6c-0.1,2.1,0.6,4.1,1.9,5.7l10.7,12
									c1.7,2.1,2.3,4.8,1.7,7.4l-1.4,4.9c-0.4,2-0.1,4.1,1,5.8l3.9,5.4c1.4,2.2,2.6,4.5,3.3,7l1.7,6.2l11.7,1.9
									c2.3,0.3,4.6,0,6.7-0.7l5.1-1.9c2.5-0.8,5.3-0.2,7.3,1.6l1.5,1.5c1.8,1.8,3.4,3.9,4.8,6l1.9,2.9c1.1,1.5,2.9,2.4,4.8,2.3
									l5.6-0.6c2.3-0.3,4.5-1.1,6.4-2.3l1.5-1c2.2-1.4,4.6-2.5,7.1-3.2l5.5-1.5c2.5-0.7,5-1.1,7.6-1.4l10.1-0.9
									c1.6-0.1,5.1,1.2,7.7,2.9c0.2-0.3,0.5-0.5,0.7-0.7c1.2-1,2.8-1.6,4.4-1.8c1.6-0.1,3.2-0.7,4.5-1.6c1.2-0.9,2.5-1.6,3.8-2.2
									c1.3-0.8,2.3-1.9,3-3.3c0.8-1.5,0.5-3-0.6-3.3c-1-0.3-2.1-0.4-3.2-0.3c-0.6,0.1-1.2-0.6-1.3-1.6c0.1-1.5,0.6-3,1.6-4.2
									c1.1-1.5,1.8-3.1,2.1-4.9c0.4-2.9,2.8-4.5,5.2-5.7c0.4-0.2,0.9-0.5,1-1C660.7,430.8,659.9,430.5,659.3,430.3z"/>
								<path class="st2" d="M338.1,424.6l-0.1-0.1c-1.3-1.7-3.2-3-5.2-3.7L330,420c-2.5-0.8-4.7-2.4-6.3-4.6l-3.1-4.7
									c-1.4-2-2.9-3.8-4.7-5.4l-0.4-0.4c-1-0.8-1.5-2-1.6-3.3s0.4-2.5,1.3-3.4l1.2-1.2c0.9-0.9,0.9-2.5,0-3.4
									c-0.1-0.1-0.1-0.1-0.2-0.2l-3.2-2.5c-1.9-1.4-4-2.4-6.2-3.1l-4.6-1.2c-2.5-0.8-4.8-2.3-6.4-4.5l-1.6-2.3
									c-1.4-2.2-2.5-4.6-3.3-7l-0.6-2.2c-0.6-2-1.3-5.4-1.7-7.4l-2.6-15.8c-0.8-0.7-1.7-1.2-2.7-1.4c-1.9-0.1-3.8,0.3-5.5,1.2
									c-1.8,0.9-3.9,0.6-5.4-0.7c-1.4-1.3-3.4-2.3-4.4-2.3c-1.8,0-3.7,0.5-5.5,0.3c-2.1-0.2-4.1-1.7-6.1-1.2
									c-0.3,0.1-0.5,0.2-0.7,0.3c-0.8,0.6-0.7,2-0.4,3c0.5,1.5,0.8,2.8,1.2,4.4l0.2,0.8c0.8,4.1,0.2,8.3-1.8,11.9l-2,3.3
									c-1.8,3.1-1.6,6.5,0.6,7.5s5.8,2.9,7.9,4.1c2.2,1.2,4.1,2.9,4.4,3.8c0.7,1.7,1.8,3.2,3.1,4.4c0.9,0.9,2.6,2.8,1.7,4.1
									c-0.4,0.5-0.8,0.8-1.4,1c-1,0.4-2.1,0.6-3.2,0.7c-0.4,0.3-0.2,0.9,0.2,1.1s0.9,0.3,1.3,0.2c2.7-0.1,5.2,0.2,7.5-1.6
									c1.4-1.1,3.1-1.6,4.9-1.3c1.5,0.5,2.6,1.8,2.8,3.4c0.3,2.7-1.6,4.6-1.5,7.2c0,1.3,0.7,2.6,1.9,3.2c0.2,0.1,0.5,0.2,0.8,0.2
									c0.4-0.1,0.8-0.3,1.1-0.6c3-2.1,6.9-0.6,9.9,0.8c2.2,0.9,4.6,1.2,7,1c2.1-0.3,5.5,1,7.6,3c2.4,2.6,4,5.9,4.5,9.4
									c0.4,3.7,0.4,7.5,0,11.2c-0.3,3.3,0.7,6.7,2.7,9.4c1.8,2.2,2.8,4.6,2.2,5.4s-2.6,0.8-4.4,0c-1.7-0.8-3.5-1.2-5.4-1.2
									c-1.7,0.4-3.4,1.1-4.8,2.2c-1.5,1.1-4.9,1-7.7-0.1c-2.8-1.1-5-5-4.9-8.4c0-3.1,0.4-6.3,1-9.4c0.5-1.6,0.8-3.2,1-4.8
									c0-1.1-0.3-2.2-0.9-3.1c-1-1-2.3-1.6-3.8-1.6c-1.7-0.1-3.5,0.9-5,0.1c-0.9-0.5-1.6-1.2-2-2.1c-1.1-2.2,0.1-4.9-1-7.2
									c-1-2.1-3-3.1-4.5-4.8c-1-1.1-2-2.2-3.2-3.1c-0.5-0.5-1.1-0.8-1.8-1c-0.7-0.2-1.4,0-1.9,0.5c-0.4,0.7-0.6,1.5-0.4,2.4
									c0,3.5-1.3,5-3.3,7.6c-0.2,0.2-0.4,0.5-0.5,0.8s-0.1,0.5-0.1,0.8c0,1.8,0.6,3.5,0.7,5.2c0.1,1.7-1.1,3-2.7,3.8
									c-0.7,0.4-1.6,0.7-1.9,1.4c-0.1,0.3-0.2,0.6-0.1,0.9c0,3.4,2.9,7.8,5.2,10.2c1.6,1.7,3.7,5.9,4.7,9.4l0.3,1
									c0.9,3.5,1.9,7.5,2.1,9s3,2.4,6.2,2.1c3.2-0.3,7.2,2,9,5.3c1.8,3.2,3.9,7.4,4.9,9.5c1.4,3,2.1,5.7,0.6,8.8
									c-0.6,1.2-1.5,2.2-2.1,3.5c-0.6,1.4-1,2.8-1.4,4.2c-0.5,2-1.4,4.9,0.1,6.6c0.8,0.9,2,1.3,3.2,1.2c2.6-0.1,4.3-2.7,5.8-4.5
									l14.3-17.5c2.8-3.2,6.2-5.8,10-7.8l4.3-2c4-1.7,8.2-2.6,12.5-2.8h3.9c3.6,0,8,2.2,9.8,4.8c1.8,2.6,1.5,7.1-0.8,9.9
									c-0.8,1-1.7,2-2.4,3c-1.1,1.5-3.1,2.4-3.9,4c-0.2,0.6-0.4,1.1-0.4,1.8c-0.2,4,1.6,7.9,4.8,10.4c2.6,2.2,6.2,3.5,7.9,2.8
									c4.6-1.9,6-7.2,10.4-8.9c1.4-0.5,3-1.1,4-2.3c0.6-0.7,0.8-1.6,1.3-2.4c0.7-0.9,1.6-1.8,2.3-2.7l4-5.5c2.1-2.9,3.7-7,3.5-9
									c-0.7-3.3-1.8-6.5-3.4-9.5l-3.4-6.5c-1.7-3.2-5.5-5.8-8.6-5.9c-3.9,0.2-7.8,1.2-11.2,3.1l-2.7,1.5c-2.2,1.5-5.1,0.9-6.6-1.2
									c-0.4-0.5-0.6-1.1-0.7-1.8l-0.4-1.6c-0.8-3.8,0.6-7.7,3.6-10.1l3.5-2.5c0.4-0.3,0.8-0.6,1.1-1l-11.7-1.4
									C342.1,428.1,339.8,426.7,338.1,424.6z"/>
								<path class="st2" d="M396.4,595.9l0.6,0.2c2.1,0.7,4.4,0.8,6.6,0.4l6.3-1.5c2.1-0.6,4.1-1.8,5.6-3.3l3-3.5
									c1.9-1.9,4.5-2.8,7.2-2.3l4.6,1.1c2.5,0.7,4.9,2.1,6.7,4l3.4,3.8c1.7,2,3.2,4.1,4.5,6.3l-0.9,0.5l0,0l0.9-0.5l1.2,2.2
									l4.7-1.9c2.5-0.9,5.1-1.2,7.7-1l6.2,0.7c1.9,0.1,3.7-0.8,4.8-2.3l0.7-1.1c1.5-2.2,4.1-3.4,6.8-3.3l8,0.8
									c1.9,0.1,3.8-0.8,5-2.3l0.7-1c1.6-2.1,3.9-3.6,6.5-4.2l6.9-1.3c1.6-0.4,2.8-1.8,2.9-3.4v-1.1c-0.1-2-1.1-3.8-2.7-4.9l-2-1.3
									c-2.2-1.5-3-4.3-2.1-6.8l0.6-1.4c1.1-2.4,2.7-4.5,4.7-6.3l3.1-2.6c1.3-1.2,1.8-3,1.2-4.7l-2.8-7c-0.9-2-2.4-3.6-4.3-4.7
									l-4.9-2.5c-2.3-1.3-3.9-3.7-4.2-6.3l-0.9-12.4c-0.1-2.7,1-5.2,3-7l12.9-10.4c1.7-1.5,3.1-3.4,4.2-5.4l4-8.9
									c1.1-2.3,2.5-4.5,4-6.6l7.9-10.1c1.5-1.9,2.8-4,4-6.1l3.6-6.8c1.2-2.1,3.5-3.4,6-3.3l-1.5-5.3c-0.7-2.3-1.7-4.4-3-6.4
									l-3.9-5.4c-1.4-2.2-1.9-5-1.3-7.6l1.4-4.9c0.4-1.9-0.1-3.9-1.3-5.4l-10.8-11.9c-1.7-2.1-2.5-4.7-2.4-7.3l0.9-8.6
									c0.1-0.7-0.1-1.3-0.6-1.8s-1.1-0.8-1.8-0.8h-6.5c-2.7-0.1-5.2-1.1-7.3-2.7l-1.9-1.6c-1.6-1.2-3.6-1.7-5.6-1.5l-2.3,0.5
									c-1.9,0.5-3.4,1.9-4.3,3.7l-1.1,2.9c-0.5,1.7-0.1,3.6,1.2,4.9l3,2.8c1.9,1.9,3.1,4.3,3.5,6.9l0.5,4.5
									c0.3,2.2-1.2,4.3-3.5,4.7c-0.3,0-0.6,0.1-0.9,0l-10-0.6c-2.6-0.3-5.1-1.6-6.9-3.6l-7.3-9.2l-8-0.3c-2.7-0.2-5.2-1.3-7.1-3.2
									l-1.4-1.4c-1.5-1.4-3.5-2.3-5.6-2.4h-5.2c-1.8,0.1-3.5,1.2-4.3,2.8l-0.4,1c-1.1,2.4-3.7,3.8-6.3,3.5l-2.2-0.3
									c-2.2-0.2-4.4,0.2-6.3,1.2l-7,4.1c-1.8,1.2-3.1,2.9-3.8,4.9l-1.1,3.8c-0.7,2.2-2.7,3.7-5,3.8c-0.3,0-0.6,0-0.9-0.1
									l-11.5-2.1c0.6,0.7,1.2,1.4,1.7,2.2c1.3,2.2,2.2,4.5,2.7,6.9c0.6,2.9,2.5,6.2,4.1,7.3c2.6,2.1,5,4.4,7.2,6.9l3.4,4
									c2.6,3,5.6,5.6,8.9,7.7c2.6,1.5,4.5,5.7,4.4,9.3l-0.1,2.5c-0.4,4.2-1.9,8.2-4.4,11.5l-3,3.6c-2.3,2.8-5.9,5.4-8,5.8
									c-4.9,1-7.9,6.7-12.9,6.8c-0.7,0-1.3-0.1-2,0c-0.7,0-1.3,0.2-1.8,0.6c-0.9,0.8-0.6,1.9-0.7,2.9c-0.1,2.2,0,4.4,0.2,6.6
									c0,0.2,0.1,0.4,0.2,0.6c0.2,0.3,0.6,0.3,0.9,0.2c0.3-0.1,0.6-0.4,0.8-0.6c2.4-2.5,5.8-5.5,9.3-6.2c2.3-0.5,4.4-1.4,6.5-2.5
									c1.9-1.1,6.4-2.2,10-2.4l2.2-0.2c3.6-0.2,5.9,0.2,5.1,1c-1.7,2.2-3.3,4.6-4.6,7.1l-1.8,3.1c-0.9,1.5-1.9,2.9-2.9,4.4
									c-0.8,1-1.4,2.1-1.8,3.2c-0.4,1.3,0,2.2,0.1,3.5c0,0.8-0.1,1.6-0.3,2.4c-0.1,0.7-0.2,1.5,0.4,1.8c0.3,0.1,0.7,0.2,1,0.1
									l2.2-0.2c0.6-0.1,1.2,0,1.8,0.2c2.1,1,0.3,4.5-0.5,5.7l-12.5,19.9c-2.5,4-4.1,9.2-7.6,12.5c-0.6,0.6-1.4,1.1-2,1.7
									c-2.2,2.2-2.6,6.3-3.1,9.3c-0.7,3-2.5,5.7-5,7.6c-2.8,2.2-5.1,5.1-6.5,8.3c-0.3,0.7-0.7,1.3-1.1,1.8l7.6,6.9
									C392.2,593.8,394.2,595,396.4,595.9z"/>
							</g>
						</g>
					</g>
				</g>
			</g>
			<path class="st2" d="M234.5,108.1c0.2-0.5,0.4-1,0.6-1.6c0.8-2.7,1.7-5.7,0.6-8.4c-1.1-3-0.9-6.4,0.6-9.3l0.3-0.6
				c1.3-2.9,0.8-6.6-1.2-8.2s-5.5-1.3-7.8,0.9l-3.2,3.1c-2.3,2.2-5,3.9-8,5c-2.1,0.6-4.7,3.5-5.8,6.5l-1.6,4.4
				c-0.7,2-1.2,4.6-0.3,6.6c0.6,1,1.1,2,1.6,3.1c0.7,1.9-0.1,4.3-0.4,6.3l-1.7,8.8c-1.1,5.5-3.2,10.7-6.2,15.4
				c-0.1,0.1-0.1,0.2-0.2,0.3c-0.4,0.5-0.6,1-0.8,1.6c-0.2,0.6,0,1.2,0.4,1.6c0.4,0.3,0.9,0.4,1.4,0.4c2,0,3.7-0.8,5.6-0.8
				c3.2,0,5.9,2.5,6.2,5.7l0.1,1.6c0.2,3.1-0.7,6.2-2,6.8c-2.8,1.2-4.1-1.9-5.7-3.3c-1-0.9-2.4-1.2-3.6-0.6c-0.4,0.3-0.7,0.6-1,1
				c-1,1.3-2.4,3.9-4.3,3.9c-2.3,0-3.7-3.1-4.2-4.9c-0.1-0.4-0.4-1-0.8-1c-0.5,0-0.7,0.7-0.7,1.2c-0.2,2.1-1.2,4.1-1.6,6.2
				c-0.3,1.3-0.6,2.6-0.9,3.9c-0.8,3.7-1.3,7.5-1.7,11.3l-1.2,15.7c-0.2,3.2,2.1,5.1,5.2,4.2l7.8-2.1c3.3-1.1,5.7-3.8,6.3-7.2
				l0.1-0.8c0.6-3.8,1.5-7.5,2.8-11.1l1.5-3.9c1.4-3.3,3.4-6.3,5.9-8.9c2.4-2.5,3.9-5.8,4.4-9.2c0.4-3.8,1.2-7.4,1.5-11.2
				c0.1-0.3,0-0.7-0.1-1c-0.6-1.3-2.4-0.2-3.3-0.9c-0.7-0.6-0.6-2.3-0.5-3.1c0.7-3,1.9-5.9,3.6-8.5l5.8-9.1
				C230,114.9,232.9,111.5,234.5,108.1z"/>
			<text transform="matrix(1 0 0 1 415.5801 330.4)" class="st3 st4 st5">大分県／大分市</text>
			<polyline class="st6" points="593.4,372.6 550.6,334.5 415.1,334.5 			"/>
			<circle class="st3" cx="593.3" cy="372.5" r="3.8"/>
		</g>
	</g>
</g>
<g id="レイヤー_2_2_">
	<path class="st2" d="M681.7,178.9c-2.2-1.4-4-3.2-5.5-5.4l-4.4-7c-1.1-1.8-2.9-4.6-3.9-6.2l-9.1-14c-1.3-1.8-3-3.5-4.9-4.7
		l-1.8-1.1c-0.1,0-0.2-0.1-0.2-0.1h-0.1c-0.2,0-0.3-0.1-0.4-0.2c-0.4-0.1-0.8-0.1-1.2,0.1c-0.7,0.2-1.2,0.8-1.4,1.4l-2.5,6.4
		c-1.1,2.4-3.2,4.1-5.6,4.8l-16.2,3.8c-2.5,0.5-5.2-0.2-7.1-1.8l-4.4-4c-1.8-1.8-2.5-4.5-1.8-7l0.8-2.5c0.4-1.7-0.3-3.5-1.8-4.4
		l-0.3-0.2c-1.8-1-4.7-2.6-6.4-3.8l-1-0.6c-2.1-1.3-3.9-3-5.6-4.8c-1.5-1.8-1.8-4.5-1.1-6.8c0.9-2.2,2.3-4,3.9-5.7
		c1.3-1.4,2-3.2,1.8-5.3l-1.5-17c-0.2-1.6-0.5-3.2-0.9-4.7c-0.6,0.5-1.4,0.8-2.2,0.8c-1-0.2-2-0.4-2.9-0.8l-2.5-1
		c-0.8-0.3-3.1,1.8-5.3,4.7l-2.9,3.7c-2.2,2.8-4.1,6.6-4.6,8.3c-0.4,1.7-2.8,4.8-5.3,6.8c-1.8,1.5-3.7,2.9-5.7,4
		c-0.8,0.4-1.4,1.2-1.6,2.1c-0.6,1.6-1.4,3.1-2.5,4.5c-1.4,2.3-2.3,4.8-2.5,7.5c-0.4,2.6-3.6,5.1-7,5.4l-0.9,0.1
		c-3.6,0.3-7.7,2-9.4,3.8c-1.6,1.8-5.9,3.2-9.4,3.3l-2.8,0.1c-3.6,0.1-6.8,0.5-7.5,0.8c-0.8,0.4-1.8,0.5-2.6,0.5
		c-1.4-0.2-2.8-0.9-3.9-1.8c-2.2-1.8-4.6-3.3-7-4.7c-3.1-1.7-6.7-2.2-10-1.4c-3.9,1.2-4.5,3.7-6.3,6.6c-2.9,4.3-9,6.3-13.9,6
		c-2.5-0.2-4.9,0-5.3,0.3c-0.4,0.4-0.8,0.7-1.3,0.9c-0.4,0.2-0.7,0.6-0.7,1.1c0.1,0.6,0.5,1.2,1.1,1.4c0.9,0.8,1.4,1.8,1.5,3.1
		c0.2,1.4,0.6,4.5,0.8,6.8c0.3,2.6,0.9,5.4,1.8,7.9c1,2.5,1.5,5.1,1.6,7.7c-0.1,2.8-0.8,5.4-2.1,7.9c-1.1,2-2.5,3.8-4.4,5.2
		c-1.2,0.8-1.7,4.3-1,7.7l0.8,3.9c0.7,3.5,1.8,7.8,2.4,9.8c0.6,2.9,0.7,5.9,0.3,8.7c-0.2,1.2-0.3,3-1,3.9c-0.7,1-2.1,1.1-2.8,2.1
		c-0.4,0.8-0.1,1.7,0.6,2.1c1.2,0.9,4.6,2.6,6.1,1.8c1.1-0.6,1.8-1.6,2.1-2.8c0.1-0.9,2.1-3.3,4.5-5.6c2.5-2.5,4.8-5.3,6.9-8.3
		c1.2-2.1,2.8-3.9,4.6-5.4c1.4-0.8,3-1.1,4.6-1.1c1.5,0.1,4.5,2.2,6.6,4.7c1.8,2.2,3.8,4.3,6,6.1c1.5,1.3,2.5,3.1,3,4.9
		c0.4,1.8,1.3,3.5,2.5,4.8c0.9,0.8,2,1.3,3.1,1.4c1.6-0.3,3.2-0.8,4.7-1.4c1.4-0.6,2.8-1,4.3-1.1c0.6,0.1,1.7,1.2,2.5,2.5
		c0.7,1.3,2.2,1.8,3.6,1.7c1.3-0.4,4.4-2.4,6.9-4.6c2.8-2.4,5.3-5.1,7.5-7.9c1.5-2.2,2.6-4.7,2.8-5.4c0.2-1.2,0.6-2.4,1.3-3.3
		c0.4-0.6,1.5-2.2,2.2-1.4s0.4,2.5,0.6,3.3c0.5,1.5,1.5,2.6,2.9,3.5c2,1.4,4.5,2.4,5.4,2.3c1-0.2,1.8-0.7,2.4-1.6
		c0.4-0.7,0.8-1.5,1-2.3c0.1-0.6,1.2-1,2.5-0.9c1.2,0.1,2.5,1.3,3,2.9c0.6,1.6,2.2,2.5,3.9,2.3c1.7-0.3,3.2-1.1,4.4-2.4
		c1-0.8,2.3-0.9,3.2-1.8c0.3-0.3,0.4-0.6,0.7-0.9c1.2-1.4,3.8-1.8,5.4-1.8c3.6-0.4,7-1.1,10.5-2.1l3.6-1c2.5-0.7,4.9-1.1,7.5-1.2
		c1.5-0.1,5.4-0.6,6.7,0.4c0.5,0.4,1.4,2.4,2,4.5c0.9,2.4,2.8,4.3,5.2,5.2c3.2,1.4,6.3,3.2,9,5.6l0.7,0.6c3,2.5,6.3,4.7,9.9,6.3
		c2.8,1.1,7.8,3.1,11.1,4.4l2.5,1c3.8,1.7,7,4.4,9.4,7.8l0.7,1.2c1.8,3.1,3.9,5.4,4.5,5.2s1-3.2,0.8-6.8l-0.3-5.7
		c-0.2-3.6,0.7-6.9,2.1-7.5c1.4-0.6,4-1.8,6-3c2-1.1,3.8-2.5,5.2-4.4c1-1.4,1.5-5.4,1.2-9l-0.6-7.2c-0.3-3.2-0.3-6.6,0-9.8
		c0.4-2,1.5-3.8,3.1-5.1c0.8-0.8,1.4-1.8,1.5-3l0,0L681.7,178.9z"/>
	<path class="st2" d="M886.6,108.6c-1.5-1.8-2.5-4.1-3.1-6.6l-1.7-10.3c-0.5-2.4-1.2-4.6-2.2-6.8l-1.5-3.1c-1.1-2.3-1.8-4.7-2.2-7.4
		l-1.7-14.7c-0.4-2.3-1.2-4.5-2.4-6.3l-5.5-8.2c-1.4-2.2-1.8-4.8-1.2-7.4l4.3-14c0.5-1.8,0-3.9-1.3-5.4l-5.7-5.9
		c-1.4-1.3-2.9-2.3-4.6-3.1h-0.1c-0.4-0.2-0.8-0.3-1.2-0.5L846.6,6c-2.4-0.9-4.4-2.8-5.4-5.1l-0.4-1l-12.4,3.7
		c-2.5,0.6-5.2,0.6-7.6-0.2l-3.7-1.3c-2-0.6-4.1-0.4-6.1,0.6L810.4,3c-2.3,1.2-4.8,1.7-7.5,1.4L793.1,3c-2-0.2-3.9,0.6-5.3,2.1
		l-13.7,16.3c-1.8,1.8-3.9,3.3-6.4,4.1l-3.6,1c-1.8,0.7-3.3,2.1-4,3.9l-0.6,2.1c-0.5,1.8,0.2,3.7,1.7,4.7l3.7,2.5
		c1.8,1.2,2.3,3.6,1.2,5.4c-0.2,0.3-0.4,0.5-0.6,0.7l-1.2,1.2c-1.8,1.8-4.3,3-6.8,3.5l-6.1,1c-2.2,0.5-4.3,1.5-6,2.9l-1.8,1.7
		c-2,1.7-4.5,2.5-7,2.6H727c-2.4,0.1-4.7,0.5-6.9,1.2l-5.9,2.1c-2.5,0.8-5.1,1.1-7.6,0.8L693.7,61c-2-0.1-4,0.6-5.4,2l-13.2,14.4
		c-1.4,1.7-2.4,3.8-2.6,6L670.8,99c-0.4,2.5-1.7,4.8-3.8,6.6l-3.6,2.5c-1.6,1.4-2.8,3.2-3.2,5.4l-0.9,6.8c-0.5,2.5-1.7,4.9-3.5,6.8
		l-0.4,0.4c-1.5,1.6-2.4,3.6-2.6,5.7l-0.4,5.7l0.2,0.1l1.8,1.1c2.2,1.4,4,3.2,5.5,5.3l9.1,14c1.1,1.7,3,4.6,4,6.3l4.4,7
		c1.3,1.8,3,3.5,4.8,4.7l12.4,7.1c0.1-1.1,0.1-2.2,0-3.3l-0.3-3.2c-0.4-3.6,0.8-8.3,2.5-10.5s5.1-6.3,7.2-9.1l6.2-8
		c2.6-3.1,6.4-4.8,10.4-5.3l3.9-0.1c3.6-0.1,7.5-0.3,8.7-0.5c1-0.3,2.1,0.3,2.4,1.3v0.1c0.1,1.3,0.1,2.6-0.1,3.9
		c-0.1,1.8-0.1,3.7,0.2,5.4c0.3,1.8,2.5,5.3,5.1,7.7l1.8,1.8c2.5,2.5,3.8,6.4,2.6,9c-1.7,3.3-3.6,6.6-5.6,9.6l-4.4,6.1
		c-2.1,2.9-3.6,5.7-3.3,6.3s1.3,0.7,2.3,0.1c2-0.9,4-1.5,6.1-2c2.5-0.8,4.3-3.1,4.4-5.7c0.1-3,0.7-5.9,1.8-8.6
		c1.1-2.2,2.5-4.1,4.3-5.9c1.4-1.1,5.4-1.5,8.8-0.9l0.6,0.1c3.5,0.6,7.5,0.4,8.7-0.5c2-1.2,4-2,6.2-2.4c2.4-0.7,4.3-2.6,4.9-5.1
		c0.3-1.8,1-3.6,2-5.1c1.2-1.5,3.6-2,4.9-3.2c1.7-1.4,3.5-2.5,3.9-2.3c0.8,0.3,1.5,0.6,2.2,1.1c0.9,0.5,2,0.8,3,0.6
		c1.7-0.5,3.2-1.4,4.4-2.5c1.4-1.3,5.4-2.5,9-2.6l8.2-0.4c3.2-0.1,6.4-0.6,9.6-1.4c1.4-0.5,2.9-1,4.4-1.3c0.7-0.1,2.3-2.2,3.5-4.6
		c1.2-2.4,4.9-4.1,8.3-3.9c3.2,0.3,6.7,0.2,9.9-0.3c2.4-0.6,4.6-2.1,6-4.1c1.1-1.8,2.3-3.2,2.6-3.3c0.4-0.1,0.5,1.3,0.3,3
		c-0.3,3,3.3,4.7,5.6,5.5c2.8,0.9,5.9,1.1,8.7,0.6c3.8-0.7,6.9-3.2,8.3-6.9c1-3.2,3.2-6.1,4.8-6.4l-1.5-13.3
		C888.8,112.2,887.8,110.2,886.6,108.6z"/>
	<path class="st2" d="M601.2,92.5l1.4,17.1c0.1,2.5-0.8,4.8-2.5,6.7c-1.5,1.5-2.6,3.2-3.5,5.1c-0.5,1.7-0.2,3.6,0.9,5.1
		c1.5,1.7,3.2,3.2,5.2,4.5l1,0.6c1.8,1.1,4.7,2.6,6.4,3.7l0.4,0.2c2.2,1.3,3.2,3.9,2.5,6.3l-0.8,2.5c-0.5,1.8,0.1,3.9,1.4,5.3l4.4,4
		c1.6,1.3,3.6,1.8,5.5,1.5l16.2-3.7c2-0.6,3.6-2,4.5-3.8l2.5-6.6c0.4-1.1,1.3-2,2.5-2.4c0.5-0.2,1-0.2,1.5-0.2l0.3-5.4
		c0.3-2.5,1.4-4.9,3.2-6.8l0.4-0.4c1.5-1.6,2.5-3.6,2.9-5.7l0.9-6.8c0.5-2.5,1.8-4.8,3.8-6.6l3.6-2.5c1.6-1.4,2.6-3.2,3.1-5.4
		l1.7-15.6c0.4-2.5,1.5-4.9,3.2-6.9l13.3-14c1.8-1.8,4.5-2.6,7-2.5l12.9,1.8c2.3,0.2,4.6,0,6.8-0.7l5.9-2.1c2.5-0.8,4.9-1.2,7.5-1.3
		h9.5c2.2-0.1,4.3-0.9,6-2.3l1.8-1.8c2-1.7,4.4-2.8,6.9-3.2l6.1-1c2.2-0.5,4.1-1.5,5.9-3l1-1.3c0.5-0.5,0.8-1.1,0.7-1.8
		s-0.4-1.3-1-1.6l-3.7-2.5c-2.1-1.5-3-4.1-2.4-6.7l0.6-2.1c0.9-2.5,2.8-4.4,5.3-5.2l3.6-1c2.1-0.7,4-2,5.5-3.6L786.7,4
		c1.8-1.8,4.3-2.9,6.8-2.6l9.7,1.4c2.2,0.2,4.5-0.2,6.4-1.2l0.6-0.3c2.3-1.2,4.9-1.4,7.5-0.7l3.7,1.3c2.2,0.6,4.4,0.7,6.6,0.1
		l12.3-3.6L840-2.4c-0.9-2.4,0.1-4.9,2.2-6.2c1.5-0.9,2.3-2.6,2-4.5l-0.7-3.6c-0.6-2.2-1.7-4-3.2-5.6c-0.9-0.7-1.4-1.8-1.2-3
		c0.3-1.1,1.1-2,2.2-2.4l12.6-5.1c1.8-0.9,3.3-2.5,4-4.4l4.1-13.5c0.6-2,1.7-5.2,2.5-7.1l1.3-3.3c0.6-1.8,0.1-3.7-1.3-4.9l-9.2-7.9
		c-1.8-1.8-3.3-3.9-4.3-6.3c-0.2-0.7-0.4-1.5-0.7-2.4c-0.8-2.6-1.7-5.6-0.9-7.7c1.1-2.6,4.4-3.3,7-3.9c0.8-0.2,1.6-0.3,2.2-0.5
		l4.4-1.4c0.1-0.2,0.2-0.4,0.3-0.6c0.4-0.7,0.9-1.7,0.3-2.3c-0.5-0.3-1.1-0.4-1.6-0.2c-3.6,0.7-6.9,1.7-10.4,2.4
		c-1.8,0.4-3.6,0.5-5.4,0.3c-0.9,0-1.7-0.4-2.3-1c-1.2-1.6-2.6-2.8-4.5-3.8c-1.8-1-5.3,0.3-7.7,2.9l-0.1,0.1
		c-2.5,2.5-5.4,4.9-6.2,5.4c-1.8,0.6-3.6,0.8-5.4,0.8c-2.4,0.2-4.6,1.2-6.2,2.9c-1.4,1.5-5.4,3-9,3.3l-3.2,0.3
		c-2.9,0.2-5.7,0.7-8.5,1.4c-2.5,1.4-4.8,3.1-6.9,5.1l-2.4,2c-2.6,2.3-7,4.4-9.6,4.5c-2.1,0.1-4.7-2-6.1-1.4c-2,0.8-2.3,4.4-1.8,6
		c0.5,3.2,0.8,6.3,0.8,9.5v0.2c-0.2,4-1.8,7.8-4.8,10.6L736.9-27c-3.3,2.8-9.4,3.1-12.1,6.8c-2,2.6-3.2,6.7-4.9,9.6
		c-2,3.3-4.6,5.4-7.6,7.5c-3.9,2.8-6.2,7.2-9.8,10.3c-5.4,4.7-12.4,5.7-17.1,11.5c-1.7,2.1-3.9,3.9-4.7,4.4s-2.9,2.2-4.3,3.9
		c-2.5,3.3-6.8,5.4-9.2,8.8c-1.3,1.8-2.2,4.4-4.3,5.4c-0.7,0.3-1.6,0.4-2.3,0.7c-3.3,1.4-4.4,6.3-6.8,8.8c-2.2,2.4-4.7,4.5-5.4,4.7
		c-2.4,0.6-2.4,3.9-4.3,5.1c-0.9,0.5-1.8,0.8-2.8,0.9c-0.7,0.1-1.3,0.3-1.8,0.6c-1,0.8-1.1,2.2-1.6,3.2c-0.8,1.5-2.5,2.1-3.3,3.3
		c-0.6,1-0.7,2.3-1.3,3.3c-1.7,2.9-4.1,5.1-7.1,6.3l-1.2,0.5c-3.9,1.7-8,2.6-12.3,3h-0.9c-3.6,0.2-8.2,1.8-10.1,3.7
		c-0.5,0.5-1.1,1-1.7,1.4c0.1,0.1,0.1,0.2,0.1,0.2C600.5,89,600.9,90.7,601.2,92.5z"/>
</g>
</svg>
