<?xml version="1.0" encoding="utf-8"?>
<!-- Generator: Adobe Illustrator 24.1.0, SVG Export Plug-In . SVG Version: 6.00 Build 0)  -->
<svg version="1.1" id="レイヤー_1" xmlns="http://www.w3.org/2000/svg" xmlns:xlink="http://www.w3.org/1999/xlink" x="0px"
	 y="0px" viewBox="0 0 775 1000" style="enable-background:new 0 0 775 1000;" xml:space="preserve">
<style type="text/css">
	.st0{fill:none;stroke:#DBCAB9;stroke-width:0.25;}
	.st1{fill:#DBCAB9;}
	.st2{fill:#3A4348;}
	.st3{fill:none;stroke:#3A4348;stroke-width:0.5;stroke-miterlimit:10;}
</style>
<g id="レイヤー_1_1_">
	<g>
		<g>
			<g>
				<path class="st0" d="M381.4,475.2c1.7-1.8,4.4-4.7,6-6.5l8.5-9.5c2.1-2.2,4.5-4.2,7.1-5.7l8-4.5c1.8-1.2,2.9-3.2,2.8-5.4
					l-0.7-5.6c-0.4-2.7-1.2-5.4-2.5-7.9l-1.4-2.6c-1-1.8-2.8-2.6-3.9-2.3c-1.6,0.6-2.9,1.9-3.6,3.5c-0.8,2.2-3.6,4.3-6.4,4.9
					l-0.5,0.1c-2.8,0.6-6.3-0.2-7.9-1.8c-1.6-1.4-3.5-2.4-5.5-3c-2.8-0.9-5.3-2.4-7.3-4.5l-1-1c-1.9-1.8-4.2-3-6.8-3.5l-8.9-1.4
					c-2.6-0.3-5.3,0-7.8,1l-1.4,0.6c-2.9,1.2-6,1.7-9.1,1.6l-12.8-0.9c-3.1-0.4-6-2-7.9-4.5l-3.7-5.2c-3.5,8.2-18.2,10-19.7-0.6
					l-0.4-3.2c-0.6-4.2-3-8.8-5.3-10.1c-2.3-1.3-5.8-2-7.8-1.4c-3.5,1.1-4.4,3.9-6.6,6.4c-0.5,0.5-1,1.1-1.3,1.7
					c-1.1,2,5.1,9,1.4,10.2c-1,0.2-2.1,0-3.1-0.5l-2.7-1.1c-1-0.4-2.4-0.7-3,0.2c-0.3,0.6-0.3,1.4,0.1,2c1.2,3.8,2.2,7.6,2.9,11.5
					c0.4,2,0.8,4.1,1.2,6.1c0.2,1.3,0.2,3.8,1.7,4.4s5.1-2,5.1,1.1c0,1.4-2.1,4.4-4.8,6.8c-2.7,2.4-6.3,2.1-8.1-0.4
					c-0.1-0.1-0.2-0.3-0.3-0.4l2.5,15.2c0.4,2.4,1.3,6.2,1.9,8.5l0.7,2.6c0.8,2.7,2,5.2,3.5,7.6l1.9,2.7c1.6,2,3.7,3.5,6.1,4.3
					l5.4,1.4c3,0.9,5.8,2.2,8.2,4.1l3.8,3c2.3,1.8,2.7,5.1,0.9,7.4c-0.1,0.1-0.2,0.3-0.3,0.4l-1.4,1.5c-0.6,0.6-0.9,1.4-0.8,2.3
					c0,0.8,0.4,1.6,1.1,2.2l0.5,0.4c2.2,2.1,4.3,4.4,6,6.9l3.6,5.5c1.5,2,3.6,3.6,6,4.4l3.3,0.9c3,1,5.6,2.8,7.5,5.3l0.1,0.2
					c1.5,1.9,3.7,3.2,6.1,3.6L346,536c0.3-0.4,0.7-0.7,1.1-1c0.5-0.3,0.9-0.7,1.2-1.2c0.4-0.5,0.5-1,0.3-1.6c-0.2-0.4-0.4-0.7-0.8-1
					c-4.4-4.3-6.8-10.8-9.7-16.2c-1.9-3.4-3.7-6.8-5.5-10.2c-2-3.8-0.7-8.5,2.9-10.8l13.4-8.3c3.6-2.2,8.1-2,10.1,0.5
					c1.7,2.1,5.7,3.8,9.4,4.2c1.1-1.8,2.2-3.5,3.5-5.1L381.4,475.2z"/>
				<path class="st0" d="M404.9,521.7l1.3-4.5c1-3,3-5.5,5.6-7.3l8.2-4.8c2.8-1.5,5.9-2.1,9-1.8l2.6,0.4c2,0.2,4-0.9,4.9-2.7
					l0.5-1.2c1.4-2.8,4.2-4.7,7.3-4.8h6.2c3.1,0.2,6.1,1.4,8.4,3.6l1.6,1.7c1.8,1.7,4.2,2.8,6.7,3l7.4,0.3c-1.6-2.5-2.4-5.4-2.1-8.3
					l1.7-13.5c0.3-2.3-0.1-5-0.7-5.8c-1.1-1.8-0.9-5-0.1-7.2c0.8-2.6,1.4-5.2,1.6-7.9l1.1-17.5c0.3-3.1,1.4-6.1,3.1-8.7l1.2-1.6
					c1.5-2.2,2.5-4.8,3-7.4v-0.3c0.6-3.1,2.3-5.8,4.9-7.7l4.6-2.9c2.1-1.3,5.5-3.4,7.7-4.6l4.4-2.5c2.8-1.4,6-1.6,9-0.6
					c2.7,1,5.4,1.9,8.2,2.5l4.7,1c2.3,0.4,4.6,0.1,6.7-1c1.3-0.8,2-3.1,1.5-5l-2.7-10.1c-0.7-3.1-0.3-6.3,1.1-9.1l3.5-5.8
					c-3.8-0.9-7.7-1.7-11.6-2.2c-3.6-0.4-8.4-3.8-10.5-7.4l-7.1-12c-2.4-4.4-4-9.3-4.7-14.3l-0.3-2.6c-0.4-4.2-1.8-9-3.1-10.7
					s-1.6-5.6-0.6-8.6c1.4-4.2,3.1-8.2,5.1-12.1c1.9-3.6,2.5-7.4,1.4-8.5c-1.2-1.2-2.8-1.9-4.4-2c-1.4,0-4.8,2.3-7.6,5
					s-6.3,5.6-7.7,6.3c-2.3,0.9-4.8,1.3-7.2,1.4c-2.9,0-5.7-1.1-7.9-3c-2.1-2-2.4-7.1-5.4-7.6c-1.1-0.1-2.1,0-3.2,0.2
					c-4,0.8-8.5,1.2-12.3,2.8c-2.1,0.6-4.3,0.9-6.5,0.7c-2.3-0.1-6.2,2.6-8.7,6l-0.3,0.4c-3,3.7-7.4,5.9-12.2,6.1l-5.3-0.1
					c-8.6-0.2-18.1,11.4-18.1,19.7v0.7c-0.3,4.2-0.3,8.4-0.1,12.6c0.2,2.7-2,6.6-4.9,8.5c-3.7,2.8-6.9,6.3-9.4,10.2l-4.5,7.3
					c-2.8,3.9-7,6.5-11.7,7.1l-0.9,0.1c-4.8,0.1-9.4-1.8-12.9-5.1l-0.3-0.3c-2.9-3.1-7.7-3.4-10.9-0.5c-3.7,3.4-7.4,5.1-11.8,7.5
					c-1.2,0.6-2.5,1.5-2.7,2.8c-0.4,1.9,1.6,3.3,3.4,4.1s3.8,2,3.8,3.9c0,5.7-10.3,7.7-14.3,7.7c-1.5,0-3.2-0.2-4.4,0.7
					c-1.2,0.9-1.6,2.5-1.9,4l4.9,6.9c1.5,1.9,3.7,3.1,6.1,3.5l12.8,0.9c2.7,0.1,5.4-0.4,7.9-1.4l1.4-0.6c2.9-1.2,6-1.6,9.1-1.2
					l8.9,1.4c3.1,0.6,5.9,2.1,8.2,4.2l1,1c1.7,1.7,3.8,3,6.1,3.8c2.5,0.7,4.7,1.9,6.6,3.6c0.9,0.9,3.5,1.6,5.7,1.1l0.5-0.1
					c2.2-0.5,4.2-2.1,4.6-3.4c1-2.3,2.9-4.1,5.2-5c2.4-0.8,5.4,0.8,6.8,3.5l1.4,2.6c1.4,2.8,2.3,5.7,2.7,8.8l0.6,5.6
					c0.2,3.1-1.3,6.1-4,7.8l-8,4.5c-2.4,1.5-4.6,3.2-6.5,5.2l-8.5,9.5c-1.6,1.8-4.3,4.8-6,6.6l-9.4,10.1c-0.9,1.1-1.7,2.2-2.4,3.4
					l1.8-0.1c4.6,0.1,8.8,2.6,11,6.7l0.6,1.4c1.1,2.7,1.8,5.6,2,8.5c0.3,2.9-1.1,5.4-2.7,7.9c-0.6,0.8-1,1.7-1.2,2.7
					c0,0.9,0.2,1.9,0.7,2.7c0.2,0.4,0.4,0.8,0.7,1.2l16.5,2.9C402.5,524.6,404.3,523.5,404.9,521.7z"/>
				<path class="st0" d="M335.4,687.1l0.4-2c0.7-2.7,2.7-4.8,5.3-5.7l1.5-0.4c2.6-0.9,4.6-3,5.5-5.7c0.9-3.3,1.2-7.3,3.1-10.1
					c0.3-0.5,0.8-1,1.3-0.7c1.1,0.5-0.2,2.5,0.4,3.4c0.5,0.6,1.4,0.6,2,0.1c0.5-0.5,1-1,1.5-1.6c2.7-2.8,6.6-4.1,10.4-3.8
					c2,0.2,3.9,0.6,5.8,1.3c2.4,1,5,1.5,7.5,1.3c5.2-0.7,6.6-5.9,8.5-10c1.5-3.3,3-6.7,4.5-10c1-2.3,0.2-5-2-6.2
					c-2.5-1.2-5.4-1.3-8.1-0.4l-32.4,13.1c-1.8,0.8-3.9,0-4.7-1.8c-0.1-0.3-0.2-0.6-0.3-0.9l-1-5.2c-0.4-2.2-0.6-4.3-0.8-6.5
					c-0.1-1.6,0.1-4.7-0.9-5.9c-0.4-0.5-1.1-0.8-1.7-0.8c-0.7,0-1.3,0.1-1.9,0.3c-1.9,0.6-3.6,1.6-5.5,2.3l-5.9,2l-7,2.4
					c-2.6,1.1-4.7,3.1-5.9,5.7c-1.4,3.7-2.9,7.4-4.3,11.2c-1.2,3-2.3,6.1-3.5,9.1c-1.1,2.9-1.9,6.1-3.3,8.8
					c-0.2,0.5-0.5,0.9-0.8,1.4c-0.8,1.2-1.9,2.4-1.9,3.8c0,1.6,1.3,2.9,2.1,4.2c1.2,2,1.1,4,1.1,6.2l-1.7,11.4
					c-0.6,4,0.4,8.7,3.4,11.5c0.7,0.7,1.6,1.2,2.5,1.4c0.8,0.1,1.6-0.1,2.3-0.4c2.9-1.2,4.7-3.8,7.1-5.8c1.5-1.2,3.1-2.3,4.6-3.5
					l8.2-6.2C333,692.3,334.6,689.8,335.4,687.1z"/>
				<path class="st0" d="M543.5,874.4l1.3-7.3c0.3-2.5-0.1-5.1-1.2-7.4l-1.4-2.5c-1.4-2.1-3.4-3.8-5.7-4.8l-16.4-5.7
					c-2.9-1.2-5.4-3.1-7.3-5.5l-12.7-18.3c-1.7-2.2-3.6-4.2-5.9-5.8l-3.7-2.5c-2.5-1.9-4.4-4.5-5.3-7.5l-3.2-12.8
					c-0.8-2.5-2.1-4.8-4-6.6l-7.4-6.5c-2.2-2.1-4.2-4.4-5.9-7l-7.8-13c-1.2-2.1-3.2-5.6-4.5-7.7l-6.4-11.6l0,0c-1.4-2.5-3.1-4.8-5-7
					l-4-4.5c-1.8-1.9-4.1-3.3-6.6-4l-5.4-1.3c-2.2-0.4-4.5,0.4-6.1,1.9l-3.6,4.1c-2.2,2.3-4.9,3.9-7.9,4.7l-7.4,1.7
					c-3.1,0.6-6.2,0.4-9.2-0.6l-0.7-0.3c-2.9-1.2-5.5-2.8-7.8-4.9l-9-8.2c-2,1.8-4.6,3-7.2,3.5l-16.7,2.3c-3.1,0.6-6.2-1.4-6.8-4.5
					c-0.1-0.7-0.2-1.4,0-2.1l0.2-1.8c0.4-4.2-0.2-9-1.5-10.8c-1.9-2.6-5.2-2-7.9-2.2c-1.2-0.1-2.6-0.2-3.6,0.5
					c-1.3,1-1.3,2.8-1.2,4.4c0.3,5,0.7,10.1,2.8,14.7c1.5,3.2,4.1,7.1,5.8,8.5c1.9,1.6,4.1,2.8,6.5,3.5c2,0.7,3.5,2.4,3.8,4.5
					c0.1,2.5-0.8,4.9-2.4,6.7c-1.5,1.7-2.1,6.5-1.1,10.6l2.3,10.5c0.9,4.8,0.8,9.7-0.2,14.4c-1.2,4.8-2,9.6-2.6,14.5L343,805
					c-0.2,4.8,1.6,9.4,4.9,12.9l9.5,8.7c3.3,3.1,6.1,6.7,8.2,10.7c1.6,4.2,2.5,8.7,2.6,13.2v19.8c0,4.2-1.8,9.9-3.9,12.7
					s-7.2,6.1-11.2,7.4l-0.5,0.2c-3.8,1.3-7.7,2-11.2-0.4c-0.9-0.7-1.9-1.4-2.9-1.8c-1.1-0.3-2.3-0.4-3.5-0.2
					c-0.8,0-1.6,0.2-2.4,0.5s-1.4,0.9-1.6,1.7c-0.2,0.8,0,1.6,0.5,2.3c0.6,1.1,1.2,2.3,1.9,3.3c1.7,2.7,4,5.4,5.1,6
					c3.9,1.9,2.6,8.7,5.6,11.3c1.1,0.9,2.4,1.5,3.5,2.4c0.9,0.6,1.4,1.6,1.4,2.6c-0.2,0.7-0.5,1.4-1,1.9c-0.9,1.4-1.7,3.7-0.9,5.3
					c1.2,2.3,4.6,4.4,7.7,4.8s9,0.7,13.2,0.7h23.2c4.6,0.3,8.9,2.8,11.2,6.9l2.2,4.4c1.9,3.8,6.5,6.9,10.2,6.9s9-2.5,11.9-5.6
					l0.4-0.4c3-3.3,3.3-8.2,0.9-12l-5.3-7.8c-2.8-4.3-5.3-8.7-7.4-13.4l-6.2-13.9c-1.8-4.6-2.3-9.7-1.6-14.6l2.5-12.3
					c1.1-5,3-9.7,5.4-14.2l7.2-12.3c2.2-4,4-8.2,5.2-12.5c0.8-3.2,3.3-7,5.6-8.2c3.4-1.6,7.1-2.5,10.8-2.8c3.6-0.2,9.3,1.6,12.7,4.2
					l3.6,2.7c3.4,2.5,5.5,6.5,4.7,8.8s-2.2,7.5-3.2,11.7l-0.5,2.1c-1,4.1-4.2,7.8-7.3,8.1s-6.3-0.7-7.2-2.2s-2.4-4.2-3.2-5.8
					s-4.9-2.2-9-1.3s-8,2.5-8.7,3.4s-0.5,3.3,0.5,5.1c1.2,2.1,2.8,3.9,4.8,5.3c1.8,1.1,4,1.4,6,1c1.7-0.5,3.5-0.6,5.3-0.4
					c1.3,0.2,2.2,3.9,2,8.1l-0.3,5.4c0,5,1.3,9.8,3.8,14.1l10,15.3c2.4,4.2,3.3,9.1,2.3,13.9c-0.8,3.1-1.6,6.2-2.4,9.4
					c-0.5,1.9-0.8,3.9-1.3,5.8c-1,3.1-2.1,5.5-1.6,8.9c0.3,2.3,0.8,4.3,0.2,6.7c-0.5,2.1-3.6,6-6.9,8.8c-2.8,2.4-5.2,5.5-8.9,6.5
					c-0.8,0.2-1.5,0.4-2.3,0.7s-1.4,0.9-1.7,1.6c-0.2,1,0,2,0.4,2.8c1,2.3,2.7,5.2,1,7.6c-0.6,1.1-0.9,2.2-1.1,3.4
					c-0.4,1.3-1,2.4-1.8,3.5c-0.4,0.5-0.6,1.2-0.5,1.8c0.3,0.8,1.4,1,2.2,0.9c2.7-0.2,5.3-1.2,7.4-3c1.8-1.5,4.4-3,5.5-5.2
					c0.9-1.6,4.8-4.2,8.7-5.8l15.3-6c4.7-2,9.2-4.4,13.4-7.4l3.3-2.5c3.9-3.1,7.3-6.8,10-10.9c2.2-3.7,3.3-7.2,6.9-9.8
					c2.7-1.7,5.1-3.7,7.3-6c1.3-1.5,2.2-3.3,3.5-4.8c0.3-0.3,0.6-0.7,0.7-1.1c0.1-0.8-0.5-1.4-1-2c-1.6-1.9-1.8-4-1.7-6.4
					s-0.2-4.8-0.1-7.3c0-0.3,0-0.8-0.3-1c-0.2-0.1-0.3-0.1-0.5-0.1h-3c-0.8,0-1.5-0.1-2.3-0.3c-2.5-1-3.3-5.9-2.5-8.2
					c1.8-4.5,4.6-8.5,8.2-11.7l3.8-3.2c3.7-2.8,8.6-3.6,13.1-2.2l6,2.3l1.9-2.8C541.7,879.5,542.9,877,543.5,874.4z"/>
				<path class="st0" d="M657.5,576.5c-2.9,0.3-5.7,0.8-8.5,1.5l-6.5,1.8c-2.7,0.8-5.2,2-7.6,3.5l-1.7,1.1c-2.6,1.6-5.6,2.7-8.7,3.1
					l-6.6,0.7c-0.2,0-0.5,0-0.7,0c-2.9-0.1-5.6-1.5-7.3-3.8l-2.2-3.4c-1.6-2.4-3.4-4.6-5.4-6.7l-1.8-1.8c-1.6-1.4-3.9-1.9-6-1.3
					l-6,2.2c-3,1-6.1,1.3-9.2,0.9l-15.8-2.5c-2.1-0.2-4.1,0.8-5.2,2.6l-4.3,8c-1.5,2.7-3.1,5.2-4.9,7.6l-9.4,11.9
					c-1.7,2.3-3.2,4.7-4.4,7.3l-4.8,10.5c-1.4,2.8-3.3,5.3-5.6,7.3l-15.2,12.3c-1.7,1.6-2.7,3.8-2.7,6.2l1.1,14.7
					c0.3,2.3,1.7,4.3,3.6,5.5l5.8,3c2.7,1.6,4.9,3.9,6.2,6.8l3.3,8.3c1.1,3,0.2,6.3-2.1,8.4l-3.7,3.1c-2,1.8-3.7,4-4.8,6.5l-0.7,1.7
					c-0.7,1.8-0.1,3.9,1.5,5l2.4,1.5c2.6,1.8,4.1,4.7,4.3,7.9v1.2c-0.1,3.1-2.3,5.8-5.4,6.5l-8.1,1.5c-2.4,0.6-4.6,2-6.2,4l-0.8,1.2
					c-1.9,2.5-5,3.9-8.1,3.7l-9.4-0.9c-2.2-0.1-4.3,1-5.7,2.8l-0.8,1.3c-1.8,2.6-4.8,4-8,3.8l-7.3-0.8c-2.7-0.2-5.4,0.2-8,1.1
					l-5.2,2.1l3.8,6.8c1.2,2.2,3.2,5.6,4.4,7.7l7.8,13c1.5,2.4,3.3,4.5,5.4,6.5l7.4,6.5c2.3,2.2,3.9,4.9,4.8,7.9l3.2,12.8
					c0.8,2.4,2.2,4.5,4.3,6l3.7,2.5c2.5,1.8,4.7,4,6.6,6.4l12.7,18.3c1.6,2.1,3.7,3.7,6.1,4.7l16.4,5.8c2.9,1.2,5.3,3.2,7,5.9
					l1.4,2.5c1.4,2.8,1.9,6,1.5,9.1l-1.2,7.3c-0.7,3-2,5.9-3.9,8.4l-1.5,2.3l0.4,0.2c3.1,1.2,6.5,2.5,9,4.6c2.4,1.9,4,4.5,6.5,6.4
					l1.3,1c3.4,2.6,7.2,4.3,8.5,3.8s2.4-2.4,2.4-4.3c0.3-2.4,1.4-4.6,3.1-6.2c1.9-2.1,3.1-4.9,3.1-7.7c-0.1-1.7,0.2-3.4,0.9-5
					c0.8-1.3,1.6-2,1.1-3.7c-0.4-1.1-1.1-2.1-1.2-3.3c0-0.8,0.2-1.5,0.5-2.2c0.7-2.3,1.5-4.5,2.4-6.7c0.8-1.3,1.5-2.6,2.1-4
					c1.5-2.9,3.2-5.7,5.1-8.3c2.3-3.2,4.2-8,4.2-10.8c0.3-4.2,1.1-8.4,2.5-12.3l4.3-12.4c0.8-2.1,2.4-8.2,0.6-10.2
					c-0.5-0.6-1.5-0.8-2.2-1.2s-1.2-1-1.7-1.7c-1.3-1.7-2.4-3.2-2.2-5.3c0.1-1.4,0.1-2.9,0-4.3c-0.3-5.1,0.3-10.1,1.9-15
					c1.3-3.8,2.2-7.8,2.5-11.8c0.2-1.8-0.2-3.6,0.2-5.3c0.5-2,1.6-3.8,2.2-5.8c0.5-1.8,0.7-3.8,1.3-5.5c1-2.6,2.6-4.8,3.3-7.6
					c0.5-2.6,1.3-5.1,2.3-7.5c1.2-3.4,2.1-7,2.5-10.6l0.5-3.2c0.8-5.1,2-10,3.5-14.9l0.2-0.7c1.7-4.8,3.7-9.5,6.2-14l4.5-7.9
					c2.1-3.7,3.7-8.7,3.5-11.3c-0.1-2.7,1.3-5.2,3.7-6.6c3.5-1.7,4.1-7.1,4.3-10.4c0.1-3.7,2.1-7.1,5.3-9.1c1-0.6,2-1.2,2.9-2
					s1.3-2,0.9-3.2c-0.5-0.9-1.3-1.6-2.2-2c-2.2-1.5-4.4-7.7-3.6-10.3c0.5-1.8,3.5-5.4,6.8-8.2l3.9-3.3c3.2-2.7,6.3-6.3,6.9-8
					s3.9-4.9,7.5-7.1l1.2-0.7c3.6-2.2,6.2-5.5,5.7-7.4c-0.3-2.2,0.5-4.5,2.2-5.9c1.8-1.5,3.2-3.4,4.1-5.5c0.3-0.8,0.7-1.6,1.2-2.3
					c-2.6-1.6-6.1-3.1-7.4-3L657.5,576.5z"/>
				<path class="st0" d="M701.5,538.7c-3.1-0.6-6.2-1.5-9.2-2.6c-1.8-0.8-5.1-2.1-7.1-1.4c-1.2,0.5-2.5,0.5-3.7,0.3
					c-1.7-0.8,1.6-3.4,1.7-4.2c0-0.6-0.3-1.2-0.9-1.4c-0.6-0.2-1.1-0.4-1.7-0.6c-2.5-1-2.2-2.9-1.6-4.9c0.6-2.4,1-4.8,1.1-7.2
					c0.3-2.1,3.9-4.5,8-5.2c0,0,1.4-0.3,1.7-0.3c1.2-0.1,2.4-0.3,3.6-0.6c0.8,0,1.5-0.2,2.2-0.5s1.1-1,1.2-1.8c0-0.1,0-0.2-0.1-0.3
					c-0.1-0.1-0.3-0.2-0.5-0.2c-3.3-0.2-6.5,0.1-9.7,0.9c-1.8,0.4-3.8,0.1-5.4-0.7c-1.8-0.9-3.8-1.4-5.8-1.5c-1.7,0-2.6-0.9-2-1.9
					c0.7-1.2,1.8-2.3,2.5-3.5c0.5-1,0.7-2.2,1.5-3c0.6-0.6,1.3-1.1,2-1.7c0.2-0.2,0.4-0.4,0.4-0.7s-0.4-0.5-0.8-0.5
					c-2-0.4-3.8,1.1-5.9,0.2c-0.4-0.2-0.8-0.3-1.2-0.5c-0.9-0.1-1.8,0-2.6,0.4c-2.8,0.8-3.9-1.5-4.4-3.8c-0.4-2.6-0.1-5.3,0.8-7.8
					c1.4-3.2,3.4-6.1,5.8-8.6c2.3-2.3,3.6-5,2.8-6c-1.3-1.4-2.8-2.4-4.6-3c-2.4-0.6-4.9-0.4-7.3,0.5c-2.2,0.9-7.3,1.2-11.4,0.8
					s-9.8-1.3-12.8-2c-4.3-0.7-8.8-0.8-13.1-0.4l-2.4,0.2c-4.2,0.5-10.3-0.6-13.5-2.3s-5.8-6.4-5.8-10.5s0.7-8.7,1.6-10.2
					s3.8-2.6,6.4-2.2c2.4,0.4,4.8,0.4,7.2,0c2.3-0.9,4.5-2.1,6.5-3.5c2.3-1.6,4-3.5,3.8-4.4c-0.6-1.4-1.5-2.5-2.7-3.4
					c-1.3-1-1.1-2.2,0.5-2.6c2.4-0.6,4.8-0.1,7.2-0.2c2.8-0.1,4-1.4,5.7-3.5c2.3-2.9,4.5-8.7,4.8-12.9l0.2-2.8
					c0.3-4.2,0.7-10.2,1-13.3s-1.5-8.4-4.1-11.8l-3.8-5.2c-2.2-3-3.7-5.3-4.3-9.1c0-0.6-0.2-1.2-0.6-1.7c-0.6-0.7-1.7-0.6-2.7-0.6
					c-3.3,0.2-6.1-1.1-9.2-2.1c-1.6-0.5-3.5-0.6-4.7,0.5c-0.9,0.7-1.4,1.9-2.5,2.2s-2-0.4-2.9-0.9c-2.5-1.2-5.4-1.2-7.8,0
					c-3.5,1.8-4.8,6-6,9.5c-1.3,3.9-4.6,9-7.4,11.2s-8.4,3.8-12.6,3.6l-14.8-0.9c-4.6-0.3-9.1-1.5-13.3-3.5c-3.1-1.6-6.2-3-9.5-4.2
					l-3.9,6.3c-1.1,2.2-1.4,4.8-0.9,7.2l2.7,10.1c0.8,2.9-0.4,6.3-2.6,7.7c-2.6,1.4-5.6,1.8-8.5,1.3l-4.7-1
					c-2.9-0.7-5.8-1.5-8.6-2.6c-2.3-0.7-4.7-0.5-6.9,0.5l-4.4,2.5c-2.1,1.2-5.5,3.2-7.6,4.5l-4.6,2.9c-2,1.4-3.3,3.5-3.8,5.9v0.3
					c-0.5,3.1-1.7,6-3.5,8.5l-1.2,1.6c-1.5,2.2-2.4,4.7-2.7,7.4L477,461c-0.2,2.9-0.8,5.8-1.8,8.6c-0.7,1.9-0.6,4.2-0.1,5
					c1.1,1.7,1.3,5.1,1,7.5l-1.7,13.5c-0.2,2.5,0.5,5,2,7l0,0l1,1.3l9.3,11.6c1.6,1.8,3.9,3,6.3,3.3l11.8,0.7
					c1.3,0.2,2.5-0.8,2.7-2.1c0-0.2,0-0.5,0-0.7l-0.6-5.4c-0.4-2.5-1.6-4.8-3.4-6.7l-3.6-3.3c-2.2-2.2-3-5.5-2-8.5l1.3-3.4
					c1.3-2.9,3.8-5,6.8-5.9l2.7-0.6c3.1-0.5,6.3,0.3,8.8,2.2l2.2,1.9c2,1.6,4.5,2.5,7,2.6h7.7c2.8,0,5.2,2.2,5.2,5.1
					c0,0.2,0,0.5,0,0.7l-1.1,10.2c-0.1,2.4,0.7,4.9,2.2,6.8l12.7,14.1c2,2.4,2.7,5.7,2,8.7L554,541c-0.5,2.3-0.1,4.8,1.2,6.8
					l4.5,6.4c1.7,2.6,3.1,5.3,4,8.3l2,7.3l13.8,2.2c2.7,0.3,5.4,0,7.9-0.8l6.1-2.2c3-0.9,6.3-0.2,8.6,1.9l1.8,1.8
					c2.1,2.2,4,4.5,5.7,7.1l2.2,3.4c1.3,1.8,3.5,2.8,5.7,2.7l6.6-0.7c2.7-0.4,5.3-1.3,7.6-2.7l1.7-1.1c2.6-1.6,5.4-2.9,8.3-3.8
					l6.5-1.8c2.9-0.8,5.9-1.3,8.9-1.6l11.9-1c1.9-0.2,6,1.5,9.1,3.4c0.3-0.3,0.6-0.6,0.9-0.9c1.5-1.2,3.3-1.9,5.1-2.1
					c1.9-0.2,3.8-0.8,5.3-1.9c1.4-1,2.9-1.9,4.5-2.6c1-0.4,2.5-2.1,3.5-3.9s0.6-3.5-0.8-3.9c-1.2-0.4-2.5-0.5-3.8-0.4
					c-0.7,0.2-1.4-0.7-1.5-1.9s0.7-3.5,1.9-5c1.3-1.7,2.1-3.7,2.5-5.8c0.4-3.4,3.3-5.3,6.1-6.7c0.5-0.3,1.1-0.6,1.1-1.2
					C703.1,539.3,702.2,538.9,701.5,538.7z"/>
				<path class="st0" d="M322.3,532l-0.1-0.2c-1.6-2-3.7-3.5-6.2-4.3l-3.3-0.9c-3-1-5.6-2.9-7.4-5.4l-3.6-5.5
					c-1.6-2.3-3.5-4.5-5.6-6.4l-0.5-0.5c-2.3-2-2.5-5.5-0.5-7.8l0.1-0.1l1.4-1.5c0.6-0.6,0.8-1.4,0.8-2.2c-0.1-0.8-0.5-1.5-1.1-2
					l-3.8-3c-2.2-1.6-4.7-2.9-7.3-3.6l-5.4-1.4c-3-0.9-5.6-2.8-7.5-5.3l-1.9-2.7c-1.7-2.6-3-5.4-3.9-8.3l-0.7-2.6
					c-0.6-2.4-1.5-6.3-1.9-8.8l-3-18.6c-0.9-0.8-2-1.4-3.2-1.7c-2.3-0.1-4.5,0.4-6.5,1.5c-2.1,1-4.6,0.7-6.4-0.8
					c-1.7-1.5-4.1-2.7-5.3-2.7c-2.1,0-4.4,0.6-6.5,0.4c-2.5-0.3-4.8-2-7.2-1.4c-0.3,0.1-0.6,0.2-0.8,0.4c-1,0.8-0.8,2.3-0.4,3.5
					c0.6,1.8,0.9,3.3,1.4,5.2l0.2,0.9c0.9,4.8,0.2,9.7-2.1,14l-2.3,3.9c-2.2,3.6-1.9,7.6,0.7,8.9s6.8,3.4,9.3,4.8s4.9,3.4,5.1,4.5
					c0.9,2,2.1,3.7,3.7,5.2c1.1,1.1,3.1,3.3,2,4.9c-0.4,0.5-1,0.9-1.6,1.1c-1.2,0.5-2.4,0.8-3.7,0.8c-0.4,0.3-0.2,1,0.2,1.4
					c0.5,0.2,1,0.3,1.5,0.3c3.2-0.1,6.1,0.2,8.8-1.9c1.6-1.3,3.7-1.8,5.8-1.6c1.8,0.6,3.1,2.1,3.3,4c0.3,3.2-1.9,5.4-1.8,8.5
					c0,1.6,0.9,3,2.2,3.8c0.3,0.2,0.7,0.3,1,0.2c0.5-0.1,1-0.4,1.4-0.7c3.6-2.5,8.2-0.7,11.7,1c2.6,1.1,5.5,1.5,8.3,1.1
					c2.4-0.4,6.5,1.2,9,3.5s4.9,7.3,5.3,11c0.4,4.4,0.4,8.8,0,13.2c-0.3,3.9,0.8,7.8,3.1,11c2.2,2.6,3.3,5.5,2.6,6.4
					c-0.7,0.9-3,0.9-5.1,0c-2-0.9-4.2-1.4-6.4-1.4c-2.1,0.5-4,1.3-5.7,2.6c-1.7,1.3-5.8,1.2-9.1-0.2c-3.3-1.4-5.9-5.8-5.8-9.9
					c0-3.7,0.4-7.4,1.1-11.1c0.5-1.9,0.9-3.7,1.1-5.7c0-1.3-0.3-2.5-1-3.7c-0.6-0.9-2.6-1.8-4.4-1.9c-2-0.2-4.1,1-6,0.2
					c-1-0.6-1.7-1.4-2.1-2.4c-1.3-2.6,0.1-5.7-1.2-8.5c-1.2-2.5-3.6-3.7-5.3-5.7c-1.1-1.4-2.4-2.6-3.8-3.7c-0.6-0.5-1.4-1-2.1-1.2
					c-0.8-0.2-1.7,0-2.3,0.6c-0.5,0.8-0.7,1.8-0.5,2.8c0.1,4.1-1.5,5.9-3.9,9c-0.2,0.3-0.4,0.6-0.6,1c-0.1,0.3-0.1,0.6-0.1,0.9
					c0,2.1,0.7,4.1,0.9,6.2s-1.3,3.5-3.2,4.5c-0.8,0.4-1.8,0.8-2.2,1.7c-0.1,0.3-0.2,0.7-0.2,1.1c0,4,3.5,9.2,6.1,12
					c1.9,2,4.4,7,5.5,11.1l0.3,1.2c1.1,4.1,2.2,8.8,2.4,10.6s3.5,2.9,7.3,2.5s8.6,2.4,10.6,6.2s4.7,8.7,5.8,11.2
					c1.7,3.5,2.4,6.7,0.7,10.4c-0.7,1.4-1.8,2.6-2.4,4.1c-0.7,1.6-1.2,3.3-1.6,5c-0.6,2.3-1.7,5.8,0.1,7.8c1,1,2.4,1.6,3.8,1.5
					c3.1-0.2,5.1-3.1,6.9-5.3l16.8-20.7c3.3-3.8,7.4-6.9,11.8-9.2l5-2.4c4.6-2,9.6-3.1,14.7-3.2h4.6c4.2,0,9.5,2.6,11.6,5.7
					s1.7,8.3-0.9,11.6c-0.9,1.2-2,2.3-2.9,3.5c-1.3,1.7-3.7,2.8-4.6,4.7c-0.3,0.7-0.4,1.4-0.4,2.2c-0.3,5,1.9,9,5.6,12.2
					c3.1,2.6,7.3,4.1,9.3,3.3c5.4-2.2,7-8.5,12.2-10.5c1.7-0.6,3.6-1.3,4.7-2.7c0.7-0.9,0.9-1.9,1.5-2.8c0.8-1.1,1.9-2.1,2.7-3.2
					l4.7-6.5c2.5-3.4,4.3-8.2,4.1-10.7s-2-7.5-4-11.3l-4-7.6c-2-3.8-6.5-6.9-10.2-7s-9.6,1.6-13.3,3.7l-3.1,1.8
					c-3.7,2.1-7.6,0.5-8.7-3.5l-0.5-1.8c-1-4.5,0.6-9.1,4.2-12l4.1-3c0.5-0.3,0.9-0.7,1.3-1.2l-13.8-1.6
					C327,536.1,324.2,534.5,322.3,532z"/>
				<path class="st0" d="M391.1,734.2l0.7,0.3c2.5,0.8,5.2,0.9,7.8,0.5l7.4-1.7c2.5-0.7,4.8-2.1,6.6-3.9l3.6-4.1
					c2.2-2.3,5.4-3.3,8.5-2.7l5.4,1.3c3,0.8,5.8,2.5,7.9,4.7l4,4.5c2,2.3,3.7,4.8,5.3,7.4l-1.1,0.6l0,0l1.1-0.6l1.4,2.6l5.5-2.2
					c2.9-1,6-1.5,9.1-1.2l7.3,0.8c2.2,0.1,4.3-0.9,5.6-2.7l0.8-1.3c1.8-2.6,4.8-4,8-3.9l9.4,0.9c2.3,0.1,4.4-0.9,5.9-2.7l0.8-1.2
					c1.9-2.5,4.7-4.2,7.7-4.9l8.1-1.5c1.9-0.4,3.3-2.1,3.4-4.1v-1.3c-0.2-2.3-1.3-4.4-3.2-5.8l-2.4-1.5c-2.6-1.8-3.6-5.1-2.5-8
					l0.7-1.7c1.3-2.8,3.2-5.3,5.5-7.4l3.7-3.1c1.5-1.4,2.1-3.6,1.4-5.6l-3.3-8.3c-1.1-2.3-2.8-4.2-5-5.5l-5.8-3
					c-2.7-1.6-4.6-4.3-4.9-7.5l-1.1-14.7c-0.1-3.1,1.2-6.2,3.6-8.3l15.2-12.3c2-1.8,3.7-4,4.9-6.4l4.8-10.5c1.3-2.7,2.9-5.4,4.7-7.8
					l9.1-11.8c1.7-2.3,3.3-4.7,4.7-7.2l4.3-8c1.5-2.5,4.2-4,7-3.9l-1.8-6.3c-0.8-2.7-2-5.2-3.6-7.5l-4.5-6.4
					c-1.7-2.7-2.2-5.9-1.5-8.9l1.6-5.8c0.5-2.3-0.1-4.6-1.5-6.4L539.1,514c-2-2.4-3-5.5-2.8-8.7l1.1-10.2c0.2-1.5-0.8-2.8-2.3-3
					c-0.2,0-0.3,0-0.5,0h-7.7c-3.1-0.1-6.1-1.3-8.6-3.2l-2.2-1.9c-1.9-1.4-4.3-2-6.6-1.7l-2.7,0.6c-2.2,0.7-4,2.2-5,4.3l-1.3,3.4
					c-0.7,2-0.1,4.3,1.4,5.8l3.6,3.3c2.2,2.2,3.7,5.1,4.2,8.2l0.6,5.4c0.4,2.6-1.4,5.1-4.1,5.5c-0.4,0.1-0.8,0.1-1.1,0l-11.8-0.7
					c-3.1-0.3-6-1.8-8.1-4.2l-8.6-10.9l-9.4-0.3c-3.1-0.3-6.1-1.6-8.3-3.8l-1.7-1.7c-1.8-1.7-4.1-2.7-6.6-2.8h-6.2
					c-2.2,0.1-4.1,1.4-5.1,3.3l-0.5,1.2c-1.3,2.8-4.3,4.5-7.5,4.2l-2.6-0.4c-2.6-0.2-5.1,0.3-7.4,1.5l-8.1,4.8
					c-2.1,1.4-3.7,3.4-4.5,5.8l-1.3,4.5c-0.8,2.6-3.2,4.4-5.9,4.5c-0.3,0-0.7,0-1-0.1l-13.6-2.4c0.7,0.8,1.4,1.6,2,2.5
					c1.5,2.5,2.6,5.3,3.2,8.2c0.8,3.5,3,7.3,4.9,8.6c3.1,2.4,6,5.2,8.5,8.2l4,4.7c3.1,3.5,6.6,6.6,10.5,9.1c3,1.8,5.4,6.8,5.2,11
					l-0.1,2.9c-0.4,4.9-2.2,9.6-5.2,13.6l-3.5,4.2c-2.7,3.2-7,6.3-9.5,6.9c-5.8,1.2-9.3,7.9-15.3,8.1c-0.8,0-1.5-0.1-2.3-0.1
					s-1.5,0.3-2.1,0.8c-1,1-0.7,2.2-0.8,3.4c-0.1,2.6,0,5.2,0.2,7.8c0,0.3,0.1,0.5,0.2,0.7c0.3,0.3,0.7,0.4,1.1,0.2s0.7-0.4,0.9-0.7
					c2.8-2.9,6.8-6.5,10.9-7.3c2.7-0.7,5.3-1.7,7.7-3c2.2-1.3,7.5-2.5,11.7-2.8l2.6-0.2c4.2-0.3,6.9,0.2,6,1.2
					c-2.1,2.6-3.9,5.5-5.5,8.4l-2.1,3.8c-1,1.8-2.2,3.5-3.4,5.2c-0.9,1.2-1.6,2.4-2.1,3.8c-0.5,1.5,0,2.6,0.2,4.1
					c0,1-0.1,1.9-0.4,2.9c-0.2,0.8-0.2,1.8,0.4,2.2c0.4,0.2,0.8,0.2,1.2,0.2l2.6-0.2c0.7-0.1,1.4-0.1,2.1,0.2
					c2.4,1.1,0.4,5.3-0.5,6.7L405.1,673c-3,4.7-4.9,10.8-9,14.7c-0.8,0.7-1.7,1.3-2.4,2c-2.7,2.7-3.1,7.4-3.6,10.9
					c-0.5,3-3.1,7-5.9,9c-3.3,2.6-6,6-7.7,9.8c-0.3,0.8-0.8,1.5-1.3,2.2l8.9,8.2C386.1,731.7,388.5,733.1,391.1,734.2z"/>
				<path class="st0" d="M381.4,475.2c1.7-1.8,4.4-4.7,6-6.5l8.5-9.5c2.1-2.2,4.5-4.2,7.1-5.7l8-4.5c1.8-1.2,2.9-3.2,2.8-5.4
					l-0.7-5.6c-0.4-2.7-1.2-5.4-2.5-7.9l-1.4-2.6c-1-1.8-2.8-2.6-3.9-2.3c-1.6,0.6-2.9,1.9-3.6,3.5c-0.8,2.2-3.6,4.3-6.4,4.9
					l-0.5,0.1c-2.8,0.6-6.3-0.2-7.9-1.8c-1.6-1.4-3.5-2.4-5.5-3c-2.8-0.9-5.3-2.4-7.3-4.5l-1-1c-1.9-1.8-4.2-3-6.8-3.5l-8.9-1.4
					c-2.6-0.3-5.3,0-7.8,1l-1.4,0.6c-2.9,1.2-6,1.7-9.1,1.6l-12.8-0.9c-3.1-0.4-6-2-7.9-4.5l-3.7-5.2c-3.5,8.2-18.2,10-19.7-0.6
					l-0.4-3.2c-0.6-4.2-3-8.8-5.3-10.1c-2.3-1.3-5.8-2-7.8-1.4c-3.5,1.1-4.4,3.9-6.6,6.4c-0.5,0.5-1,1.1-1.3,1.7
					c-1.1,2,5.1,9,1.4,10.2c-1,0.2-2.1,0-3.1-0.5l-2.7-1.1c-1-0.4-2.4-0.7-3,0.2c-0.3,0.6-0.3,1.4,0.1,2c1.2,3.8,2.2,7.6,2.9,11.5
					c0.4,2,0.8,4.1,1.2,6.1c0.2,1.3,0.2,3.8,1.7,4.4s5.1-2,5.1,1.1c0,1.4-2.1,4.4-4.8,6.8c-2.7,2.4-6.3,2.1-8.1-0.4
					c-0.1-0.1-0.2-0.3-0.3-0.4l2.5,15.2c0.4,2.4,1.3,6.2,1.9,8.5l0.7,2.6c0.8,2.7,2,5.2,3.5,7.6l1.9,2.7c1.6,2,3.7,3.5,6.1,4.3
					l5.4,1.4c3,0.9,5.8,2.2,8.2,4.1l3.8,3c2.3,1.8,2.7,5.1,0.9,7.4c-0.1,0.1-0.2,0.3-0.3,0.4l-1.4,1.5c-0.6,0.6-0.9,1.4-0.8,2.3
					c0,0.8,0.4,1.6,1.1,2.2l0.5,0.4c2.2,2.1,4.3,4.4,6,6.9l3.6,5.5c1.5,2,3.6,3.6,6,4.4l3.3,0.9c3,1,5.6,2.8,7.5,5.3l0.1,0.2
					c1.5,1.9,3.7,3.2,6.1,3.6L346,536c0.3-0.4,0.7-0.7,1.1-1c0.5-0.3,0.9-0.7,1.2-1.2c0.4-0.5,0.5-1,0.3-1.6c-0.2-0.4-0.4-0.7-0.8-1
					c-4.4-4.3-6.8-10.8-9.7-16.2c-1.9-3.4-3.7-6.8-5.5-10.2c-2-3.8-0.7-8.5,2.9-10.8l13.4-8.3c3.6-2.2,8.1-2,10.1,0.5
					c1.7,2.1,5.7,3.8,9.4,4.2c1.1-1.8,2.2-3.5,3.5-5.1L381.4,475.2z"/>
				<path class="st0" d="M404.9,521.7l1.3-4.5c1-3,3-5.5,5.6-7.3l8.2-4.8c2.8-1.5,5.9-2.1,9-1.8l2.6,0.4c2,0.2,4-0.9,4.9-2.7
					l0.5-1.2c1.4-2.8,4.2-4.7,7.3-4.8h6.2c3.1,0.2,6.1,1.4,8.4,3.6l1.6,1.7c1.8,1.7,4.2,2.8,6.7,3l7.4,0.3c-1.6-2.5-2.4-5.4-2.1-8.3
					l1.7-13.5c0.3-2.3-0.1-5-0.7-5.8c-1.1-1.8-0.9-5-0.1-7.2c0.8-2.6,1.4-5.2,1.6-7.9l1.1-17.5c0.3-3.1,1.4-6.1,3.1-8.7l1.2-1.6
					c1.5-2.2,2.5-4.8,3-7.4v-0.3c0.6-3.1,2.3-5.8,4.9-7.7l4.6-2.9c2.1-1.3,5.5-3.4,7.7-4.6l4.4-2.5c2.8-1.4,6-1.6,9-0.6
					c2.7,1,5.4,1.9,8.2,2.5l4.7,1c2.3,0.4,4.6,0.1,6.7-1c1.3-0.8,2-3.1,1.5-5l-2.7-10.1c-0.7-3.1-0.3-6.3,1.1-9.1l3.5-5.8
					c-3.8-0.9-7.7-1.7-11.6-2.2c-3.6-0.4-8.4-3.8-10.5-7.4l-7.1-12c-2.4-4.4-4-9.3-4.7-14.3l-0.3-2.6c-0.4-4.2-1.8-9-3.1-10.7
					s-1.6-5.6-0.6-8.6c1.4-4.2,3.1-8.2,5.1-12.1c1.9-3.6,2.5-7.4,1.4-8.5c-1.2-1.2-2.8-1.9-4.4-2c-1.4,0-4.8,2.3-7.6,5
					s-6.3,5.6-7.7,6.3c-2.3,0.9-4.8,1.3-7.2,1.4c-2.9,0-5.7-1.1-7.9-3c-2.1-2-2.4-7.1-5.4-7.6c-1.1-0.1-2.1,0-3.2,0.2
					c-4,0.8-8.5,1.2-12.3,2.8c-2.1,0.6-4.3,0.9-6.5,0.7c-2.3-0.1-6.2,2.6-8.7,6l-0.3,0.4c-3,3.7-7.4,5.9-12.2,6.1l-5.3-0.1
					c-8.6-0.2-18.1,11.4-18.1,19.7v0.7c-0.3,4.2-0.3,8.4-0.1,12.6c0.2,2.7-2,6.6-4.9,8.5c-3.7,2.8-6.9,6.3-9.4,10.2l-4.5,7.3
					c-2.8,3.9-7,6.5-11.7,7.1l-0.9,0.1c-4.8,0.1-9.4-1.8-12.9-5.1l-0.3-0.3c-2.9-3.1-7.7-3.4-10.9-0.5c-3.7,3.4-7.4,5.1-11.8,7.5
					c-1.2,0.6-2.5,1.5-2.7,2.8c-0.4,1.9,1.6,3.3,3.4,4.1s3.8,2,3.8,3.9c0,5.7-10.3,7.7-14.3,7.7c-1.5,0-3.2-0.2-4.4,0.7
					c-1.2,0.9-1.6,2.5-1.9,4l4.9,6.9c1.5,1.9,3.7,3.1,6.1,3.5l12.8,0.9c2.7,0.1,5.4-0.4,7.9-1.4l1.4-0.6c2.9-1.2,6-1.6,9.1-1.2
					l8.9,1.4c3.1,0.6,5.9,2.1,8.2,4.2l1,1c1.7,1.7,3.8,3,6.1,3.8c2.5,0.7,4.7,1.9,6.6,3.6c0.9,0.9,3.5,1.6,5.7,1.1l0.5-0.1
					c2.2-0.5,4.2-2.1,4.6-3.4c1-2.3,2.9-4.1,5.2-5c2.4-0.8,5.4,0.8,6.8,3.5l1.4,2.6c1.4,2.8,2.3,5.7,2.7,8.8l0.6,5.6
					c0.2,3.1-1.3,6.1-4,7.8l-8,4.5c-2.4,1.5-4.6,3.2-6.5,5.2l-8.5,9.5c-1.6,1.8-4.3,4.8-6,6.6l-9.4,10.1c-0.9,1.1-1.7,2.2-2.4,3.4
					l1.8-0.1c4.6,0.1,8.8,2.6,11,6.7l0.6,1.4c1.1,2.7,1.8,5.6,2,8.5c0.3,2.9-1.1,5.4-2.7,7.9c-0.6,0.8-1,1.7-1.2,2.7
					c0,0.9,0.2,1.9,0.7,2.7c0.2,0.4,0.4,0.8,0.7,1.2l16.5,2.9C402.5,524.6,404.3,523.5,404.9,521.7z"/>
				<path class="st0" d="M335.4,687.1l0.4-2c0.7-2.7,2.7-4.8,5.3-5.7l1.5-0.4c2.6-0.9,4.6-3,5.5-5.7c0.9-3.3,1.2-7.3,3.1-10.1
					c0.3-0.5,0.8-1,1.3-0.7c1.1,0.5-0.2,2.5,0.4,3.4c0.5,0.6,1.4,0.6,2,0.1c0.5-0.5,1-1,1.5-1.6c2.7-2.8,6.6-4.1,10.4-3.8
					c2,0.2,3.9,0.6,5.8,1.3c2.4,1,5,1.5,7.5,1.3c5.2-0.7,6.6-5.9,8.5-10c1.5-3.3,3-6.7,4.5-10c1-2.3,0.2-5-2-6.2
					c-2.5-1.2-5.4-1.3-8.1-0.4l-32.4,13.1c-1.8,0.8-3.9,0-4.7-1.8c-0.1-0.3-0.2-0.6-0.3-0.9l-1-5.2c-0.4-2.2-0.6-4.3-0.8-6.5
					c-0.1-1.6,0.1-4.7-0.9-5.9c-0.4-0.5-1.1-0.8-1.7-0.8c-0.7,0-1.3,0.1-1.9,0.3c-1.9,0.6-3.6,1.6-5.5,2.3l-5.9,2l-7,2.4
					c-2.6,1.1-4.7,3.1-5.9,5.7c-1.4,3.7-2.9,7.4-4.3,11.2c-1.2,3-2.3,6.1-3.5,9.1c-1.1,2.9-1.9,6.1-3.3,8.8
					c-0.2,0.5-0.5,0.9-0.8,1.4c-0.8,1.2-1.9,2.4-1.9,3.8c0,1.6,1.3,2.9,2.1,4.2c1.2,2,1.1,4,1.1,6.2l-1.7,11.4
					c-0.6,4,0.4,8.7,3.4,11.5c0.7,0.7,1.6,1.2,2.5,1.4c0.8,0.1,1.6-0.1,2.3-0.4c2.9-1.2,4.7-3.8,7.1-5.8c1.5-1.2,3.1-2.3,4.6-3.5
					l8.2-6.2C333,692.3,334.6,689.8,335.4,687.1z"/>
				<path class="st0" d="M543.5,874.4l1.3-7.3c0.3-2.5-0.1-5.1-1.2-7.4l-1.4-2.5c-1.4-2.1-3.4-3.8-5.7-4.8l-16.4-5.7
					c-2.9-1.2-5.4-3.1-7.3-5.5l-12.7-18.3c-1.7-2.2-3.6-4.2-5.9-5.8l-3.7-2.5c-2.5-1.9-4.4-4.5-5.3-7.5l-3.2-12.8
					c-0.8-2.5-2.1-4.8-4-6.6l-7.4-6.5c-2.2-2.1-4.2-4.4-5.9-7l-7.8-13c-1.2-2.1-3.2-5.6-4.5-7.7l-6.4-11.6l0,0c-1.4-2.5-3.1-4.8-5-7
					l-4-4.5c-1.8-1.9-4.1-3.3-6.6-4l-5.4-1.3c-2.2-0.4-4.5,0.4-6.1,1.9l-3.6,4.1c-2.2,2.3-4.9,3.9-7.9,4.7l-7.4,1.7
					c-3.1,0.6-6.2,0.4-9.2-0.6l-0.7-0.3c-2.9-1.2-5.5-2.8-7.8-4.9l-9-8.2c-2,1.8-4.6,3-7.2,3.5l-16.7,2.3c-3.1,0.6-6.2-1.4-6.8-4.5
					c-0.1-0.7-0.2-1.4,0-2.1l0.2-1.8c0.4-4.2-0.2-9-1.5-10.8c-1.9-2.6-5.2-2-7.9-2.2c-1.2-0.1-2.6-0.2-3.6,0.5
					c-1.3,1-1.3,2.8-1.2,4.4c0.3,5,0.7,10.1,2.8,14.7c1.5,3.2,4.1,7.1,5.8,8.5c1.9,1.6,4.1,2.8,6.5,3.5c2,0.7,3.5,2.4,3.8,4.5
					c0.1,2.5-0.8,4.9-2.4,6.7c-1.5,1.7-2.1,6.5-1.1,10.6l2.3,10.5c0.9,4.8,0.8,9.7-0.2,14.4c-1.2,4.8-2,9.6-2.6,14.5L343,805
					c-0.2,4.8,1.6,9.4,4.9,12.9l9.5,8.7c3.3,3.1,6.1,6.7,8.2,10.7c1.6,4.2,2.5,8.7,2.6,13.2v19.8c0,4.2-1.8,9.9-3.9,12.7
					s-7.2,6.1-11.2,7.4l-0.5,0.2c-3.8,1.3-7.7,2-11.2-0.4c-0.9-0.7-1.9-1.4-2.9-1.8c-1.1-0.3-2.3-0.4-3.5-0.2
					c-0.8,0-1.6,0.2-2.4,0.5s-1.4,0.9-1.6,1.7c-0.2,0.8,0,1.6,0.5,2.3c0.6,1.1,1.2,2.3,1.9,3.3c1.7,2.7,4,5.4,5.1,6
					c3.9,1.9,2.6,8.7,5.6,11.3c1.1,0.9,2.4,1.5,3.5,2.4c0.9,0.6,1.4,1.6,1.4,2.6c-0.2,0.7-0.5,1.4-1,1.9c-0.9,1.4-1.7,3.7-0.9,5.3
					c1.2,2.3,4.6,4.4,7.7,4.8s9,0.7,13.2,0.7h23.2c4.6,0.3,8.9,2.8,11.2,6.9l2.2,4.4c1.9,3.8,6.5,6.9,10.2,6.9s9-2.5,11.9-5.6
					l0.4-0.4c3-3.3,3.3-8.2,0.9-12l-5.3-7.8c-2.8-4.3-5.3-8.7-7.4-13.4l-6.2-13.9c-1.8-4.6-2.3-9.7-1.6-14.6l2.5-12.3
					c1.1-5,3-9.7,5.4-14.2l7.2-12.3c2.2-4,4-8.2,5.2-12.5c0.8-3.2,3.3-7,5.6-8.2c3.4-1.6,7.1-2.5,10.8-2.8c3.6-0.2,9.3,1.6,12.7,4.2
					l3.6,2.7c3.4,2.5,5.5,6.5,4.7,8.8s-2.2,7.5-3.2,11.7l-0.5,2.1c-1,4.1-4.2,7.8-7.3,8.1s-6.3-0.7-7.2-2.2s-2.4-4.2-3.2-5.8
					s-4.9-2.2-9-1.3s-8,2.5-8.7,3.4s-0.5,3.3,0.5,5.1c1.2,2.1,2.8,3.9,4.8,5.3c1.8,1.1,4,1.4,6,1c1.7-0.5,3.5-0.6,5.3-0.4
					c1.3,0.2,2.2,3.9,2,8.1l-0.3,5.4c0,5,1.3,9.8,3.8,14.1l10,15.3c2.4,4.2,3.3,9.1,2.3,13.9c-0.8,3.1-1.6,6.2-2.4,9.4
					c-0.5,1.9-0.8,3.9-1.3,5.8c-1,3.1-2.1,5.5-1.6,8.9c0.3,2.3,0.8,4.3,0.2,6.7c-0.5,2.1-3.6,6-6.9,8.8c-2.8,2.4-5.2,5.5-8.9,6.5
					c-0.8,0.2-1.5,0.4-2.3,0.7s-1.4,0.9-1.7,1.6c-0.2,1,0,2,0.4,2.8c1,2.3,2.7,5.2,1,7.6c-0.6,1.1-0.9,2.2-1.1,3.4
					c-0.4,1.3-1,2.4-1.8,3.5c-0.4,0.5-0.6,1.2-0.5,1.8c0.3,0.8,1.4,1,2.2,0.9c2.7-0.2,5.3-1.2,7.4-3c1.8-1.5,4.4-3,5.5-5.2
					c0.9-1.6,4.8-4.2,8.7-5.8l15.3-6c4.7-2,9.2-4.4,13.4-7.4l3.3-2.5c3.9-3.1,7.3-6.8,10-10.9c2.2-3.7,3.3-7.2,6.9-9.8
					c2.7-1.7,5.1-3.7,7.3-6c1.3-1.5,2.2-3.3,3.5-4.8c0.3-0.3,0.6-0.7,0.7-1.1c0.1-0.8-0.5-1.4-1-2c-1.6-1.9-1.8-4-1.7-6.4
					s-0.2-4.8-0.1-7.3c0-0.3,0-0.8-0.3-1c-0.2-0.1-0.3-0.1-0.5-0.1h-3c-0.8,0-1.5-0.1-2.3-0.3c-2.5-1-3.3-5.9-2.5-8.2
					c1.8-4.5,4.6-8.5,8.2-11.7l3.8-3.2c3.7-2.8,8.6-3.6,13.1-2.2l6,2.3l1.9-2.8C541.7,879.5,542.9,877,543.5,874.4z"/>
				<path class="st0" d="M657.5,576.5c-2.9,0.3-5.7,0.8-8.5,1.5l-6.5,1.8c-2.7,0.8-5.2,2-7.6,3.5l-1.7,1.1c-2.6,1.6-5.6,2.7-8.7,3.1
					l-6.6,0.7c-0.2,0-0.5,0-0.7,0c-2.9-0.1-5.6-1.5-7.3-3.8l-2.2-3.4c-1.6-2.4-3.4-4.6-5.4-6.7l-1.8-1.8c-1.6-1.4-3.9-1.9-6-1.3
					l-6,2.2c-3,1-6.1,1.3-9.2,0.9l-15.8-2.5c-2.1-0.2-4.1,0.8-5.2,2.6l-4.3,8c-1.5,2.7-3.1,5.2-4.9,7.6l-9.4,11.9
					c-1.7,2.3-3.2,4.7-4.4,7.3l-4.8,10.5c-1.4,2.8-3.3,5.3-5.6,7.3l-15.2,12.3c-1.7,1.6-2.7,3.8-2.7,6.2l1.1,14.7
					c0.3,2.3,1.7,4.3,3.6,5.5l5.8,3c2.7,1.6,4.9,3.9,6.2,6.8l3.3,8.3c1.1,3,0.2,6.3-2.1,8.4l-3.7,3.1c-2,1.8-3.7,4-4.8,6.5l-0.7,1.7
					c-0.7,1.8-0.1,3.9,1.5,5l2.4,1.5c2.6,1.8,4.1,4.7,4.3,7.9v1.2c-0.1,3.1-2.3,5.8-5.4,6.5l-8.1,1.5c-2.4,0.6-4.6,2-6.2,4l-0.8,1.2
					c-1.9,2.5-5,3.9-8.1,3.7l-9.4-0.9c-2.2-0.1-4.3,1-5.7,2.8l-0.8,1.3c-1.8,2.6-4.8,4-8,3.8l-7.3-0.8c-2.7-0.2-5.4,0.2-8,1.1
					l-5.2,2.1l3.8,6.8c1.2,2.2,3.2,5.6,4.4,7.7l7.8,13c1.5,2.4,3.3,4.5,5.4,6.5l7.4,6.5c2.3,2.2,3.9,4.9,4.8,7.9l3.2,12.8
					c0.8,2.4,2.2,4.5,4.3,6l3.7,2.5c2.5,1.8,4.7,4,6.6,6.4l12.7,18.3c1.6,2.1,3.7,3.7,6.1,4.7l16.4,5.8c2.9,1.2,5.3,3.2,7,5.9
					l1.4,2.5c1.4,2.8,1.9,6,1.5,9.1l-1.2,7.3c-0.7,3-2,5.9-3.9,8.4l-1.5,2.3l0.4,0.2c3.1,1.2,6.5,2.5,9,4.6c2.4,1.9,4,4.5,6.5,6.4
					l1.3,1c3.4,2.6,7.2,4.3,8.5,3.8s2.4-2.4,2.4-4.3c0.3-2.4,1.4-4.6,3.1-6.2c1.9-2.1,3.1-4.9,3.1-7.7c-0.1-1.7,0.2-3.4,0.9-5
					c0.8-1.3,1.6-2,1.1-3.7c-0.4-1.1-1.1-2.1-1.2-3.3c0-0.8,0.2-1.5,0.5-2.2c0.7-2.3,1.5-4.5,2.4-6.7c0.8-1.3,1.5-2.6,2.1-4
					c1.5-2.9,3.2-5.7,5.1-8.3c2.3-3.2,4.2-8,4.2-10.8c0.3-4.2,1.1-8.4,2.5-12.3l4.3-12.4c0.8-2.1,2.4-8.2,0.6-10.2
					c-0.5-0.6-1.5-0.8-2.2-1.2s-1.2-1-1.7-1.7c-1.3-1.7-2.4-3.2-2.2-5.3c0.1-1.4,0.1-2.9,0-4.3c-0.3-5.1,0.3-10.1,1.9-15
					c1.3-3.8,2.2-7.8,2.5-11.8c0.2-1.8-0.2-3.6,0.2-5.3c0.5-2,1.6-3.8,2.2-5.8c0.5-1.8,0.7-3.8,1.3-5.5c1-2.6,2.6-4.8,3.3-7.6
					c0.5-2.6,1.3-5.1,2.3-7.5c1.2-3.4,2.1-7,2.5-10.6l0.5-3.2c0.8-5.1,2-10,3.5-14.9l0.2-0.7c1.7-4.8,3.7-9.5,6.2-14l4.5-7.9
					c2.1-3.7,3.7-8.7,3.5-11.3c-0.1-2.7,1.3-5.2,3.7-6.6c3.5-1.7,4.1-7.1,4.3-10.4c0.1-3.7,2.1-7.1,5.3-9.1c1-0.6,2-1.2,2.9-2
					s1.3-2,0.9-3.2c-0.5-0.9-1.3-1.6-2.2-2c-2.2-1.5-4.4-7.7-3.6-10.3c0.5-1.8,3.5-5.4,6.8-8.2l3.9-3.3c3.2-2.7,6.3-6.3,6.9-8
					s3.9-4.9,7.5-7.1l1.2-0.7c3.6-2.2,6.2-5.5,5.7-7.4c-0.3-2.2,0.5-4.5,2.2-5.9c1.8-1.5,3.2-3.4,4.1-5.5c0.3-0.8,0.7-1.6,1.2-2.3
					c-2.6-1.6-6.1-3.1-7.4-3L657.5,576.5z"/>
				<path class="st0" d="M701.5,538.7c-3.1-0.6-6.2-1.5-9.2-2.6c-1.8-0.8-5.1-2.1-7.1-1.4c-1.2,0.5-2.5,0.5-3.7,0.3
					c-1.7-0.8,1.6-3.4,1.7-4.2c0-0.6-0.3-1.2-0.9-1.4c-0.6-0.2-1.1-0.4-1.7-0.6c-2.5-1-2.2-2.9-1.6-4.9c0.6-2.4,1-4.8,1.1-7.2
					c0.3-2.1,3.9-4.5,8-5.2c0,0,1.4-0.3,1.7-0.3c1.2-0.1,2.4-0.3,3.6-0.6c0.8,0,1.5-0.2,2.2-0.5s1.1-1,1.2-1.8c0-0.1,0-0.2-0.1-0.3
					c-0.1-0.1-0.3-0.2-0.5-0.2c-3.3-0.2-6.5,0.1-9.7,0.9c-1.8,0.4-3.8,0.1-5.4-0.7c-1.8-0.9-3.8-1.4-5.8-1.5c-1.7,0-2.6-0.9-2-1.9
					c0.7-1.2,1.8-2.3,2.5-3.5c0.5-1,0.7-2.2,1.5-3c0.6-0.6,1.3-1.1,2-1.7c0.2-0.2,0.4-0.4,0.4-0.7s-0.4-0.5-0.8-0.5
					c-2-0.4-3.8,1.1-5.9,0.2c-0.4-0.2-0.8-0.3-1.2-0.5c-0.9-0.1-1.8,0-2.6,0.4c-2.8,0.8-3.9-1.5-4.4-3.8c-0.4-2.6-0.1-5.3,0.8-7.8
					c1.4-3.2,3.4-6.1,5.8-8.6c2.3-2.3,3.6-5,2.8-6c-1.3-1.4-2.8-2.4-4.6-3c-2.4-0.6-4.9-0.4-7.3,0.5c-2.2,0.9-7.3,1.2-11.4,0.8
					s-9.8-1.3-12.8-2c-4.3-0.7-8.8-0.8-13.1-0.4l-2.4,0.2c-4.2,0.5-10.3-0.6-13.5-2.3s-5.8-6.4-5.8-10.5s0.7-8.7,1.6-10.2
					s3.8-2.6,6.4-2.2c2.4,0.4,4.8,0.4,7.2,0c2.3-0.9,4.5-2.1,6.5-3.5c2.3-1.6,4-3.5,3.8-4.4c-0.6-1.4-1.5-2.5-2.7-3.4
					c-1.3-1-1.1-2.2,0.5-2.6c2.4-0.6,4.8-0.1,7.2-0.2c2.8-0.1,4-1.4,5.7-3.5c2.3-2.9,4.5-8.7,4.8-12.9l0.2-2.8
					c0.3-4.2,0.7-10.2,1-13.3s-1.5-8.4-4.1-11.8l-3.8-5.2c-2.2-3-3.7-5.3-4.3-9.1c0-0.6-0.2-1.2-0.6-1.7c-0.6-0.7-1.7-0.6-2.7-0.6
					c-3.3,0.2-6.1-1.1-9.2-2.1c-1.6-0.5-3.5-0.6-4.7,0.5c-0.9,0.7-1.4,1.9-2.5,2.2s-2-0.4-2.9-0.9c-2.5-1.2-5.4-1.2-7.8,0
					c-3.5,1.8-4.8,6-6,9.5c-1.3,3.9-4.6,9-7.4,11.2s-8.4,3.8-12.6,3.6l-14.8-0.9c-4.6-0.3-9.1-1.5-13.3-3.5c-3.1-1.6-6.2-3-9.5-4.2
					l-3.9,6.3c-1.1,2.2-1.4,4.8-0.9,7.2l2.7,10.1c0.8,2.9-0.4,6.3-2.6,7.7c-2.6,1.4-5.6,1.8-8.5,1.3l-4.7-1
					c-2.9-0.7-5.8-1.5-8.6-2.6c-2.3-0.7-4.7-0.5-6.9,0.5l-4.4,2.5c-2.1,1.2-5.5,3.2-7.6,4.5l-4.6,2.9c-2,1.4-3.3,3.5-3.8,5.9v0.3
					c-0.5,3.1-1.7,6-3.5,8.5l-1.2,1.6c-1.5,2.2-2.4,4.7-2.7,7.4L477,461c-0.2,2.9-0.8,5.8-1.8,8.6c-0.7,1.9-0.6,4.2-0.1,5
					c1.1,1.7,1.3,5.1,1,7.5l-1.7,13.5c-0.2,2.5,0.5,5,2,7l0,0l1,1.3l9.3,11.6c1.6,1.8,3.9,3,6.3,3.3l11.8,0.7
					c1.3,0.2,2.5-0.8,2.7-2.1c0-0.2,0-0.5,0-0.7l-0.6-5.4c-0.4-2.5-1.6-4.8-3.4-6.7l-3.6-3.3c-2.2-2.2-3-5.5-2-8.5l1.3-3.4
					c1.3-2.9,3.8-5,6.8-5.9l2.7-0.6c3.1-0.5,6.3,0.3,8.8,2.2l2.2,1.9c2,1.6,4.5,2.5,7,2.6h7.7c2.8,0,5.2,2.2,5.2,5.1
					c0,0.2,0,0.5,0,0.7l-1.1,10.2c-0.1,2.4,0.7,4.9,2.2,6.8l12.7,14.1c2,2.4,2.7,5.7,2,8.7L554,541c-0.5,2.3-0.1,4.8,1.2,6.8
					l4.5,6.4c1.7,2.6,3.1,5.3,4,8.3l2,7.3l13.8,2.2c2.7,0.3,5.4,0,7.9-0.8l6.1-2.2c3-0.9,6.3-0.2,8.6,1.9l1.8,1.8
					c2.1,2.2,4,4.5,5.7,7.1l2.2,3.4c1.3,1.8,3.5,2.8,5.7,2.7l6.6-0.7c2.7-0.4,5.3-1.3,7.6-2.7l1.7-1.1c2.6-1.6,5.4-2.9,8.3-3.8
					l6.5-1.8c2.9-0.8,5.9-1.3,8.9-1.6l11.9-1c1.9-0.2,6,1.5,9.1,3.4c0.3-0.3,0.6-0.6,0.9-0.9c1.5-1.2,3.3-1.9,5.1-2.1
					c1.9-0.2,3.8-0.8,5.3-1.9c1.4-1,2.9-1.9,4.5-2.6c1-0.4,2.5-2.1,3.5-3.9s0.6-3.5-0.8-3.9c-1.2-0.4-2.5-0.5-3.8-0.4
					c-0.7,0.2-1.4-0.7-1.5-1.9s0.7-3.5,1.9-5c1.3-1.7,2.1-3.7,2.5-5.8c0.4-3.4,3.3-5.3,6.1-6.7c0.5-0.3,1.1-0.6,1.1-1.2
					C703.1,539.3,702.2,538.9,701.5,538.7z"/>
				<path class="st0" d="M322.3,532l-0.1-0.2c-1.6-2-3.7-3.5-6.2-4.3l-3.3-0.9c-3-1-5.6-2.9-7.4-5.4l-3.6-5.5
					c-1.6-2.3-3.5-4.5-5.6-6.4l-0.5-0.5c-2.3-2-2.5-5.5-0.5-7.8l0.1-0.1l1.4-1.5c0.6-0.6,0.8-1.4,0.8-2.2c-0.1-0.8-0.5-1.5-1.1-2
					l-3.8-3c-2.2-1.6-4.7-2.9-7.3-3.6l-5.4-1.4c-3-0.9-5.6-2.8-7.5-5.3l-1.9-2.7c-1.7-2.6-3-5.4-3.9-8.3l-0.7-2.6
					c-0.6-2.4-1.5-6.3-1.9-8.8l-3-18.6c-0.9-0.8-2-1.4-3.2-1.7c-2.3-0.1-4.5,0.4-6.5,1.5c-2.1,1-4.6,0.7-6.4-0.8
					c-1.7-1.5-4.1-2.7-5.3-2.7c-2.1,0-4.4,0.6-6.5,0.4c-2.5-0.3-4.8-2-7.2-1.4c-0.3,0.1-0.6,0.2-0.8,0.4c-1,0.8-0.8,2.3-0.4,3.5
					c0.6,1.8,0.9,3.3,1.4,5.2l0.2,0.9c0.9,4.8,0.2,9.7-2.1,14l-2.3,3.9c-2.2,3.6-1.9,7.6,0.7,8.9s6.8,3.4,9.3,4.8s4.9,3.4,5.1,4.5
					c0.9,2,2.1,3.7,3.7,5.2c1.1,1.1,3.1,3.3,2,4.9c-0.4,0.5-1,0.9-1.6,1.1c-1.2,0.5-2.4,0.8-3.7,0.8c-0.4,0.3-0.2,1,0.2,1.4
					c0.5,0.2,1,0.3,1.5,0.3c3.2-0.1,6.1,0.2,8.8-1.9c1.6-1.3,3.7-1.8,5.8-1.6c1.8,0.6,3.1,2.1,3.3,4c0.3,3.2-1.9,5.4-1.8,8.5
					c0,1.6,0.9,3,2.2,3.8c0.3,0.2,0.7,0.3,1,0.2c0.5-0.1,1-0.4,1.4-0.7c3.6-2.5,8.2-0.7,11.7,1c2.6,1.1,5.5,1.5,8.3,1.1
					c2.4-0.4,6.5,1.2,9,3.5s4.9,7.3,5.3,11c0.4,4.4,0.4,8.8,0,13.2c-0.3,3.9,0.8,7.8,3.1,11c2.2,2.6,3.3,5.5,2.6,6.4
					c-0.7,0.9-3,0.9-5.1,0c-2-0.9-4.2-1.4-6.4-1.4c-2.1,0.5-4,1.3-5.7,2.6c-1.7,1.3-5.8,1.2-9.1-0.2c-3.3-1.4-5.9-5.8-5.8-9.9
					c0-3.7,0.4-7.4,1.1-11.1c0.5-1.9,0.9-3.7,1.1-5.7c0-1.3-0.3-2.5-1-3.7c-0.6-0.9-2.6-1.8-4.4-1.9c-2-0.2-4.1,1-6,0.2
					c-1-0.6-1.7-1.4-2.1-2.4c-1.3-2.6,0.1-5.7-1.2-8.5c-1.2-2.5-3.6-3.7-5.3-5.7c-1.1-1.4-2.4-2.6-3.8-3.7c-0.6-0.5-1.4-1-2.1-1.2
					c-0.8-0.2-1.7,0-2.3,0.6c-0.5,0.8-0.7,1.8-0.5,2.8c0.1,4.1-1.5,5.9-3.9,9c-0.2,0.3-0.4,0.6-0.6,1c-0.1,0.3-0.1,0.6-0.1,0.9
					c0,2.1,0.7,4.1,0.9,6.2s-1.3,3.5-3.2,4.5c-0.8,0.4-1.8,0.8-2.2,1.7c-0.1,0.3-0.2,0.7-0.2,1.1c0,4,3.5,9.2,6.1,12
					c1.9,2,4.4,7,5.5,11.1l0.3,1.2c1.1,4.1,2.2,8.8,2.4,10.6s3.5,2.9,7.3,2.5s8.6,2.4,10.6,6.2s4.7,8.7,5.8,11.2
					c1.7,3.5,2.4,6.7,0.7,10.4c-0.7,1.4-1.8,2.6-2.4,4.1c-0.7,1.6-1.2,3.3-1.6,5c-0.6,2.3-1.7,5.8,0.1,7.8c1,1,2.4,1.6,3.8,1.5
					c3.1-0.2,5.1-3.1,6.9-5.3l16.8-20.7c3.3-3.8,7.4-6.9,11.8-9.2l5-2.4c4.6-2,9.6-3.1,14.7-3.2h4.6c4.2,0,9.5,2.6,11.6,5.7
					s1.7,8.3-0.9,11.6c-0.9,1.2-2,2.3-2.9,3.5c-1.3,1.7-3.7,2.8-4.6,4.7c-0.3,0.7-0.4,1.4-0.4,2.2c-0.3,5,1.9,9,5.6,12.2
					c3.1,2.6,7.3,4.1,9.3,3.3c5.4-2.2,7-8.5,12.2-10.5c1.7-0.6,3.6-1.3,4.7-2.7c0.7-0.9,0.9-1.9,1.5-2.8c0.8-1.1,1.9-2.1,2.7-3.2
					l4.7-6.5c2.5-3.4,4.3-8.2,4.1-10.7s-2-7.5-4-11.3l-4-7.6c-2-3.8-6.5-6.9-10.2-7s-9.6,1.6-13.3,3.7l-3.1,1.8
					c-3.7,2.1-7.6,0.5-8.7-3.5l-0.5-1.8c-1-4.5,0.6-9.1,4.2-12l4.1-3c0.5-0.3,0.9-0.7,1.3-1.2l-13.8-1.6
					C327,536.1,324.2,534.5,322.3,532z"/>
				<path class="st0" d="M391.1,734.2l0.7,0.3c2.5,0.8,5.2,0.9,7.8,0.5l7.4-1.7c2.5-0.7,4.8-2.1,6.6-3.9l3.6-4.1
					c2.2-2.3,5.4-3.3,8.5-2.7l5.4,1.3c3,0.8,5.8,2.5,7.9,4.7l4,4.5c2,2.3,3.7,4.8,5.3,7.4l-1.1,0.6l0,0l1.1-0.6l1.4,2.6l5.5-2.2
					c2.9-1,6-1.5,9.1-1.2l7.3,0.8c2.2,0.1,4.3-0.9,5.6-2.7l0.8-1.3c1.8-2.6,4.8-4,8-3.9l9.4,0.9c2.3,0.1,4.4-0.9,5.9-2.7l0.8-1.2
					c1.9-2.5,4.7-4.2,7.7-4.9l8.1-1.5c1.9-0.4,3.3-2.1,3.4-4.1v-1.3c-0.2-2.3-1.3-4.4-3.2-5.8l-2.4-1.5c-2.6-1.8-3.6-5.1-2.5-8
					l0.7-1.7c1.3-2.8,3.2-5.3,5.5-7.4l3.7-3.1c1.5-1.4,2.1-3.6,1.4-5.6l-3.3-8.3c-1.1-2.3-2.8-4.2-5-5.5l-5.8-3
					c-2.7-1.6-4.6-4.3-4.9-7.5l-1.1-14.7c-0.1-3.1,1.2-6.2,3.6-8.3l15.2-12.3c2-1.8,3.7-4,4.9-6.4l4.8-10.5c1.3-2.7,2.9-5.4,4.7-7.8
					l9.1-11.8c1.7-2.3,3.3-4.7,4.7-7.2l4.3-8c1.5-2.5,4.2-4,7-3.9l-1.8-6.3c-0.8-2.7-2-5.2-3.6-7.5l-4.5-6.4
					c-1.7-2.7-2.2-5.9-1.5-8.9l1.6-5.8c0.5-2.3-0.1-4.6-1.5-6.4L539.1,514c-2-2.4-3-5.5-2.8-8.7l1.1-10.2c0.2-1.5-0.8-2.8-2.3-3
					c-0.2,0-0.3,0-0.5,0h-7.7c-3.1-0.1-6.1-1.3-8.6-3.2l-2.2-1.9c-1.9-1.4-4.3-2-6.6-1.7l-2.7,0.6c-2.2,0.7-4,2.2-5,4.3l-1.3,3.4
					c-0.7,2-0.1,4.3,1.4,5.8l3.6,3.3c2.2,2.2,3.7,5.1,4.2,8.2l0.6,5.4c0.4,2.6-1.4,5.1-4.1,5.5c-0.4,0.1-0.8,0.1-1.1,0l-11.8-0.7
					c-3.1-0.3-6-1.8-8.1-4.2l-8.6-10.9l-9.4-0.3c-3.1-0.3-6.1-1.6-8.3-3.8l-1.7-1.7c-1.8-1.7-4.1-2.7-6.6-2.8h-6.2
					c-2.2,0.1-4.1,1.4-5.1,3.3l-0.5,1.2c-1.3,2.8-4.3,4.5-7.5,4.2l-2.6-0.4c-2.6-0.2-5.1,0.3-7.4,1.5l-8.1,4.8
					c-2.1,1.4-3.7,3.4-4.5,5.8l-1.3,4.5c-0.8,2.6-3.2,4.4-5.9,4.5c-0.3,0-0.7,0-1-0.1l-13.6-2.4c0.7,0.8,1.4,1.6,2,2.5
					c1.5,2.5,2.6,5.3,3.2,8.2c0.8,3.5,3,7.3,4.9,8.6c3.1,2.4,6,5.2,8.5,8.2l4,4.7c3.1,3.5,6.6,6.6,10.5,9.1c3,1.8,5.4,6.8,5.2,11
					l-0.1,2.9c-0.4,4.9-2.2,9.6-5.2,13.6l-3.5,4.2c-2.7,3.2-7,6.3-9.5,6.9c-5.8,1.2-9.3,7.9-15.3,8.1c-0.8,0-1.5-0.1-2.3-0.1
					s-1.5,0.3-2.1,0.8c-1,1-0.7,2.2-0.8,3.4c-0.1,2.6,0,5.2,0.2,7.8c0,0.3,0.1,0.5,0.2,0.7c0.3,0.3,0.7,0.4,1.1,0.2s0.7-0.4,0.9-0.7
					c2.8-2.9,6.8-6.5,10.9-7.3c2.7-0.7,5.3-1.7,7.7-3c2.2-1.3,7.5-2.5,11.7-2.8l2.6-0.2c4.2-0.3,6.9,0.2,6,1.2
					c-2.1,2.6-3.9,5.5-5.5,8.4l-2.1,3.8c-1,1.8-2.2,3.5-3.4,5.2c-0.9,1.2-1.6,2.4-2.1,3.8c-0.5,1.5,0,2.6,0.2,4.1
					c0,1-0.1,1.9-0.4,2.9c-0.2,0.8-0.2,1.8,0.4,2.2c0.4,0.2,0.8,0.2,1.2,0.2l2.6-0.2c0.7-0.1,1.4-0.1,2.1,0.2
					c2.4,1.1,0.4,5.3-0.5,6.7L405.1,673c-3,4.7-4.9,10.8-9,14.7c-0.8,0.7-1.7,1.3-2.4,2c-2.7,2.7-3.1,7.4-3.6,10.9
					c-0.5,3-3.1,7-5.9,9c-3.3,2.6-6,6-7.7,9.8c-0.3,0.8-0.8,1.5-1.3,2.2l8.9,8.2C386.1,731.7,388.5,733.1,391.1,734.2z"/>
				<path class="st0" d="M381.4,475.2c1.7-1.8,4.4-4.7,6-6.5l8.5-9.5c2.1-2.2,4.5-4.2,7.1-5.7l8-4.5c1.8-1.2,2.9-3.2,2.8-5.4
					l-0.7-5.6c-0.4-2.7-1.2-5.4-2.5-7.9l-1.4-2.6c-1-1.8-2.8-2.6-3.9-2.3c-1.6,0.6-2.9,1.9-3.6,3.5c-0.8,2.2-3.6,4.3-6.4,4.9
					l-0.5,0.1c-2.8,0.6-6.3-0.2-7.9-1.8c-1.6-1.4-3.5-2.4-5.5-3c-2.8-0.9-5.3-2.4-7.3-4.5l-1-1c-1.9-1.8-4.2-3-6.8-3.5l-8.9-1.4
					c-2.6-0.3-5.3,0-7.8,1l-1.4,0.6c-2.9,1.2-6,1.7-9.1,1.6l-12.8-0.9c-3.1-0.4-6-2-7.9-4.5l-3.7-5.2c-3.5,8.2-18.2,10-19.7-0.6
					l-0.4-3.2c-0.6-4.2-3-8.8-5.3-10.1c-2.3-1.3-5.8-2-7.8-1.4c-3.5,1.1-4.4,3.9-6.6,6.4c-0.5,0.5-1,1.1-1.3,1.7
					c-1.1,2,5.1,9,1.4,10.2c-1,0.2-2.1,0-3.1-0.5l-2.7-1.1c-1-0.4-2.4-0.7-3,0.2c-0.3,0.6-0.3,1.4,0.1,2c1.2,3.8,2.2,7.6,2.9,11.5
					c0.4,2,0.8,4.1,1.2,6.1c0.2,1.3,0.2,3.8,1.7,4.4s5.1-2,5.1,1.1c0,1.4-2.1,4.4-4.8,6.8c-2.7,2.4-6.3,2.1-8.1-0.4
					c-0.1-0.1-0.2-0.3-0.3-0.4l2.5,15.2c0.4,2.4,1.3,6.2,1.9,8.5l0.7,2.6c0.8,2.7,2,5.2,3.5,7.6l1.9,2.7c1.6,2,3.7,3.5,6.1,4.3
					l5.4,1.4c3,0.9,5.8,2.2,8.2,4.1l3.8,3c2.3,1.8,2.7,5.1,0.9,7.4c-0.1,0.1-0.2,0.3-0.3,0.4l-1.4,1.5c-0.6,0.6-0.9,1.4-0.8,2.3
					c0,0.8,0.4,1.6,1.1,2.2l0.5,0.4c2.2,2.1,4.3,4.4,6,6.9l3.6,5.5c1.5,2,3.6,3.6,6,4.4l3.3,0.9c3,1,5.6,2.8,7.5,5.3l0.1,0.2
					c1.5,1.9,3.7,3.2,6.1,3.6L346,536c0.3-0.4,0.7-0.7,1.1-1c0.5-0.3,0.9-0.7,1.2-1.2c0.4-0.5,0.5-1,0.3-1.6c-0.2-0.4-0.4-0.7-0.8-1
					c-4.4-4.3-6.8-10.8-9.7-16.2c-1.9-3.4-3.7-6.8-5.5-10.2c-2-3.8-0.7-8.5,2.9-10.8l13.4-8.3c3.6-2.2,8.1-2,10.1,0.5
					c1.7,2.1,5.7,3.8,9.4,4.2c1.1-1.8,2.2-3.5,3.5-5.1L381.4,475.2z"/>
				<path class="st0" d="M404.9,521.7l1.3-4.5c1-3,3-5.5,5.6-7.3l8.2-4.8c2.8-1.5,5.9-2.1,9-1.8l2.6,0.4c2,0.2,4-0.9,4.9-2.7
					l0.5-1.2c1.4-2.8,4.2-4.7,7.3-4.8h6.2c3.1,0.2,6.1,1.4,8.4,3.6l1.6,1.7c1.8,1.7,4.2,2.8,6.7,3l7.4,0.3c-1.6-2.5-2.4-5.4-2.1-8.3
					l1.7-13.5c0.3-2.3-0.1-5-0.7-5.8c-1.1-1.8-0.9-5-0.1-7.2c0.8-2.6,1.4-5.2,1.6-7.9l1.1-17.5c0.3-3.1,1.4-6.1,3.1-8.7l1.2-1.6
					c1.5-2.2,2.5-4.8,3-7.4v-0.3c0.6-3.1,2.3-5.8,4.9-7.7l4.6-2.9c2.1-1.3,5.5-3.4,7.7-4.6l4.4-2.5c2.8-1.4,6-1.6,9-0.6
					c2.7,1,5.4,1.9,8.2,2.5l4.7,1c2.3,0.4,4.6,0.1,6.7-1c1.3-0.8,2-3.1,1.5-5l-2.7-10.1c-0.7-3.1-0.3-6.3,1.1-9.1l3.5-5.8
					c-3.8-0.9-7.7-1.7-11.6-2.2c-3.6-0.4-8.4-3.8-10.5-7.4l-7.1-12c-2.4-4.4-4-9.3-4.7-14.3l-0.3-2.6c-0.4-4.2-1.8-9-3.1-10.7
					s-1.6-5.6-0.6-8.6c1.4-4.2,3.1-8.2,5.1-12.1c1.9-3.6,2.5-7.4,1.4-8.5c-1.2-1.2-2.8-1.9-4.4-2c-1.4,0-4.8,2.3-7.6,5
					s-6.3,5.6-7.7,6.3c-2.3,0.9-4.8,1.3-7.2,1.4c-2.9,0-5.7-1.1-7.9-3c-2.1-2-2.4-7.1-5.4-7.6c-1.1-0.1-2.1,0-3.2,0.2
					c-4,0.8-8.5,1.2-12.3,2.8c-2.1,0.6-4.3,0.9-6.5,0.7c-2.3-0.1-6.2,2.6-8.7,6l-0.3,0.4c-3,3.7-7.4,5.9-12.2,6.1l-5.3-0.1
					c-8.6-0.2-18.1,11.4-18.1,19.7v0.7c-0.3,4.2-0.3,8.4-0.1,12.6c0.2,2.7-2,6.6-4.9,8.5c-3.7,2.8-6.9,6.3-9.4,10.2l-4.5,7.3
					c-2.8,3.9-7,6.5-11.7,7.1l-0.9,0.1c-4.8,0.1-9.4-1.8-12.9-5.1l-0.3-0.3c-2.9-3.1-7.7-3.4-10.9-0.5c-3.7,3.4-7.4,5.1-11.8,7.5
					c-1.2,0.6-2.5,1.5-2.7,2.8c-0.4,1.9,1.6,3.3,3.4,4.1s3.8,2,3.8,3.9c0,5.7-10.3,7.7-14.3,7.7c-1.5,0-3.2-0.2-4.4,0.7
					c-1.2,0.9-1.6,2.5-1.9,4l4.9,6.9c1.5,1.9,3.7,3.1,6.1,3.5l12.8,0.9c2.7,0.1,5.4-0.4,7.9-1.4l1.4-0.6c2.9-1.2,6-1.6,9.1-1.2
					l8.9,1.4c3.1,0.6,5.9,2.1,8.2,4.2l1,1c1.7,1.7,3.8,3,6.1,3.8c2.5,0.7,4.7,1.9,6.6,3.6c0.9,0.9,3.5,1.6,5.7,1.1l0.5-0.1
					c2.2-0.5,4.2-2.1,4.6-3.4c1-2.3,2.9-4.1,5.2-5c2.4-0.8,5.4,0.8,6.8,3.5l1.4,2.6c1.4,2.8,2.3,5.7,2.7,8.8l0.6,5.6
					c0.2,3.1-1.3,6.1-4,7.8l-8,4.5c-2.4,1.5-4.6,3.2-6.5,5.2l-8.5,9.5c-1.6,1.8-4.3,4.8-6,6.6l-9.4,10.1c-0.9,1.1-1.7,2.2-2.4,3.4
					l1.8-0.1c4.6,0.1,8.8,2.6,11,6.7l0.6,1.4c1.1,2.7,1.8,5.6,2,8.5c0.3,2.9-1.1,5.4-2.7,7.9c-0.6,0.8-1,1.7-1.2,2.7
					c0,0.9,0.2,1.9,0.7,2.7c0.2,0.4,0.4,0.8,0.7,1.2l16.5,2.9C402.5,524.6,404.3,523.5,404.9,521.7z"/>
				<path class="st0" d="M335.4,687.1l0.4-2c0.7-2.7,2.7-4.8,5.3-5.7l1.5-0.4c2.6-0.9,4.6-3,5.5-5.7c0.9-3.3,1.2-7.3,3.1-10.1
					c0.3-0.5,0.8-1,1.3-0.7c1.1,0.5-0.2,2.5,0.4,3.4c0.5,0.6,1.4,0.6,2,0.1c0.5-0.5,1-1,1.5-1.6c2.7-2.8,6.6-4.1,10.4-3.8
					c2,0.2,3.9,0.6,5.8,1.3c2.4,1,5,1.5,7.5,1.3c5.2-0.7,6.6-5.9,8.5-10c1.5-3.3,3-6.7,4.5-10c1-2.3,0.2-5-2-6.2
					c-2.5-1.2-5.4-1.3-8.1-0.4l-32.4,13.1c-1.8,0.8-3.9,0-4.7-1.8c-0.1-0.3-0.2-0.6-0.3-0.9l-1-5.2c-0.4-2.2-0.6-4.3-0.8-6.5
					c-0.1-1.6,0.1-4.7-0.9-5.9c-0.4-0.5-1.1-0.8-1.7-0.8c-0.7,0-1.3,0.1-1.9,0.3c-1.9,0.6-3.6,1.6-5.5,2.3l-5.9,2l-7,2.4
					c-2.6,1.1-4.7,3.1-5.9,5.7c-1.4,3.7-2.9,7.4-4.3,11.2c-1.2,3-2.3,6.1-3.5,9.1c-1.1,2.9-1.9,6.1-3.3,8.8
					c-0.2,0.5-0.5,0.9-0.8,1.4c-0.8,1.2-1.9,2.4-1.9,3.8c0,1.6,1.3,2.9,2.1,4.2c1.2,2,1.1,4,1.1,6.2l-1.7,11.4
					c-0.6,4,0.4,8.7,3.4,11.5c0.7,0.7,1.6,1.2,2.5,1.4c0.8,0.1,1.6-0.1,2.3-0.4c2.9-1.2,4.7-3.8,7.1-5.8c1.5-1.2,3.1-2.3,4.6-3.5
					l8.2-6.2C333,692.3,334.6,689.8,335.4,687.1z"/>
				<path class="st0" d="M543.5,874.4l1.3-7.3c0.3-2.5-0.1-5.1-1.2-7.4l-1.4-2.5c-1.4-2.1-3.4-3.8-5.7-4.8l-16.4-5.7
					c-2.9-1.2-5.4-3.1-7.3-5.5l-12.7-18.3c-1.7-2.2-3.6-4.2-5.9-5.8l-3.7-2.5c-2.5-1.9-4.4-4.5-5.3-7.5l-3.2-12.8
					c-0.8-2.5-2.1-4.8-4-6.6l-7.4-6.5c-2.2-2.1-4.2-4.4-5.9-7l-7.8-13c-1.2-2.1-3.2-5.6-4.5-7.7l-6.4-11.6l0,0c-1.4-2.5-3.1-4.8-5-7
					l-4-4.5c-1.8-1.9-4.1-3.3-6.6-4l-5.4-1.3c-2.2-0.4-4.5,0.4-6.1,1.9l-3.6,4.1c-2.2,2.3-4.9,3.9-7.9,4.7l-7.4,1.7
					c-3.1,0.6-6.2,0.4-9.2-0.6l-0.7-0.3c-2.9-1.2-5.5-2.8-7.8-4.9l-9-8.2c-2,1.8-4.6,3-7.2,3.5l-16.7,2.3c-3.1,0.6-6.2-1.4-6.8-4.5
					c-0.1-0.7-0.2-1.4,0-2.1l0.2-1.8c0.4-4.2-0.2-9-1.5-10.8c-1.9-2.6-5.2-2-7.9-2.2c-1.2-0.1-2.6-0.2-3.6,0.5
					c-1.3,1-1.3,2.8-1.2,4.4c0.3,5,0.7,10.1,2.8,14.7c1.5,3.2,4.1,7.1,5.8,8.5c1.9,1.6,4.1,2.8,6.5,3.5c2,0.7,3.5,2.4,3.8,4.5
					c0.1,2.5-0.8,4.9-2.4,6.7c-1.5,1.7-2.1,6.5-1.1,10.6l2.3,10.5c0.9,4.8,0.8,9.7-0.2,14.4c-1.2,4.8-2,9.6-2.6,14.5L343,805
					c-0.2,4.8,1.6,9.4,4.9,12.9l9.5,8.7c3.3,3.1,6.1,6.7,8.2,10.7c1.6,4.2,2.5,8.7,2.6,13.2v19.8c0,4.2-1.8,9.9-3.9,12.7
					s-7.2,6.1-11.2,7.4l-0.5,0.2c-3.8,1.3-7.7,2-11.2-0.4c-0.9-0.7-1.9-1.4-2.9-1.8c-1.1-0.3-2.3-0.4-3.5-0.2
					c-0.8,0-1.6,0.2-2.4,0.5s-1.4,0.9-1.6,1.7c-0.2,0.8,0,1.6,0.5,2.3c0.6,1.1,1.2,2.3,1.9,3.3c1.7,2.7,4,5.4,5.1,6
					c3.9,1.9,2.6,8.7,5.6,11.3c1.1,0.9,2.4,1.5,3.5,2.4c0.9,0.6,1.4,1.6,1.4,2.6c-0.2,0.7-0.5,1.4-1,1.9c-0.9,1.4-1.7,3.7-0.9,5.3
					c1.2,2.3,4.6,4.4,7.7,4.8s9,0.7,13.2,0.7h23.2c4.6,0.3,8.9,2.8,11.2,6.9l2.2,4.4c1.9,3.8,6.5,6.9,10.2,6.9s9-2.5,11.9-5.6
					l0.4-0.4c3-3.3,3.3-8.2,0.9-12l-5.3-7.8c-2.8-4.3-5.3-8.7-7.4-13.4l-6.2-13.9c-1.8-4.6-2.3-9.7-1.6-14.6l2.5-12.3
					c1.1-5,3-9.7,5.4-14.2l7.2-12.3c2.2-4,4-8.2,5.2-12.5c0.8-3.2,3.3-7,5.6-8.2c3.4-1.6,7.1-2.5,10.8-2.8c3.6-0.2,9.3,1.6,12.7,4.2
					l3.6,2.7c3.4,2.5,5.5,6.5,4.7,8.8s-2.2,7.5-3.2,11.7l-0.5,2.1c-1,4.1-4.2,7.8-7.3,8.1s-6.3-0.7-7.2-2.2s-2.4-4.2-3.2-5.8
					s-4.9-2.2-9-1.3s-8,2.5-8.7,3.4s-0.5,3.3,0.5,5.1c1.2,2.1,2.8,3.9,4.8,5.3c1.8,1.1,4,1.4,6,1c1.7-0.5,3.5-0.6,5.3-0.4
					c1.3,0.2,2.2,3.9,2,8.1l-0.3,5.4c0,5,1.3,9.8,3.8,14.1l10,15.3c2.4,4.2,3.3,9.1,2.3,13.9c-0.8,3.1-1.6,6.2-2.4,9.4
					c-0.5,1.9-0.8,3.9-1.3,5.8c-1,3.1-2.1,5.5-1.6,8.9c0.3,2.3,0.8,4.3,0.2,6.7c-0.5,2.1-3.6,6-6.9,8.8c-2.8,2.4-5.2,5.5-8.9,6.5
					c-0.8,0.2-1.5,0.4-2.3,0.7s-1.4,0.9-1.7,1.6c-0.2,1,0,2,0.4,2.8c1,2.3,2.7,5.2,1,7.6c-0.6,1.1-0.9,2.2-1.1,3.4
					c-0.4,1.3-1,2.4-1.8,3.5c-0.4,0.5-0.6,1.2-0.5,1.8c0.3,0.8,1.4,1,2.2,0.9c2.7-0.2,5.3-1.2,7.4-3c1.8-1.5,4.4-3,5.5-5.2
					c0.9-1.6,4.8-4.2,8.7-5.8l15.3-6c4.7-2,9.2-4.4,13.4-7.4l3.3-2.5c3.9-3.1,7.3-6.8,10-10.9c2.2-3.7,3.3-7.2,6.9-9.8
					c2.7-1.7,5.1-3.7,7.3-6c1.3-1.5,2.2-3.3,3.5-4.8c0.3-0.3,0.6-0.7,0.7-1.1c0.1-0.8-0.5-1.4-1-2c-1.6-1.9-1.8-4-1.7-6.4
					s-0.2-4.8-0.1-7.3c0-0.3,0-0.8-0.3-1c-0.2-0.1-0.3-0.1-0.5-0.1h-3c-0.8,0-1.5-0.1-2.3-0.3c-2.5-1-3.3-5.9-2.5-8.2
					c1.8-4.5,4.6-8.5,8.2-11.7l3.8-3.2c3.7-2.8,8.6-3.6,13.1-2.2l6,2.3l1.9-2.8C541.7,879.5,542.9,877,543.5,874.4z"/>
				<path class="st0" d="M657.5,576.5c-2.9,0.3-5.7,0.8-8.5,1.5l-6.5,1.8c-2.7,0.8-5.2,2-7.6,3.5l-1.7,1.1c-2.6,1.6-5.6,2.7-8.7,3.1
					l-6.6,0.7c-0.2,0-0.5,0-0.7,0c-2.9-0.1-5.6-1.5-7.3-3.8l-2.2-3.4c-1.6-2.4-3.4-4.6-5.4-6.7l-1.8-1.8c-1.6-1.4-3.9-1.9-6-1.3
					l-6,2.2c-3,1-6.1,1.3-9.2,0.9l-15.8-2.5c-2.1-0.2-4.1,0.8-5.2,2.6l-4.3,8c-1.5,2.7-3.1,5.2-4.9,7.6l-9.4,11.9
					c-1.7,2.3-3.2,4.7-4.4,7.3l-4.8,10.5c-1.4,2.8-3.3,5.3-5.6,7.3l-15.2,12.3c-1.7,1.6-2.7,3.8-2.7,6.2l1.1,14.7
					c0.3,2.3,1.7,4.3,3.6,5.5l5.8,3c2.7,1.6,4.9,3.9,6.2,6.8l3.3,8.3c1.1,3,0.2,6.3-2.1,8.4l-3.7,3.1c-2,1.8-3.7,4-4.8,6.5l-0.7,1.7
					c-0.7,1.8-0.1,3.9,1.5,5l2.4,1.5c2.6,1.8,4.1,4.7,4.3,7.9v1.2c-0.1,3.1-2.3,5.8-5.4,6.5l-8.1,1.5c-2.4,0.6-4.6,2-6.2,4l-0.8,1.2
					c-1.9,2.5-5,3.9-8.1,3.7l-9.4-0.9c-2.2-0.1-4.3,1-5.7,2.8l-0.8,1.3c-1.8,2.6-4.8,4-8,3.8l-7.3-0.8c-2.7-0.2-5.4,0.2-8,1.1
					l-5.2,2.1l3.8,6.8c1.2,2.2,3.2,5.6,4.4,7.7l7.8,13c1.5,2.4,3.3,4.5,5.4,6.5l7.4,6.5c2.3,2.2,3.9,4.9,4.8,7.9l3.2,12.8
					c0.8,2.4,2.2,4.5,4.3,6l3.7,2.5c2.5,1.8,4.7,4,6.6,6.4l12.7,18.3c1.6,2.1,3.7,3.7,6.1,4.7l16.4,5.8c2.9,1.2,5.3,3.2,7,5.9
					l1.4,2.5c1.4,2.8,1.9,6,1.5,9.1l-1.2,7.3c-0.7,3-2,5.9-3.9,8.4l-1.5,2.3l0.4,0.2c3.1,1.2,6.5,2.5,9,4.6c2.4,1.9,4,4.5,6.5,6.4
					l1.3,1c3.4,2.6,7.2,4.3,8.5,3.8s2.4-2.4,2.4-4.3c0.3-2.4,1.4-4.6,3.1-6.2c1.9-2.1,3.1-4.9,3.1-7.7c-0.1-1.7,0.2-3.4,0.9-5
					c0.8-1.3,1.6-2,1.1-3.7c-0.4-1.1-1.1-2.1-1.2-3.3c0-0.8,0.2-1.5,0.5-2.2c0.7-2.3,1.5-4.5,2.4-6.7c0.8-1.3,1.5-2.6,2.1-4
					c1.5-2.9,3.2-5.7,5.1-8.3c2.3-3.2,4.2-8,4.2-10.8c0.3-4.2,1.1-8.4,2.5-12.3l4.3-12.4c0.8-2.1,2.4-8.2,0.6-10.2
					c-0.5-0.6-1.5-0.8-2.2-1.2s-1.2-1-1.7-1.7c-1.3-1.7-2.4-3.2-2.2-5.3c0.1-1.4,0.1-2.9,0-4.3c-0.3-5.1,0.3-10.1,1.9-15
					c1.3-3.8,2.2-7.8,2.5-11.8c0.2-1.8-0.2-3.6,0.2-5.3c0.5-2,1.6-3.8,2.2-5.8c0.5-1.8,0.7-3.8,1.3-5.5c1-2.6,2.6-4.8,3.3-7.6
					c0.5-2.6,1.3-5.1,2.3-7.5c1.2-3.4,2.1-7,2.5-10.6l0.5-3.2c0.8-5.1,2-10,3.5-14.9l0.2-0.7c1.7-4.8,3.7-9.5,6.2-14l4.5-7.9
					c2.1-3.7,3.7-8.7,3.5-11.3c-0.1-2.7,1.3-5.2,3.7-6.6c3.5-1.7,4.1-7.1,4.3-10.4c0.1-3.7,2.1-7.1,5.3-9.1c1-0.6,2-1.2,2.9-2
					s1.3-2,0.9-3.2c-0.5-0.9-1.3-1.6-2.2-2c-2.2-1.5-4.4-7.7-3.6-10.3c0.5-1.8,3.5-5.4,6.8-8.2l3.9-3.3c3.2-2.7,6.3-6.3,6.9-8
					s3.9-4.9,7.5-7.1l1.2-0.7c3.6-2.2,6.2-5.5,5.7-7.4c-0.3-2.2,0.5-4.5,2.2-5.9c1.8-1.5,3.2-3.4,4.1-5.5c0.3-0.8,0.7-1.6,1.2-2.3
					c-2.6-1.6-6.1-3.1-7.4-3L657.5,576.5z"/>
				<path class="st0" d="M701.5,538.7c-3.1-0.6-6.2-1.5-9.2-2.6c-1.8-0.8-5.1-2.1-7.1-1.4c-1.2,0.5-2.5,0.5-3.7,0.3
					c-1.7-0.8,1.6-3.4,1.7-4.2c0-0.6-0.3-1.2-0.9-1.4c-0.6-0.2-1.1-0.4-1.7-0.6c-2.5-1-2.2-2.9-1.6-4.9c0.6-2.4,1-4.8,1.1-7.2
					c0.3-2.1,3.9-4.5,8-5.2c0,0,1.4-0.3,1.7-0.3c1.2-0.1,2.4-0.3,3.6-0.6c0.8,0,1.5-0.2,2.2-0.5s1.1-1,1.2-1.8c0-0.1,0-0.2-0.1-0.3
					c-0.1-0.1-0.3-0.2-0.5-0.2c-3.3-0.2-6.5,0.1-9.7,0.9c-1.8,0.4-3.8,0.1-5.4-0.7c-1.8-0.9-3.8-1.4-5.8-1.5c-1.7,0-2.6-0.9-2-1.9
					c0.7-1.2,1.8-2.3,2.5-3.5c0.5-1,0.7-2.2,1.5-3c0.6-0.6,1.3-1.1,2-1.7c0.2-0.2,0.4-0.4,0.4-0.7s-0.4-0.5-0.8-0.5
					c-2-0.4-3.8,1.1-5.9,0.2c-0.4-0.2-0.8-0.3-1.2-0.5c-0.9-0.1-1.8,0-2.6,0.4c-2.8,0.8-3.9-1.5-4.4-3.8c-0.4-2.6-0.1-5.3,0.8-7.8
					c1.4-3.2,3.4-6.1,5.8-8.6c2.3-2.3,3.6-5,2.8-6c-1.3-1.4-2.8-2.4-4.6-3c-2.4-0.6-4.9-0.4-7.3,0.5c-2.2,0.9-7.3,1.2-11.4,0.8
					s-9.8-1.3-12.8-2c-4.3-0.7-8.8-0.8-13.1-0.4l-2.4,0.2c-4.2,0.5-10.3-0.6-13.5-2.3s-5.8-6.4-5.8-10.5s0.7-8.7,1.6-10.2
					s3.8-2.6,6.4-2.2c2.4,0.4,4.8,0.4,7.2,0c2.3-0.9,4.5-2.1,6.5-3.5c2.3-1.6,4-3.5,3.8-4.4c-0.6-1.4-1.5-2.5-2.7-3.4
					c-1.3-1-1.1-2.2,0.5-2.6c2.4-0.6,4.8-0.1,7.2-0.2c2.8-0.1,4-1.4,5.7-3.5c2.3-2.9,4.5-8.7,4.8-12.9l0.2-2.8
					c0.3-4.2,0.7-10.2,1-13.3s-1.5-8.4-4.1-11.8l-3.8-5.2c-2.2-3-3.7-5.3-4.3-9.1c0-0.6-0.2-1.2-0.6-1.7c-0.6-0.7-1.7-0.6-2.7-0.6
					c-3.3,0.2-6.1-1.1-9.2-2.1c-1.6-0.5-3.5-0.6-4.7,0.5c-0.9,0.7-1.4,1.9-2.5,2.2s-2-0.4-2.9-0.9c-2.5-1.2-5.4-1.2-7.8,0
					c-3.5,1.8-4.8,6-6,9.5c-1.3,3.9-4.6,9-7.4,11.2s-8.4,3.8-12.6,3.6l-14.8-0.9c-4.6-0.3-9.1-1.5-13.3-3.5c-3.1-1.6-6.2-3-9.5-4.2
					l-3.9,6.3c-1.1,2.2-1.4,4.8-0.9,7.2l2.7,10.1c0.8,2.9-0.4,6.3-2.6,7.7c-2.6,1.4-5.6,1.8-8.5,1.3l-4.7-1
					c-2.9-0.7-5.8-1.5-8.6-2.6c-2.3-0.7-4.7-0.5-6.9,0.5l-4.4,2.5c-2.1,1.2-5.5,3.2-7.6,4.5l-4.6,2.9c-2,1.4-3.3,3.5-3.8,5.9v0.3
					c-0.5,3.1-1.7,6-3.5,8.5l-1.2,1.6c-1.5,2.2-2.4,4.7-2.7,7.4L477,461c-0.2,2.9-0.8,5.8-1.8,8.6c-0.7,1.9-0.6,4.2-0.1,5
					c1.1,1.7,1.3,5.1,1,7.5l-1.7,13.5c-0.2,2.5,0.5,5,2,7l0,0l1,1.3l9.3,11.6c1.6,1.8,3.9,3,6.3,3.3l11.8,0.7
					c1.3,0.2,2.5-0.8,2.7-2.1c0-0.2,0-0.5,0-0.7l-0.6-5.4c-0.4-2.5-1.6-4.8-3.4-6.7l-3.6-3.3c-2.2-2.2-3-5.5-2-8.5l1.3-3.4
					c1.3-2.9,3.8-5,6.8-5.9l2.7-0.6c3.1-0.5,6.3,0.3,8.8,2.2l2.2,1.9c2,1.6,4.5,2.5,7,2.6h7.7c2.8,0,5.2,2.2,5.2,5.1
					c0,0.2,0,0.5,0,0.7l-1.1,10.2c-0.1,2.4,0.7,4.9,2.2,6.8l12.7,14.1c2,2.4,2.7,5.7,2,8.7L554,541c-0.5,2.3-0.1,4.8,1.2,6.8
					l4.5,6.4c1.7,2.6,3.1,5.3,4,8.3l2,7.3l13.8,2.2c2.7,0.3,5.4,0,7.9-0.8l6.1-2.2c3-0.9,6.3-0.2,8.6,1.9l1.8,1.8
					c2.1,2.2,4,4.5,5.7,7.1l2.2,3.4c1.3,1.8,3.5,2.8,5.7,2.7l6.6-0.7c2.7-0.4,5.3-1.3,7.6-2.7l1.7-1.1c2.6-1.6,5.4-2.9,8.3-3.8
					l6.5-1.8c2.9-0.8,5.9-1.3,8.9-1.6l11.9-1c1.9-0.2,6,1.5,9.1,3.4c0.3-0.3,0.6-0.6,0.9-0.9c1.5-1.2,3.3-1.9,5.1-2.1
					c1.9-0.2,3.8-0.8,5.3-1.9c1.4-1,2.9-1.9,4.5-2.6c1-0.4,2.5-2.1,3.5-3.9s0.6-3.5-0.8-3.9c-1.2-0.4-2.5-0.5-3.8-0.4
					c-0.7,0.2-1.4-0.7-1.5-1.9s0.7-3.5,1.9-5c1.3-1.7,2.1-3.7,2.5-5.8c0.4-3.4,3.3-5.3,6.1-6.7c0.5-0.3,1.1-0.6,1.1-1.2
					C703.1,539.3,702.2,538.9,701.5,538.7z"/>
				<path class="st0" d="M322.3,532l-0.1-0.2c-1.6-2-3.7-3.5-6.2-4.3l-3.3-0.9c-3-1-5.6-2.9-7.4-5.4l-3.6-5.5
					c-1.6-2.3-3.5-4.5-5.6-6.4l-0.5-0.5c-2.3-2-2.5-5.5-0.5-7.8l0.1-0.1l1.4-1.5c0.6-0.6,0.8-1.4,0.8-2.2c-0.1-0.8-0.5-1.5-1.1-2
					l-3.8-3c-2.2-1.6-4.7-2.9-7.3-3.6l-5.4-1.4c-3-0.9-5.6-2.8-7.5-5.3l-1.9-2.7c-1.7-2.6-3-5.4-3.9-8.3l-0.7-2.6
					c-0.6-2.4-1.5-6.3-1.9-8.8l-3-18.6c-0.9-0.8-2-1.4-3.2-1.7c-2.3-0.1-4.5,0.4-6.5,1.5c-2.1,1-4.6,0.7-6.4-0.8
					c-1.7-1.5-4.1-2.7-5.3-2.7c-2.1,0-4.4,0.6-6.5,0.4c-2.5-0.3-4.8-2-7.2-1.4c-0.3,0.1-0.6,0.2-0.8,0.4c-1,0.8-0.8,2.3-0.4,3.5
					c0.6,1.8,0.9,3.3,1.4,5.2l0.2,0.9c0.9,4.8,0.2,9.7-2.1,14l-2.3,3.9c-2.2,3.6-1.9,7.6,0.7,8.9s6.8,3.4,9.3,4.8s4.9,3.4,5.1,4.5
					c0.9,2,2.1,3.7,3.7,5.2c1.1,1.1,3.1,3.3,2,4.9c-0.4,0.5-1,0.9-1.6,1.1c-1.2,0.5-2.4,0.8-3.7,0.8c-0.4,0.3-0.2,1,0.2,1.4
					c0.5,0.2,1,0.3,1.5,0.3c3.2-0.1,6.1,0.2,8.8-1.9c1.6-1.3,3.7-1.8,5.8-1.6c1.8,0.6,3.1,2.1,3.3,4c0.3,3.2-1.9,5.4-1.8,8.5
					c0,1.6,0.9,3,2.2,3.8c0.3,0.2,0.7,0.3,1,0.2c0.5-0.1,1-0.4,1.4-0.7c3.6-2.5,8.2-0.7,11.7,1c2.6,1.1,5.5,1.5,8.3,1.1
					c2.4-0.4,6.5,1.2,9,3.5s4.9,7.3,5.3,11c0.4,4.4,0.4,8.8,0,13.2c-0.3,3.9,0.8,7.8,3.1,11c2.2,2.6,3.3,5.5,2.6,6.4
					c-0.7,0.9-3,0.9-5.1,0c-2-0.9-4.2-1.4-6.4-1.4c-2.1,0.5-4,1.3-5.7,2.6c-1.7,1.3-5.8,1.2-9.1-0.2c-3.3-1.4-5.9-5.8-5.8-9.9
					c0-3.7,0.4-7.4,1.1-11.1c0.5-1.9,0.9-3.7,1.1-5.7c0-1.3-0.3-2.5-1-3.7c-0.6-0.9-2.6-1.8-4.4-1.9c-2-0.2-4.1,1-6,0.2
					c-1-0.6-1.7-1.4-2.1-2.4c-1.3-2.6,0.1-5.7-1.2-8.5c-1.2-2.5-3.6-3.7-5.3-5.7c-1.1-1.4-2.4-2.6-3.8-3.7c-0.6-0.5-1.4-1-2.1-1.2
					c-0.8-0.2-1.7,0-2.3,0.6c-0.5,0.8-0.7,1.8-0.5,2.8c0.1,4.1-1.5,5.9-3.9,9c-0.2,0.3-0.4,0.6-0.6,1c-0.1,0.3-0.1,0.6-0.1,0.9
					c0,2.1,0.7,4.1,0.9,6.2s-1.3,3.5-3.2,4.5c-0.8,0.4-1.8,0.8-2.2,1.7c-0.1,0.3-0.2,0.7-0.2,1.1c0,4,3.5,9.2,6.1,12
					c1.9,2,4.4,7,5.5,11.1l0.3,1.2c1.1,4.1,2.2,8.8,2.4,10.6s3.5,2.9,7.3,2.5s8.6,2.4,10.6,6.2s4.7,8.7,5.8,11.2
					c1.7,3.5,2.4,6.7,0.7,10.4c-0.7,1.4-1.8,2.6-2.4,4.1c-0.7,1.6-1.2,3.3-1.6,5c-0.6,2.3-1.7,5.8,0.1,7.8c1,1,2.4,1.6,3.8,1.5
					c3.1-0.2,5.1-3.1,6.9-5.3l16.8-20.7c3.3-3.8,7.4-6.9,11.8-9.2l5-2.4c4.6-2,9.6-3.1,14.7-3.2h4.6c4.2,0,9.5,2.6,11.6,5.7
					s1.7,8.3-0.9,11.6c-0.9,1.2-2,2.3-2.9,3.5c-1.3,1.7-3.7,2.8-4.6,4.7c-0.3,0.7-0.4,1.4-0.4,2.2c-0.3,5,1.9,9,5.6,12.2
					c3.1,2.6,7.3,4.1,9.3,3.3c5.4-2.2,7-8.5,12.2-10.5c1.7-0.6,3.6-1.3,4.7-2.7c0.7-0.9,0.9-1.9,1.5-2.8c0.8-1.1,1.9-2.1,2.7-3.2
					l4.7-6.5c2.5-3.4,4.3-8.2,4.1-10.7s-2-7.5-4-11.3l-4-7.6c-2-3.8-6.5-6.9-10.2-7s-9.6,1.6-13.3,3.7l-3.1,1.8
					c-3.7,2.1-7.6,0.5-8.7-3.5l-0.5-1.8c-1-4.5,0.6-9.1,4.2-12l4.1-3c0.5-0.3,0.9-0.7,1.3-1.2l-13.8-1.6
					C327,536.1,324.2,534.5,322.3,532z"/>
				<path class="st0" d="M391.1,734.2l0.7,0.3c2.5,0.8,5.2,0.9,7.8,0.5l7.4-1.7c2.5-0.7,4.8-2.1,6.6-3.9l3.6-4.1
					c2.2-2.3,5.4-3.3,8.5-2.7l5.4,1.3c3,0.8,5.8,2.5,7.9,4.7l4,4.5c2,2.3,3.7,4.8,5.3,7.4l-1.1,0.6l0,0l1.1-0.6l1.4,2.6l5.5-2.2
					c2.9-1,6-1.5,9.1-1.2l7.3,0.8c2.2,0.1,4.3-0.9,5.6-2.7l0.8-1.3c1.8-2.6,4.8-4,8-3.9l9.4,0.9c2.3,0.1,4.4-0.9,5.9-2.7l0.8-1.2
					c1.9-2.5,4.7-4.2,7.7-4.9l8.1-1.5c1.9-0.4,3.3-2.1,3.4-4.1v-1.3c-0.2-2.3-1.3-4.4-3.2-5.8l-2.4-1.5c-2.6-1.8-3.6-5.1-2.5-8
					l0.7-1.7c1.3-2.8,3.2-5.3,5.5-7.4l3.7-3.1c1.5-1.4,2.1-3.6,1.4-5.6l-3.3-8.3c-1.1-2.3-2.8-4.2-5-5.5l-5.8-3
					c-2.7-1.6-4.6-4.3-4.9-7.5l-1.1-14.7c-0.1-3.1,1.2-6.2,3.6-8.3l15.2-12.3c2-1.8,3.7-4,4.9-6.4l4.8-10.5c1.3-2.7,2.9-5.4,4.7-7.8
					l9.1-11.8c1.7-2.3,3.3-4.7,4.7-7.2l4.3-8c1.5-2.5,4.2-4,7-3.9l-1.8-6.3c-0.8-2.7-2-5.2-3.6-7.5l-4.5-6.4
					c-1.7-2.7-2.2-5.9-1.5-8.9l1.6-5.8c0.5-2.3-0.1-4.6-1.5-6.4L539.1,514c-2-2.4-3-5.5-2.8-8.7l1.1-10.2c0.2-1.5-0.8-2.8-2.3-3
					c-0.2,0-0.3,0-0.5,0h-7.7c-3.1-0.1-6.1-1.3-8.6-3.2l-2.2-1.9c-1.9-1.4-4.3-2-6.6-1.7l-2.7,0.6c-2.2,0.7-4,2.2-5,4.3l-1.3,3.4
					c-0.7,2-0.1,4.3,1.4,5.8l3.6,3.3c2.2,2.2,3.7,5.1,4.2,8.2l0.6,5.4c0.4,2.6-1.4,5.1-4.1,5.5c-0.4,0.1-0.8,0.1-1.1,0l-11.8-0.7
					c-3.1-0.3-6-1.8-8.1-4.2l-8.6-10.9l-9.4-0.3c-3.1-0.3-6.1-1.6-8.3-3.8l-1.7-1.7c-1.8-1.7-4.1-2.7-6.6-2.8h-6.2
					c-2.2,0.1-4.1,1.4-5.1,3.3l-0.5,1.2c-1.3,2.8-4.3,4.5-7.5,4.2l-2.6-0.4c-2.6-0.2-5.1,0.3-7.4,1.5l-8.1,4.8
					c-2.1,1.4-3.7,3.4-4.5,5.8l-1.3,4.5c-0.8,2.6-3.2,4.4-5.9,4.5c-0.3,0-0.7,0-1-0.1l-13.6-2.4c0.7,0.8,1.4,1.6,2,2.5
					c1.5,2.5,2.6,5.3,3.2,8.2c0.8,3.5,3,7.3,4.9,8.6c3.1,2.4,6,5.2,8.5,8.2l4,4.7c3.1,3.5,6.6,6.6,10.5,9.1c3,1.8,5.4,6.8,5.2,11
					l-0.1,2.9c-0.4,4.9-2.2,9.6-5.2,13.6l-3.5,4.2c-2.7,3.2-7,6.3-9.5,6.9c-5.8,1.2-9.3,7.9-15.3,8.1c-0.8,0-1.5-0.1-2.3-0.1
					s-1.5,0.3-2.1,0.8c-1,1-0.7,2.2-0.8,3.4c-0.1,2.6,0,5.2,0.2,7.8c0,0.3,0.1,0.5,0.2,0.7c0.3,0.3,0.7,0.4,1.1,0.2s0.7-0.4,0.9-0.7
					c2.8-2.9,6.8-6.5,10.9-7.3c2.7-0.7,5.3-1.7,7.7-3c2.2-1.3,7.5-2.5,11.7-2.8l2.6-0.2c4.2-0.3,6.9,0.2,6,1.2
					c-2.1,2.6-3.9,5.5-5.5,8.4l-2.1,3.8c-1,1.8-2.2,3.5-3.4,5.2c-0.9,1.2-1.6,2.4-2.1,3.8c-0.5,1.5,0,2.6,0.2,4.1
					c0,1-0.1,1.9-0.4,2.9c-0.2,0.8-0.2,1.8,0.4,2.2c0.4,0.2,0.8,0.2,1.2,0.2l2.6-0.2c0.7-0.1,1.4-0.1,2.1,0.2
					c2.4,1.1,0.4,5.3-0.5,6.7L405.1,673c-3,4.7-4.9,10.8-9,14.7c-0.8,0.7-1.7,1.3-2.4,2c-2.7,2.7-3.1,7.4-3.6,10.9
					c-0.5,3-3.1,7-5.9,9c-3.3,2.6-6,6-7.7,9.8c-0.3,0.8-0.8,1.5-1.3,2.2l8.9,8.2C386.1,731.7,388.5,733.1,391.1,734.2z"/>
				<path class="st1" d="M381.4,475.2c1.7-1.8,4.4-4.7,6-6.5l8.5-9.5c2.1-2.2,4.5-4.2,7.1-5.7l8-4.5c1.8-1.2,2.9-3.2,2.8-5.4
					l-0.7-5.6c-0.4-2.7-1.2-5.4-2.5-7.9l-1.4-2.6c-1-1.8-2.8-2.6-3.9-2.3c-1.6,0.6-2.9,1.9-3.6,3.5c-0.8,2.2-3.6,4.3-6.4,4.9
					l-0.5,0.1c-2.8,0.6-6.3-0.2-7.9-1.8c-1.6-1.4-3.5-2.4-5.5-3c-2.8-0.9-5.3-2.4-7.3-4.5l-1-1c-1.9-1.8-4.2-3-6.8-3.5l-8.9-1.4
					c-2.6-0.3-5.3,0-7.8,1l-1.4,0.6c-2.9,1.2-6,1.7-9.1,1.6l-12.8-0.9c-3.1-0.4-6-2-7.9-4.5l-3.7-5.2c-3.5,8.2-18.2,10-19.7-0.6
					l-0.4-3.2c-0.6-4.2-3-8.8-5.3-10.1c-2.3-1.3-5.8-2-7.8-1.4c-3.5,1.1-4.4,3.9-6.6,6.4c-0.5,0.5-1,1.1-1.3,1.7
					c-1.1,2,5.1,9,1.4,10.2c-1,0.2-2.1,0-3.1-0.5l-2.7-1.1c-1-0.4-2.4-0.7-3,0.2c-0.3,0.6-0.3,1.4,0.1,2c1.2,3.8,2.2,7.6,2.9,11.5
					c0.4,2,0.8,4.1,1.2,6.1c0.2,1.3,0.2,3.8,1.7,4.4s5.1-2,5.1,1.1c0,1.4-2.1,4.4-4.8,6.8c-2.7,2.4-6.3,2.1-8.1-0.4
					c-0.1-0.1-0.2-0.3-0.3-0.4l2.5,15.2c0.4,2.4,1.3,6.2,1.9,8.5l0.7,2.6c0.8,2.7,2,5.2,3.5,7.6l1.9,2.7c1.6,2,3.7,3.5,6.1,4.3
					l5.4,1.4c3,0.9,5.8,2.2,8.2,4.1l3.8,3c2.3,1.8,2.7,5.1,0.9,7.4c-0.1,0.1-0.2,0.3-0.3,0.4l-1.4,1.5c-0.6,0.6-0.9,1.4-0.8,2.3
					c0,0.8,0.4,1.6,1.1,2.2l0.5,0.4c2.2,2.1,4.3,4.4,6,6.9l3.6,5.5c1.5,2,3.6,3.6,6,4.4l3.3,0.9c3,1,5.6,2.8,7.5,5.3l0.1,0.2
					c1.5,1.9,3.7,3.2,6.1,3.6L346,536c0.3-0.4,0.7-0.7,1.1-1c0.5-0.3,0.9-0.7,1.2-1.2c0.4-0.5,0.5-1,0.3-1.6c-0.2-0.4-0.4-0.7-0.8-1
					c-4.4-4.3-6.8-10.8-9.7-16.2c-1.9-3.4-3.7-6.8-5.5-10.2c-2-3.8-0.7-8.5,2.9-10.8l13.4-8.3c3.6-2.2,8.1-2,10.1,0.5
					c1.7,2.1,5.7,3.8,9.4,4.2c1.1-1.8,2.2-3.5,3.5-5.1L381.4,475.2z"/>
				<path class="st1" d="M404.9,521.7l1.3-4.5c1-3,3-5.5,5.6-7.3l8.2-4.8c2.8-1.5,5.9-2.1,9-1.8l2.6,0.4c2,0.2,4-0.9,4.9-2.7
					l0.5-1.2c1.4-2.8,4.2-4.7,7.3-4.8h6.2c3.1,0.2,6.1,1.4,8.4,3.6l1.6,1.7c1.8,1.7,4.2,2.8,6.7,3l7.4,0.3c-1.6-2.5-2.4-5.4-2.1-8.3
					l1.7-13.5c0.3-2.3-0.1-5-0.7-5.8c-1.1-1.8-0.9-5-0.1-7.2c0.8-2.6,1.4-5.2,1.6-7.9l1.1-17.5c0.3-3.1,1.4-6.1,3.1-8.7l1.2-1.6
					c1.5-2.2,2.5-4.8,3-7.4v-0.3c0.6-3.1,2.3-5.8,4.9-7.7l4.6-2.9c2.1-1.3,5.5-3.4,7.7-4.6l4.4-2.5c2.8-1.4,6-1.6,9-0.6
					c2.7,1,5.4,1.9,8.2,2.5l4.7,1c2.3,0.4,4.6,0.1,6.7-1c1.3-0.8,2-3.1,1.5-5l-2.7-10.1c-0.7-3.1-0.3-6.3,1.1-9.1l3.5-5.8
					c-3.8-0.9-7.7-1.7-11.6-2.2c-3.6-0.4-8.4-3.8-10.5-7.4l-7.1-12c-2.4-4.4-4-9.3-4.7-14.3l-0.3-2.6c-0.4-4.2-1.8-9-3.1-10.7
					s-1.6-5.6-0.6-8.6c1.4-4.2,3.1-8.2,5.1-12.1c1.9-3.6,2.5-7.4,1.4-8.5c-1.2-1.2-2.8-1.9-4.4-2c-1.4,0-4.8,2.3-7.6,5
					s-6.3,5.6-7.7,6.3c-2.3,0.9-4.8,1.3-7.2,1.4c-2.9,0-5.7-1.1-7.9-3c-2.1-2-2.4-7.1-5.4-7.6c-1.1-0.1-2.1,0-3.2,0.2
					c-4,0.8-8.5,1.2-12.3,2.8c-2.1,0.6-4.3,0.9-6.5,0.7c-2.3-0.1-6.2,2.6-8.7,6l-0.3,0.4c-3,3.7-7.4,5.9-12.2,6.1l-5.3-0.1
					c-8.6-0.2-18.1,11.4-18.1,19.7v0.7c-0.3,4.2-0.3,8.4-0.1,12.6c0.2,2.7-2,6.6-4.9,8.5c-3.7,2.8-6.9,6.3-9.4,10.2l-4.5,7.3
					c-2.8,3.9-7,6.5-11.7,7.1l-0.9,0.1c-4.8,0.1-9.4-1.8-12.9-5.1l-0.3-0.3c-2.9-3.1-7.7-3.4-10.9-0.5c-3.7,3.4-7.4,5.1-11.8,7.5
					c-1.2,0.6-2.5,1.5-2.7,2.8c-0.4,1.9,1.6,3.3,3.4,4.1s3.8,2,3.8,3.9c0,5.7-10.3,7.7-14.3,7.7c-1.5,0-3.2-0.2-4.4,0.7
					c-1.2,0.9-1.6,2.5-1.9,4l4.9,6.9c1.5,1.9,3.7,3.1,6.1,3.5l12.8,0.9c2.7,0.1,5.4-0.4,7.9-1.4l1.4-0.6c2.9-1.2,6-1.6,9.1-1.2
					l8.9,1.4c3.1,0.6,5.9,2.1,8.2,4.2l1,1c1.7,1.7,3.8,3,6.1,3.8c2.5,0.7,4.7,1.9,6.6,3.6c0.9,0.9,3.5,1.6,5.7,1.1l0.5-0.1
					c2.2-0.5,4.2-2.1,4.6-3.4c1-2.3,2.9-4.1,5.2-5c2.4-0.8,5.4,0.8,6.8,3.5l1.4,2.6c1.4,2.8,2.3,5.7,2.7,8.8l0.6,5.6
					c0.2,3.1-1.3,6.1-4,7.8l-8,4.5c-2.4,1.5-4.6,3.2-6.5,5.2l-8.5,9.5c-1.6,1.8-4.3,4.8-6,6.6l-9.4,10.1c-0.9,1.1-1.7,2.2-2.4,3.4
					l1.8-0.1c4.6,0.1,8.8,2.6,11,6.7l0.6,1.4c1.1,2.7,1.8,5.6,2,8.5c0.3,2.9-1.1,5.4-2.7,7.9c-0.6,0.8-1,1.7-1.2,2.7
					c0,0.9,0.2,1.9,0.7,2.7c0.2,0.4,0.4,0.8,0.7,1.2l16.5,2.9C402.5,524.6,404.3,523.5,404.9,521.7z"/>
				<path class="st1" d="M335.4,687.1l0.4-2c0.7-2.7,2.7-4.8,5.3-5.7l1.5-0.4c2.6-0.9,4.6-3,5.5-5.7c0.9-3.3,1.2-7.3,3.1-10.1
					c0.3-0.5,0.8-1,1.3-0.7c1.1,0.5-0.2,2.5,0.4,3.4c0.5,0.6,1.4,0.6,2,0.1c0.5-0.5,1-1,1.5-1.6c2.7-2.8,6.6-4.1,10.4-3.8
					c2,0.2,3.9,0.6,5.8,1.3c2.4,1,5,1.5,7.5,1.3c5.2-0.7,6.6-5.9,8.5-10c1.5-3.3,3-6.7,4.5-10c1-2.3,0.2-5-2-6.2
					c-2.5-1.2-5.4-1.3-8.1-0.4l-32.4,13.1c-1.8,0.8-3.9,0-4.7-1.8c-0.1-0.3-0.2-0.6-0.3-0.9l-1-5.2c-0.4-2.2-0.6-4.3-0.8-6.5
					c-0.1-1.6,0.1-4.7-0.9-5.9c-0.4-0.5-1.1-0.8-1.7-0.8c-0.7,0-1.3,0.1-1.9,0.3c-1.9,0.6-3.6,1.6-5.5,2.3l-5.9,2l-7,2.4
					c-2.6,1.1-4.7,3.1-5.9,5.7c-1.4,3.7-2.9,7.4-4.3,11.2c-1.2,3-2.3,6.1-3.5,9.1c-1.1,2.9-1.9,6.1-3.3,8.8
					c-0.2,0.5-0.5,0.9-0.8,1.4c-0.8,1.2-1.9,2.4-1.9,3.8c0,1.6,1.3,2.9,2.1,4.2c1.2,2,1.1,4,1.1,6.2l-1.7,11.4
					c-0.6,4,0.4,8.7,3.4,11.5c0.7,0.7,1.6,1.2,2.5,1.4c0.8,0.1,1.6-0.1,2.3-0.4c2.9-1.2,4.7-3.8,7.1-5.8c1.5-1.2,3.1-2.3,4.6-3.5
					l8.2-6.2C333,692.3,334.6,689.8,335.4,687.1z"/>
				<path class="st1" d="M543.5,874.4l1.3-7.3c0.3-2.5-0.1-5.1-1.2-7.4l-1.4-2.5c-1.4-2.1-3.4-3.8-5.7-4.8l-16.4-5.7
					c-2.9-1.2-5.4-3.1-7.3-5.5l-12.7-18.3c-1.7-2.2-3.6-4.2-5.9-5.8l-3.7-2.5c-2.5-1.9-4.4-4.5-5.3-7.5l-3.2-12.8
					c-0.8-2.5-2.1-4.8-4-6.6l-7.4-6.5c-2.2-2.1-4.2-4.4-5.9-7l-7.8-13c-1.2-2.1-3.2-5.6-4.5-7.7l-6.4-11.6l0,0c-1.4-2.5-3.1-4.8-5-7
					l-4-4.5c-1.8-1.9-4.1-3.3-6.6-4l-5.4-1.3c-2.2-0.4-4.5,0.4-6.1,1.9l-3.6,4.1c-2.2,2.3-4.9,3.9-7.9,4.7l-7.4,1.7
					c-3.1,0.6-6.2,0.4-9.2-0.6l-0.7-0.3c-2.9-1.2-5.5-2.8-7.8-4.9l-9-8.2c-2,1.8-4.6,3-7.2,3.5l-16.7,2.3c-3.1,0.6-6.2-1.4-6.8-4.5
					c-0.1-0.7-0.2-1.4,0-2.1l0.2-1.8c0.4-4.2-0.2-9-1.5-10.8c-1.9-2.6-5.2-2-7.9-2.2c-1.2-0.1-2.6-0.2-3.6,0.5
					c-1.3,1-1.3,2.8-1.2,4.4c0.3,5,0.7,10.1,2.8,14.7c1.5,3.2,4.1,7.1,5.8,8.5c1.9,1.6,4.1,2.8,6.5,3.5c2,0.7,3.5,2.4,3.8,4.5
					c0.1,2.5-0.8,4.9-2.4,6.7c-1.5,1.7-2.1,6.5-1.1,10.6l2.3,10.5c0.9,4.8,0.8,9.7-0.2,14.4c-1.2,4.8-2,9.6-2.6,14.5L343,805
					c-0.2,4.8,1.6,9.4,4.9,12.9l9.5,8.7c3.3,3.1,6.1,6.7,8.2,10.7c1.6,4.2,2.5,8.7,2.6,13.2v19.8c0,4.2-1.8,9.9-3.9,12.7
					s-7.2,6.1-11.2,7.4l-0.5,0.2c-3.8,1.3-7.7,2-11.2-0.4c-0.9-0.7-1.9-1.4-2.9-1.8c-1.1-0.3-2.3-0.4-3.5-0.2
					c-0.8,0-1.6,0.2-2.4,0.5s-1.4,0.9-1.6,1.7c-0.2,0.8,0,1.6,0.5,2.3c0.6,1.1,1.2,2.3,1.9,3.3c1.7,2.7,4,5.4,5.1,6
					c3.9,1.9,2.6,8.7,5.6,11.3c1.1,0.9,2.4,1.5,3.5,2.4c0.9,0.6,1.4,1.6,1.4,2.6c-0.2,0.7-0.5,1.4-1,1.9c-0.9,1.4-1.7,3.7-0.9,5.3
					c1.2,2.3,4.6,4.4,7.7,4.8s9,0.7,13.2,0.7h23.2c4.6,0.3,8.9,2.8,11.2,6.9l2.2,4.4c1.9,3.8,6.5,6.9,10.2,6.9s9-2.5,11.9-5.6
					l0.4-0.4c3-3.3,3.3-8.2,0.9-12l-5.3-7.8c-2.8-4.3-5.3-8.7-7.4-13.4l-6.2-13.9c-1.8-4.6-2.3-9.7-1.6-14.6l2.5-12.3
					c1.1-5,3-9.7,5.4-14.2l7.2-12.3c2.2-4,4-8.2,5.2-12.5c0.8-3.2,3.3-7,5.6-8.2c3.4-1.6,7.1-2.5,10.8-2.8c3.6-0.2,9.3,1.6,12.7,4.2
					l3.6,2.7c3.4,2.5,5.5,6.5,4.7,8.8s-2.2,7.5-3.2,11.7l-0.5,2.1c-1,4.1-4.2,7.8-7.3,8.1s-6.3-0.7-7.2-2.2s-2.4-4.2-3.2-5.8
					s-4.9-2.2-9-1.3s-8,2.5-8.7,3.4s-0.5,3.3,0.5,5.1c1.2,2.1,2.8,3.9,4.8,5.3c1.8,1.1,4,1.4,6,1c1.7-0.5,3.5-0.6,5.3-0.4
					c1.3,0.2,2.2,3.9,2,8.1l-0.3,5.4c0,5,1.3,9.8,3.8,14.1l10,15.3c2.4,4.2,3.3,9.1,2.3,13.9c-0.8,3.1-1.6,6.2-2.4,9.4
					c-0.5,1.9-0.8,3.9-1.3,5.8c-1,3.1-2.1,5.5-1.6,8.9c0.3,2.3,0.8,4.3,0.2,6.7c-0.5,2.1-3.6,6-6.9,8.8c-2.8,2.4-5.2,5.5-8.9,6.5
					c-0.8,0.2-1.5,0.4-2.3,0.7s-1.4,0.9-1.7,1.6c-0.2,1,0,2,0.4,2.8c1,2.3,2.7,5.2,1,7.6c-0.6,1.1-0.9,2.2-1.1,3.4
					c-0.4,1.3-1,2.4-1.8,3.5c-0.4,0.5-0.6,1.2-0.5,1.8c0.3,0.8,1.4,1,2.2,0.9c2.7-0.2,5.3-1.2,7.4-3c1.8-1.5,4.4-3,5.5-5.2
					c0.9-1.6,4.8-4.2,8.7-5.8l15.3-6c4.7-2,9.2-4.4,13.4-7.4l3.3-2.5c3.9-3.1,7.3-6.8,10-10.9c2.2-3.7,3.3-7.2,6.9-9.8
					c2.7-1.7,5.1-3.7,7.3-6c1.3-1.5,2.2-3.3,3.5-4.8c0.3-0.3,0.6-0.7,0.7-1.1c0.1-0.8-0.5-1.4-1-2c-1.6-1.9-1.8-4-1.7-6.4
					s-0.2-4.8-0.1-7.3c0-0.3,0-0.8-0.3-1c-0.2-0.1-0.3-0.1-0.5-0.1h-3c-0.8,0-1.5-0.1-2.3-0.3c-2.5-1-3.3-5.9-2.5-8.2
					c1.8-4.5,4.6-8.5,8.2-11.7l3.8-3.2c3.7-2.8,8.6-3.6,13.1-2.2l6,2.3l1.9-2.8C541.7,879.5,542.9,877,543.5,874.4z"/>
				<path class="st1" d="M657.5,576.5c-2.9,0.3-5.7,0.8-8.5,1.5l-6.5,1.8c-2.7,0.8-5.2,2-7.6,3.5l-1.7,1.1c-2.6,1.6-5.6,2.7-8.7,3.1
					l-6.6,0.7c-0.2,0-0.5,0-0.7,0c-2.9-0.1-5.6-1.5-7.3-3.8l-2.2-3.4c-1.6-2.4-3.4-4.6-5.4-6.7l-1.8-1.8c-1.6-1.4-3.9-1.9-6-1.3
					l-6,2.2c-3,1-6.1,1.3-9.2,0.9l-15.8-2.5c-2.1-0.2-4.1,0.8-5.2,2.6l-4.3,8c-1.5,2.7-3.1,5.2-4.9,7.6l-9.4,11.9
					c-1.7,2.3-3.2,4.7-4.4,7.3l-4.8,10.5c-1.4,2.8-3.3,5.3-5.6,7.3l-15.2,12.3c-1.7,1.6-2.7,3.8-2.7,6.2l1.1,14.7
					c0.3,2.3,1.7,4.3,3.6,5.5l5.8,3c2.7,1.6,4.9,3.9,6.2,6.8l3.3,8.3c1.1,3,0.2,6.3-2.1,8.4l-3.7,3.1c-2,1.8-3.7,4-4.8,6.5l-0.7,1.7
					c-0.7,1.8-0.1,3.9,1.5,5l2.4,1.5c2.6,1.8,4.1,4.7,4.3,7.9v1.2c-0.1,3.1-2.3,5.8-5.4,6.5l-8.1,1.5c-2.4,0.6-4.6,2-6.2,4l-0.8,1.2
					c-1.9,2.5-5,3.9-8.1,3.7l-9.4-0.9c-2.2-0.1-4.3,1-5.7,2.8l-0.8,1.3c-1.8,2.6-4.8,4-8,3.8l-7.3-0.8c-2.7-0.2-5.4,0.2-8,1.1
					l-5.2,2.1l3.8,6.8c1.2,2.2,3.2,5.6,4.4,7.7l7.8,13c1.5,2.4,3.3,4.5,5.4,6.5l7.4,6.5c2.3,2.2,3.9,4.9,4.8,7.9l3.2,12.8
					c0.8,2.4,2.2,4.5,4.3,6l3.7,2.5c2.5,1.8,4.7,4,6.6,6.4l12.7,18.3c1.6,2.1,3.7,3.7,6.1,4.7l16.4,5.8c2.9,1.2,5.3,3.2,7,5.9
					l1.4,2.5c1.4,2.8,1.9,6,1.5,9.1l-1.2,7.3c-0.7,3-2,5.9-3.9,8.4l-1.5,2.3l0.4,0.2c3.1,1.2,6.5,2.5,9,4.6c2.4,1.9,4,4.5,6.5,6.4
					l1.3,1c3.4,2.6,7.2,4.3,8.5,3.8s2.4-2.4,2.4-4.3c0.3-2.4,1.4-4.6,3.1-6.2c1.9-2.1,3.1-4.9,3.1-7.7c-0.1-1.7,0.2-3.4,0.9-5
					c0.8-1.3,1.6-2,1.1-3.7c-0.4-1.1-1.1-2.1-1.2-3.3c0-0.8,0.2-1.5,0.5-2.2c0.7-2.3,1.5-4.5,2.4-6.7c0.8-1.3,1.5-2.6,2.1-4
					c1.5-2.9,3.2-5.7,5.1-8.3c2.3-3.2,4.2-8,4.2-10.8c0.3-4.2,1.1-8.4,2.5-12.3l4.3-12.4c0.8-2.1,2.4-8.2,0.6-10.2
					c-0.5-0.6-1.5-0.8-2.2-1.2s-1.2-1-1.7-1.7c-1.3-1.7-2.4-3.2-2.2-5.3c0.1-1.4,0.1-2.9,0-4.3c-0.3-5.1,0.3-10.1,1.9-15
					c1.3-3.8,2.2-7.8,2.5-11.8c0.2-1.8-0.2-3.6,0.2-5.3c0.5-2,1.6-3.8,2.2-5.8c0.5-1.8,0.7-3.8,1.3-5.5c1-2.6,2.6-4.8,3.3-7.6
					c0.5-2.6,1.3-5.1,2.3-7.5c1.2-3.4,2.1-7,2.5-10.6l0.5-3.2c0.8-5.1,2-10,3.5-14.9l0.2-0.7c1.7-4.8,3.7-9.5,6.2-14l4.5-7.9
					c2.1-3.7,3.7-8.7,3.5-11.3c-0.1-2.7,1.3-5.2,3.7-6.6c3.5-1.7,4.1-7.1,4.3-10.4c0.1-3.7,2.1-7.1,5.3-9.1c1-0.6,2-1.2,2.9-2
					s1.3-2,0.9-3.2c-0.5-0.9-1.3-1.6-2.2-2c-2.2-1.5-4.4-7.7-3.6-10.3c0.5-1.8,3.5-5.4,6.8-8.2l3.9-3.3c3.2-2.7,6.3-6.3,6.9-8
					s3.9-4.9,7.5-7.1l1.2-0.7c3.6-2.2,6.2-5.5,5.7-7.4c-0.3-2.2,0.5-4.5,2.2-5.9c1.8-1.5,3.2-3.4,4.1-5.5c0.3-0.8,0.7-1.6,1.2-2.3
					c-2.6-1.6-6.1-3.1-7.4-3L657.5,576.5z"/>
				<path class="st1" d="M701.5,538.7c-3.1-0.6-6.2-1.5-9.2-2.6c-1.8-0.8-5.1-2.1-7.1-1.4c-1.2,0.5-2.5,0.5-3.7,0.3
					c-1.7-0.8,1.6-3.4,1.7-4.2c0-0.6-0.3-1.2-0.9-1.4c-0.6-0.2-1.1-0.4-1.7-0.6c-2.5-1-2.2-2.9-1.6-4.9c0.6-2.4,1-4.8,1.1-7.2
					c0.3-2.1,3.9-4.5,8-5.2c0,0,1.4-0.3,1.7-0.3c1.2-0.1,2.4-0.3,3.6-0.6c0.8,0,1.5-0.2,2.2-0.5s1.1-1,1.2-1.8c0-0.1,0-0.2-0.1-0.3
					c-0.1-0.1-0.3-0.2-0.5-0.2c-3.3-0.2-6.5,0.1-9.7,0.9c-1.8,0.4-3.8,0.1-5.4-0.7c-1.8-0.9-3.8-1.4-5.8-1.5c-1.7,0-2.6-0.9-2-1.9
					c0.7-1.2,1.8-2.3,2.5-3.5c0.5-1,0.7-2.2,1.5-3c0.6-0.6,1.3-1.1,2-1.7c0.2-0.2,0.4-0.4,0.4-0.7s-0.4-0.5-0.8-0.5
					c-2-0.4-3.8,1.1-5.9,0.2c-0.4-0.2-0.8-0.3-1.2-0.5c-0.9-0.1-1.8,0-2.6,0.4c-2.8,0.8-3.9-1.5-4.4-3.8c-0.4-2.6-0.1-5.3,0.8-7.8
					c1.4-3.2,3.4-6.1,5.8-8.6c2.3-2.3,3.6-5,2.8-6c-1.3-1.4-2.8-2.4-4.6-3c-2.4-0.6-4.9-0.4-7.3,0.5c-2.2,0.9-7.3,1.2-11.4,0.8
					s-9.8-1.3-12.8-2c-4.3-0.7-8.8-0.8-13.1-0.4l-2.4,0.2c-4.2,0.5-10.3-0.6-13.5-2.3s-5.8-6.4-5.8-10.5s0.7-8.7,1.6-10.2
					s3.8-2.6,6.4-2.2c2.4,0.4,4.8,0.4,7.2,0c2.3-0.9,4.5-2.1,6.5-3.5c2.3-1.6,4-3.5,3.8-4.4c-0.6-1.4-1.5-2.5-2.7-3.4
					c-1.3-1-1.1-2.2,0.5-2.6c2.4-0.6,4.8-0.1,7.2-0.2c2.8-0.1,4-1.4,5.7-3.5c2.3-2.9,4.5-8.7,4.8-12.9l0.2-2.8
					c0.3-4.2,0.7-10.2,1-13.3s-1.5-8.4-4.1-11.8l-3.8-5.2c-2.2-3-3.7-5.3-4.3-9.1c0-0.6-0.2-1.2-0.6-1.7c-0.6-0.7-1.7-0.6-2.7-0.6
					c-3.3,0.2-6.1-1.1-9.2-2.1c-1.6-0.5-3.5-0.6-4.7,0.5c-0.9,0.7-1.4,1.9-2.5,2.2s-2-0.4-2.9-0.9c-2.5-1.2-5.4-1.2-7.8,0
					c-3.5,1.8-4.8,6-6,9.5c-1.3,3.9-4.6,9-7.4,11.2s-8.4,3.8-12.6,3.6l-14.8-0.9c-4.6-0.3-9.1-1.5-13.3-3.5c-3.1-1.6-6.2-3-9.5-4.2
					l-3.9,6.3c-1.1,2.2-1.4,4.8-0.9,7.2l2.7,10.1c0.8,2.9-0.4,6.3-2.6,7.7c-2.6,1.4-5.6,1.8-8.5,1.3l-4.7-1
					c-2.9-0.7-5.8-1.5-8.6-2.6c-2.3-0.7-4.7-0.5-6.9,0.5l-4.4,2.5c-2.1,1.2-5.5,3.2-7.6,4.5l-4.6,2.9c-2,1.4-3.3,3.5-3.8,5.9v0.3
					c-0.5,3.1-1.7,6-3.5,8.5l-1.2,1.6c-1.5,2.2-2.4,4.7-2.7,7.4L477,461c-0.2,2.9-0.8,5.8-1.8,8.6c-0.7,1.9-0.6,4.2-0.1,5
					c1.1,1.7,1.3,5.1,1,7.5l-1.7,13.5c-0.2,2.5,0.5,5,2,7l0,0l1,1.3l9.3,11.6c1.6,1.8,3.9,3,6.3,3.3l11.8,0.7
					c1.3,0.2,2.5-0.8,2.7-2.1c0-0.2,0-0.5,0-0.7l-0.6-5.4c-0.4-2.5-1.6-4.8-3.4-6.7l-3.6-3.3c-2.2-2.2-3-5.5-2-8.5l1.3-3.4
					c1.3-2.9,3.8-5,6.8-5.9l2.7-0.6c3.1-0.5,6.3,0.3,8.8,2.2l2.2,1.9c2,1.6,4.5,2.5,7,2.6h7.7c2.8,0,5.2,2.2,5.2,5.1
					c0,0.2,0,0.5,0,0.7l-1.1,10.2c-0.1,2.4,0.7,4.9,2.2,6.8l12.7,14.1c2,2.4,2.7,5.7,2,8.7L554,541c-0.5,2.3-0.1,4.8,1.2,6.8
					l4.5,6.4c1.7,2.6,3.1,5.3,4,8.3l2,7.3l13.8,2.2c2.7,0.3,5.4,0,7.9-0.8l6.1-2.2c3-0.9,6.3-0.2,8.6,1.9l1.8,1.8
					c2.1,2.2,4,4.5,5.7,7.1l2.2,3.4c1.3,1.8,3.5,2.8,5.7,2.7l6.6-0.7c2.7-0.4,5.3-1.3,7.6-2.7l1.7-1.1c2.6-1.6,5.4-2.9,8.3-3.8
					l6.5-1.8c2.9-0.8,5.9-1.3,8.9-1.6l11.9-1c1.9-0.2,6,1.5,9.1,3.4c0.3-0.3,0.6-0.6,0.9-0.9c1.5-1.2,3.3-1.9,5.1-2.1
					c1.9-0.2,3.8-0.8,5.3-1.9c1.4-1,2.9-1.9,4.5-2.6c1-0.4,2.5-2.1,3.5-3.9s0.6-3.5-0.8-3.9c-1.2-0.4-2.5-0.5-3.8-0.4
					c-0.7,0.2-1.4-0.7-1.5-1.9s0.7-3.5,1.9-5c1.3-1.7,2.1-3.7,2.5-5.8c0.4-3.4,3.3-5.3,6.1-6.7c0.5-0.3,1.1-0.6,1.1-1.2
					C703.1,539.3,702.2,538.9,701.5,538.7z"/>
				<path class="st1" d="M322.3,532l-0.1-0.2c-1.6-2-3.7-3.5-6.2-4.3l-3.3-0.9c-3-1-5.6-2.9-7.4-5.4l-3.6-5.5
					c-1.6-2.3-3.5-4.5-5.6-6.4l-0.5-0.5c-2.3-2-2.5-5.5-0.5-7.8l0.1-0.1l1.4-1.5c0.6-0.6,0.8-1.4,0.8-2.2c-0.1-0.8-0.5-1.5-1.1-2
					l-3.8-3c-2.2-1.6-4.7-2.9-7.3-3.6l-5.4-1.4c-3-0.9-5.6-2.8-7.5-5.3l-1.9-2.7c-1.7-2.6-3-5.4-3.9-8.3l-0.7-2.6
					c-0.6-2.4-1.5-6.3-1.9-8.8l-3-18.6c-0.9-0.8-2-1.4-3.2-1.7c-2.3-0.1-4.5,0.4-6.5,1.5c-2.1,1-4.6,0.7-6.4-0.8
					c-1.7-1.5-4.1-2.7-5.3-2.7c-2.1,0-4.4,0.6-6.5,0.4c-2.5-0.3-4.8-2-7.2-1.4c-0.3,0.1-0.6,0.2-0.8,0.4c-1,0.8-0.8,2.3-0.4,3.5
					c0.6,1.8,0.9,3.3,1.4,5.2l0.2,0.9c0.9,4.8,0.2,9.7-2.1,14l-2.3,3.9c-2.2,3.6-1.9,7.6,0.7,8.9s6.8,3.4,9.3,4.8s4.9,3.4,5.1,4.5
					c0.9,2,2.1,3.7,3.7,5.2c1.1,1.1,3.1,3.3,2,4.9c-0.4,0.5-1,0.9-1.6,1.1c-1.2,0.5-2.4,0.8-3.7,0.8c-0.4,0.3-0.2,1,0.2,1.4
					c0.5,0.2,1,0.3,1.5,0.3c3.2-0.1,6.1,0.2,8.8-1.9c1.6-1.3,3.7-1.8,5.8-1.6c1.8,0.6,3.1,2.1,3.3,4c0.3,3.2-1.9,5.4-1.8,8.5
					c0,1.6,0.9,3,2.2,3.8c0.3,0.2,0.7,0.3,1,0.2c0.5-0.1,1-0.4,1.4-0.7c3.6-2.5,8.2-0.7,11.7,1c2.6,1.1,5.5,1.5,8.3,1.1
					c2.4-0.4,6.5,1.2,9,3.5s4.9,7.3,5.3,11c0.4,4.4,0.4,8.8,0,13.2c-0.3,3.9,0.8,7.8,3.1,11c2.2,2.6,3.3,5.5,2.6,6.4
					c-0.7,0.9-3,0.9-5.1,0c-2-0.9-4.2-1.4-6.4-1.4c-2.1,0.5-4,1.3-5.7,2.6c-1.7,1.3-5.8,1.2-9.1-0.2c-3.3-1.4-5.9-5.8-5.8-9.9
					c0-3.7,0.4-7.4,1.1-11.1c0.5-1.9,0.9-3.7,1.1-5.7c0-1.3-0.3-2.5-1-3.7c-0.6-0.9-2.6-1.8-4.4-1.9c-2-0.2-4.1,1-6,0.2
					c-1-0.6-1.7-1.4-2.1-2.4c-1.3-2.6,0.1-5.7-1.2-8.5c-1.2-2.5-3.6-3.7-5.3-5.7c-1.1-1.4-2.4-2.6-3.8-3.7c-0.6-0.5-1.4-1-2.1-1.2
					c-0.8-0.2-1.7,0-2.3,0.6c-0.5,0.8-0.7,1.8-0.5,2.8c0.1,4.1-1.5,5.9-3.9,9c-0.2,0.3-0.4,0.6-0.6,1c-0.1,0.3-0.1,0.6-0.1,0.9
					c0,2.1,0.7,4.1,0.9,6.2s-1.3,3.5-3.2,4.5c-0.8,0.4-1.8,0.8-2.2,1.7c-0.1,0.3-0.2,0.7-0.2,1.1c0,4,3.5,9.2,6.1,12
					c1.9,2,4.4,7,5.5,11.1l0.3,1.2c1.1,4.1,2.2,8.8,2.4,10.6s3.5,2.9,7.3,2.5s8.6,2.4,10.6,6.2s4.7,8.7,5.8,11.2
					c1.7,3.5,2.4,6.7,0.7,10.4c-0.7,1.4-1.8,2.6-2.4,4.1c-0.7,1.6-1.2,3.3-1.6,5c-0.6,2.3-1.7,5.8,0.1,7.8c1,1,2.4,1.6,3.8,1.5
					c3.1-0.2,5.1-3.1,6.9-5.3l16.8-20.7c3.3-3.8,7.4-6.9,11.8-9.2l5-2.4c4.6-2,9.6-3.1,14.7-3.2h4.6c4.2,0,9.5,2.6,11.6,5.7
					s1.7,8.3-0.9,11.6c-0.9,1.2-2,2.3-2.9,3.5c-1.3,1.7-3.7,2.8-4.6,4.7c-0.3,0.7-0.4,1.4-0.4,2.2c-0.3,5,1.9,9,5.6,12.2
					c3.1,2.6,7.3,4.1,9.3,3.3c5.4-2.2,7-8.5,12.2-10.5c1.7-0.6,3.6-1.3,4.7-2.7c0.7-0.9,0.9-1.9,1.5-2.8c0.8-1.1,1.9-2.1,2.7-3.2
					l4.7-6.5c2.5-3.4,4.3-8.2,4.1-10.7s-2-7.5-4-11.3l-4-7.6c-2-3.8-6.5-6.9-10.2-7s-9.6,1.6-13.3,3.7l-3.1,1.8
					c-3.7,2.1-7.6,0.5-8.7-3.5l-0.5-1.8c-1-4.5,0.6-9.1,4.2-12l4.1-3c0.5-0.3,0.9-0.7,1.3-1.2l-13.8-1.6
					C327,536.1,324.2,534.5,322.3,532z"/>
				<path class="st1" d="M391.1,734.2l0.7,0.3c2.5,0.8,5.2,0.9,7.8,0.5l7.4-1.7c2.5-0.7,4.8-2.1,6.6-3.9l3.6-4.1
					c2.2-2.3,5.4-3.3,8.5-2.7l5.4,1.3c3,0.8,5.8,2.5,7.9,4.7l4,4.5c2,2.3,3.7,4.8,5.3,7.4l-1.1,0.6l0,0l1.1-0.6l1.4,2.6l5.5-2.2
					c2.9-1,6-1.5,9.1-1.2l7.3,0.8c2.2,0.1,4.3-0.9,5.6-2.7l0.8-1.3c1.8-2.6,4.8-4,8-3.9l9.4,0.9c2.3,0.1,4.4-0.9,5.9-2.7l0.8-1.2
					c1.9-2.5,4.7-4.2,7.7-4.9l8.1-1.5c1.9-0.4,3.3-2.1,3.4-4.1v-1.3c-0.2-2.3-1.3-4.4-3.2-5.8l-2.4-1.5c-2.6-1.8-3.6-5.1-2.5-8
					l0.7-1.7c1.3-2.8,3.2-5.3,5.5-7.4l3.7-3.1c1.5-1.4,2.1-3.6,1.4-5.6l-3.3-8.3c-1.1-2.3-2.8-4.2-5-5.5l-5.8-3
					c-2.7-1.6-4.6-4.3-4.9-7.5l-1.1-14.7c-0.1-3.1,1.2-6.2,3.6-8.3l15.2-12.3c2-1.8,3.7-4,4.9-6.4l4.8-10.5c1.3-2.7,2.9-5.4,4.7-7.8
					l9.1-11.8c1.7-2.3,3.3-4.7,4.7-7.2l4.3-8c1.5-2.5,4.2-4,7-3.9l-1.8-6.3c-0.8-2.7-2-5.2-3.6-7.5l-4.5-6.4
					c-1.7-2.7-2.2-5.9-1.5-8.9l1.6-5.8c0.5-2.3-0.1-4.6-1.5-6.4L539.1,514c-2-2.4-3-5.5-2.8-8.7l1.1-10.2c0.2-1.5-0.8-2.8-2.3-3
					c-0.2,0-0.3,0-0.5,0h-7.7c-3.1-0.1-6.1-1.3-8.6-3.2l-2.2-1.9c-1.9-1.4-4.3-2-6.6-1.7l-2.7,0.6c-2.2,0.7-4,2.2-5,4.3l-1.3,3.4
					c-0.7,2-0.1,4.3,1.4,5.8l3.6,3.3c2.2,2.2,3.7,5.1,4.2,8.2l0.6,5.4c0.4,2.6-1.4,5.1-4.1,5.5c-0.4,0.1-0.8,0.1-1.1,0l-11.8-0.7
					c-3.1-0.3-6-1.8-8.1-4.2l-8.6-10.9l-9.4-0.3c-3.1-0.3-6.1-1.6-8.3-3.8l-1.7-1.7c-1.8-1.7-4.1-2.7-6.6-2.8h-6.2
					c-2.2,0.1-4.1,1.4-5.1,3.3l-0.5,1.2c-1.3,2.8-4.3,4.5-7.5,4.2l-2.6-0.4c-2.6-0.2-5.1,0.3-7.4,1.5l-8.1,4.8
					c-2.1,1.4-3.7,3.4-4.5,5.8l-1.3,4.5c-0.8,2.6-3.2,4.4-5.9,4.5c-0.3,0-0.7,0-1-0.1l-13.6-2.4c0.7,0.8,1.4,1.6,2,2.5
					c1.5,2.5,2.6,5.3,3.2,8.2c0.8,3.5,3,7.3,4.9,8.6c3.1,2.4,6,5.2,8.5,8.2l4,4.7c3.1,3.5,6.6,6.6,10.5,9.1c3,1.8,5.4,6.8,5.2,11
					l-0.1,2.9c-0.4,4.9-2.2,9.6-5.2,13.6l-3.5,4.2c-2.7,3.2-7,6.3-9.5,6.9c-5.8,1.2-9.3,7.9-15.3,8.1c-0.8,0-1.5-0.1-2.3-0.1
					s-1.5,0.3-2.1,0.8c-1,1-0.7,2.2-0.8,3.4c-0.1,2.6,0,5.2,0.2,7.8c0,0.3,0.1,0.5,0.2,0.7c0.3,0.3,0.7,0.4,1.1,0.2s0.7-0.4,0.9-0.7
					c2.8-2.9,6.8-6.5,10.9-7.3c2.7-0.7,5.3-1.7,7.7-3c2.2-1.3,7.5-2.5,11.7-2.8l2.6-0.2c4.2-0.3,6.9,0.2,6,1.2
					c-2.1,2.6-3.9,5.5-5.5,8.4l-2.1,3.8c-1,1.8-2.2,3.5-3.4,5.2c-0.9,1.2-1.6,2.4-2.1,3.8c-0.5,1.5,0,2.6,0.2,4.1
					c0,1-0.1,1.9-0.4,2.9c-0.2,0.8-0.2,1.8,0.4,2.2c0.4,0.2,0.8,0.2,1.2,0.2l2.6-0.2c0.7-0.1,1.4-0.1,2.1,0.2
					c2.4,1.1,0.4,5.3-0.5,6.7L405.1,673c-3,4.7-4.9,10.8-9,14.7c-0.8,0.7-1.7,1.3-2.4,2c-2.7,2.7-3.1,7.4-3.6,10.9
					c-0.5,3-3.1,7-5.9,9c-3.3,2.6-6,6-7.7,9.8c-0.3,0.8-0.8,1.5-1.3,2.2l8.9,8.2C386.1,731.7,388.5,733.1,391.1,734.2z"/>
			</g>
		</g>
	</g>
	<path class="st2" d="M179.8,344.5l0.8,0.4c0,0.1-0.1,0.1-0.2,0.2c-0.5,1.4-1.3,2.7-2.2,4c0.7,0.5,2.1,1.7,2.5,2l-0.7,1
		c-0.6-0.7-1.3-1.3-2-1.9v7h-1.1v-6.5c-0.6,0.7-1.3,1.3-2.1,1.9c-0.2-0.4-0.4-0.7-0.6-1c2.1-1.5,3.7-3.5,4.8-5.8h-4.5v-1.1h2.4v-3.2
		l1.4,0.1c0,0.1-0.1,0.2-0.3,0.2v2.9h1.6L179.8,344.5z M180.3,341.9h9.6v1h-9.6V341.9z M180.7,357.1v-7.6h8.7v7.5h-1.1v-0.8h-6.5
		v0.8L180.7,357.1z M181.7,344.1h6.8v4.2h-6.8V344.1z M184.5,350.5h-2.7v1.9h2.7V350.5z M181.8,355.3h2.7v-1.9h-2.7V355.3z
		 M187.4,347.4v-2.3h-4.6v2.3H187.4z M188.3,352.4v-1.9h-2.7v1.9H188.3z M185.5,355.3h2.8v-1.9h-2.7L185.5,355.3z"/>
	<path class="st2" d="M207.1,342.2v13.5c0,1.4-0.7,1.5-3.4,1.4c-0.1-0.4-0.2-0.7-0.4-1c0.4,0,0.9,0,1.2,0c0.5,0,0.9,0,1.1,0
		c0.3,0,0.4-0.1,0.4-0.4v-12.3h-12v13.8h-1.1v-14.9h14.2C207.1,342.3,207.1,342.2,207.1,342.2z M204,354.9h-1v-1h-6v1.2h-1v-5.8
		l1.3,0.1c0,0.1-0.1,0.2-0.3,0.2v3.3h2.4v-5h-4.5v-1h10.3v1h-4.5c0,0.1-0.1,0.1-0.3,0.2v4.8h2.5v-3.6l1.3,0.1c0,0.1-0.1,0.2-0.3,0.2
		L204,354.9L204,354.9z M197.6,346.8c-0.3-1-0.7-1.9-1.3-2.7l0.9-0.3c0.6,0.8,1.1,1.7,1.4,2.7L197.6,346.8z M204,344.1
		c-0.1,0.1-0.2,0.2-0.3,0.2c-0.4,0.9-0.9,1.8-1.5,2.6c-0.2-0.1-0.7-0.3-0.9-0.3c0.5-0.9,1-1.9,1.4-2.9L204,344.1z"/>
	<path class="st2" d="M215.4,353.5c-0.1,0.1-0.2,0.2-0.4,0.1c-1.2,1.2-2.6,2.3-4,3.2c-0.3-0.3-0.6-0.5-0.9-0.8
		c1.5-0.8,2.8-1.9,3.9-3.1L215.4,353.5z M212.2,351.2h13.3v1.1h-7.1v4.9h-1.2v-4.9h-4.9v0.5h-1.1v-9.9l1.5,0.1
		c0,0.1-0.1,0.2-0.3,0.2L212.2,351.2z M223.5,342v7.9h-9.3V342H223.5z M222.3,344.3v-1.5h-7.2v1.5H222.3z M222.3,346.6v-1.5h-7.2
		v1.5H222.3z M222.3,349v-1.5h-7.2v1.5H222.3z M224.5,356.9c-1.3-1.2-2.6-2.3-4.1-3.3l0.9-0.6c1.4,1,2.8,2,4.1,3.2L224.5,356.9z"/>
	<path class="st2" d="M227.8,356.6l15.3-15.3l0.5,0.5l-15.3,15.3L227.8,356.6z"/>
	<path class="st2" d="M255.9,344.1l0.8,0.4c0,0.1-0.1,0.2-0.2,0.2c-0.3,1.4-0.8,2.8-1.5,4.1c1.2,3.2,3.6,6.1,6.5,7.3
		c-0.3,0.3-0.6,0.6-0.8,1c-2.9-1.5-5.2-4-6.4-7c-1.8,3.1-4.5,5.6-7.8,7.1c-0.2-0.4-0.5-0.7-0.8-1c4.7-2,8.1-6,9.4-10.9h-4.7
		c-1,2-2.3,3.7-3.9,5.2c-0.3-0.3-0.6-0.6-0.9-0.8c2.2-1.8,4.1-5,5.2-8.3l1.5,0.4c0,0.1-0.2,0.2-0.4,0.2c-0.3,0.8-0.6,1.5-0.9,2.2
		h4.7L255.9,344.1z"/>
	<path class="st2" d="M268.8,344.6c1,1,1.8,2.1,2.4,3.3l-1,0.5c-0.1-0.3-0.3-0.6-0.5-1c-2.1,0.6-4.2,1.2-5.5,1.6
		c0,0.1-0.1,0.2-0.2,0.3l-0.5-1.3l1.5-0.4l-0.1-5.3l1,0.3c1.4-0.3,2.7-0.8,4-1.3l0.9,0.9c0,0,0,0-0.3,0c-1.5,0.5-3,1-4.5,1.3
		l0.1,3.8c1-0.2,2-0.5,3.1-0.8c-0.4-0.6-0.8-1.1-1.3-1.6L268.8,344.6z M265.8,357.1v-7.2h11.4v7.1H276v-0.6h-9.1v0.6h-1.1V357.1
		L265.8,357.1z M270.8,350.9h-3.9v1.8h3.9V350.9z M266.9,355.5h3.9v-1.9h-3.9V355.5z M277.9,342.3l0.6,0.1c0,0.1,0,0.3,0,0.4
		c-0.2,3.9-0.3,5.2-0.8,5.7c-0.4,0.5-0.8,0.5-1.7,0.5c-0.4,0-0.8,0-1.3,0c0-0.4-0.1-0.7-0.3-1c0.8,0,1.5,0.1,1.8,0.1
		c0.3,0,0.4,0,0.5-0.2c0.3-0.3,0.4-1.4,0.5-4.5h-2.8c-0.3,2.6-0.9,4.9-3.6,6.1c-0.2-0.3-0.4-0.6-0.7-0.8c2.3-1,3-2.9,3.2-5.3h-2.1
		v-1h6.3L277.9,342.3z M276,352.7v-1.8h-4.1v1.8H276z M271.9,355.5h4.1v-1.9h-4.1V355.5z"/>
	<path class="st2" d="M297.1,349.1h-6.3c1.6,2.5,3.9,4.5,6.5,6c-0.3,0.3-0.6,0.6-0.9,1c-2.6-1.6-4.9-3.9-6.5-6.5v7.5h-1.2v-7.5
		c-1.6,2.6-3.8,4.9-6.4,6.6c-0.3-0.3-0.5-0.7-0.9-1c2.6-1.5,4.8-3.6,6.4-6.2h-6.2v-1.2h7.1v-6.6l1.5,0.1c0,0.1-0.1,0.2-0.3,0.2v6.3
		h7.3L297.1,349.1z M283.7,342.3c1,1.2,1.9,2.6,2.5,4l-1.1,0.5c-0.6-1.5-1.4-2.9-2.4-4.1L283.7,342.3z M296.2,342.8
		c-0.1,0.1-0.2,0.2-0.4,0.2c-0.8,1.4-1.6,2.7-2.6,4l-1-0.5c1-1.4,1.8-2.8,2.5-4.4L296.2,342.8z"/>
	<path class="st2" d="M314.8,343.7v1.1h-7.1l0,0h0.3c0,0.1-0.1,0.2-0.3,0.2v2.2h5.6v6.1c0,1.3-0.5,1.4-3.7,1.4
		c-0.1-0.4-0.2-0.8-0.4-1.1c1.2,0,2.3,0,2.6,0c0.3,0,0.4-0.1,0.4-0.3v-5h-4.4v8.7h-1.2v-8.7h-4.1v6.5h-1.2v-7.6h5.3v-2.4h-7.1v-1.1
		h7.1v-2.5l1.6,0.1c0,0.1-0.1,0.2-0.4,0.2v2.2L314.8,343.7L314.8,343.7z"/>
	<polyline class="st3" points="421.2,455.7 355.9,360.7 172.3,360.7 	"/>
	<path class="st2" d="M424.2,453.5c1.2,1.7,0.7,4.1-1,5.2c-1.7,1.2-4.1,0.7-5.2-1c-1.2-1.7-0.7-4,1-5.2S423,451.7,424.2,453.5z"/>
	<path class="st1" d="M199.9,158.3c0.3-0.6,0.5-1.2,0.7-1.9c1-3.2,1.9-6.7,0.7-9.9c-1.3-3.6-1-7.5,0.7-10.9l0.3-0.7
		c1.6-3.4,1-7.8-1.4-9.7c-2.4-1.9-6.5-1.5-9.2,1.1l-3.8,3.6c-2.7,2.6-7,5.2-9.4,5.9c-2.4,0.7-5.5,4.1-6.8,7.6l-1.9,5.2
		c-0.8,2.3-1.5,5.4-0.4,7.7c0.7,1.2,1.3,2.4,1.9,3.6c0.8,2.3-0.1,5.1-0.5,7.4l-2.1,10.4c-1.3,6.5-3.8,12.7-7.4,18.2l-0.2,0.3
		c-0.4,0.5-0.8,1.2-1,1.8c-0.2,0.7,0,1.4,0.5,1.9c0.5,0.3,1,0.5,1.6,0.4c2.3,0,4.3-0.9,6.6-0.9c3.8,0.1,6.9,3,7.3,6.8l0.1,1.9
		c0.3,3.7-0.8,7.3-2.4,8c-3.3,1.5-4.8-2.3-6.7-3.9c-1.2-1-3-1.5-4.3-0.7c-0.4,0.4-0.8,0.8-1.1,1.3c-1.2,1.6-2.8,4.6-5.1,4.6
		c-2.7,0-4.3-3.6-4.9-5.8c-0.1-0.5-0.4-1.2-1-1.2c-0.6,0-0.7,1-0.7,1.6c-0.3,2.5-1.4,4.9-1.9,7.4c-0.3,1.5-0.7,3-1,4.5
		c-1,4.4-1.6,8.9-2,13.4l-1.2,18.5c-0.3,3.7,2.5,6,6.1,5l9.2-2.5c3.8-1.3,6.7-4.5,7.4-8.5l0.1-0.9c0.7-4.4,1.8-8.8,3.3-13l1.8-4.6
		c1.7-3.9,4-7.4,7-10.4c2.8-3,4.7-6.8,5.3-10.9c0.5-4.4,1.4-8.8,1.8-13.2c0.1-0.4,0-0.8-0.1-1.1c-0.7-1.5-2.8-0.2-3.9-1.1
		c-0.8-0.7-0.7-2.7-0.5-3.7c0.3-2.4,2.2-6.9,4.2-10l6.8-10.7C194.7,166.3,198.1,162.3,199.9,158.3z"/>
</g>
<g id="レイヤー_2_1_">
	<path class="st1" d="M729.2,240.8c-2.6-1.6-4.8-3.8-6.6-6.4l-5.2-8.4c-1.3-2.1-3.4-5.4-4.8-7.5L701.7,202c-1.6-2.2-3.6-4.2-5.9-5.6
		l-2.2-1.3c-0.1,0-0.2-0.1-0.3-0.1h-0.1c-0.2,0-0.3-0.1-0.5-0.2c-0.5-0.1-1-0.1-1.5,0.1c-0.7,0.3-1.4,0.9-1.7,1.7l-3.1,7.8
		c-1.3,2.8-3.7,4.9-6.7,5.8l-19.4,4.5c-3,0.5-6.2-0.3-8.5-2.3l-5.2-4.9c-2.1-2.2-3-5.3-2.2-8.3l1-3c0.5-2-0.3-4-2.1-5.2l-0.4-0.2
		c-2.1-1.2-5.6-3.2-7.8-4.5l-1.2-0.7c-2.5-1.6-4.8-3.5-6.7-5.8c-1.7-2.3-2.2-5.3-1.4-8.1c1.1-2.6,2.7-4.9,4.7-6.8
		c1.5-1.7,2.3-3.9,2.2-6.2L631,138c-0.2-1.9-0.5-3.7-1.1-5.6c-0.7,0.5-1.7,0.9-2.6,1c-1.2-0.2-2.3-0.5-3.4-0.9l-3-1.2
		c-0.9-0.3-3.7,2.1-6.3,5.5l-3.4,4.4c-2.6,3.4-5,7.8-5.4,9.8s-3.3,5.8-6.3,8.2c-2.1,1.8-4.4,3.4-6.8,4.9c-1,0.5-1.6,1.4-1.9,2.5
		c-0.7,1.9-1.7,3.7-2.9,5.3c-1.6,2.8-2.7,5.8-3.1,8.9c-0.4,3.2-4.2,6.1-8.4,6.4l-1.1,0.1c-4.2,0.4-9.3,2.3-11.2,4.5
		c-1.9,2-6.9,3.8-11.2,4l-3.3,0.1c-4.3,0.2-8.2,0.5-8.8,1c-1,0.4-2.1,0.6-3.2,0.6c-1.7-0.3-3.3-1.1-4.6-2.2c-2.7-2.1-5.4-4-8.4-5.8
		c-3.6-1.9-7.9-2.6-12-1.7c-4.7,1.4-5.2,4.4-7.6,7.9c-3.4,5.1-10.8,7.6-16.5,7.1c-3.1-0.2-5.9,0-6.3,0.3c-0.4,0.4-1,0.7-1.5,1.1
		c-0.5,0.2-0.7,0.7-0.7,1.3c0.1,0.7,0.6,1.4,1.3,1.7c1,1,1.7,2.2,1.8,3.6c0.3,1.6,0.7,5.3,1,8.2c0.3,3.2,1.1,6.4,2.3,9.5
		c1.2,3,1.8,6.1,1.9,9.3c-0.1,3.3-1,6.5-2.5,9.5c-1.3,2.3-3.1,4.5-5.2,6.1c-1.5,1-2,5.1-1.2,9.3l1,4.7c0.9,4.2,2.1,9.4,2.8,11.6
		c0.7,3.4,0.9,6.9,0.3,10.4c-0.2,1.4-0.4,3.5-1.2,4.7c-0.7,1.2-2.5,1.3-3.2,2.5c-0.4,0.9-0.1,2,0.6,2.6c1.5,1.1,5.4,3.2,7.1,2.1
		c1.3-0.7,2.1-1.9,2.6-3.3c0.1-1.1,2.5-4,5.2-6.7c3.1-3,5.9-6.3,8.2-9.9c1.5-2.5,3.3-4.7,5.4-6.5c1.7-0.9,3.6-1.3,5.5-1.3
		c1.8,0.1,5.2,2.7,7.8,5.6c2.1,2.7,4.5,5.1,7.1,7.4c1.7,1.6,2.9,3.6,3.5,5.9c0.5,2.1,1.5,4.2,2.9,5.9c1,1,2.3,1.5,3.7,1.6
		c1.9-0.3,3.7-1,5.5-1.7c1.6-0.7,3.3-1.2,5.1-1.4c0.7,0.1,2,1.5,2.9,3c0.9,1.5,2.6,2.3,4.3,2c1.5-0.4,5.2-2.9,8.3-5.4
		c3.3-2.8,6.3-6,8.8-9.5c1.7-2.7,3.2-5.5,3.3-6.5c0.2-1.5,0.7-2.8,1.5-4c0.5-0.7,1.7-2.6,2.7-1.6c0.9,1,0.4,3,0.7,4
		c0.6,1.7,1.8,3.2,3.4,4.2c2.5,1.7,5.2,2.9,6.4,2.8c1.2-0.2,2.2-0.9,2.9-1.8c0.5-0.9,0.9-1.8,1.2-2.8c0.2-0.6,1.5-1.2,2.9-1.1
		c1.5,0.1,3,1.6,3.5,3.4c0.6,1.9,2.7,3.1,4.7,2.7c2-0.3,3.8-1.4,5.2-2.9c1.2-1,2.8-1.1,3.7-2.1c0.3-0.3,0.5-0.7,0.9-1.1
		c1.4-1.7,4.5-2,6.5-2.2c4.3-0.5,8.4-1.4,12.5-2.5l4.3-1.2c2.9-0.9,5.9-1.4,8.9-1.5c1.8-0.1,6.4-0.7,7.9,0.4
		c0.6,0.5,1.7,2.9,2.3,5.3c1.1,2.9,3.3,5.1,6.1,6.1c3.9,1.7,7.6,3.9,10.7,6.7l0.7,0.6c3.6,3,7.6,5.5,11.8,7.5
		c3.3,1.4,9.3,3.6,13.2,5.1l3,1.2c4.6,2,8.4,5.2,11.2,9.3l0.9,1.5c2.2,3.6,4.6,6.4,5.3,6.2c0.7-0.2,1.2-3.8,1-8.1l-0.4-6.9
		c-0.2-4.3,0.9-8.3,2.6-9.1c1.6-0.7,4.8-2.3,7.1-3.5c2.3-1.3,4.5-3.1,6.2-5.1c1.2-1.6,1.8-6.4,1.5-10.7l-0.7-8.6
		c-0.3-3.9-0.3-7.8,0-11.7c0.4-2.3,1.7-4.5,3.6-6c1-1,1.6-2.2,1.8-3.5l0,0L729.2,240.8z"/>
	<path class="st1" d="M973.5,157.2c-1.8-2.2-3.1-5-3.6-7.8l-2-12.4c-0.5-2.8-1.4-5.4-2.7-8.1l-1.8-3.6c-1.3-2.8-2.1-5.8-2.6-8.7
		l-1.9-17.7c-0.4-2.7-1.4-5.3-2.9-7.6l-6.7-9.6c-1.6-2.7-2.1-5.8-1.4-8.8l5-16.6c0.5-2.2,0-4.7-1.6-6.5l-6.7-7.1
		c-1.6-1.5-3.4-2.8-5.3-3.7h-0.1c-0.4-0.2-0.9-0.4-1.4-0.5L926,34.7c-2.9-1.1-5.2-3.3-6.5-6.1l-0.4-1.2l-14.8,4.4
		c-3,0.7-6.2,0.6-9.1-0.2l-4.4-1.5c-2.5-0.6-5-0.4-7.2,0.6l-0.6,0.4c-2.8,1.4-5.9,2-8.9,1.7l-11.7-1.7c-2.3-0.2-4.7,0.7-6.3,2.5
		l-16.3,19.6c-2,2.2-4.7,4-7.7,5l-4.3,1.2c-2.2,0.7-4,2.6-4.8,4.7l-0.7,2.5c-0.5,2.1,0.2,4.3,2,5.6l4.4,3c2.1,1.4,2.8,4.3,1.4,6.4
		c-0.2,0.3-0.4,0.6-0.7,0.9l-1.4,1.4c-2.2,2.1-5.1,3.5-8.1,4.2l-7.4,1.2c-2.6,0.5-5,1.7-7.1,3.4l-2.2,2c-2.3,2-5.3,3.1-8.4,3.3
		h-11.2c-2.8,0.1-5.6,0.5-8.3,1.4l-7,2.6c-3,1-6,1.3-9.1,1l-15.3-2.1c-2.5-0.2-4.8,0.6-6.5,2.3l-16,16.9c-1.7,2-2.9,4.5-3.2,7.1
		l-2,18.6c-0.4,3.1-2,5.9-4.5,7.8l-4.3,3.1c-1.9,1.6-3.3,3.8-3.7,6.4l-1.1,8c-0.5,3.1-1.9,5.9-4,8.1l-0.5,0.5
		c-1.8,1.9-2.9,4.3-3.2,6.8l-0.4,6.9l0.2,0.1l2.2,1.3c2.6,1.6,4.9,3.7,6.6,6.3l11,16.6c1.4,2,3.5,5.4,4.8,7.5l5.2,8.4
		c1.6,2.2,3.5,4.2,5.9,5.6l14.8,8.5c0.1-1.3,0.1-2.7,0-3.9l-0.4-3.8c-0.4-4.2,1-9.8,3.1-12.5s6-7.6,8.6-10.9l7.5-9.5
		c3.2-3.6,7.7-5.9,12.5-6.2l4.7-0.1c4.3-0.1,8.9-0.3,10.3-0.6c1.3-0.3,2.6,0.4,2.9,1.7c0.1,1.6,0.1,3.2-0.1,4.7
		c-0.1,2.1-0.1,4.4,0.2,6.5s3,6.3,6.1,9.3l2.2,2.2c3,3,4.5,7.8,3.2,10.7c-1.9,3.9-4.3,7.8-6.8,11.5l-5.2,7.4c-2.5,3.4-4.3,6.8-4,7.6
		c0.2,0.7,1.5,0.7,2.8,0.1c2.3-1.1,4.9-1.8,7.4-2.3c3-1,5.1-3.7,5.2-6.8c0.1-3.5,0.9-7,2.2-10.2c1.3-2.7,3-5,5.1-6.9
		c1.6-1.4,6.4-1.8,10.5-1.1l0.7,0.1c4.2,0.7,8.8,0.4,10.4-0.6c2.3-1.4,4.9-2.3,7.5-2.9c2.9-0.9,5.1-3.2,5.9-6.1
		c0.4-2.1,1.2-4.2,2.3-6.1c1.4-1.7,4.3-2.3,5.9-3.8c1.9-1.7,4-3,4.7-2.8c1,0.3,1.8,0.7,2.6,1.3c1.1,0.6,2.3,0.9,3.5,0.7
		c2-0.5,3.7-1.6,5.2-3.1c1.7-1.6,6.5-3,10.7-3.2l9.7-0.5c3.8-0.2,7.7-0.7,11.5-1.7c1.7-0.6,3.4-1.2,5.2-1.6c0.7-0.1,2.7-2.6,4.2-5.4
		s5.9-4.9,9.9-4.6c3.9,0.3,7.9,0.2,11.8-0.4c2.9-0.7,5.4-2.6,7.1-5c1.3-2.1,2.7-3.9,3.2-3.9c0.4,0,0.6,1.6,0.4,3.5
		c-0.4,3.5,4,5.6,6.7,6.6c3.4,1.1,6.9,1.4,10.4,0.7c4.6-0.7,8.3-3.9,9.9-8.3c1.2-3.8,3.7-7.2,5.8-7.7l-1.8-15.8
		C976.2,161.5,975.1,159.2,973.5,157.2z"/>
	<path class="st1" d="M633.1,138l1.6,20.3c0.2,2.9-0.9,5.8-2.9,7.9c-1.7,1.7-3.2,3.7-4.2,6.1c-0.6,2-0.2,4.3,1.1,6
		c1.8,2,3.8,3.8,6.2,5.3l1.2,0.6c2.1,1.3,5.5,3.2,7.7,4.4l0.4,0.2c2.7,1.6,3.8,4.7,3.1,7.6l-1,3c-0.5,2.2,0.1,4.6,1.7,6.2l5.2,4.9
		c1.8,1.5,4.3,2.1,6.6,1.8l19.4-4.4c2.3-0.7,4.3-2.3,5.2-4.5l3.1-7.8c0.5-1.4,1.6-2.5,3-2.9c0.5-0.2,1.2-0.3,1.8-0.2l0.4-6.5
		c0.3-3.1,1.7-6,3.8-8.2l0.5-0.5c1.8-1.9,3-4.3,3.5-6.8l1.1-8c0.5-3.1,2.1-5.8,4.6-7.8l4.3-3.1c1.9-1.6,3.2-3.8,3.6-6.3l2-18.6
		c0.4-3.1,1.8-6,3.7-8.3l15.9-16.8c2.2-2.1,5.2-3.2,8.3-3l15.3,2.1c2.8,0.2,5.4,0,8.1-0.9l7-2.6c2.9-1,6-1.5,8.9-1.6h11.2
		c2.6-0.1,5.1-1.1,7.1-2.8l2.1-2.1c2.3-2,5.2-3.3,8.3-3.9l7.4-1.2c2.6-0.5,5-1.8,6.9-3.5l1.4-1.4c1.1-1,1.2-2.6,0.2-3.6
		c-0.2-0.2-0.3-0.3-0.6-0.5l-4.4-3c-2.5-1.8-3.5-5-2.8-7.9l0.7-2.5c1.1-2.9,3.3-5.2,6.3-6.2l4.3-1.2c2.6-0.9,4.8-2.3,6.6-4.3
		l16.1-19.4c2-2.2,5.1-3.4,8.2-3.2l11.7,1.7c2.7,0.2,5.2-0.3,7.7-1.5l0.6-0.4c2.8-1.4,6-1.7,8.9-0.9l4.4,1.5
		c2.6,0.7,5.2,0.7,7.9,0.2l14.6-4.3l-0.3-1c-1.1-2.8,0.1-6,2.7-7.5c1.8-1.1,2.8-3.2,2.3-5.2l-1-4.2c-0.6-2.6-2-4.9-3.9-6.7
		c-1.1-0.9-1.6-2.1-1.5-3.5c0.3-1.3,1.3-2.3,2.6-2.8l15.1-6.1c2.2-1.1,3.9-2.9,4.8-5.2l5-16.1c0.7-2.3,2-6.2,2.9-8.4l1.5-3.9
		c0.6-2.1,0.1-4.4-1.5-5.9l-11-9.5c-2.2-2.1-4-4.7-5.1-7.6c-0.2-0.9-0.4-1.8-0.7-2.9c-1-3.2-2-6.7-1.1-9.2c1.3-3.2,5.2-3.9,8.4-4.7
		c1-0.2,1.9-0.4,2.6-0.6l5.2-1.7c0.1-0.2,0.2-0.5,0.3-0.7c0.5-0.9,1.1-2,0.3-2.8c-0.5-0.3-1.3-0.4-1.9-0.2c-4.2,0.9-8.3,2-12.5,2.9
		c-2,0.4-4.3,0.6-6.3,0.3c-1.1,0-2-0.4-2.7-1.2c-1.4-1.8-3.2-3.3-5.3-4.5s-6.3,0.4-9.3,3.4l-0.2,0.2c-3,3-6.4,5.9-7.5,6.4
		c-2.1,0.6-4.3,1-6.5,1c-2.9,0.2-5.5,1.5-7.6,3.4c-1.7,1.8-6.5,3.5-10.8,3.9l-3.8,0.3c-3.4,0.2-6.8,0.7-10.1,1.7
		c-3,1.7-5.8,3.7-8.3,6l-2.8,2.3c-3.2,2.8-8.4,5.1-11.4,5.3c-2.5,0.2-5.6-2.3-7.2-1.7c-2.3,1-2.7,5.2-2.2,7c0.6,3.7,1,7.6,1,11.4
		v0.2c-0.2,4.8-2.2,9.4-5.8,12.6l-29.8,25c-4,3.3-11.2,3.6-14.4,8c-2.3,3.2-3.8,7.9-5.9,11.5c-2.3,4-5.4,6.4-9.2,8.9
		c-4.6,3.3-7.5,8.6-11.6,12.4c-6.4,5.8-14.7,6.8-20.5,13.6c-2,2.5-4.6,4.7-5.6,5.2c-1.1,0.4-3.4,2.6-5.1,4.7c-3.1,4-8.1,6.4-11,10.5
		c-1.6,2.2-2.6,5.2-5.1,6.4c-0.9,0.4-1.8,0.5-2.8,0.9c-3.9,1.6-5.2,7.6-8,10.5c-2.7,2.9-5.5,5.3-6.5,5.5c-2.9,0.7-2.9,4.7-5.1,6
		c-1.1,0.5-2.1,1-3.3,1.1c-0.9,0.1-1.6,0.3-2.2,0.7c-1.2,0.9-1.3,2.6-1.9,3.9c-1,1.7-2.9,2.5-3.9,4c-0.7,1.2-0.9,2.8-1.5,4
		c-2,3.4-5,6.1-8.5,7.7l-1.4,0.6c-4.7,2-9.6,3.2-14.6,3.6h-1.1c-4.3,0.2-9.7,2.1-12,4.4c-0.6,0.6-1.3,1.2-2,1.6
		c0.1,0.1,0.1,0.2,0.1,0.3C632.5,133.8,632.9,135.9,633.1,138z"/>
</g>
</svg>
