<?xml version="1.0" encoding="utf-8"?>
<!-- Generator: Adobe Illustrator 24.1.0, SVG Export Plug-In . SVG Version: 6.00 Build 0)  -->
<svg version="1.1" id="レイヤー_1" xmlns="http://www.w3.org/2000/svg" xmlns:xlink="http://www.w3.org/1999/xlink" x="0px"
	 y="0px" viewBox="0 0 775 1000" style="enable-background:new 0 0 775 1000;" xml:space="preserve">
<style type="text/css">
	.st0{clip-path:url(#SVGID_2_);}
	.st1{fill:none;stroke:#DBCAB9;stroke-width:0.25;}
	.st2{fill:#DBCAB9;}
	.st3{fill:#3A4348;}
	.st4{fill:none;stroke:#3A4348;stroke-width:0.5;stroke-miterlimit:10;}
</style>
<g id="レイヤー_1_1_">
	<g>
		<g>
			<g>
				<g>
					<defs>
						<rect id="SVGID_1_" x="203.1" y="9.8" width="633.9" height="937.5"/>
					</defs>
					<clipPath id="SVGID_2_">
						<use xlink:href="#SVGID_1_"  style="overflow:visible;"/>
					</clipPath>
					<g class="st0">
						<path class="st1" d="M942.4,164.3c-0.4-2.5-1.4-4.9-2.9-6.9c-1.6-2-2.7-4.3-3.2-6.9l-1.9-11.6c-0.5-2.7-1.4-5.3-2.6-7.8
							l-1.7-3.4c-1.2-2.5-2-5.1-2.3-7.9l-1.8-16.6c-0.4-2.7-1.4-5.3-2.8-7.6l-6.2-9.1c-1.4-2.2-1.8-4.9-1.2-7.4l4.7-15.6
							c0.6-2.5,0-5.1-1.7-7l-6.3-6.6c-2-1.9-4.3-3.3-6.8-4.3l-11.1-3.5c-2.4-0.9-4.4-2.8-5.5-5.1l-0.8-1.9l-14.7,4.3
							c-2.6,0.6-5.3,0.6-7.9-0.2l-4.1-1.4c-2.5-0.7-5.2-0.5-7.6,0.7l-0.6,0.4c-2.4,1.2-5.1,1.7-7.7,1.5l-11-1.6
							c-2.5-0.2-5,0.7-6.8,2.6l-15.2,18.3c-1.8,2-4.1,3.5-6.7,4.3l-4,1.1c-2.4,0.8-4.3,2.7-5.2,5.1l-0.7,2.3
							c-0.6,2.4,0.3,4.9,2.2,6.3l4.1,2.8c1.6,1,2,3,1.1,4.6c-0.2,0.3-0.4,0.5-0.6,0.7l-1.3,1.3c-2,1.8-4.4,3-7,3.6l-6.9,1.1
							c-2.6,0.5-5.1,1.7-7.2,3.5l-2.1,1.9c-2.1,1.7-4.6,2.7-7.2,2.8h-10.6c-2.7,0.1-5.5,0.6-8.1,1.4l-6.6,2.3
							c-2.6,0.8-5.3,1.1-8,0.8l-14.4-2c-2.6-0.2-5.1,0.7-7,2.5L701.6,122c-1.7,2-2.9,4.5-3.3,7.2l-1.8,17.4
							c-0.4,2.6-1.8,4.9-3.8,6.6l-4,2.9c-2,1.7-3.4,4-3.9,6.6l-1,7.5c-0.5,2.6-1.7,5.1-3.5,7l-0.5,0.4c-1.8,1.9-3,4.4-3.3,7
							l-0.5,7.1c-1.8-0.6-3.8,0.3-4.4,2.1l-2.9,7.2c-1.1,2.3-3.1,4.1-5.6,4.8l-18.2,4.2c-2.5,0.4-5.1-0.3-7.1-1.9l-4.9-4.6
							c-1.7-1.8-2.3-4.3-1.8-6.7l0.9-2.8c0.6-2.3-0.4-4.8-2.4-6l-0.4-0.2c-2-1.1-5.2-3-7.2-4.1l-1.1-0.6c-2.2-1.4-4.3-3.2-6-5.2
							c-1.4-1.9-1.8-4.3-1.1-6.6c1-2.2,2.4-4.3,4.1-6c1.7-1.8,2.5-4.2,2.4-6.6l-1.5-19.1c-0.2-1.9-0.6-3.8-1.1-5.7
							c-1.4,0.9-2.7,1.5-3.3,1.4c-1.1-0.2-2.2-0.5-3.2-0.8c-0.7-0.3-2-0.8-2.8-1.1s-3.5,2-5.9,5.2l-3.2,4.1
							c-2.4,3.1-4.7,7.3-5.1,9.2s-3,5.4-5.9,7.7c-2,1.7-4.1,3.3-6.4,4.6c-0.9,0.5-1.5,1.3-1.7,2.3c-0.7,1.8-1.6,3.5-2.7,5
							c-1.5,2.6-2.5,5.4-2.9,8.4s-4,5.7-7.9,6l-1,0.1c-4,0.4-8.7,2.2-10.5,4.2s-6.5,3.6-10.5,3.8l-3.1,0.1c-4,0.1-7.7,0.5-8.2,0.8
							c-0.9,0.4-2,0.6-3,0.6c-1.6-0.3-3.1-1-4.3-2.1c-2.5-2-5.1-3.8-7.9-5.4c-3.5-1.8-7.5-2.4-11.3-1.6c-4.4,1.3-4.9,4.1-7.1,7.4
							c-3.2,4.8-10.1,7-15.5,6.7c-2.9-0.2-5.5-0.1-5.9,0.3c-0.4,0.4-0.9,0.8-1.4,1c-0.4,0.2-0.7,0.7-0.7,1.2
							c0.1,0.7,0.6,1.3,1.2,1.6c0.7,0.4,1.4,1.9,1.7,3.4s0.7,5,1,7.7c0.3,3,1,6,2.1,8.9c1.1,2.8,1.7,5.7,1.8,8.6
							c-0.1,3.1-0.9,6.1-2.3,8.9c-1.2,2.2-2.9,4.2-4.9,5.7c-1.4,0.9-1.9,4.8-1.1,8.6l0.9,4.4c0.8,3.9,2,8.8,2.6,10.9
							c0.7,3.2,0.8,6.5,0.3,9.8c-0.2,1.3-0.4,3.4-1.1,4.5s-2.3,1.2-3,2.3c-0.4,0.8-0.1,1.8,0.6,2.4c1.4,1,5.1,3,6.7,2
							c1.2-0.7,2-1.8,2.4-3.1c0.1-1,2.3-3.8,4.9-6.3c2.9-2.8,5.5-5.9,7.7-9.3c1.6-2.6,3.9-5.3,5.1-6.1c1.6-0.8,3.4-1.3,5.1-1.2
							c1.6,0.1,4.9,2.5,7.3,5.3c2,2.5,4.2,4.8,6.7,6.9c1.6,1.5,2.7,3.4,3.3,5.5c0.5,2,1.4,3.9,2.7,5.5c0.9,0.9,2.2,1.4,3.5,1.5
							c1.8-0.3,3.5-0.9,5.2-1.6c1.5-0.7,3.1-1.1,4.8-1.3c0.7,0.1,1.9,1.4,2.7,2.8s2.4,2.2,4,1.9c1.4-0.4,4.9-2.7,7.8-5.1
							c3.1-2.6,5.9-5.6,8.2-8.9c1.6-2.5,3-5.2,3.1-6.1c0.2-1.4,0.7-2.6,1.4-3.8c0.5-0.7,1.6-2.4,2.5-1.5s0.4,2.8,0.7,3.8
							c0.6,1.6,1.7,3,3.2,3.9c2.3,1.6,4.9,2.7,6,2.6c1.1-0.2,2-0.8,2.7-1.7c0.5-0.8,0.9-1.7,1.1-2.6c0.2-0.6,1.4-1.1,2.7-1
							s2.8,1.5,3.3,3.2c0.6,1.8,2.5,2.9,4.4,2.5c1.9-0.3,3.6-1.3,4.9-2.6c1.1-0.9,2.6-1,3.5-2c0.3-0.3,0.5-0.7,0.8-1
							c1.3-1.6,4.2-1.9,6-2.1c4-0.5,7.9-1.3,11.7-2.4l4-1.1c2.7-0.8,5.5-1.3,8.4-1.4c1.7,0,6-0.7,7.4,0.4c0.6,0.5,1.6,2.7,2.2,5
							c1,2.7,3.1,4.7,5.7,5.7c3.6,1.6,7,3.7,10,6.3l0.7,0.6c3.4,2.8,7.1,5.2,11.1,7c3.1,1.3,8.7,3.4,12.4,4.8l2.8,1.1
							c4.3,1.9,7.9,4.9,10.5,8.7l0.8,1.4c2,3.4,4.3,6,5,5.8s1.1-3.6,0.9-7.6l-0.4-6.5c-0.2-4,0.8-7.8,2.4-8.4s4.5-2.1,6.6-3.3
							c2.2-1.2,4.2-2.9,5.8-4.8c1.1-1.5,1.7-6,1.4-10l-0.7-8.1c-0.3-3.6-0.3-7.3,0-10.9c0.4-2.2,1.6-4.2,3.4-5.6
							c0.9-0.6,1.6-2.2,1.9-4.3c0.3-1.6,0.3-3.2,0.1-4.8l-0.4-3.6c-0.4-3.9,0.9-9.2,2.9-11.7s5.6-7.1,8.1-10.2l7-8.9
							c3-3.4,7.2-5.5,11.8-5.8l4.4-0.1c4-0.1,8.3-0.3,9.7-0.6c1.1-0.3,2.3,0.3,2.7,1.5v0.1c0.1,1.5,0.1,3-0.1,4.4
							c-0.2,2-0.1,4.1,0.2,6.1s2.8,5.9,5.7,8.7l2.1,2.1c2.8,2.8,4.2,7.2,3,9.9c-1.8,3.7-4,7.3-6.4,10.8l-4.9,6.9
							c-2.3,3.2-4,6.4-3.8,7.1s1.4,0.7,2.6,0.1c2.2-1,4.6-1.7,6.9-2.2c2.6-0.6,4.8-3.5,4.9-6.4c0.1-3.3,0.8-6.6,2.1-9.7
							c1.2-2.4,2.8-4.7,4.8-6.5c1.5-1.2,6-1.7,9.9-1l0.7,0.1c3.9,0.7,8.3,0.4,9.8-0.6c2.2-1.3,4.5-2.2,7-2.7c2.4-0.5,4.8-3,5.5-5.7
							c0.4-1.7,1-4.2,2.2-5.6c1.3-1.6,4-2.2,5.6-3.6c1.8-1.6,3.8-2.8,4.5-2.6c0.8,0.3,1.6,0.7,2.4,1.2c1,0.6,2.2,0.8,3.3,0.7
							s3.3-1.4,4.9-2.9s6.1-2.8,10-3l9-0.5c3.6-0.2,7.2-0.7,10.7-1.6c1.6-0.6,3.2-1.1,4.9-1.5c0.7-0.1,2.5-2.4,3.9-5.1
							s5.6-4.6,9.3-4.3s7.4,0.2,11.1-0.4c2.7-0.7,5-2.4,6.6-4.7c1.2-2,2.5-3.7,3-3.7s0.6,1.5,0.4,3.3c-0.4,3.3,3.8,5.3,6.3,6.2
							c3.3,1.2,6.3,1.1,9.8,0.7c4.2-0.7,7.8-3.7,9.3-7.7c1.2-3.8,3.7-7,5.7-7.3h0.7L942.4,164.3z"/>
						<path class="st1" d="M383.6,455.3c1.6-1.7,4.1-4.4,5.6-6.1l8-8.9c2-2.1,4.2-3.9,6.7-5.4l7.5-4.2c1.7-1.1,2.7-3,2.6-5l-0.6-5.2
							c-0.4-2.6-1.2-5.1-2.3-7.4l-1.3-2.5c-0.9-1.7-2.6-2.5-3.7-2.1c-1.5,0.6-2.8,1.8-3.4,3.3c-0.7,2-3.4,4-6,4.6l-0.5,0.1
							c-2.6,0.6-5.9-0.2-7.4-1.6c-1.5-1.3-3.3-2.2-5.2-2.8c-2.6-0.8-4.9-2.3-6.9-4.2l-0.9-1c-1.8-1.7-4-2.8-6.4-3.3l-8.4-1.3
							c-2.5-0.3-5,0.1-7.3,1l-1.3,0.6c-2.7,1.1-5.6,1.6-8.5,1.5l-12-0.8c-2.9-0.3-5.6-1.9-7.4-4.2l-3.5-4.9
							c-3.2,7.7-17,9.4-18.4-0.6l-0.4-3c-0.6-3.9-2.8-8.2-4.9-9.5s-5.4-1.9-7.3-1.3c-3.3,1-4.1,3.7-6.1,6c-0.5,0.5-0.9,1-1.3,1.6
							c-1,1.9,4.8,8.4,1.3,9.6c-1,0.2-2,0-2.9-0.5l-2.6-1c-0.9-0.4-2.2-0.7-2.8,0.2c-0.3,0.6-0.2,1.3,0.1,1.9
							c1.1,3.5,2,7.1,2.7,10.7c0.4,1.9,0.7,3.8,1.1,5.8c0.2,1.2,0.2,3.5,1.6,4.1s4.8-1.9,4.8,1c0,1.3-2,4.2-4.5,6.4s-5.9,2-7.6-0.4
							c-0.1-0.1-0.2-0.2-0.3-0.4l2.3,14.3c0.4,2.2,1.2,5.8,1.8,8l0.6,2.4c0.8,2.5,1.9,4.9,3.3,7.1l1.7,2.5c1.5,1.9,3.5,3.3,5.7,4
							l5.1,1.3c2.8,0.8,5.4,2.1,7.7,3.8l3.5,2.8c2.2,1.7,2.5,4.9,0.8,7c-0.1,0.1-0.2,0.2-0.3,0.3l-1.3,1.4c-1.1,1.2-1,3,0.1,4.1
							c0,0,0,0,0.1,0.1l0.5,0.4c2.1,1.9,4,4.1,5.6,6.5l3.4,5.2c1.4,1.9,3.4,3.4,5.7,4.1l3.1,0.9c2.8,0.9,5.2,2.7,7,5l0.1,0.1
							c1.4,1.8,3.5,3,5.7,3.4l14.6,1.7c0.3-0.3,0.6-0.6,1-0.9s0.8-0.7,1.2-1.1c0.3-0.4,0.4-1,0.3-1.5c-0.2-0.4-0.4-0.7-0.7-1
							c-4.1-4-6.4-10.1-9.1-15.2l-5.2-9.6c-1.9-3.6-0.7-8,2.8-10.2l12.5-7.8c3.4-2.1,7.6-1.9,9.5,0.5c1.6,2,5.3,3.6,8.8,3.9
							c1-1.7,2.1-3.3,3.3-4.8L383.6,455.3z"/>
						<path class="st1" d="M405.6,498.9l1.2-4.2c0.9-2.8,2.8-5.2,5.2-6.8l7.7-4.5c2.6-1.4,5.5-2,8.5-1.7l2.4,0.4
							c1.9,0.2,3.7-0.8,4.6-2.5l0.5-1.1c1.3-2.7,3.9-4.4,6.9-4.5h5.8c2.9,0.1,5.7,1.3,7.9,3.4l1.5,1.6c1.7,1.6,3.9,2.6,6.2,2.8
							l6.9,0.2c-1.5-2.3-2.2-5.1-2-7.8l1.6-12.6c0.3-1.8,0.1-3.7-0.6-5.5c-1.1-1.7-0.8-4.7-0.1-6.7c0.8-2.4,1.3-4.9,1.5-7.4l1-16.4
							c0.3-2.9,1.3-5.7,3-8.1l1.1-1.5c1.4-2.1,2.4-4.5,2.8-7v-0.2c0.5-2.9,2.2-5.5,4.6-7.2l4.4-2.8c2-1.2,5.2-3.2,7.2-4.3l4.1-2.4
							c2.6-1.3,5.6-1.5,8.4-0.6c2.5,1,5.1,1.7,7.7,2.3l4.4,0.9c2.1,0.4,4.3,0.1,6.3-0.9c1.4-1.1,1.9-2.9,1.5-4.6l-2.5-9.4
							c-0.6-2.9-0.2-5.9,1.1-8.5l3.3-5.4c-3.6-0.9-7.2-1.5-10.8-2c-3.4-0.4-7.9-3.5-9.9-7l-6.7-11.3c-2.3-4.2-3.8-8.7-4.4-13.4
							l-0.2-2.5c-0.4-4-1.7-8.5-2.9-10s-1.5-5.2-0.6-8.1c1.3-3.9,2.9-7.7,4.8-11.4c1.8-3.4,2.3-7,1.3-8c-1.1-1.1-2.6-1.7-4.2-1.9
							c-1.2,0-4.5,2.1-7.1,4.7c-2.2,2.2-4.6,4.2-7.2,5.9c-2.2,0.8-4.5,1.2-6.8,1.3c-2.7,0-5.4-1-7.4-2.8c-2-1.9-2.2-6.6-5.1-7.1
							c-1-0.1-2,0-3,0.2c-3.8,0.8-8,1.1-11.5,2.6c-2,0.6-4.1,0.8-6.1,0.6c-2.2-0.1-5.8,2.4-8.1,5.6l-0.2,0.4
							c-2.8,3.4-7,5.5-11.4,5.6l-5-0.1c-8.1-0.2-17,10.7-17,18.5v0.6c-0.3,3.9-0.3,7.9-0.1,11.9c0.2,2.6-1.8,6.2-4.6,8
							c-3.5,2.6-6.4,5.8-8.8,9.5l-4.2,6.9c-2.6,3.7-6.6,6.1-11,6.7l-0.8,0.1c-4.5,0.1-8.8-1.6-12-4.8l-0.2-0.3
							c-2.7-2.9-7.2-3.2-10.2-0.5c-3.5,3.1-6.9,4.8-11,7.1c-1.1,0.6-2.3,1.4-2.5,2.6c-0.3,1.8,1.5,3.1,3.2,3.9s3.6,1.9,3.6,3.7
							c0,5.4-9.7,7.2-13.4,7.2c-1.4,0-3-0.2-4.1,0.6s-1.5,2.3-1.8,3.8l4.6,6.4c1.4,1.8,3.4,2.9,5.7,3.2l12,0.8
							c2.5,0.1,5-0.4,7.4-1.3l1.3-0.6c2.7-1.1,5.7-1.5,8.6-1.1l8.4,1.3c2.9,0.6,5.5,2,7.7,4l0.9,1c1.6,1.6,3.6,2.8,5.8,3.5
							c2.3,0.6,4.4,1.8,6.2,3.4c1.6,1.1,3.5,1.4,5.3,1l0.5-0.1c2-0.4,3.9-2,4.3-3.1c0.9-2.2,2.7-3.9,4.9-4.7c2.2-0.7,5,0.7,6.4,3.2
							l1.3,2.5c1.3,2.6,2.1,5.4,2.5,8.2l0.6,5.2c0.2,2.9-1.2,5.8-3.7,7.3l-7.5,4.2c-2.3,1.4-4.3,3-6.1,4.9l-8,8.9
							c-1.5,1.7-4.1,4.5-5.6,6.2l-8.8,9.5c-0.8,1-1.6,2.1-2.3,3.2l1.7-0.1c4.3,0.1,8.2,2.5,10.3,6.3l0.6,1.3c1.1,2.5,1.7,5.2,1.9,8
							c0.3,2.7-1,5.1-2.5,7.4c-0.6,0.8-1,1.7-1.2,2.6c0,0.9,0.2,1.7,0.6,2.5c0.2,0.4,0.4,0.7,0.7,1.1l15.4,2.8
							C403.5,501.6,405.1,500.5,405.6,498.9z"/>
						<path class="st1" d="M340.5,653.9l0.4-1.8c0.7-2.5,2.6-4.5,5-5.3l1.4-0.4c2.4-0.9,4.4-2.8,5.2-5.3c0.8-3.1,1.1-6.8,2.9-9.5
							c0.3-0.4,0.8-0.9,1.2-0.7c1,0.5-0.2,2.3,0.4,3.2c0.5,0.5,1.3,0.5,1.8,0.1c0.5-0.5,1-1,1.4-1.5c2.5-2.6,6.1-3.9,9.8-3.5
							c1.8,0.2,3.6,0.6,5.4,1.2c2.2,1,4.7,1.4,7.1,1.2c4.9-0.6,6.2-5.5,8-9.4l4.3-9.3c1-2.1,0.1-4.7-1.9-5.8
							c-2.4-1.1-5.1-1.2-7.6-0.4L354.9,619c-1.7,0.8-3.7,0.1-4.4-1.6c-0.1-0.3-0.2-0.6-0.3-1l-0.9-4.9c-0.4-2-0.6-4.1-0.7-6.1
							c-0.1-1.5,0.1-4.4-0.8-5.5c-0.4-0.5-1-0.7-1.6-0.8c-0.6,0-1.2,0.1-1.8,0.3c-1.8,0.6-3.4,1.5-5.2,2.2l-5.5,1.9l-6.5,2.2
							c-2.5,1-4.4,2.9-5.5,5.3l-4.1,10.5c-1.1,2.8-2.2,5.7-3.3,8.5s-1.8,5.7-3.1,8.3c-0.2,0.4-0.5,0.9-0.8,1.3
							c-0.8,1.1-1.8,2.2-1.8,3.6s1.2,2.7,2,4c1.1,1.9,1.1,3.7,1.1,5.8l-1.6,10.7c-0.5,3.7,0.4,8.2,3.2,10.8c0.6,0.7,1.5,1.1,2.4,1.3
							c0.7,0.1,1.5-0.1,2.1-0.4c2.7-1.2,4.4-3.6,6.6-5.4c1.4-1.2,2.9-2.2,4.3-3.3l7.7-5.8C338.3,658.9,339.8,656.5,340.5,653.9z"/>
						<path class="st1" d="M535.6,829.5l1.2-6.9c0.3-2.4-0.1-4.8-1.2-7l-1.3-2.4c-1.3-2-3.1-3.6-5.3-4.5l-15.3-5.4
							c-2.7-1.1-5.1-2.9-6.9-5.2L494.9,781c-1.6-2.1-3.4-3.9-5.5-5.4l-3.5-2.3c-2.4-1.7-4.1-4.2-5-7l-3-12c-0.7-2.4-2-4.5-3.8-6.2
							l-6.9-6.1c-2.1-2-3.9-4.2-5.5-6.6l-7.3-12.2c-1.2-2-3-5.2-4.2-7.2l-6-10.9l0,0c-1.4-2.3-2.9-4.5-4.6-6.5l-3.7-4.2
							c-1.7-1.8-3.9-3-6.2-3.7l-5-1.2c-2.1-0.3-4.2,0.3-5.7,1.8l-3.4,3.8c-2,2.1-4.6,3.6-7.4,4.4l-7,1.6c-2.9,0.5-5.8,0.4-8.6-0.5
							l-0.7-0.2c-2.7-1.1-5.2-2.6-7.3-4.5l-8.4-7.7c-1.9,1.7-4.3,2.8-6.8,3.3l-15.7,2.2c-2.9,0.6-5.8-1.3-6.4-4.2
							c-0.1-0.6-0.1-1.3,0-1.9l0.2-1.7c0.4-4-0.2-8.5-1.4-10.1c-1.8-2.4-4.9-1.9-7.5-2.1c-1.1-0.2-2.3-0.1-3.4,0.5
							c-1.2,0.9-1.2,2.6-1.1,4.1c0.3,4.7,0.6,9.5,2.6,13.8c1.3,3,3.1,5.7,5.4,8c1.8,1.5,3.8,2.6,6,3.3c1.9,0.6,3.3,2.2,3.5,4.2
							c0.1,2.3-0.7,4.6-2.2,6.3c-1.5,1.6-1.9,6.1-1.1,9.9l2.2,9.8c0.8,4.5,0.8,9-0.2,13.5c-1.1,4.5-1.9,9-2.4,13.6l-0.4,3.9
							c-0.2,4.5,1.5,8.8,4.6,12.1l8.9,8.2c3.1,2.9,5.7,6.3,7.7,10c1.5,3.9,2.4,8.1,2.4,12.3v18.6c0,4-1.7,9.3-3.7,11.9
							s-6.8,5.7-10.5,7l-0.4,0.2c-3.6,1.2-7.2,1.9-10.5-0.3c-0.8-0.7-1.8-1.3-2.7-1.7c-1.1-0.3-2.2-0.3-3.3-0.2
							c-0.8,0-1.5,0.2-2.2,0.4c-0.7,0.3-1.3,0.8-1.5,1.6c-0.1,0.8,0,1.5,0.5,2.2c0.6,1,1.1,2.1,1.8,3.1c1.6,2.6,3.8,5.1,4.8,5.6
							c3.6,1.8,2.4,8.2,5.3,10.6c1,0.9,2.2,1.4,3.2,2.2c0.8,0.5,1.3,1.5,1.3,2.5c-0.2,0.7-0.5,1.3-0.9,1.8c-0.9,1.3-1.6,3.5-0.8,5
							c1.1,2.1,4.4,4.1,7.2,4.5s8.5,0.6,12.4,0.6h21.8c4.4,0.2,8.3,2.7,10.5,6.4l2.1,4.1c1.8,3.5,6.1,6.4,9.5,6.4s8.5-2.4,11.2-5.3
							l0.4-0.4c2.7-3.1,3.1-7.7,0.9-11.2l-5-7.3c-2.7-4-5-8.2-7-12.6l-5.7-13.1c-1.7-4.4-2.2-9.1-1.4-13.7l2.3-11.5
							c1.1-4.6,2.8-9.1,5.1-13.3l6.7-11.6c2.1-3.7,3.8-7.7,4.9-11.8c0.7-3,3.1-6.5,5.3-7.7c3.2-1.5,6.6-2.4,10.1-2.6
							c3.4-0.2,8.7,1.5,11.9,3.9l3.4,2.6c3.2,2.4,5.2,6.1,4.4,8.2s-2.1,7.1-3,10.9l-0.5,1.9c-0.9,3.9-4,7.3-6.8,7.6
							s-5.9-0.6-6.8-2.1s-2.2-3.9-3-5.4s-4.6-2.1-8.4-1.2s-7.5,2.3-8.2,3.2s-0.4,3.1,0.4,4.8c1.1,2,2.6,3.7,4.5,4.9
							c1.7,1,3.7,1.4,5.7,1c1.6-0.4,3.3-0.6,5-0.4c1.2,0.2,2,3.7,1.8,7.6l-0.3,5.1c0,4.7,1.2,9.2,3.6,13.2l9.4,14.4
							c2.3,3.9,3,8.5,2.2,13c-0.7,2.9-1.5,5.9-2.2,8.8c-0.5,1.8-0.7,3.7-1.2,5.4c-0.9,2.9-1.9,5.2-1.5,8.3c0.3,2.2,0.7,4.1,0.2,6.3
							c-0.5,2-3.4,5.7-6.5,8.2c-2.7,2.2-4.9,5.1-8.4,6.1c-0.7,0.2-1.4,0.4-2.1,0.6c-0.7,0.3-1.3,0.8-1.6,1.5c-0.2,0.9,0,1.9,0.4,2.7
							c0.9,2.2,2.5,4.8,1,7.2c-0.5,1-0.9,2.1-1.1,3.2c-0.4,1.2-0.9,2.3-1.7,3.3c-0.4,0.5-0.6,1.1-0.5,1.7c0.3,0.8,1.3,0.9,2.1,0.9
							c2.5-0.2,5-1.1,6.9-2.8c1.7-1.4,4.1-2.8,5.2-4.9c0.8-1.5,4.5-4,8.2-5.4l14.4-5.6c4.4-1.8,8.6-4.2,12.5-6.9l3.1-2.3
							c3.7-2.9,6.9-6.3,9.4-10.2c2.1-3.5,3.1-6.8,6.5-9.2c2.5-1.6,4.8-3.5,6.9-5.6c1.2-1.4,2-3.1,3.3-4.5c0.3-0.3,0.5-0.7,0.6-1.1
							c0.1-0.7-0.5-1.3-0.9-1.8c-1.5-1.8-1.7-3.8-1.6-6s-0.2-4.5-0.1-6.8c0-0.3,0-0.7-0.3-0.9c-0.1-0.1-0.3-0.1-0.5-0.1h-2.8
							c-0.7,0-1.5-0.1-2.1-0.3c-2.4-0.9-3.1-5.5-2.3-7.6c1.7-4.2,4.3-8,7.7-11l3.6-3c3.5-2.6,8.1-3.4,12.2-2l5.7,2.2l1.8-2.7
							C534,834.3,535.1,832,535.6,829.5z"/>
						<path class="st1" d="M642.4,550.2c-2.7,0.3-5.4,0.7-8,1.4l-6.1,1.7c-2.5,0.8-4.9,1.9-7.2,3.3l-1.6,1.1
							c-2.5,1.5-5.2,2.5-8.1,2.9l-6.2,0.7c-0.2,0-0.5,0-0.7,0c-2.7-0.1-5.2-1.4-6.8-3.6l-2.1-3.2c-1.5-2.2-3.2-4.3-5-6.3l-1.6-1.6
							c-1.5-1.4-3.7-1.8-5.7-1.2l-5.7,2.1c-2.8,0.9-5.7,1.2-8.6,0.8l-14.8-2.3c-2-0.2-3.9,0.7-4.9,2.4l-4,7.5
							c-1.4,2.5-2.9,4.9-4.6,7.1l-8.7,11.1c-1.6,2.1-3,4.4-4.1,6.8l-4.5,9.9c-1.3,2.6-3.1,4.9-5.3,6.8l-14.3,11.5
							c-1.6,1.5-2.5,3.6-2.5,5.8l1,13.8c0.3,2.1,1.6,4,3.4,5.1l5.4,2.8c2.6,1.4,4.6,3.7,5.8,6.3l3.1,7.8c1,2.8,0.2,5.9-2,7.8
							l-3.5,2.9c-1.9,1.7-3.4,3.8-4.5,6.1l-0.7,1.6c-0.6,1.7,0,3.6,1.4,4.7l2.2,1.4c2.4,1.7,3.9,4.4,4,7.4v1.2
							c-0.1,2.9-2.1,5.4-5,6.1l-7.6,1.4c-2.3,0.6-4.3,1.9-5.8,3.7l-0.8,1.1c-1.8,2.3-4.7,3.6-7.6,3.5l-8.8-0.8
							c-2.1-0.1-4.1,0.9-5.3,2.6l-0.8,1.2c-1.7,2.4-4.5,3.8-7.5,3.6l-6.9-0.8c-2.5-0.2-5.1,0.2-7.5,1l-4.9,2l3.5,6.4
							c1.1,2,3,5.2,4.1,7.2l7.3,12.2c1.4,2.2,3.1,4.3,5,6.1l6.9,6.1c2.1,2,3.7,4.6,4.5,7.4l3,12c0.7,2.3,2.1,4.2,4,5.7l3.5,2.3
							c2.3,1.7,4.4,3.7,6.1,6l11.9,17.1c1.5,1.9,3.5,3.4,5.7,4.4l15.3,5.4c2.7,1.1,5,3,6.6,5.5l1.4,2.4c1.3,2.6,1.8,5.6,1.4,8.5
							l-1.2,6.9c-0.6,2.8-1.9,5.5-3.6,7.8l-1.4,2.1l0.4,0.2c3,1,5.9,2.5,8.5,4.3c2.2,1.8,3.8,4.2,6,6l1.2,1c3.1,2.4,6.7,4,8,3.5
							s2.3-2.3,2.3-4c0.2-2.2,1.3-4.3,2.9-5.8c1.8-2,2.9-4.6,2.9-7.3c-0.1-1.6,0.2-3.2,0.9-4.7c0.7-1.2,1.5-1.9,1-3.5
							c-0.3-1.1-1.1-2-1.2-3.1c0-0.7,0.2-1.4,0.5-2.1c0.6-2.1,1.4-4.3,2.3-6.3c0.7-1.2,1.4-2.4,2-3.7c1.4-2.7,3-5.4,4.8-7.8
							c2.1-3,3.9-7.5,3.9-10.1c0.3-3.9,1.1-7.8,2.4-11.6l4-11.6c0.8-2,2.2-7.7,0.6-9.6c-0.5-0.6-1.4-0.7-2.1-1.1
							c-0.6-0.4-1.1-0.9-1.6-1.5c-1.2-1.5-2.2-3-2.1-5c0.1-1.4,0.1-2.7,0-4.1c-0.2-4.7,0.3-9.5,1.7-14c1.2-3.6,2-7.3,2.4-11.1
							c0.2-1.7-0.2-3.3,0.2-5c0.5-1.9,1.5-3.5,2.1-5.4s0.6-3.5,1.3-5.2c0.9-2.5,2.4-4.5,3.1-7.1c0.5-2.4,1.2-4.7,2.1-7
							c1.2-3.2,2-6.6,2.4-9.9l0.5-3c0.8-4.7,1.9-9.4,3.3-14l0.2-0.7c1.6-4.5,3.5-8.9,5.8-13.1l4.2-7.4c2-3.4,3.5-8.2,3.3-10.6
							c-0.1-2.5,1.2-4.9,3.4-6.2c3.2-1.6,3.9-6.6,4-9.8c0.1-3.5,2-6.7,4.9-8.5c1-0.6,1.9-1.3,2.8-2.1c0.8-0.7,1.2-1.9,0.9-3
							c-0.5-0.8-1.2-1.5-2-1.9c-2.1-1.4-4.1-7.2-3.4-9.7c0.5-1.7,3.3-5.1,6.3-7.6l3.7-3.1c3-2.5,5.9-6,6.4-7.5s3.7-4.6,7.1-6.7
							l1.1-0.7c3.4-2.1,5.8-5.2,5.3-6.9c-0.3-2.1,0.5-4.2,2.1-5.5c1.7-1.4,3-3.2,3.8-5.2c0.3-0.8,0.6-1.5,1.1-2.2
							c-2.5-1.5-5.8-2.9-7-2.8L642.4,550.2z"/>
						<path class="st1" d="M683.7,514.8c-2.9-0.6-5.8-1.4-8.6-2.4c-1.7-0.7-4.7-2-6.6-1.4c-1.1,0.4-2.3,0.5-3.5,0.3
							c-1.6-0.7,1.5-3.2,1.6-3.9c0-0.6-0.3-1.1-0.8-1.4c-0.5-0.2-1-0.4-1.6-0.6c-2.4-1-2.1-2.7-1.5-4.6c0.5-2.2,0.9-4.5,1.1-6.8
							c0.2-2,3.6-4.2,7.5-4.9c0,0,1.3-0.2,1.6-0.2c1.1-0.1,2.2-0.3,3.3-0.6c0.7,0,1.4-0.2,2-0.5c0.7-0.3,1.1-1,1.1-1.7
							c0-0.1,0-0.2-0.1-0.3c-0.1-0.1-0.3-0.2-0.5-0.1c-3.1-0.2-6.1,0.1-9.1,0.8c-1.7,0.4-3.5,0.1-5.1-0.7c-1.7-0.9-3.5-1.3-5.4-1.4
							c-1.6,0-2.5-0.8-1.9-1.8c0.7-1.1,1.7-2.2,2.3-3.3c0.5-0.9,0.6-2,1.4-2.9c0.6-0.6,1.3-1,1.9-1.6c0.2-0.2,0.3-0.4,0.3-0.7
							c-0.1-0.3-0.4-0.4-0.7-0.5c-1.9-0.4-3.6,1.1-5.5,0.2c-0.3-0.2-0.7-0.3-1.1-0.4c-0.8-0.1-1.7,0-2.4,0.4
							c-2.6,0.8-3.6-1.4-4.2-3.6c-0.3-2.5-0.1-5,0.8-7.3c1.3-3,3.2-5.7,5.5-8.1c2.2-2.1,3.4-4.6,2.7-5.6c-1.2-1.3-2.7-2.2-4.3-2.8
							c-2.3-0.5-4.6-0.4-6.8,0.4c-2.1,0.8-6.9,1.1-10.7,0.8s-9.2-1.2-12-1.8c-4.1-0.7-8.2-0.8-12.3-0.4l-2.2,0.2
							c-4,0.4-9.7-0.5-12.7-2.1s-5.5-6-5.5-9.8s0.7-8.1,1.5-9.6s3.5-2.4,6-2.1c2.2,0.3,4.5,0.3,6.8,0c2.2-0.8,4.2-1.9,6.1-3.3
							c2.1-1.5,3.7-3.3,3.5-4.1c-0.5-1.3-1.4-2.4-2.5-3.2c-1.2-0.9-1-2,0.5-2.5c2.2-0.6,4.5-0.1,6.8-0.2c2.7-0.1,3.8-1.3,5.4-3.2
							c2.2-2.7,4.2-8.1,4.5-12.1l0.2-2.6c0.3-4,0.7-9.6,1-12.5s-1.5-7.9-3.8-11.1l-3.6-4.9c-2.1-2.9-3.5-5-4-8.5
							c0-0.6-0.2-1.1-0.5-1.6c-0.7-0.6-1.6-0.7-2.5-0.5c-3.1,0.2-5.7-1.1-8.6-2c-1.5-0.6-3.1-0.4-4.4,0.4c-0.8,0.7-1.3,1.8-2.4,2.1
							s-1.8-0.4-2.7-0.8c-2.3-1.2-5-1.2-7.3,0c-3.2,1.7-4.5,5.6-5.6,8.9c-1.2,3.7-4.3,8.4-6.9,10.5s-7.9,3.6-11.9,3.4l-13.8-0.8
							c-4.3-0.3-8.5-1.5-12.4-3.4c-2.9-1.5-5.9-2.8-8.9-3.9l-3.6,5.9c-1,2.1-1.3,4.5-0.8,6.8l2.5,9.4c0.7,2.7-0.4,5.9-2.5,7.2
							c-2.5,1.3-5.3,1.7-8,1.2L515,396c-2.7-0.6-5.4-1.4-8.1-2.5c-2.1-0.7-4.4-0.5-6.4,0.5l-4.1,2.4c-2,1.1-5.2,3-7.1,4.2l-4.3,2.8
							c-1.8,1.3-3.1,3.3-3.5,5.5v0.2c-0.5,2.9-1.6,5.6-3.2,8l-1.1,1.5c-1.4,2.1-2.2,4.4-2.5,6.9l-1,16.4c-0.2,2.8-0.8,5.5-1.7,8.1
							c-0.6,1.8-0.6,3.9-0.1,4.7c1,1.6,1.3,4.8,1,7l-1.6,12.6c-0.2,2.3,0.5,4.6,1.8,6.5l0,0l0.9,1.2l8.7,10.9
							c1.5,1.7,3.6,2.8,5.9,3.1l11.1,0.6c1.2,0.1,2.3-0.7,2.5-2c0-0.2,0-0.4,0-0.6l-0.6-5c-0.4-2.4-1.5-4.5-3.2-6.2l-3.4-3.1
							c-2.1-2.1-2.8-5.2-1.9-8l1.2-3.2c1.2-2.7,3.5-4.7,6.4-5.5l2.5-0.5c2.9-0.5,5.9,0.3,8.2,2.1l2,1.8c1.9,1.5,4.2,2.3,6.5,2.5h7.2
							c2.7-0.1,4.9,2.1,4.9,4.7c0,0.2,0,0.5,0,0.7l-1,9.6c-0.1,2.3,0.6,4.6,2.1,6.4l11.9,13.2c1.9,2.3,2.6,5.3,1.9,8.2l-1.5,5.4
							c-0.5,2.2-0.1,4.5,1.1,6.4l4.3,6c1.6,2.4,2.8,5,3.7,7.8l1.9,6.8l13,2c2.5,0.3,5,0,7.4-0.7l5.7-2.1c2.8-0.9,5.9-0.2,8.1,1.8
							l1.7,1.7c2,2,3.8,4.3,5.4,6.6l2.1,3.2c1.2,1.7,3.2,2.6,5.3,2.6l6.2-0.7c2.5-0.4,4.9-1.2,7.1-2.6l1.6-1.1
							c2.4-1.5,5.1-2.7,7.8-3.6l6.1-1.7c2.7-0.7,5.6-1.2,8.4-1.5l11.1-0.9c1.8-0.2,5.7,1.4,8.5,3.2c0.3-0.3,0.5-0.6,0.8-0.8
							c1.4-1.1,3.1-1.8,4.8-2c1.8-0.2,3.5-0.8,5-1.8c1.3-0.9,2.7-1.8,4.2-2.5c1.4-0.9,2.5-2.2,3.3-3.6c0.9-1.7,0.6-3.3-0.7-3.7
							c-1.2-0.4-2.4-0.5-3.6-0.3c-0.7,0.2-1.3-0.6-1.4-1.8c0.1-1.7,0.7-3.4,1.8-4.7c1.2-1.6,2-3.5,2.4-5.4c0.4-3.2,3.1-5,5.7-6.3
							c0.5-0.2,1-0.6,1.1-1.1C685.2,515.3,684.4,515,683.7,514.8z"/>
						<path class="st1" d="M328.2,508.5l-0.1-0.1c-1.5-1.9-3.5-3.3-5.8-4.1l-3.1-0.9c-2.8-0.9-5.2-2.7-6.9-5.1l-3.4-5.2
							c-1.5-2.2-3.3-4.2-5.2-6l-0.5-0.4c-2.2-1.9-2.4-5.2-0.5-7.3l0.1-0.1l1.3-1.4c0.5-0.5,0.8-1.3,0.8-2c-0.1-0.7-0.4-1.4-1-1.9
							l-3.5-2.8c-2.1-1.5-4.4-2.7-6.9-3.4l-5.1-1.3c-2.8-0.9-5.2-2.6-7-4.9l-1.8-2.5c-1.6-2.4-2.8-5-3.6-7.8l-0.6-2.4
							c-0.6-2.2-1.4-5.9-1.8-8.2l-2.8-17.5c-0.9-0.8-1.9-1.3-3-1.6c-2.1-0.1-4.3,0.4-6.1,1.4c-2,1-4.3,0.7-6-0.7
							c-1.6-1.4-3.8-2.5-5-2.5c-2,0-4.1,0.6-6.1,0.3c-2.3-0.3-4.5-1.9-6.8-1.3c-0.3,0.1-0.5,0.2-0.8,0.4c-0.9,0.7-0.8,2.2-0.4,3.3
							c0.6,1.7,0.9,3.1,1.3,4.8l0.2,0.9c0.9,4.5,0.2,9.1-2,13.2l-2.2,3.6c-2,3.4-1.7,7.1,0.7,8.3s6.4,3.2,8.7,4.5s4.5,3.2,4.8,4.2
							c0.8,1.8,2,3.5,3.4,4.9c1,1,2.9,3.1,1.8,4.6c-0.4,0.5-0.9,0.9-1.5,1.1c-1.1,0.5-2.3,0.7-3.5,0.7c-0.4,0.3-0.2,1,0.2,1.3
							c0.4,0.2,1,0.3,1.4,0.3c3-0.1,5.8,0.2,8.2-1.8c1.5-1.2,3.5-1.7,5.4-1.5c1.7,0.5,2.9,2,3.1,3.8c0.3,3-1.8,5.1-1.6,8
							c0,1.5,0.8,2.8,2.1,3.5c0.3,0.2,0.6,0.2,0.9,0.2c0.5-0.1,0.9-0.3,1.3-0.7c3.3-2.3,7.7-0.6,10.9,0.9c2.5,1,5.1,1.4,7.8,1.1
							c2.3-0.4,6.1,1.1,8.4,3.3c2.7,2.9,4.4,6.5,5,10.4c0.4,4.1,0.4,8.3,0,12.4c-0.3,3.7,0.8,7.4,2.9,10.4c2,2.4,3.1,5.1,2.4,6
							s-2.8,0.8-4.8,0c-1.9-0.8-3.9-1.3-6-1.3c-1.9,0.4-3.7,1.3-5.3,2.5s-5.4,1.1-8.5-0.2s-5.5-5.5-5.5-9.3c0-3.5,0.4-7,1.1-10.4
							c0.5-1.7,0.9-3.5,1.1-5.3c0-1.2-0.4-2.4-1-3.4c-0.6-0.9-2.5-1.7-4.2-1.8c-1.7-0.1-3.9,1-5.6,0.1c-0.9-0.5-1.6-1.3-2-2.3
							c-1.2-2.4,0.1-5.4-1.1-8c-1.1-2.3-3.4-3.5-4.9-5.4c-1.1-1.3-2.3-2.4-3.6-3.5c-0.6-0.5-1.3-0.9-2-1.1c-0.8-0.2-1.6,0-2.1,0.6
							c-0.5,0.8-0.6,1.7-0.5,2.6c0.1,3.8-1.4,5.6-3.7,8.4c-0.2,0.3-0.4,0.6-0.5,0.9s-0.1,0.6-0.1,0.9c0,2,0.7,3.9,0.8,5.8
							s-1.2,3.3-3,4.2c-0.8,0.4-1.7,0.8-2.1,1.6c-0.1,0.3-0.2,0.7-0.1,1c0,3.8,3.2,8.6,5.8,11.3c1.8,1.9,4.1,6.6,5.2,10.4l0.3,1.1
							c1,3.8,2.1,8.3,2.3,9.9c0.2,1.6,3.3,2.7,6.9,2.4c3.6-0.3,8,2.3,10,5.8s4.4,8.2,5.4,10.5c1.6,3.3,2.3,6.3,0.7,9.8
							c-0.6,1.3-1.7,2.5-2.3,3.8c-0.6,1.5-1.1,3.1-1.5,4.6c-0.6,2.2-1.6,5.4,0.1,7.3c0.9,1,2.2,1.5,3.5,1.4c2.9-0.2,4.8-2.9,6.5-5
							l15.8-19.4c3.1-3.6,6.9-6.5,11.2-8.6l4.7-2.2c4.4-1.9,9-2.9,13.8-3h4.3c4,0,8.9,2.5,10.9,5.4s1.6,7.8-0.9,10.9
							c-0.9,1.1-1.8,2.2-2.7,3.3c-1.2,1.6-3.5,2.7-4.4,4.5c-0.3,0.6-0.4,1.3-0.4,1.9c-0.2,4.4,1.7,8.7,5.2,11.4
							c2.9,2.5,6.9,3.9,8.7,3.1c5.1-2.1,6.6-8,11.5-9.8c1.6-0.6,3.3-1.2,4.4-2.5c0.6-0.8,0.9-1.8,1.5-2.6c0.8-1,1.8-1.9,2.6-3
							l4.4-6.1c2.3-3.2,4-7.7,3.8-10s-1.9-7-3.8-10.5l-3.7-7.1c-1.9-3.5-6.1-6.5-9.6-6.6c-4.4,0.2-8.6,1.4-12.4,3.5l-2.9,1.7
							c-2.4,1.6-5.6,1-7.3-1.4c-0.4-0.6-0.7-1.3-0.8-2l-0.5-1.7c-0.9-4.2,0.6-8.5,4-11.2l3.8-2.8c0.4-0.3,0.9-0.7,1.2-1.1l-12.9-1.5
							C332.7,512.4,330.1,510.9,328.2,508.5z"/>
						<path class="st1" d="M392.7,698l0.7,0.2c2.4,0.7,4.9,0.9,7.3,0.5l7-1.6c2.4-0.7,4.5-1.9,6.2-3.7l3.4-3.8
							c2.1-2.1,5-3.1,7.9-2.5l5,1.2c2.8,0.8,5.4,2.3,7.4,4.4l3.7,4.2c1.9,2.2,3.5,4.5,4.9,7l-1,0.6l0,0l1-0.6l1.3,2.4l5.2-2.1
							c2.7-1,5.7-1.4,8.6-1.2l6.9,0.7c2.1,0.1,4.1-0.9,5.3-2.5l0.8-1.2c1.7-2.4,4.5-3.8,7.5-3.6l8.8,0.8c2.1,0.1,4.2-0.9,5.5-2.5
							l0.8-1.1c1.8-2.3,4.4-3.9,7.2-4.6l7.6-1.4c1.8-0.4,3.1-2,3.1-3.8v-1.2c-0.2-2.2-1.3-4.2-3-5.5l-2.2-1.4
							c-2.4-1.7-3.4-4.8-2.3-7.5l0.7-1.6c1.2-2.6,3-5,5.2-6.9l3.5-2.9c1.4-1.3,1.9-3.4,1.3-5.2l-3.1-7.8c-1-2.2-2.7-4-4.7-5.2
							l-5.4-2.8c-2.6-1.5-4.3-4.1-4.6-7l-1-13.8c-0.1-2.9,1.1-5.8,3.3-7.8l14.3-11.5c1.9-1.7,3.5-3.7,4.6-6l4.5-9.9
							c1.2-2.6,2.7-5,4.4-7.3l8.7-11.1c1.6-2.2,3.1-4.4,4.4-6.8l4-7.5c1.4-2.3,3.9-3.7,6.6-3.7l-1.6-5.9c-0.8-2.5-1.9-4.9-3.4-7
							l-4.2-6c-1.6-2.5-2.1-5.5-1.5-8.4l1.5-5.4c0.4-2.1-0.1-4.3-1.4-6l-11.9-13.2c-1.9-2.3-2.8-5.2-2.6-8.1l1-9.6
							c0.1-0.7-0.1-1.5-0.6-2c-0.5-0.6-1.2-0.9-2-0.8H520c-2.9-0.1-5.8-1.2-8.1-3l-2-1.8c-1.8-1.3-4-1.9-6.2-1.6l-2.5,0.5
							c-2.1,0.6-3.8,2.1-4.7,4l-1.2,3.2c-0.6,1.9-0.1,4,1.3,5.5l3.4,3.1c2.1,2.1,3.4,4.8,3.9,7.7l0.6,5c0.4,2.5-1.3,4.8-3.8,5.1
							c-0.4,0.1-0.7,0.1-1.1,0l-11.1-0.6c-2.9-0.3-5.6-1.7-7.6-3.9l-8.1-10.2l-8.9-0.3c-2.9-0.2-5.7-1.5-7.8-3.5l-1.5-1.6
							c-1.7-1.6-3.9-2.5-6.2-2.7h-5.8c-2,0.1-3.8,1.3-4.8,3.1l-0.5,1.1c-1.3,2.7-4.1,4.2-7,3.9l-2.4-0.3c-2.4-0.2-4.8,0.3-7,1.4
							l-7.7,4.5c-2,1.3-3.4,3.2-4.2,5.5l-1.2,4.2c-0.7,2.5-3,4.1-5.6,4.2c-0.3,0-0.7,0-1-0.1l-12.8-2.3c0.7,0.7,1.3,1.5,1.8,2.4
							c1.4,2.4,2.4,5,3,7.7c0.7,3.2,2.8,6.9,4.6,8.1c2.9,2.3,5.6,4.8,8,7.7l3.8,4.4c2.9,3.3,6.2,6.2,9.9,8.6c2.8,1.7,5,6.3,4.9,10.3
							l-0.1,2.7c-0.4,4.6-2.1,9-4.9,12.7l-3.3,4c-2.5,3-6.5,5.9-8.9,6.4c-5.4,1.2-8.7,7.4-14.3,7.6c-0.7,0-1.5-0.1-2.2-0.1
							s-1.4,0.2-2,0.7c-1,0.9-0.7,2.1-0.7,3.2c-0.1,2.4,0,4.9,0.2,7.3c0,0.2,0.1,0.5,0.2,0.7c0.3,0.3,0.7,0.4,1,0.2s0.6-0.4,0.9-0.7
							c2.6-2.7,6.4-6.1,10.2-6.9c2.5-0.6,4.9-1.6,7.2-2.8c2.1-1.2,7-2.4,11-2.7l2.4-0.2c4-0.3,6.5,0.2,5.6,1.1
							c-1.9,2.5-3.6,5.1-5.1,7.9l-2,3.5c-1,1.7-2,3.3-3.2,4.8c-0.9,1.1-1.5,2.3-2,3.6c-0.4,1.4,0,2.5,0.1,3.9c0,0.9-0.1,1.8-0.4,2.7
							c-0.2,0.7-0.2,1.7,0.4,2c0.4,0.2,0.8,0.2,1.1,0.2l2.4-0.2c0.7-0.1,1.4-0.1,2,0.2c2.3,1.1,0.4,5-0.5,6.3l-13.9,22
							c-2.8,4.4-4.6,10.2-8.4,13.8c-0.7,0.7-1.6,1.2-2.3,1.9c-2.5,2.5-2.9,7-3.4,10.2c-0.8,3.4-2.8,6.4-5.5,8.4
							c-3.1,2.5-5.6,5.6-7.2,9.2c-0.3,0.7-0.7,1.4-1.2,2l8.4,7.7C388,695.7,390.3,697.1,392.7,698z"/>
						<path class="st1" d="M383.6,455.3c1.6-1.7,4.1-4.4,5.6-6.1l8-8.9c2-2.1,4.2-3.9,6.7-5.4l7.5-4.2c1.7-1.1,2.7-3,2.6-5l-0.6-5.2
							c-0.4-2.6-1.2-5.1-2.3-7.4l-1.3-2.5c-0.9-1.7-2.6-2.5-3.7-2.1c-1.5,0.6-2.8,1.8-3.4,3.3c-0.7,2-3.4,4-6,4.6l-0.5,0.1
							c-2.6,0.6-5.9-0.2-7.4-1.6c-1.5-1.3-3.3-2.2-5.2-2.8c-2.6-0.8-4.9-2.3-6.9-4.2l-0.9-1c-1.8-1.7-4-2.8-6.4-3.3l-8.4-1.3
							c-2.5-0.3-5,0.1-7.3,1l-1.3,0.6c-2.7,1.1-5.6,1.6-8.5,1.5l-12-0.8c-2.9-0.3-5.6-1.9-7.4-4.2l-3.5-4.9
							c-3.2,7.7-17,9.4-18.4-0.6l-0.4-3c-0.6-3.9-2.8-8.2-4.9-9.5s-5.4-1.9-7.3-1.3c-3.3,1-4.1,3.7-6.1,6c-0.5,0.5-0.9,1-1.3,1.6
							c-1,1.9,4.8,8.4,1.3,9.6c-1,0.2-2,0-2.9-0.5l-2.6-1c-0.9-0.4-2.2-0.7-2.8,0.2c-0.3,0.6-0.2,1.3,0.1,1.9
							c1.1,3.5,2,7.1,2.7,10.7c0.4,1.9,0.7,3.8,1.1,5.8c0.2,1.2,0.2,3.5,1.6,4.1s4.8-1.9,4.8,1c0,1.3-2,4.2-4.5,6.4s-5.9,2-7.6-0.4
							c-0.1-0.1-0.2-0.2-0.3-0.4l2.3,14.3c0.4,2.2,1.2,5.8,1.8,8l0.6,2.4c0.8,2.5,1.9,4.9,3.3,7.1l1.7,2.5c1.5,1.9,3.5,3.3,5.7,4
							l5.1,1.3c2.8,0.8,5.4,2.1,7.7,3.8l3.5,2.8c2.2,1.7,2.5,4.9,0.8,7c-0.1,0.1-0.2,0.2-0.3,0.3l-1.3,1.4c-1.1,1.2-1,3,0.1,4.1
							c0,0,0,0,0.1,0.1l0.5,0.4c2.1,1.9,4,4.1,5.6,6.5l3.4,5.2c1.4,1.9,3.4,3.4,5.7,4.1l3.1,0.9c2.8,0.9,5.2,2.7,7,5l0.1,0.1
							c1.4,1.8,3.5,3,5.7,3.4l14.6,1.7c0.3-0.3,0.6-0.6,1-0.9s0.8-0.7,1.2-1.1c0.3-0.4,0.4-1,0.3-1.5c-0.2-0.4-0.4-0.7-0.7-1
							c-4.1-4-6.4-10.1-9.1-15.2l-5.2-9.6c-1.9-3.6-0.7-8,2.8-10.2l12.5-7.8c3.4-2.1,7.6-1.9,9.5,0.5c1.6,2,5.3,3.6,8.8,3.9
							c1-1.7,2.1-3.3,3.3-4.8L383.6,455.3z"/>
						<path class="st1" d="M405.6,498.9l1.2-4.2c0.9-2.8,2.8-5.2,5.2-6.8l7.7-4.5c2.6-1.4,5.5-2,8.5-1.7l2.4,0.4
							c1.9,0.2,3.7-0.8,4.6-2.5l0.5-1.1c1.3-2.7,3.9-4.4,6.9-4.5h5.8c2.9,0.1,5.7,1.3,7.9,3.4l1.5,1.6c1.7,1.6,3.9,2.6,6.2,2.8
							l6.9,0.2c-1.5-2.3-2.2-5.1-2-7.8l1.6-12.6c0.3-1.8,0.1-3.7-0.6-5.5c-1.1-1.7-0.8-4.7-0.1-6.7c0.8-2.4,1.3-4.9,1.5-7.4l1-16.4
							c0.3-2.9,1.3-5.7,3-8.1l1.1-1.5c1.4-2.1,2.4-4.5,2.8-7v-0.2c0.5-2.9,2.2-5.5,4.6-7.2l4.4-2.8c2-1.2,5.2-3.2,7.2-4.3l4.1-2.4
							c2.6-1.3,5.6-1.5,8.4-0.6c2.5,1,5.1,1.7,7.7,2.3l4.4,0.9c2.1,0.4,4.3,0.1,6.3-0.9c1.4-1.1,1.9-2.9,1.5-4.6l-2.5-9.4
							c-0.6-2.9-0.2-5.9,1.1-8.5l3.3-5.4c-3.6-0.9-7.2-1.5-10.8-2c-3.4-0.4-7.9-3.5-9.9-7l-6.7-11.3c-2.3-4.2-3.8-8.7-4.4-13.4
							l-0.2-2.5c-0.4-4-1.7-8.5-2.9-10s-1.5-5.2-0.6-8.1c1.3-3.9,2.9-7.7,4.8-11.4c1.8-3.4,2.3-7,1.3-8c-1.1-1.1-2.6-1.7-4.2-1.9
							c-1.2,0-4.5,2.1-7.1,4.7c-2.2,2.2-4.6,4.2-7.2,5.9c-2.2,0.8-4.5,1.2-6.8,1.3c-2.7,0-5.4-1-7.4-2.8c-2-1.9-2.2-6.6-5.1-7.1
							c-1-0.1-2,0-3,0.2c-3.8,0.8-8,1.1-11.5,2.6c-2,0.6-4.1,0.8-6.1,0.6c-2.2-0.1-5.8,2.4-8.1,5.6l-0.2,0.4
							c-2.8,3.4-7,5.5-11.4,5.6l-5-0.1c-8.1-0.2-17,10.7-17,18.5v0.6c-0.3,3.9-0.3,7.9-0.1,11.9c0.2,2.6-1.8,6.2-4.6,8
							c-3.5,2.6-6.4,5.8-8.8,9.5l-4.2,6.9c-2.6,3.7-6.6,6.1-11,6.7l-0.8,0.1c-4.5,0.1-8.8-1.6-12-4.8l-0.2-0.3
							c-2.7-2.9-7.2-3.2-10.2-0.5c-3.5,3.1-6.9,4.8-11,7.1c-1.1,0.6-2.3,1.4-2.5,2.6c-0.3,1.8,1.5,3.1,3.2,3.9s3.6,1.9,3.6,3.7
							c0,5.4-9.7,7.2-13.4,7.2c-1.4,0-3-0.2-4.1,0.6s-1.5,2.3-1.8,3.8l4.6,6.4c1.4,1.8,3.4,2.9,5.7,3.2l12,0.8
							c2.5,0.1,5-0.4,7.4-1.3l1.3-0.6c2.7-1.1,5.7-1.5,8.6-1.1l8.4,1.3c2.9,0.6,5.5,2,7.7,4l0.9,1c1.6,1.6,3.6,2.8,5.8,3.5
							c2.3,0.6,4.4,1.8,6.2,3.4c1.6,1.1,3.5,1.4,5.3,1l0.5-0.1c2-0.4,3.9-2,4.3-3.1c0.9-2.2,2.7-3.9,4.9-4.7c2.2-0.7,5,0.7,6.4,3.2
							l1.3,2.5c1.3,2.6,2.1,5.4,2.5,8.2l0.6,5.2c0.2,2.9-1.2,5.8-3.7,7.3l-7.5,4.2c-2.3,1.4-4.3,3-6.1,4.9l-8,8.9
							c-1.5,1.7-4.1,4.5-5.6,6.2l-8.8,9.5c-0.8,1-1.6,2.1-2.3,3.2l1.7-0.1c4.3,0.1,8.2,2.5,10.3,6.3l0.6,1.3c1.1,2.5,1.7,5.2,1.9,8
							c0.3,2.7-1,5.1-2.5,7.4c-0.6,0.8-1,1.7-1.2,2.6c0,0.9,0.2,1.7,0.6,2.5c0.2,0.4,0.4,0.7,0.7,1.1l15.4,2.8
							C403.5,501.6,405.1,500.5,405.6,498.9z"/>
						<path class="st1" d="M340.5,653.9l0.4-1.8c0.7-2.5,2.6-4.5,5-5.3l1.4-0.4c2.4-0.9,4.4-2.8,5.2-5.3c0.8-3.1,1.1-6.8,2.9-9.5
							c0.3-0.4,0.8-0.9,1.2-0.7c1,0.5-0.2,2.3,0.4,3.2c0.5,0.5,1.3,0.5,1.8,0.1c0.5-0.5,1-1,1.4-1.5c2.5-2.6,6.1-3.9,9.8-3.5
							c1.8,0.2,3.6,0.6,5.4,1.2c2.2,1,4.7,1.4,7.1,1.2c4.9-0.6,6.2-5.5,8-9.4l4.3-9.3c1-2.1,0.1-4.7-1.9-5.8
							c-2.4-1.1-5.1-1.2-7.6-0.4L354.9,619c-1.7,0.8-3.7,0.1-4.4-1.6c-0.1-0.3-0.2-0.6-0.3-1l-0.9-4.9c-0.4-2-0.6-4.1-0.7-6.1
							c-0.1-1.5,0.1-4.4-0.8-5.5c-0.4-0.5-1-0.7-1.6-0.8c-0.6,0-1.2,0.1-1.8,0.3c-1.8,0.6-3.4,1.5-5.2,2.2l-5.5,1.9l-6.5,2.2
							c-2.5,1-4.4,2.9-5.5,5.3l-4.1,10.5c-1.1,2.8-2.2,5.7-3.3,8.5s-1.8,5.7-3.1,8.3c-0.2,0.4-0.5,0.9-0.8,1.3
							c-0.8,1.1-1.8,2.2-1.8,3.6s1.2,2.7,2,4c1.1,1.9,1.1,3.7,1.1,5.8l-1.6,10.7c-0.5,3.7,0.4,8.2,3.2,10.8c0.6,0.7,1.5,1.1,2.4,1.3
							c0.7,0.1,1.5-0.1,2.1-0.4c2.7-1.2,4.4-3.6,6.6-5.4c1.4-1.2,2.9-2.2,4.3-3.3l7.7-5.8C338.3,658.9,339.8,656.5,340.5,653.9z"/>
						<path class="st1" d="M535.6,829.5l1.2-6.9c0.3-2.4-0.1-4.8-1.2-7l-1.3-2.4c-1.3-2-3.1-3.6-5.3-4.5l-15.3-5.4
							c-2.7-1.1-5.1-2.9-6.9-5.2L494.9,781c-1.6-2.1-3.4-3.9-5.5-5.4l-3.5-2.3c-2.4-1.7-4.1-4.2-5-7l-3-12c-0.7-2.4-2-4.5-3.8-6.2
							l-6.9-6.1c-2.1-2-3.9-4.2-5.5-6.6l-7.3-12.2c-1.2-2-3-5.2-4.2-7.2l-6-10.9l0,0c-1.4-2.3-2.9-4.5-4.6-6.5l-3.7-4.2
							c-1.7-1.8-3.9-3-6.2-3.7l-5-1.2c-2.1-0.3-4.2,0.3-5.7,1.8l-3.4,3.8c-2,2.1-4.6,3.6-7.4,4.4l-7,1.6c-2.9,0.5-5.8,0.4-8.6-0.5
							l-0.7-0.2c-2.7-1.1-5.2-2.6-7.3-4.5l-8.4-7.7c-1.9,1.7-4.3,2.8-6.8,3.3l-15.7,2.2c-2.9,0.6-5.8-1.3-6.4-4.2
							c-0.1-0.6-0.1-1.3,0-1.9l0.2-1.7c0.4-4-0.2-8.5-1.4-10.1c-1.8-2.4-4.9-1.9-7.5-2.1c-1.1-0.2-2.3-0.1-3.4,0.5
							c-1.2,0.9-1.2,2.6-1.1,4.1c0.3,4.7,0.6,9.5,2.6,13.8c1.3,3,3.1,5.7,5.4,8c1.8,1.5,3.8,2.6,6,3.3c1.9,0.6,3.3,2.2,3.5,4.2
							c0.1,2.3-0.7,4.6-2.2,6.3c-1.5,1.6-1.9,6.1-1.1,9.9l2.2,9.8c0.8,4.5,0.8,9-0.2,13.5c-1.1,4.5-1.9,9-2.4,13.6l-0.4,3.9
							c-0.2,4.5,1.5,8.8,4.6,12.1l8.9,8.2c3.1,2.9,5.7,6.3,7.7,10c1.5,3.9,2.4,8.1,2.4,12.3v18.6c0,4-1.7,9.3-3.7,11.9
							s-6.8,5.7-10.5,7l-0.4,0.2c-3.6,1.2-7.2,1.9-10.5-0.3c-0.8-0.7-1.8-1.3-2.7-1.7c-1.1-0.3-2.2-0.3-3.3-0.2
							c-0.8,0-1.5,0.2-2.2,0.4c-0.7,0.3-1.3,0.8-1.5,1.6c-0.1,0.8,0,1.5,0.5,2.2c0.6,1,1.1,2.1,1.8,3.1c1.6,2.6,3.8,5.1,4.8,5.6
							c3.6,1.8,2.4,8.2,5.3,10.6c1,0.9,2.2,1.4,3.2,2.2c0.8,0.5,1.3,1.5,1.3,2.5c-0.2,0.7-0.5,1.3-0.9,1.8c-0.9,1.3-1.6,3.5-0.8,5
							c1.1,2.1,4.4,4.1,7.2,4.5s8.5,0.6,12.4,0.6h21.8c4.4,0.2,8.3,2.7,10.5,6.4l2.1,4.1c1.8,3.5,6.1,6.4,9.5,6.4s8.5-2.4,11.2-5.3
							l0.4-0.4c2.7-3.1,3.1-7.7,0.9-11.2l-5-7.3c-2.7-4-5-8.2-7-12.6l-5.7-13.1c-1.7-4.4-2.2-9.1-1.4-13.7l2.3-11.5
							c1.1-4.6,2.8-9.1,5.1-13.3l6.7-11.6c2.1-3.7,3.8-7.7,4.9-11.8c0.7-3,3.1-6.5,5.3-7.7c3.2-1.5,6.6-2.4,10.1-2.6
							c3.4-0.2,8.7,1.5,11.9,3.9l3.4,2.6c3.2,2.4,5.2,6.1,4.4,8.2s-2.1,7.1-3,10.9l-0.5,1.9c-0.9,3.9-4,7.3-6.8,7.6
							s-5.9-0.6-6.8-2.1s-2.2-3.9-3-5.4s-4.6-2.1-8.4-1.2s-7.5,2.3-8.2,3.2s-0.4,3.1,0.4,4.8c1.1,2,2.6,3.7,4.5,4.9
							c1.7,1,3.7,1.4,5.7,1c1.6-0.4,3.3-0.6,5-0.4c1.2,0.2,2,3.7,1.8,7.6l-0.3,5.1c0,4.7,1.2,9.2,3.6,13.2l9.4,14.4
							c2.3,3.9,3,8.5,2.2,13c-0.7,2.9-1.5,5.9-2.2,8.8c-0.5,1.8-0.7,3.7-1.2,5.4c-0.9,2.9-1.9,5.2-1.5,8.3c0.3,2.2,0.7,4.1,0.2,6.3
							c-0.5,2-3.4,5.7-6.5,8.2c-2.7,2.2-4.9,5.1-8.4,6.1c-0.7,0.2-1.4,0.4-2.1,0.6c-0.7,0.3-1.3,0.8-1.6,1.5c-0.2,0.9,0,1.9,0.4,2.7
							c0.9,2.2,2.5,4.8,1,7.2c-0.5,1-0.9,2.1-1.1,3.2c-0.4,1.2-0.9,2.3-1.7,3.3c-0.4,0.5-0.6,1.1-0.5,1.7c0.3,0.8,1.3,0.9,2.1,0.9
							c2.5-0.2,5-1.1,6.9-2.8c1.7-1.4,4.1-2.8,5.2-4.9c0.8-1.5,4.5-4,8.2-5.4l14.4-5.6c4.4-1.8,8.6-4.2,12.5-6.9l3.1-2.3
							c3.7-2.9,6.9-6.3,9.4-10.2c2.1-3.5,3.1-6.8,6.5-9.2c2.5-1.6,4.8-3.5,6.9-5.6c1.2-1.4,2-3.1,3.3-4.5c0.3-0.3,0.5-0.7,0.6-1.1
							c0.1-0.7-0.5-1.3-0.9-1.8c-1.5-1.8-1.7-3.8-1.6-6s-0.2-4.5-0.1-6.8c0-0.3,0-0.7-0.3-0.9c-0.1-0.1-0.3-0.1-0.5-0.1h-2.8
							c-0.7,0-1.5-0.1-2.1-0.3c-2.4-0.9-3.1-5.5-2.3-7.6c1.7-4.2,4.3-8,7.7-11l3.6-3c3.5-2.6,8.1-3.4,12.2-2l5.7,2.2l1.8-2.7
							C534,834.3,535.1,832,535.6,829.5z"/>
						<path class="st1" d="M642.4,550.2c-2.7,0.3-5.4,0.7-8,1.4l-6.1,1.7c-2.5,0.8-4.9,1.9-7.2,3.3l-1.6,1.1
							c-2.5,1.5-5.2,2.5-8.1,2.9l-6.2,0.7c-0.2,0-0.5,0-0.7,0c-2.7-0.1-5.2-1.4-6.8-3.6l-2.1-3.2c-1.5-2.2-3.2-4.3-5-6.3l-1.6-1.6
							c-1.5-1.4-3.7-1.8-5.7-1.2l-5.7,2.1c-2.8,0.9-5.7,1.2-8.6,0.8l-14.8-2.3c-2-0.2-3.9,0.7-4.9,2.4l-4,7.5
							c-1.4,2.5-2.9,4.9-4.6,7.1l-8.7,11.1c-1.6,2.1-3,4.4-4.1,6.8l-4.5,9.9c-1.3,2.6-3.1,4.9-5.3,6.8l-14.3,11.5
							c-1.6,1.5-2.5,3.6-2.5,5.8l1,13.8c0.3,2.1,1.6,4,3.4,5.1l5.4,2.8c2.6,1.4,4.6,3.7,5.8,6.3l3.1,7.8c1,2.8,0.2,5.9-2,7.8
							l-3.5,2.9c-1.9,1.7-3.4,3.8-4.5,6.1l-0.7,1.6c-0.6,1.7,0,3.6,1.4,4.7l2.2,1.4c2.4,1.7,3.9,4.4,4,7.4v1.2
							c-0.1,2.9-2.1,5.4-5,6.1l-7.6,1.4c-2.3,0.6-4.3,1.9-5.8,3.7l-0.8,1.1c-1.8,2.3-4.7,3.6-7.6,3.5l-8.8-0.8
							c-2.1-0.1-4.1,0.9-5.3,2.6l-0.8,1.2c-1.7,2.4-4.5,3.8-7.5,3.6l-6.9-0.8c-2.5-0.2-5.1,0.2-7.5,1l-4.9,2l3.5,6.4
							c1.1,2,3,5.2,4.1,7.2l7.3,12.2c1.4,2.2,3.1,4.3,5,6.1l6.9,6.1c2.1,2,3.7,4.6,4.5,7.4l3,12c0.7,2.3,2.1,4.2,4,5.7l3.5,2.3
							c2.3,1.7,4.4,3.7,6.1,6l11.9,17.1c1.5,1.9,3.5,3.4,5.7,4.4l15.3,5.4c2.7,1.1,5,3,6.6,5.5l1.4,2.4c1.3,2.6,1.8,5.6,1.4,8.5
							l-1.2,6.9c-0.6,2.8-1.9,5.5-3.6,7.8l-1.4,2.1l0.4,0.2c3,1,5.9,2.5,8.5,4.3c2.2,1.8,3.8,4.2,6,6l1.2,1c3.1,2.4,6.7,4,8,3.5
							s2.3-2.3,2.3-4c0.2-2.2,1.3-4.3,2.9-5.8c1.8-2,2.9-4.6,2.9-7.3c-0.1-1.6,0.2-3.2,0.9-4.7c0.7-1.2,1.5-1.9,1-3.5
							c-0.3-1.1-1.1-2-1.2-3.1c0-0.7,0.2-1.4,0.5-2.1c0.6-2.1,1.4-4.3,2.3-6.3c0.7-1.2,1.4-2.4,2-3.7c1.4-2.7,3-5.4,4.8-7.8
							c2.1-3,3.9-7.5,3.9-10.1c0.3-3.9,1.1-7.8,2.4-11.6l4-11.6c0.8-2,2.2-7.7,0.6-9.6c-0.5-0.6-1.4-0.7-2.1-1.1
							c-0.6-0.4-1.1-0.9-1.6-1.5c-1.2-1.5-2.2-3-2.1-5c0.1-1.4,0.1-2.7,0-4.1c-0.2-4.7,0.3-9.5,1.7-14c1.2-3.6,2-7.3,2.4-11.1
							c0.2-1.7-0.2-3.3,0.2-5c0.5-1.9,1.5-3.5,2.1-5.4s0.6-3.5,1.3-5.2c0.9-2.5,2.4-4.5,3.1-7.1c0.5-2.4,1.2-4.7,2.1-7
							c1.2-3.2,2-6.6,2.4-9.9l0.5-3c0.8-4.7,1.9-9.4,3.3-14l0.2-0.7c1.6-4.5,3.5-8.9,5.8-13.1l4.2-7.4c2-3.4,3.5-8.2,3.3-10.6
							c-0.1-2.5,1.2-4.9,3.4-6.2c3.2-1.6,3.9-6.6,4-9.8c0.1-3.5,2-6.7,4.9-8.5c1-0.6,1.9-1.3,2.8-2.1c0.8-0.7,1.2-1.9,0.9-3
							c-0.5-0.8-1.2-1.5-2-1.9c-2.1-1.4-4.1-7.2-3.4-9.7c0.5-1.7,3.3-5.1,6.3-7.6l3.7-3.1c3-2.5,5.9-6,6.4-7.5s3.7-4.6,7.1-6.7
							l1.1-0.7c3.4-2.1,5.8-5.2,5.3-6.9c-0.3-2.1,0.5-4.2,2.1-5.5c1.7-1.4,3-3.2,3.8-5.2c0.3-0.8,0.6-1.5,1.1-2.2
							c-2.5-1.5-5.8-2.9-7-2.8L642.4,550.2z"/>
						<path class="st1" d="M683.7,514.8c-2.9-0.6-5.8-1.4-8.6-2.4c-1.7-0.7-4.7-2-6.6-1.4c-1.1,0.4-2.3,0.5-3.5,0.3
							c-1.6-0.7,1.5-3.2,1.6-3.9c0-0.6-0.3-1.1-0.8-1.4c-0.5-0.2-1-0.4-1.6-0.6c-2.4-1-2.1-2.7-1.5-4.6c0.5-2.2,0.9-4.5,1.1-6.8
							c0.2-2,3.6-4.2,7.5-4.9c0,0,1.3-0.2,1.6-0.2c1.1-0.1,2.2-0.3,3.3-0.6c0.7,0,1.4-0.2,2-0.5c0.7-0.3,1.1-1,1.1-1.7
							c0-0.1,0-0.2-0.1-0.3c-0.1-0.1-0.3-0.2-0.5-0.1c-3.1-0.2-6.1,0.1-9.1,0.8c-1.7,0.4-3.5,0.1-5.1-0.7c-1.7-0.9-3.5-1.3-5.4-1.4
							c-1.6,0-2.5-0.8-1.9-1.8c0.7-1.1,1.7-2.2,2.3-3.3c0.5-0.9,0.6-2,1.4-2.9c0.6-0.6,1.3-1,1.9-1.6c0.2-0.2,0.3-0.4,0.3-0.7
							c-0.1-0.3-0.4-0.4-0.7-0.5c-1.9-0.4-3.6,1.1-5.5,0.2c-0.3-0.2-0.7-0.3-1.1-0.4c-0.8-0.1-1.7,0-2.4,0.4
							c-2.6,0.8-3.6-1.4-4.2-3.6c-0.3-2.5-0.1-5,0.8-7.3c1.3-3,3.2-5.7,5.5-8.1c2.2-2.1,3.4-4.6,2.7-5.6c-1.2-1.3-2.7-2.2-4.3-2.8
							c-2.3-0.5-4.6-0.4-6.8,0.4c-2.1,0.8-6.9,1.1-10.7,0.8s-9.2-1.2-12-1.8c-4.1-0.7-8.2-0.8-12.3-0.4l-2.2,0.2
							c-4,0.4-9.7-0.5-12.7-2.1s-5.5-6-5.5-9.8s0.7-8.1,1.5-9.6s3.5-2.4,6-2.1c2.2,0.3,4.5,0.3,6.8,0c2.2-0.8,4.2-1.9,6.1-3.3
							c2.1-1.5,3.7-3.3,3.5-4.1c-0.5-1.3-1.4-2.4-2.5-3.2c-1.2-0.9-1-2,0.5-2.5c2.2-0.6,4.5-0.1,6.8-0.2c2.7-0.1,3.8-1.3,5.4-3.2
							c2.2-2.7,4.2-8.1,4.5-12.1l0.2-2.6c0.3-4,0.7-9.6,1-12.5s-1.5-7.9-3.8-11.1l-3.6-4.9c-2.1-2.9-3.5-5-4-8.5
							c0-0.6-0.2-1.1-0.5-1.6c-0.7-0.6-1.6-0.7-2.5-0.5c-3.1,0.2-5.7-1.1-8.6-2c-1.5-0.6-3.1-0.4-4.4,0.4c-0.8,0.7-1.3,1.8-2.4,2.1
							s-1.8-0.4-2.7-0.8c-2.3-1.2-5-1.2-7.3,0c-3.2,1.7-4.5,5.6-5.6,8.9c-1.2,3.7-4.3,8.4-6.9,10.5s-7.9,3.6-11.9,3.4l-13.8-0.8
							c-4.3-0.3-8.5-1.5-12.4-3.4c-2.9-1.5-5.9-2.8-8.9-3.9l-3.6,5.9c-1,2.1-1.3,4.5-0.8,6.8l2.5,9.4c0.7,2.7-0.4,5.9-2.5,7.2
							c-2.5,1.3-5.3,1.7-8,1.2L515,396c-2.7-0.6-5.4-1.4-8.1-2.5c-2.1-0.7-4.4-0.5-6.4,0.5l-4.1,2.4c-2,1.1-5.2,3-7.1,4.2l-4.3,2.8
							c-1.8,1.3-3.1,3.3-3.5,5.5v0.2c-0.5,2.9-1.6,5.6-3.2,8l-1.1,1.5c-1.4,2.1-2.2,4.4-2.5,6.9l-1,16.4c-0.2,2.8-0.8,5.5-1.7,8.1
							c-0.6,1.8-0.6,3.9-0.1,4.7c1,1.6,1.3,4.8,1,7l-1.6,12.6c-0.2,2.3,0.5,4.6,1.8,6.5l0,0l0.9,1.2l8.7,10.9
							c1.5,1.7,3.6,2.8,5.9,3.1l11.1,0.6c1.2,0.1,2.3-0.7,2.5-2c0-0.2,0-0.4,0-0.6l-0.6-5c-0.4-2.4-1.5-4.5-3.2-6.2l-3.4-3.1
							c-2.1-2.1-2.8-5.2-1.9-8l1.2-3.2c1.2-2.7,3.5-4.7,6.4-5.5l2.5-0.5c2.9-0.5,5.9,0.3,8.2,2.1l2,1.8c1.9,1.5,4.2,2.3,6.5,2.5h7.2
							c2.7-0.1,4.9,2.1,4.9,4.7c0,0.2,0,0.5,0,0.7l-1,9.6c-0.1,2.3,0.6,4.6,2.1,6.4l11.9,13.2c1.9,2.3,2.6,5.3,1.9,8.2l-1.5,5.4
							c-0.5,2.2-0.1,4.5,1.1,6.4l4.3,6c1.6,2.4,2.8,5,3.7,7.8l1.9,6.8l13,2c2.5,0.3,5,0,7.4-0.7l5.7-2.1c2.8-0.9,5.9-0.2,8.1,1.8
							l1.7,1.7c2,2,3.8,4.3,5.4,6.6l2.1,3.2c1.2,1.7,3.2,2.6,5.3,2.6l6.2-0.7c2.5-0.4,4.9-1.2,7.1-2.6l1.6-1.1
							c2.4-1.5,5.1-2.7,7.8-3.6l6.1-1.7c2.7-0.7,5.6-1.2,8.4-1.5l11.1-0.9c1.8-0.2,5.7,1.4,8.5,3.2c0.3-0.3,0.5-0.6,0.8-0.8
							c1.4-1.1,3.1-1.8,4.8-2c1.8-0.2,3.5-0.8,5-1.8c1.3-0.9,2.7-1.8,4.2-2.5c1.4-0.9,2.5-2.2,3.3-3.6c0.9-1.7,0.6-3.3-0.7-3.7
							c-1.2-0.4-2.4-0.5-3.6-0.3c-0.7,0.2-1.3-0.6-1.4-1.8c0.1-1.7,0.7-3.4,1.8-4.7c1.2-1.6,2-3.5,2.4-5.4c0.4-3.2,3.1-5,5.7-6.3
							c0.5-0.2,1-0.6,1.1-1.1C685.2,515.3,684.4,515,683.7,514.8z"/>
						<path class="st1" d="M328.2,508.5l-0.1-0.1c-1.5-1.9-3.5-3.3-5.8-4.1l-3.1-0.9c-2.8-0.9-5.2-2.7-6.9-5.1l-3.4-5.2
							c-1.5-2.2-3.3-4.2-5.2-6l-0.5-0.4c-2.2-1.9-2.4-5.2-0.5-7.3l0.1-0.1l1.3-1.4c0.5-0.5,0.8-1.3,0.8-2c-0.1-0.7-0.4-1.4-1-1.9
							l-3.5-2.8c-2.1-1.5-4.4-2.7-6.9-3.4l-5.1-1.3c-2.8-0.9-5.2-2.6-7-4.9l-1.8-2.5c-1.6-2.4-2.8-5-3.6-7.8l-0.6-2.4
							c-0.6-2.2-1.4-5.9-1.8-8.2l-2.8-17.5c-0.9-0.8-1.9-1.3-3-1.6c-2.1-0.1-4.3,0.4-6.1,1.4c-2,1-4.3,0.7-6-0.7
							c-1.6-1.4-3.8-2.5-5-2.5c-2,0-4.1,0.6-6.1,0.3c-2.3-0.3-4.5-1.9-6.8-1.3c-0.3,0.1-0.5,0.2-0.8,0.4c-0.9,0.7-0.8,2.2-0.4,3.3
							c0.6,1.7,0.9,3.1,1.3,4.8l0.2,0.9c0.9,4.5,0.2,9.1-2,13.2l-2.2,3.6c-2,3.4-1.7,7.1,0.7,8.3s6.4,3.2,8.7,4.5s4.5,3.2,4.8,4.2
							c0.8,1.8,2,3.5,3.4,4.9c1,1,2.9,3.1,1.8,4.6c-0.4,0.5-0.9,0.9-1.5,1.1c-1.1,0.5-2.3,0.7-3.5,0.7c-0.4,0.3-0.2,1,0.2,1.3
							c0.4,0.2,1,0.3,1.4,0.3c3-0.1,5.8,0.2,8.2-1.8c1.5-1.2,3.5-1.7,5.4-1.5c1.7,0.5,2.9,2,3.1,3.8c0.3,3-1.8,5.1-1.6,8
							c0,1.5,0.8,2.8,2.1,3.5c0.3,0.2,0.6,0.2,0.9,0.2c0.5-0.1,0.9-0.3,1.3-0.7c3.3-2.3,7.7-0.6,10.9,0.9c2.5,1,5.1,1.4,7.8,1.1
							c2.3-0.4,6.1,1.1,8.4,3.3c2.7,2.9,4.4,6.5,5,10.4c0.4,4.1,0.4,8.3,0,12.4c-0.3,3.7,0.8,7.4,2.9,10.4c2,2.4,3.1,5.1,2.4,6
							s-2.8,0.8-4.8,0c-1.9-0.8-3.9-1.3-6-1.3c-1.9,0.4-3.7,1.3-5.3,2.5s-5.4,1.1-8.5-0.2s-5.5-5.5-5.5-9.3c0-3.5,0.4-7,1.1-10.4
							c0.5-1.7,0.9-3.5,1.1-5.3c0-1.2-0.4-2.4-1-3.4c-0.6-0.9-2.5-1.7-4.2-1.8c-1.7-0.1-3.9,1-5.6,0.1c-0.9-0.5-1.6-1.3-2-2.3
							c-1.2-2.4,0.1-5.4-1.1-8c-1.1-2.3-3.4-3.5-4.9-5.4c-1.1-1.3-2.3-2.4-3.6-3.5c-0.6-0.5-1.3-0.9-2-1.1c-0.8-0.2-1.6,0-2.1,0.6
							c-0.5,0.8-0.6,1.7-0.5,2.6c0.1,3.8-1.4,5.6-3.7,8.4c-0.2,0.3-0.4,0.6-0.5,0.9s-0.1,0.6-0.1,0.9c0,2,0.7,3.9,0.8,5.8
							s-1.2,3.3-3,4.2c-0.8,0.4-1.7,0.8-2.1,1.6c-0.1,0.3-0.2,0.7-0.1,1c0,3.8,3.2,8.6,5.8,11.3c1.8,1.9,4.1,6.6,5.2,10.4l0.3,1.1
							c1,3.8,2.1,8.3,2.3,9.9c0.2,1.6,3.3,2.7,6.9,2.4c3.6-0.3,8,2.3,10,5.8s4.4,8.2,5.4,10.5c1.6,3.3,2.3,6.3,0.7,9.8
							c-0.6,1.3-1.7,2.5-2.3,3.8c-0.6,1.5-1.1,3.1-1.5,4.6c-0.6,2.2-1.6,5.4,0.1,7.3c0.9,1,2.2,1.5,3.5,1.4c2.9-0.2,4.8-2.9,6.5-5
							l15.8-19.4c3.1-3.6,6.9-6.5,11.2-8.6l4.7-2.2c4.4-1.9,9-2.9,13.8-3h4.3c4,0,8.9,2.5,10.9,5.4s1.6,7.8-0.9,10.9
							c-0.9,1.1-1.8,2.2-2.7,3.3c-1.2,1.6-3.5,2.7-4.4,4.5c-0.3,0.6-0.4,1.3-0.4,1.9c-0.2,4.4,1.7,8.7,5.2,11.4
							c2.9,2.5,6.9,3.9,8.7,3.1c5.1-2.1,6.6-8,11.5-9.8c1.6-0.6,3.3-1.2,4.4-2.5c0.6-0.8,0.9-1.8,1.5-2.6c0.8-1,1.8-1.9,2.6-3
							l4.4-6.1c2.3-3.2,4-7.7,3.8-10s-1.9-7-3.8-10.5l-3.7-7.1c-1.9-3.5-6.1-6.5-9.6-6.6c-4.4,0.2-8.6,1.4-12.4,3.5l-2.9,1.7
							c-2.4,1.6-5.6,1-7.3-1.4c-0.4-0.6-0.7-1.3-0.8-2l-0.5-1.7c-0.9-4.2,0.6-8.5,4-11.2l3.8-2.8c0.4-0.3,0.9-0.7,1.2-1.1l-12.9-1.5
							C332.7,512.4,330.1,510.9,328.2,508.5z"/>
						<path class="st1" d="M392.7,698l0.7,0.2c2.4,0.7,4.9,0.9,7.3,0.5l7-1.6c2.4-0.7,4.5-1.9,6.2-3.7l3.4-3.8
							c2.1-2.1,5-3.1,7.9-2.5l5,1.2c2.8,0.8,5.4,2.3,7.4,4.4l3.7,4.2c1.9,2.2,3.5,4.5,4.9,7l-1,0.6l0,0l1-0.6l1.3,2.4l5.2-2.1
							c2.7-1,5.7-1.4,8.6-1.2l6.9,0.7c2.1,0.1,4.1-0.9,5.3-2.5l0.8-1.2c1.7-2.4,4.5-3.8,7.5-3.6l8.8,0.8c2.1,0.1,4.2-0.9,5.5-2.5
							l0.8-1.1c1.8-2.3,4.4-3.9,7.2-4.6l7.6-1.4c1.8-0.4,3.1-2,3.1-3.8v-1.2c-0.2-2.2-1.3-4.2-3-5.5l-2.2-1.4
							c-2.4-1.7-3.4-4.8-2.3-7.5l0.7-1.6c1.2-2.6,3-5,5.2-6.9l3.5-2.9c1.4-1.3,1.9-3.4,1.3-5.2l-3.1-7.8c-1-2.2-2.7-4-4.7-5.2
							l-5.4-2.8c-2.6-1.5-4.3-4.1-4.6-7l-1-13.8c-0.1-2.9,1.1-5.8,3.3-7.8l14.3-11.5c1.9-1.7,3.5-3.7,4.6-6l4.5-9.9
							c1.2-2.6,2.7-5,4.4-7.3l8.7-11.1c1.6-2.2,3.1-4.4,4.4-6.8l4-7.5c1.4-2.3,3.9-3.7,6.6-3.7l-1.6-5.9c-0.8-2.5-1.9-4.9-3.4-7
							l-4.2-6c-1.6-2.5-2.1-5.5-1.5-8.4l1.5-5.4c0.4-2.1-0.1-4.3-1.4-6l-11.9-13.2c-1.9-2.3-2.8-5.2-2.6-8.1l1-9.6
							c0.1-0.7-0.1-1.5-0.6-2c-0.5-0.6-1.2-0.9-2-0.8H520c-2.9-0.1-5.8-1.2-8.1-3l-2-1.8c-1.8-1.3-4-1.9-6.2-1.6l-2.5,0.5
							c-2.1,0.6-3.8,2.1-4.7,4l-1.2,3.2c-0.6,1.9-0.1,4,1.3,5.5l3.4,3.1c2.1,2.1,3.4,4.8,3.9,7.7l0.6,5c0.4,2.5-1.3,4.8-3.8,5.1
							c-0.4,0.1-0.7,0.1-1.1,0l-11.1-0.6c-2.9-0.3-5.6-1.7-7.6-3.9l-8.1-10.2l-8.9-0.3c-2.9-0.2-5.7-1.5-7.8-3.5l-1.5-1.6
							c-1.7-1.6-3.9-2.5-6.2-2.7h-5.8c-2,0.1-3.8,1.3-4.8,3.1l-0.5,1.1c-1.3,2.7-4.1,4.2-7,3.9l-2.4-0.3c-2.4-0.2-4.8,0.3-7,1.4
							l-7.7,4.5c-2,1.3-3.4,3.2-4.2,5.5l-1.2,4.2c-0.7,2.5-3,4.1-5.6,4.2c-0.3,0-0.7,0-1-0.1l-12.8-2.3c0.7,0.7,1.3,1.5,1.8,2.4
							c1.4,2.4,2.4,5,3,7.7c0.7,3.2,2.8,6.9,4.6,8.1c2.9,2.3,5.6,4.8,8,7.7l3.8,4.4c2.9,3.3,6.2,6.2,9.9,8.6c2.8,1.7,5,6.3,4.9,10.3
							l-0.1,2.7c-0.4,4.6-2.1,9-4.9,12.7l-3.3,4c-2.5,3-6.5,5.9-8.9,6.4c-5.4,1.2-8.7,7.4-14.3,7.6c-0.7,0-1.5-0.1-2.2-0.1
							s-1.4,0.2-2,0.7c-1,0.9-0.7,2.1-0.7,3.2c-0.1,2.4,0,4.9,0.2,7.3c0,0.2,0.1,0.5,0.2,0.7c0.3,0.3,0.7,0.4,1,0.2s0.6-0.4,0.9-0.7
							c2.6-2.7,6.4-6.1,10.2-6.9c2.5-0.6,4.9-1.6,7.2-2.8c2.1-1.2,7-2.4,11-2.7l2.4-0.2c4-0.3,6.5,0.2,5.6,1.1
							c-1.9,2.5-3.6,5.1-5.1,7.9l-2,3.5c-1,1.7-2,3.3-3.2,4.8c-0.9,1.1-1.5,2.3-2,3.6c-0.4,1.4,0,2.5,0.1,3.9c0,0.9-0.1,1.8-0.4,2.7
							c-0.2,0.7-0.2,1.7,0.4,2c0.4,0.2,0.8,0.2,1.1,0.2l2.4-0.2c0.7-0.1,1.4-0.1,2,0.2c2.3,1.1,0.4,5-0.5,6.3l-13.9,22
							c-2.8,4.4-4.6,10.2-8.4,13.8c-0.7,0.7-1.6,1.2-2.3,1.9c-2.5,2.5-2.9,7-3.4,10.2c-0.8,3.4-2.8,6.4-5.5,8.4
							c-3.1,2.5-5.6,5.6-7.2,9.2c-0.3,0.7-0.7,1.4-1.2,2l8.4,7.7C388,695.7,390.3,697.1,392.7,698z"/>
						<path class="st1" d="M383.6,455.3c1.6-1.7,4.1-4.4,5.6-6.1l8-8.9c2-2.1,4.2-3.9,6.7-5.4l7.5-4.2c1.7-1.1,2.7-3,2.6-5l-0.6-5.2
							c-0.4-2.6-1.2-5.1-2.3-7.4l-1.3-2.5c-0.9-1.7-2.6-2.5-3.7-2.1c-1.5,0.6-2.8,1.8-3.4,3.3c-0.7,2-3.4,4-6,4.6l-0.5,0.1
							c-2.6,0.6-5.9-0.2-7.4-1.6c-1.5-1.3-3.3-2.2-5.2-2.8c-2.6-0.8-4.9-2.3-6.9-4.2l-0.9-1c-1.8-1.7-4-2.8-6.4-3.3l-8.4-1.3
							c-2.5-0.3-5,0.1-7.3,1l-1.3,0.6c-2.7,1.1-5.6,1.6-8.5,1.5l-12-0.8c-2.9-0.3-5.6-1.9-7.4-4.2l-3.5-4.9
							c-3.2,7.7-17,9.4-18.4-0.6l-0.4-3c-0.6-3.9-2.8-8.2-4.9-9.5s-5.4-1.9-7.3-1.3c-3.3,1-4.1,3.7-6.1,6c-0.5,0.5-0.9,1-1.3,1.6
							c-1,1.9,4.8,8.4,1.3,9.6c-1,0.2-2,0-2.9-0.5l-2.6-1c-0.9-0.4-2.2-0.7-2.8,0.2c-0.3,0.6-0.2,1.3,0.1,1.9
							c1.1,3.5,2,7.1,2.7,10.7c0.4,1.9,0.7,3.8,1.1,5.8c0.2,1.2,0.2,3.5,1.6,4.1s4.8-1.9,4.8,1c0,1.3-2,4.2-4.5,6.4s-5.9,2-7.6-0.4
							c-0.1-0.1-0.2-0.2-0.3-0.4l2.3,14.3c0.4,2.2,1.2,5.8,1.8,8l0.6,2.4c0.8,2.5,1.9,4.9,3.3,7.1l1.7,2.5c1.5,1.9,3.5,3.3,5.7,4
							l5.1,1.3c2.8,0.8,5.4,2.1,7.7,3.8l3.5,2.8c2.2,1.7,2.5,4.9,0.8,7c-0.1,0.1-0.2,0.2-0.3,0.3l-1.3,1.4c-1.1,1.2-1,3,0.1,4.1
							c0,0,0,0,0.1,0.1l0.5,0.4c2.1,1.9,4,4.1,5.6,6.5l3.4,5.2c1.4,1.9,3.4,3.4,5.7,4.1l3.1,0.9c2.8,0.9,5.2,2.7,7,5l0.1,0.1
							c1.4,1.8,3.5,3,5.7,3.4l14.6,1.7c0.3-0.3,0.6-0.6,1-0.9s0.8-0.7,1.2-1.1c0.3-0.4,0.4-1,0.3-1.5c-0.2-0.4-0.4-0.7-0.7-1
							c-4.1-4-6.4-10.1-9.1-15.2l-5.2-9.6c-1.9-3.6-0.7-8,2.8-10.2l12.5-7.8c3.4-2.1,7.6-1.9,9.5,0.5c1.6,2,5.3,3.6,8.8,3.9
							c1-1.7,2.1-3.3,3.3-4.8L383.6,455.3z"/>
						<path class="st1" d="M405.6,498.9l1.2-4.2c0.9-2.8,2.8-5.2,5.2-6.8l7.7-4.5c2.6-1.4,5.5-2,8.5-1.7l2.4,0.4
							c1.9,0.2,3.7-0.8,4.6-2.5l0.5-1.1c1.3-2.7,3.9-4.4,6.9-4.5h5.8c2.9,0.1,5.7,1.3,7.9,3.4l1.5,1.6c1.7,1.6,3.9,2.6,6.2,2.8
							l6.9,0.2c-1.5-2.3-2.2-5.1-2-7.8l1.6-12.6c0.3-1.8,0.1-3.7-0.6-5.5c-1.1-1.7-0.8-4.7-0.1-6.7c0.8-2.4,1.3-4.9,1.5-7.4l1-16.4
							c0.3-2.9,1.3-5.7,3-8.1l1.1-1.5c1.4-2.1,2.4-4.5,2.8-7v-0.2c0.5-2.9,2.2-5.5,4.6-7.2l4.4-2.8c2-1.2,5.2-3.2,7.2-4.3l4.1-2.4
							c2.6-1.3,5.6-1.5,8.4-0.6c2.5,1,5.1,1.7,7.7,2.3l4.4,0.9c2.1,0.4,4.3,0.1,6.3-0.9c1.4-1.1,1.9-2.9,1.5-4.6l-2.5-9.4
							c-0.6-2.9-0.2-5.9,1.1-8.5l3.3-5.4c-3.6-0.9-7.2-1.5-10.8-2c-3.4-0.4-7.9-3.5-9.9-7l-6.7-11.3c-2.3-4.2-3.8-8.7-4.4-13.4
							l-0.2-2.5c-0.4-4-1.7-8.5-2.9-10s-1.5-5.2-0.6-8.1c1.3-3.9,2.9-7.7,4.8-11.4c1.8-3.4,2.3-7,1.3-8c-1.1-1.1-2.6-1.7-4.2-1.9
							c-1.2,0-4.5,2.1-7.1,4.7c-2.2,2.2-4.6,4.2-7.2,5.9c-2.2,0.8-4.5,1.2-6.8,1.3c-2.7,0-5.4-1-7.4-2.8c-2-1.9-2.2-6.6-5.1-7.1
							c-1-0.1-2,0-3,0.2c-3.8,0.8-8,1.1-11.5,2.6c-2,0.6-4.1,0.8-6.1,0.6c-2.2-0.1-5.8,2.4-8.1,5.6l-0.2,0.4
							c-2.8,3.4-7,5.5-11.4,5.6l-5-0.1c-8.1-0.2-17,10.7-17,18.5v0.6c-0.3,3.9-0.3,7.9-0.1,11.9c0.2,2.6-1.8,6.2-4.6,8
							c-3.5,2.6-6.4,5.8-8.8,9.5l-4.2,6.9c-2.6,3.7-6.6,6.1-11,6.7l-0.8,0.1c-4.5,0.1-8.8-1.6-12-4.8l-0.2-0.3
							c-2.7-2.9-7.2-3.2-10.2-0.5c-3.5,3.1-6.9,4.8-11,7.1c-1.1,0.6-2.3,1.4-2.5,2.6c-0.3,1.8,1.5,3.1,3.2,3.9s3.6,1.9,3.6,3.7
							c0,5.4-9.7,7.2-13.4,7.2c-1.4,0-3-0.2-4.1,0.6s-1.5,2.3-1.8,3.8l4.6,6.4c1.4,1.8,3.4,2.9,5.7,3.2l12,0.8
							c2.5,0.1,5-0.4,7.4-1.3l1.3-0.6c2.7-1.1,5.7-1.5,8.6-1.1l8.4,1.3c2.9,0.6,5.5,2,7.7,4l0.9,1c1.6,1.6,3.6,2.8,5.8,3.5
							c2.3,0.6,4.4,1.8,6.2,3.4c1.6,1.1,3.5,1.4,5.3,1l0.5-0.1c2-0.4,3.9-2,4.3-3.1c0.9-2.2,2.7-3.9,4.9-4.7c2.2-0.7,5,0.7,6.4,3.2
							l1.3,2.5c1.3,2.6,2.1,5.4,2.5,8.2l0.6,5.2c0.2,2.9-1.2,5.8-3.7,7.3l-7.5,4.2c-2.3,1.4-4.3,3-6.1,4.9l-8,8.9
							c-1.5,1.7-4.1,4.5-5.6,6.2l-8.8,9.5c-0.8,1-1.6,2.1-2.3,3.2l1.7-0.1c4.3,0.1,8.2,2.5,10.3,6.3l0.6,1.3c1.1,2.5,1.7,5.2,1.9,8
							c0.3,2.7-1,5.1-2.5,7.4c-0.6,0.8-1,1.7-1.2,2.6c0,0.9,0.2,1.7,0.6,2.5c0.2,0.4,0.4,0.7,0.7,1.1l15.4,2.8
							C403.5,501.6,405.1,500.5,405.6,498.9z"/>
						<path class="st1" d="M340.5,653.9l0.4-1.8c0.7-2.5,2.6-4.5,5-5.3l1.4-0.4c2.4-0.9,4.4-2.8,5.2-5.3c0.8-3.1,1.1-6.8,2.9-9.5
							c0.3-0.4,0.8-0.9,1.2-0.7c1,0.5-0.2,2.3,0.4,3.2c0.5,0.5,1.3,0.5,1.8,0.1c0.5-0.5,1-1,1.4-1.5c2.5-2.6,6.1-3.9,9.8-3.5
							c1.8,0.2,3.6,0.6,5.4,1.2c2.2,1,4.7,1.4,7.1,1.2c4.9-0.6,6.2-5.5,8-9.4l4.3-9.3c1-2.1,0.1-4.7-1.9-5.8
							c-2.4-1.1-5.1-1.2-7.6-0.4L354.9,619c-1.7,0.8-3.7,0.1-4.4-1.6c-0.1-0.3-0.2-0.6-0.3-1l-0.9-4.9c-0.4-2-0.6-4.1-0.7-6.1
							c-0.1-1.5,0.1-4.4-0.8-5.5c-0.4-0.5-1-0.7-1.6-0.8c-0.6,0-1.2,0.1-1.8,0.3c-1.8,0.6-3.4,1.5-5.2,2.2l-5.5,1.9l-6.5,2.2
							c-2.5,1-4.4,2.9-5.5,5.3l-4.1,10.5c-1.1,2.8-2.2,5.7-3.3,8.5s-1.8,5.7-3.1,8.3c-0.2,0.4-0.5,0.9-0.8,1.3
							c-0.8,1.1-1.8,2.2-1.8,3.6s1.2,2.7,2,4c1.1,1.9,1.1,3.7,1.1,5.8l-1.6,10.7c-0.5,3.7,0.4,8.2,3.2,10.8c0.6,0.7,1.5,1.1,2.4,1.3
							c0.7,0.1,1.5-0.1,2.1-0.4c2.7-1.2,4.4-3.6,6.6-5.4c1.4-1.2,2.9-2.2,4.3-3.3l7.7-5.8C338.3,658.9,339.8,656.5,340.5,653.9z"/>
						<path class="st1" d="M535.6,829.5l1.2-6.9c0.3-2.4-0.1-4.8-1.2-7l-1.3-2.4c-1.3-2-3.1-3.6-5.3-4.5l-15.3-5.4
							c-2.7-1.1-5.1-2.9-6.9-5.2L494.9,781c-1.6-2.1-3.4-3.9-5.5-5.4l-3.5-2.3c-2.4-1.7-4.1-4.2-5-7l-3-12c-0.7-2.4-2-4.5-3.8-6.2
							l-6.9-6.1c-2.1-2-3.9-4.2-5.5-6.6l-7.3-12.2c-1.2-2-3-5.2-4.2-7.2l-6-10.9l0,0c-1.4-2.3-2.9-4.5-4.6-6.5l-3.7-4.2
							c-1.7-1.8-3.9-3-6.2-3.7l-5-1.2c-2.1-0.3-4.2,0.3-5.7,1.8l-3.4,3.8c-2,2.1-4.6,3.6-7.4,4.4l-7,1.6c-2.9,0.5-5.8,0.4-8.6-0.5
							l-0.7-0.2c-2.7-1.1-5.2-2.6-7.3-4.5l-8.4-7.7c-1.9,1.7-4.3,2.8-6.8,3.3l-15.7,2.2c-2.9,0.6-5.8-1.3-6.4-4.2
							c-0.1-0.6-0.1-1.3,0-1.9l0.2-1.7c0.4-4-0.2-8.5-1.4-10.1c-1.8-2.4-4.9-1.9-7.5-2.1c-1.1-0.2-2.3-0.1-3.4,0.5
							c-1.2,0.9-1.2,2.6-1.1,4.1c0.3,4.7,0.6,9.5,2.6,13.8c1.3,3,3.1,5.7,5.4,8c1.8,1.5,3.8,2.6,6,3.3c1.9,0.6,3.3,2.2,3.5,4.2
							c0.1,2.3-0.7,4.6-2.2,6.3c-1.5,1.6-1.9,6.1-1.1,9.9l2.2,9.8c0.8,4.5,0.8,9-0.2,13.5c-1.1,4.5-1.9,9-2.4,13.6l-0.4,3.9
							c-0.2,4.5,1.5,8.8,4.6,12.1l8.9,8.2c3.1,2.9,5.7,6.3,7.7,10c1.5,3.9,2.4,8.1,2.4,12.3v18.6c0,4-1.7,9.3-3.7,11.9
							s-6.8,5.7-10.5,7l-0.4,0.2c-3.6,1.2-7.2,1.9-10.5-0.3c-0.8-0.7-1.8-1.3-2.7-1.7c-1.1-0.3-2.2-0.3-3.3-0.2
							c-0.8,0-1.5,0.2-2.2,0.4c-0.7,0.3-1.3,0.8-1.5,1.6c-0.1,0.8,0,1.5,0.5,2.2c0.6,1,1.1,2.1,1.8,3.1c1.6,2.6,3.8,5.1,4.8,5.6
							c3.6,1.8,2.4,8.2,5.3,10.6c1,0.9,2.2,1.4,3.2,2.2c0.8,0.5,1.3,1.5,1.3,2.5c-0.2,0.7-0.5,1.3-0.9,1.8c-0.9,1.3-1.6,3.5-0.8,5
							c1.1,2.1,4.4,4.1,7.2,4.5s8.5,0.6,12.4,0.6h21.8c4.4,0.2,8.3,2.7,10.5,6.4l2.1,4.1c1.8,3.5,6.1,6.4,9.5,6.4s8.5-2.4,11.2-5.3
							l0.4-0.4c2.7-3.1,3.1-7.7,0.9-11.2l-5-7.3c-2.7-4-5-8.2-7-12.6l-5.7-13.1c-1.7-4.4-2.2-9.1-1.4-13.7l2.3-11.5
							c1.1-4.6,2.8-9.1,5.1-13.3l6.7-11.6c2.1-3.7,3.8-7.7,4.9-11.8c0.7-3,3.1-6.5,5.3-7.7c3.2-1.5,6.6-2.4,10.1-2.6
							c3.4-0.2,8.7,1.5,11.9,3.9l3.4,2.6c3.2,2.4,5.2,6.1,4.4,8.2s-2.1,7.1-3,10.9l-0.5,1.9c-0.9,3.9-4,7.3-6.8,7.6
							s-5.9-0.6-6.8-2.1s-2.2-3.9-3-5.4s-4.6-2.1-8.4-1.2s-7.5,2.3-8.2,3.2s-0.4,3.1,0.4,4.8c1.1,2,2.6,3.7,4.5,4.9
							c1.7,1,3.7,1.4,5.7,1c1.6-0.4,3.3-0.6,5-0.4c1.2,0.2,2,3.7,1.8,7.6l-0.3,5.1c0,4.7,1.2,9.2,3.6,13.2l9.4,14.4
							c2.3,3.9,3,8.5,2.2,13c-0.7,2.9-1.5,5.9-2.2,8.8c-0.5,1.8-0.7,3.7-1.2,5.4c-0.9,2.9-1.9,5.2-1.5,8.3c0.3,2.2,0.7,4.1,0.2,6.3
							c-0.5,2-3.4,5.7-6.5,8.2c-2.7,2.2-4.9,5.1-8.4,6.1c-0.7,0.2-1.4,0.4-2.1,0.6c-0.7,0.3-1.3,0.8-1.6,1.5c-0.2,0.9,0,1.9,0.4,2.7
							c0.9,2.2,2.5,4.8,1,7.2c-0.5,1-0.9,2.1-1.1,3.2c-0.4,1.2-0.9,2.3-1.7,3.3c-0.4,0.5-0.6,1.1-0.5,1.7c0.3,0.8,1.3,0.9,2.1,0.9
							c2.5-0.2,5-1.1,6.9-2.8c1.7-1.4,4.1-2.8,5.2-4.9c0.8-1.5,4.5-4,8.2-5.4l14.4-5.6c4.4-1.8,8.6-4.2,12.5-6.9l3.1-2.3
							c3.7-2.9,6.9-6.3,9.4-10.2c2.1-3.5,3.1-6.8,6.5-9.2c2.5-1.6,4.8-3.5,6.9-5.6c1.2-1.4,2-3.1,3.3-4.5c0.3-0.3,0.5-0.7,0.6-1.1
							c0.1-0.7-0.5-1.3-0.9-1.8c-1.5-1.8-1.7-3.8-1.6-6s-0.2-4.5-0.1-6.8c0-0.3,0-0.7-0.3-0.9c-0.1-0.1-0.3-0.1-0.5-0.1h-2.8
							c-0.7,0-1.5-0.1-2.1-0.3c-2.4-0.9-3.1-5.5-2.3-7.6c1.7-4.2,4.3-8,7.7-11l3.6-3c3.5-2.6,8.1-3.4,12.2-2l5.7,2.2l1.8-2.7
							C534,834.3,535.1,832,535.6,829.5z"/>
						<path class="st1" d="M642.4,550.2c-2.7,0.3-5.4,0.7-8,1.4l-6.1,1.7c-2.5,0.8-4.9,1.9-7.2,3.3l-1.6,1.1
							c-2.5,1.5-5.2,2.5-8.1,2.9l-6.2,0.7c-0.2,0-0.5,0-0.7,0c-2.7-0.1-5.2-1.4-6.8-3.6l-2.1-3.2c-1.5-2.2-3.2-4.3-5-6.3l-1.6-1.6
							c-1.5-1.4-3.7-1.8-5.7-1.2l-5.7,2.1c-2.8,0.9-5.7,1.2-8.6,0.8l-14.8-2.3c-2-0.2-3.9,0.7-4.9,2.4l-4,7.5
							c-1.4,2.5-2.9,4.9-4.6,7.1l-8.7,11.1c-1.6,2.1-3,4.4-4.1,6.8l-4.5,9.9c-1.3,2.6-3.1,4.9-5.3,6.8l-14.3,11.5
							c-1.6,1.5-2.5,3.6-2.5,5.8l1,13.8c0.3,2.1,1.6,4,3.4,5.1l5.4,2.8c2.6,1.4,4.6,3.7,5.8,6.3l3.1,7.8c1,2.8,0.2,5.9-2,7.8
							l-3.5,2.9c-1.9,1.7-3.4,3.8-4.5,6.1l-0.7,1.6c-0.6,1.7,0,3.6,1.4,4.7l2.2,1.4c2.4,1.7,3.9,4.4,4,7.4v1.2
							c-0.1,2.9-2.1,5.4-5,6.1l-7.6,1.4c-2.3,0.6-4.3,1.9-5.8,3.7l-0.8,1.1c-1.8,2.3-4.7,3.6-7.6,3.5l-8.8-0.8
							c-2.1-0.1-4.1,0.9-5.3,2.6l-0.8,1.2c-1.7,2.4-4.5,3.8-7.5,3.6l-6.9-0.8c-2.5-0.2-5.1,0.2-7.5,1l-4.9,2l3.5,6.4
							c1.1,2,3,5.2,4.1,7.2l7.3,12.2c1.4,2.2,3.1,4.3,5,6.1l6.9,6.1c2.1,2,3.7,4.6,4.5,7.4l3,12c0.7,2.3,2.1,4.2,4,5.7l3.5,2.3
							c2.3,1.7,4.4,3.7,6.1,6l11.9,17.1c1.5,1.9,3.5,3.4,5.7,4.4l15.3,5.4c2.7,1.1,5,3,6.6,5.5l1.4,2.4c1.3,2.6,1.8,5.6,1.4,8.5
							l-1.2,6.9c-0.6,2.8-1.9,5.5-3.6,7.8l-1.4,2.1l0.4,0.2c3,1,5.9,2.5,8.5,4.3c2.2,1.8,3.8,4.2,6,6l1.2,1c3.1,2.4,6.7,4,8,3.5
							s2.3-2.3,2.3-4c0.2-2.2,1.3-4.3,2.9-5.8c1.8-2,2.9-4.6,2.9-7.3c-0.1-1.6,0.2-3.2,0.9-4.7c0.7-1.2,1.5-1.9,1-3.5
							c-0.3-1.1-1.1-2-1.2-3.1c0-0.7,0.2-1.4,0.5-2.1c0.6-2.1,1.4-4.3,2.3-6.3c0.7-1.2,1.4-2.4,2-3.7c1.4-2.7,3-5.4,4.8-7.8
							c2.1-3,3.9-7.5,3.9-10.1c0.3-3.9,1.1-7.8,2.4-11.6l4-11.6c0.8-2,2.2-7.7,0.6-9.6c-0.5-0.6-1.4-0.7-2.1-1.1
							c-0.6-0.4-1.1-0.9-1.6-1.5c-1.2-1.5-2.2-3-2.1-5c0.1-1.4,0.1-2.7,0-4.1c-0.2-4.7,0.3-9.5,1.7-14c1.2-3.6,2-7.3,2.4-11.1
							c0.2-1.7-0.2-3.3,0.2-5c0.5-1.9,1.5-3.5,2.1-5.4s0.6-3.5,1.3-5.2c0.9-2.5,2.4-4.5,3.1-7.1c0.5-2.4,1.2-4.7,2.1-7
							c1.2-3.2,2-6.6,2.4-9.9l0.5-3c0.8-4.7,1.9-9.4,3.3-14l0.2-0.7c1.6-4.5,3.5-8.9,5.8-13.1l4.2-7.4c2-3.4,3.5-8.2,3.3-10.6
							c-0.1-2.5,1.2-4.9,3.4-6.2c3.2-1.6,3.9-6.6,4-9.8c0.1-3.5,2-6.7,4.9-8.5c1-0.6,1.9-1.3,2.8-2.1c0.8-0.7,1.2-1.9,0.9-3
							c-0.5-0.8-1.2-1.5-2-1.9c-2.1-1.4-4.1-7.2-3.4-9.7c0.5-1.7,3.3-5.1,6.3-7.6l3.7-3.1c3-2.5,5.9-6,6.4-7.5s3.7-4.6,7.1-6.7
							l1.1-0.7c3.4-2.1,5.8-5.2,5.3-6.9c-0.3-2.1,0.5-4.2,2.1-5.5c1.7-1.4,3-3.2,3.8-5.2c0.3-0.8,0.6-1.5,1.1-2.2
							c-2.5-1.5-5.8-2.9-7-2.8L642.4,550.2z"/>
						<path class="st1" d="M683.7,514.8c-2.9-0.6-5.8-1.4-8.6-2.4c-1.7-0.7-4.7-2-6.6-1.4c-1.1,0.4-2.3,0.5-3.5,0.3
							c-1.6-0.7,1.5-3.2,1.6-3.9c0-0.6-0.3-1.1-0.8-1.4c-0.5-0.2-1-0.4-1.6-0.6c-2.4-1-2.1-2.7-1.5-4.6c0.5-2.2,0.9-4.5,1.1-6.8
							c0.2-2,3.6-4.2,7.5-4.9c0,0,1.3-0.2,1.6-0.2c1.1-0.1,2.2-0.3,3.3-0.6c0.7,0,1.4-0.2,2-0.5c0.7-0.3,1.1-1,1.1-1.7
							c0-0.1,0-0.2-0.1-0.3c-0.1-0.1-0.3-0.2-0.5-0.1c-3.1-0.2-6.1,0.1-9.1,0.8c-1.7,0.4-3.5,0.1-5.1-0.7c-1.7-0.9-3.5-1.3-5.4-1.4
							c-1.6,0-2.5-0.8-1.9-1.8c0.7-1.1,1.7-2.2,2.3-3.3c0.5-0.9,0.6-2,1.4-2.9c0.6-0.6,1.3-1,1.9-1.6c0.2-0.2,0.3-0.4,0.3-0.7
							c-0.1-0.3-0.4-0.4-0.7-0.5c-1.9-0.4-3.6,1.1-5.5,0.2c-0.3-0.2-0.7-0.3-1.1-0.4c-0.8-0.1-1.7,0-2.4,0.4
							c-2.6,0.8-3.6-1.4-4.2-3.6c-0.3-2.5-0.1-5,0.8-7.3c1.3-3,3.2-5.7,5.5-8.1c2.2-2.1,3.4-4.6,2.7-5.6c-1.2-1.3-2.7-2.2-4.3-2.8
							c-2.3-0.5-4.6-0.4-6.8,0.4c-2.1,0.8-6.9,1.1-10.7,0.8s-9.2-1.2-12-1.8c-4.1-0.7-8.2-0.8-12.3-0.4l-2.2,0.2
							c-4,0.4-9.7-0.5-12.7-2.1s-5.5-6-5.5-9.8s0.7-8.1,1.5-9.6s3.5-2.4,6-2.1c2.2,0.3,4.5,0.3,6.8,0c2.2-0.8,4.2-1.9,6.1-3.3
							c2.1-1.5,3.7-3.3,3.5-4.1c-0.5-1.3-1.4-2.4-2.5-3.2c-1.2-0.9-1-2,0.5-2.5c2.2-0.6,4.5-0.1,6.8-0.2c2.7-0.1,3.8-1.3,5.4-3.2
							c2.2-2.7,4.2-8.1,4.5-12.1l0.2-2.6c0.3-4,0.7-9.6,1-12.5s-1.5-7.9-3.8-11.1l-3.6-4.9c-2.1-2.9-3.5-5-4-8.5
							c0-0.6-0.2-1.1-0.5-1.6c-0.7-0.6-1.6-0.7-2.5-0.5c-3.1,0.2-5.7-1.1-8.6-2c-1.5-0.6-3.1-0.4-4.4,0.4c-0.8,0.7-1.3,1.8-2.4,2.1
							s-1.8-0.4-2.7-0.8c-2.3-1.2-5-1.2-7.3,0c-3.2,1.7-4.5,5.6-5.6,8.9c-1.2,3.7-4.3,8.4-6.9,10.5s-7.9,3.6-11.9,3.4l-13.8-0.8
							c-4.3-0.3-8.5-1.5-12.4-3.4c-2.9-1.5-5.9-2.8-8.9-3.9l-3.6,5.9c-1,2.1-1.3,4.5-0.8,6.8l2.5,9.4c0.7,2.7-0.4,5.9-2.5,7.2
							c-2.5,1.3-5.3,1.7-8,1.2L515,396c-2.7-0.6-5.4-1.4-8.1-2.5c-2.1-0.7-4.4-0.5-6.4,0.5l-4.1,2.4c-2,1.1-5.2,3-7.1,4.2l-4.3,2.8
							c-1.8,1.3-3.1,3.3-3.5,5.5v0.2c-0.5,2.9-1.6,5.6-3.2,8l-1.1,1.5c-1.4,2.1-2.2,4.4-2.5,6.9l-1,16.4c-0.2,2.8-0.8,5.5-1.7,8.1
							c-0.6,1.8-0.6,3.9-0.1,4.7c1,1.6,1.3,4.8,1,7l-1.6,12.6c-0.2,2.3,0.5,4.6,1.8,6.5l0,0l0.9,1.2l8.7,10.9
							c1.5,1.7,3.6,2.8,5.9,3.1l11.1,0.6c1.2,0.1,2.3-0.7,2.5-2c0-0.2,0-0.4,0-0.6l-0.6-5c-0.4-2.4-1.5-4.5-3.2-6.2l-3.4-3.1
							c-2.1-2.1-2.8-5.2-1.9-8l1.2-3.2c1.2-2.7,3.5-4.7,6.4-5.5l2.5-0.5c2.9-0.5,5.9,0.3,8.2,2.1l2,1.8c1.9,1.5,4.2,2.3,6.5,2.5h7.2
							c2.7-0.1,4.9,2.1,4.9,4.7c0,0.2,0,0.5,0,0.7l-1,9.6c-0.1,2.3,0.6,4.6,2.1,6.4l11.9,13.2c1.9,2.3,2.6,5.3,1.9,8.2l-1.5,5.4
							c-0.5,2.2-0.1,4.5,1.1,6.4l4.3,6c1.6,2.4,2.8,5,3.7,7.8l1.9,6.8l13,2c2.5,0.3,5,0,7.4-0.7l5.7-2.1c2.8-0.9,5.9-0.2,8.1,1.8
							l1.7,1.7c2,2,3.8,4.3,5.4,6.6l2.1,3.2c1.2,1.7,3.2,2.6,5.3,2.6l6.2-0.7c2.5-0.4,4.9-1.2,7.1-2.6l1.6-1.1
							c2.4-1.5,5.1-2.7,7.8-3.6l6.1-1.7c2.7-0.7,5.6-1.2,8.4-1.5l11.1-0.9c1.8-0.2,5.7,1.4,8.5,3.2c0.3-0.3,0.5-0.6,0.8-0.8
							c1.4-1.1,3.1-1.8,4.8-2c1.8-0.2,3.5-0.8,5-1.8c1.3-0.9,2.7-1.8,4.2-2.5c1.4-0.9,2.5-2.2,3.3-3.6c0.9-1.7,0.6-3.3-0.7-3.7
							c-1.2-0.4-2.4-0.5-3.6-0.3c-0.7,0.2-1.3-0.6-1.4-1.8c0.1-1.7,0.7-3.4,1.8-4.7c1.2-1.6,2-3.5,2.4-5.4c0.4-3.2,3.1-5,5.7-6.3
							c0.5-0.2,1-0.6,1.1-1.1C685.2,515.3,684.4,515,683.7,514.8z"/>
						<path class="st1" d="M328.2,508.5l-0.1-0.1c-1.5-1.9-3.5-3.3-5.8-4.1l-3.1-0.9c-2.8-0.9-5.2-2.7-6.9-5.1l-3.4-5.2
							c-1.5-2.2-3.3-4.2-5.2-6l-0.5-0.4c-2.2-1.9-2.4-5.2-0.5-7.3l0.1-0.1l1.3-1.4c0.5-0.5,0.8-1.3,0.8-2c-0.1-0.7-0.4-1.4-1-1.9
							l-3.5-2.8c-2.1-1.5-4.4-2.7-6.9-3.4l-5.1-1.3c-2.8-0.9-5.2-2.6-7-4.9l-1.8-2.5c-1.6-2.4-2.8-5-3.6-7.8l-0.6-2.4
							c-0.6-2.2-1.4-5.9-1.8-8.2l-2.8-17.5c-0.9-0.8-1.9-1.3-3-1.6c-2.1-0.1-4.3,0.4-6.1,1.4c-2,1-4.3,0.7-6-0.7
							c-1.6-1.4-3.8-2.5-5-2.5c-2,0-4.1,0.6-6.1,0.3c-2.3-0.3-4.5-1.9-6.8-1.3c-0.3,0.1-0.5,0.2-0.8,0.4c-0.9,0.7-0.8,2.2-0.4,3.3
							c0.6,1.7,0.9,3.1,1.3,4.8l0.2,0.9c0.9,4.5,0.2,9.1-2,13.2l-2.2,3.6c-2,3.4-1.7,7.1,0.7,8.3s6.4,3.2,8.7,4.5s4.5,3.2,4.8,4.2
							c0.8,1.8,2,3.5,3.4,4.9c1,1,2.9,3.1,1.8,4.6c-0.4,0.5-0.9,0.9-1.5,1.1c-1.1,0.5-2.3,0.7-3.5,0.7c-0.4,0.3-0.2,1,0.2,1.3
							c0.4,0.2,1,0.3,1.4,0.3c3-0.1,5.8,0.2,8.2-1.8c1.5-1.2,3.5-1.7,5.4-1.5c1.7,0.5,2.9,2,3.1,3.8c0.3,3-1.8,5.1-1.6,8
							c0,1.5,0.8,2.8,2.1,3.5c0.3,0.2,0.6,0.2,0.9,0.2c0.5-0.1,0.9-0.3,1.3-0.7c3.3-2.3,7.7-0.6,10.9,0.9c2.5,1,5.1,1.4,7.8,1.1
							c2.3-0.4,6.1,1.1,8.4,3.3c2.7,2.9,4.4,6.5,5,10.4c0.4,4.1,0.4,8.3,0,12.4c-0.3,3.7,0.8,7.4,2.9,10.4c2,2.4,3.1,5.1,2.4,6
							s-2.8,0.8-4.8,0c-1.9-0.8-3.9-1.3-6-1.3c-1.9,0.4-3.7,1.3-5.3,2.5s-5.4,1.1-8.5-0.2s-5.5-5.5-5.5-9.3c0-3.5,0.4-7,1.1-10.4
							c0.5-1.7,0.9-3.5,1.1-5.3c0-1.2-0.4-2.4-1-3.4c-0.6-0.9-2.5-1.7-4.2-1.8c-1.7-0.1-3.9,1-5.6,0.1c-0.9-0.5-1.6-1.3-2-2.3
							c-1.2-2.4,0.1-5.4-1.1-8c-1.1-2.3-3.4-3.5-4.9-5.4c-1.1-1.3-2.3-2.4-3.6-3.5c-0.6-0.5-1.3-0.9-2-1.1c-0.8-0.2-1.6,0-2.1,0.6
							c-0.5,0.8-0.6,1.7-0.5,2.6c0.1,3.8-1.4,5.6-3.7,8.4c-0.2,0.3-0.4,0.6-0.5,0.9s-0.1,0.6-0.1,0.9c0,2,0.7,3.9,0.8,5.8
							s-1.2,3.3-3,4.2c-0.8,0.4-1.7,0.8-2.1,1.6c-0.1,0.3-0.2,0.7-0.1,1c0,3.8,3.2,8.6,5.8,11.3c1.8,1.9,4.1,6.6,5.2,10.4l0.3,1.1
							c1,3.8,2.1,8.3,2.3,9.9c0.2,1.6,3.3,2.7,6.9,2.4c3.6-0.3,8,2.3,10,5.8s4.4,8.2,5.4,10.5c1.6,3.3,2.3,6.3,0.7,9.8
							c-0.6,1.3-1.7,2.5-2.3,3.8c-0.6,1.5-1.1,3.1-1.5,4.6c-0.6,2.2-1.6,5.4,0.1,7.3c0.9,1,2.2,1.5,3.5,1.4c2.9-0.2,4.8-2.9,6.5-5
							l15.8-19.4c3.1-3.6,6.9-6.5,11.2-8.6l4.7-2.2c4.4-1.9,9-2.9,13.8-3h4.3c4,0,8.9,2.5,10.9,5.4s1.6,7.8-0.9,10.9
							c-0.9,1.1-1.8,2.2-2.7,3.3c-1.2,1.6-3.5,2.7-4.4,4.5c-0.3,0.6-0.4,1.3-0.4,1.9c-0.2,4.4,1.7,8.7,5.2,11.4
							c2.9,2.5,6.9,3.9,8.7,3.1c5.1-2.1,6.6-8,11.5-9.8c1.6-0.6,3.3-1.2,4.4-2.5c0.6-0.8,0.9-1.8,1.5-2.6c0.8-1,1.8-1.9,2.6-3
							l4.4-6.1c2.3-3.2,4-7.7,3.8-10s-1.9-7-3.8-10.5l-3.7-7.1c-1.9-3.5-6.1-6.5-9.6-6.6c-4.4,0.2-8.6,1.4-12.4,3.5l-2.9,1.7
							c-2.4,1.6-5.6,1-7.3-1.4c-0.4-0.6-0.7-1.3-0.8-2l-0.5-1.7c-0.9-4.2,0.6-8.5,4-11.2l3.8-2.8c0.4-0.3,0.9-0.7,1.2-1.1l-12.9-1.5
							C332.7,512.4,330.1,510.9,328.2,508.5z"/>
						<path class="st1" d="M392.7,698l0.7,0.2c2.4,0.7,4.9,0.9,7.3,0.5l7-1.6c2.4-0.7,4.5-1.9,6.2-3.7l3.4-3.8
							c2.1-2.1,5-3.1,7.9-2.5l5,1.2c2.8,0.8,5.4,2.3,7.4,4.4l3.7,4.2c1.9,2.2,3.5,4.5,4.9,7l-1,0.6l0,0l1-0.6l1.3,2.4l5.2-2.1
							c2.7-1,5.7-1.4,8.6-1.2l6.9,0.7c2.1,0.1,4.1-0.9,5.3-2.5l0.8-1.2c1.7-2.4,4.5-3.8,7.5-3.6l8.8,0.8c2.1,0.1,4.2-0.9,5.5-2.5
							l0.8-1.1c1.8-2.3,4.4-3.9,7.2-4.6l7.6-1.4c1.8-0.4,3.1-2,3.1-3.8v-1.2c-0.2-2.2-1.3-4.2-3-5.5l-2.2-1.4
							c-2.4-1.7-3.4-4.8-2.3-7.5l0.7-1.6c1.2-2.6,3-5,5.2-6.9l3.5-2.9c1.4-1.3,1.9-3.4,1.3-5.2l-3.1-7.8c-1-2.2-2.7-4-4.7-5.2
							l-5.4-2.8c-2.6-1.5-4.3-4.1-4.6-7l-1-13.8c-0.1-2.9,1.1-5.8,3.3-7.8l14.3-11.5c1.9-1.7,3.5-3.7,4.6-6l4.5-9.9
							c1.2-2.6,2.7-5,4.4-7.3l8.7-11.1c1.6-2.2,3.1-4.4,4.4-6.8l4-7.5c1.4-2.3,3.9-3.7,6.6-3.7l-1.6-5.9c-0.8-2.5-1.9-4.9-3.4-7
							l-4.2-6c-1.6-2.5-2.1-5.5-1.5-8.4l1.5-5.4c0.4-2.1-0.1-4.3-1.4-6l-11.9-13.2c-1.9-2.3-2.8-5.2-2.6-8.1l1-9.6
							c0.1-0.7-0.1-1.5-0.6-2c-0.5-0.6-1.2-0.9-2-0.8H520c-2.9-0.1-5.8-1.2-8.1-3l-2-1.8c-1.8-1.3-4-1.9-6.2-1.6l-2.5,0.5
							c-2.1,0.6-3.8,2.1-4.7,4l-1.2,3.2c-0.6,1.9-0.1,4,1.3,5.5l3.4,3.1c2.1,2.1,3.4,4.8,3.9,7.7l0.6,5c0.4,2.5-1.3,4.8-3.8,5.1
							c-0.4,0.1-0.7,0.1-1.1,0l-11.1-0.6c-2.9-0.3-5.6-1.7-7.6-3.9l-8.1-10.2l-8.9-0.3c-2.9-0.2-5.7-1.5-7.8-3.5l-1.5-1.6
							c-1.7-1.6-3.9-2.5-6.2-2.7h-5.8c-2,0.1-3.8,1.3-4.8,3.1l-0.5,1.1c-1.3,2.7-4.1,4.2-7,3.9l-2.4-0.3c-2.4-0.2-4.8,0.3-7,1.4
							l-7.7,4.5c-2,1.3-3.4,3.2-4.2,5.5l-1.2,4.2c-0.7,2.5-3,4.1-5.6,4.2c-0.3,0-0.7,0-1-0.1l-12.8-2.3c0.7,0.7,1.3,1.5,1.8,2.4
							c1.4,2.4,2.4,5,3,7.7c0.7,3.2,2.8,6.9,4.6,8.1c2.9,2.3,5.6,4.8,8,7.7l3.8,4.4c2.9,3.3,6.2,6.2,9.9,8.6c2.8,1.7,5,6.3,4.9,10.3
							l-0.1,2.7c-0.4,4.6-2.1,9-4.9,12.7l-3.3,4c-2.5,3-6.5,5.9-8.9,6.4c-5.4,1.2-8.7,7.4-14.3,7.6c-0.7,0-1.5-0.1-2.2-0.1
							s-1.4,0.2-2,0.7c-1,0.9-0.7,2.1-0.7,3.2c-0.1,2.4,0,4.9,0.2,7.3c0,0.2,0.1,0.5,0.2,0.7c0.3,0.3,0.7,0.4,1,0.2s0.6-0.4,0.9-0.7
							c2.6-2.7,6.4-6.1,10.2-6.9c2.5-0.6,4.9-1.6,7.2-2.8c2.1-1.2,7-2.4,11-2.7l2.4-0.2c4-0.3,6.5,0.2,5.6,1.1
							c-1.9,2.5-3.6,5.1-5.1,7.9l-2,3.5c-1,1.7-2,3.3-3.2,4.8c-0.9,1.1-1.5,2.3-2,3.6c-0.4,1.4,0,2.5,0.1,3.9c0,0.9-0.1,1.8-0.4,2.7
							c-0.2,0.7-0.2,1.7,0.4,2c0.4,0.2,0.8,0.2,1.1,0.2l2.4-0.2c0.7-0.1,1.4-0.1,2,0.2c2.3,1.1,0.4,5-0.5,6.3l-13.9,22
							c-2.8,4.4-4.6,10.2-8.4,13.8c-0.7,0.7-1.6,1.2-2.3,1.9c-2.5,2.5-2.9,7-3.4,10.2c-0.8,3.4-2.8,6.4-5.5,8.4
							c-3.1,2.5-5.6,5.6-7.2,9.2c-0.3,0.7-0.7,1.4-1.2,2l8.4,7.7C388,695.7,390.3,697.1,392.7,698z"/>
						<path class="st2" d="M383.6,455.3c1.6-1.7,4.1-4.4,5.6-6.1l8-8.9c2-2.1,4.2-3.9,6.7-5.4l7.5-4.2c1.7-1.1,2.7-3,2.6-5l-0.6-5.2
							c-0.4-2.6-1.2-5.1-2.3-7.4l-1.3-2.5c-0.9-1.7-2.6-2.5-3.7-2.1c-1.5,0.6-2.8,1.8-3.4,3.3c-0.7,2-3.4,4-6,4.6l-0.5,0.1
							c-2.6,0.6-5.9-0.2-7.4-1.6c-1.5-1.3-3.3-2.2-5.2-2.8c-2.6-0.8-4.9-2.3-6.9-4.2l-0.9-1c-1.8-1.7-4-2.8-6.4-3.3l-8.4-1.3
							c-2.5-0.3-5,0.1-7.3,1l-1.3,0.6c-2.7,1.1-5.6,1.6-8.5,1.5l-12-0.8c-2.9-0.3-5.6-1.9-7.4-4.2l-3.5-4.9
							c-3.2,7.7-17,9.4-18.4-0.6l-0.4-3c-0.6-3.9-2.8-8.2-4.9-9.5s-5.4-1.9-7.3-1.3c-3.3,1-4.1,3.7-6.1,6c-0.5,0.5-0.9,1-1.3,1.6
							c-1,1.9,4.8,8.4,1.3,9.6c-1,0.2-2,0-2.9-0.5l-2.6-1c-0.9-0.4-2.2-0.7-2.8,0.2c-0.3,0.6-0.2,1.3,0.1,1.9
							c1.1,3.5,2,7.1,2.7,10.7c0.4,1.9,0.7,3.8,1.1,5.8c0.2,1.2,0.2,3.5,1.6,4.1s4.8-1.9,4.8,1c0,1.3-2,4.2-4.5,6.4s-5.9,2-7.6-0.4
							c-0.1-0.1-0.2-0.2-0.3-0.4l2.3,14.3c0.4,2.2,1.2,5.8,1.8,8l0.6,2.4c0.8,2.5,1.9,4.9,3.3,7.1l1.7,2.5c1.5,1.9,3.5,3.3,5.7,4
							l5.1,1.3c2.8,0.8,5.4,2.1,7.7,3.8l3.5,2.8c2.2,1.7,2.5,4.9,0.8,7c-0.1,0.1-0.2,0.2-0.3,0.3l-1.3,1.4c-1.1,1.2-1,3,0.1,4.1
							c0,0,0,0,0.1,0.1l0.5,0.4c2.1,1.9,4,4.1,5.6,6.5l3.4,5.2c1.4,1.9,3.4,3.4,5.7,4.1l3.1,0.9c2.8,0.9,5.2,2.7,7,5l0.1,0.1
							c1.4,1.8,3.5,3,5.7,3.4l14.6,1.7c0.3-0.3,0.6-0.6,1-0.9s0.8-0.7,1.2-1.1c0.3-0.4,0.4-1,0.3-1.5c-0.2-0.4-0.4-0.7-0.7-1
							c-4.1-4-6.4-10.1-9.1-15.2l-5.2-9.6c-1.9-3.6-0.7-8,2.8-10.2l12.5-7.8c3.4-2.1,7.6-1.9,9.5,0.5c1.6,2,5.3,3.6,8.8,3.9
							c1-1.7,2.1-3.3,3.3-4.8L383.6,455.3z"/>
						<path class="st2" d="M405.6,498.9l1.2-4.2c0.9-2.8,2.8-5.2,5.2-6.8l7.7-4.5c2.6-1.4,5.5-2,8.5-1.7l2.4,0.4
							c1.9,0.2,3.7-0.8,4.6-2.5l0.5-1.1c1.3-2.7,3.9-4.4,6.9-4.5h5.8c2.9,0.1,5.7,1.3,7.9,3.4l1.5,1.6c1.7,1.6,3.9,2.6,6.2,2.8
							l6.9,0.2c-1.5-2.3-2.2-5.1-2-7.8l1.6-12.6c0.3-1.8,0.1-3.7-0.6-5.5c-1.1-1.7-0.8-4.7-0.1-6.7c0.8-2.4,1.3-4.9,1.5-7.4l1-16.4
							c0.3-2.9,1.3-5.7,3-8.1l1.1-1.5c1.4-2.1,2.4-4.5,2.8-7v-0.2c0.5-2.9,2.2-5.5,4.6-7.2l4.4-2.8c2-1.2,5.2-3.2,7.2-4.3l4.1-2.4
							c2.6-1.3,5.6-1.5,8.4-0.6c2.5,1,5.1,1.7,7.7,2.3l4.4,0.9c2.1,0.4,4.3,0.1,6.3-0.9c1.4-1.1,1.9-2.9,1.5-4.6l-2.5-9.4
							c-0.6-2.9-0.2-5.9,1.1-8.5l3.3-5.4c-3.6-0.9-7.2-1.5-10.8-2c-3.4-0.4-7.9-3.5-9.9-7l-6.7-11.3c-2.3-4.2-3.8-8.7-4.4-13.4
							l-0.2-2.5c-0.4-4-1.7-8.5-2.9-10s-1.5-5.2-0.6-8.1c1.3-3.9,2.9-7.7,4.8-11.4c1.8-3.4,2.3-7,1.3-8c-1.1-1.1-2.6-1.7-4.2-1.9
							c-1.2,0-4.5,2.1-7.1,4.7c-2.2,2.2-4.6,4.2-7.2,5.9c-2.2,0.8-4.5,1.2-6.8,1.3c-2.7,0-5.4-1-7.4-2.8c-2-1.9-2.2-6.6-5.1-7.1
							c-1-0.1-2,0-3,0.2c-3.8,0.8-8,1.1-11.5,2.6c-2,0.6-4.1,0.8-6.1,0.6c-2.2-0.1-5.8,2.4-8.1,5.6l-0.2,0.4
							c-2.8,3.4-7,5.5-11.4,5.6l-5-0.1c-8.1-0.2-17,10.7-17,18.5v0.6c-0.3,3.9-0.3,7.9-0.1,11.9c0.2,2.6-1.8,6.2-4.6,8
							c-3.5,2.6-6.4,5.8-8.8,9.5l-4.2,6.9c-2.6,3.7-6.6,6.1-11,6.7l-0.8,0.1c-4.5,0.1-8.8-1.6-12-4.8l-0.2-0.3
							c-2.7-2.9-7.2-3.2-10.2-0.5c-3.5,3.1-6.9,4.8-11,7.1c-1.1,0.6-2.3,1.4-2.5,2.6c-0.3,1.8,1.5,3.1,3.2,3.9s3.6,1.9,3.6,3.7
							c0,5.4-9.7,7.2-13.4,7.2c-1.4,0-3-0.2-4.1,0.6s-1.5,2.3-1.8,3.8l4.6,6.4c1.4,1.8,3.4,2.9,5.7,3.2l12,0.8
							c2.5,0.1,5-0.4,7.4-1.3l1.3-0.6c2.7-1.1,5.7-1.5,8.6-1.1l8.4,1.3c2.9,0.6,5.5,2,7.7,4l0.9,1c1.6,1.6,3.6,2.8,5.8,3.5
							c2.3,0.6,4.4,1.8,6.2,3.4c1.6,1.1,3.5,1.4,5.3,1l0.5-0.1c2-0.4,3.9-2,4.3-3.1c0.9-2.2,2.7-3.9,4.9-4.7c2.2-0.7,5,0.7,6.4,3.2
							l1.3,2.5c1.3,2.6,2.1,5.4,2.5,8.2l0.6,5.2c0.2,2.9-1.2,5.8-3.7,7.3l-7.5,4.2c-2.3,1.4-4.3,3-6.1,4.9l-8,8.9
							c-1.5,1.7-4.1,4.5-5.6,6.2l-8.8,9.5c-0.8,1-1.6,2.1-2.3,3.2l1.7-0.1c4.3,0.1,8.2,2.5,10.3,6.3l0.6,1.3c1.1,2.5,1.7,5.2,1.9,8
							c0.3,2.7-1,5.1-2.5,7.4c-0.6,0.8-1,1.7-1.2,2.6c0,0.9,0.2,1.7,0.6,2.5c0.2,0.4,0.4,0.7,0.7,1.1l15.4,2.8
							C403.5,501.6,405.1,500.5,405.6,498.9z"/>
						<path class="st2" d="M340.5,653.9l0.4-1.8c0.7-2.5,2.6-4.5,5-5.3l1.4-0.4c2.4-0.9,4.4-2.8,5.2-5.3c0.8-3.1,1.1-6.8,2.9-9.5
							c0.3-0.4,0.8-0.9,1.2-0.7c1,0.5-0.2,2.3,0.4,3.2c0.5,0.5,1.3,0.5,1.8,0.1c0.5-0.5,1-1,1.4-1.5c2.5-2.6,6.1-3.9,9.8-3.5
							c1.8,0.2,3.6,0.6,5.4,1.2c2.2,1,4.7,1.4,7.1,1.2c4.9-0.6,6.2-5.5,8-9.4l4.3-9.3c1-2.1,0.1-4.7-1.9-5.8
							c-2.4-1.1-5.1-1.2-7.6-0.4L354.9,619c-1.7,0.8-3.7,0.1-4.4-1.6c-0.1-0.3-0.2-0.6-0.3-1l-0.9-4.9c-0.4-2-0.6-4.1-0.7-6.1
							c-0.1-1.5,0.1-4.4-0.8-5.5c-0.4-0.5-1-0.7-1.6-0.8c-0.6,0-1.2,0.1-1.8,0.3c-1.8,0.6-3.4,1.5-5.2,2.2l-5.5,1.9l-6.5,2.2
							c-2.5,1-4.4,2.9-5.5,5.3l-4.1,10.5c-1.1,2.8-2.2,5.7-3.3,8.5s-1.8,5.7-3.1,8.3c-0.2,0.4-0.5,0.9-0.8,1.3
							c-0.8,1.1-1.8,2.2-1.8,3.6s1.2,2.7,2,4c1.1,1.9,1.1,3.7,1.1,5.8l-1.6,10.7c-0.5,3.7,0.4,8.2,3.2,10.8c0.6,0.7,1.5,1.1,2.4,1.3
							c0.7,0.1,1.5-0.1,2.1-0.4c2.7-1.2,4.4-3.6,6.6-5.4c1.4-1.2,2.9-2.2,4.3-3.3l7.7-5.8C338.3,658.9,339.8,656.5,340.5,653.9z"/>
						<path class="st2" d="M535.6,829.5l1.2-6.9c0.3-2.4-0.1-4.8-1.2-7l-1.3-2.4c-1.3-2-3.1-3.6-5.3-4.5l-15.3-5.4
							c-2.7-1.1-5.1-2.9-6.9-5.2L494.9,781c-1.6-2.1-3.4-3.9-5.5-5.4l-3.5-2.3c-2.4-1.7-4.1-4.2-5-7l-3-12c-0.7-2.4-2-4.5-3.8-6.2
							l-6.9-6.1c-2.1-2-3.9-4.2-5.5-6.6l-7.3-12.2c-1.2-2-3-5.2-4.2-7.2l-6-10.9l0,0c-1.4-2.3-2.9-4.5-4.6-6.5l-3.7-4.2
							c-1.7-1.8-3.9-3-6.2-3.7l-5-1.2c-2.1-0.3-4.2,0.3-5.7,1.8l-3.4,3.8c-2,2.1-4.6,3.6-7.4,4.4l-7,1.6c-2.9,0.5-5.8,0.4-8.6-0.5
							l-0.7-0.2c-2.7-1.1-5.2-2.6-7.3-4.5l-8.4-7.7c-1.9,1.7-4.3,2.8-6.8,3.3l-15.7,2.2c-2.9,0.6-5.8-1.3-6.4-4.2
							c-0.1-0.6-0.1-1.3,0-1.9l0.2-1.7c0.4-4-0.2-8.5-1.4-10.1c-1.8-2.4-4.9-1.9-7.5-2.1c-1.1-0.2-2.3-0.1-3.4,0.5
							c-1.2,0.9-1.2,2.6-1.1,4.1c0.3,4.7,0.6,9.5,2.6,13.8c1.3,3,3.1,5.7,5.4,8c1.8,1.5,3.8,2.6,6,3.3c1.9,0.6,3.3,2.2,3.5,4.2
							c0.1,2.3-0.7,4.6-2.2,6.3c-1.5,1.6-1.9,6.1-1.1,9.9l2.2,9.8c0.8,4.5,0.8,9-0.2,13.5c-1.1,4.5-1.9,9-2.4,13.6l-0.4,3.9
							c-0.2,4.5,1.5,8.8,4.6,12.1l8.9,8.2c3.1,2.9,5.7,6.3,7.7,10c1.5,3.9,2.4,8.1,2.4,12.3v18.6c0,4-1.7,9.3-3.7,11.9
							s-6.8,5.7-10.5,7l-0.4,0.2c-3.6,1.2-7.2,1.9-10.5-0.3c-0.8-0.7-1.8-1.3-2.7-1.7c-1.1-0.3-2.2-0.3-3.3-0.2
							c-0.8,0-1.5,0.2-2.2,0.4c-0.7,0.3-1.3,0.8-1.5,1.6c-0.1,0.8,0,1.5,0.5,2.2c0.6,1,1.1,2.1,1.8,3.1c1.6,2.6,3.8,5.1,4.8,5.6
							c3.6,1.8,2.4,8.2,5.3,10.6c1,0.9,2.2,1.4,3.2,2.2c0.8,0.5,1.3,1.5,1.3,2.5c-0.2,0.7-0.5,1.3-0.9,1.8c-0.9,1.3-1.6,3.5-0.8,5
							c1.1,2.1,4.4,4.1,7.2,4.5s8.5,0.6,12.4,0.6h21.8c4.4,0.2,8.3,2.7,10.5,6.4l2.1,4.1c1.8,3.5,6.1,6.4,9.5,6.4s8.5-2.4,11.2-5.3
							l0.4-0.4c2.7-3.1,3.1-7.7,0.9-11.2l-5-7.3c-2.7-4-5-8.2-7-12.6l-5.7-13.1c-1.7-4.4-2.2-9.1-1.4-13.7l2.3-11.5
							c1.1-4.6,2.8-9.1,5.1-13.3l6.7-11.6c2.1-3.7,3.8-7.7,4.9-11.8c0.7-3,3.1-6.5,5.3-7.7c3.2-1.5,6.6-2.4,10.1-2.6
							c3.4-0.2,8.7,1.5,11.9,3.9l3.4,2.6c3.2,2.4,5.2,6.1,4.4,8.2s-2.1,7.1-3,10.9l-0.5,1.9c-0.9,3.9-4,7.3-6.8,7.6
							s-5.9-0.6-6.8-2.1s-2.2-3.9-3-5.4s-4.6-2.1-8.4-1.2s-7.5,2.3-8.2,3.2s-0.4,3.1,0.4,4.8c1.1,2,2.6,3.7,4.5,4.9
							c1.7,1,3.7,1.4,5.7,1c1.6-0.4,3.3-0.6,5-0.4c1.2,0.2,2,3.7,1.8,7.6l-0.3,5.1c0,4.7,1.2,9.2,3.6,13.2l9.4,14.4
							c2.3,3.9,3,8.5,2.2,13c-0.7,2.9-1.5,5.9-2.2,8.8c-0.5,1.8-0.7,3.7-1.2,5.4c-0.9,2.9-1.9,5.2-1.5,8.3c0.3,2.2,0.7,4.1,0.2,6.3
							c-0.5,2-3.4,5.7-6.5,8.2c-2.7,2.2-4.9,5.1-8.4,6.1c-0.7,0.2-1.4,0.4-2.1,0.6c-0.7,0.3-1.3,0.8-1.6,1.5c-0.2,0.9,0,1.9,0.4,2.7
							c0.9,2.2,2.5,4.8,1,7.2c-0.5,1-0.9,2.1-1.1,3.2c-0.4,1.2-0.9,2.3-1.7,3.3c-0.4,0.5-0.6,1.1-0.5,1.7c0.3,0.8,1.3,0.9,2.1,0.9
							c2.5-0.2,5-1.1,6.9-2.8c1.7-1.4,4.1-2.8,5.2-4.9c0.8-1.5,4.5-4,8.2-5.4l14.4-5.6c4.4-1.8,8.6-4.2,12.5-6.9l3.1-2.3
							c3.7-2.9,6.9-6.3,9.4-10.2c2.1-3.5,3.1-6.8,6.5-9.2c2.5-1.6,4.8-3.5,6.9-5.6c1.2-1.4,2-3.1,3.3-4.5c0.3-0.3,0.5-0.7,0.6-1.1
							c0.1-0.7-0.5-1.3-0.9-1.8c-1.5-1.8-1.7-3.8-1.6-6s-0.2-4.5-0.1-6.8c0-0.3,0-0.7-0.3-0.9c-0.1-0.1-0.3-0.1-0.5-0.1h-2.8
							c-0.7,0-1.5-0.1-2.1-0.3c-2.4-0.9-3.1-5.5-2.3-7.6c1.7-4.2,4.3-8,7.7-11l3.6-3c3.5-2.6,8.1-3.4,12.2-2l5.7,2.2l1.8-2.7
							C534,834.3,535.1,832,535.6,829.5z"/>
						<path class="st2" d="M642.4,550.2c-2.7,0.3-5.4,0.7-8,1.4l-6.1,1.7c-2.5,0.8-4.9,1.9-7.2,3.3l-1.6,1.1
							c-2.5,1.5-5.2,2.5-8.1,2.9l-6.2,0.7c-0.2,0-0.5,0-0.7,0c-2.7-0.1-5.2-1.4-6.8-3.6l-2.1-3.2c-1.5-2.2-3.2-4.3-5-6.3l-1.6-1.6
							c-1.5-1.4-3.7-1.8-5.7-1.2l-5.7,2.1c-2.8,0.9-5.7,1.2-8.6,0.8l-14.8-2.3c-2-0.2-3.9,0.7-4.9,2.4l-4,7.5
							c-1.4,2.5-2.9,4.9-4.6,7.1l-8.7,11.1c-1.6,2.1-3,4.4-4.1,6.8l-4.5,9.9c-1.3,2.6-3.1,4.9-5.3,6.8l-14.3,11.5
							c-1.6,1.5-2.5,3.6-2.5,5.8l1,13.8c0.3,2.1,1.6,4,3.4,5.1l5.4,2.8c2.6,1.4,4.6,3.7,5.8,6.3l3.1,7.8c1,2.8,0.2,5.9-2,7.8
							l-3.5,2.9c-1.9,1.7-3.4,3.8-4.5,6.1l-0.7,1.6c-0.6,1.7,0,3.6,1.4,4.7l2.2,1.4c2.4,1.7,3.9,4.4,4,7.4v1.2
							c-0.1,2.9-2.1,5.4-5,6.1l-7.6,1.4c-2.3,0.6-4.3,1.9-5.8,3.7l-0.8,1.1c-1.8,2.3-4.7,3.6-7.6,3.5l-8.8-0.8
							c-2.1-0.1-4.1,0.9-5.3,2.6l-0.8,1.2c-1.7,2.4-4.5,3.8-7.5,3.6l-6.9-0.8c-2.5-0.2-5.1,0.2-7.5,1l-4.9,2l3.5,6.4
							c1.1,2,3,5.2,4.1,7.2l7.3,12.2c1.4,2.2,3.1,4.3,5,6.1l6.9,6.1c2.1,2,3.7,4.6,4.5,7.4l3,12c0.7,2.3,2.1,4.2,4,5.7l3.5,2.3
							c2.3,1.7,4.4,3.7,6.1,6l11.9,17.1c1.5,1.9,3.5,3.4,5.7,4.4l15.3,5.4c2.7,1.1,5,3,6.6,5.5l1.4,2.4c1.3,2.6,1.8,5.6,1.4,8.5
							l-1.2,6.9c-0.6,2.8-1.9,5.5-3.6,7.8l-1.4,2.1l0.4,0.2c3,1,5.9,2.5,8.5,4.3c2.2,1.8,3.8,4.2,6,6l1.2,1c3.1,2.4,6.7,4,8,3.5
							s2.3-2.3,2.3-4c0.2-2.2,1.3-4.3,2.9-5.8c1.8-2,2.9-4.6,2.9-7.3c-0.1-1.6,0.2-3.2,0.9-4.7c0.7-1.2,1.5-1.9,1-3.5
							c-0.3-1.1-1.1-2-1.2-3.1c0-0.7,0.2-1.4,0.5-2.1c0.6-2.1,1.4-4.3,2.3-6.3c0.7-1.2,1.4-2.4,2-3.7c1.4-2.7,3-5.4,4.8-7.8
							c2.1-3,3.9-7.5,3.9-10.1c0.3-3.9,1.1-7.8,2.4-11.6l4-11.6c0.8-2,2.2-7.7,0.6-9.6c-0.5-0.6-1.4-0.7-2.1-1.1
							c-0.6-0.4-1.1-0.9-1.6-1.5c-1.2-1.5-2.2-3-2.1-5c0.1-1.4,0.1-2.7,0-4.1c-0.2-4.7,0.3-9.5,1.7-14c1.2-3.6,2-7.3,2.4-11.1
							c0.2-1.7-0.2-3.3,0.2-5c0.5-1.9,1.5-3.5,2.1-5.4s0.6-3.5,1.3-5.2c0.9-2.5,2.4-4.5,3.1-7.1c0.5-2.4,1.2-4.7,2.1-7
							c1.2-3.2,2-6.6,2.4-9.9l0.5-3c0.8-4.7,1.9-9.4,3.3-14l0.2-0.7c1.6-4.5,3.5-8.9,5.8-13.1l4.2-7.4c2-3.4,3.5-8.2,3.3-10.6
							c-0.1-2.5,1.2-4.9,3.4-6.2c3.2-1.6,3.9-6.6,4-9.8c0.1-3.5,2-6.7,4.9-8.5c1-0.6,1.9-1.3,2.8-2.1c0.8-0.7,1.2-1.9,0.9-3
							c-0.5-0.8-1.2-1.5-2-1.9c-2.1-1.4-4.1-7.2-3.4-9.7c0.5-1.7,3.3-5.1,6.3-7.6l3.7-3.1c3-2.5,5.9-6,6.4-7.5s3.7-4.6,7.1-6.7
							l1.1-0.7c3.4-2.1,5.8-5.2,5.3-6.9c-0.3-2.1,0.5-4.2,2.1-5.5c1.7-1.4,3-3.2,3.8-5.2c0.3-0.8,0.6-1.5,1.1-2.2
							c-2.5-1.5-5.8-2.9-7-2.8L642.4,550.2z"/>
						<path class="st2" d="M683.7,514.8c-2.9-0.6-5.8-1.4-8.6-2.4c-1.7-0.7-4.7-2-6.6-1.4c-1.1,0.4-2.3,0.5-3.5,0.3
							c-1.6-0.7,1.5-3.2,1.6-3.9c0-0.6-0.3-1.1-0.8-1.4c-0.5-0.2-1-0.4-1.6-0.6c-2.4-1-2.1-2.7-1.5-4.6c0.5-2.2,0.9-4.5,1.1-6.8
							c0.2-2,3.6-4.2,7.5-4.9c0,0,1.3-0.2,1.6-0.2c1.1-0.1,2.2-0.3,3.3-0.6c0.7,0,1.4-0.2,2-0.5c0.7-0.3,1.1-1,1.1-1.7
							c0-0.1,0-0.2-0.1-0.3c-0.1-0.1-0.3-0.2-0.5-0.1c-3.1-0.2-6.1,0.1-9.1,0.8c-1.7,0.4-3.5,0.1-5.1-0.7c-1.7-0.9-3.5-1.3-5.4-1.4
							c-1.6,0-2.5-0.8-1.9-1.8c0.7-1.1,1.7-2.2,2.3-3.3c0.5-0.9,0.6-2,1.4-2.9c0.6-0.6,1.3-1,1.9-1.6c0.2-0.2,0.3-0.4,0.3-0.7
							c-0.1-0.3-0.4-0.4-0.7-0.5c-1.9-0.4-3.6,1.1-5.5,0.2c-0.3-0.2-0.7-0.3-1.1-0.4c-0.8-0.1-1.7,0-2.4,0.4
							c-2.6,0.8-3.6-1.4-4.2-3.6c-0.3-2.5-0.1-5,0.8-7.3c1.3-3,3.2-5.7,5.5-8.1c2.2-2.1,3.4-4.6,2.7-5.6c-1.2-1.3-2.7-2.2-4.3-2.8
							c-2.3-0.5-4.6-0.4-6.8,0.4c-2.1,0.8-6.9,1.1-10.7,0.8s-9.2-1.2-12-1.8c-4.1-0.7-8.2-0.8-12.3-0.4l-2.2,0.2
							c-4,0.4-9.7-0.5-12.7-2.1s-5.5-6-5.5-9.8s0.7-8.1,1.5-9.6s3.5-2.4,6-2.1c2.2,0.3,4.5,0.3,6.8,0c2.2-0.8,4.2-1.9,6.1-3.3
							c2.1-1.5,3.7-3.3,3.5-4.1c-0.5-1.3-1.4-2.4-2.5-3.2c-1.2-0.9-1-2,0.5-2.5c2.2-0.6,4.5-0.1,6.8-0.2c2.7-0.1,3.8-1.3,5.4-3.2
							c2.2-2.7,4.2-8.1,4.5-12.1l0.2-2.6c0.3-4,0.7-9.6,1-12.5s-1.5-7.9-3.8-11.1l-3.6-4.9c-2.1-2.9-3.5-5-4-8.5
							c0-0.6-0.2-1.1-0.5-1.6c-0.7-0.6-1.6-0.7-2.5-0.5c-3.1,0.2-5.7-1.1-8.6-2c-1.5-0.6-3.1-0.4-4.4,0.4c-0.8,0.7-1.3,1.8-2.4,2.1
							s-1.8-0.4-2.7-0.8c-2.3-1.2-5-1.2-7.3,0c-3.2,1.7-4.5,5.6-5.6,8.9c-1.2,3.7-4.3,8.4-6.9,10.5s-7.9,3.6-11.9,3.4l-13.8-0.8
							c-4.3-0.3-8.5-1.5-12.4-3.4c-2.9-1.5-5.9-2.8-8.9-3.9l-3.6,5.9c-1,2.1-1.3,4.5-0.8,6.8l2.5,9.4c0.7,2.7-0.4,5.9-2.5,7.2
							c-2.5,1.3-5.3,1.7-8,1.2L515,396c-2.7-0.6-5.4-1.4-8.1-2.5c-2.1-0.7-4.4-0.5-6.4,0.5l-4.1,2.4c-2,1.1-5.2,3-7.1,4.2l-4.3,2.8
							c-1.8,1.3-3.1,3.3-3.5,5.5v0.2c-0.5,2.9-1.6,5.6-3.2,8l-1.1,1.5c-1.4,2.1-2.2,4.4-2.5,6.9l-1,16.4c-0.2,2.8-0.8,5.5-1.7,8.1
							c-0.6,1.8-0.6,3.9-0.1,4.7c1,1.6,1.3,4.8,1,7l-1.6,12.6c-0.2,2.3,0.5,4.6,1.8,6.5l0,0l0.9,1.2l8.7,10.9
							c1.5,1.7,3.6,2.8,5.9,3.1l11.1,0.6c1.2,0.1,2.3-0.7,2.5-2c0-0.2,0-0.4,0-0.6l-0.6-5c-0.4-2.4-1.5-4.5-3.2-6.2l-3.4-3.1
							c-2.1-2.1-2.8-5.2-1.9-8l1.2-3.2c1.2-2.7,3.5-4.7,6.4-5.5l2.5-0.5c2.9-0.5,5.9,0.3,8.2,2.1l2,1.8c1.9,1.5,4.2,2.3,6.5,2.5h7.2
							c2.7-0.1,4.9,2.1,4.9,4.7c0,0.2,0,0.5,0,0.7l-1,9.6c-0.1,2.3,0.6,4.6,2.1,6.4l11.9,13.2c1.9,2.3,2.6,5.3,1.9,8.2l-1.5,5.4
							c-0.5,2.2-0.1,4.5,1.1,6.4l4.3,6c1.6,2.4,2.8,5,3.7,7.8l1.9,6.8l13,2c2.5,0.3,5,0,7.4-0.7l5.7-2.1c2.8-0.9,5.9-0.2,8.1,1.8
							l1.7,1.7c2,2,3.8,4.3,5.4,6.6l2.1,3.2c1.2,1.7,3.2,2.6,5.3,2.6l6.2-0.7c2.5-0.4,4.9-1.2,7.1-2.6l1.6-1.1
							c2.4-1.5,5.1-2.7,7.8-3.6l6.1-1.7c2.7-0.7,5.6-1.2,8.4-1.5l11.1-0.9c1.8-0.2,5.7,1.4,8.5,3.2c0.3-0.3,0.5-0.6,0.8-0.8
							c1.4-1.1,3.1-1.8,4.8-2c1.8-0.2,3.5-0.8,5-1.8c1.3-0.9,2.7-1.8,4.2-2.5c1.4-0.9,2.5-2.2,3.3-3.6c0.9-1.7,0.6-3.3-0.7-3.7
							c-1.2-0.4-2.4-0.5-3.6-0.3c-0.7,0.2-1.3-0.6-1.4-1.8c0.1-1.7,0.7-3.4,1.8-4.7c1.2-1.6,2-3.5,2.4-5.4c0.4-3.2,3.1-5,5.7-6.3
							c0.5-0.2,1-0.6,1.1-1.1C685.2,515.3,684.4,515,683.7,514.8z"/>
						<path class="st2" d="M328.2,508.5l-0.1-0.1c-1.5-1.9-3.5-3.3-5.8-4.1l-3.1-0.9c-2.8-0.9-5.2-2.7-6.9-5.1l-3.4-5.2
							c-1.5-2.2-3.3-4.2-5.2-6l-0.5-0.4c-2.2-1.9-2.4-5.2-0.5-7.3l0.1-0.1l1.3-1.4c0.5-0.5,0.8-1.3,0.8-2c-0.1-0.7-0.4-1.4-1-1.9
							l-3.5-2.8c-2.1-1.5-4.4-2.7-6.9-3.4l-5.1-1.3c-2.8-0.9-5.2-2.6-7-4.9l-1.8-2.5c-1.6-2.4-2.8-5-3.6-7.8l-0.6-2.4
							c-0.6-2.2-1.4-5.9-1.8-8.2l-2.8-17.5c-0.9-0.8-1.9-1.3-3-1.6c-2.1-0.1-4.3,0.4-6.1,1.4c-2,1-4.3,0.7-6-0.7
							c-1.6-1.4-3.8-2.5-5-2.5c-2,0-4.1,0.6-6.1,0.3c-2.3-0.3-4.5-1.9-6.8-1.3c-0.3,0.1-0.5,0.2-0.8,0.4c-0.9,0.7-0.8,2.2-0.4,3.3
							c0.6,1.7,0.9,3.1,1.3,4.8l0.2,0.9c0.9,4.5,0.2,9.1-2,13.2l-2.2,3.6c-2,3.4-1.7,7.1,0.7,8.3s6.4,3.2,8.7,4.5s4.5,3.2,4.8,4.2
							c0.8,1.8,2,3.5,3.4,4.9c1,1,2.9,3.1,1.8,4.6c-0.4,0.5-0.9,0.9-1.5,1.1c-1.1,0.5-2.3,0.7-3.5,0.7c-0.4,0.3-0.2,1,0.2,1.3
							c0.4,0.2,1,0.3,1.4,0.3c3-0.1,5.8,0.2,8.2-1.8c1.5-1.2,3.5-1.7,5.4-1.5c1.7,0.5,2.9,2,3.1,3.8c0.3,3-1.8,5.1-1.6,8
							c0,1.5,0.8,2.8,2.1,3.5c0.3,0.2,0.6,0.2,0.9,0.2c0.5-0.1,0.9-0.3,1.3-0.7c3.3-2.3,7.7-0.6,10.9,0.9c2.5,1,5.1,1.4,7.8,1.1
							c2.3-0.4,6.1,1.1,8.4,3.3c2.7,2.9,4.4,6.5,5,10.4c0.4,4.1,0.4,8.3,0,12.4c-0.3,3.7,0.8,7.4,2.9,10.4c2,2.4,3.1,5.1,2.4,6
							s-2.8,0.8-4.8,0c-1.9-0.8-3.9-1.3-6-1.3c-1.9,0.4-3.7,1.3-5.3,2.5s-5.4,1.1-8.5-0.2s-5.5-5.5-5.5-9.3c0-3.5,0.4-7,1.1-10.4
							c0.5-1.7,0.9-3.5,1.1-5.3c0-1.2-0.4-2.4-1-3.4c-0.6-0.9-2.5-1.7-4.2-1.8c-1.7-0.1-3.9,1-5.6,0.1c-0.9-0.5-1.6-1.3-2-2.3
							c-1.2-2.4,0.1-5.4-1.1-8c-1.1-2.3-3.4-3.5-4.9-5.4c-1.1-1.3-2.3-2.4-3.6-3.5c-0.6-0.5-1.3-0.9-2-1.1c-0.8-0.2-1.6,0-2.1,0.6
							c-0.5,0.8-0.6,1.7-0.5,2.6c0.1,3.8-1.4,5.6-3.7,8.4c-0.2,0.3-0.4,0.6-0.5,0.9s-0.1,0.6-0.1,0.9c0,2,0.7,3.9,0.8,5.8
							s-1.2,3.3-3,4.2c-0.8,0.4-1.7,0.8-2.1,1.6c-0.1,0.3-0.2,0.7-0.1,1c0,3.8,3.2,8.6,5.8,11.3c1.8,1.9,4.1,6.6,5.2,10.4l0.3,1.1
							c1,3.8,2.1,8.3,2.3,9.9c0.2,1.6,3.3,2.7,6.9,2.4c3.6-0.3,8,2.3,10,5.8s4.4,8.2,5.4,10.5c1.6,3.3,2.3,6.3,0.7,9.8
							c-0.6,1.3-1.7,2.5-2.3,3.8c-0.6,1.5-1.1,3.1-1.5,4.6c-0.6,2.2-1.6,5.4,0.1,7.3c0.9,1,2.2,1.5,3.5,1.4c2.9-0.2,4.8-2.9,6.5-5
							l15.8-19.4c3.1-3.6,6.9-6.5,11.2-8.6l4.7-2.2c4.4-1.9,9-2.9,13.8-3h4.3c4,0,8.9,2.5,10.9,5.4s1.6,7.8-0.9,10.9
							c-0.9,1.1-1.8,2.2-2.7,3.3c-1.2,1.6-3.5,2.7-4.4,4.5c-0.3,0.6-0.4,1.3-0.4,1.9c-0.2,4.4,1.7,8.7,5.2,11.4
							c2.9,2.5,6.9,3.9,8.7,3.1c5.1-2.1,6.6-8,11.5-9.8c1.6-0.6,3.3-1.2,4.4-2.5c0.6-0.8,0.9-1.8,1.5-2.6c0.8-1,1.8-1.9,2.6-3
							l4.4-6.1c2.3-3.2,4-7.7,3.8-10s-1.9-7-3.8-10.5l-3.7-7.1c-1.9-3.5-6.1-6.5-9.6-6.6c-4.4,0.2-8.6,1.4-12.4,3.5l-2.9,1.7
							c-2.4,1.6-5.6,1-7.3-1.4c-0.4-0.6-0.7-1.3-0.8-2l-0.5-1.7c-0.9-4.2,0.6-8.5,4-11.2l3.8-2.8c0.4-0.3,0.9-0.7,1.2-1.1l-12.9-1.5
							C332.7,512.4,330.1,510.9,328.2,508.5z"/>
						<path class="st2" d="M392.7,698l0.7,0.2c2.4,0.7,4.9,0.9,7.3,0.5l7-1.6c2.4-0.7,4.5-1.9,6.2-3.7l3.4-3.8
							c2.1-2.1,5-3.1,7.9-2.5l5,1.2c2.8,0.8,5.4,2.3,7.4,4.4l3.7,4.2c1.9,2.2,3.5,4.5,4.9,7l-1,0.6l0,0l1-0.6l1.3,2.4l5.2-2.1
							c2.7-1,5.7-1.4,8.6-1.2l6.9,0.7c2.1,0.1,4.1-0.9,5.3-2.5l0.8-1.2c1.7-2.4,4.5-3.8,7.5-3.6l8.8,0.8c2.1,0.1,4.2-0.9,5.5-2.5
							l0.8-1.1c1.8-2.3,4.4-3.9,7.2-4.6l7.6-1.4c1.8-0.4,3.1-2,3.1-3.8v-1.2c-0.2-2.2-1.3-4.2-3-5.5l-2.2-1.4
							c-2.4-1.7-3.4-4.8-2.3-7.5l0.7-1.6c1.2-2.6,3-5,5.2-6.9l3.5-2.9c1.4-1.3,1.9-3.4,1.3-5.2l-3.1-7.8c-1-2.2-2.7-4-4.7-5.2
							l-5.4-2.8c-2.6-1.5-4.3-4.1-4.6-7l-1-13.8c-0.1-2.9,1.1-5.8,3.3-7.8l14.3-11.5c1.9-1.7,3.5-3.7,4.6-6l4.5-9.9
							c1.2-2.6,2.7-5,4.4-7.3l8.7-11.1c1.6-2.2,3.1-4.4,4.4-6.8l4-7.5c1.4-2.3,3.9-3.7,6.6-3.7l-1.6-5.9c-0.8-2.5-1.9-4.9-3.4-7
							l-4.2-6c-1.6-2.5-2.1-5.5-1.5-8.4l1.5-5.4c0.4-2.1-0.1-4.3-1.4-6l-11.9-13.2c-1.9-2.3-2.8-5.2-2.6-8.1l1-9.6
							c0.1-0.7-0.1-1.5-0.6-2c-0.5-0.6-1.2-0.9-2-0.8H520c-2.9-0.1-5.8-1.2-8.1-3l-2-1.8c-1.8-1.3-4-1.9-6.2-1.6l-2.5,0.5
							c-2.1,0.6-3.8,2.1-4.7,4l-1.2,3.2c-0.6,1.9-0.1,4,1.3,5.5l3.4,3.1c2.1,2.1,3.4,4.8,3.9,7.7l0.6,5c0.4,2.5-1.3,4.8-3.8,5.1
							c-0.4,0.1-0.7,0.1-1.1,0l-11.1-0.6c-2.9-0.3-5.6-1.7-7.6-3.9l-8.1-10.2l-8.9-0.3c-2.9-0.2-5.7-1.5-7.8-3.5l-1.5-1.6
							c-1.7-1.6-3.9-2.5-6.2-2.7h-5.8c-2,0.1-3.8,1.3-4.8,3.1l-0.5,1.1c-1.3,2.7-4.1,4.2-7,3.9l-2.4-0.3c-2.4-0.2-4.8,0.3-7,1.4
							l-7.7,4.5c-2,1.3-3.4,3.2-4.2,5.5l-1.2,4.2c-0.7,2.5-3,4.1-5.6,4.2c-0.3,0-0.7,0-1-0.1l-12.8-2.3c0.7,0.7,1.3,1.5,1.8,2.4
							c1.4,2.4,2.4,5,3,7.7c0.7,3.2,2.8,6.9,4.6,8.1c2.9,2.3,5.6,4.8,8,7.7l3.8,4.4c2.9,3.3,6.2,6.2,9.9,8.6c2.8,1.7,5,6.3,4.9,10.3
							l-0.1,2.7c-0.4,4.6-2.1,9-4.9,12.7l-3.3,4c-2.5,3-6.5,5.9-8.9,6.4c-5.4,1.2-8.7,7.4-14.3,7.6c-0.7,0-1.5-0.1-2.2-0.1
							s-1.4,0.2-2,0.7c-1,0.9-0.7,2.1-0.7,3.2c-0.1,2.4,0,4.9,0.2,7.3c0,0.2,0.1,0.5,0.2,0.7c0.3,0.3,0.7,0.4,1,0.2s0.6-0.4,0.9-0.7
							c2.6-2.7,6.4-6.1,10.2-6.9c2.5-0.6,4.9-1.6,7.2-2.8c2.1-1.2,7-2.4,11-2.7l2.4-0.2c4-0.3,6.5,0.2,5.6,1.1
							c-1.9,2.5-3.6,5.1-5.1,7.9l-2,3.5c-1,1.7-2,3.3-3.2,4.8c-0.9,1.1-1.5,2.3-2,3.6c-0.4,1.4,0,2.5,0.1,3.9c0,0.9-0.1,1.8-0.4,2.7
							c-0.2,0.7-0.2,1.7,0.4,2c0.4,0.2,0.8,0.2,1.1,0.2l2.4-0.2c0.7-0.1,1.4-0.1,2,0.2c2.3,1.1,0.4,5-0.5,6.3l-13.9,22
							c-2.8,4.4-4.6,10.2-8.4,13.8c-0.7,0.7-1.6,1.2-2.3,1.9c-2.5,2.5-2.9,7-3.4,10.2c-0.8,3.4-2.8,6.4-5.5,8.4
							c-3.1,2.5-5.6,5.6-7.2,9.2c-0.3,0.7-0.7,1.4-1.2,2l8.4,7.7C388,695.7,390.3,697.1,392.7,698z"/>
					</g>
				</g>
			</g>
		</g>
	</g>
	<path class="st2" d="M213.5,158.1c0.2-0.6,0.5-1.2,0.6-1.8c0.9-3,1.8-6.3,0.7-9.3c-1.2-3.4-1-7.1,0.7-10.2l0.3-0.6
		c1.5-3.2,0.9-7.3-1.3-9.1c-2.2-1.8-6.1-1.4-8.7,1l-3.6,3.4c-2.5,2.4-6.5,4.9-8.8,5.6s-5.2,3.9-6.4,7.2l-1.8,4.9
		c-0.8,2.2-1.4,5.1-0.3,7.3c0.7,1.1,1.2,2.2,1.8,3.4c0.7,2.1-0.1,4.8-0.4,7l-1.9,9.8c-1.2,6.1-3.5,11.9-6.9,17.1l-0.2,0.3
		c-0.4,0.5-0.7,1.1-0.9,1.7c-0.2,0.6,0,1.3,0.5,1.8c0.4,0.3,1,0.4,1.5,0.4c2.2,0,4.1-0.9,6.2-0.9c3.6,0.1,6.5,2.8,6.8,6.4l0.1,1.8
		c0.2,3.5-0.8,6.9-2.3,7.5c-3.1,1.4-4.5-2.1-6.3-3.6c-1.1-0.9-2.8-1.4-4-0.6c-0.4,0.3-0.8,0.7-1.1,1.1c-1.1,1.5-2.6,4.3-4.8,4.3
		c-2.5,0-4-3.4-4.6-5.4c-0.1-0.5-0.4-1.1-0.9-1.1s-0.7,0.7-0.8,1.3c-0.3,2.4-1.3,4.6-1.8,6.9c-0.3,1.4-0.6,2.8-1,4.3
		c-0.9,4.1-1.5,8.3-1.8,12.6l-1.1,16.9c-0.2,3.5,2.3,5.6,5.7,4.7l8.6-2.4c3.6-1.2,6.3-4.3,6.9-8l0.1-0.9c0.6-4.2,1.7-8.3,3.1-12.2
		l1.7-4.3c1.6-3.6,3.8-7,6.6-9.8c2.7-2.8,4.4-6.4,4.9-10.2c0.5-4.2,1.4-8.2,1.7-12.4c0.1-0.4,0-0.7-0.1-1.1c-0.7-1.4-2.7-0.2-3.6-1
		c-0.8-0.6-0.6-2.6-0.5-3.4c0.3-2.2,2-6.5,3.9-9.4l6.4-10.1C208.6,165.7,211.8,161.9,213.5,158.1z"/>
	<path class="st3" d="M128.8,326.2c0,0.1-0.2,0.2-0.4,0.1c-0.4,1.1-0.9,2.2-1.5,3.3l0.4,0.1c0,0.1-0.1,0.2-0.3,0.2v10.6h-1.1v-9.2
		c-0.6,0.9-1.2,1.8-1.9,2.6c-0.2-0.4-0.3-0.7-0.6-1c1.8-2.1,3.2-4.6,4-7.2L128.8,326.2z M138.8,329.9h-6.5c-0.2,1.1-0.6,2.2-0.9,3.3
		h7v1H135v4.7h3.8v1h-8.9v-1h4.1v-4.7h-3V334c-0.7,1.8-1.7,3.5-3,4.9c-0.2-0.3-0.5-0.6-0.8-0.8c1.9-1.8,3.1-4.8,3.9-8.2H128v-1h3.4
		c0.2-1,0.4-2.1,0.5-3.2l1.4,0.2c0,0.1-0.1,0.2-0.4,0.2c-0.1,0.9-0.3,1.9-0.5,2.8h6.3L138.8,329.9L138.8,329.9z"/>
	<path class="st3" d="M148.1,326.8c0,0.1,0,0.2,0,0.3c-0.2,3.4-0.4,3.4-2.1,3.4c-0.3,0-0.8,0-1.2,0c0-0.3-0.1-0.6-0.3-0.9
		c0.6,0.1,1.1,0.1,1.7,0.1c0.3,0,0.4,0,0.5-0.1c0.1-0.1,0.3-0.7,0.4-2h-2.6c-0.3,1.8-1.6,3.3-3.4,3.9c-0.1-0.3-0.3-0.6-0.6-0.8
		c1.5-0.4,2.6-1.6,3-3.1H141v-0.9h2.7c0-0.4,0.1-0.8,0.1-1.2l1.3,0.1c0,0.1-0.1,0.2-0.3,0.2l-0.1,0.8h2.6h0.2L148.1,326.8z
		 M146.8,338.6c-0.1,0.1-0.2,0.1-0.3,0.1c-1.5,0.7-3.1,1.3-4.8,1.7c-0.2-0.2-0.5-0.6-0.7-0.8c1.6-0.3,3.2-0.9,4.7-1.6L146.8,338.6z
		 M142.9,337.8v-6.5h10.5v6.5H142.9z M144,332.1v1.2h8.4v-1.2H144z M144,334v1.2h8.4V334H144z M144,335.9v1.2h8.4v-1.2H144z
		 M154.7,326.5v4h-5.4v-4H154.7z M154.2,340.4c-1.5-0.7-3.1-1.3-4.7-1.8l0.8-0.6c1.7,0.5,3.3,1.1,4.9,1.7L154.2,340.4z M153.6,329.7
		v-2.3h-3.4v2.3H153.6z"/>
	<path class="st3" d="M162.5,337c-0.1,0.1-0.2,0.2-0.3,0.1c-1.1,1.2-2.4,2.2-3.8,3c-0.3-0.3-0.6-0.5-0.8-0.7
		c1.4-0.7,2.6-1.7,3.7-2.9L162.5,337z M159.6,334.9H172v1h-6.6v4.6h-1.1v-4.6h-4.7v0.5h-1.1V327l1.4,0.1c0,0.1-0.1,0.2-0.3,0.2
		L159.6,334.9z M170.1,326.2v7.4h-8.8v-7.4H170.1z M169.1,328.4V327h-6.7v1.4H169.1z M169.1,330.6v-1.4h-6.7v1.4H169.1z
		 M169.1,332.8v-1.4h-6.7v1.4H169.1z M171.1,340.2c-1.2-1.1-2.5-2.2-3.8-3.1l0.9-0.6c1.4,0.9,2.6,1.9,3.9,3L171.1,340.2z"/>
	<path class="st3" d="M174.1,340l14.4-14.4l0.5,0.5l-14.4,14.4L174.1,340z"/>
	<path class="st3" d="M205.5,328.1h-12.4v3.8c0,2.5-0.2,6.1-1.6,8.6c-0.3-0.2-0.6-0.4-0.9-0.6c1.3-2.3,1.4-5.6,1.4-8v-4.8h6v-1.5
		l1.4,0.1c0,0.1-0.1,0.2-0.3,0.2v1.2h6.2v1L205.5,328.1L205.5,328.1z M205.6,331.6v0.9H204v2.3h-9.4V334h4.1v-1.5h-5.3v-0.9h5.3
		v-1.4h-4v-0.8h4v-1.3l1.3,0.1c0,0.1-0.1,0.2-0.3,0.2v0.9h4.3v2.2L205.6,331.6z M194.9,340.5V336h9.2v4.5H203v-0.6h-7.1v0.6H194.9z
		 M203,336.8h-7.1v2.2h7.1V336.8z M199.8,330.3v1.4h3.3v-1.4H199.8z M199.8,334h3.3v-1.5h-3.3V334z"/>
	<path class="st3" d="M208.2,330.1c1,0.4,2,1,2.9,1.7l-0.6,0.9c-0.9-0.7-1.8-1.3-2.8-1.8L208.2,330.1z M208,339.5
		c1-1.7,1.9-3.4,2.7-5.2l0.8,0.7c-0.8,1.7-1.8,3.7-2.5,4.9c0.1,0.1,0.1,0.1,0.1,0.2s0,0.1-0.1,0.2L208,339.5z M209.1,325.8
		c1,0.4,2,1,2.8,1.8c-0.3,0.4-0.5,0.7-0.6,0.9c-0.8-0.8-1.8-1.4-2.8-1.9L209.1,325.8z M222.4,336.8v1h-5.3v2.6h-1v-2.6h-4.8v-1h4.8
		v-1.4h-3.9v-0.9h3.9v-1.4h-3.5v-0.9h3.5v-1.5h-4.5v-0.9h4.5v-1.5h-3.4v-0.9h3.4v-1.8l1.3,0.1c0,0.1-0.1,0.2-0.3,0.2v1.5h3.8v2.4
		h1.5v0.9h-1.5v2.4h-3.8v1.4h4.3v0.9h-4.3v1.4L222.4,336.8z M217.1,328.3v1.5h2.7v-1.5H217.1z M217.1,330.7v1.5h2.7v-1.5H217.1z"/>
	<path class="st3" d="M239,327.9v1.1h-6.7l0,0h0.2c0,0.1-0.1,0.2-0.3,0.2v2.1h5.2v5.8c0,1.3-0.5,1.4-3.5,1.4
		c-0.1-0.4-0.2-0.7-0.4-1.1c1.2,0,2.1,0,2.4,0c0.3,0,0.4-0.1,0.4-0.3v-4.7h-4.1v8.2h-1.1v-8.2h-3.9v6.1h-1.1v-7.2h5V329h-6.6v-1.1
		h6.6v-2.3l1.4,0.1c0,0.1-0.1,0.2-0.3,0.2v2L239,327.9z"/>
	<polyline class="st4" points="306.3,400.8 269,343.5 122.3,343.5 	"/>
	<path class="st3" d="M309.4,398.6c1.1,1.7,0.6,4.1-1.1,5.2s-4.1,0.6-5.2-1.1s-0.6-4.1,1.1-5.2S308.2,396.8,309.4,398.6L309.4,398.6
		z"/>
	<path class="st3" d="M71.9,397.5c0.4,0.9,1,1.7,1.8,2.5c1.3-0.7,2.4-1.4,3.6-2.3l1,0.7c-0.1,0.1-0.2,0.1-0.3,0.1
		c-0.9,0.6-2.4,1.4-3.6,2.1c1.4,1.1,3.1,1.8,4.8,2.1c-0.3,0.3-0.5,0.6-0.7,1c-3.7-0.9-6.3-2.9-7.6-6.1h-2.5v4.4
		c1.4-0.2,2.9-0.5,4.4-0.7v0.9c-2.5,0.5-5.2,1-6.9,1.3c0,0.1-0.1,0.2-0.2,0.2l-0.5-1.1l2.1-0.3v-4.6h-2.9v-1h2.8v-7.1h10v0.9h-8.8
		v1.4h8.4v0.9h-8.4v1.5h8.4v0.9h-8.4v1.5h10.5v1L71.9,397.5z"/>
	<path class="st3" d="M95.8,395v0.9h-1.2v6.4c0,1.2-0.6,1.3-3.2,1.3c-0.1-0.3-0.2-0.7-0.4-1c0.5,0,1,0,1.4,0c1.2,0,1.2,0,1.2-0.3
		v-6.4h-7.3v5.2h-0.8v-1h-3.2v1.6h-0.8v-10.2l1.1,0.1c0,0.1-0.1,0.2-0.3,0.2v7.5h1.1V389l1.2,0.1c0,0.1-0.1,0.2-0.3,0.2v9.9h1.2
		v-7.7l1.1,0.1c0,0.1-0.1,0.2-0.3,0.2v3.2L95.8,395z M91.4,391.1c0,0.2-0.1,0.4-0.2,0.5c1.4,0.7,3.1,1.7,4,2.3l-0.7,0.8
		c-1.2-0.8-2.4-1.6-3.7-2.2c-0.6,1-1.7,1.7-3.6,2.2c-0.1-0.3-0.3-0.6-0.5-0.8c2.2-0.5,3.2-1.3,3.7-2.7H87v-0.9h3.6
		c0.1-0.4,0.1-0.9,0.1-1.5l1.3,0.1c0,0.1-0.1,0.2-0.3,0.2c0,0.4-0.1,0.8-0.1,1.2h3.7v0.9h-3.9C91.4,391.2,91.4,391.1,91.4,391.1z
		 M91.9,401h-3.4v0.9h-0.9v-4.7H92L91.9,401L91.9,401L91.9,401z M91,398h-2.5v2.2H91V398z"/>
	<path class="st3" d="M102.8,400.1c-0.1,0.1-0.2,0.2-0.3,0.1c-1.1,1.2-2.4,2.2-3.8,3c-0.3-0.3-0.6-0.5-0.8-0.7
		c1.4-0.7,2.6-1.7,3.7-2.9L102.8,400.1z M99.9,398h12.4v1h-6.6v4.6h-1.1V399h-4.7v0.5h-1.1v-9.3l1.4,0.1c0,0.1-0.1,0.2-0.3,0.2
		L99.9,398z M110.4,389.3v7.4h-8.8v-7.4H110.4z M109.4,391.5v-1.4h-6.7v1.4H109.4z M109.4,393.7v-1.4h-6.7v1.4H109.4z M109.4,395.9
		v-1.4h-6.7v1.4H109.4z M111.4,403.3c-1.2-1.1-2.5-2.2-3.8-3.1l0.9-0.6c1.4,0.9,2.6,1.9,3.9,3L111.4,403.3z"/>
	<path class="st3" d="M114.4,403.1l14.4-14.4l0.5,0.5l-14.4,14.4L114.4,403.1z"/>
	<path class="st3" d="M136.1,389.2c0,0.1-0.2,0.2-0.4,0.1c-0.4,1.1-0.9,2.2-1.5,3.3l0.4,0.1c0,0.1-0.1,0.2-0.3,0.2v10.6h-1.1v-9.2
		c-0.6,0.9-1.2,1.8-1.9,2.6c-0.2-0.4-0.3-0.7-0.6-1c1.8-2.1,3.2-4.6,4-7.2L136.1,389.2z M146,393h-6.6c-0.2,1.1-0.6,2.2-0.9,3.3h7v1
		h-3.4v4.7h3.9v1h-9v-1h4v-4.7h-2.8v-0.2c-0.7,1.8-1.7,3.5-3,4.9c-0.2-0.3-0.5-0.6-0.8-0.8c1.9-1.8,3.1-4.8,3.9-8.2h-3.1v-1h3.4
		c0.2-1,0.4-2.1,0.5-3.2l1.4,0.2c0,0.1-0.1,0.2-0.4,0.2c-0.1,0.9-0.3,1.9-0.5,2.8h6.4V393z"/>
	<path class="st3" d="M160.1,399.1H159v-0.7h-3.2v0.8h-1.1v-5.4h-3.2v7.4H162v1h-10.4v1.2h-1.1v-9.7H148v-1h2.5V389l1.4,0.1
		c0,0.1-0.1,0.2-0.3,0.2v3.3h3.2v-4l1.4,0.1c0,0.1-0.1,0.2-0.3,0.2v3.7h3.1V389l1.4,0.1c0,0.1-0.1,0.2-0.3,0.2v3.5h2.5v1h-2.5
		L160.1,399.1L160.1,399.1z M155.8,397.4h3.2v-3.5h-3.2V397.4z"/>
	<path class="st3" d="M166.8,394.3c-0.6,0.9-1.2,1.8-1.9,2.7c-0.2-0.3-0.3-0.7-0.6-1c1.8-2.1,3.2-4.6,4-7.2l1.3,0.4
		c-0.1,0.1-0.2,0.2-0.4,0.1c-0.4,1.1-0.9,2.2-1.5,3.3l0.4,0.1c0,0.1-0.1,0.2-0.3,0.2v10.6h-1V394.3z M179.3,397.7h-3.9
		c1.1,1.8,2.6,3.3,4.4,4.3c-0.3,0.3-0.5,0.5-0.8,0.9c-1.8-1.2-3.2-2.8-4.3-4.6v5.3h-1.1v-5.2c-1.1,1.8-2.7,3.4-4.5,4.5
		c-0.2-0.3-0.5-0.6-0.8-0.9c1.9-1,3.4-2.5,4.6-4.3h-4.1v-1h4.8v-1.9H170v-5.4h8.4v5.4h-3.7v1.9h4.6V397.7z M171.1,390.4v3.4h6.3
		v-3.4H171.1z"/>
	<path class="st3" d="M196,391v1.1h-6.7l0,0h0.2c0,0.1-0.1,0.2-0.3,0.2v2.1h5.2v5.8c0,1.3-0.5,1.4-3.5,1.4c-0.1-0.4-0.2-0.7-0.4-1.1
		c1.1,0,2.1,0,2.4,0c0.3,0,0.4-0.1,0.4-0.3v-4.7h-4.1v8.2h-1.1v-8.2h-3.8v6.1h-1.1v-7.2h5V392h-6.6v-1h6.6v-2.3l1.4,0.1
		c0,0.1-0.1,0.2-0.3,0.2v2L196,391L196,391z"/>
	<polyline class="st4" points="268.2,470 228,406.6 62.6,406.6 	"/>
	<path class="st3" d="M271.2,467.8c1.1,1.8,0.6,4.1-1.2,5.2c-1.8,1.1-4.1,0.6-5.2-1.2c-1.1-1.8-0.6-4.1,1.2-5.2
		C267.8,465.5,270.1,466,271.2,467.8L271.2,467.8z"/>
</g>
<g id="レイヤー_2_1_">
	<path class="st2" d="M710.9,236.2c-2.4-1.5-4.5-3.6-6.2-6l-4.9-7.9c-1.2-2-3.2-5.1-4.5-7l-10.2-15.6c-1.5-2.1-3.4-3.9-5.5-5.3
		l-2.1-1.2c-0.1,0-0.2-0.1-0.3-0.1h-0.1c-0.2,0-0.3-0.1-0.5-0.2c-0.5-0.1-0.9-0.1-1.4,0.1c-0.7,0.3-1.3,0.8-1.6,1.6l-2.9,7.3
		c-1.2,2.6-3.5,4.6-6.3,5.4l-18.2,4.2c-2.8,0.5-5.8-0.3-8-2.2l-4.9-4.6c-2-2.1-2.8-5-2.1-7.8l0.9-2.8c0.5-1.9-0.3-3.8-2-4.9
		l-0.4-0.2c-2-1.1-5.3-3-7.3-4.2l-1.1-0.7c-2.3-1.5-4.5-3.3-6.3-5.4c-1.6-2.2-2.1-5-1.3-7.6c1-2.4,2.5-4.6,4.4-6.4
		c1.4-1.6,2.2-3.7,2.1-5.8l-1.5-19.2c-0.2-1.8-0.5-3.5-1-5.3c-0.7,0.5-1.6,0.8-2.4,0.9c-1.1-0.2-2.2-0.5-3.2-0.8l-2.8-1.1
		c-0.8-0.3-3.5,2-5.9,5.2l-3.2,4.1c-2.4,3.2-4.7,7.3-5.1,9.2c-0.4,1.9-3.1,5.4-5.9,7.7c-2,1.7-4.1,3.2-6.4,4.6
		c-0.9,0.5-1.5,1.3-1.8,2.3c-0.7,1.8-1.6,3.5-2.7,5c-1.5,2.6-2.5,5.4-2.9,8.4s-3.9,5.7-7.9,6l-1,0.1c-3.9,0.4-8.7,2.2-10.5,4.2
		c-1.8,1.9-6.5,3.6-10.5,3.8l-3.1,0.1c-4,0.2-7.7,0.5-8.3,0.9c-0.9,0.4-2,0.6-3,0.6c-1.6-0.3-3.1-1-4.3-2.1c-2.5-2-5.1-3.8-7.9-5.4
		c-3.4-1.8-7.4-2.4-11.3-1.6c-4.4,1.3-4.9,4.1-7.1,7.4c-3.2,4.8-10.1,7.1-15.5,6.7c-2.9-0.2-5.5,0-5.9,0.3c-0.4,0.4-0.9,0.7-1.4,1
		c-0.5,0.2-0.7,0.7-0.7,1.2c0.1,0.7,0.6,1.3,1.2,1.6c0.9,0.9,1.6,2.1,1.7,3.4c0.3,1.5,0.7,5,0.9,7.7c0.3,3,1,6,2.2,8.9
		c1.1,2.8,1.7,5.7,1.8,8.7c-0.1,3.1-0.9,6.1-2.3,8.9c-1.2,2.2-2.9,4.2-4.9,5.7c-1.4,0.9-1.9,4.8-1.1,8.7l0.9,4.4
		c0.8,3.9,2,8.8,2.6,10.9c0.7,3.2,0.8,6.5,0.3,9.8c-0.2,1.3-0.4,3.3-1.1,4.4s-2.3,1.2-3,2.3c-0.4,0.8-0.1,1.9,0.6,2.4
		c1.4,1,5.1,3,6.7,2c1.2-0.7,2-1.8,2.4-3.1c0.1-1,2.3-3.8,4.9-6.3c2.9-2.8,5.5-5.9,7.7-9.3c1.4-2.3,3.1-4.4,5.1-6.1
		c1.6-0.8,3.4-1.2,5.2-1.2c1.7,0.1,4.9,2.5,7.3,5.3c2,2.5,4.2,4.8,6.7,6.9c1.6,1.5,2.7,3.4,3.3,5.5c0.5,2,1.4,3.9,2.7,5.5
		c0.9,0.9,2.2,1.4,3.5,1.5c1.8-0.3,3.5-0.9,5.2-1.6c1.5-0.7,3.1-1.1,4.8-1.3c0.7,0.1,1.9,1.4,2.7,2.8s2.4,2.2,4,1.9
		c1.4-0.4,4.9-2.7,7.8-5.1c3.1-2.6,5.9-5.6,8.3-8.9c1.6-2.5,3-5.2,3.1-6.1c0.2-1.4,0.7-2.6,1.4-3.8c0.5-0.7,1.6-2.4,2.5-1.5
		c0.8,0.9,0.4,2.8,0.7,3.8c0.6,1.6,1.7,3,3.2,3.9c2.3,1.6,4.9,2.7,6,2.6c1.1-0.2,2.1-0.8,2.7-1.7c0.5-0.8,0.8-1.7,1.1-2.6
		c0.2-0.6,1.4-1.1,2.7-1c1.4,0.1,2.8,1.5,3.3,3.2c0.6,1.8,2.5,2.9,4.4,2.5c1.9-0.3,3.6-1.3,4.9-2.7c1.1-0.9,2.6-1,3.5-2
		c0.3-0.3,0.5-0.7,0.8-1c1.3-1.6,4.2-1.9,6.1-2.1c4-0.5,7.9-1.3,11.7-2.3l4-1.1c2.7-0.8,5.5-1.3,8.4-1.4c1.7-0.1,6-0.7,7.4,0.4
		c0.6,0.5,1.6,2.7,2.2,5c1,2.7,3.1,4.8,5.7,5.7c3.7,1.6,7.1,3.7,10,6.3l0.7,0.6c3.4,2.8,7.1,5.2,11.1,7c3.1,1.3,8.7,3.4,12.4,4.8
		l2.8,1.1c4.3,1.9,7.9,4.9,10.5,8.7l0.8,1.4c2.1,3.4,4.3,6,5,5.8s1.1-3.6,0.9-7.6l-0.4-6.5c-0.2-4,0.8-7.8,2.4-8.5
		c1.5-0.7,4.5-2.2,6.7-3.3c2.2-1.2,4.2-2.9,5.8-4.8c1.1-1.5,1.7-6,1.4-10l-0.7-8.1c-0.3-3.7-0.3-7.3,0-11c0.4-2.2,1.6-4.2,3.4-5.6
		c0.9-0.9,1.5-2.1,1.7-3.3l0,0L710.9,236.2z"/>
	<path class="st2" d="M940.2,157.7c-1.7-2.1-2.9-4.7-3.4-7.3l-1.9-11.6c-0.5-2.6-1.3-5.1-2.5-7.6l-1.7-3.4c-1.2-2.6-2-5.4-2.4-8.2
		l-1.8-16.6c-0.4-2.5-1.3-5-2.7-7.1l-6.3-9c-1.5-2.5-2-5.4-1.3-8.3l4.7-15.6c0.5-2.1,0-4.4-1.5-6.1l-6.3-6.7c-1.5-1.4-3.2-2.6-5-3.5
		H908c-0.4-0.2-0.8-0.4-1.3-0.5l-11.1-3.5c-2.7-1-4.9-3.1-6.1-5.7l-0.4-1.1L875.2,40c-2.8,0.7-5.8,0.6-8.5-0.2l-4.1-1.4
		c-2.3-0.6-4.7-0.4-6.8,0.6l-0.6,0.4c-2.6,1.3-5.5,1.9-8.4,1.6l-11-1.6c-2.2-0.2-4.4,0.7-5.9,2.3l-15.3,18.4
		c-1.9,2.1-4.4,3.8-7.2,4.7l-4,1.1c-2.1,0.7-3.8,2.4-4.5,4.4l-0.7,2.3c-0.5,2,0.2,4,1.9,5.3l4.1,2.8c2,1.3,2.6,4,1.3,6
		c-0.2,0.3-0.4,0.6-0.7,0.8l-1.3,1.3c-2.1,2-4.8,3.3-7.6,3.9l-6.9,1.1c-2.4,0.5-4.7,1.6-6.7,3.2l-2.1,1.9c-2.2,1.9-5,2.9-7.9,3.1
		h-10.5c-2.6,0.1-5.3,0.5-7.8,1.3l-6.6,2.4c-2.8,0.9-5.6,1.2-8.5,0.9l-14.4-2c-2.3-0.2-4.5,0.6-6.1,2.2l-15,15.9
		c-1.6,1.9-2.7,4.2-3,6.7l-1.9,17.5c-0.4,2.9-1.9,5.5-4.2,7.3l-4,2.9c-1.8,1.5-3.1,3.6-3.5,6l-1,7.5c-0.5,2.9-1.8,5.5-3.8,7.6
		l-0.5,0.5c-1.7,1.8-2.7,4-3,6.4l-0.4,6.5l0.2,0.1l2.1,1.2c2.4,1.5,4.6,3.5,6.2,5.9l10.3,15.6c1.3,1.9,3.3,5.1,4.5,7l4.9,7.9
		c1.5,2.1,3.3,3.9,5.5,5.3l13.9,8c0.1-1.2,0.1-2.5,0-3.7l-0.4-3.6c-0.4-3.9,0.9-9.2,2.9-11.7s5.6-7.1,8.1-10.2l7-8.9
		c3-3.4,7.2-5.5,11.7-5.8l4.4-0.1c4-0.1,8.4-0.3,9.7-0.6c1.2-0.3,2.4,0.4,2.7,1.6c0.1,1.5,0.1,3-0.1,4.4c-0.1,2-0.1,4.1,0.2,6.1
		s2.8,5.9,5.7,8.7l2.1,2.1c2.8,2.8,4.2,7.3,3,10c-1.8,3.7-4,7.3-6.4,10.8l-4.9,6.9c-2.3,3.2-4,6.4-3.8,7.1s1.4,0.7,2.6,0.1
		c2.2-1,4.6-1.7,6.9-2.2c2.8-0.9,4.8-3.5,4.9-6.4c0.1-3.3,0.8-6.6,2.1-9.6c1.2-2.5,2.8-4.7,4.8-6.5c1.5-1.3,6-1.7,9.9-1l0.7,0.1
		c3.9,0.7,8.3,0.4,9.8-0.6c2.2-1.3,4.6-2.2,7-2.7c2.7-0.8,4.8-3,5.5-5.7c0.4-2,1.1-3.9,2.2-5.7c1.3-1.6,4-2.2,5.5-3.6
		c1.8-1.6,3.8-2.8,4.4-2.6c0.9,0.3,1.7,0.7,2.4,1.2c1,0.6,2.2,0.8,3.3,0.7c1.9-0.5,3.5-1.5,4.9-2.9c1.6-1.5,6.1-2.8,10-3l9.1-0.5
		c3.6-0.2,7.2-0.7,10.8-1.6c1.6-0.6,3.2-1.1,4.9-1.5c0.7-0.1,2.5-2.4,3.9-5.1c1.4-2.7,5.5-4.6,9.3-4.3c3.7,0.3,7.4,0.2,11.1-0.4
		c2.7-0.7,5.1-2.4,6.7-4.7c1.2-2,2.5-3.7,3-3.7c0.4,0,0.6,1.5,0.4,3.3c-0.4,3.3,3.8,5.3,6.3,6.2c3.2,1,6.5,1.3,9.8,0.7
		c4.3-0.7,7.8-3.7,9.3-7.8c1.1-3.6,3.5-6.8,5.4-7.2l-1.7-14.8C942.7,161.7,941.7,159.6,940.2,157.7z"/>
	<path class="st2" d="M620.7,139.7l1.5,19.1c0.2,2.7-0.8,5.4-2.7,7.4c-1.6,1.6-3,3.5-3.9,5.7c-0.6,1.9-0.2,4,1,5.6
		c1.7,1.9,3.6,3.6,5.8,5l1.1,0.6c2,1.2,5.2,3,7.2,4.1l0.4,0.2c2.5,1.5,3.6,4.4,2.9,7.1l-0.9,2.8c-0.5,2.1,0.1,4.3,1.6,5.8l4.9,4.6
		c1.7,1.4,4,2,6.2,1.7l18.2-4.1c2.2-0.7,4-2.2,4.9-4.2l2.9-7.3c0.5-1.3,1.5-2.3,2.8-2.7c0.5-0.2,1.1-0.3,1.7-0.2l0.4-6.1
		c0.3-2.9,1.6-5.6,3.6-7.7l0.5-0.5c1.7-1.8,2.8-4,3.3-6.4l1-7.5c0.5-2.9,2-5.4,4.3-7.3l4-2.9c1.8-1.5,3-3.6,3.4-5.9l1.9-17.5
		c0.4-2.9,1.7-5.6,3.5-7.8l14.9-15.8c2.1-2,4.9-3,7.8-2.8l14.4,2c2.6,0.2,5.1,0,7.6-0.8l6.6-2.4c2.7-0.9,5.6-1.4,8.4-1.5h10.5
		c2.4-0.1,4.8-1,6.7-2.6l2-2c2.2-1.9,4.9-3.1,7.8-3.7l6.9-1.1c2.4-0.5,4.7-1.7,6.5-3.3l1.3-1.3c1-0.9,1.1-2.4,0.2-3.4
		c-0.2-0.2-0.3-0.3-0.6-0.5l-4.1-2.8c-2.3-1.7-3.3-4.7-2.6-7.4l0.7-2.3c1-2.7,3.1-4.9,5.9-5.8l4-1.1c2.4-0.8,4.5-2.2,6.2-4
		l15.1-18.2c1.9-2.1,4.8-3.2,7.7-3l11,1.6c2.5,0.2,4.9-0.3,7.2-1.4l0.6-0.4c2.6-1.3,5.6-1.6,8.4-0.8l4.1,1.4
		c2.4,0.7,4.9,0.7,7.4,0.2l13.7-4l-0.3-0.9c-1-2.6,0.1-5.6,2.5-7c1.7-1,2.6-3,2.2-4.9l-0.9-3.9c-0.6-2.4-1.9-4.6-3.7-6.3
		c-1-0.8-1.5-2-1.4-3.3c0.3-1.2,1.2-2.2,2.4-2.6l14.2-5.7c2.1-1,3.7-2.7,4.5-4.9l4.7-15.1c0.7-2.2,1.9-5.8,2.7-7.9l1.4-3.7
		c0.6-2,0.1-4.1-1.4-5.5l-10.3-8.9c-2.1-2-3.8-4.4-4.8-7.1c-0.2-0.8-0.4-1.7-0.7-2.7c-0.9-3-1.9-6.3-1-8.6c1.2-3,4.9-3.7,7.9-4.4
		c0.9-0.2,1.8-0.4,2.4-0.6l4.9-1.6c0.1-0.2,0.2-0.5,0.3-0.7c0.5-0.8,1-1.9,0.3-2.6c-0.5-0.3-1.2-0.4-1.8-0.2
		c-3.9,0.8-7.8,1.9-11.7,2.7c-1.9,0.4-4,0.6-5.9,0.3c-1,0-1.9-0.4-2.5-1.1c-1.3-1.7-3-3.1-5-4.2s-5.9,0.4-8.7,3.2l-0.2,0.2
		c-2.8,2.8-6,5.5-7,6c-2,0.6-4,0.9-6.1,0.9c-2.7,0.2-5.2,1.4-7.1,3.2c-1.6,1.7-6.1,3.3-10.1,3.7l-3.6,0.3c-3.2,0.2-6.4,0.7-9.5,1.6
		c-2.8,1.6-5.4,3.5-7.8,5.6l-2.6,2.2c-3,2.6-7.9,4.8-10.7,5c-2.3,0.2-5.3-2.2-6.8-1.6c-2.2,0.9-2.5,4.9-2.1,6.6
		c0.6,3.5,0.9,7.1,0.9,10.7v0.2c-0.2,4.5-2.1,8.8-5.4,11.8l-28,23.5c-3.8,3.1-10.5,3.4-13.5,7.5c-2.2,3-3.6,7.4-5.5,10.8
		c-2.2,3.8-5.1,6-8.6,8.4c-4.3,3.1-7,8.1-10.9,11.6c-6,5.4-13.8,6.4-19.2,12.8c-1.9,2.3-4.3,4.4-5.3,4.9c-1,0.4-3.2,2.4-4.8,4.4
		c-2.9,3.8-7.6,6-10.3,9.9c-1.5,2.1-2.4,4.9-4.8,6c-0.8,0.4-1.7,0.5-2.6,0.8c-3.7,1.5-4.9,7.1-7.5,9.9c-2.5,2.7-5.2,5-6.1,5.2
		c-2.7,0.7-2.7,4.4-4.8,5.6c-1,0.5-2,0.9-3.1,1c-0.8,0.1-1.5,0.3-2.1,0.7c-1.1,0.8-1.2,2.4-1.8,3.7c-0.9,1.6-2.7,2.3-3.7,3.8
		c-0.7,1.1-0.8,2.6-1.4,3.8c-1.9,3.2-4.7,5.7-8,7.2l-1.3,0.6c-4.4,1.9-9,3-13.7,3.4h-1c-4,0.2-9.1,2-11.3,4.1
		c-0.6,0.6-1.2,1.1-1.9,1.5c0.1,0.1,0.1,0.2,0.1,0.3C620.1,135.7,620.5,137.7,620.7,139.7z"/>
</g>
</svg>
