<svg id="map2-04" xmlns="http://www.w3.org/2000/svg" xmlns:xlink="http://www.w3.org/1999/xlink" width="677.211" height="939.4" viewBox="0 0 677.211 939.4">
  <defs>
    <clipPath id="clip-path">
      <rect id="長方形_106" data-name="長方形 106" width="635.2" height="939.4" transform="translate(217.8)"/>
    </clipPath>
  </defs>
  <g id="レイヤー_2_2_" transform="translate(-175.789)">
    <g id="レイヤー_2_1_">
      <g id="デザイン-2500px">
        <g id="グループ_215" data-name="グループ 215">
          <g id="グループ_214" data-name="グループ 214">
            <g id="グループ_213" data-name="グループ 213">
              <g id="グループ_212" data-name="グループ 212" clip-path="url(#clip-path)">
                <path id="パス_197" data-name="パス 197" d="M398.7,446.5c1.6-1.7,4.1-4.4,5.6-6.2l8-8.9A31.754,31.754,0,0,1,419,426l7.5-4.2a5.694,5.694,0,0,0,2.6-5.1l-.6-5.3a26.566,26.566,0,0,0-2.3-7.4l-1.3-2.5c-.9-1.7-2.7-2.5-3.7-2.1a6.119,6.119,0,0,0-3.4,3.3c-.7,2-3.3,4.1-6,4.6l-.5.1c-2.6.6-5.9-.2-7.4-1.6a14.576,14.576,0,0,0-5.2-2.8,17.612,17.612,0,0,1-6.9-4.2l-.9-1a13.135,13.135,0,0,0-6.4-3.3l-8.4-1.3a15.11,15.11,0,0,0-7.3,1l-1.3.6a20.642,20.642,0,0,1-8.5,1.5l-12-.8a11,11,0,0,1-7.4-4.2l-3.5-4.9c-3.2,7.8-17.1,9.4-18.5-.6l-.4-3c-.6-3.9-2.8-8.2-4.9-9.5s-5.4-1.9-7.3-1.3c-3.3,1-4.1,3.7-6.2,6a10.1,10.1,0,0,0-1.3,1.6c-1,1.9,4.8,8.4,1.3,9.6a4.812,4.812,0,0,1-2.9-.4l-2.6-1c-.9-.4-2.2-.7-2.8.2a2.118,2.118,0,0,0,0,1.9,77.519,77.519,0,0,1,2.7,10.8c.4,1.9.7,3.8,1.1,5.8.2,1.2.2,3.5,1.6,4.2,1.3.6,4.8-1.9,4.8,1,0,1.3-2,4.2-4.4,6.4s-5.9,2-7.6-.4c-.1-.1-.2-.3-.3-.4l2.3,14.3c.4,2.2,1.2,5.8,1.8,8l.7,2.4a30.6,30.6,0,0,0,3.3,7.1l1.7,2.5a11.934,11.934,0,0,0,5.7,4l5.1,1.3a25.679,25.679,0,0,1,7.8,3.8l3.5,2.8a5.051,5.051,0,0,1,.9,7c-.1.1-.2.3-.3.4l-1.3,1.4a2.959,2.959,0,0,0,.1,4.1l.1.1.5.4a34.927,34.927,0,0,1,5.6,6.5l3.4,5.2a11.239,11.239,0,0,0,5.7,4.1l3.1.9a14.933,14.933,0,0,1,7.1,5l.1.2a8.829,8.829,0,0,0,5.7,3.3l14.6,1.7c.3-.3.7-.6,1-.9a11.988,11.988,0,0,0,1.2-1.1,1.971,1.971,0,0,0,.3-1.5,3.591,3.591,0,0,0-.7-1c-4.1-4-6.4-10.1-9.1-15.2l-5.2-9.6a7.8,7.8,0,0,1,2.7-10.2l12.6-7.8c3.4-2.1,7.7-1.9,9.5.4,1.6,2,5.3,3.6,8.9,3.9a40.718,40.718,0,0,1,3.3-4.8Z" fill="none" stroke="#dbcab9" stroke-width="0.277"/>
                <path id="パス_198" data-name="パス 198" d="M420.8,490.1l1.2-4.2a13.079,13.079,0,0,1,5.2-6.8l7.8-4.5a14.677,14.677,0,0,1,8.5-1.7l2.4.3a4.585,4.585,0,0,0,4.6-2.6l.5-1.1a7.864,7.864,0,0,1,6.9-4.5h5.8a12.059,12.059,0,0,1,7.9,3.4l1.5,1.6a10.425,10.425,0,0,0,6.3,2.8l6.9.2a12.705,12.705,0,0,1-2-7.8l1.6-12.7a10.448,10.448,0,0,0-.6-5.5c-1.1-1.7-.9-4.7-.1-6.7a31.189,31.189,0,0,0,1.5-7.5l1-16.4a17.009,17.009,0,0,1,3-8.1l1.1-1.5a17.793,17.793,0,0,0,2.8-7v-.2a11.25,11.25,0,0,1,4.6-7.2l4.4-2.8c2-1.2,5.2-3.2,7.2-4.3l4.2-2.4a11.151,11.151,0,0,1,8.4-.6,52.336,52.336,0,0,0,7.7,2.3l4.4.9a9.9,9.9,0,0,0,6.3-.9,4.632,4.632,0,0,0,1.5-4.7l-2.5-9.5a13.1,13.1,0,0,1,1.1-8.5l3.3-5.5a80.388,80.388,0,0,0-10.9-2c-3.4-.4-7.9-3.5-9.9-7l-6.7-11.3a37.77,37.77,0,0,1-4.4-13.4l-.2-2.5c-.4-4-1.7-8.5-2.9-10.1s-1.5-5.2-.6-8.1a94.82,94.82,0,0,1,4.8-11.4c1.8-3.3,2.3-7,1.3-8a7.094,7.094,0,0,0-4.2-1.9c-1.3,0-4.4,2.1-7.1,4.7a45.23,45.23,0,0,1-7.2,5.9,22.751,22.751,0,0,1-6.8,1.3,11.425,11.425,0,0,1-7.5-2.8c-2-1.9-2.2-6.7-5.1-7.2a10.122,10.122,0,0,0-3,.2c-3.8.8-8,1.1-11.6,2.6a18.2,18.2,0,0,1-6.1.7c-2.2-.1-5.8,2.4-8.1,5.6l-.3.4a15.119,15.119,0,0,1-11.4,5.7l-5-.1c-8.2-.2-17,10.7-17,18.5v.6a94.516,94.516,0,0,0-.1,11.9c.2,2.6-1.8,6.2-4.6,8a36.249,36.249,0,0,0-8.8,9.5l-4.3,6.9a16.1,16.1,0,0,1-11,6.7l-.8.1a16.59,16.59,0,0,1-12.1-4.8l-.2-.3a7.255,7.255,0,0,0-10.2-.5c-3.5,3.1-6.9,4.8-11.1,7.1-1.1.6-2.3,1.4-2.5,2.6-.3,1.8,1.6,3.1,3.2,3.9,1.7.8,3.6,1.8,3.6,3.7,0,5.4-9.7,7.3-13.4,7.2-1.4,0-3-.2-4.1.6-1.2.8-1.5,2.3-1.8,3.8l4.6,6.4a8.473,8.473,0,0,0,5.7,3.2l12,.8a18.647,18.647,0,0,0,7.4-1.3l1.3-.6a16.842,16.842,0,0,1,8.6-1.1l8.4,1.3a16.329,16.329,0,0,1,7.7,4l.9,1a14.359,14.359,0,0,0,5.8,3.5,16.167,16.167,0,0,1,6.2,3.3,6.752,6.752,0,0,0,5.3,1.1l.5-.1a6.356,6.356,0,0,0,4.3-3.2,8.4,8.4,0,0,1,4.9-4.7c2.2-.7,5.1.7,6.4,3.2l1.3,2.5a30.125,30.125,0,0,1,2.6,8.2l.6,5.3a7.812,7.812,0,0,1-3.7,7.3l-7.5,4.2a29.162,29.162,0,0,0-6.1,4.9l-8,8.9c-1.5,1.7-4.1,4.5-5.6,6.2l-8.9,9.5a37.115,37.115,0,0,0-2.3,3.2l1.7-.1a11.971,11.971,0,0,1,10.3,6.3l.6,1.3a24.024,24.024,0,0,1,1.9,8c.3,2.8-1.1,5.1-2.5,7.4a5.035,5.035,0,0,0-1.1,2.6,5.421,5.421,0,0,0,.6,2.5,4.13,4.13,0,0,0,.7,1.1l15.5,2.8C418.6,492.7,420.2,491.7,420.8,490.1Z" fill="none" stroke="#dbcab9" stroke-width="0.277"/>
                <path id="パス_199" data-name="パス 199" d="M355.5,645.5l.4-1.8a8.171,8.171,0,0,1,5-5.4l1.4-.4a8.311,8.311,0,0,0,5.2-5.3c.8-3.1,1.1-6.9,2.9-9.5.3-.4.8-.9,1.2-.7,1.1.5-.2,2.4.4,3.1a1.374,1.374,0,0,0,1.8.1,19.2,19.2,0,0,0,1.4-1.5,12.01,12.01,0,0,1,9.8-3.5,24.823,24.823,0,0,1,5.4,1.2,14.435,14.435,0,0,0,7.1,1.2c4.9-.6,6.2-5.5,8-9.4,1.4-3.1,2.9-6.2,4.3-9.3a4.519,4.519,0,0,0-1.9-5.8,10.5,10.5,0,0,0-7.6-.4l-30.4,12.3a3.248,3.248,0,0,1-4.4-1.6,1.929,1.929,0,0,1-.3-1l-.9-4.9a42.22,42.22,0,0,1-.7-6.1c-.1-1.5.1-4.4-.8-5.5a2.469,2.469,0,0,0-1.6-.8,5.662,5.662,0,0,0-1.8.3c-1.8.6-3.3,1.5-5.2,2.2l-5.5,1.9-6.5,2.2a10.2,10.2,0,0,0-5.5,5.3l-4.1,10.5-3.3,8.5a82.856,82.856,0,0,1-3.1,8.3,9.128,9.128,0,0,1-.8,1.3c-.8,1.1-1.8,2.2-1.8,3.6s1.2,2.7,2,4c1.1,1.9,1.1,3.7,1.1,5.8l-1.6,10.7c-.5,3.7.4,8.2,3.2,10.8a4.372,4.372,0,0,0,2.4,1.3,4.306,4.306,0,0,0,2.2-.4c2.7-1.1,4.4-3.6,6.7-5.4,1.4-1.1,2.9-2.2,4.3-3.3l7.8-5.8A17.41,17.41,0,0,0,355.5,645.5Z" fill="none" stroke="#dbcab9" stroke-width="0.277"/>
                <path id="パス_200" data-name="パス 200" d="M551,821.4l1.2-6.9a12.158,12.158,0,0,0-1.2-7l-1.3-2.4a11.855,11.855,0,0,0-5.4-4.5l-15.4-5.4A16.87,16.87,0,0,1,522,790l-11.9-17.1a25.586,25.586,0,0,0-5.5-5.4l-3.5-2.3a13.611,13.611,0,0,1-5-7l-3-12a15.119,15.119,0,0,0-3.7-6.2l-6.9-6.1a32.216,32.216,0,0,1-5.5-6.7L469.7,715c-1.2-2-3.1-5.2-4.2-7.3l-6-10.9h0a48.829,48.829,0,0,0-4.6-6.6l-3.7-4.2a14.113,14.113,0,0,0-6.2-3.7l-5.1-1.2a6.634,6.634,0,0,0-5.7,1.8l-3.4,3.8a15.627,15.627,0,0,1-7.4,4.4l-7,1.6a17.889,17.889,0,0,1-8.6-.5l-.7-.3a23.152,23.152,0,0,1-7.3-4.6l-8.4-7.8a13.571,13.571,0,0,1-6.8,3.3L368.9,685a5.449,5.449,0,0,1-6.4-4.2,6.694,6.694,0,0,1,0-2l.2-1.7c.4-3.9-.2-8.5-1.4-10.1-1.8-2.4-4.9-1.9-7.5-2.1a4.758,4.758,0,0,0-3.3.5c-1.2.9-1.2,2.6-1.1,4.1.3,4.7.6,9.5,2.6,13.8a27.51,27.51,0,0,0,5.4,8,17.2,17.2,0,0,0,6.1,3.3,5.2,5.2,0,0,1,3.6,4.2,9.009,9.009,0,0,1-2.2,6.3c-1.5,1.6-1.9,6.1-1.1,10L366,725a34.071,34.071,0,0,1-.2,13.5,104.632,104.632,0,0,0-2.4,13.6L363,756a16.414,16.414,0,0,0,4.6,12.1l8.9,8.2a42.108,42.108,0,0,1,7.8,10,35.362,35.362,0,0,1,2.3,12.4v18.6c0,4-1.7,9.3-3.7,11.9a27.706,27.706,0,0,1-10.5,7l-.4.1c-3.6,1.2-7.2,1.9-10.6-.3a11.1,11.1,0,0,0-2.7-1.7,7.393,7.393,0,0,0-3.3-.2,7.8,7.8,0,0,0-2.2.4,2.4,2.4,0,0,0-1.5,1.6,2.813,2.813,0,0,0,.5,2.2c.6,1,1.1,2.1,1.8,3.1,1.6,2.6,3.7,5.1,4.8,5.6,3.6,1.8,2.4,8.2,5.3,10.6,1,.9,2.2,1.4,3.2,2.2a2.99,2.99,0,0,1,1.3,2.5,5.076,5.076,0,0,1-.9,1.8c-.9,1.3-1.6,3.5-.8,5,1.1,2.1,4.4,4.1,7.2,4.5a113.081,113.081,0,0,0,12.4.6h21.8a12.969,12.969,0,0,1,10.5,6.4l2.1,4.1c1.8,3.5,6.1,6.4,9.5,6.4s8.5-2.4,11.2-5.3l.4-.4a9.482,9.482,0,0,0,.9-11.2l-4.9-7.4a96.488,96.488,0,0,1-7-12.6l-5.7-13.1a26.749,26.749,0,0,1-1.5-13.7l2.4-11.6a53.758,53.758,0,0,1,5.1-13.3l6.7-11.6a50.005,50.005,0,0,0,4.9-11.7c.7-3,3.1-6.5,5.3-7.8a27.433,27.433,0,0,1,10.1-2.6,20.848,20.848,0,0,1,11.9,3.9l3.4,2.6c3.2,2.4,5.2,6.1,4.4,8.3-.7,2.2-2.1,7.1-3,11l-.5,2c-.9,3.9-4,7.3-6.8,7.6-2.9.3-5.9-.6-6.8-2.1-.9-1.4-2.2-3.9-3-5.4s-4.6-2.1-8.4-1.2c-3.9.9-7.6,2.3-8.2,3.2s-.5,3.1.4,4.8a13.894,13.894,0,0,0,4.4,4.9,8.628,8.628,0,0,0,5.7,1,13.951,13.951,0,0,1,5-.4c1.2.2,2,3.7,1.8,7.7l-.3,5.1a25.787,25.787,0,0,0,3.6,13.3l9.4,14.4a18.679,18.679,0,0,1,2.2,13.1l-2.2,8.8c-.4,1.8-.7,3.7-1.2,5.4-.9,2.9-2,5.2-1.5,8.4.3,2.2.7,4.1.2,6.3-.5,2-3.4,5.7-6.5,8.2-2.7,2.2-4.9,5.1-8.4,6.1-.7.2-1.5.4-2.2.6a2.942,2.942,0,0,0-1.6,1.5,4.2,4.2,0,0,0,.4,2.7c.9,2.2,2.5,4.8,1,7.2a12.129,12.129,0,0,0-1.1,3.2,10.355,10.355,0,0,1-1.7,3.3,2.155,2.155,0,0,0-.5,1.7c.3.8,1.3.9,2.1.9a11.14,11.14,0,0,0,6.9-2.8c1.7-1.4,4.1-2.8,5.2-4.9.8-1.5,4.5-4,8.2-5.4l14.4-5.6a70.267,70.267,0,0,0,12.6-6.9l3.1-2.3a41.829,41.829,0,0,0,9.4-10.3c2.1-3.5,3.1-6.8,6.5-9.2a41.233,41.233,0,0,0,6.9-5.6c1.3-1.4,2-3.1,3.3-4.5a2.384,2.384,0,0,0,.6-1.1c.1-.7-.5-1.3-.9-1.8-1.5-1.8-1.7-3.8-1.6-6s-.2-4.5-.1-6.8a.807.807,0,0,0-.3-.9.749.749,0,0,0-.5-.1h-2.8a7.106,7.106,0,0,1-2.1-.3c-2.4-1-3.1-5.5-2.4-7.7a29.52,29.52,0,0,1,7.8-11l3.6-3a13.509,13.509,0,0,1,12.3-2l5.7,2.2,1.8-2.7A16.279,16.279,0,0,0,551,821.4Z" fill="none" stroke="#dbcab9" stroke-width="0.277"/>
                <path id="パス_201" data-name="パス 201" d="M658,541.5a70.347,70.347,0,0,0-8,1.4l-6.1,1.7a33.373,33.373,0,0,0-7.2,3.3l-1.6,1.1a21.918,21.918,0,0,1-8.1,2.9l-6.2.7h-.7a8.769,8.769,0,0,1-6.8-3.6l-2.1-3.2a50.225,50.225,0,0,0-5.1-6.3l-1.7-1.7a6.525,6.525,0,0,0-5.7-1.3l-5.7,2.1a19.318,19.318,0,0,1-8.6.8l-14.9-2.3a5.1,5.1,0,0,0-4.9,2.5l-4,7.5a57.579,57.579,0,0,1-4.6,7.1l-8.7,11.2a33.976,33.976,0,0,0-4.1,6.9l-4.4,9.9a21.944,21.944,0,0,1-5.3,6.8l-14.3,11.6a7.941,7.941,0,0,0-2.5,5.8l1,13.8a7.285,7.285,0,0,0,3.4,5.1l5.4,2.8a13.837,13.837,0,0,1,5.8,6.4l3.1,7.8a7.33,7.33,0,0,1-2,7.9l-3.5,2.9a19.341,19.341,0,0,0-4.5,6.1l-.7,1.6a3.944,3.944,0,0,0,1.4,4.7l2.2,1.4a9.424,9.424,0,0,1,4,7.4v1.2a6.607,6.607,0,0,1-5,6.1l-7.6,1.4a11.212,11.212,0,0,0-5.8,3.7l-.8,1.1a9.335,9.335,0,0,1-7.6,3.5l-8.9-.9a6.15,6.15,0,0,0-5.3,2.6l-.8,1.2a8.482,8.482,0,0,1-7.5,3.6l-6.9-.7a19.187,19.187,0,0,0-7.5,1l-4.9,2,3.6,6.4c1.1,2,3,5.3,4.1,7.2l7.3,12.2a32.507,32.507,0,0,0,5,6.1l6.9,6.1a16.666,16.666,0,0,1,4.5,7.4l3,12.1a11.062,11.062,0,0,0,4,5.7l3.5,2.3a29.407,29.407,0,0,1,6.2,6l11.9,17.2a14.939,14.939,0,0,0,5.8,4.4l15.4,5.4a13.932,13.932,0,0,1,6.7,5.5l1.3,2.4a14.654,14.654,0,0,1,1.4,8.5l-1.3,6.9a18.772,18.772,0,0,1-3.7,7.8l-1.4,2.1.4.2a30.934,30.934,0,0,1,8.5,4.3c2.2,1.8,3.8,4.2,6.1,6l1.2,1c3.1,2.4,6.7,4,8,3.5a4.405,4.405,0,0,0,2.2-4,9.248,9.248,0,0,1,2.9-5.8,11.011,11.011,0,0,0,2.9-7.3,9.638,9.638,0,0,1,.9-4.7c.7-1.2,1.5-1.9,1-3.5-.3-1.1-1.1-2-1.1-3.1a7.788,7.788,0,0,1,.4-2.1,47,47,0,0,1,2.2-6.3c.7-1.2,1.4-2.5,2-3.7a62.85,62.85,0,0,1,4.8-7.8c2.2-3,3.9-7.5,3.9-10.1a45.163,45.163,0,0,1,2.4-11.6l4-11.6c.8-2,2.2-7.7.6-9.6-.5-.6-1.4-.7-2.1-1.1a6.075,6.075,0,0,1-1.6-1.6c-1.2-1.6-2.2-3-2.1-5a28.061,28.061,0,0,0,0-4.1,39.6,39.6,0,0,1,1.7-14.1,52.315,52.315,0,0,0,2.4-11.1c.2-1.7-.2-3.3.2-5,.5-1.9,1.5-3.5,2.1-5.4.6-1.8.6-3.5,1.3-5.2.9-2.5,2.4-4.5,3.1-7.1a44.439,44.439,0,0,1,2.1-7.1,42.908,42.908,0,0,0,2.4-10l.4-3a113.741,113.741,0,0,1,3.3-14l.2-.7a80.369,80.369,0,0,1,5.8-13.1l4.3-7.4c2-3.4,3.5-8.2,3.3-10.6a6.912,6.912,0,0,1,3.4-6.2c3.3-1.6,3.9-6.7,4-9.8a10.412,10.412,0,0,1,4.9-8.5,13.089,13.089,0,0,0,2.7-1.9,3.017,3.017,0,0,0,.9-3,4.3,4.3,0,0,0-2.1-1.9c-2.1-1.4-4.1-7.2-3.4-9.7.5-1.7,3.3-5.1,6.4-7.7l3.7-3.1c3-2.6,5.9-6,6.5-7.6.5-1.6,3.7-4.6,7.1-6.7l1.1-.7c3.4-2.1,5.8-5.2,5.4-7a5.993,5.993,0,0,1,2.1-5.5,13,13,0,0,0,3.8-5.2,15.057,15.057,0,0,1,1.1-2.2c-2.5-1.5-5.8-2.9-7-2.8Z" fill="none" stroke="#dbcab9" stroke-width="0.277"/>
                <path id="パス_202" data-name="パス 202" d="M699.4,506.1a64.55,64.55,0,0,1-8.6-2.4c-1.7-.7-4.7-2-6.7-1.4a6.9,6.9,0,0,1-3.5.3c-1.6-.7,1.5-3.2,1.6-3.9a1.6,1.6,0,0,0-.8-1.4c-.5-.2-1.1-.4-1.6-.6-2.4-1-2.1-2.7-1.5-4.6a38.573,38.573,0,0,0,1.1-6.8c.2-2,3.6-4.2,7.6-4.9,0,0,1.3-.2,1.6-.2a19.092,19.092,0,0,0,3.3-.6,4.552,4.552,0,0,0,2-.5,1.848,1.848,0,0,0,1.1-1.7.367.367,0,0,0-.1-.3.764.764,0,0,0-.5-.2,30.9,30.9,0,0,0-9.1.8,7.571,7.571,0,0,1-5.1-.7,13.175,13.175,0,0,0-5.5-1.4c-1.6,0-2.5-.8-1.9-1.8.7-1.1,1.7-2.2,2.3-3.3.5-.9.6-2,1.4-2.9.6-.6,1.3-1,1.9-1.6a.779.779,0,0,0,.3-.7c-.1-.3-.4-.4-.7-.5-1.9-.4-3.6,1.1-5.5.2-.4-.2-.7-.3-1.1-.5a4.418,4.418,0,0,0-2.5.4c-2.6.8-3.6-1.4-4.2-3.6a15.027,15.027,0,0,1,.8-7.3,26.409,26.409,0,0,1,5.5-8.1c2.2-2.1,3.3-4.7,2.7-5.6a11.055,11.055,0,0,0-4.3-2.8,12.109,12.109,0,0,0-6.8.4c-2.1.8-6.9,1.1-10.7.7s-9.2-1.2-12-1.8a46.124,46.124,0,0,0-12.3-.4l-2.2.2a26.441,26.441,0,0,1-12.7-2.1c-3-1.6-5.5-6-5.5-9.8s.7-8.2,1.5-9.6,3.5-2.4,6-2.1a25.8,25.8,0,0,0,6.8,0,27.632,27.632,0,0,0,6.1-3.3c2.1-1.5,3.7-3.3,3.6-4.1a6.761,6.761,0,0,0-2.6-3.2c-1.2-.9-1-2.1.5-2.5,2.2-.6,4.5-.1,6.8-.2,2.7-.1,3.8-1.3,5.4-3.2a25.013,25.013,0,0,0,4.4-12.1l.2-2.6c.3-4,.7-9.6,1-12.5s-1.4-7.9-3.8-11.1l-3.6-4.9c-2.1-2.9-3.5-5-4-8.5a3.022,3.022,0,0,0-.5-1.6c-.6-.7-1.6-.6-2.5-.6-3.1.2-5.7-1.1-8.6-2a4.871,4.871,0,0,0-4.4.4c-.8.7-1.4,1.8-2.4,2.1a4.3,4.3,0,0,1-2.7-.8,7.851,7.851,0,0,0-7.3,0c-3.2,1.7-4.5,5.7-5.5,8.9a26.367,26.367,0,0,1-6.9,10.5c-2.6,2.1-7.9,3.6-11.9,3.3l-13.9-.8a34.093,34.093,0,0,1-12.5-3.3,59.679,59.679,0,0,0-9-3.9l-3.6,5.9a10.611,10.611,0,0,0-.8,6.8l2.6,9.5a6.717,6.717,0,0,1-2.5,7.2,12.3,12.3,0,0,1-8,1.2l-4.4-.9a57.829,57.829,0,0,1-8.1-2.4,8.387,8.387,0,0,0-6.4.5l-4.2,2.4c-2,1.1-5.2,3-7.1,4.3l-4.4,2.8a9.409,9.409,0,0,0-3.6,5.5v.2a20.728,20.728,0,0,1-3.2,8l-1.1,1.5a15.558,15.558,0,0,0-2.5,6.9l-1,16.4a31.579,31.579,0,0,1-1.7,8.1,6.9,6.9,0,0,0-.1,4.7c1,1.6,1.3,4.8,1,7l-1.6,12.7a10.059,10.059,0,0,0,1.8,6.5h0l.9,1.2,8.7,10.9A9.49,9.49,0,0,0,504,487l11.1.6a2.233,2.233,0,0,0,2.5-1.9V485l-.6-5a11.9,11.9,0,0,0-3.2-6.3l-3.3-3.1a7.893,7.893,0,0,1-1.9-8l1.2-3.2a9.79,9.79,0,0,1,6.4-5.5l2.5-.5a10.493,10.493,0,0,1,8.2,2.1l2.1,1.8a11.338,11.338,0,0,0,6.6,2.4h7.3a4.823,4.823,0,0,1,4.9,4.8v.6l-1,9.6a9.337,9.337,0,0,0,2.1,6.4l11.8,13.3a9.351,9.351,0,0,1,1.9,8.2l-1.5,5.4a8.467,8.467,0,0,0,1.1,6.4l4.3,6a31.056,31.056,0,0,1,3.7,7.8l1.9,6.8,13,2.1a19.008,19.008,0,0,0,7.5-.7l5.7-2.1a8.305,8.305,0,0,1,8.1,1.8l1.7,1.7a43.991,43.991,0,0,1,5.4,6.7l2.1,3.2a6.066,6.066,0,0,0,5.3,2.5l6.2-.7a20.274,20.274,0,0,0,7.1-2.6l1.6-1.1a36.813,36.813,0,0,1,7.8-3.6l6.1-1.7a61.7,61.7,0,0,1,8.4-1.5l11.1-.9c1.8-.1,5.7,1.4,8.6,3.2a6.035,6.035,0,0,1,.8-.8,9.7,9.7,0,0,1,4.8-2,11.179,11.179,0,0,0,5-1.8,29.093,29.093,0,0,1,4.2-2.5,9.469,9.469,0,0,0,3.3-3.6c.9-1.7.6-3.3-.7-3.7a7.386,7.386,0,0,0-3.6-.3c-.7.2-1.3-.6-1.5-1.8a8.042,8.042,0,0,1,1.8-4.7,13.807,13.807,0,0,0,2.4-5.4c.4-3.2,3.1-5,5.7-6.3a1.721,1.721,0,0,0,1.1-1.1C700.9,506.6,700.1,506.3,699.4,506.1Z" fill="none" stroke="#dbcab9" stroke-width="0.277"/>
                <path id="パス_203" data-name="パス 203" d="M343.2,499.8l-.1-.1a12.62,12.62,0,0,0-5.8-4.1l-3.1-.9a14.219,14.219,0,0,1-7-5.1l-3.4-5.2a37.344,37.344,0,0,0-5.2-6l-.5-.4a5.039,5.039,0,0,1-1.8-3.6,4.89,4.89,0,0,1,1.4-3.8l1.3-1.4a2.569,2.569,0,0,0-.1-3.7c-.1-.1-.2-.1-.2-.2l-3.5-2.8a22.219,22.219,0,0,0-6.9-3.4l-5.1-1.3a14.743,14.743,0,0,1-7.1-4.9l-1.7-2.5a29.03,29.03,0,0,1-3.6-7.8l-.7-2.4c-.6-2.2-1.4-6-1.8-8.3l-2.8-17.5a7.3,7.3,0,0,0-3-1.6,11.674,11.674,0,0,0-6.1,1.4,5.483,5.483,0,0,1-6-.7c-1.6-1.4-3.8-2.6-4.9-2.6-2,0-4.1.6-6.1.3-2.3-.3-4.5-1.9-6.8-1.3a3,3,0,0,0-.8.4c-.9.7-.8,2.2-.4,3.3a42.737,42.737,0,0,1,1.3,4.8l.2.9a19.511,19.511,0,0,1-2,13.2l-2.2,3.6c-2.1,3.4-1.7,7.2.7,8.3,2.4,1.2,6.4,3.2,8.8,4.5s4.6,3.2,4.8,4.2a16.58,16.58,0,0,0,3.4,4.9c1,1,2.9,3.1,1.8,4.6a3.269,3.269,0,0,1-1.5,1.1,8.424,8.424,0,0,1-3.5.7c-.4.3-.2,1,.2,1.3a3.194,3.194,0,0,0,1.4.3c3-.1,5.8.2,8.3-1.8a7.464,7.464,0,0,1,5.4-1.5,4.412,4.412,0,0,1,3.1,3.8c.3,3-1.8,5.1-1.6,8a3.924,3.924,0,0,0,2.1,3.5,1.486,1.486,0,0,0,.9.2,2.389,2.389,0,0,0,1.3-.7c3.3-2.3,7.7-.6,11,.9a15.973,15.973,0,0,0,7.8,1.1c2.3-.4,6.1,1.1,8.4,3.3a19.519,19.519,0,0,1,5,10.4,64.218,64.218,0,0,1,0,12.4,16.012,16.012,0,0,0,2.9,10.4c2,2.4,3.1,5.1,2.5,6s-2.8.9-4.8,0a15.4,15.4,0,0,0-6-1.3,13.6,13.6,0,0,0-5.3,2.5c-1.6,1.2-5.5,1.1-8.5-.2-3.1-1.3-5.5-5.5-5.5-9.3a51.723,51.723,0,0,1,1.1-10.4A31.158,31.158,0,0,0,294,498a5.887,5.887,0,0,0-1-3.4,6.444,6.444,0,0,0-4.2-1.8c-1.8-.2-3.8,1-5.5.1a4.889,4.889,0,0,1-2.3-2.4c-1.3-2.4.1-5.4-1.1-8-1.1-2.3-3.3-3.5-5-5.4a29.767,29.767,0,0,0-3.6-3.5,5.64,5.64,0,0,0-2-1.1,2.026,2.026,0,0,0-2.1.6,3.957,3.957,0,0,0-.5,2.6c0,3.8-1.4,5.5-3.7,8.4a4.053,4.053,0,0,0-.5.9,2.768,2.768,0,0,0-.1.9c0,2,.7,3.9.8,5.8s-1.3,3.3-3,4.2a4.248,4.248,0,0,0-2.1,1.6,3.553,3.553,0,0,0-.2,1c0,3.8,3.2,8.6,5.8,11.3,1.8,1.9,4.1,6.6,5.2,10.4l.3,1.1c1,3.8,2.1,8.3,2.3,10s3.3,2.7,6.9,2.4,8,2.3,10,5.8c2,3.6,4.4,8.2,5.5,10.5,1.6,3.3,2.3,6.3.7,9.8-.6,1.4-1.7,2.5-2.3,3.8a41.068,41.068,0,0,0-1.5,4.6c-.6,2.2-1.6,5.4.1,7.4a4.268,4.268,0,0,0,3.5,1.4c2.9-.1,4.8-2.9,6.5-5l15.9-19.4a37.572,37.572,0,0,1,11.1-8.7l4.7-2.2a39.04,39.04,0,0,1,13.9-3.1h4.3c4,0,8.9,2.5,10.9,5.4s1.6,7.8-.9,10.9c-.9,1.1-1.9,2.2-2.7,3.3-1.2,1.6-3.5,2.7-4.4,4.4a4.333,4.333,0,0,0-.4,1.9,13.763,13.763,0,0,0,5.3,11.5c2.9,2.5,6.9,3.9,8.8,3.1,5.1-2.1,6.7-8,11.5-9.9a10.136,10.136,0,0,0,4.4-2.5c.6-.8.9-1.8,1.5-2.6.8-1,1.8-1.9,2.6-3l4.4-6.1c2.3-3.2,4.1-7.8,3.8-10a36.331,36.331,0,0,0-3.8-10.6l-3.7-7.1c-1.9-3.5-6.2-6.5-9.6-6.6a28.96,28.96,0,0,0-12.5,3.5l-3,1.7a5.28,5.28,0,0,1-7.3-1.4,4.958,4.958,0,0,1-.8-2l-.5-1.7a11.207,11.207,0,0,1,4-11.2l3.8-2.8a6.279,6.279,0,0,0,1.2-1.1l-12.9-1.5A12.346,12.346,0,0,1,343.2,499.8Z" fill="none" stroke="#dbcab9" stroke-width="0.277"/>
                <path id="パス_204" data-name="パス 204" d="M407.8,689.7l.7.2a16.466,16.466,0,0,0,7.3.5l7-1.6a14.5,14.5,0,0,0,6.2-3.7l3.3-3.8a8.763,8.763,0,0,1,8-2.5l5,1.2a16.474,16.474,0,0,1,7.4,4.4l3.7,4.2a41.949,41.949,0,0,1,4.9,7l-1,.6h0l1-.6,1.3,2.4,5.2-2.1a20.894,20.894,0,0,1,8.6-1.2l6.9.8a6.15,6.15,0,0,0,5.3-2.6l.8-1.2a8.482,8.482,0,0,1,7.5-3.6l8.9.9a6.829,6.829,0,0,0,5.5-2.5l.8-1.1a12.715,12.715,0,0,1,7.2-4.6l7.6-1.4a4.149,4.149,0,0,0,3.2-3.8v-1.2a7.472,7.472,0,0,0-3-5.5l-2.2-1.4a6.319,6.319,0,0,1-2.3-7.5l.7-1.6a20.627,20.627,0,0,1,5.2-6.9l3.5-2.9a5.032,5.032,0,0,0,1.3-5.2l-3.1-7.8a11.859,11.859,0,0,0-4.7-5.2l-5.4-2.8a9.2,9.2,0,0,1-4.6-7l-1-13.8a10,10,0,0,1,3.3-7.8l14.3-11.6a19.241,19.241,0,0,0,4.6-6l4.4-9.9a41.641,41.641,0,0,1,4.4-7.3l8.7-11.2a60.735,60.735,0,0,0,4.4-6.8l4-7.5a7.352,7.352,0,0,1,6.7-3.7l-1.6-5.9a30.6,30.6,0,0,0-3.3-7.1l-4.3-6a10.793,10.793,0,0,1-1.4-8.4l1.5-5.4a7.572,7.572,0,0,0-1.4-6L546.9,483a11.46,11.46,0,0,1-2.6-8.1l1-9.6a2.441,2.441,0,0,0-2.6-2.8h-7.3a14.135,14.135,0,0,1-8.1-3l-2.1-1.8a8.6,8.6,0,0,0-6.2-1.6l-2.5.5a7.378,7.378,0,0,0-4.7,4.1l-1.2,3.2a5.6,5.6,0,0,0,1.3,5.5l3.4,3.1a14.218,14.218,0,0,1,3.9,7.7l.6,5a4.605,4.605,0,0,1-3.9,5.2,3.352,3.352,0,0,1-1,0l-11.1-.7a11.732,11.732,0,0,1-7.6-3.9l-8.1-10.2-8.9-.3a12.738,12.738,0,0,1-7.8-3.5l-1.5-1.6a10.294,10.294,0,0,0-6.2-2.7h-5.8a5.892,5.892,0,0,0-4.8,3.1l-.5,1.1a6.933,6.933,0,0,1-7,3.9l-2.4-.3a13.173,13.173,0,0,0-7,1.4l-7.8,4.5a10.521,10.521,0,0,0-4.2,5.5l-1.2,4.2a5.884,5.884,0,0,1-5.5,4.2,3.4,3.4,0,0,1-1-.1l-12.8-2.3a10.766,10.766,0,0,1,1.8,2.4,26.805,26.805,0,0,1,3,7.7c.7,3.2,2.8,6.9,4.6,8.1a58.263,58.263,0,0,1,8,7.7l3.8,4.4a47.833,47.833,0,0,0,9.9,8.6c2.8,1.7,5,6.4,4.9,10.3l-.1,2.7a24.91,24.91,0,0,1-4.9,12.8l-3.3,4c-2.6,3-6.6,5.9-8.9,6.4-5.4,1.1-8.7,7.4-14.3,7.6a16.156,16.156,0,0,0-2.2,0,2.883,2.883,0,0,0-2,.7c-1,.9-.7,2.1-.7,3.2a60.964,60.964,0,0,0,.2,7.4,1.854,1.854,0,0,0,.2.7.775.775,0,0,0,1,.2,5.5,5.5,0,0,0,.9-.7c2.6-2.7,6.4-6.1,10.3-6.9a31.609,31.609,0,0,0,7.2-2.8c2.1-1.2,7.1-2.4,11-2.7l2.4-.2c4-.3,6.5.2,5.6,1.1a59.183,59.183,0,0,0-5.1,7.9l-2,3.5c-1,1.7-2.1,3.2-3.2,4.8a12.737,12.737,0,0,0-2,3.6c-.4,1.4,0,2.5.1,3.9a12.414,12.414,0,0,1-.3,2.7c-.2.7-.2,1.7.4,2.1a1.376,1.376,0,0,0,1.1.1l2.4-.2a3.376,3.376,0,0,1,2,.2c2.3,1.1.4,5-.5,6.3l-13.9,22c-2.8,4.4-4.6,10.2-8.5,13.8-.7.7-1.6,1.2-2.2,1.9-2.5,2.5-2.9,7-3.4,10.3a14.7,14.7,0,0,1-5.5,8.4,26.157,26.157,0,0,0-7.3,9.2,6.251,6.251,0,0,1-1.3,2l8.4,7.7A21.044,21.044,0,0,0,407.8,689.7Z" fill="none" stroke="#dbcab9" stroke-width="0.277"/>
                <path id="パス_205" data-name="パス 205" d="M398.7,446.5c1.6-1.7,4.1-4.4,5.6-6.2l8-8.9A31.754,31.754,0,0,1,419,426l7.5-4.2a5.694,5.694,0,0,0,2.6-5.1l-.6-5.3a26.566,26.566,0,0,0-2.3-7.4l-1.3-2.5c-.9-1.7-2.7-2.5-3.7-2.1a6.119,6.119,0,0,0-3.4,3.3c-.7,2-3.3,4.1-6,4.6l-.5.1c-2.6.6-5.9-.2-7.4-1.6a14.576,14.576,0,0,0-5.2-2.8,17.612,17.612,0,0,1-6.9-4.2l-.9-1a13.135,13.135,0,0,0-6.4-3.3l-8.4-1.3a15.11,15.11,0,0,0-7.3,1l-1.3.6a20.642,20.642,0,0,1-8.5,1.5l-12-.8a11,11,0,0,1-7.4-4.2l-3.5-4.9c-3.2,7.8-17.1,9.4-18.5-.6l-.4-3c-.6-3.9-2.8-8.2-4.9-9.5s-5.4-1.9-7.3-1.3c-3.3,1-4.1,3.7-6.2,6a10.1,10.1,0,0,0-1.3,1.6c-1,1.9,4.8,8.4,1.3,9.6a4.812,4.812,0,0,1-2.9-.4l-2.6-1c-.9-.4-2.2-.7-2.8.2a2.118,2.118,0,0,0,0,1.9,77.519,77.519,0,0,1,2.7,10.8c.4,1.9.7,3.8,1.1,5.8.2,1.2.2,3.5,1.6,4.2,1.3.6,4.8-1.9,4.8,1,0,1.3-2,4.2-4.4,6.4s-5.9,2-7.6-.4c-.1-.1-.2-.3-.3-.4l2.3,14.3c.4,2.2,1.2,5.8,1.8,8l.7,2.4a30.6,30.6,0,0,0,3.3,7.1l1.7,2.5a11.934,11.934,0,0,0,5.7,4l5.1,1.3a25.679,25.679,0,0,1,7.8,3.8l3.5,2.8a5.051,5.051,0,0,1,.9,7c-.1.1-.2.3-.3.4l-1.3,1.4a2.959,2.959,0,0,0,.1,4.1l.1.1.5.4a34.927,34.927,0,0,1,5.6,6.5l3.4,5.2a11.239,11.239,0,0,0,5.7,4.1l3.1.9a14.933,14.933,0,0,1,7.1,5l.1.2a8.829,8.829,0,0,0,5.7,3.3l14.6,1.7c.3-.3.7-.6,1-.9a11.988,11.988,0,0,0,1.2-1.1,1.971,1.971,0,0,0,.3-1.5,3.591,3.591,0,0,0-.7-1c-4.1-4-6.4-10.1-9.1-15.2l-5.2-9.6a7.8,7.8,0,0,1,2.7-10.2l12.6-7.8c3.4-2.1,7.7-1.9,9.5.4,1.6,2,5.3,3.6,8.9,3.9a40.718,40.718,0,0,1,3.3-4.8Z" fill="none" stroke="#dbcab9" stroke-width="0.277"/>
                <path id="パス_206" data-name="パス 206" d="M420.8,490.1l1.2-4.2a13.079,13.079,0,0,1,5.2-6.8l7.8-4.5a14.677,14.677,0,0,1,8.5-1.7l2.4.3a4.585,4.585,0,0,0,4.6-2.6l.5-1.1a7.864,7.864,0,0,1,6.9-4.5h5.8a12.059,12.059,0,0,1,7.9,3.4l1.5,1.6a10.425,10.425,0,0,0,6.3,2.8l6.9.2a12.705,12.705,0,0,1-2-7.8l1.6-12.7a10.448,10.448,0,0,0-.6-5.5c-1.1-1.7-.9-4.7-.1-6.7a31.189,31.189,0,0,0,1.5-7.5l1-16.4a17.009,17.009,0,0,1,3-8.1l1.1-1.5a17.793,17.793,0,0,0,2.8-7v-.2a11.25,11.25,0,0,1,4.6-7.2l4.4-2.8c2-1.2,5.2-3.2,7.2-4.3l4.2-2.4a11.151,11.151,0,0,1,8.4-.6,52.336,52.336,0,0,0,7.7,2.3l4.4.9a9.9,9.9,0,0,0,6.3-.9,4.632,4.632,0,0,0,1.5-4.7l-2.5-9.5a13.1,13.1,0,0,1,1.1-8.5l3.3-5.5a80.388,80.388,0,0,0-10.9-2c-3.4-.4-7.9-3.5-9.9-7l-6.7-11.3a37.77,37.77,0,0,1-4.4-13.4l-.2-2.5c-.4-4-1.7-8.5-2.9-10.1s-1.5-5.2-.6-8.1a94.82,94.82,0,0,1,4.8-11.4c1.8-3.3,2.3-7,1.3-8a7.094,7.094,0,0,0-4.2-1.9c-1.3,0-4.4,2.1-7.1,4.7a45.23,45.23,0,0,1-7.2,5.9,22.751,22.751,0,0,1-6.8,1.3,11.425,11.425,0,0,1-7.5-2.8c-2-1.9-2.2-6.7-5.1-7.2a10.122,10.122,0,0,0-3,.2c-3.8.8-8,1.1-11.6,2.6a18.2,18.2,0,0,1-6.1.7c-2.2-.1-5.8,2.4-8.1,5.6l-.3.4a15.119,15.119,0,0,1-11.4,5.7l-5-.1c-8.2-.2-17,10.7-17,18.5v.6a94.516,94.516,0,0,0-.1,11.9c.2,2.6-1.8,6.2-4.6,8a36.249,36.249,0,0,0-8.8,9.5l-4.3,6.9a16.1,16.1,0,0,1-11,6.7l-.8.1a16.59,16.59,0,0,1-12.1-4.8l-.2-.3a7.255,7.255,0,0,0-10.2-.5c-3.5,3.1-6.9,4.8-11.1,7.1-1.1.6-2.3,1.4-2.5,2.6-.3,1.8,1.6,3.1,3.2,3.9,1.7.8,3.6,1.8,3.6,3.7,0,5.4-9.7,7.3-13.4,7.2-1.4,0-3-.2-4.1.6-1.2.8-1.5,2.3-1.8,3.8l4.6,6.4a8.473,8.473,0,0,0,5.7,3.2l12,.8a18.647,18.647,0,0,0,7.4-1.3l1.3-.6a16.842,16.842,0,0,1,8.6-1.1l8.4,1.3a16.329,16.329,0,0,1,7.7,4l.9,1a14.359,14.359,0,0,0,5.8,3.5,16.167,16.167,0,0,1,6.2,3.3,6.752,6.752,0,0,0,5.3,1.1l.5-.1a6.356,6.356,0,0,0,4.3-3.2,8.4,8.4,0,0,1,4.9-4.7c2.2-.7,5.1.7,6.4,3.2l1.3,2.5a30.125,30.125,0,0,1,2.6,8.2l.6,5.3a7.812,7.812,0,0,1-3.7,7.3l-7.5,4.2a29.162,29.162,0,0,0-6.1,4.9l-8,8.9c-1.5,1.7-4.1,4.5-5.6,6.2l-8.9,9.5a37.115,37.115,0,0,0-2.3,3.2l1.7-.1a11.971,11.971,0,0,1,10.3,6.3l.6,1.3a24.024,24.024,0,0,1,1.9,8c.3,2.8-1.1,5.1-2.5,7.4a5.035,5.035,0,0,0-1.1,2.6,5.421,5.421,0,0,0,.6,2.5,4.13,4.13,0,0,0,.7,1.1l15.5,2.8C418.6,492.7,420.2,491.7,420.8,490.1Z" fill="none" stroke="#dbcab9" stroke-width="0.277"/>
                <path id="パス_207" data-name="パス 207" d="M355.5,645.5l.4-1.8a8.171,8.171,0,0,1,5-5.4l1.4-.4a8.311,8.311,0,0,0,5.2-5.3c.8-3.1,1.1-6.9,2.9-9.5.3-.4.8-.9,1.2-.7,1.1.5-.2,2.4.4,3.1a1.374,1.374,0,0,0,1.8.1,19.2,19.2,0,0,0,1.4-1.5,12.01,12.01,0,0,1,9.8-3.5,24.823,24.823,0,0,1,5.4,1.2,14.435,14.435,0,0,0,7.1,1.2c4.9-.6,6.2-5.5,8-9.4,1.4-3.1,2.9-6.2,4.3-9.3a4.519,4.519,0,0,0-1.9-5.8,10.5,10.5,0,0,0-7.6-.4l-30.4,12.3a3.248,3.248,0,0,1-4.4-1.6,1.929,1.929,0,0,1-.3-1l-.9-4.9a42.22,42.22,0,0,1-.7-6.1c-.1-1.5.1-4.4-.8-5.5a2.469,2.469,0,0,0-1.6-.8,5.662,5.662,0,0,0-1.8.3c-1.8.6-3.3,1.5-5.2,2.2l-5.5,1.9-6.5,2.2a10.2,10.2,0,0,0-5.5,5.3l-4.1,10.5-3.3,8.5a82.856,82.856,0,0,1-3.1,8.3,9.128,9.128,0,0,1-.8,1.3c-.8,1.1-1.8,2.2-1.8,3.6s1.2,2.7,2,4c1.1,1.9,1.1,3.7,1.1,5.8l-1.6,10.7c-.5,3.7.4,8.2,3.2,10.8a4.372,4.372,0,0,0,2.4,1.3,4.306,4.306,0,0,0,2.2-.4c2.7-1.1,4.4-3.6,6.7-5.4,1.4-1.1,2.9-2.2,4.3-3.3l7.8-5.8A17.41,17.41,0,0,0,355.5,645.5Z" fill="none" stroke="#dbcab9" stroke-width="0.277"/>
                <path id="パス_208" data-name="パス 208" d="M551,821.4l1.2-6.9a12.158,12.158,0,0,0-1.2-7l-1.3-2.4a11.855,11.855,0,0,0-5.4-4.5l-15.4-5.4A16.87,16.87,0,0,1,522,790l-11.9-17.1a25.586,25.586,0,0,0-5.5-5.4l-3.5-2.3a13.611,13.611,0,0,1-5-7l-3-12a15.119,15.119,0,0,0-3.7-6.2l-6.9-6.1a32.216,32.216,0,0,1-5.5-6.7L469.7,715c-1.2-2-3.1-5.2-4.2-7.3l-6-10.9h0a48.829,48.829,0,0,0-4.6-6.6l-3.7-4.2a14.113,14.113,0,0,0-6.2-3.7l-5.1-1.2a6.634,6.634,0,0,0-5.7,1.8l-3.4,3.8a15.627,15.627,0,0,1-7.4,4.4l-7,1.6a17.889,17.889,0,0,1-8.6-.5l-.7-.3a23.152,23.152,0,0,1-7.3-4.6l-8.4-7.8a13.571,13.571,0,0,1-6.8,3.3L368.9,685a5.449,5.449,0,0,1-6.4-4.2,6.694,6.694,0,0,1,0-2l.2-1.7c.4-3.9-.2-8.5-1.4-10.1-1.8-2.4-4.9-1.9-7.5-2.1a4.758,4.758,0,0,0-3.3.5c-1.2.9-1.2,2.6-1.1,4.1.3,4.7.6,9.5,2.6,13.8a27.51,27.51,0,0,0,5.4,8,17.2,17.2,0,0,0,6.1,3.3,5.2,5.2,0,0,1,3.6,4.2,9.009,9.009,0,0,1-2.2,6.3c-1.5,1.6-1.9,6.1-1.1,10L366,725a34.071,34.071,0,0,1-.2,13.5,104.632,104.632,0,0,0-2.4,13.6L363,756a16.414,16.414,0,0,0,4.6,12.1l8.9,8.2a42.108,42.108,0,0,1,7.8,10,35.362,35.362,0,0,1,2.3,12.4v18.6c0,4-1.7,9.3-3.7,11.9a27.706,27.706,0,0,1-10.5,7l-.4.1c-3.6,1.2-7.2,1.9-10.6-.3a11.1,11.1,0,0,0-2.7-1.7,7.393,7.393,0,0,0-3.3-.2,7.8,7.8,0,0,0-2.2.4,2.4,2.4,0,0,0-1.5,1.6,2.813,2.813,0,0,0,.5,2.2c.6,1,1.1,2.1,1.8,3.1,1.6,2.6,3.7,5.1,4.8,5.6,3.6,1.8,2.4,8.2,5.3,10.6,1,.9,2.2,1.4,3.2,2.2a2.99,2.99,0,0,1,1.3,2.5,5.076,5.076,0,0,1-.9,1.8c-.9,1.3-1.6,3.5-.8,5,1.1,2.1,4.4,4.1,7.2,4.5a113.081,113.081,0,0,0,12.4.6h21.8a12.969,12.969,0,0,1,10.5,6.4l2.1,4.1c1.8,3.5,6.1,6.4,9.5,6.4s8.5-2.4,11.2-5.3l.4-.4a9.482,9.482,0,0,0,.9-11.2l-4.9-7.4a96.488,96.488,0,0,1-7-12.6l-5.7-13.1a26.749,26.749,0,0,1-1.5-13.7l2.4-11.6a53.758,53.758,0,0,1,5.1-13.3l6.7-11.6a50.005,50.005,0,0,0,4.9-11.7c.7-3,3.1-6.5,5.3-7.8a27.433,27.433,0,0,1,10.1-2.6,20.848,20.848,0,0,1,11.9,3.9l3.4,2.6c3.2,2.4,5.2,6.1,4.4,8.3-.7,2.2-2.1,7.1-3,11l-.5,2c-.9,3.9-4,7.3-6.8,7.6-2.9.3-5.9-.6-6.8-2.1-.9-1.4-2.2-3.9-3-5.4s-4.6-2.1-8.4-1.2c-3.9.9-7.6,2.3-8.2,3.2s-.5,3.1.4,4.8a13.894,13.894,0,0,0,4.4,4.9,8.628,8.628,0,0,0,5.7,1,13.951,13.951,0,0,1,5-.4c1.2.2,2,3.7,1.8,7.7l-.3,5.1a25.787,25.787,0,0,0,3.6,13.3l9.4,14.4a18.679,18.679,0,0,1,2.2,13.1l-2.2,8.8c-.4,1.8-.7,3.7-1.2,5.4-.9,2.9-2,5.2-1.5,8.4.3,2.2.7,4.1.2,6.3-.5,2-3.4,5.7-6.5,8.2-2.7,2.2-4.9,5.1-8.4,6.1-.7.2-1.5.4-2.2.6a2.942,2.942,0,0,0-1.6,1.5,4.2,4.2,0,0,0,.4,2.7c.9,2.2,2.5,4.8,1,7.2a12.129,12.129,0,0,0-1.1,3.2,10.355,10.355,0,0,1-1.7,3.3,2.155,2.155,0,0,0-.5,1.7c.3.8,1.3.9,2.1.9a11.14,11.14,0,0,0,6.9-2.8c1.7-1.4,4.1-2.8,5.2-4.9.8-1.5,4.5-4,8.2-5.4l14.4-5.6a70.267,70.267,0,0,0,12.6-6.9l3.1-2.3a41.829,41.829,0,0,0,9.4-10.3c2.1-3.5,3.1-6.8,6.5-9.2a41.233,41.233,0,0,0,6.9-5.6c1.3-1.4,2-3.1,3.3-4.5a2.384,2.384,0,0,0,.6-1.1c.1-.7-.5-1.3-.9-1.8-1.5-1.8-1.7-3.8-1.6-6s-.2-4.5-.1-6.8a.807.807,0,0,0-.3-.9.749.749,0,0,0-.5-.1h-2.8a7.106,7.106,0,0,1-2.1-.3c-2.4-1-3.1-5.5-2.4-7.7a29.52,29.52,0,0,1,7.8-11l3.6-3a13.509,13.509,0,0,1,12.3-2l5.7,2.2,1.8-2.7A16.279,16.279,0,0,0,551,821.4Z" fill="none" stroke="#dbcab9" stroke-width="0.277"/>
                <path id="パス_209" data-name="パス 209" d="M658,541.5a70.347,70.347,0,0,0-8,1.4l-6.1,1.7a33.373,33.373,0,0,0-7.2,3.3l-1.6,1.1a21.918,21.918,0,0,1-8.1,2.9l-6.2.7h-.7a8.769,8.769,0,0,1-6.8-3.6l-2.1-3.2a50.225,50.225,0,0,0-5.1-6.3l-1.7-1.7a6.525,6.525,0,0,0-5.7-1.3l-5.7,2.1a19.318,19.318,0,0,1-8.6.8l-14.9-2.3a5.1,5.1,0,0,0-4.9,2.5l-4,7.5a57.579,57.579,0,0,1-4.6,7.1l-8.7,11.2a33.976,33.976,0,0,0-4.1,6.9l-4.4,9.9a21.944,21.944,0,0,1-5.3,6.8l-14.3,11.6a7.941,7.941,0,0,0-2.5,5.8l1,13.8a7.285,7.285,0,0,0,3.4,5.1l5.4,2.8a13.837,13.837,0,0,1,5.8,6.4l3.1,7.8a7.33,7.33,0,0,1-2,7.9l-3.5,2.9a19.341,19.341,0,0,0-4.5,6.1l-.7,1.6a3.944,3.944,0,0,0,1.4,4.7l2.2,1.4a9.424,9.424,0,0,1,4,7.4v1.2a6.607,6.607,0,0,1-5,6.1l-7.6,1.4a11.212,11.212,0,0,0-5.8,3.7l-.8,1.1a9.335,9.335,0,0,1-7.6,3.5l-8.9-.9a6.15,6.15,0,0,0-5.3,2.6l-.8,1.2a8.482,8.482,0,0,1-7.5,3.6l-6.9-.7a19.187,19.187,0,0,0-7.5,1l-4.9,2,3.6,6.4c1.1,2,3,5.3,4.1,7.2l7.3,12.2a32.507,32.507,0,0,0,5,6.1l6.9,6.1a16.666,16.666,0,0,1,4.5,7.4l3,12.1a11.062,11.062,0,0,0,4,5.7l3.5,2.3a29.407,29.407,0,0,1,6.2,6l11.9,17.2a14.939,14.939,0,0,0,5.8,4.4l15.4,5.4a13.932,13.932,0,0,1,6.7,5.5l1.3,2.4a14.654,14.654,0,0,1,1.4,8.5l-1.3,6.9a18.772,18.772,0,0,1-3.7,7.8l-1.4,2.1.4.2a30.934,30.934,0,0,1,8.5,4.3c2.2,1.8,3.8,4.2,6.1,6l1.2,1c3.1,2.4,6.7,4,8,3.5a4.405,4.405,0,0,0,2.2-4,9.248,9.248,0,0,1,2.9-5.8,11.011,11.011,0,0,0,2.9-7.3,9.638,9.638,0,0,1,.9-4.7c.7-1.2,1.5-1.9,1-3.5-.3-1.1-1.1-2-1.1-3.1a7.788,7.788,0,0,1,.4-2.1,47,47,0,0,1,2.2-6.3c.7-1.2,1.4-2.5,2-3.7a62.85,62.85,0,0,1,4.8-7.8c2.2-3,3.9-7.5,3.9-10.1a45.163,45.163,0,0,1,2.4-11.6l4-11.6c.8-2,2.2-7.7.6-9.6-.5-.6-1.4-.7-2.1-1.1a6.075,6.075,0,0,1-1.6-1.6c-1.2-1.6-2.2-3-2.1-5a28.061,28.061,0,0,0,0-4.1,39.6,39.6,0,0,1,1.7-14.1,52.315,52.315,0,0,0,2.4-11.1c.2-1.7-.2-3.3.2-5,.5-1.9,1.5-3.5,2.1-5.4.6-1.8.6-3.5,1.3-5.2.9-2.5,2.4-4.5,3.1-7.1a44.439,44.439,0,0,1,2.1-7.1,42.908,42.908,0,0,0,2.4-10l.4-3a113.741,113.741,0,0,1,3.3-14l.2-.7a80.369,80.369,0,0,1,5.8-13.1l4.3-7.4c2-3.4,3.5-8.2,3.3-10.6a6.912,6.912,0,0,1,3.4-6.2c3.3-1.6,3.9-6.7,4-9.8a10.412,10.412,0,0,1,4.9-8.5,13.089,13.089,0,0,0,2.7-1.9,3.017,3.017,0,0,0,.9-3,4.3,4.3,0,0,0-2.1-1.9c-2.1-1.4-4.1-7.2-3.4-9.7.5-1.7,3.3-5.1,6.4-7.7l3.7-3.1c3-2.6,5.9-6,6.5-7.6.5-1.6,3.7-4.6,7.1-6.7l1.1-.7c3.4-2.1,5.8-5.2,5.4-7a5.993,5.993,0,0,1,2.1-5.5,13,13,0,0,0,3.8-5.2,15.057,15.057,0,0,1,1.1-2.2c-2.5-1.5-5.8-2.9-7-2.8Z" fill="none" stroke="#dbcab9" stroke-width="0.277"/>
                <path id="パス_210" data-name="パス 210" d="M699.4,506.1a64.55,64.55,0,0,1-8.6-2.4c-1.7-.7-4.7-2-6.7-1.4a6.9,6.9,0,0,1-3.5.3c-1.6-.7,1.5-3.2,1.6-3.9a1.6,1.6,0,0,0-.8-1.4c-.5-.2-1.1-.4-1.6-.6-2.4-1-2.1-2.7-1.5-4.6a38.573,38.573,0,0,0,1.1-6.8c.2-2,3.6-4.2,7.6-4.9,0,0,1.3-.2,1.6-.2a19.092,19.092,0,0,0,3.3-.6,4.552,4.552,0,0,0,2-.5,1.848,1.848,0,0,0,1.1-1.7.367.367,0,0,0-.1-.3.764.764,0,0,0-.5-.2,30.9,30.9,0,0,0-9.1.8,7.571,7.571,0,0,1-5.1-.7,13.175,13.175,0,0,0-5.5-1.4c-1.6,0-2.5-.8-1.9-1.8.7-1.1,1.7-2.2,2.3-3.3.5-.9.6-2,1.4-2.9.6-.6,1.3-1,1.9-1.6a.779.779,0,0,0,.3-.7c-.1-.3-.4-.4-.7-.5-1.9-.4-3.6,1.1-5.5.2-.4-.2-.7-.3-1.1-.5a4.418,4.418,0,0,0-2.5.4c-2.6.8-3.6-1.4-4.2-3.6a15.027,15.027,0,0,1,.8-7.3,26.409,26.409,0,0,1,5.5-8.1c2.2-2.1,3.3-4.7,2.7-5.6a11.055,11.055,0,0,0-4.3-2.8,12.109,12.109,0,0,0-6.8.4c-2.1.8-6.9,1.1-10.7.7s-9.2-1.2-12-1.8a46.124,46.124,0,0,0-12.3-.4l-2.2.2a26.441,26.441,0,0,1-12.7-2.1c-3-1.6-5.5-6-5.5-9.8s.7-8.2,1.5-9.6,3.5-2.4,6-2.1a25.8,25.8,0,0,0,6.8,0,27.632,27.632,0,0,0,6.1-3.3c2.1-1.5,3.7-3.3,3.6-4.1a6.761,6.761,0,0,0-2.6-3.2c-1.2-.9-1-2.1.5-2.5,2.2-.6,4.5-.1,6.8-.2,2.7-.1,3.8-1.3,5.4-3.2a25.013,25.013,0,0,0,4.4-12.1l.2-2.6c.3-4,.7-9.6,1-12.5s-1.4-7.9-3.8-11.1l-3.6-4.9c-2.1-2.9-3.5-5-4-8.5a3.022,3.022,0,0,0-.5-1.6c-.6-.7-1.6-.6-2.5-.6-3.1.2-5.7-1.1-8.6-2a4.871,4.871,0,0,0-4.4.4c-.8.7-1.4,1.8-2.4,2.1a4.3,4.3,0,0,1-2.7-.8,7.851,7.851,0,0,0-7.3,0c-3.2,1.7-4.5,5.7-5.5,8.9a26.367,26.367,0,0,1-6.9,10.5c-2.6,2.1-7.9,3.6-11.9,3.3l-13.9-.8a34.093,34.093,0,0,1-12.5-3.3,59.679,59.679,0,0,0-9-3.9l-3.6,5.9a10.611,10.611,0,0,0-.8,6.8l2.6,9.5a6.717,6.717,0,0,1-2.5,7.2,12.3,12.3,0,0,1-8,1.2l-4.4-.9a57.829,57.829,0,0,1-8.1-2.4,8.387,8.387,0,0,0-6.4.5l-4.2,2.4c-2,1.1-5.2,3-7.1,4.3l-4.4,2.8a9.409,9.409,0,0,0-3.6,5.5v.2a20.728,20.728,0,0,1-3.2,8l-1.1,1.5a15.558,15.558,0,0,0-2.5,6.9l-1,16.4a31.579,31.579,0,0,1-1.7,8.1,6.9,6.9,0,0,0-.1,4.7c1,1.6,1.3,4.8,1,7l-1.6,12.7a10.059,10.059,0,0,0,1.8,6.5h0l.9,1.2,8.7,10.9A9.49,9.49,0,0,0,504,487l11.1.6a2.233,2.233,0,0,0,2.5-1.9V485l-.6-5a11.9,11.9,0,0,0-3.2-6.3l-3.3-3.1a7.893,7.893,0,0,1-1.9-8l1.2-3.2a9.79,9.79,0,0,1,6.4-5.5l2.5-.5a10.493,10.493,0,0,1,8.2,2.1l2.1,1.8a11.338,11.338,0,0,0,6.6,2.4h7.3a4.823,4.823,0,0,1,4.9,4.8v.6l-1,9.6a9.337,9.337,0,0,0,2.1,6.4l11.8,13.3a9.351,9.351,0,0,1,1.9,8.2l-1.5,5.4a8.467,8.467,0,0,0,1.1,6.4l4.3,6a31.056,31.056,0,0,1,3.7,7.8l1.9,6.8,13,2.1a19.008,19.008,0,0,0,7.5-.7l5.7-2.1a8.305,8.305,0,0,1,8.1,1.8l1.7,1.7a43.991,43.991,0,0,1,5.4,6.7l2.1,3.2a6.066,6.066,0,0,0,5.3,2.5l6.2-.7a20.274,20.274,0,0,0,7.1-2.6l1.6-1.1a36.813,36.813,0,0,1,7.8-3.6l6.1-1.7a61.7,61.7,0,0,1,8.4-1.5l11.1-.9c1.8-.1,5.7,1.4,8.6,3.2a6.035,6.035,0,0,1,.8-.8,9.7,9.7,0,0,1,4.8-2,11.179,11.179,0,0,0,5-1.8,29.093,29.093,0,0,1,4.2-2.5,9.469,9.469,0,0,0,3.3-3.6c.9-1.7.6-3.3-.7-3.7a7.386,7.386,0,0,0-3.6-.3c-.7.2-1.3-.6-1.5-1.8a8.042,8.042,0,0,1,1.8-4.7,13.807,13.807,0,0,0,2.4-5.4c.4-3.2,3.1-5,5.7-6.3a1.721,1.721,0,0,0,1.1-1.1C700.9,506.6,700.1,506.3,699.4,506.1Z" fill="none" stroke="#dbcab9" stroke-width="0.277"/>
                <path id="パス_211" data-name="パス 211" d="M343.2,499.8l-.1-.1a12.62,12.62,0,0,0-5.8-4.1l-3.1-.9a14.219,14.219,0,0,1-7-5.1l-3.4-5.2a37.344,37.344,0,0,0-5.2-6l-.5-.4a5.039,5.039,0,0,1-1.8-3.6,4.89,4.89,0,0,1,1.4-3.8l1.3-1.4a2.569,2.569,0,0,0-.1-3.7c-.1-.1-.2-.1-.2-.2l-3.5-2.8a22.219,22.219,0,0,0-6.9-3.4l-5.1-1.3a14.743,14.743,0,0,1-7.1-4.9l-1.7-2.5a29.03,29.03,0,0,1-3.6-7.8l-.7-2.4c-.6-2.2-1.4-6-1.8-8.3l-2.8-17.5a7.3,7.3,0,0,0-3-1.6,11.674,11.674,0,0,0-6.1,1.4,5.483,5.483,0,0,1-6-.7c-1.6-1.4-3.8-2.6-4.9-2.6-2,0-4.1.6-6.1.3-2.3-.3-4.5-1.9-6.8-1.3a3,3,0,0,0-.8.4c-.9.7-.8,2.2-.4,3.3a42.737,42.737,0,0,1,1.3,4.8l.2.9a19.511,19.511,0,0,1-2,13.2l-2.2,3.6c-2.1,3.4-1.7,7.2.7,8.3,2.4,1.2,6.4,3.2,8.8,4.5s4.6,3.2,4.8,4.2a16.58,16.58,0,0,0,3.4,4.9c1,1,2.9,3.1,1.8,4.6a3.269,3.269,0,0,1-1.5,1.1,8.424,8.424,0,0,1-3.5.7c-.4.3-.2,1,.2,1.3a3.194,3.194,0,0,0,1.4.3c3-.1,5.8.2,8.3-1.8a7.464,7.464,0,0,1,5.4-1.5,4.412,4.412,0,0,1,3.1,3.8c.3,3-1.8,5.1-1.6,8a3.924,3.924,0,0,0,2.1,3.5,1.486,1.486,0,0,0,.9.2,2.389,2.389,0,0,0,1.3-.7c3.3-2.3,7.7-.6,11,.9a15.973,15.973,0,0,0,7.8,1.1c2.3-.4,6.1,1.1,8.4,3.3a19.519,19.519,0,0,1,5,10.4,64.218,64.218,0,0,1,0,12.4,16.012,16.012,0,0,0,2.9,10.4c2,2.4,3.1,5.1,2.5,6s-2.8.9-4.8,0a15.4,15.4,0,0,0-6-1.3,13.6,13.6,0,0,0-5.3,2.5c-1.6,1.2-5.5,1.1-8.5-.2-3.1-1.3-5.5-5.5-5.5-9.3a51.723,51.723,0,0,1,1.1-10.4A31.158,31.158,0,0,0,294,498a5.887,5.887,0,0,0-1-3.4,6.444,6.444,0,0,0-4.2-1.8c-1.8-.2-3.8,1-5.5.1a4.889,4.889,0,0,1-2.3-2.4c-1.3-2.4.1-5.4-1.1-8-1.1-2.3-3.3-3.5-5-5.4a29.767,29.767,0,0,0-3.6-3.5,5.64,5.64,0,0,0-2-1.1,2.026,2.026,0,0,0-2.1.6,3.957,3.957,0,0,0-.5,2.6c0,3.8-1.4,5.5-3.7,8.4a4.053,4.053,0,0,0-.5.9,2.768,2.768,0,0,0-.1.9c0,2,.7,3.9.8,5.8s-1.3,3.3-3,4.2a4.248,4.248,0,0,0-2.1,1.6,3.553,3.553,0,0,0-.2,1c0,3.8,3.2,8.6,5.8,11.3,1.8,1.9,4.1,6.6,5.2,10.4l.3,1.1c1,3.8,2.1,8.3,2.3,10s3.3,2.7,6.9,2.4,8,2.3,10,5.8c2,3.6,4.4,8.2,5.5,10.5,1.6,3.3,2.3,6.3.7,9.8-.6,1.4-1.7,2.5-2.3,3.8a41.068,41.068,0,0,0-1.5,4.6c-.6,2.2-1.6,5.4.1,7.4a4.268,4.268,0,0,0,3.5,1.4c2.9-.1,4.8-2.9,6.5-5l15.9-19.4a37.572,37.572,0,0,1,11.1-8.7l4.7-2.2a39.04,39.04,0,0,1,13.9-3.1h4.3c4,0,8.9,2.5,10.9,5.4s1.6,7.8-.9,10.9c-.9,1.1-1.9,2.2-2.7,3.3-1.2,1.6-3.5,2.7-4.4,4.4a4.333,4.333,0,0,0-.4,1.9,13.763,13.763,0,0,0,5.3,11.5c2.9,2.5,6.9,3.9,8.8,3.1,5.1-2.1,6.7-8,11.5-9.9a10.136,10.136,0,0,0,4.4-2.5c.6-.8.9-1.8,1.5-2.6.8-1,1.8-1.9,2.6-3l4.4-6.1c2.3-3.2,4.1-7.8,3.8-10a36.331,36.331,0,0,0-3.8-10.6l-3.7-7.1c-1.9-3.5-6.2-6.5-9.6-6.6a28.96,28.96,0,0,0-12.5,3.5l-3,1.7a5.28,5.28,0,0,1-7.3-1.4,4.958,4.958,0,0,1-.8-2l-.5-1.7a11.207,11.207,0,0,1,4-11.2l3.8-2.8a6.279,6.279,0,0,0,1.2-1.1l-12.9-1.5A12.346,12.346,0,0,1,343.2,499.8Z" fill="none" stroke="#dbcab9" stroke-width="0.277"/>
                <path id="パス_212" data-name="パス 212" d="M407.8,689.7l.7.2a16.466,16.466,0,0,0,7.3.5l7-1.6a14.5,14.5,0,0,0,6.2-3.7l3.3-3.8a8.763,8.763,0,0,1,8-2.5l5,1.2a16.474,16.474,0,0,1,7.4,4.4l3.7,4.2a41.949,41.949,0,0,1,4.9,7l-1,.6h0l1-.6,1.3,2.4,5.2-2.1a20.894,20.894,0,0,1,8.6-1.2l6.9.8a6.15,6.15,0,0,0,5.3-2.6l.8-1.2a8.482,8.482,0,0,1,7.5-3.6l8.9.9a6.829,6.829,0,0,0,5.5-2.5l.8-1.1a12.715,12.715,0,0,1,7.2-4.6l7.6-1.4a4.149,4.149,0,0,0,3.2-3.8v-1.2a7.472,7.472,0,0,0-3-5.5l-2.2-1.4a6.319,6.319,0,0,1-2.3-7.5l.7-1.6a20.627,20.627,0,0,1,5.2-6.9l3.5-2.9a5.032,5.032,0,0,0,1.3-5.2l-3.1-7.8a11.859,11.859,0,0,0-4.7-5.2l-5.4-2.8a9.2,9.2,0,0,1-4.6-7l-1-13.8a10,10,0,0,1,3.3-7.8l14.3-11.6a19.241,19.241,0,0,0,4.6-6l4.4-9.9a41.641,41.641,0,0,1,4.4-7.3l8.7-11.2a60.735,60.735,0,0,0,4.4-6.8l4-7.5a7.352,7.352,0,0,1,6.7-3.7l-1.6-5.9a30.6,30.6,0,0,0-3.3-7.1l-4.3-6a10.793,10.793,0,0,1-1.4-8.4l1.5-5.4a7.572,7.572,0,0,0-1.4-6L546.9,483a11.46,11.46,0,0,1-2.6-8.1l1-9.6a2.441,2.441,0,0,0-2.6-2.8h-7.3a14.135,14.135,0,0,1-8.1-3l-2.1-1.8a8.6,8.6,0,0,0-6.2-1.6l-2.5.5a7.378,7.378,0,0,0-4.7,4.1l-1.2,3.2a5.6,5.6,0,0,0,1.3,5.5l3.4,3.1a14.218,14.218,0,0,1,3.9,7.7l.6,5a4.605,4.605,0,0,1-3.9,5.2,3.352,3.352,0,0,1-1,0l-11.1-.7a11.732,11.732,0,0,1-7.6-3.9l-8.1-10.2-8.9-.3a12.738,12.738,0,0,1-7.8-3.5l-1.5-1.6a10.294,10.294,0,0,0-6.2-2.7h-5.8a5.892,5.892,0,0,0-4.8,3.1l-.5,1.1a6.933,6.933,0,0,1-7,3.9l-2.4-.3a13.173,13.173,0,0,0-7,1.4l-7.8,4.5a10.521,10.521,0,0,0-4.2,5.5l-1.2,4.2a5.884,5.884,0,0,1-5.5,4.2,3.4,3.4,0,0,1-1-.1l-12.8-2.3a10.766,10.766,0,0,1,1.8,2.4,26.805,26.805,0,0,1,3,7.7c.7,3.2,2.8,6.9,4.6,8.1a58.263,58.263,0,0,1,8,7.7l3.8,4.4a47.833,47.833,0,0,0,9.9,8.6c2.8,1.7,5,6.4,4.9,10.3l-.1,2.7a24.91,24.91,0,0,1-4.9,12.8l-3.3,4c-2.6,3-6.6,5.9-8.9,6.4-5.4,1.1-8.7,7.4-14.3,7.6a16.156,16.156,0,0,0-2.2,0,2.883,2.883,0,0,0-2,.7c-1,.9-.7,2.1-.7,3.2a60.964,60.964,0,0,0,.2,7.4,1.854,1.854,0,0,0,.2.7.775.775,0,0,0,1,.2,5.5,5.5,0,0,0,.9-.7c2.6-2.7,6.4-6.1,10.3-6.9a31.609,31.609,0,0,0,7.2-2.8c2.1-1.2,7.1-2.4,11-2.7l2.4-.2c4-.3,6.5.2,5.6,1.1a59.183,59.183,0,0,0-5.1,7.9l-2,3.5c-1,1.7-2.1,3.2-3.2,4.8a12.737,12.737,0,0,0-2,3.6c-.4,1.4,0,2.5.1,3.9a12.414,12.414,0,0,1-.3,2.7c-.2.7-.2,1.7.4,2.1a1.376,1.376,0,0,0,1.1.1l2.4-.2a3.376,3.376,0,0,1,2,.2c2.3,1.1.4,5-.5,6.3l-13.9,22c-2.8,4.4-4.6,10.2-8.5,13.8-.7.7-1.6,1.2-2.2,1.9-2.5,2.5-2.9,7-3.4,10.3a14.7,14.7,0,0,1-5.5,8.4,26.157,26.157,0,0,0-7.3,9.2,6.251,6.251,0,0,1-1.3,2l8.4,7.7A21.044,21.044,0,0,0,407.8,689.7Z" fill="none" stroke="#dbcab9" stroke-width="0.277"/>
                <path id="パス_213" data-name="パス 213" d="M398.7,446.5c1.6-1.7,4.1-4.4,5.6-6.2l8-8.9A31.754,31.754,0,0,1,419,426l7.5-4.2a5.694,5.694,0,0,0,2.6-5.1l-.6-5.3a26.566,26.566,0,0,0-2.3-7.4l-1.3-2.5c-.9-1.7-2.7-2.5-3.7-2.1a6.119,6.119,0,0,0-3.4,3.3c-.7,2-3.3,4.1-6,4.6l-.5.1c-2.6.6-5.9-.2-7.4-1.6a14.576,14.576,0,0,0-5.2-2.8,17.612,17.612,0,0,1-6.9-4.2l-.9-1a13.135,13.135,0,0,0-6.4-3.3l-8.4-1.3a15.11,15.11,0,0,0-7.3,1l-1.3.6a20.642,20.642,0,0,1-8.5,1.5l-12-.8a11,11,0,0,1-7.4-4.2l-3.5-4.9c-3.2,7.8-17.1,9.4-18.5-.6l-.4-3c-.6-3.9-2.8-8.2-4.9-9.5s-5.4-1.9-7.3-1.3c-3.3,1-4.1,3.7-6.2,6a10.1,10.1,0,0,0-1.3,1.6c-1,1.9,4.8,8.4,1.3,9.6a4.812,4.812,0,0,1-2.9-.4l-2.6-1c-.9-.4-2.2-.7-2.8.2a2.118,2.118,0,0,0,0,1.9,77.519,77.519,0,0,1,2.7,10.8c.4,1.9.7,3.8,1.1,5.8.2,1.2.2,3.5,1.6,4.2,1.3.6,4.8-1.9,4.8,1,0,1.3-2,4.2-4.4,6.4s-5.9,2-7.6-.4c-.1-.1-.2-.3-.3-.4l2.3,14.3c.4,2.2,1.2,5.8,1.8,8l.7,2.4a30.6,30.6,0,0,0,3.3,7.1l1.7,2.5a11.934,11.934,0,0,0,5.7,4l5.1,1.3a25.679,25.679,0,0,1,7.8,3.8l3.5,2.8a5.051,5.051,0,0,1,.9,7c-.1.1-.2.3-.3.4l-1.3,1.4a2.959,2.959,0,0,0,.1,4.1l.1.1.5.4a34.927,34.927,0,0,1,5.6,6.5l3.4,5.2a11.239,11.239,0,0,0,5.7,4.1l3.1.9a14.933,14.933,0,0,1,7.1,5l.1.2a8.829,8.829,0,0,0,5.7,3.3l14.6,1.7c.3-.3.7-.6,1-.9a11.988,11.988,0,0,0,1.2-1.1,1.971,1.971,0,0,0,.3-1.5,3.591,3.591,0,0,0-.7-1c-4.1-4-6.4-10.1-9.1-15.2l-5.2-9.6a7.8,7.8,0,0,1,2.7-10.2l12.6-7.8c3.4-2.1,7.7-1.9,9.5.4,1.6,2,5.3,3.6,8.9,3.9a40.718,40.718,0,0,1,3.3-4.8Z" fill="none" stroke="#dbcab9" stroke-width="0.277"/>
                <path id="パス_214" data-name="パス 214" d="M420.8,490.1l1.2-4.2a13.079,13.079,0,0,1,5.2-6.8l7.8-4.5a14.677,14.677,0,0,1,8.5-1.7l2.4.3a4.585,4.585,0,0,0,4.6-2.6l.5-1.1a7.864,7.864,0,0,1,6.9-4.5h5.8a12.059,12.059,0,0,1,7.9,3.4l1.5,1.6a10.425,10.425,0,0,0,6.3,2.8l6.9.2a12.705,12.705,0,0,1-2-7.8l1.6-12.7a10.448,10.448,0,0,0-.6-5.5c-1.1-1.7-.9-4.7-.1-6.7a31.189,31.189,0,0,0,1.5-7.5l1-16.4a17.009,17.009,0,0,1,3-8.1l1.1-1.5a17.793,17.793,0,0,0,2.8-7v-.2a11.25,11.25,0,0,1,4.6-7.2l4.4-2.8c2-1.2,5.2-3.2,7.2-4.3l4.2-2.4a11.151,11.151,0,0,1,8.4-.6,52.336,52.336,0,0,0,7.7,2.3l4.4.9a9.9,9.9,0,0,0,6.3-.9,4.632,4.632,0,0,0,1.5-4.7l-2.5-9.5a13.1,13.1,0,0,1,1.1-8.5l3.3-5.5a80.388,80.388,0,0,0-10.9-2c-3.4-.4-7.9-3.5-9.9-7l-6.7-11.3a37.77,37.77,0,0,1-4.4-13.4l-.2-2.5c-.4-4-1.7-8.5-2.9-10.1s-1.5-5.2-.6-8.1a94.82,94.82,0,0,1,4.8-11.4c1.8-3.3,2.3-7,1.3-8a7.094,7.094,0,0,0-4.2-1.9c-1.3,0-4.4,2.1-7.1,4.7a45.23,45.23,0,0,1-7.2,5.9,22.751,22.751,0,0,1-6.8,1.3,11.425,11.425,0,0,1-7.5-2.8c-2-1.9-2.2-6.7-5.1-7.2a10.122,10.122,0,0,0-3,.2c-3.8.8-8,1.1-11.6,2.6a18.2,18.2,0,0,1-6.1.7c-2.2-.1-5.8,2.4-8.1,5.6l-.3.4a15.119,15.119,0,0,1-11.4,5.7l-5-.1c-8.2-.2-17,10.7-17,18.5v.6a94.516,94.516,0,0,0-.1,11.9c.2,2.6-1.8,6.2-4.6,8a36.249,36.249,0,0,0-8.8,9.5l-4.3,6.9a16.1,16.1,0,0,1-11,6.7l-.8.1a16.59,16.59,0,0,1-12.1-4.8l-.2-.3a7.255,7.255,0,0,0-10.2-.5c-3.5,3.1-6.9,4.8-11.1,7.1-1.1.6-2.3,1.4-2.5,2.6-.3,1.8,1.6,3.1,3.2,3.9,1.7.8,3.6,1.8,3.6,3.7,0,5.4-9.7,7.3-13.4,7.2-1.4,0-3-.2-4.1.6-1.2.8-1.5,2.3-1.8,3.8l4.6,6.4a8.473,8.473,0,0,0,5.7,3.2l12,.8a18.647,18.647,0,0,0,7.4-1.3l1.3-.6a16.842,16.842,0,0,1,8.6-1.1l8.4,1.3a16.329,16.329,0,0,1,7.7,4l.9,1a14.359,14.359,0,0,0,5.8,3.5,16.167,16.167,0,0,1,6.2,3.3,6.752,6.752,0,0,0,5.3,1.1l.5-.1a6.356,6.356,0,0,0,4.3-3.2,8.4,8.4,0,0,1,4.9-4.7c2.2-.7,5.1.7,6.4,3.2l1.3,2.5a30.125,30.125,0,0,1,2.6,8.2l.6,5.3a7.812,7.812,0,0,1-3.7,7.3l-7.5,4.2a29.162,29.162,0,0,0-6.1,4.9l-8,8.9c-1.5,1.7-4.1,4.5-5.6,6.2l-8.9,9.5a37.115,37.115,0,0,0-2.3,3.2l1.7-.1a11.971,11.971,0,0,1,10.3,6.3l.6,1.3a24.024,24.024,0,0,1,1.9,8c.3,2.8-1.1,5.1-2.5,7.4a5.035,5.035,0,0,0-1.1,2.6,5.421,5.421,0,0,0,.6,2.5,4.13,4.13,0,0,0,.7,1.1l15.5,2.8C418.6,492.7,420.2,491.7,420.8,490.1Z" fill="none" stroke="#dbcab9" stroke-width="0.277"/>
                <path id="パス_215" data-name="パス 215" d="M355.5,645.5l.4-1.8a8.171,8.171,0,0,1,5-5.4l1.4-.4a8.311,8.311,0,0,0,5.2-5.3c.8-3.1,1.1-6.9,2.9-9.5.3-.4.8-.9,1.2-.7,1.1.5-.2,2.4.4,3.1a1.374,1.374,0,0,0,1.8.1,19.2,19.2,0,0,0,1.4-1.5,12.01,12.01,0,0,1,9.8-3.5,24.823,24.823,0,0,1,5.4,1.2,14.435,14.435,0,0,0,7.1,1.2c4.9-.6,6.2-5.5,8-9.4,1.4-3.1,2.9-6.2,4.3-9.3a4.519,4.519,0,0,0-1.9-5.8,10.5,10.5,0,0,0-7.6-.4l-30.4,12.3a3.248,3.248,0,0,1-4.4-1.6,1.929,1.929,0,0,1-.3-1l-.9-4.9a42.22,42.22,0,0,1-.7-6.1c-.1-1.5.1-4.4-.8-5.5a2.469,2.469,0,0,0-1.6-.8,5.662,5.662,0,0,0-1.8.3c-1.8.6-3.3,1.5-5.2,2.2l-5.5,1.9-6.5,2.2a10.2,10.2,0,0,0-5.5,5.3l-4.1,10.5-3.3,8.5a82.856,82.856,0,0,1-3.1,8.3,9.128,9.128,0,0,1-.8,1.3c-.8,1.1-1.8,2.2-1.8,3.6s1.2,2.7,2,4c1.1,1.9,1.1,3.7,1.1,5.8l-1.6,10.7c-.5,3.7.4,8.2,3.2,10.8a4.372,4.372,0,0,0,2.4,1.3,4.306,4.306,0,0,0,2.2-.4c2.7-1.1,4.4-3.6,6.7-5.4,1.4-1.1,2.9-2.2,4.3-3.3l7.8-5.8A17.41,17.41,0,0,0,355.5,645.5Z" fill="none" stroke="#dbcab9" stroke-width="0.277"/>
                <path id="パス_216" data-name="パス 216" d="M551,821.4l1.2-6.9a12.158,12.158,0,0,0-1.2-7l-1.3-2.4a11.855,11.855,0,0,0-5.4-4.5l-15.4-5.4A16.87,16.87,0,0,1,522,790l-11.9-17.1a25.586,25.586,0,0,0-5.5-5.4l-3.5-2.3a13.611,13.611,0,0,1-5-7l-3-12a15.119,15.119,0,0,0-3.7-6.2l-6.9-6.1a32.216,32.216,0,0,1-5.5-6.7L469.7,715c-1.2-2-3.1-5.2-4.2-7.3l-6-10.9h0a48.829,48.829,0,0,0-4.6-6.6l-3.7-4.2a14.113,14.113,0,0,0-6.2-3.7l-5.1-1.2a6.634,6.634,0,0,0-5.7,1.8l-3.4,3.8a15.627,15.627,0,0,1-7.4,4.4l-7,1.6a17.889,17.889,0,0,1-8.6-.5l-.7-.3a23.152,23.152,0,0,1-7.3-4.6l-8.4-7.8a13.571,13.571,0,0,1-6.8,3.3L368.9,685a5.449,5.449,0,0,1-6.4-4.2,6.694,6.694,0,0,1,0-2l.2-1.7c.4-3.9-.2-8.5-1.4-10.1-1.8-2.4-4.9-1.9-7.5-2.1a4.758,4.758,0,0,0-3.3.5c-1.2.9-1.2,2.6-1.1,4.1.3,4.7.6,9.5,2.6,13.8a27.51,27.51,0,0,0,5.4,8,17.2,17.2,0,0,0,6.1,3.3,5.2,5.2,0,0,1,3.6,4.2,9.009,9.009,0,0,1-2.2,6.3c-1.5,1.6-1.9,6.1-1.1,10L366,725a34.071,34.071,0,0,1-.2,13.5,104.632,104.632,0,0,0-2.4,13.6L363,756a16.414,16.414,0,0,0,4.6,12.1l8.9,8.2a42.108,42.108,0,0,1,7.8,10,35.362,35.362,0,0,1,2.3,12.4v18.6c0,4-1.7,9.3-3.7,11.9a27.706,27.706,0,0,1-10.5,7l-.4.1c-3.6,1.2-7.2,1.9-10.6-.3a11.1,11.1,0,0,0-2.7-1.7,7.393,7.393,0,0,0-3.3-.2,7.8,7.8,0,0,0-2.2.4,2.4,2.4,0,0,0-1.5,1.6,2.813,2.813,0,0,0,.5,2.2c.6,1,1.1,2.1,1.8,3.1,1.6,2.6,3.7,5.1,4.8,5.6,3.6,1.8,2.4,8.2,5.3,10.6,1,.9,2.2,1.4,3.2,2.2a2.99,2.99,0,0,1,1.3,2.5,5.076,5.076,0,0,1-.9,1.8c-.9,1.3-1.6,3.5-.8,5,1.1,2.1,4.4,4.1,7.2,4.5a113.081,113.081,0,0,0,12.4.6h21.8a12.969,12.969,0,0,1,10.5,6.4l2.1,4.1c1.8,3.5,6.1,6.4,9.5,6.4s8.5-2.4,11.2-5.3l.4-.4a9.482,9.482,0,0,0,.9-11.2l-4.9-7.4a96.488,96.488,0,0,1-7-12.6l-5.7-13.1a26.749,26.749,0,0,1-1.5-13.7l2.4-11.6a53.758,53.758,0,0,1,5.1-13.3l6.7-11.6a50.005,50.005,0,0,0,4.9-11.7c.7-3,3.1-6.5,5.3-7.8a27.433,27.433,0,0,1,10.1-2.6,20.848,20.848,0,0,1,11.9,3.9l3.4,2.6c3.2,2.4,5.2,6.1,4.4,8.3-.7,2.2-2.1,7.1-3,11l-.5,2c-.9,3.9-4,7.3-6.8,7.6-2.9.3-5.9-.6-6.8-2.1-.9-1.4-2.2-3.9-3-5.4s-4.6-2.1-8.4-1.2c-3.9.9-7.6,2.3-8.2,3.2s-.5,3.1.4,4.8a13.894,13.894,0,0,0,4.4,4.9,8.628,8.628,0,0,0,5.7,1,13.951,13.951,0,0,1,5-.4c1.2.2,2,3.7,1.8,7.7l-.3,5.1a25.787,25.787,0,0,0,3.6,13.3l9.4,14.4a18.679,18.679,0,0,1,2.2,13.1l-2.2,8.8c-.4,1.8-.7,3.7-1.2,5.4-.9,2.9-2,5.2-1.5,8.4.3,2.2.7,4.1.2,6.3-.5,2-3.4,5.7-6.5,8.2-2.7,2.2-4.9,5.1-8.4,6.1-.7.2-1.5.4-2.2.6a2.942,2.942,0,0,0-1.6,1.5,4.2,4.2,0,0,0,.4,2.7c.9,2.2,2.5,4.8,1,7.2a12.129,12.129,0,0,0-1.1,3.2,10.355,10.355,0,0,1-1.7,3.3,2.155,2.155,0,0,0-.5,1.7c.3.8,1.3.9,2.1.9a11.14,11.14,0,0,0,6.9-2.8c1.7-1.4,4.1-2.8,5.2-4.9.8-1.5,4.5-4,8.2-5.4l14.4-5.6a70.267,70.267,0,0,0,12.6-6.9l3.1-2.3a41.829,41.829,0,0,0,9.4-10.3c2.1-3.5,3.1-6.8,6.5-9.2a41.233,41.233,0,0,0,6.9-5.6c1.3-1.4,2-3.1,3.3-4.5a2.384,2.384,0,0,0,.6-1.1c.1-.7-.5-1.3-.9-1.8-1.5-1.8-1.7-3.8-1.6-6s-.2-4.5-.1-6.8a.807.807,0,0,0-.3-.9.749.749,0,0,0-.5-.1h-2.8a7.106,7.106,0,0,1-2.1-.3c-2.4-1-3.1-5.5-2.4-7.7a29.52,29.52,0,0,1,7.8-11l3.6-3a13.509,13.509,0,0,1,12.3-2l5.7,2.2,1.8-2.7A16.279,16.279,0,0,0,551,821.4Z" fill="none" stroke="#dbcab9" stroke-width="0.277"/>
                <path id="パス_217" data-name="パス 217" d="M658,541.5a70.347,70.347,0,0,0-8,1.4l-6.1,1.7a33.373,33.373,0,0,0-7.2,3.3l-1.6,1.1a21.918,21.918,0,0,1-8.1,2.9l-6.2.7h-.7a8.769,8.769,0,0,1-6.8-3.6l-2.1-3.2a50.225,50.225,0,0,0-5.1-6.3l-1.7-1.7a6.525,6.525,0,0,0-5.7-1.3l-5.7,2.1a19.318,19.318,0,0,1-8.6.8l-14.9-2.3a5.1,5.1,0,0,0-4.9,2.5l-4,7.5a57.579,57.579,0,0,1-4.6,7.1l-8.7,11.2a33.976,33.976,0,0,0-4.1,6.9l-4.4,9.9a21.944,21.944,0,0,1-5.3,6.8l-14.3,11.6a7.941,7.941,0,0,0-2.5,5.8l1,13.8a7.285,7.285,0,0,0,3.4,5.1l5.4,2.8a13.837,13.837,0,0,1,5.8,6.4l3.1,7.8a7.33,7.33,0,0,1-2,7.9l-3.5,2.9a19.341,19.341,0,0,0-4.5,6.1l-.7,1.6a3.944,3.944,0,0,0,1.4,4.7l2.2,1.4a9.424,9.424,0,0,1,4,7.4v1.2a6.607,6.607,0,0,1-5,6.1l-7.6,1.4a11.212,11.212,0,0,0-5.8,3.7l-.8,1.1a9.335,9.335,0,0,1-7.6,3.5l-8.9-.9a6.15,6.15,0,0,0-5.3,2.6l-.8,1.2a8.482,8.482,0,0,1-7.5,3.6l-6.9-.7a19.187,19.187,0,0,0-7.5,1l-4.9,2,3.6,6.4c1.1,2,3,5.3,4.1,7.2l7.3,12.2a32.507,32.507,0,0,0,5,6.1l6.9,6.1a16.666,16.666,0,0,1,4.5,7.4l3,12.1a11.062,11.062,0,0,0,4,5.7l3.5,2.3a29.407,29.407,0,0,1,6.2,6l11.9,17.2a14.939,14.939,0,0,0,5.8,4.4l15.4,5.4a13.932,13.932,0,0,1,6.7,5.5l1.3,2.4a14.654,14.654,0,0,1,1.4,8.5l-1.3,6.9a18.772,18.772,0,0,1-3.7,7.8l-1.4,2.1.4.2a30.934,30.934,0,0,1,8.5,4.3c2.2,1.8,3.8,4.2,6.1,6l1.2,1c3.1,2.4,6.7,4,8,3.5a4.405,4.405,0,0,0,2.2-4,9.248,9.248,0,0,1,2.9-5.8,11.011,11.011,0,0,0,2.9-7.3,9.638,9.638,0,0,1,.9-4.7c.7-1.2,1.5-1.9,1-3.5-.3-1.1-1.1-2-1.1-3.1a7.788,7.788,0,0,1,.4-2.1,47,47,0,0,1,2.2-6.3c.7-1.2,1.4-2.5,2-3.7a62.85,62.85,0,0,1,4.8-7.8c2.2-3,3.9-7.5,3.9-10.1a45.163,45.163,0,0,1,2.4-11.6l4-11.6c.8-2,2.2-7.7.6-9.6-.5-.6-1.4-.7-2.1-1.1a6.075,6.075,0,0,1-1.6-1.6c-1.2-1.6-2.2-3-2.1-5a28.061,28.061,0,0,0,0-4.1,39.6,39.6,0,0,1,1.7-14.1,52.315,52.315,0,0,0,2.4-11.1c.2-1.7-.2-3.3.2-5,.5-1.9,1.5-3.5,2.1-5.4.6-1.8.6-3.5,1.3-5.2.9-2.5,2.4-4.5,3.1-7.1a44.439,44.439,0,0,1,2.1-7.1,42.908,42.908,0,0,0,2.4-10l.4-3a113.741,113.741,0,0,1,3.3-14l.2-.7a80.369,80.369,0,0,1,5.8-13.1l4.3-7.4c2-3.4,3.5-8.2,3.3-10.6a6.912,6.912,0,0,1,3.4-6.2c3.3-1.6,3.9-6.7,4-9.8a10.412,10.412,0,0,1,4.9-8.5,13.089,13.089,0,0,0,2.7-1.9,3.017,3.017,0,0,0,.9-3,4.3,4.3,0,0,0-2.1-1.9c-2.1-1.4-4.1-7.2-3.4-9.7.5-1.7,3.3-5.1,6.4-7.7l3.7-3.1c3-2.6,5.9-6,6.5-7.6.5-1.6,3.7-4.6,7.1-6.7l1.1-.7c3.4-2.1,5.8-5.2,5.4-7a5.993,5.993,0,0,1,2.1-5.5,13,13,0,0,0,3.8-5.2,15.057,15.057,0,0,1,1.1-2.2c-2.5-1.5-5.8-2.9-7-2.8Z" fill="none" stroke="#dbcab9" stroke-width="0.277"/>
                <path id="パス_218" data-name="パス 218" d="M699.4,506.1a64.55,64.55,0,0,1-8.6-2.4c-1.7-.7-4.7-2-6.7-1.4a6.9,6.9,0,0,1-3.5.3c-1.6-.7,1.5-3.2,1.6-3.9a1.6,1.6,0,0,0-.8-1.4c-.5-.2-1.1-.4-1.6-.6-2.4-1-2.1-2.7-1.5-4.6a38.573,38.573,0,0,0,1.1-6.8c.2-2,3.6-4.2,7.6-4.9,0,0,1.3-.2,1.6-.2a19.092,19.092,0,0,0,3.3-.6,4.552,4.552,0,0,0,2-.5,1.848,1.848,0,0,0,1.1-1.7.367.367,0,0,0-.1-.3.764.764,0,0,0-.5-.2,30.9,30.9,0,0,0-9.1.8,7.571,7.571,0,0,1-5.1-.7,13.175,13.175,0,0,0-5.5-1.4c-1.6,0-2.5-.8-1.9-1.8.7-1.1,1.7-2.2,2.3-3.3.5-.9.6-2,1.4-2.9.6-.6,1.3-1,1.9-1.6a.779.779,0,0,0,.3-.7c-.1-.3-.4-.4-.7-.5-1.9-.4-3.6,1.1-5.5.2-.4-.2-.7-.3-1.1-.5a4.418,4.418,0,0,0-2.5.4c-2.6.8-3.6-1.4-4.2-3.6a15.027,15.027,0,0,1,.8-7.3,26.409,26.409,0,0,1,5.5-8.1c2.2-2.1,3.3-4.7,2.7-5.6a11.055,11.055,0,0,0-4.3-2.8,12.109,12.109,0,0,0-6.8.4c-2.1.8-6.9,1.1-10.7.7s-9.2-1.2-12-1.8a46.124,46.124,0,0,0-12.3-.4l-2.2.2a26.441,26.441,0,0,1-12.7-2.1c-3-1.6-5.5-6-5.5-9.8s.7-8.2,1.5-9.6,3.5-2.4,6-2.1a25.8,25.8,0,0,0,6.8,0,27.632,27.632,0,0,0,6.1-3.3c2.1-1.5,3.7-3.3,3.6-4.1a6.761,6.761,0,0,0-2.6-3.2c-1.2-.9-1-2.1.5-2.5,2.2-.6,4.5-.1,6.8-.2,2.7-.1,3.8-1.3,5.4-3.2a25.013,25.013,0,0,0,4.4-12.1l.2-2.6c.3-4,.7-9.6,1-12.5s-1.4-7.9-3.8-11.1l-3.6-4.9c-2.1-2.9-3.5-5-4-8.5a3.022,3.022,0,0,0-.5-1.6c-.6-.7-1.6-.6-2.5-.6-3.1.2-5.7-1.1-8.6-2a4.871,4.871,0,0,0-4.4.4c-.8.7-1.4,1.8-2.4,2.1a4.3,4.3,0,0,1-2.7-.8,7.851,7.851,0,0,0-7.3,0c-3.2,1.7-4.5,5.7-5.5,8.9a26.367,26.367,0,0,1-6.9,10.5c-2.6,2.1-7.9,3.6-11.9,3.3l-13.9-.8a34.093,34.093,0,0,1-12.5-3.3,59.679,59.679,0,0,0-9-3.9l-3.6,5.9a10.611,10.611,0,0,0-.8,6.8l2.6,9.5a6.717,6.717,0,0,1-2.5,7.2,12.3,12.3,0,0,1-8,1.2l-4.4-.9a57.829,57.829,0,0,1-8.1-2.4,8.387,8.387,0,0,0-6.4.5l-4.2,2.4c-2,1.1-5.2,3-7.1,4.3l-4.4,2.8a9.409,9.409,0,0,0-3.6,5.5v.2a20.728,20.728,0,0,1-3.2,8l-1.1,1.5a15.558,15.558,0,0,0-2.5,6.9l-1,16.4a31.579,31.579,0,0,1-1.7,8.1,6.9,6.9,0,0,0-.1,4.7c1,1.6,1.3,4.8,1,7l-1.6,12.7a10.059,10.059,0,0,0,1.8,6.5h0l.9,1.2,8.7,10.9A9.49,9.49,0,0,0,504,487l11.1.6a2.233,2.233,0,0,0,2.5-1.9V485l-.6-5a11.9,11.9,0,0,0-3.2-6.3l-3.3-3.1a7.893,7.893,0,0,1-1.9-8l1.2-3.2a9.79,9.79,0,0,1,6.4-5.5l2.5-.5a10.493,10.493,0,0,1,8.2,2.1l2.1,1.8a11.338,11.338,0,0,0,6.6,2.4h7.3a4.823,4.823,0,0,1,4.9,4.8v.6l-1,9.6a9.337,9.337,0,0,0,2.1,6.4l11.8,13.3a9.351,9.351,0,0,1,1.9,8.2l-1.5,5.4a8.467,8.467,0,0,0,1.1,6.4l4.3,6a31.056,31.056,0,0,1,3.7,7.8l1.9,6.8,13,2.1a19.008,19.008,0,0,0,7.5-.7l5.7-2.1a8.305,8.305,0,0,1,8.1,1.8l1.7,1.7a43.991,43.991,0,0,1,5.4,6.7l2.1,3.2a6.066,6.066,0,0,0,5.3,2.5l6.2-.7a20.274,20.274,0,0,0,7.1-2.6l1.6-1.1a36.813,36.813,0,0,1,7.8-3.6l6.1-1.7a61.7,61.7,0,0,1,8.4-1.5l11.1-.9c1.8-.1,5.7,1.4,8.6,3.2a6.035,6.035,0,0,1,.8-.8,9.7,9.7,0,0,1,4.8-2,11.179,11.179,0,0,0,5-1.8,29.093,29.093,0,0,1,4.2-2.5,9.469,9.469,0,0,0,3.3-3.6c.9-1.7.6-3.3-.7-3.7a7.386,7.386,0,0,0-3.6-.3c-.7.2-1.3-.6-1.5-1.8a8.042,8.042,0,0,1,1.8-4.7,13.807,13.807,0,0,0,2.4-5.4c.4-3.2,3.1-5,5.7-6.3a1.721,1.721,0,0,0,1.1-1.1C700.9,506.6,700.1,506.3,699.4,506.1Z" fill="none" stroke="#dbcab9" stroke-width="0.277"/>
                <path id="パス_219" data-name="パス 219" d="M343.2,499.8l-.1-.1a12.62,12.62,0,0,0-5.8-4.1l-3.1-.9a14.219,14.219,0,0,1-7-5.1l-3.4-5.2a37.344,37.344,0,0,0-5.2-6l-.5-.4a5.039,5.039,0,0,1-1.8-3.6,4.89,4.89,0,0,1,1.4-3.8l1.3-1.4a2.569,2.569,0,0,0-.1-3.7c-.1-.1-.2-.1-.2-.2l-3.5-2.8a22.219,22.219,0,0,0-6.9-3.4l-5.1-1.3a14.743,14.743,0,0,1-7.1-4.9l-1.7-2.5a29.03,29.03,0,0,1-3.6-7.8l-.7-2.4c-.6-2.2-1.4-6-1.8-8.3l-2.8-17.5a7.3,7.3,0,0,0-3-1.6,11.674,11.674,0,0,0-6.1,1.4,5.483,5.483,0,0,1-6-.7c-1.6-1.4-3.8-2.6-4.9-2.6-2,0-4.1.6-6.1.3-2.3-.3-4.5-1.9-6.8-1.3a3,3,0,0,0-.8.4c-.9.7-.8,2.2-.4,3.3a42.737,42.737,0,0,1,1.3,4.8l.2.9a19.511,19.511,0,0,1-2,13.2l-2.2,3.6c-2.1,3.4-1.7,7.2.7,8.3,2.4,1.2,6.4,3.2,8.8,4.5s4.6,3.2,4.8,4.2a16.58,16.58,0,0,0,3.4,4.9c1,1,2.9,3.1,1.8,4.6a3.269,3.269,0,0,1-1.5,1.1,8.424,8.424,0,0,1-3.5.7c-.4.3-.2,1,.2,1.3a3.194,3.194,0,0,0,1.4.3c3-.1,5.8.2,8.3-1.8a7.464,7.464,0,0,1,5.4-1.5,4.412,4.412,0,0,1,3.1,3.8c.3,3-1.8,5.1-1.6,8a3.924,3.924,0,0,0,2.1,3.5,1.486,1.486,0,0,0,.9.2,2.389,2.389,0,0,0,1.3-.7c3.3-2.3,7.7-.6,11,.9a15.973,15.973,0,0,0,7.8,1.1c2.3-.4,6.1,1.1,8.4,3.3a19.519,19.519,0,0,1,5,10.4,64.218,64.218,0,0,1,0,12.4,16.012,16.012,0,0,0,2.9,10.4c2,2.4,3.1,5.1,2.5,6s-2.8.9-4.8,0a15.4,15.4,0,0,0-6-1.3,13.6,13.6,0,0,0-5.3,2.5c-1.6,1.2-5.5,1.1-8.5-.2-3.1-1.3-5.5-5.5-5.5-9.3a51.723,51.723,0,0,1,1.1-10.4A31.158,31.158,0,0,0,294,498a5.887,5.887,0,0,0-1-3.4,6.444,6.444,0,0,0-4.2-1.8c-1.8-.2-3.8,1-5.5.1a4.889,4.889,0,0,1-2.3-2.4c-1.3-2.4.1-5.4-1.1-8-1.1-2.3-3.3-3.5-5-5.4a29.767,29.767,0,0,0-3.6-3.5,5.64,5.64,0,0,0-2-1.1,2.026,2.026,0,0,0-2.1.6,3.957,3.957,0,0,0-.5,2.6c0,3.8-1.4,5.5-3.7,8.4a4.053,4.053,0,0,0-.5.9,2.768,2.768,0,0,0-.1.9c0,2,.7,3.9.8,5.8s-1.3,3.3-3,4.2a4.248,4.248,0,0,0-2.1,1.6,3.553,3.553,0,0,0-.2,1c0,3.8,3.2,8.6,5.8,11.3,1.8,1.9,4.1,6.6,5.2,10.4l.3,1.1c1,3.8,2.1,8.3,2.3,10s3.3,2.7,6.9,2.4,8,2.3,10,5.8c2,3.6,4.4,8.2,5.5,10.5,1.6,3.3,2.3,6.3.7,9.8-.6,1.4-1.7,2.5-2.3,3.8a41.068,41.068,0,0,0-1.5,4.6c-.6,2.2-1.6,5.4.1,7.4a4.268,4.268,0,0,0,3.5,1.4c2.9-.1,4.8-2.9,6.5-5l15.9-19.4a37.572,37.572,0,0,1,11.1-8.7l4.7-2.2a39.04,39.04,0,0,1,13.9-3.1h4.3c4,0,8.9,2.5,10.9,5.4s1.6,7.8-.9,10.9c-.9,1.1-1.9,2.2-2.7,3.3-1.2,1.6-3.5,2.7-4.4,4.4a4.333,4.333,0,0,0-.4,1.9,13.763,13.763,0,0,0,5.3,11.5c2.9,2.5,6.9,3.9,8.8,3.1,5.1-2.1,6.7-8,11.5-9.9a10.136,10.136,0,0,0,4.4-2.5c.6-.8.9-1.8,1.5-2.6.8-1,1.8-1.9,2.6-3l4.4-6.1c2.3-3.2,4.1-7.8,3.8-10a36.331,36.331,0,0,0-3.8-10.6l-3.7-7.1c-1.9-3.5-6.2-6.5-9.6-6.6a28.96,28.96,0,0,0-12.5,3.5l-3,1.7a5.28,5.28,0,0,1-7.3-1.4,4.958,4.958,0,0,1-.8-2l-.5-1.7a11.207,11.207,0,0,1,4-11.2l3.8-2.8a6.279,6.279,0,0,0,1.2-1.1l-12.9-1.5A12.346,12.346,0,0,1,343.2,499.8Z" fill="none" stroke="#dbcab9" stroke-width="0.277"/>
                <path id="パス_220" data-name="パス 220" d="M407.8,689.7l.7.2a16.466,16.466,0,0,0,7.3.5l7-1.6a14.5,14.5,0,0,0,6.2-3.7l3.3-3.8a8.763,8.763,0,0,1,8-2.5l5,1.2a16.474,16.474,0,0,1,7.4,4.4l3.7,4.2a41.949,41.949,0,0,1,4.9,7l-1,.6h0l1-.6,1.3,2.4,5.2-2.1a20.894,20.894,0,0,1,8.6-1.2l6.9.8a6.15,6.15,0,0,0,5.3-2.6l.8-1.2a8.482,8.482,0,0,1,7.5-3.6l8.9.9a6.829,6.829,0,0,0,5.5-2.5l.8-1.1a12.715,12.715,0,0,1,7.2-4.6l7.6-1.4a4.149,4.149,0,0,0,3.2-3.8v-1.2a7.472,7.472,0,0,0-3-5.5l-2.2-1.4a6.319,6.319,0,0,1-2.3-7.5l.7-1.6a20.627,20.627,0,0,1,5.2-6.9l3.5-2.9a5.032,5.032,0,0,0,1.3-5.2l-3.1-7.8a11.859,11.859,0,0,0-4.7-5.2l-5.4-2.8a9.2,9.2,0,0,1-4.6-7l-1-13.8a10,10,0,0,1,3.3-7.8l14.3-11.6a19.241,19.241,0,0,0,4.6-6l4.4-9.9a41.641,41.641,0,0,1,4.4-7.3l8.7-11.2a60.735,60.735,0,0,0,4.4-6.8l4-7.5a7.352,7.352,0,0,1,6.7-3.7l-1.6-5.9a30.6,30.6,0,0,0-3.3-7.1l-4.3-6a10.793,10.793,0,0,1-1.4-8.4l1.5-5.4a7.572,7.572,0,0,0-1.4-6L546.9,483a11.46,11.46,0,0,1-2.6-8.1l1-9.6a2.441,2.441,0,0,0-2.6-2.8h-7.3a14.135,14.135,0,0,1-8.1-3l-2.1-1.8a8.6,8.6,0,0,0-6.2-1.6l-2.5.5a7.378,7.378,0,0,0-4.7,4.1l-1.2,3.2a5.6,5.6,0,0,0,1.3,5.5l3.4,3.1a14.218,14.218,0,0,1,3.9,7.7l.6,5a4.605,4.605,0,0,1-3.9,5.2,3.352,3.352,0,0,1-1,0l-11.1-.7a11.732,11.732,0,0,1-7.6-3.9l-8.1-10.2-8.9-.3a12.738,12.738,0,0,1-7.8-3.5l-1.5-1.6a10.294,10.294,0,0,0-6.2-2.7h-5.8a5.892,5.892,0,0,0-4.8,3.1l-.5,1.1a6.933,6.933,0,0,1-7,3.9l-2.4-.3a13.173,13.173,0,0,0-7,1.4l-7.8,4.5a10.521,10.521,0,0,0-4.2,5.5l-1.2,4.2a5.884,5.884,0,0,1-5.5,4.2,3.4,3.4,0,0,1-1-.1l-12.8-2.3a10.766,10.766,0,0,1,1.8,2.4,26.805,26.805,0,0,1,3,7.7c.7,3.2,2.8,6.9,4.6,8.1a58.263,58.263,0,0,1,8,7.7l3.8,4.4a47.833,47.833,0,0,0,9.9,8.6c2.8,1.7,5,6.4,4.9,10.3l-.1,2.7a24.91,24.91,0,0,1-4.9,12.8l-3.3,4c-2.6,3-6.6,5.9-8.9,6.4-5.4,1.1-8.7,7.4-14.3,7.6a16.156,16.156,0,0,0-2.2,0,2.883,2.883,0,0,0-2,.7c-1,.9-.7,2.1-.7,3.2a60.964,60.964,0,0,0,.2,7.4,1.854,1.854,0,0,0,.2.7.775.775,0,0,0,1,.2,5.5,5.5,0,0,0,.9-.7c2.6-2.7,6.4-6.1,10.3-6.9a31.609,31.609,0,0,0,7.2-2.8c2.1-1.2,7.1-2.4,11-2.7l2.4-.2c4-.3,6.5.2,5.6,1.1a59.183,59.183,0,0,0-5.1,7.9l-2,3.5c-1,1.7-2.1,3.2-3.2,4.8a12.737,12.737,0,0,0-2,3.6c-.4,1.4,0,2.5.1,3.9a12.414,12.414,0,0,1-.3,2.7c-.2.7-.2,1.7.4,2.1a1.376,1.376,0,0,0,1.1.1l2.4-.2a3.376,3.376,0,0,1,2,.2c2.3,1.1.4,5-.5,6.3l-13.9,22c-2.8,4.4-4.6,10.2-8.5,13.8-.7.7-1.6,1.2-2.2,1.9-2.5,2.5-2.9,7-3.4,10.3a14.7,14.7,0,0,1-5.5,8.4,26.157,26.157,0,0,0-7.3,9.2,6.251,6.251,0,0,1-1.3,2l8.4,7.7A21.044,21.044,0,0,0,407.8,689.7Z" fill="none" stroke="#dbcab9" stroke-width="0.277"/>
                <path id="パス_221" data-name="パス 221" d="M398.7,446.5c1.6-1.7,4.1-4.4,5.6-6.2l8-8.9A31.754,31.754,0,0,1,419,426l7.5-4.2a5.694,5.694,0,0,0,2.6-5.1l-.6-5.3a26.566,26.566,0,0,0-2.3-7.4l-1.3-2.5c-.9-1.7-2.7-2.5-3.7-2.1a6.119,6.119,0,0,0-3.4,3.3c-.7,2-3.3,4.1-6,4.6l-.5.1c-2.6.6-5.9-.2-7.4-1.6a14.576,14.576,0,0,0-5.2-2.8,17.612,17.612,0,0,1-6.9-4.2l-.9-1a13.135,13.135,0,0,0-6.4-3.3l-8.4-1.3a15.11,15.11,0,0,0-7.3,1l-1.3.6a20.642,20.642,0,0,1-8.5,1.5l-12-.8a11,11,0,0,1-7.4-4.2l-3.5-4.9c-3.2,7.8-17.1,9.4-18.5-.6l-.4-3c-.6-3.9-2.8-8.2-4.9-9.5s-5.4-1.9-7.3-1.3c-3.3,1-4.1,3.7-6.2,6a10.1,10.1,0,0,0-1.3,1.6c-1,1.9,4.8,8.4,1.3,9.6a4.812,4.812,0,0,1-2.9-.4l-2.6-1c-.9-.4-2.2-.7-2.8.2a2.118,2.118,0,0,0,0,1.9,77.519,77.519,0,0,1,2.7,10.8c.4,1.9.7,3.8,1.1,5.8.2,1.2.2,3.5,1.6,4.2,1.3.6,4.8-1.9,4.8,1,0,1.3-2,4.2-4.4,6.4s-5.9,2-7.6-.4c-.1-.1-.2-.3-.3-.4l2.3,14.3c.4,2.2,1.2,5.8,1.8,8l.7,2.4a30.6,30.6,0,0,0,3.3,7.1l1.7,2.5a11.934,11.934,0,0,0,5.7,4l5.1,1.3a25.679,25.679,0,0,1,7.8,3.8l3.5,2.8a5.051,5.051,0,0,1,.9,7c-.1.1-.2.3-.3.4l-1.3,1.4a2.959,2.959,0,0,0,.1,4.1l.1.1.5.4a34.927,34.927,0,0,1,5.6,6.5l3.4,5.2a11.239,11.239,0,0,0,5.7,4.1l3.1.9a14.933,14.933,0,0,1,7.1,5l.1.2a8.829,8.829,0,0,0,5.7,3.3l14.6,1.7c.3-.3.7-.6,1-.9a11.988,11.988,0,0,0,1.2-1.1,1.971,1.971,0,0,0,.3-1.5,3.591,3.591,0,0,0-.7-1c-4.1-4-6.4-10.1-9.1-15.2l-5.2-9.6a7.8,7.8,0,0,1,2.7-10.2l12.6-7.8c3.4-2.1,7.7-1.9,9.5.4,1.6,2,5.3,3.6,8.9,3.9a40.718,40.718,0,0,1,3.3-4.8Z" fill="#dbcab9"/>
                <path id="パス_222" data-name="パス 222" d="M420.8,490.1l1.2-4.2a13.079,13.079,0,0,1,5.2-6.8l7.8-4.5a14.677,14.677,0,0,1,8.5-1.7l2.4.3a4.585,4.585,0,0,0,4.6-2.6l.5-1.1a7.864,7.864,0,0,1,6.9-4.5h5.8a12.059,12.059,0,0,1,7.9,3.4l1.5,1.6a10.425,10.425,0,0,0,6.3,2.8l6.9.2a12.705,12.705,0,0,1-2-7.8l1.6-12.7a10.448,10.448,0,0,0-.6-5.5c-1.1-1.7-.9-4.7-.1-6.7a31.189,31.189,0,0,0,1.5-7.5l1-16.4a17.009,17.009,0,0,1,3-8.1l1.1-1.5a17.793,17.793,0,0,0,2.8-7v-.2a11.25,11.25,0,0,1,4.6-7.2l4.4-2.8c2-1.2,5.2-3.2,7.2-4.3l4.2-2.4a11.151,11.151,0,0,1,8.4-.6,52.336,52.336,0,0,0,7.7,2.3l4.4.9a9.9,9.9,0,0,0,6.3-.9,4.632,4.632,0,0,0,1.5-4.7l-2.5-9.5a13.1,13.1,0,0,1,1.1-8.5l3.3-5.5a80.388,80.388,0,0,0-10.9-2c-3.4-.4-7.9-3.5-9.9-7l-6.7-11.3a37.77,37.77,0,0,1-4.4-13.4l-.2-2.5c-.4-4-1.7-8.5-2.9-10.1s-1.5-5.2-.6-8.1a94.82,94.82,0,0,1,4.8-11.4c1.8-3.3,2.3-7,1.3-8a7.094,7.094,0,0,0-4.2-1.9c-1.3,0-4.4,2.1-7.1,4.7a45.23,45.23,0,0,1-7.2,5.9,22.751,22.751,0,0,1-6.8,1.3,11.425,11.425,0,0,1-7.5-2.8c-2-1.9-2.2-6.7-5.1-7.2a10.122,10.122,0,0,0-3,.2c-3.8.8-8,1.1-11.6,2.6a18.2,18.2,0,0,1-6.1.7c-2.2-.1-5.8,2.4-8.1,5.6l-.3.4a15.119,15.119,0,0,1-11.4,5.7l-5-.1c-8.2-.2-17,10.7-17,18.5v.6a94.516,94.516,0,0,0-.1,11.9c.2,2.6-1.8,6.2-4.6,8a36.249,36.249,0,0,0-8.8,9.5l-4.3,6.9a16.1,16.1,0,0,1-11,6.7l-.8.1a16.59,16.59,0,0,1-12.1-4.8l-.2-.3a7.255,7.255,0,0,0-10.2-.5c-3.5,3.1-6.9,4.8-11.1,7.1-1.1.6-2.3,1.4-2.5,2.6-.3,1.8,1.6,3.1,3.2,3.9,1.7.8,3.6,1.8,3.6,3.7,0,5.4-9.7,7.3-13.4,7.2-1.4,0-3-.2-4.1.6-1.2.8-1.5,2.3-1.8,3.8l4.6,6.4a8.473,8.473,0,0,0,5.7,3.2l12,.8a18.647,18.647,0,0,0,7.4-1.3l1.3-.6a16.842,16.842,0,0,1,8.6-1.1l8.4,1.3a16.329,16.329,0,0,1,7.7,4l.9,1a14.359,14.359,0,0,0,5.8,3.5,16.167,16.167,0,0,1,6.2,3.3,6.752,6.752,0,0,0,5.3,1.1l.5-.1a6.356,6.356,0,0,0,4.3-3.2,8.4,8.4,0,0,1,4.9-4.7c2.2-.7,5.1.7,6.4,3.2l1.3,2.5a30.125,30.125,0,0,1,2.6,8.2l.6,5.3a7.812,7.812,0,0,1-3.7,7.3l-7.5,4.2a29.162,29.162,0,0,0-6.1,4.9l-8,8.9c-1.5,1.7-4.1,4.5-5.6,6.2l-8.9,9.5a37.115,37.115,0,0,0-2.3,3.2l1.7-.1a11.971,11.971,0,0,1,10.3,6.3l.6,1.3a24.024,24.024,0,0,1,1.9,8c.3,2.8-1.1,5.1-2.5,7.4a5.035,5.035,0,0,0-1.1,2.6,5.421,5.421,0,0,0,.6,2.5,4.13,4.13,0,0,0,.7,1.1l15.5,2.8C418.6,492.7,420.2,491.7,420.8,490.1Z" fill="#dbcab9"/>
                <path id="パス_223" data-name="パス 223" d="M355.5,645.5l.4-1.8a8.171,8.171,0,0,1,5-5.4l1.4-.4a8.311,8.311,0,0,0,5.2-5.3c.8-3.1,1.1-6.9,2.9-9.5.3-.4.8-.9,1.2-.7,1.1.5-.2,2.4.4,3.1a1.374,1.374,0,0,0,1.8.1,19.2,19.2,0,0,0,1.4-1.5,12.01,12.01,0,0,1,9.8-3.5,24.823,24.823,0,0,1,5.4,1.2,14.435,14.435,0,0,0,7.1,1.2c4.9-.6,6.2-5.5,8-9.4,1.4-3.1,2.9-6.2,4.3-9.3a4.519,4.519,0,0,0-1.9-5.8,10.5,10.5,0,0,0-7.6-.4l-30.4,12.3a3.248,3.248,0,0,1-4.4-1.6,1.929,1.929,0,0,1-.3-1l-.9-4.9a42.22,42.22,0,0,1-.7-6.1c-.1-1.5.1-4.4-.8-5.5a2.469,2.469,0,0,0-1.6-.8,5.662,5.662,0,0,0-1.8.3c-1.8.6-3.3,1.5-5.2,2.2l-5.5,1.9-6.5,2.2a10.2,10.2,0,0,0-5.5,5.3l-4.1,10.5-3.3,8.5a82.856,82.856,0,0,1-3.1,8.3,9.128,9.128,0,0,1-.8,1.3c-.8,1.1-1.8,2.2-1.8,3.6s1.2,2.7,2,4c1.1,1.9,1.1,3.7,1.1,5.8l-1.6,10.7c-.5,3.7.4,8.2,3.2,10.8a4.372,4.372,0,0,0,2.4,1.3,4.306,4.306,0,0,0,2.2-.4c2.7-1.1,4.4-3.6,6.7-5.4,1.4-1.1,2.9-2.2,4.3-3.3l7.8-5.8A17.41,17.41,0,0,0,355.5,645.5Z" fill="#dbcab9"/>
                <path id="パス_224" data-name="パス 224" d="M551,821.4l1.2-6.9a12.158,12.158,0,0,0-1.2-7l-1.3-2.4a11.855,11.855,0,0,0-5.4-4.5l-15.4-5.4A16.87,16.87,0,0,1,522,790l-11.9-17.1a25.586,25.586,0,0,0-5.5-5.4l-3.5-2.3a13.611,13.611,0,0,1-5-7l-3-12a15.119,15.119,0,0,0-3.7-6.2l-6.9-6.1a32.216,32.216,0,0,1-5.5-6.7L469.7,715c-1.2-2-3.1-5.2-4.2-7.3l-6-10.9h0a48.829,48.829,0,0,0-4.6-6.6l-3.7-4.2a14.113,14.113,0,0,0-6.2-3.7l-5.1-1.2a6.634,6.634,0,0,0-5.7,1.8l-3.4,3.8a15.627,15.627,0,0,1-7.4,4.4l-7,1.6a17.889,17.889,0,0,1-8.6-.5l-.7-.3a23.152,23.152,0,0,1-7.3-4.6l-8.4-7.8a13.571,13.571,0,0,1-6.8,3.3L368.9,685a5.449,5.449,0,0,1-6.4-4.2,6.694,6.694,0,0,1,0-2l.2-1.7c.4-3.9-.2-8.5-1.4-10.1-1.8-2.4-4.9-1.9-7.5-2.1a4.758,4.758,0,0,0-3.3.5c-1.2.9-1.2,2.6-1.1,4.1.3,4.7.6,9.5,2.6,13.8a27.51,27.51,0,0,0,5.4,8,17.2,17.2,0,0,0,6.1,3.3,5.2,5.2,0,0,1,3.6,4.2,9.009,9.009,0,0,1-2.2,6.3c-1.5,1.6-1.9,6.1-1.1,10L366,725a34.071,34.071,0,0,1-.2,13.5,104.632,104.632,0,0,0-2.4,13.6L363,756a16.414,16.414,0,0,0,4.6,12.1l8.9,8.2a42.108,42.108,0,0,1,7.8,10,35.362,35.362,0,0,1,2.3,12.4v18.6c0,4-1.7,9.3-3.7,11.9a27.706,27.706,0,0,1-10.5,7l-.4.1c-3.6,1.2-7.2,1.9-10.6-.3a11.1,11.1,0,0,0-2.7-1.7,7.393,7.393,0,0,0-3.3-.2,7.8,7.8,0,0,0-2.2.4,2.4,2.4,0,0,0-1.5,1.6,2.813,2.813,0,0,0,.5,2.2c.6,1,1.1,2.1,1.8,3.1,1.6,2.6,3.7,5.1,4.8,5.6,3.6,1.8,2.4,8.2,5.3,10.6,1,.9,2.2,1.4,3.2,2.2a2.99,2.99,0,0,1,1.3,2.5,5.076,5.076,0,0,1-.9,1.8c-.9,1.3-1.6,3.5-.8,5,1.1,2.1,4.4,4.1,7.2,4.5a113.081,113.081,0,0,0,12.4.6h21.8a12.969,12.969,0,0,1,10.5,6.4l2.1,4.1c1.8,3.5,6.1,6.4,9.5,6.4s8.5-2.4,11.2-5.3l.4-.4a9.482,9.482,0,0,0,.9-11.2l-4.9-7.4a96.488,96.488,0,0,1-7-12.6l-5.7-13.1a26.749,26.749,0,0,1-1.5-13.7l2.4-11.6a53.758,53.758,0,0,1,5.1-13.3l6.7-11.6a50.005,50.005,0,0,0,4.9-11.7c.7-3,3.1-6.5,5.3-7.8a27.433,27.433,0,0,1,10.1-2.6,20.848,20.848,0,0,1,11.9,3.9l3.4,2.6c3.2,2.4,5.2,6.1,4.4,8.3-.7,2.2-2.1,7.1-3,11l-.5,2c-.9,3.9-4,7.3-6.8,7.6-2.9.3-5.9-.6-6.8-2.1-.9-1.4-2.2-3.9-3-5.4s-4.6-2.1-8.4-1.2c-3.9.9-7.6,2.3-8.2,3.2s-.5,3.1.4,4.8a13.894,13.894,0,0,0,4.4,4.9,8.628,8.628,0,0,0,5.7,1,13.951,13.951,0,0,1,5-.4c1.2.2,2,3.7,1.8,7.7l-.3,5.1a25.787,25.787,0,0,0,3.6,13.3l9.4,14.4a18.679,18.679,0,0,1,2.2,13.1l-2.2,8.8c-.4,1.8-.7,3.7-1.2,5.4-.9,2.9-2,5.2-1.5,8.4.3,2.2.7,4.1.2,6.3-.5,2-3.4,5.7-6.5,8.2-2.7,2.2-4.9,5.1-8.4,6.1-.7.2-1.5.4-2.2.6a2.942,2.942,0,0,0-1.6,1.5,4.2,4.2,0,0,0,.4,2.7c.9,2.2,2.5,4.8,1,7.2a12.129,12.129,0,0,0-1.1,3.2,10.355,10.355,0,0,1-1.7,3.3,2.155,2.155,0,0,0-.5,1.7c.3.8,1.3.9,2.1.9a11.14,11.14,0,0,0,6.9-2.8c1.7-1.4,4.1-2.8,5.2-4.9.8-1.5,4.5-4,8.2-5.4l14.4-5.6a70.267,70.267,0,0,0,12.6-6.9l3.1-2.3a41.829,41.829,0,0,0,9.4-10.3c2.1-3.5,3.1-6.8,6.5-9.2a41.233,41.233,0,0,0,6.9-5.6c1.3-1.4,2-3.1,3.3-4.5a2.384,2.384,0,0,0,.6-1.1c.1-.7-.5-1.3-.9-1.8-1.5-1.8-1.7-3.8-1.6-6s-.2-4.5-.1-6.8a.807.807,0,0,0-.3-.9.749.749,0,0,0-.5-.1h-2.8a7.106,7.106,0,0,1-2.1-.3c-2.4-1-3.1-5.5-2.4-7.7a29.52,29.52,0,0,1,7.8-11l3.6-3a13.509,13.509,0,0,1,12.3-2l5.7,2.2,1.8-2.7A16.279,16.279,0,0,0,551,821.4Z" fill="#dbcab9"/>
                <path id="パス_225" data-name="パス 225" d="M658,541.5a70.347,70.347,0,0,0-8,1.4l-6.1,1.7a33.373,33.373,0,0,0-7.2,3.3l-1.6,1.1a21.918,21.918,0,0,1-8.1,2.9l-6.2.7h-.7a8.769,8.769,0,0,1-6.8-3.6l-2.1-3.2a50.225,50.225,0,0,0-5.1-6.3l-1.7-1.7a6.525,6.525,0,0,0-5.7-1.3l-5.7,2.1a19.318,19.318,0,0,1-8.6.8l-14.9-2.3a5.1,5.1,0,0,0-4.9,2.5l-4,7.5a57.579,57.579,0,0,1-4.6,7.1l-8.7,11.2a33.976,33.976,0,0,0-4.1,6.9l-4.4,9.9a21.944,21.944,0,0,1-5.3,6.8l-14.3,11.6a7.941,7.941,0,0,0-2.5,5.8l1,13.8a7.285,7.285,0,0,0,3.4,5.1l5.4,2.8a13.837,13.837,0,0,1,5.8,6.4l3.1,7.8a7.33,7.33,0,0,1-2,7.9l-3.5,2.9a19.341,19.341,0,0,0-4.5,6.1l-.7,1.6a3.944,3.944,0,0,0,1.4,4.7l2.2,1.4a9.424,9.424,0,0,1,4,7.4v1.2a6.607,6.607,0,0,1-5,6.1l-7.6,1.4a11.212,11.212,0,0,0-5.8,3.7l-.8,1.1a9.335,9.335,0,0,1-7.6,3.5l-8.9-.9a6.15,6.15,0,0,0-5.3,2.6l-.8,1.2a8.482,8.482,0,0,1-7.5,3.6l-6.9-.7a19.187,19.187,0,0,0-7.5,1l-4.9,2,3.6,6.4c1.1,2,3,5.3,4.1,7.2l7.3,12.2a32.507,32.507,0,0,0,5,6.1l6.9,6.1a16.666,16.666,0,0,1,4.5,7.4l3,12.1a11.062,11.062,0,0,0,4,5.7l3.5,2.3a29.407,29.407,0,0,1,6.2,6l11.9,17.2a14.939,14.939,0,0,0,5.8,4.4l15.4,5.4a13.932,13.932,0,0,1,6.7,5.5l1.3,2.4a14.654,14.654,0,0,1,1.4,8.5l-1.3,6.9a18.772,18.772,0,0,1-3.7,7.8l-1.4,2.1.4.2a30.934,30.934,0,0,1,8.5,4.3c2.2,1.8,3.8,4.2,6.1,6l1.2,1c3.1,2.4,6.7,4,8,3.5a4.405,4.405,0,0,0,2.2-4,9.248,9.248,0,0,1,2.9-5.8,11.011,11.011,0,0,0,2.9-7.3,9.638,9.638,0,0,1,.9-4.7c.7-1.2,1.5-1.9,1-3.5-.3-1.1-1.1-2-1.1-3.1a7.788,7.788,0,0,1,.4-2.1,47,47,0,0,1,2.2-6.3c.7-1.2,1.4-2.5,2-3.7a62.85,62.85,0,0,1,4.8-7.8c2.2-3,3.9-7.5,3.9-10.1a45.163,45.163,0,0,1,2.4-11.6l4-11.6c.8-2,2.2-7.7.6-9.6-.5-.6-1.4-.7-2.1-1.1a6.075,6.075,0,0,1-1.6-1.6c-1.2-1.6-2.2-3-2.1-5a28.061,28.061,0,0,0,0-4.1,39.6,39.6,0,0,1,1.7-14.1,52.315,52.315,0,0,0,2.4-11.1c.2-1.7-.2-3.3.2-5,.5-1.9,1.5-3.5,2.1-5.4.6-1.8.6-3.5,1.3-5.2.9-2.5,2.4-4.5,3.1-7.1a44.439,44.439,0,0,1,2.1-7.1,42.908,42.908,0,0,0,2.4-10l.4-3a113.741,113.741,0,0,1,3.3-14l.2-.7a80.369,80.369,0,0,1,5.8-13.1l4.3-7.4c2-3.4,3.5-8.2,3.3-10.6a6.912,6.912,0,0,1,3.4-6.2c3.3-1.6,3.9-6.7,4-9.8a10.412,10.412,0,0,1,4.9-8.5,13.089,13.089,0,0,0,2.7-1.9,3.017,3.017,0,0,0,.9-3,4.3,4.3,0,0,0-2.1-1.9c-2.1-1.4-4.1-7.2-3.4-9.7.5-1.7,3.3-5.1,6.4-7.7l3.7-3.1c3-2.6,5.9-6,6.5-7.6.5-1.6,3.7-4.6,7.1-6.7l1.1-.7c3.4-2.1,5.8-5.2,5.4-7a5.993,5.993,0,0,1,2.1-5.5,13,13,0,0,0,3.8-5.2,15.057,15.057,0,0,1,1.1-2.2c-2.5-1.5-5.8-2.9-7-2.8Z" fill="#dbcab9"/>
                <path id="パス_226" data-name="パス 226" d="M699.4,506.1a64.55,64.55,0,0,1-8.6-2.4c-1.7-.7-4.7-2-6.7-1.4a6.9,6.9,0,0,1-3.5.3c-1.6-.7,1.5-3.2,1.6-3.9a1.6,1.6,0,0,0-.8-1.4c-.5-.2-1.1-.4-1.6-.6-2.4-1-2.1-2.7-1.5-4.6a38.573,38.573,0,0,0,1.1-6.8c.2-2,3.6-4.2,7.6-4.9,0,0,1.3-.2,1.6-.2a19.092,19.092,0,0,0,3.3-.6,4.552,4.552,0,0,0,2-.5,1.848,1.848,0,0,0,1.1-1.7.367.367,0,0,0-.1-.3.764.764,0,0,0-.5-.2,30.9,30.9,0,0,0-9.1.8,7.571,7.571,0,0,1-5.1-.7,13.175,13.175,0,0,0-5.5-1.4c-1.6,0-2.5-.8-1.9-1.8.7-1.1,1.7-2.2,2.3-3.3.5-.9.6-2,1.4-2.9.6-.6,1.3-1,1.9-1.6a.779.779,0,0,0,.3-.7c-.1-.3-.4-.4-.7-.5-1.9-.4-3.6,1.1-5.5.2-.4-.2-.7-.3-1.1-.5a4.418,4.418,0,0,0-2.5.4c-2.6.8-3.6-1.4-4.2-3.6a15.027,15.027,0,0,1,.8-7.3,26.409,26.409,0,0,1,5.5-8.1c2.2-2.1,3.3-4.7,2.7-5.6a11.055,11.055,0,0,0-4.3-2.8,12.109,12.109,0,0,0-6.8.4c-2.1.8-6.9,1.1-10.7.7s-9.2-1.2-12-1.8a46.124,46.124,0,0,0-12.3-.4l-2.2.2a26.441,26.441,0,0,1-12.7-2.1c-3-1.6-5.5-6-5.5-9.8s.7-8.2,1.5-9.6,3.5-2.4,6-2.1a25.8,25.8,0,0,0,6.8,0,27.632,27.632,0,0,0,6.1-3.3c2.1-1.5,3.7-3.3,3.6-4.1a6.761,6.761,0,0,0-2.6-3.2c-1.2-.9-1-2.1.5-2.5,2.2-.6,4.5-.1,6.8-.2,2.7-.1,3.8-1.3,5.4-3.2a25.013,25.013,0,0,0,4.4-12.1l.2-2.6c.3-4,.7-9.6,1-12.5s-1.4-7.9-3.8-11.1l-3.6-4.9c-2.1-2.9-3.5-5-4-8.5a3.022,3.022,0,0,0-.5-1.6c-.6-.7-1.6-.6-2.5-.6-3.1.2-5.7-1.1-8.6-2a4.871,4.871,0,0,0-4.4.4c-.8.7-1.4,1.8-2.4,2.1a4.3,4.3,0,0,1-2.7-.8,7.851,7.851,0,0,0-7.3,0c-3.2,1.7-4.5,5.7-5.5,8.9a26.367,26.367,0,0,1-6.9,10.5c-2.6,2.1-7.9,3.6-11.9,3.3l-13.9-.8a34.093,34.093,0,0,1-12.5-3.3,59.679,59.679,0,0,0-9-3.9l-3.6,5.9a10.611,10.611,0,0,0-.8,6.8l2.6,9.5a6.717,6.717,0,0,1-2.5,7.2,12.3,12.3,0,0,1-8,1.2l-4.4-.9a57.829,57.829,0,0,1-8.1-2.4,8.387,8.387,0,0,0-6.4.5l-4.2,2.4c-2,1.1-5.2,3-7.1,4.3l-4.4,2.8a9.409,9.409,0,0,0-3.6,5.5v.2a20.728,20.728,0,0,1-3.2,8l-1.1,1.5a15.558,15.558,0,0,0-2.5,6.9l-1,16.4a31.579,31.579,0,0,1-1.7,8.1,6.9,6.9,0,0,0-.1,4.7c1,1.6,1.3,4.8,1,7l-1.6,12.7a10.059,10.059,0,0,0,1.8,6.5h0l.9,1.2,8.7,10.9A9.49,9.49,0,0,0,504,487l11.1.6a2.233,2.233,0,0,0,2.5-1.9V485l-.6-5a11.9,11.9,0,0,0-3.2-6.3l-3.3-3.1a7.893,7.893,0,0,1-1.9-8l1.2-3.2a9.79,9.79,0,0,1,6.4-5.5l2.5-.5a10.493,10.493,0,0,1,8.2,2.1l2.1,1.8a11.338,11.338,0,0,0,6.6,2.4h7.3a4.823,4.823,0,0,1,4.9,4.8v.6l-1,9.6a9.337,9.337,0,0,0,2.1,6.4l11.8,13.3a9.351,9.351,0,0,1,1.9,8.2l-1.5,5.4a8.467,8.467,0,0,0,1.1,6.4l4.3,6a31.056,31.056,0,0,1,3.7,7.8l1.9,6.8,13,2.1a19.008,19.008,0,0,0,7.5-.7l5.7-2.1a8.305,8.305,0,0,1,8.1,1.8l1.7,1.7a43.991,43.991,0,0,1,5.4,6.7l2.1,3.2a6.066,6.066,0,0,0,5.3,2.5l6.2-.7a20.274,20.274,0,0,0,7.1-2.6l1.6-1.1a36.813,36.813,0,0,1,7.8-3.6l6.1-1.7a61.7,61.7,0,0,1,8.4-1.5l11.1-.9c1.8-.1,5.7,1.4,8.6,3.2a6.035,6.035,0,0,1,.8-.8,9.7,9.7,0,0,1,4.8-2,11.179,11.179,0,0,0,5-1.8,29.093,29.093,0,0,1,4.2-2.5,9.469,9.469,0,0,0,3.3-3.6c.9-1.7.6-3.3-.7-3.7a7.386,7.386,0,0,0-3.6-.3c-.7.2-1.3-.6-1.5-1.8a8.042,8.042,0,0,1,1.8-4.7,13.807,13.807,0,0,0,2.4-5.4c.4-3.2,3.1-5,5.7-6.3a1.721,1.721,0,0,0,1.1-1.1C700.9,506.6,700.1,506.3,699.4,506.1Z" fill="#dbcab9"/>
                <path id="パス_227" data-name="パス 227" d="M343.2,499.8l-.1-.1a12.62,12.62,0,0,0-5.8-4.1l-3.1-.9a14.219,14.219,0,0,1-7-5.1l-3.4-5.2a37.344,37.344,0,0,0-5.2-6l-.5-.4a5.039,5.039,0,0,1-1.8-3.6,4.89,4.89,0,0,1,1.4-3.8l1.3-1.4a2.569,2.569,0,0,0-.1-3.7c-.1-.1-.2-.1-.2-.2l-3.5-2.8a22.219,22.219,0,0,0-6.9-3.4l-5.1-1.3a14.743,14.743,0,0,1-7.1-4.9l-1.7-2.5a29.03,29.03,0,0,1-3.6-7.8l-.7-2.4c-.6-2.2-1.4-6-1.8-8.3l-2.8-17.5a7.3,7.3,0,0,0-3-1.6,11.674,11.674,0,0,0-6.1,1.4,5.483,5.483,0,0,1-6-.7c-1.6-1.4-3.8-2.6-4.9-2.6-2,0-4.1.6-6.1.3-2.3-.3-4.5-1.9-6.8-1.3a3,3,0,0,0-.8.4c-.9.7-.8,2.2-.4,3.3a42.737,42.737,0,0,1,1.3,4.8l.2.9a19.511,19.511,0,0,1-2,13.2l-2.2,3.6c-2.1,3.4-1.7,7.2.7,8.3,2.4,1.2,6.4,3.2,8.8,4.5s4.6,3.2,4.8,4.2a16.58,16.58,0,0,0,3.4,4.9c1,1,2.9,3.1,1.8,4.6a3.269,3.269,0,0,1-1.5,1.1,8.424,8.424,0,0,1-3.5.7c-.4.3-.2,1,.2,1.3a3.194,3.194,0,0,0,1.4.3c3-.1,5.8.2,8.3-1.8a7.464,7.464,0,0,1,5.4-1.5,4.412,4.412,0,0,1,3.1,3.8c.3,3-1.8,5.1-1.6,8a3.924,3.924,0,0,0,2.1,3.5,1.486,1.486,0,0,0,.9.2,2.389,2.389,0,0,0,1.3-.7c3.3-2.3,7.7-.6,11,.9a15.973,15.973,0,0,0,7.8,1.1c2.3-.4,6.1,1.1,8.4,3.3a19.519,19.519,0,0,1,5,10.4,64.218,64.218,0,0,1,0,12.4,16.012,16.012,0,0,0,2.9,10.4c2,2.4,3.1,5.1,2.5,6s-2.8.9-4.8,0a15.4,15.4,0,0,0-6-1.3,13.6,13.6,0,0,0-5.3,2.5c-1.6,1.2-5.5,1.1-8.5-.2-3.1-1.3-5.5-5.5-5.5-9.3a51.723,51.723,0,0,1,1.1-10.4A31.158,31.158,0,0,0,294,498a5.887,5.887,0,0,0-1-3.4,6.444,6.444,0,0,0-4.2-1.8c-1.8-.2-3.8,1-5.5.1a4.889,4.889,0,0,1-2.3-2.4c-1.3-2.4.1-5.4-1.1-8-1.1-2.3-3.3-3.5-5-5.4a29.767,29.767,0,0,0-3.6-3.5,5.64,5.64,0,0,0-2-1.1,2.026,2.026,0,0,0-2.1.6,3.957,3.957,0,0,0-.5,2.6c0,3.8-1.4,5.5-3.7,8.4a4.053,4.053,0,0,0-.5.9,2.768,2.768,0,0,0-.1.9c0,2,.7,3.9.8,5.8s-1.3,3.3-3,4.2a4.248,4.248,0,0,0-2.1,1.6,3.553,3.553,0,0,0-.2,1c0,3.8,3.2,8.6,5.8,11.3,1.8,1.9,4.1,6.6,5.2,10.4l.3,1.1c1,3.8,2.1,8.3,2.3,10s3.3,2.7,6.9,2.4,8,2.3,10,5.8c2,3.6,4.4,8.2,5.5,10.5,1.6,3.3,2.3,6.3.7,9.8-.6,1.4-1.7,2.5-2.3,3.8a41.068,41.068,0,0,0-1.5,4.6c-.6,2.2-1.6,5.4.1,7.4a4.268,4.268,0,0,0,3.5,1.4c2.9-.1,4.8-2.9,6.5-5l15.9-19.4a37.572,37.572,0,0,1,11.1-8.7l4.7-2.2a39.04,39.04,0,0,1,13.9-3.1h4.3c4,0,8.9,2.5,10.9,5.4s1.6,7.8-.9,10.9c-.9,1.1-1.9,2.2-2.7,3.3-1.2,1.6-3.5,2.7-4.4,4.4a4.333,4.333,0,0,0-.4,1.9,13.763,13.763,0,0,0,5.3,11.5c2.9,2.5,6.9,3.9,8.8,3.1,5.1-2.1,6.7-8,11.5-9.9a10.136,10.136,0,0,0,4.4-2.5c.6-.8.9-1.8,1.5-2.6.8-1,1.8-1.9,2.6-3l4.4-6.1c2.3-3.2,4.1-7.8,3.8-10a36.331,36.331,0,0,0-3.8-10.6l-3.7-7.1c-1.9-3.5-6.2-6.5-9.6-6.6a28.96,28.96,0,0,0-12.5,3.5l-3,1.7a5.28,5.28,0,0,1-7.3-1.4,4.958,4.958,0,0,1-.8-2l-.5-1.7a11.207,11.207,0,0,1,4-11.2l3.8-2.8a6.279,6.279,0,0,0,1.2-1.1l-12.9-1.5A12.346,12.346,0,0,1,343.2,499.8Z" fill="#dbcab9"/>
                <path id="パス_228" data-name="パス 228" d="M407.8,689.7l.7.2a16.466,16.466,0,0,0,7.3.5l7-1.6a14.5,14.5,0,0,0,6.2-3.7l3.3-3.8a8.763,8.763,0,0,1,8-2.5l5,1.2a16.474,16.474,0,0,1,7.4,4.4l3.7,4.2a41.949,41.949,0,0,1,4.9,7l-1,.6h0l1-.6,1.3,2.4,5.2-2.1a20.894,20.894,0,0,1,8.6-1.2l6.9.8a6.15,6.15,0,0,0,5.3-2.6l.8-1.2a8.482,8.482,0,0,1,7.5-3.6l8.9.9a6.829,6.829,0,0,0,5.5-2.5l.8-1.1a12.715,12.715,0,0,1,7.2-4.6l7.6-1.4a4.149,4.149,0,0,0,3.2-3.8v-1.2a7.472,7.472,0,0,0-3-5.5l-2.2-1.4a6.319,6.319,0,0,1-2.3-7.5l.7-1.6a20.627,20.627,0,0,1,5.2-6.9l3.5-2.9a5.032,5.032,0,0,0,1.3-5.2l-3.1-7.8a11.859,11.859,0,0,0-4.7-5.2l-5.4-2.8a9.2,9.2,0,0,1-4.6-7l-1-13.8a10,10,0,0,1,3.3-7.8l14.3-11.6a19.241,19.241,0,0,0,4.6-6l4.4-9.9a41.641,41.641,0,0,1,4.4-7.3l8.7-11.2a60.735,60.735,0,0,0,4.4-6.8l4-7.5a7.352,7.352,0,0,1,6.7-3.7l-1.6-5.9a30.6,30.6,0,0,0-3.3-7.1l-4.3-6a10.793,10.793,0,0,1-1.4-8.4l1.5-5.4a7.572,7.572,0,0,0-1.4-6L546.9,483a11.46,11.46,0,0,1-2.6-8.1l1-9.6a2.441,2.441,0,0,0-2.6-2.8h-7.3a14.135,14.135,0,0,1-8.1-3l-2.1-1.8a8.6,8.6,0,0,0-6.2-1.6l-2.5.5a7.378,7.378,0,0,0-4.7,4.1l-1.2,3.2a5.6,5.6,0,0,0,1.3,5.5l3.4,3.1a14.218,14.218,0,0,1,3.9,7.7l.6,5a4.605,4.605,0,0,1-3.9,5.2,3.352,3.352,0,0,1-1,0l-11.1-.7a11.732,11.732,0,0,1-7.6-3.9l-8.1-10.2-8.9-.3a12.738,12.738,0,0,1-7.8-3.5l-1.5-1.6a10.294,10.294,0,0,0-6.2-2.7h-5.8a5.892,5.892,0,0,0-4.8,3.1l-.5,1.1a6.933,6.933,0,0,1-7,3.9l-2.4-.3a13.173,13.173,0,0,0-7,1.4l-7.8,4.5a10.521,10.521,0,0,0-4.2,5.5l-1.2,4.2a5.884,5.884,0,0,1-5.5,4.2,3.4,3.4,0,0,1-1-.1l-12.8-2.3a10.766,10.766,0,0,1,1.8,2.4,26.805,26.805,0,0,1,3,7.7c.7,3.2,2.8,6.9,4.6,8.1a58.263,58.263,0,0,1,8,7.7l3.8,4.4a47.833,47.833,0,0,0,9.9,8.6c2.8,1.7,5,6.4,4.9,10.3l-.1,2.7a24.91,24.91,0,0,1-4.9,12.8l-3.3,4c-2.6,3-6.6,5.9-8.9,6.4-5.4,1.1-8.7,7.4-14.3,7.6a16.156,16.156,0,0,0-2.2,0,2.883,2.883,0,0,0-2,.7c-1,.9-.7,2.1-.7,3.2a60.964,60.964,0,0,0,.2,7.4,1.854,1.854,0,0,0,.2.7.775.775,0,0,0,1,.2,5.5,5.5,0,0,0,.9-.7c2.6-2.7,6.4-6.1,10.3-6.9a31.609,31.609,0,0,0,7.2-2.8c2.1-1.2,7.1-2.4,11-2.7l2.4-.2c4-.3,6.5.2,5.6,1.1a59.183,59.183,0,0,0-5.1,7.9l-2,3.5c-1,1.7-2.1,3.2-3.2,4.8a12.737,12.737,0,0,0-2,3.6c-.4,1.4,0,2.5.1,3.9a12.414,12.414,0,0,1-.3,2.7c-.2.7-.2,1.7.4,2.1a1.376,1.376,0,0,0,1.1.1l2.4-.2a3.376,3.376,0,0,1,2,.2c2.3,1.1.4,5-.5,6.3l-13.9,22c-2.8,4.4-4.6,10.2-8.5,13.8-.7.7-1.6,1.2-2.2,1.9-2.5,2.5-2.9,7-3.4,10.3a14.7,14.7,0,0,1-5.5,8.4,26.157,26.157,0,0,0-7.3,9.2,6.251,6.251,0,0,1-1.3,2l8.4,7.7A21.044,21.044,0,0,0,407.8,689.7Z" fill="#dbcab9"/>
                <path id="パス_229" data-name="パス 229" d="M726.5,227.1a22.1,22.1,0,0,1-6.2-6l-4.9-7.9c-1.2-2-3.2-5.1-4.5-7l-10.2-15.6a21.3,21.3,0,0,0-5.5-5.3l-2.1-1.2c-.1,0-.2-.1-.3-.1h-.1c-.2,0-.3-.1-.5-.2a2.25,2.25,0,0,0-1.4.1,2.8,2.8,0,0,0-1.6,1.6l-2.9,7.3a9.982,9.982,0,0,1-6.3,5.4l-18.2,4.2a9.742,9.742,0,0,1-8-2.2l-4.9-4.6a8.321,8.321,0,0,1-2.1-7.8l.9-2.8a4.429,4.429,0,0,0-2-4.9l-.4-.2c-2-1.1-5.3-3-7.3-4.2l-1.1-.7a29.534,29.534,0,0,1-6.3-5.4,8.6,8.6,0,0,1-1.3-7.6,18.793,18.793,0,0,1,4.4-6.4,8.32,8.32,0,0,0,2.1-5.8l-1.5-19.2a32.947,32.947,0,0,0-1-5.3,5.422,5.422,0,0,1-2.4.9,29.921,29.921,0,0,1-3.2-.8l-2.8-1.1c-.8-.3-3.5,2-5.9,5.2l-3.2,4.1c-2.4,3.2-4.7,7.3-5.1,9.2s-3.1,5.4-5.9,7.7a49.53,49.53,0,0,1-6.4,4.6,3.788,3.788,0,0,0-1.8,2.3,21.855,21.855,0,0,1-2.7,5,22.712,22.712,0,0,0-2.9,8.4c-.4,3-3.9,5.7-7.9,6l-1,.1c-3.9.4-8.7,2.2-10.5,4.2-1.8,1.9-6.5,3.6-10.5,3.8l-3.1.1c-4,.2-7.7.5-8.3.9a7.653,7.653,0,0,1-3,.6,8.7,8.7,0,0,1-4.3-2.1,61.2,61.2,0,0,0-7.9-5.4,16.913,16.913,0,0,0-11.3-1.6c-4.4,1.3-4.9,4.1-7.1,7.4-3.2,4.8-10.1,7.1-15.5,6.7-2.9-.2-5.5,0-5.9.3a7.1,7.1,0,0,1-1.4,1,1.213,1.213,0,0,0-.7,1.2,2.2,2.2,0,0,0,1.2,1.6,5.553,5.553,0,0,1,1.7,3.4c.3,1.5.7,5,.9,7.7a31.374,31.374,0,0,0,2.2,8.9,25.99,25.99,0,0,1,1.8,8.7,21.369,21.369,0,0,1-2.3,8.9,17.917,17.917,0,0,1-4.9,5.7c-1.4.9-1.9,4.8-1.1,8.7l.9,4.4c.8,3.9,2,8.8,2.6,10.9a26.872,26.872,0,0,1,.3,9.8c-.2,1.3-.4,3.3-1.1,4.4s-2.3,1.2-3,2.3a2,2,0,0,0,.6,2.4c1.4,1,5.1,3,6.7,2a5.311,5.311,0,0,0,2.4-3.1c.1-1,2.3-3.8,4.9-6.3a52.886,52.886,0,0,0,7.7-9.3,25.092,25.092,0,0,1,5.1-6.1,11.669,11.669,0,0,1,5.2-1.2c1.7.1,4.9,2.5,7.3,5.3a48.5,48.5,0,0,0,6.7,6.9,11.978,11.978,0,0,1,3.3,5.5,14.159,14.159,0,0,0,2.7,5.5,5.58,5.58,0,0,0,3.5,1.5,24.041,24.041,0,0,0,5.2-1.6,15.509,15.509,0,0,1,4.8-1.3c.7.1,1.9,1.4,2.7,2.8a3.831,3.831,0,0,0,4,1.9c1.4-.4,4.9-2.7,7.8-5.1a50.084,50.084,0,0,0,8.3-8.9c1.6-2.5,3-5.2,3.1-6.1a10.256,10.256,0,0,1,1.4-3.8c.5-.7,1.6-2.4,2.5-1.5.8.9.4,2.8.7,3.8a7.656,7.656,0,0,0,3.2,3.9c2.3,1.6,4.9,2.7,6,2.6a4.112,4.112,0,0,0,2.7-1.7,11.946,11.946,0,0,0,1.1-2.6c.2-.6,1.4-1.1,2.7-1,1.4.1,2.8,1.5,3.3,3.2a3.82,3.82,0,0,0,4.4,2.5,8.562,8.562,0,0,0,4.9-2.7c1.1-.9,2.6-1,3.5-2,.3-.3.5-.7.8-1,1.3-1.6,4.2-1.9,6.1-2.1a89.654,89.654,0,0,0,11.7-2.3l4-1.1a33.553,33.553,0,0,1,8.4-1.4c1.7-.1,6-.7,7.4.4.6.5,1.6,2.7,2.2,5a9.459,9.459,0,0,0,5.7,5.7,36.828,36.828,0,0,1,10,6.3l.7.6a49.454,49.454,0,0,0,11.1,7c3.1,1.3,8.7,3.4,12.4,4.8l2.8,1.1a24.8,24.8,0,0,1,10.5,8.7l.8,1.4c2.1,3.4,4.3,6,5,5.8s1.1-3.6.9-7.6l-.4-6.5c-.2-4,.8-7.8,2.4-8.5,1.5-.7,4.5-2.2,6.7-3.3a20.668,20.668,0,0,0,5.8-4.8c1.1-1.5,1.7-6,1.4-10l-.7-8.1a67.337,67.337,0,0,1,0-11,9.178,9.178,0,0,1,3.4-5.6,6.188,6.188,0,0,0,1.7-3.3h0Z" fill="#dbcab9"/>
                <path id="パス_230" data-name="パス 230" d="M1113.5.9,1111,2.3a33.261,33.261,0,0,1-7.9,3.1l-6,1.4a5.611,5.611,0,0,1-6.5-3.7l-3.3-11a14.9,14.9,0,0,0-4.2-6.1l-7.8-6a25.513,25.513,0,0,0-7-3.5l-11.8-3.3a9.226,9.226,0,0,0-6.7,1.1l-17,11.9a5.568,5.568,0,0,1-7.4-1l-1.3-1.5a13.046,13.046,0,0,0-6.2-3.6l-6.3-1.2a45.005,45.005,0,0,1-8.1-2.6l-1.5-.7a40.489,40.489,0,0,0-7.7-2.4l-2.7-.5a5.5,5.5,0,0,0-5.2,2.4L984.2-21c-1.2,2-3.3,5.2-4.6,7l-3,4.1A13.523,13.523,0,0,0,974.3-3v1.2a6.4,6.4,0,0,1-4.9,6L957.9,6.7a6.259,6.259,0,0,0-4.3,4.2l-1.3,5.2a11.444,11.444,0,0,1-5.1,6.7l-10.7,6.1a73.834,73.834,0,0,0-6.8,4.6l-3.7,3a22.891,22.891,0,0,1,4.3,3.2l6.3,6.7a8.947,8.947,0,0,1,1.9,8L933.8,70a8.93,8.93,0,0,0,1,6.6l6.3,9.1a21.01,21.01,0,0,1,3,8l1.8,16.6a28.108,28.108,0,0,0,2.2,7.5l1.7,3.3a38.542,38.542,0,0,1,2.7,8.1l1.9,11.6a16.894,16.894,0,0,0,2.9,6.4,15.405,15.405,0,0,1,3.2,7.4l1.7,14.9v.1a32.558,32.558,0,0,1,6.2.6,10.849,10.849,0,0,0,8.3-2.3,38.015,38.015,0,0,1,10.8-5.5l3.9-1.3a87.6,87.6,0,0,0,8.7-3.2,5.748,5.748,0,0,0,2.4-2.9c.3-1,2.8-3.1,5.5-4.5s6.3-1.3,7.9.3a86.543,86.543,0,0,1,7.1,8.9l.8,1.1c2.2,3.3,7.1,5.9,10.9,5.8a64.034,64.034,0,0,1,11.6.8c2.6.6,6.1-.1,7.6-1.4,3.2-2.7,5-6.7,7.3-10.1,1-1.5,2.5-3.4,4.4-2,.3.2.5.5.9.5a1.012,1.012,0,0,0,.7-.4c.1-.3.2-.5.3-.8a9.9,9.9,0,0,1,2.5-5.5,7.05,7.05,0,0,0,1.9-5.5,4.478,4.478,0,0,0-4.8-4.1h-.4a16.187,16.187,0,0,0-7.4,2.4c-1.3,1.1-2.8,1-3.3-.2a3.818,3.818,0,0,1,0-3.3c.5-.6,4.1-1.8,8-2.6,4.6-.9,9.4-2.8,13.1,1.6a6.03,6.03,0,0,0,4.7,2.2,24.88,24.88,0,0,0,6.8-3.2,29.893,29.893,0,0,1,7-3.3c1.5-.3,4.5-3.2,6.8-6.5l3.7-5.4a58.4,58.4,0,0,1,8.3-9.6,19.672,19.672,0,0,1,5.7-3.1L1112,91.9a10.521,10.521,0,0,1-.5-7.6l2.9-7.6a9.767,9.767,0,0,0-.6-7.5l-1.8-3a16.173,16.173,0,0,1-1.7-7.8l1.4-13.8a18.093,18.093,0,0,1,2.9-7.5l14.7-20.2a42.429,42.429,0,0,0,4-7.2l4.4-11h-17.1A22.521,22.521,0,0,0,1113.5.9Z" fill="#dbcab9"/>
                <path id="パス_231" data-name="パス 231" d="M955.8,148.6a16.885,16.885,0,0,1-3.4-7.3l-1.9-11.6a30.773,30.773,0,0,0-2.5-7.6l-1.7-3.4a29.687,29.687,0,0,1-2.4-8.2l-1.8-16.6a18.062,18.062,0,0,0-2.7-7.1l-6.3-9a10.943,10.943,0,0,1-1.3-8.3l4.7-15.6a6.837,6.837,0,0,0-1.5-6.1l-6.3-6.7a21.456,21.456,0,0,0-5-3.5h-.1a5.024,5.024,0,0,0-1.3-.5l-11.1-3.5a11,11,0,0,1-6.1-5.7l-.4-1.1-13.9,4.1a16.325,16.325,0,0,1-8.5-.2l-4.1-1.4a9.941,9.941,0,0,0-6.8.6l-.6.4a15.278,15.278,0,0,1-8.4,1.6l-11-1.6a7.283,7.283,0,0,0-5.9,2.3L830.2,51a16.744,16.744,0,0,1-7.2,4.7l-4,1.1a7.276,7.276,0,0,0-4.5,4.4l-.7,2.3a5.012,5.012,0,0,0,1.9,5.3l4.1,2.8a4.357,4.357,0,0,1,1.3,6,2.7,2.7,0,0,1-.7.8l-1.3,1.3a15.834,15.834,0,0,1-7.6,3.9l-6.9,1.1a15.99,15.99,0,0,0-6.7,3.2l-2.1,1.9a13.4,13.4,0,0,1-7.9,3.1H777.4a29.617,29.617,0,0,0-7.8,1.3L763,96.6a20.455,20.455,0,0,1-8.5.9l-14.4-2a7.622,7.622,0,0,0-6.1,2.2l-15,15.9a12.815,12.815,0,0,0-3,6.7l-1.9,17.5a11.181,11.181,0,0,1-4.2,7.3l-4,2.9a9.984,9.984,0,0,0-3.5,6l-1,7.5a14.48,14.48,0,0,1-3.8,7.6l-.5.5a11.225,11.225,0,0,0-3,6.4l-.4,6.5.2.1,2.1,1.2a20.514,20.514,0,0,1,6.2,5.9l10.3,15.6c1.3,1.9,3.3,5.1,4.5,7l4.9,7.9a19.833,19.833,0,0,0,5.5,5.3l13.9,8a22.86,22.86,0,0,0,0-3.7l-.4-3.6c-.4-3.9.9-9.2,2.9-11.7s5.6-7.1,8.1-10.2l7-8.9a17.152,17.152,0,0,1,11.7-5.8l4.4-.1a82.339,82.339,0,0,0,9.7-.6,2.2,2.2,0,0,1,2.7,1.6,21.422,21.422,0,0,1-.1,4.4,31.136,31.136,0,0,0,.2,6.1c.3,2,2.8,5.9,5.7,8.7l2.1,2.1c2.8,2.8,4.2,7.3,3,10a85.093,85.093,0,0,1-6.4,10.8l-4.9,6.9c-2.3,3.2-4,6.4-3.8,7.1s1.4.7,2.6.1a34.594,34.594,0,0,1,6.9-2.2,7.076,7.076,0,0,0,4.9-6.4,26.267,26.267,0,0,1,2.1-9.6,20.741,20.741,0,0,1,4.8-6.5c1.5-1.3,6-1.7,9.9-1l.7.1c3.9.7,8.3.4,9.8-.6a23.078,23.078,0,0,1,7-2.7,8.1,8.1,0,0,0,5.5-5.7,17.3,17.3,0,0,1,2.2-5.7c1.3-1.6,4-2.2,5.5-3.6,1.8-1.6,3.8-2.8,4.4-2.6a8.989,8.989,0,0,1,2.4,1.2,5.508,5.508,0,0,0,3.3.7,10.693,10.693,0,0,0,4.9-2.9c1.6-1.5,6.1-2.8,10-3l9.1-.5a57.507,57.507,0,0,0,10.8-1.6,39.732,39.732,0,0,1,4.9-1.5c.7-.1,2.5-2.4,3.9-5.1s5.5-4.6,9.3-4.3a45.891,45.891,0,0,0,11.1-.4,11.863,11.863,0,0,0,6.7-4.7c1.2-2,2.5-3.7,3-3.7.4,0,.6,1.5.4,3.3-.4,3.3,3.8,5.3,6.3,6.2a20.372,20.372,0,0,0,9.8.7,11.976,11.976,0,0,0,9.3-7.8c1.1-3.6,3.5-6.8,5.4-7.2l-1.7-14.8A10.963,10.963,0,0,0,955.8,148.6Z" fill="#dbcab9"/>
                <path id="パス_232" data-name="パス 232" d="M636.3,130.6l1.5,19.1a9.762,9.762,0,0,1-2.7,7.4,17.519,17.519,0,0,0-3.9,5.7,6.254,6.254,0,0,0,1,5.6,27.85,27.85,0,0,0,5.8,5l1.1.6c2,1.2,5.2,3,7.2,4.1l.4.2a6.38,6.38,0,0,1,2.9,7.1l-.9,2.8a6.172,6.172,0,0,0,1.6,5.8l4.9,4.6a8.108,8.108,0,0,0,6.2,1.7l18.2-4.1a7.916,7.916,0,0,0,4.9-4.2l2.9-7.3a4.417,4.417,0,0,1,2.8-2.7,3.21,3.21,0,0,1,1.7-.2l.4-6.1a13.17,13.17,0,0,1,3.6-7.7l.5-.5a13.135,13.135,0,0,0,3.3-6.4l1-7.5a12.009,12.009,0,0,1,4.3-7.3l4-2.9a9.888,9.888,0,0,0,3.4-5.9l1.9-17.5a15.872,15.872,0,0,1,3.5-7.8l14.9-15.8a10.219,10.219,0,0,1,7.8-2.8l14.4,2a19.559,19.559,0,0,0,7.6-.8l6.6-2.4a30.3,30.3,0,0,1,8.4-1.5H788a11.2,11.2,0,0,0,6.7-2.6l2-2a17.124,17.124,0,0,1,7.8-3.7l6.9-1.1a14.377,14.377,0,0,0,6.5-3.3l1.3-1.3a2.389,2.389,0,0,0,.2-3.4,3.172,3.172,0,0,0-.6-.5l-4.1-2.8a7.078,7.078,0,0,1-2.6-7.4l.7-2.3a9.441,9.441,0,0,1,5.9-5.8l4-1.1a15.105,15.105,0,0,0,6.2-4L844,31.4a9.552,9.552,0,0,1,7.7-3l11,1.6a13.891,13.891,0,0,0,7.2-1.4l.6-.4a11.646,11.646,0,0,1,8.4-.8l4.1,1.4a15.418,15.418,0,0,0,7.4.2l13.7-4-.3-.9a5.784,5.784,0,0,1,2.5-7,4.638,4.638,0,0,0,2.2-4.9l-.9-3.9A13.068,13.068,0,0,0,903.9,2a3.772,3.772,0,0,1-1.4-3.3,3.692,3.692,0,0,1,2.4-2.6l14.2-5.7a8.671,8.671,0,0,0,4.5-4.9l4.7-15.1c.7-2.2,1.9-5.8,2.7-7.9l1.4-3.7a5.327,5.327,0,0,0-1.4-5.5l-10.3-8.9a19.03,19.03,0,0,1-4.8-7.1c-.2-.8-.4-1.7-.7-2.7-.9-3-1.9-6.3-1-8.6,1.2-3,4.9-3.7,7.9-4.4.9-.2,1.8-.4,2.4-.6l4.9-1.6c.1-.2.2-.5.3-.7.5-.8,1-1.9.3-2.6a2.247,2.247,0,0,0-1.8-.2c-3.9.8-7.8,1.9-11.7,2.7a16.771,16.771,0,0,1-5.9.3,3.25,3.25,0,0,1-2.5-1.1,15.791,15.791,0,0,0-5-4.2c-2-1.1-5.9.4-8.7,3.2l-.2.2a46.732,46.732,0,0,1-7,6,20.952,20.952,0,0,1-6.1.9,11.645,11.645,0,0,0-7.1,3.2c-1.6,1.7-6.1,3.3-10.1,3.7l-3.6.3a43.9,43.9,0,0,0-9.5,1.6,48.181,48.181,0,0,0-7.8,5.6l-2.6,2.2c-3,2.6-7.9,4.8-10.7,5-2.3.2-5.3-2.2-6.8-1.6-2.2.9-2.5,4.9-2.1,6.6a63.509,63.509,0,0,1,.9,10.7v.2a16.949,16.949,0,0,1-5.4,11.8l-28,23.5C784.5-.2,777.8.1,774.8,4.2c-2.2,3-3.6,7.4-5.5,10.8-2.2,3.8-5.1,6-8.6,8.4-4.3,3.1-7,8.1-10.9,11.6-6,5.4-13.8,6.4-19.2,12.8a23.644,23.644,0,0,1-5.3,4.9c-1,.4-3.2,2.4-4.8,4.4-2.9,3.8-7.6,6-10.3,9.9-1.5,2.1-2.4,4.9-4.8,6a19.753,19.753,0,0,1-2.6.8c-3.7,1.5-4.9,7.1-7.5,9.9-2.5,2.7-5.2,5-6.1,5.2-2.7.7-2.7,4.4-4.8,5.6a8.674,8.674,0,0,1-3.1,1,4.756,4.756,0,0,0-2.1.7c-1.1.8-1.2,2.4-1.8,3.7-.9,1.6-2.7,2.3-3.7,3.8-.7,1.1-.8,2.6-1.4,3.8a17.962,17.962,0,0,1-8,7.2l-1.3.6a43.75,43.75,0,0,1-13.7,3.4h-1c-4,.2-9.1,2-11.3,4.1a8.96,8.96,0,0,1-1.9,1.5.367.367,0,0,1,.1.3A42.13,42.13,0,0,1,636.3,130.6Z" fill="#dbcab9"/>
                <path id="パス_233" data-name="パス 233" d="M1157-25.4l-4.6-15a42.568,42.568,0,0,0-3.5-7.5l-9.3-14.3a18.536,18.536,0,0,1-2.6-7.7l-1.6-19.4c-1,.4-2.1.7-3.1,1a58.273,58.273,0,0,0-10.8,4l-14.4,6.9a40.447,40.447,0,0,1-13.7,3.3l-22.6.5a41.826,41.826,0,0,0-11.1,1.5c-2.1.7-5.9,1.8-8.4,2.4a66.6,66.6,0,0,1-11.8,1.3l-16.5.6a62.512,62.512,0,0,1-14.3-1.4l-8.9-2a42.311,42.311,0,0,0-10-1.4c-1.7.2-5.9,1.9-9.4,3.8l-9.5,5.3a100.655,100.655,0,0,0-9,5.5,9.178,9.178,0,0,1-6,1.5c-1.8-.3-6.5-1.3-10.3-2.2l-5-1.3a15.871,15.871,0,0,1-9.7-8.4l-1-2.6a12.037,12.037,0,0,1-.7-7.5l-3.5,1.1a12.214,12.214,0,0,1-2.6.6c-2.7.6-5.7,1.2-6.5,3.2-.7,1.6.3,4.8,1,7.3a18.039,18.039,0,0,1,.7,2.7,16.412,16.412,0,0,0,4.1,6.2l10.3,8.9a7.377,7.377,0,0,1,2,7.7l-1.4,3.7c-.8,2.1-2,5.6-2.7,7.8l-4.7,15.1A11.192,11.192,0,0,1,920.2-8L906-2.4a1.627,1.627,0,0,0-1.2,1.2,1.683,1.683,0,0,0,.7,1.5,15.964,15.964,0,0,1,4.3,7.3l.9,3.9a6.586,6.586,0,0,1-3.2,7,3.817,3.817,0,0,0-1.6,4.6l1.5,3.8a9.194,9.194,0,0,0,4.9,4.6L923.4,35a4.179,4.179,0,0,1,1,.4l4.4-3.6a65.789,65.789,0,0,1,7-4.7L946.6,21a9.758,9.758,0,0,0,4.1-5.5l1.3-5.2a8.015,8.015,0,0,1,5.8-5.6l11.6-2.5a4.477,4.477,0,0,0,3.3-4.1v-.9a15.665,15.665,0,0,1,2.7-8.1l3-4.1a62.8,62.8,0,0,0,4.5-6.9l2.2-3.9a7.437,7.437,0,0,1,7.2-3.3l2.7.5a38,38,0,0,1,8.1,2.5l1.5.7a40.758,40.758,0,0,0,7.7,2.5l6.3,1.2a15.445,15.445,0,0,1,7.4,4.3l1.3,1.5a3.678,3.678,0,0,0,4.8.6l17.2-11.9a11.451,11.451,0,0,1,8.3-1.4l11.8,3.3a32.458,32.458,0,0,1,7.7,3.8l7.8,6a16.037,16.037,0,0,1,4.8,7l3.3,11a3.663,3.663,0,0,0,4.1,2.4l6-1.4a34.568,34.568,0,0,0,7.5-3l2.5-1.4a18.68,18.68,0,0,1,8.3-2.2h17.5a.756.756,0,0,1,.4.1l.7-1.7a17.986,17.986,0,0,1,4.9-6.4l10.7-7.9A7.6,7.6,0,0,0,1157-25.4Z" fill="#dbcab9"/>
              </g>
            </g>
          </g>
        </g>
        <path id="パス_234" data-name="パス 234" d="M228.2,148.7a13.354,13.354,0,0,0,.7-1.8c.9-3,1.8-6.3.7-9.3a12.767,12.767,0,0,1,.7-10.3l.3-.6c1.5-3.2.9-7.3-1.3-9.1-2.2-1.9-6.1-1.4-8.7,1L217,122a26.533,26.533,0,0,1-8.9,5.5c-2.3.6-5.2,3.9-6.4,7.2l-1.7,4.9c-.8,2.2-1.4,5.1-.3,7.3.7,1.1,1.2,2.3,1.8,3.4.7,2.1-.1,4.8-.4,7l-1.9,9.8a48.129,48.129,0,0,1-6.9,17.1c-.1.1-.2.2-.2.3a5.559,5.559,0,0,0-.9,1.7,1.789,1.789,0,0,0,.5,1.8,2.6,2.6,0,0,0,1.5.4c2.2,0,4.1-.9,6.2-.9a6.944,6.944,0,0,1,6.8,6.4l.1,1.8c.2,3.5-.8,6.9-2.2,7.5-3.1,1.4-4.5-2.1-6.3-3.6a3.508,3.508,0,0,0-4-.6,5.731,5.731,0,0,0-1.1,1.1c-1.1,1.5-2.6,4.3-4.8,4.3-2.5,0-4.1-3.4-4.6-5.4-.1-.5-.4-1.1-.9-1.1s-.7.7-.8,1.3c-.3,2.4-1.4,4.6-1.8,6.9-.3,1.4-.7,2.9-1,4.3A88.915,88.915,0,0,0,177,223l-1.2,17.3c-.2,3.5,2.3,5.6,5.7,4.7l8.7-2.4a10.26,10.26,0,0,0,6.9-8l.1-.9a65.195,65.195,0,0,1,3.1-12.3l1.7-4.3a31.343,31.343,0,0,1,6.6-9.8,18.787,18.787,0,0,0,4.9-10.2c.5-4.2,1.4-8.3,1.7-12.4a1.986,1.986,0,0,0-.1-1.1c-.7-1.4-2.7-.2-3.7-1-.8-.6-.6-2.6-.5-3.5a28.814,28.814,0,0,1,3.9-9.4l6.4-10.1C223.3,156.2,226.5,152.5,228.2,148.7Z" fill="#dbcab9"/>
      </g>
    </g>
  </g>
  <g id="グループ_216" data-name="グループ 216" transform="translate(-2682 -421)">
    <path id="パス_279" data-name="パス 279" d="M69.734,276.529a.511.511,0,0,0,.324-.072.337.337,0,0,1,.161-.054c.109,0,.235.09.487.325.234.233.306.341.306.414a.269.269,0,0,1-.162.27,1.141,1.141,0,0,0-.343.5,17.56,17.56,0,0,1-1.692,2.9,9.311,9.311,0,0,0,2.179,1.963,2.091,2.091,0,0,0-.522.666c-.054.09-.091.144-.144.144s-.127-.054-.253-.162a8.447,8.447,0,0,1-1.476-1.638v5.294c0,1.44.036,2.376.036,2.466,0,.126-.018.144-.162.144h-.792c-.126,0-.144-.018-.144-.144,0-.09.036-1.026.036-2.466v-4.718a22.388,22.388,0,0,1-2.017,1.89c-.126.108-.216.181-.27.181-.072,0-.108-.073-.162-.216a2.5,2.5,0,0,0-.432-.739,13.77,13.77,0,0,0,4.879-5.978H67.159c-1.3,0-1.693.037-1.8.037-.126,0-.144-.018-.144-.144v-.757c0-.126.018-.144.144-.144.108,0,.5.036,1.8.036h.414v-1.044a8.612,8.612,0,0,0-.144-2.035,7.763,7.763,0,0,1,1.17.126c.144.018.216.072.216.144a.768.768,0,0,1-.108.343,4.416,4.416,0,0,0-.108,1.386v1.08Zm11.181-1.152c0,.108-.018.126-.144.126-.09,0-.684-.018-2.449-.018H73.515c-1.765,0-2.341.018-2.449.018-.126,0-.144-.018-.144-.126v-.756c0-.126.018-.144.144-.144.108,0,.684.036,2.449.036h4.807c1.765,0,2.359-.036,2.449-.036.126,0,.144.018.144.144Zm-.36,10.677c0,2.773.035,3.223.035,3.331s0,.126-.126.126h-.792c-.125,0-.144-.018-.144-.126v-.7H72.236v.81c0,.126-.018.144-.144.144h-.756c-.126,0-.144-.018-.144-.144,0-.108.036-.558.036-3.367v-1.638c0-1.657-.036-2.143-.036-2.233,0-.126.018-.144.144-.144.108,0,.684.036,2.413.036h4.285c1.71,0,2.305-.036,2.412-.036.126,0,.126.018.126.144,0,.09-.017.558-.017,1.98Zm-1.081-6.644c0,.864.036,1.116.036,1.206,0,.127-.018.145-.144.145-.09,0-.594-.036-2.089-.036H74.415c-1.494,0-2,.036-2.107.036-.126,0-.144-.018-.144-.145,0-.09.036-.342.036-1.206v-1.188c0-.883-.036-1.117-.036-1.224,0-.127.018-.144.144-.144.108,0,.613.035,2.107.035h2.862c1.5,0,2-.035,2.089-.035.126,0,.144.017.144.125s-.036.36-.036,1.225Zm-4.159,3.637H72.236V284.9h3.079Zm0,2.737H72.236v2h3.079Zm3.115-8.031H73.244v2.107H78.43Zm1.1,5.294H76.287V284.9h3.241Zm0,2.737H76.287v2h3.241Z" transform="translate(2706 471)" fill="#3a4348"/>
    <path id="パス_280" data-name="パス 280" d="M96.412,274.44c1.8,0,2.413-.035,2.521-.035.126,0,.144.018.144.144,0,.09-.037,1.224-.037,3.655v6.878c0,1.44.019,2.3.019,2.881a1.4,1.4,0,0,1-.433,1.188c-.27.216-.774.342-2.16.342-.342,0-.36,0-.432-.342a3,3,0,0,0-.36-.846c.522.054,1.1.072,1.6.072.469,0,.666-.2.666-.72V275.449H86.113v10.713c0,2.251.036,3.259.036,3.349,0,.126-.018.144-.144.144h-.883c-.125,0-.144-.018-.144-.144,0-.108.037-1.134.037-3.6v-7.724c0-2.485-.037-3.547-.037-3.637,0-.126.019-.144.144-.144.108,0,.721.035,2.521.035Zm.63,5.906c0,.127-.018.144-.162.144-.09,0-.666-.035-2.377-.035H92.469V285.5h2.466v-1.531a7.228,7.228,0,0,0-.126-1.818c.433.018.865.054,1.117.09.126.018.2.072.2.162a.45.45,0,0,1-.072.252c-.072.126-.108.342-.108,1.332v1.783c0,.846.036,1.206.036,1.3,0,.125-.018.144-.144.144H95.08c-.126,0-.145-.019-.145-.144V286.4H89.12v1.117c0,.126-.018.144-.144.144H88.22c-.127,0-.144-.018-.144-.144,0-.109.035-.469.035-1.4V284.02A9.188,9.188,0,0,0,88,282.183a9.084,9.084,0,0,1,1.1.108c.144.018.216.072.216.126a.841.841,0,0,1-.108.342,3.734,3.734,0,0,0-.09,1.261V285.5h2.34v-5.041H89.57c-1.747,0-2.305.035-2.413.035-.126,0-.144-.017-.144-.144v-.7c0-.126.018-.144.144-.144.108,0,.666.036,2.413.036h3.061a22.925,22.925,0,0,0,1.26-2.467,5.588,5.588,0,0,0,.288-.918,5.445,5.445,0,0,1,.99.414c.126.072.181.108.181.216,0,.09-.09.162-.163.217a1.19,1.19,0,0,0-.306.432c-.288.576-.7,1.35-1.17,2.106H94.5c1.711,0,2.287-.036,2.377-.036.144,0,.162.018.162.144Zm-7.67-4.033c.18-.09.2-.108.288,0a11.758,11.758,0,0,1,1.206,2.071c.054.126.018.162-.2.27l-.432.216c-.234.126-.27.126-.324,0A11,11,0,0,0,88.8,276.8c-.072-.108-.054-.144.144-.252Z" transform="translate(2706 471)" fill="#3a4348"/>
    <path id="パス_281" data-name="パス 281" d="M108.343,286.324a1.844,1.844,0,0,0-.5.378,12.925,12.925,0,0,1-3.2,2.251.67.67,0,0,1-.27.108c-.09,0-.144-.09-.27-.27a1.634,1.634,0,0,0-.576-.54,11.309,11.309,0,0,0,3.313-2.071,4.2,4.2,0,0,0,.7-.864,5.157,5.157,0,0,1,.883.54c.144.108.179.2.179.252,0,.09-.126.18-.252.216m10.209-1.854c0,.126-.018.144-.144.144-.09,0-.684-.036-2.467-.036h-4.393v2.772c0,1.549.037,2,.037,2.089,0,.126-.019.144-.145.144h-.918c-.126,0-.144-.018-.144-.144,0-.108.036-.54.036-2.089v-2.772h-3.565c-1.783,0-2.395.036-2.485.036-.126,0-.144-.018-.144-.144,0-.109.036-.739.036-2.251v-4.862a9.19,9.19,0,0,0-.126-1.962,8.1,8.1,0,0,1,1.206.108c.126.018.217.072.217.144a1.114,1.114,0,0,1-.109.36,4.482,4.482,0,0,0-.089,1.314v6.3h10.586c1.783,0,2.377-.036,2.467-.036.126,0,.144.018.144.144Zm-2.232-4.43c0,1.351.036,1.855.036,1.945,0,.126-.09.144-.234.144-.09,0-.577-.036-2.215-.036H110.27c-1.657,0-2.2.036-2.305.036-.126,0-.216-.018-.216-.144,0-.09.036-.594.036-1.945v-3.763c0-1.332-.036-1.837-.036-1.945,0-.126.018-.144.144-.144.108,0,.649.037,2.305.037h3.709c1.638,0,2.2-.037,2.287-.037.144,0,.162.018.162.144,0,.091-.036.613-.036,1.945Zm-1.045-4.951h-6.464v1.477h6.464Zm0,2.268h-6.464v1.495h6.464Zm0,2.269h-6.464v1.639h6.464Zm-1.314,5.87c.18-.126.234-.144.324-.054a12.434,12.434,0,0,0,4.087,2.7,2.08,2.08,0,0,0-.558.613c-.108.2-.18.27-.27.27a.67.67,0,0,1-.27-.108,15.853,15.853,0,0,1-3.817-2.881c-.09-.09-.054-.144.126-.288Z" transform="translate(2706 471)" fill="#3a4348"/>
    <path id="パス_282" data-name="パス 282" d="M121.716,289.223l15.467-16.007.666.648L122.4,289.853Z" transform="translate(2706 471)" fill="#3a4348"/>
    <path id="パス_283" data-name="パス 283" d="M156.515,276.133c0,.126-.018.144-.144.144-.09,0-.666-.036-2.4-.036h-4.249c-.126.594-.27,1.171-.414,1.729h2.448c1.639,0,2.2-.036,2.3-.036.126,0,.144.018.144.144,0,.09-.036.594-.036,1.98v3.962c0,1.368.036,1.872.036,1.962,0,.144-.018.162-.144.162-.108,0-.666-.036-2.3-.036h-3.709c-1.656,0-2.214.036-2.3.036-.144,0-.162-.018-.162-.162,0-.09.036-.594.036-1.962v-3.962c0-1.386-.036-1.89-.036-1.98,0-.126.018-.144.162-.144.09,0,.648.036,2.3.036h.181c.144-.576.27-1.153.4-1.729h-4.9c-1.728,0-2.305.036-2.4.036-.126,0-.143-.018-.143-.144v-.756c0-.126.017-.144.143-.144.09,0,.667.036,2.4.036h5.078l.144-.738a6.22,6.22,0,0,0,.09-1.225,8.2,8.2,0,0,1,1.188.18c.126.036.2.09.2.181a.466.466,0,0,1-.126.27,1.279,1.279,0,0,0-.216.612l-.144.72h4.033c1.729,0,2.305-.036,2.4-.036.126,0,.144.018.144.144Zm-.072,12.3c0,.126-.018.144-.144.144-.108,0-.72-.036-2.557-.036H143.371v.81c0,.126-.018.144-.144.144H142.4c-.126,0-.144-.018-.144-.144,0-.09.036-.63.036-1.98v-7.041a11.542,11.542,0,0,0-.144-2.268,10.711,10.711,0,0,1,1.206.108c.126.018.216.09.216.144a.886.886,0,0,1-.09.324,6.326,6.326,0,0,0-.108,1.656v7.274h10.371c1.837,0,2.449-.036,2.557-.036.126,0,.144.018.144.145Zm-3.313-9.561h-6.464v1.494h6.464Zm0,2.34h-6.464v1.567h6.464Zm0,2.414h-6.464v1.584h6.464Z" transform="translate(2706 471)" fill="#3a4348"/>
    <path id="パス_284" data-name="パス 284" d="M175.505,277.718c0,.126-.018.144-.145.144-.089,0-.647-.036-2.34-.036h-6.41c-.036,1.008-.108,1.909-.216,2.755h4.537c1.531,0,2.017-.036,2.107-.036.126,0,.18.054.162.2-.036.414-.054.846-.09,1.26a35.888,35.888,0,0,1-.648,5.438c-.342,1.386-.936,1.854-2.233,1.854-.342,0-1.062-.036-1.728-.108-.343-.036-.343-.036-.378-.414a2.213,2.213,0,0,0-.253-.846,14.049,14.049,0,0,0,2.287.216c.684,0,1.009-.378,1.188-1.1a32.817,32.817,0,0,0,.613-5.4H166.25a9.944,9.944,0,0,1-5.528,7.688.655.655,0,0,1-.27.108c-.108,0-.162-.09-.288-.288a2.226,2.226,0,0,0-.648-.576c4.321-2.125,5.816-4.807,5.906-10.749h-3.169c-1.675,0-2.251.036-2.341.036-.126,0-.144-.018-.144-.144v-.829c0-.126.018-.144.144-.144.09,0,.666.036,2.341.036H166.9v-1.386a7.905,7.905,0,0,0-.126-1.854,8.434,8.434,0,0,1,1.243.09c.143.018.216.071.216.144a.862.862,0,0,1-.108.342,3.914,3.914,0,0,0-.091,1.26v1.4h4.988c1.693,0,2.251-.036,2.34-.036.127,0,.145.018.145.144Z" transform="translate(2706 471)" fill="#3a4348"/>
    <path id="パス_285" data-name="パス 285" d="M194.224,277.105c0,.126-.018.144-.144.144-.108,0-.666-.036-2.377-.036H181.279c-1.711,0-2.287.036-2.377.036-.126,0-.144-.018-.144-.144v-.828c0-.126.018-.144.144-.144.09,0,.666.036,2.377.036h4.411v-.81a7.825,7.825,0,0,0-.126-1.837,9.383,9.383,0,0,1,1.26.108c.126.018.216.072.216.126a.842.842,0,0,1-.108.342,4.68,4.68,0,0,0-.09,1.261v.81H191.7c1.711,0,2.269-.036,2.377-.036.126,0,.144.018.144.144Zm-4.339,2.881c1.836,0,2.485-.036,2.575-.036.126,0,.144.018.144.144,0,.108-.036.666-.036,2.035v2.358c0,.541.018,1.081.018,1.531a1.222,1.222,0,0,1-.4,1.08c-.288.27-.721.4-2.359.4-.342,0-.36-.018-.432-.324a2.3,2.3,0,0,0-.324-.792c.576.036,1.134.054,1.566.054.558,0,.774-.162.774-.757v-4.681h-4.573v5.852c0,1.8.036,2.575.036,2.665,0,.126-.018.144-.144.144H185.8c-.126,0-.144-.018-.144-.144,0-.09.036-.864.036-2.665v-5.852h-4.1v4.214c0,1.548.035,2.07.035,2.16,0,.126-.018.144-.144.144h-.954c-.108,0-.126-.018-.126-.144,0-.09.036-.54.036-2.143V282c0-1.333-.036-1.8-.036-1.909,0-.126.018-.144.126-.144s.738.036,2.575.036h2.593v-.342a9.3,9.3,0,0,0-.108-1.837,9.366,9.366,0,0,1,1.242.108c.126.018.216.072.216.144a.934.934,0,0,1-.108.343,3.667,3.667,0,0,0-.09,1.224v.36Z" transform="translate(2706 471)" fill="#3a4348"/>
    <line id="線_2" data-name="線 2" x2="197.428" transform="translate(2769.08 766.5)" fill="none" stroke="#3a4348" stroke-miterlimit="10" stroke-width="0.5"/>
    <path id="パス_286" data-name="パス 286" d="M260.32,299.26a3.76,3.76,0,1,0-3.76-3.76,3.761,3.761,0,0,0,3.76,3.76" transform="translate(2706 471)" fill="#3a4348"/>
  </g>
</svg>
