<?xml version="1.0" encoding="utf-8"?>
<!-- Generator: Adobe Illustrator 24.1.0, SVG Export Plug-In . SVG Version: 6.00 Build 0)  -->
<svg version="1.1" id="レイヤー_1" xmlns="http://www.w3.org/2000/svg" xmlns:xlink="http://www.w3.org/1999/xlink" x="0px"
	 y="0px" viewBox="0 0 775 1000" style="enable-background:new 0 0 775 1000;" xml:space="preserve">
<style type="text/css">
	.st0{clip-path:url(#SVGID_2_);}
	.st1{fill:none;stroke:#DBCAB9;stroke-width:0.2773;}
	.st2{fill:#DBCAB9;}
	.st3{fill:#3A4348;}
	.st4{fill:none;stroke:#3A4348;stroke-width:0.5545;stroke-miterlimit:10;}
</style>
<g id="レイヤー_2_2_">
	<g id="レイヤー_2_1_">
		<g id="デザイン-2500px">
			<g>
				<g>
					<g>
						<defs>
							<rect id="SVGID_1_" x="217.8" y="0" width="635.2" height="939.4"/>
						</defs>
						<clipPath id="SVGID_2_">
							<use xlink:href="#SVGID_1_"  style="overflow:visible;"/>
						</clipPath>
						<g class="st0">
							<path class="st1" d="M398.7,446.5c1.6-1.7,4.1-4.4,5.6-6.2l8-8.9c2-2.1,4.2-3.9,6.7-5.4l7.5-4.2c1.7-1.1,2.7-3,2.6-5.1
								l-0.6-5.3c-0.4-2.6-1.2-5.1-2.3-7.4l-1.3-2.5c-0.9-1.7-2.7-2.5-3.7-2.1c-1.5,0.6-2.8,1.8-3.4,3.3c-0.7,2-3.3,4.1-6,4.6
								l-0.5,0.1c-2.6,0.6-5.9-0.2-7.4-1.6c-1.5-1.3-3.3-2.2-5.2-2.8c-2.6-0.8-4.9-2.3-6.9-4.2l-0.9-1c-1.8-1.7-4-2.8-6.4-3.3
								l-8.4-1.3c-2.5-0.3-5,0.1-7.3,1l-1.3,0.6c-2.7,1.1-5.6,1.6-8.5,1.5l-12-0.8c-2.9-0.3-5.6-1.9-7.4-4.2l-3.5-4.9
								c-3.2,7.8-17.1,9.4-18.5-0.6l-0.4-3c-0.6-3.9-2.8-8.2-4.9-9.5c-2.1-1.3-5.4-1.9-7.3-1.3c-3.3,1-4.1,3.7-6.2,6
								c-0.5,0.5-0.9,1-1.3,1.6c-1,1.9,4.8,8.4,1.3,9.6c-1,0.2-2,0-2.9-0.4l-2.6-1c-0.9-0.4-2.2-0.7-2.8,0.2c-0.3,0.6-0.3,1.3,0,1.9
								c1.1,3.5,2.1,7.1,2.7,10.8c0.4,1.9,0.7,3.8,1.1,5.8c0.2,1.2,0.2,3.5,1.6,4.2c1.3,0.6,4.8-1.9,4.8,1c0,1.3-2,4.2-4.4,6.4
								c-2.4,2.2-5.9,2-7.6-0.4c-0.1-0.1-0.2-0.3-0.3-0.4l2.3,14.3c0.4,2.2,1.2,5.8,1.8,8l0.7,2.4c0.8,2.5,1.9,4.9,3.3,7.1l1.7,2.5
								c1.5,1.9,3.5,3.3,5.7,4l5.1,1.3c2.8,0.8,5.4,2.1,7.8,3.8l3.5,2.8c2.2,1.7,2.5,4.8,0.9,7c-0.1,0.1-0.2,0.3-0.3,0.4l-1.3,1.4
								c-1.1,1.2-1,3,0.1,4.1l0.1,0.1l0.5,0.4c2.1,1.9,4,4.1,5.6,6.5l3.4,5.2c1.4,1.9,3.4,3.4,5.7,4.1l3.1,0.9
								c2.8,0.9,5.3,2.7,7.1,5l0.1,0.2c1.4,1.8,3.5,3,5.7,3.3l14.6,1.7c0.3-0.3,0.7-0.6,1-0.9c0.4-0.3,0.8-0.7,1.2-1.1
								c0.3-0.4,0.4-1,0.3-1.5c-0.2-0.4-0.4-0.7-0.7-1c-4.1-4-6.4-10.1-9.1-15.2l-5.2-9.6c-1.9-3.6-0.7-8,2.7-10.2l12.6-7.8
								c3.4-2.1,7.7-1.9,9.5,0.4c1.6,2,5.3,3.6,8.9,3.9c1-1.7,2.1-3.3,3.3-4.8L398.7,446.5z"/>
							<path class="st1" d="M420.8,490.1l1.2-4.2c0.9-2.8,2.8-5.2,5.2-6.8l7.8-4.5c2.6-1.4,5.5-2,8.5-1.7l2.4,0.3
								c1.9,0.2,3.7-0.8,4.6-2.6l0.5-1.1c1.3-2.7,3.9-4.4,6.9-4.5h5.8c2.9,0.1,5.7,1.3,7.9,3.4l1.5,1.6c1.7,1.6,3.9,2.6,6.3,2.8
								l6.9,0.2c-1.5-2.3-2.2-5.1-2-7.8l1.6-12.7c0.3-1.8,0.1-3.7-0.6-5.5c-1.1-1.7-0.9-4.7-0.1-6.7c0.8-2.4,1.3-4.9,1.5-7.5l1-16.4
								c0.3-2.9,1.3-5.7,3-8.1l1.1-1.5c1.4-2.1,2.4-4.5,2.8-7v-0.2c0.5-2.9,2.2-5.5,4.6-7.2l4.4-2.8c2-1.2,5.2-3.2,7.2-4.3l4.2-2.4
								c2.6-1.3,5.7-1.5,8.4-0.6c2.5,1,5.1,1.7,7.7,2.3l4.4,0.9c2.1,0.4,4.3,0.1,6.3-0.9c1.4-1.1,1.9-3,1.5-4.7l-2.5-9.5
								c-0.6-2.9-0.2-5.9,1.1-8.5l3.3-5.5c-3.6-0.9-7.2-1.6-10.9-2c-3.4-0.4-7.9-3.5-9.9-7l-6.7-11.3c-2.3-4.2-3.8-8.7-4.4-13.4
								l-0.2-2.5c-0.4-4-1.7-8.5-2.9-10.1c-1.2-1.6-1.5-5.2-0.6-8.1c1.3-3.9,3-7.7,4.8-11.4c1.8-3.3,2.3-7,1.3-8
								c-1.1-1.1-2.6-1.7-4.2-1.9c-1.3,0-4.4,2.1-7.1,4.7c-2.2,2.2-4.6,4.2-7.2,5.9c-2.2,0.8-4.5,1.2-6.8,1.3c-2.8,0-5.4-1-7.5-2.8
								c-2-1.9-2.2-6.7-5.1-7.2c-1-0.1-2,0-3,0.2c-3.8,0.8-8,1.1-11.6,2.6c-2,0.6-4.1,0.8-6.1,0.7c-2.2-0.1-5.8,2.4-8.1,5.6
								l-0.3,0.4c-2.8,3.5-7,5.6-11.4,5.7l-5-0.1c-8.2-0.2-17,10.7-17,18.5v0.6c-0.3,4-0.3,7.9-0.1,11.9c0.2,2.6-1.8,6.2-4.6,8
								c-3.5,2.6-6.4,5.8-8.8,9.5l-4.3,6.9c-2.6,3.7-6.6,6.1-11,6.7l-0.8,0.1c-4.5,0.1-8.9-1.6-12.1-4.8l-0.2-0.3
								c-2.7-2.9-7.3-3.2-10.2-0.5c-3.5,3.1-6.9,4.8-11.1,7.1c-1.1,0.6-2.3,1.4-2.5,2.6c-0.3,1.8,1.6,3.1,3.2,3.9
								c1.7,0.8,3.6,1.8,3.6,3.7c0,5.4-9.7,7.3-13.4,7.2c-1.4,0-3-0.2-4.1,0.6c-1.2,0.8-1.5,2.3-1.8,3.8l4.6,6.4
								c1.4,1.8,3.4,2.9,5.7,3.2l12,0.8c2.5,0.1,5.1-0.4,7.4-1.3l1.3-0.6c2.7-1.1,5.7-1.5,8.6-1.1l8.4,1.3c2.9,0.6,5.5,2,7.7,4
								l0.9,1c1.6,1.6,3.6,2.8,5.8,3.5c2.3,0.6,4.4,1.8,6.2,3.3c1.6,1.1,3.5,1.5,5.3,1.1l0.5-0.1c1.8-0.4,3.4-1.5,4.3-3.2
								c0.9-2.2,2.7-3.9,4.9-4.7c2.2-0.7,5.1,0.7,6.4,3.2l1.3,2.5c1.3,2.6,2.1,5.4,2.6,8.2l0.6,5.3c0.2,3-1.2,5.8-3.7,7.3l-7.5,4.2
								c-2.3,1.4-4.3,3-6.1,4.9l-8,8.9c-1.5,1.7-4.1,4.5-5.6,6.2l-8.9,9.5c-0.8,1-1.6,2.1-2.3,3.2l1.7-0.1c4.3,0.1,8.3,2.5,10.3,6.3
								l0.6,1.3c1.1,2.5,1.7,5.2,1.9,8c0.3,2.8-1.1,5.1-2.5,7.4c-0.6,0.8-1,1.6-1.1,2.6c0,0.9,0.2,1.7,0.6,2.5
								c0.2,0.4,0.4,0.8,0.7,1.1l15.5,2.8C418.6,492.7,420.2,491.7,420.8,490.1z"/>
							<path class="st1" d="M355.5,645.5l0.4-1.8c0.7-2.5,2.6-4.5,5-5.4l1.4-0.4c2.5-0.9,4.4-2.8,5.2-5.3c0.8-3.1,1.1-6.9,2.9-9.5
								c0.3-0.4,0.8-0.9,1.2-0.7c1.1,0.5-0.2,2.4,0.4,3.1c0.5,0.5,1.3,0.5,1.8,0.1c0.5-0.5,1-1,1.4-1.5c2.6-2.6,6.2-3.9,9.8-3.5
								c1.8,0.2,3.7,0.6,5.4,1.2c2.2,1,4.7,1.4,7.1,1.2c4.9-0.6,6.2-5.5,8-9.4c1.4-3.1,2.9-6.2,4.3-9.3c1-2.1,0.1-4.7-1.9-5.8
								c-2.4-1.1-5.1-1.2-7.6-0.4l-30.4,12.3c-1.7,0.8-3.6,0.1-4.4-1.6c-0.2-0.3-0.3-0.7-0.3-1l-0.9-4.9c-0.4-2-0.6-4.1-0.7-6.1
								c-0.1-1.5,0.1-4.4-0.8-5.5c-0.4-0.5-1-0.7-1.6-0.8c-0.6,0-1.2,0.1-1.8,0.3c-1.8,0.6-3.3,1.5-5.2,2.2l-5.5,1.9l-6.5,2.2
								c-2.5,1-4.4,2.9-5.5,5.3l-4.1,10.5l-3.3,8.5c-0.9,2.8-1.9,5.6-3.1,8.3c-0.2,0.4-0.5,0.9-0.8,1.3c-0.8,1.1-1.8,2.2-1.8,3.6
								c0,1.4,1.2,2.7,2,4c1.1,1.9,1.1,3.7,1.1,5.8l-1.6,10.7c-0.5,3.7,0.4,8.2,3.2,10.8c0.6,0.7,1.5,1.1,2.4,1.3
								c0.7,0.1,1.5-0.1,2.2-0.4c2.7-1.1,4.4-3.6,6.7-5.4c1.4-1.1,2.9-2.2,4.3-3.3l7.8-5.8C353.3,650.5,354.8,648.1,355.5,645.5z"/>
							<path class="st1" d="M551,821.4l1.2-6.9c0.3-2.4-0.1-4.8-1.2-7l-1.3-2.4c-1.3-2-3.2-3.6-5.4-4.5l-15.4-5.4
								c-2.7-1.1-5.1-2.9-6.9-5.2l-11.9-17.1c-1.6-2.1-3.4-3.9-5.5-5.4l-3.5-2.3c-2.4-1.7-4.1-4.2-5-7l-3-12c-0.7-2.3-2-4.5-3.7-6.2
								l-6.9-6.1c-2.1-2-4-4.2-5.5-6.7l-7.3-12.2c-1.2-2-3.1-5.2-4.2-7.3l-6-10.9l0,0c-1.3-2.3-2.9-4.5-4.6-6.6l-3.7-4.2
								c-1.7-1.8-3.9-3-6.2-3.7l-5.1-1.2c-2.1-0.3-4.2,0.3-5.7,1.8l-3.4,3.8c-2,2.1-4.6,3.7-7.4,4.4l-7,1.6
								c-2.9,0.5-5.8,0.4-8.6-0.5l-0.7-0.3c-2.7-1.1-5.2-2.6-7.3-4.6l-8.4-7.8c-1.9,1.7-4.3,2.9-6.8,3.3l-15.7,2.2
								c-2.9,0.6-5.8-1.3-6.4-4.2c-0.1-0.6-0.1-1.3,0-2l0.2-1.7c0.4-3.9-0.2-8.5-1.4-10.1c-1.8-2.4-4.9-1.9-7.5-2.1
								c-1.1-0.2-2.3-0.1-3.3,0.5c-1.2,0.9-1.2,2.6-1.1,4.1c0.3,4.7,0.6,9.5,2.6,13.8c1.3,3,3.2,5.7,5.4,8c1.8,1.5,3.8,2.6,6.1,3.3
								c1.9,0.6,3.3,2.2,3.6,4.2c0.1,2.3-0.7,4.6-2.2,6.3c-1.5,1.6-1.9,6.1-1.1,10l2.2,9.9c0.8,4.5,0.8,9.1-0.2,13.5
								c-1.1,4.5-1.9,9-2.4,13.6L363,756c-0.2,4.5,1.5,8.9,4.6,12.1l8.9,8.2c3.1,2.9,5.7,6.3,7.8,10c1.5,4,2.3,8.2,2.3,12.4v18.6
								c0,4-1.7,9.3-3.7,11.9c-2.9,3.1-6.5,5.5-10.5,7l-0.4,0.1c-3.6,1.2-7.2,1.9-10.6-0.3c-0.8-0.7-1.8-1.3-2.7-1.7
								c-1.1-0.3-2.2-0.4-3.3-0.2c-0.8,0-1.5,0.2-2.2,0.4c-0.7,0.3-1.3,0.8-1.5,1.6c-0.1,0.8,0,1.6,0.5,2.2c0.6,1,1.1,2.1,1.8,3.1
								c1.6,2.6,3.7,5.1,4.8,5.6c3.6,1.8,2.4,8.2,5.3,10.6c1,0.9,2.2,1.4,3.2,2.2c0.8,0.5,1.3,1.5,1.3,2.5c-0.2,0.7-0.5,1.3-0.9,1.8
								c-0.9,1.3-1.6,3.5-0.8,5c1.1,2.1,4.4,4.1,7.2,4.5s8.5,0.6,12.4,0.6h21.8c4.4,0.2,8.3,2.7,10.5,6.4l2.1,4.1
								c1.8,3.5,6.1,6.4,9.5,6.4s8.5-2.4,11.2-5.3l0.4-0.4c2.7-3.1,3.1-7.7,0.9-11.2l-4.9-7.4c-2.6-4-5-8.2-7-12.6l-5.7-13.1
								c-1.7-4.4-2.2-9.1-1.5-13.7l2.4-11.6c1.1-4.6,2.8-9.1,5.1-13.3l6.7-11.6c2.1-3.7,3.8-7.6,4.9-11.7c0.7-3,3.1-6.5,5.3-7.8
								c3.2-1.5,6.6-2.4,10.1-2.6c3.4-0.2,8.8,1.5,11.9,3.9l3.4,2.6c3.2,2.4,5.2,6.1,4.4,8.3c-0.7,2.2-2.1,7.1-3,11l-0.5,2
								c-0.9,3.9-4,7.3-6.8,7.6c-2.9,0.3-5.9-0.6-6.8-2.1c-0.9-1.4-2.2-3.9-3-5.4s-4.6-2.1-8.4-1.2c-3.9,0.9-7.6,2.3-8.2,3.2
								s-0.5,3.1,0.4,4.8c1.1,2,2.6,3.7,4.4,4.9c1.7,1,3.7,1.3,5.7,1c1.6-0.4,3.3-0.6,5-0.4c1.2,0.2,2,3.7,1.8,7.7l-0.3,5.1
								c0,4.7,1.2,9.3,3.6,13.3l9.4,14.4c2.3,3.9,3.1,8.6,2.2,13.1l-2.2,8.8c-0.4,1.8-0.7,3.7-1.2,5.4c-0.9,2.9-2,5.2-1.5,8.4
								c0.3,2.2,0.7,4.1,0.2,6.3c-0.5,2-3.4,5.7-6.5,8.2c-2.7,2.2-4.9,5.1-8.4,6.1c-0.7,0.2-1.5,0.4-2.2,0.6
								c-0.7,0.3-1.3,0.8-1.6,1.5c-0.2,0.9,0,1.9,0.4,2.7c0.9,2.2,2.5,4.8,1,7.2c-0.5,1-0.9,2.1-1.1,3.2c-0.4,1.2-0.9,2.3-1.7,3.3
								c-0.4,0.5-0.6,1.1-0.5,1.7c0.3,0.8,1.3,0.9,2.1,0.9c2.5-0.1,5-1.1,6.9-2.8c1.7-1.4,4.1-2.8,5.2-4.9c0.8-1.5,4.5-4,8.2-5.4
								l14.4-5.6c4.4-1.8,8.6-4.2,12.6-6.9l3.1-2.3c3.7-2.9,6.9-6.4,9.4-10.3c2.1-3.5,3.1-6.8,6.5-9.2c2.5-1.6,4.8-3.5,6.9-5.6
								c1.3-1.4,2-3.1,3.3-4.5c0.3-0.3,0.5-0.7,0.6-1.1c0.1-0.7-0.5-1.3-0.9-1.8c-1.5-1.8-1.7-3.8-1.6-6c0.1-2.2-0.2-4.5-0.1-6.8
								c0.1-0.3,0-0.7-0.3-0.9c-0.1-0.1-0.3-0.1-0.5-0.1h-2.8c-0.7,0-1.5-0.1-2.1-0.3c-2.4-1-3.1-5.5-2.4-7.7c1.7-4.2,4.4-8,7.8-11
								l3.6-3c3.5-2.6,8.1-3.4,12.3-2l5.7,2.2l1.8-2.7C549.4,826.3,550.5,823.9,551,821.4z"/>
							<path class="st1" d="M658,541.5c-2.7,0.3-5.4,0.8-8,1.4l-6.1,1.7c-2.5,0.8-4.9,1.9-7.2,3.3l-1.6,1.1
								c-2.5,1.5-5.3,2.5-8.1,2.9l-6.2,0.7c-0.2,0-0.5,0-0.7,0c-2.7-0.1-5.2-1.4-6.8-3.6l-2.1-3.2c-1.5-2.2-3.2-4.3-5.1-6.3
								l-1.7-1.7c-1.6-1.3-3.7-1.8-5.7-1.3l-5.7,2.1c-2.8,0.9-5.7,1.2-8.6,0.8l-14.9-2.3c-2-0.2-3.9,0.8-4.9,2.5l-4,7.5
								c-1.4,2.5-2.9,4.9-4.6,7.1l-8.7,11.2c-1.6,2.1-3,4.4-4.1,6.9l-4.4,9.9c-1.3,2.6-3.1,4.9-5.3,6.8l-14.3,11.6
								c-1.6,1.5-2.5,3.6-2.5,5.8l1,13.8c0.3,2.1,1.6,4,3.4,5.1l5.4,2.8c2.6,1.5,4.6,3.7,5.8,6.4l3.1,7.8c1,2.8,0.2,5.9-2,7.9
								l-3.5,2.9c-1.9,1.7-3.4,3.8-4.5,6.1l-0.7,1.6c-0.7,1.7-0.1,3.6,1.4,4.7l2.2,1.4c2.4,1.7,3.9,4.4,4,7.4v1.2
								c-0.1,2.9-2.2,5.4-5,6.1l-7.6,1.4c-2.3,0.6-4.3,1.9-5.8,3.7l-0.8,1.1c-1.8,2.3-4.7,3.6-7.6,3.5l-8.9-0.9
								c-2.1-0.1-4.1,0.9-5.3,2.6l-0.8,1.2c-1.7,2.4-4.5,3.8-7.5,3.6l-6.9-0.7c-2.5-0.2-5.1,0.2-7.5,1l-4.9,2l3.6,6.4
								c1.1,2,3,5.3,4.1,7.2l7.3,12.2c1.4,2.2,3.1,4.3,5,6.1l6.9,6.1c2.1,2,3.7,4.6,4.5,7.4l3,12.1c0.7,2.3,2.1,4.3,4,5.7l3.5,2.3
								c2.4,1.7,4.4,3.7,6.2,6l11.9,17.2c1.5,1.9,3.5,3.4,5.8,4.4l15.4,5.4c2.8,1.1,5.1,3,6.7,5.5l1.3,2.4c1.3,2.6,1.8,5.6,1.4,8.5
								l-1.3,6.9c-0.6,2.9-1.9,5.5-3.7,7.8l-1.4,2.1l0.4,0.2c3,1,5.9,2.4,8.5,4.3c2.2,1.8,3.8,4.2,6.1,6l1.2,1c3.1,2.4,6.7,4,8,3.5
								c1.4-0.8,2.3-2.4,2.2-4c0.2-2.2,1.3-4.3,2.9-5.8c1.8-2,2.9-4.6,2.9-7.3c-0.1-1.6,0.2-3.2,0.9-4.7c0.7-1.2,1.5-1.9,1-3.5
								c-0.3-1.1-1.1-2-1.1-3.1c0-0.7,0.2-1.4,0.4-2.1c0.6-2.1,1.3-4.3,2.2-6.3c0.7-1.2,1.4-2.5,2-3.7c1.4-2.7,3-5.3,4.8-7.8
								c2.2-3,3.9-7.5,3.9-10.1c0.3-4,1.1-7.9,2.4-11.6l4-11.6c0.8-2,2.2-7.7,0.6-9.6c-0.5-0.6-1.4-0.7-2.1-1.1
								c-0.6-0.4-1.1-0.9-1.6-1.6c-1.2-1.6-2.2-3-2.1-5c0.1-1.4,0.1-2.7,0-4.1c-0.3-4.8,0.3-9.5,1.7-14.1c1.2-3.6,2-7.3,2.4-11.1
								c0.2-1.7-0.2-3.3,0.2-5c0.5-1.9,1.5-3.5,2.1-5.4c0.6-1.8,0.6-3.5,1.3-5.2c0.9-2.5,2.4-4.5,3.1-7.1c0.5-2.4,1.2-4.8,2.1-7.1
								c1.2-3.2,2-6.6,2.4-10l0.4-3c0.8-4.7,1.9-9.4,3.3-14l0.2-0.7c1.5-4.5,3.5-8.9,5.8-13.1l4.3-7.4c2-3.4,3.5-8.2,3.3-10.6
								c-0.1-2.5,1.2-4.9,3.4-6.2c3.3-1.6,3.9-6.7,4-9.8c0.1-3.5,2-6.7,4.9-8.5c1-0.5,1.9-1.2,2.7-1.9s1.2-1.9,0.9-3
								c-0.5-0.9-1.2-1.5-2.1-1.9c-2.1-1.4-4.1-7.2-3.4-9.7c0.5-1.7,3.3-5.1,6.4-7.7l3.7-3.1c3-2.6,5.9-6,6.5-7.6
								c0.5-1.6,3.7-4.6,7.1-6.7l1.1-0.7c3.4-2.1,5.8-5.2,5.4-7c-0.3-2.1,0.5-4.2,2.1-5.5c1.7-1.4,3-3.2,3.8-5.2
								c0.3-0.8,0.7-1.5,1.1-2.2c-2.5-1.5-5.8-2.9-7-2.8L658,541.5z"/>
							<path class="st1" d="M699.4,506.1c-2.9-0.6-5.8-1.4-8.6-2.4c-1.7-0.7-4.7-2-6.7-1.4c-1.1,0.4-2.3,0.5-3.5,0.3
								c-1.6-0.7,1.5-3.2,1.6-3.9c0-0.6-0.3-1.1-0.8-1.4c-0.5-0.2-1.1-0.4-1.6-0.6c-2.4-1-2.1-2.7-1.5-4.6c0.6-2.2,0.9-4.5,1.1-6.8
								c0.2-2,3.6-4.2,7.6-4.9c0,0,1.3-0.2,1.6-0.2c1.1-0.1,2.2-0.3,3.3-0.6c0.7,0,1.4-0.2,2-0.5c0.7-0.3,1.1-1,1.1-1.7
								c0-0.1,0-0.2-0.1-0.3c-0.1-0.1-0.3-0.2-0.5-0.2c-3.1-0.2-6.1,0.1-9.1,0.8c-1.7,0.4-3.5,0.1-5.1-0.7c-1.7-0.9-3.6-1.3-5.5-1.4
								c-1.6,0-2.5-0.8-1.9-1.8c0.7-1.1,1.7-2.2,2.3-3.3c0.5-0.9,0.6-2,1.4-2.9c0.6-0.6,1.3-1,1.9-1.6c0.2-0.1,0.3-0.4,0.3-0.7
								c-0.1-0.3-0.4-0.4-0.7-0.5c-1.9-0.4-3.6,1.1-5.5,0.2c-0.4-0.2-0.7-0.3-1.1-0.5c-0.8-0.1-1.7,0-2.5,0.4
								c-2.6,0.8-3.6-1.4-4.2-3.6c-0.3-2.5-0.1-5,0.8-7.3c1.3-3,3.2-5.8,5.5-8.1c2.2-2.1,3.3-4.7,2.7-5.6c-1.2-1.3-2.7-2.2-4.3-2.8
								c-2.3-0.5-4.6-0.4-6.8,0.4c-2.1,0.8-6.9,1.1-10.7,0.7s-9.2-1.2-12-1.8c-4.1-0.7-8.2-0.8-12.3-0.4l-2.2,0.2
								c-4.3,0.4-8.7-0.4-12.7-2.1c-3-1.6-5.5-6-5.5-9.8s0.7-8.2,1.5-9.6s3.5-2.4,6-2.1c2.2,0.3,4.5,0.3,6.8,0
								c2.2-0.8,4.2-2,6.1-3.3c2.1-1.5,3.7-3.3,3.6-4.1c-0.5-1.3-1.4-2.4-2.6-3.2c-1.2-0.9-1-2.1,0.5-2.5c2.2-0.6,4.5-0.1,6.8-0.2
								c2.7-0.1,3.8-1.3,5.4-3.2c2.5-3.6,4-7.7,4.4-12.1l0.2-2.6c0.3-4,0.7-9.6,1-12.5s-1.4-7.9-3.8-11.1l-3.6-4.9
								c-2.1-2.9-3.5-5-4-8.5c0-0.6-0.2-1.1-0.5-1.6c-0.6-0.7-1.6-0.6-2.5-0.6c-3.1,0.2-5.7-1.1-8.6-2c-1.5-0.6-3.1-0.4-4.4,0.4
								c-0.8,0.7-1.4,1.8-2.4,2.1c-1,0-1.9-0.2-2.7-0.8c-2.3-1.2-5-1.2-7.3,0c-3.2,1.7-4.5,5.7-5.5,8.9c-1.4,4-3.8,7.6-6.9,10.5
								c-2.6,2.1-7.9,3.6-11.9,3.3l-13.9-0.8c-4.3-0.3-8.6-1.4-12.5-3.3c-2.9-1.5-5.9-2.9-9-3.9l-3.6,5.9c-1,2.1-1.3,4.5-0.8,6.8
								l2.6,9.5c0.7,2.7-0.2,5.5-2.5,7.2c-2.4,1.3-5.3,1.7-8,1.2l-4.4-0.9c-2.7-0.6-5.5-1.4-8.1-2.4c-2.1-0.7-4.4-0.5-6.4,0.5
								l-4.2,2.4c-2,1.1-5.2,3-7.1,4.3l-4.4,2.8c-1.8,1.3-3.1,3.3-3.6,5.5v0.2c-0.5,2.9-1.6,5.6-3.2,8l-1.1,1.5
								c-1.4,2.1-2.2,4.4-2.5,6.9l-1,16.4c-0.2,2.8-0.8,5.5-1.7,8.1c-0.6,1.5-0.6,3.2-0.1,4.7c1,1.6,1.3,4.8,1,7l-1.6,12.7
								c-0.2,2.3,0.5,4.6,1.8,6.5l0,0l0.9,1.2l8.7,10.9c1.5,1.7,3.6,2.8,5.9,3.1l11.1,0.6c1.2,0.2,2.3-0.7,2.5-1.9
								c0-0.2,0-0.5,0-0.7l-0.6-5c-0.4-2.4-1.5-4.5-3.2-6.3l-3.3-3.1c-2.1-2.1-2.8-5.2-1.9-8l1.2-3.2c1.2-2.7,3.5-4.7,6.4-5.5
								l2.5-0.5c2.9-0.5,5.9,0.3,8.2,2.1l2.1,1.8c1.9,1.5,4.2,2.3,6.6,2.4h7.3c2.7,0,4.9,2.1,4.9,4.8c0,0.2,0,0.4,0,0.6l-1,9.6
								c-0.1,2.3,0.6,4.6,2.1,6.4l11.8,13.3c1.9,2.3,2.6,5.3,1.9,8.2l-1.5,5.4c-0.5,2.2-0.1,4.5,1.1,6.4l4.3,6
								c1.6,2.4,2.8,5,3.7,7.8l1.9,6.8l13,2.1c2.5,0.3,5.1,0,7.5-0.7l5.7-2.1c2.8-0.9,5.9-0.2,8.1,1.8l1.7,1.7c2,2,3.8,4.3,5.4,6.7
								l2.1,3.2c1.2,1.7,3.2,2.6,5.3,2.5l6.2-0.7c2.5-0.4,4.9-1.3,7.1-2.6l1.6-1.1c2.4-1.5,5.1-2.7,7.8-3.6l6.1-1.7
								c2.8-0.7,5.6-1.2,8.4-1.5l11.1-0.9c1.8-0.1,5.7,1.4,8.6,3.2c0.3-0.3,0.5-0.6,0.8-0.8c1.4-1.1,3.1-1.8,4.8-2
								c1.8-0.2,3.5-0.8,5-1.8c1.3-0.9,2.7-1.8,4.2-2.5c1.4-0.9,2.6-2.2,3.3-3.6c0.9-1.7,0.6-3.3-0.7-3.7c-1.2-0.4-2.4-0.5-3.6-0.3
								c-0.7,0.2-1.3-0.6-1.5-1.8c0.1-1.7,0.7-3.4,1.8-4.7c1.2-1.6,2-3.5,2.4-5.4c0.4-3.2,3.1-5,5.7-6.3c0.5-0.2,1-0.6,1.1-1.1
								C700.9,506.6,700.1,506.3,699.4,506.1z"/>
							<path class="st1" d="M343.2,499.8l-0.1-0.1c-1.5-1.9-3.5-3.3-5.8-4.1l-3.1-0.9c-2.8-0.9-5.2-2.7-7-5.1l-3.4-5.2
								c-1.5-2.2-3.3-4.2-5.2-6l-0.5-0.4c-1.1-0.9-1.7-2.2-1.8-3.6s0.4-2.8,1.4-3.8l1.3-1.4c1-1,1-2.7-0.1-3.7
								c-0.1-0.1-0.2-0.1-0.2-0.2l-3.5-2.8c-2.1-1.5-4.4-2.7-6.9-3.4l-5.1-1.3c-2.8-0.9-5.3-2.6-7.1-4.9l-1.7-2.5
								c-1.6-2.4-2.8-5.1-3.6-7.8l-0.7-2.4c-0.6-2.2-1.4-6-1.8-8.3l-2.8-17.5c-0.9-0.8-1.9-1.3-3-1.6c-2.1-0.1-4.3,0.4-6.1,1.4
								c-2,1-4.3,0.7-6-0.7c-1.6-1.4-3.8-2.6-4.9-2.6c-2,0-4.1,0.6-6.1,0.3c-2.3-0.3-4.5-1.9-6.8-1.3c-0.3,0.1-0.5,0.2-0.8,0.4
								c-0.9,0.7-0.8,2.2-0.4,3.3c0.6,1.7,0.9,3.1,1.3,4.8l0.2,0.9c0.9,4.5,0.2,9.2-2,13.2l-2.2,3.6c-2.1,3.4-1.7,7.2,0.7,8.3
								c2.4,1.2,6.4,3.2,8.8,4.5c2.4,1.3,4.6,3.2,4.8,4.2c0.8,1.8,2,3.5,3.4,4.9c1,1,2.9,3.1,1.8,4.6c-0.4,0.5-0.9,0.9-1.5,1.1
								c-1.1,0.5-2.3,0.7-3.5,0.7c-0.4,0.3-0.2,1,0.2,1.3c0.4,0.2,0.9,0.3,1.4,0.3c3-0.1,5.8,0.2,8.3-1.8c1.5-1.2,3.5-1.7,5.4-1.5
								c1.7,0.5,2.9,2,3.1,3.8c0.3,3-1.8,5.1-1.6,8c0,1.5,0.8,2.8,2.1,3.5c0.3,0.2,0.6,0.2,0.9,0.2c0.5-0.1,0.9-0.3,1.3-0.7
								c3.3-2.3,7.7-0.6,11,0.9c2.5,1,5.1,1.4,7.8,1.1c2.3-0.4,6.1,1.1,8.4,3.3c2.7,2.9,4.4,6.5,5,10.4c0.4,4.1,0.4,8.3,0,12.4
								c-0.3,3.7,0.8,7.4,2.9,10.4c2,2.4,3.1,5.1,2.5,6s-2.8,0.9-4.8,0c-1.9-0.8-3.9-1.3-6-1.3c-1.9,0.4-3.7,1.3-5.3,2.5
								s-5.5,1.1-8.5-0.2c-3.1-1.3-5.5-5.5-5.5-9.3c0-3.5,0.4-7,1.1-10.4c0.5-1.7,0.9-3.5,1.1-5.3c0-1.2-0.3-2.4-1-3.4
								c-1.1-1.1-2.6-1.7-4.2-1.8c-1.8-0.2-3.8,1-5.5,0.1c-1-0.5-1.8-1.3-2.3-2.4c-1.3-2.4,0.1-5.4-1.1-8c-1.1-2.3-3.3-3.5-5-5.4
								c-1.1-1.3-2.3-2.4-3.6-3.5c-0.6-0.5-1.3-0.9-2-1.1c-0.8-0.2-1.6,0-2.1,0.6c-0.5,0.8-0.6,1.7-0.5,2.6c0,3.8-1.4,5.5-3.7,8.4
								c-0.2,0.3-0.4,0.6-0.5,0.9s-0.1,0.6-0.1,0.9c0,2,0.7,3.9,0.8,5.8s-1.3,3.3-3,4.2c-0.8,0.4-1.7,0.8-2.1,1.6
								c-0.1,0.3-0.2,0.7-0.2,1c0,3.8,3.2,8.6,5.8,11.3c1.8,1.9,4.1,6.6,5.2,10.4l0.3,1.1c1,3.8,2.1,8.3,2.3,10
								c0.2,1.7,3.3,2.7,6.9,2.4c3.6-0.3,8,2.3,10,5.8c2,3.6,4.4,8.2,5.5,10.5c1.6,3.3,2.3,6.3,0.7,9.8c-0.6,1.4-1.7,2.5-2.3,3.8
								c-0.6,1.5-1.1,3.1-1.5,4.6c-0.6,2.2-1.6,5.4,0.1,7.4c0.9,1,2.2,1.5,3.5,1.4c2.9-0.1,4.8-2.9,6.5-5l15.9-19.4
								c3.1-3.6,6.9-6.5,11.1-8.7l4.7-2.2c4.4-1.9,9.1-2.9,13.9-3.1h4.3c4,0,8.9,2.5,10.9,5.4s1.6,7.8-0.9,10.9
								c-0.9,1.1-1.9,2.2-2.7,3.3c-1.2,1.6-3.5,2.7-4.4,4.4c-0.3,0.6-0.4,1.3-0.4,1.9c-0.2,4.5,1.8,8.8,5.3,11.5
								c2.9,2.5,6.9,3.9,8.8,3.1c5.1-2.1,6.7-8,11.5-9.9c1.6-0.6,3.3-1.2,4.4-2.5c0.6-0.8,0.9-1.8,1.5-2.6c0.8-1,1.8-1.9,2.6-3
								l4.4-6.1c2.3-3.2,4.1-7.8,3.8-10c-0.7-3.7-2-7.3-3.8-10.6l-3.7-7.1c-1.9-3.5-6.2-6.5-9.6-6.6c-4.4,0.2-8.6,1.4-12.5,3.5
								l-3,1.7c-2.4,1.6-5.7,1-7.3-1.4c-0.4-0.6-0.7-1.3-0.8-2l-0.5-1.7c-0.9-4.2,0.6-8.5,4-11.2l3.8-2.8c0.4-0.3,0.9-0.7,1.2-1.1
								l-12.9-1.5C347.6,503.6,345,502.1,343.2,499.8z"/>
							<path class="st1" d="M407.8,689.7l0.7,0.2c2.4,0.7,4.9,0.9,7.3,0.5l7-1.6c2.4-0.7,4.5-2,6.2-3.7l3.3-3.8c2.1-2.1,5-3.1,8-2.5
								l5,1.2c2.8,0.8,5.4,2.3,7.4,4.4l3.7,4.2c1.9,2.2,3.5,4.5,4.9,7l-1,0.6l0,0l1-0.6l1.3,2.4l5.2-2.1c2.7-1,5.7-1.4,8.6-1.2
								l6.9,0.8c2.1,0.1,4.1-0.9,5.3-2.6l0.8-1.2c1.7-2.4,4.5-3.8,7.5-3.6l8.9,0.9c2.1,0.1,4.2-0.9,5.5-2.5l0.8-1.1
								c1.8-2.3,4.4-4,7.2-4.6l7.6-1.4c1.8-0.4,3.1-2,3.2-3.8v-1.2c-0.2-2.2-1.2-4.2-3-5.5l-2.2-1.4c-2.4-1.7-3.4-4.8-2.3-7.5
								l0.7-1.6c1.2-2.6,3-5,5.2-6.9l3.5-2.9c1.4-1.3,1.9-3.4,1.3-5.2l-3.1-7.8c-1-2.2-2.7-4-4.7-5.2l-5.4-2.8
								c-2.6-1.5-4.3-4.1-4.6-7l-1-13.8c-0.1-3,1.1-5.8,3.3-7.8l14.3-11.6c1.9-1.7,3.5-3.7,4.6-6l4.4-9.9c1.2-2.6,2.7-5,4.4-7.3
								l8.7-11.2c1.6-2.2,3.1-4.4,4.4-6.8l4-7.5c1.4-2.4,3.9-3.8,6.7-3.7l-1.6-5.9c-0.8-2.5-1.9-4.9-3.3-7.1l-4.3-6
								c-1.6-2.5-2.1-5.5-1.4-8.4l1.5-5.4c0.4-2.1-0.1-4.3-1.4-6L546.9,483c-1.9-2.3-2.8-5.2-2.6-8.1l1-9.6c0.1-0.7-0.1-1.5-0.6-2
								s-1.2-0.9-2-0.8h-7.3c-2.9-0.1-5.8-1.2-8.1-3l-2.1-1.8c-1.8-1.3-4-1.9-6.2-1.6l-2.5,0.5c-2.1,0.6-3.8,2.1-4.7,4.1l-1.2,3.2
								c-0.6,1.9-0.1,4,1.3,5.5l3.4,3.1c2.1,2.1,3.4,4.8,3.9,7.7l0.6,5c0.4,2.5-1.4,4.8-3.9,5.2c-0.3,0-0.7,0.1-1,0l-11.1-0.7
								c-2.9-0.3-5.7-1.7-7.6-3.9l-8.1-10.2l-8.9-0.3c-2.9-0.2-5.7-1.5-7.8-3.5l-1.5-1.6c-1.7-1.6-3.9-2.5-6.2-2.7h-5.8
								c-2,0.1-3.8,1.3-4.8,3.1l-0.5,1.1c-1.3,2.7-4.1,4.2-7,3.9l-2.4-0.3c-2.4-0.2-4.8,0.3-7,1.4l-7.8,4.5c-2,1.3-3.4,3.2-4.2,5.5
								l-1.2,4.2c-0.7,2.5-3,4.1-5.5,4.2c-0.3,0-0.7,0-1-0.1l-12.8-2.3c0.7,0.7,1.3,1.5,1.8,2.4c1.4,2.4,2.4,5,3,7.7
								c0.7,3.2,2.8,6.9,4.6,8.1c2.9,2.3,5.6,4.9,8,7.7l3.8,4.4c2.9,3.3,6.2,6.2,9.9,8.6c2.8,1.7,5,6.4,4.9,10.3l-0.1,2.7
								c-0.4,4.6-2.1,9.1-4.9,12.8l-3.3,4c-2.6,3-6.6,5.9-8.9,6.4c-5.4,1.1-8.7,7.4-14.3,7.6c-0.7,0-1.5-0.1-2.2,0
								c-0.7,0-1.5,0.2-2,0.7c-1,0.9-0.7,2.1-0.7,3.2c-0.1,2.5,0,4.9,0.2,7.4c0,0.2,0.1,0.5,0.2,0.7c0.2,0.3,0.7,0.4,1,0.2
								s0.6-0.4,0.9-0.7c2.6-2.7,6.4-6.1,10.3-6.9c2.5-0.6,4.9-1.6,7.2-2.8c2.1-1.2,7.1-2.4,11-2.7l2.4-0.2c4-0.3,6.5,0.2,5.6,1.1
								c-1.9,2.5-3.6,5.1-5.1,7.9l-2,3.5c-1,1.7-2.1,3.2-3.2,4.8c-0.9,1.1-1.5,2.3-2,3.6c-0.4,1.4,0,2.5,0.1,3.9
								c0,0.9-0.1,1.8-0.3,2.7c-0.2,0.7-0.2,1.7,0.4,2.1c0.3,0.2,0.7,0.2,1.1,0.1l2.4-0.2c0.7-0.1,1.4-0.1,2,0.2
								c2.3,1.1,0.4,5-0.5,6.3l-13.9,22c-2.8,4.4-4.6,10.2-8.5,13.8c-0.7,0.7-1.6,1.2-2.2,1.9c-2.5,2.5-2.9,7-3.4,10.3
								c-0.8,3.4-2.8,6.4-5.5,8.4c-3.1,2.5-5.6,5.6-7.3,9.2c-0.3,0.7-0.7,1.4-1.3,2l8.4,7.7C403.2,687.4,405.4,688.7,407.8,689.7z"
								/>
							<path class="st1" d="M398.7,446.5c1.6-1.7,4.1-4.4,5.6-6.2l8-8.9c2-2.1,4.2-3.9,6.7-5.4l7.5-4.2c1.7-1.1,2.7-3,2.6-5.1
								l-0.6-5.3c-0.4-2.6-1.2-5.1-2.3-7.4l-1.3-2.5c-0.9-1.7-2.7-2.5-3.7-2.1c-1.5,0.6-2.8,1.8-3.4,3.3c-0.7,2-3.3,4.1-6,4.6
								l-0.5,0.1c-2.6,0.6-5.9-0.2-7.4-1.6c-1.5-1.3-3.3-2.2-5.2-2.8c-2.6-0.8-4.9-2.3-6.9-4.2l-0.9-1c-1.8-1.7-4-2.8-6.4-3.3
								l-8.4-1.3c-2.5-0.3-5,0.1-7.3,1l-1.3,0.6c-2.7,1.1-5.6,1.6-8.5,1.5l-12-0.8c-2.9-0.3-5.6-1.9-7.4-4.2l-3.5-4.9
								c-3.2,7.8-17.1,9.4-18.5-0.6l-0.4-3c-0.6-3.9-2.8-8.2-4.9-9.5c-2.1-1.3-5.4-1.9-7.3-1.3c-3.3,1-4.1,3.7-6.2,6
								c-0.5,0.5-0.9,1-1.3,1.6c-1,1.9,4.8,8.4,1.3,9.6c-1,0.2-2,0-2.9-0.4l-2.6-1c-0.9-0.4-2.2-0.7-2.8,0.2c-0.3,0.6-0.3,1.3,0,1.9
								c1.1,3.5,2.1,7.1,2.7,10.8c0.4,1.9,0.7,3.8,1.1,5.8c0.2,1.2,0.2,3.5,1.6,4.2c1.3,0.6,4.8-1.9,4.8,1c0,1.3-2,4.2-4.4,6.4
								c-2.4,2.2-5.9,2-7.6-0.4c-0.1-0.1-0.2-0.3-0.3-0.4l2.3,14.3c0.4,2.2,1.2,5.8,1.8,8l0.7,2.4c0.8,2.5,1.9,4.9,3.3,7.1l1.7,2.5
								c1.5,1.9,3.5,3.3,5.7,4l5.1,1.3c2.8,0.8,5.4,2.1,7.8,3.8l3.5,2.8c2.2,1.7,2.5,4.8,0.9,7c-0.1,0.1-0.2,0.3-0.3,0.4l-1.3,1.4
								c-1.1,1.2-1,3,0.1,4.1l0.1,0.1l0.5,0.4c2.1,1.9,4,4.1,5.6,6.5l3.4,5.2c1.4,1.9,3.4,3.4,5.7,4.1l3.1,0.9
								c2.8,0.9,5.3,2.7,7.1,5l0.1,0.2c1.4,1.8,3.5,3,5.7,3.3l14.6,1.7c0.3-0.3,0.7-0.6,1-0.9c0.4-0.3,0.8-0.7,1.2-1.1
								c0.3-0.4,0.4-1,0.3-1.5c-0.2-0.4-0.4-0.7-0.7-1c-4.1-4-6.4-10.1-9.1-15.2l-5.2-9.6c-1.9-3.6-0.7-8,2.7-10.2l12.6-7.8
								c3.4-2.1,7.7-1.9,9.5,0.4c1.6,2,5.3,3.6,8.9,3.9c1-1.7,2.1-3.3,3.3-4.8L398.7,446.5z"/>
							<path class="st1" d="M420.8,490.1l1.2-4.2c0.9-2.8,2.8-5.2,5.2-6.8l7.8-4.5c2.6-1.4,5.5-2,8.5-1.7l2.4,0.3
								c1.9,0.2,3.7-0.8,4.6-2.6l0.5-1.1c1.3-2.7,3.9-4.4,6.9-4.5h5.8c2.9,0.1,5.7,1.3,7.9,3.4l1.5,1.6c1.7,1.6,3.9,2.6,6.3,2.8
								l6.9,0.2c-1.5-2.3-2.2-5.1-2-7.8l1.6-12.7c0.3-1.8,0.1-3.7-0.6-5.5c-1.1-1.7-0.9-4.7-0.1-6.7c0.8-2.4,1.3-4.9,1.5-7.5l1-16.4
								c0.3-2.9,1.3-5.7,3-8.1l1.1-1.5c1.4-2.1,2.4-4.5,2.8-7v-0.2c0.5-2.9,2.2-5.5,4.6-7.2l4.4-2.8c2-1.2,5.2-3.2,7.2-4.3l4.2-2.4
								c2.6-1.3,5.7-1.5,8.4-0.6c2.5,1,5.1,1.7,7.7,2.3l4.4,0.9c2.1,0.4,4.3,0.1,6.3-0.9c1.4-1.1,1.9-3,1.5-4.7l-2.5-9.5
								c-0.6-2.9-0.2-5.9,1.1-8.5l3.3-5.5c-3.6-0.9-7.2-1.6-10.9-2c-3.4-0.4-7.9-3.5-9.9-7l-6.7-11.3c-2.3-4.2-3.8-8.7-4.4-13.4
								l-0.2-2.5c-0.4-4-1.7-8.5-2.9-10.1c-1.2-1.6-1.5-5.2-0.6-8.1c1.3-3.9,3-7.7,4.8-11.4c1.8-3.3,2.3-7,1.3-8
								c-1.1-1.1-2.6-1.7-4.2-1.9c-1.3,0-4.4,2.1-7.1,4.7c-2.2,2.2-4.6,4.2-7.2,5.9c-2.2,0.8-4.5,1.2-6.8,1.3c-2.8,0-5.4-1-7.5-2.8
								c-2-1.9-2.2-6.7-5.1-7.2c-1-0.1-2,0-3,0.2c-3.8,0.8-8,1.1-11.6,2.6c-2,0.6-4.1,0.8-6.1,0.7c-2.2-0.1-5.8,2.4-8.1,5.6
								l-0.3,0.4c-2.8,3.5-7,5.6-11.4,5.7l-5-0.1c-8.2-0.2-17,10.7-17,18.5v0.6c-0.3,4-0.3,7.9-0.1,11.9c0.2,2.6-1.8,6.2-4.6,8
								c-3.5,2.6-6.4,5.8-8.8,9.5l-4.3,6.9c-2.6,3.7-6.6,6.1-11,6.7l-0.8,0.1c-4.5,0.1-8.9-1.6-12.1-4.8l-0.2-0.3
								c-2.7-2.9-7.3-3.2-10.2-0.5c-3.5,3.1-6.9,4.8-11.1,7.1c-1.1,0.6-2.3,1.4-2.5,2.6c-0.3,1.8,1.6,3.1,3.2,3.9
								c1.7,0.8,3.6,1.8,3.6,3.7c0,5.4-9.7,7.3-13.4,7.2c-1.4,0-3-0.2-4.1,0.6c-1.2,0.8-1.5,2.3-1.8,3.8l4.6,6.4
								c1.4,1.8,3.4,2.9,5.7,3.2l12,0.8c2.5,0.1,5.1-0.4,7.4-1.3l1.3-0.6c2.7-1.1,5.7-1.5,8.6-1.1l8.4,1.3c2.9,0.6,5.5,2,7.7,4
								l0.9,1c1.6,1.6,3.6,2.8,5.8,3.5c2.3,0.6,4.4,1.8,6.2,3.3c1.6,1.1,3.5,1.5,5.3,1.1l0.5-0.1c1.8-0.4,3.4-1.5,4.3-3.2
								c0.9-2.2,2.7-3.9,4.9-4.7c2.2-0.7,5.1,0.7,6.4,3.2l1.3,2.5c1.3,2.6,2.1,5.4,2.6,8.2l0.6,5.3c0.2,3-1.2,5.8-3.7,7.3l-7.5,4.2
								c-2.3,1.4-4.3,3-6.1,4.9l-8,8.9c-1.5,1.7-4.1,4.5-5.6,6.2l-8.9,9.5c-0.8,1-1.6,2.1-2.3,3.2l1.7-0.1c4.3,0.1,8.3,2.5,10.3,6.3
								l0.6,1.3c1.1,2.5,1.7,5.2,1.9,8c0.3,2.8-1.1,5.1-2.5,7.4c-0.6,0.8-1,1.6-1.1,2.6c0,0.9,0.2,1.7,0.6,2.5
								c0.2,0.4,0.4,0.8,0.7,1.1l15.5,2.8C418.6,492.7,420.2,491.7,420.8,490.1z"/>
							<path class="st1" d="M355.5,645.5l0.4-1.8c0.7-2.5,2.6-4.5,5-5.4l1.4-0.4c2.5-0.9,4.4-2.8,5.2-5.3c0.8-3.1,1.1-6.9,2.9-9.5
								c0.3-0.4,0.8-0.9,1.2-0.7c1.1,0.5-0.2,2.4,0.4,3.1c0.5,0.5,1.3,0.5,1.8,0.1c0.5-0.5,1-1,1.4-1.5c2.6-2.6,6.2-3.9,9.8-3.5
								c1.8,0.2,3.7,0.6,5.4,1.2c2.2,1,4.7,1.4,7.1,1.2c4.9-0.6,6.2-5.5,8-9.4c1.4-3.1,2.9-6.2,4.3-9.3c1-2.1,0.1-4.7-1.9-5.8
								c-2.4-1.1-5.1-1.2-7.6-0.4l-30.4,12.3c-1.7,0.8-3.6,0.1-4.4-1.6c-0.2-0.3-0.3-0.7-0.3-1l-0.9-4.9c-0.4-2-0.6-4.1-0.7-6.1
								c-0.1-1.5,0.1-4.4-0.8-5.5c-0.4-0.5-1-0.7-1.6-0.8c-0.6,0-1.2,0.1-1.8,0.3c-1.8,0.6-3.3,1.5-5.2,2.2l-5.5,1.9l-6.5,2.2
								c-2.5,1-4.4,2.9-5.5,5.3l-4.1,10.5l-3.3,8.5c-0.9,2.8-1.9,5.6-3.1,8.3c-0.2,0.4-0.5,0.9-0.8,1.3c-0.8,1.1-1.8,2.2-1.8,3.6
								c0,1.4,1.2,2.7,2,4c1.1,1.9,1.1,3.7,1.1,5.8l-1.6,10.7c-0.5,3.7,0.4,8.2,3.2,10.8c0.6,0.7,1.5,1.1,2.4,1.3
								c0.7,0.1,1.5-0.1,2.2-0.4c2.7-1.1,4.4-3.6,6.7-5.4c1.4-1.1,2.9-2.2,4.3-3.3l7.8-5.8C353.3,650.5,354.8,648.1,355.5,645.5z"/>
							<path class="st1" d="M551,821.4l1.2-6.9c0.3-2.4-0.1-4.8-1.2-7l-1.3-2.4c-1.3-2-3.2-3.6-5.4-4.5l-15.4-5.4
								c-2.7-1.1-5.1-2.9-6.9-5.2l-11.9-17.1c-1.6-2.1-3.4-3.9-5.5-5.4l-3.5-2.3c-2.4-1.7-4.1-4.2-5-7l-3-12c-0.7-2.3-2-4.5-3.7-6.2
								l-6.9-6.1c-2.1-2-4-4.2-5.5-6.7l-7.3-12.2c-1.2-2-3.1-5.2-4.2-7.3l-6-10.9l0,0c-1.3-2.3-2.9-4.5-4.6-6.6l-3.7-4.2
								c-1.7-1.8-3.9-3-6.2-3.7l-5.1-1.2c-2.1-0.3-4.2,0.3-5.7,1.8l-3.4,3.8c-2,2.1-4.6,3.7-7.4,4.4l-7,1.6
								c-2.9,0.5-5.8,0.4-8.6-0.5l-0.7-0.3c-2.7-1.1-5.2-2.6-7.3-4.6l-8.4-7.8c-1.9,1.7-4.3,2.9-6.8,3.3l-15.7,2.2
								c-2.9,0.6-5.8-1.3-6.4-4.2c-0.1-0.6-0.1-1.3,0-2l0.2-1.7c0.4-3.9-0.2-8.5-1.4-10.1c-1.8-2.4-4.9-1.9-7.5-2.1
								c-1.1-0.2-2.3-0.1-3.3,0.5c-1.2,0.9-1.2,2.6-1.1,4.1c0.3,4.7,0.6,9.5,2.6,13.8c1.3,3,3.2,5.7,5.4,8c1.8,1.5,3.8,2.6,6.1,3.3
								c1.9,0.6,3.3,2.2,3.6,4.2c0.1,2.3-0.7,4.6-2.2,6.3c-1.5,1.6-1.9,6.1-1.1,10l2.2,9.9c0.8,4.5,0.8,9.1-0.2,13.5
								c-1.1,4.5-1.9,9-2.4,13.6L363,756c-0.2,4.5,1.5,8.9,4.6,12.1l8.9,8.2c3.1,2.9,5.7,6.3,7.8,10c1.5,4,2.3,8.2,2.3,12.4v18.6
								c0,4-1.7,9.3-3.7,11.9c-2.9,3.1-6.5,5.5-10.5,7l-0.4,0.1c-3.6,1.2-7.2,1.9-10.6-0.3c-0.8-0.7-1.8-1.3-2.7-1.7
								c-1.1-0.3-2.2-0.4-3.3-0.2c-0.8,0-1.5,0.2-2.2,0.4c-0.7,0.3-1.3,0.8-1.5,1.6c-0.1,0.8,0,1.6,0.5,2.2c0.6,1,1.1,2.1,1.8,3.1
								c1.6,2.6,3.7,5.1,4.8,5.6c3.6,1.8,2.4,8.2,5.3,10.6c1,0.9,2.2,1.4,3.2,2.2c0.8,0.5,1.3,1.5,1.3,2.5c-0.2,0.7-0.5,1.3-0.9,1.8
								c-0.9,1.3-1.6,3.5-0.8,5c1.1,2.1,4.4,4.1,7.2,4.5s8.5,0.6,12.4,0.6h21.8c4.4,0.2,8.3,2.7,10.5,6.4l2.1,4.1
								c1.8,3.5,6.1,6.4,9.5,6.4s8.5-2.4,11.2-5.3l0.4-0.4c2.7-3.1,3.1-7.7,0.9-11.2l-4.9-7.4c-2.6-4-5-8.2-7-12.6l-5.7-13.1
								c-1.7-4.4-2.2-9.1-1.5-13.7l2.4-11.6c1.1-4.6,2.8-9.1,5.1-13.3l6.7-11.6c2.1-3.7,3.8-7.6,4.9-11.7c0.7-3,3.1-6.5,5.3-7.8
								c3.2-1.5,6.6-2.4,10.1-2.6c3.4-0.2,8.8,1.5,11.9,3.9l3.4,2.6c3.2,2.4,5.2,6.1,4.4,8.3c-0.7,2.2-2.1,7.1-3,11l-0.5,2
								c-0.9,3.9-4,7.3-6.8,7.6c-2.9,0.3-5.9-0.6-6.8-2.1c-0.9-1.4-2.2-3.9-3-5.4s-4.6-2.1-8.4-1.2c-3.9,0.9-7.6,2.3-8.2,3.2
								s-0.5,3.1,0.4,4.8c1.1,2,2.6,3.7,4.4,4.9c1.7,1,3.7,1.3,5.7,1c1.6-0.4,3.3-0.6,5-0.4c1.2,0.2,2,3.7,1.8,7.7l-0.3,5.1
								c0,4.7,1.2,9.3,3.6,13.3l9.4,14.4c2.3,3.9,3.1,8.6,2.2,13.1l-2.2,8.8c-0.4,1.8-0.7,3.7-1.2,5.4c-0.9,2.9-2,5.2-1.5,8.4
								c0.3,2.2,0.7,4.1,0.2,6.3c-0.5,2-3.4,5.7-6.5,8.2c-2.7,2.2-4.9,5.1-8.4,6.1c-0.7,0.2-1.5,0.4-2.2,0.6
								c-0.7,0.3-1.3,0.8-1.6,1.5c-0.2,0.9,0,1.9,0.4,2.7c0.9,2.2,2.5,4.8,1,7.2c-0.5,1-0.9,2.1-1.1,3.2c-0.4,1.2-0.9,2.3-1.7,3.3
								c-0.4,0.5-0.6,1.1-0.5,1.7c0.3,0.8,1.3,0.9,2.1,0.9c2.5-0.1,5-1.1,6.9-2.8c1.7-1.4,4.1-2.8,5.2-4.9c0.8-1.5,4.5-4,8.2-5.4
								l14.4-5.6c4.4-1.8,8.6-4.2,12.6-6.9l3.1-2.3c3.7-2.9,6.9-6.4,9.4-10.3c2.1-3.5,3.1-6.8,6.5-9.2c2.5-1.6,4.8-3.5,6.9-5.6
								c1.3-1.4,2-3.1,3.3-4.5c0.3-0.3,0.5-0.7,0.6-1.1c0.1-0.7-0.5-1.3-0.9-1.8c-1.5-1.8-1.7-3.8-1.6-6c0.1-2.2-0.2-4.5-0.1-6.8
								c0.1-0.3,0-0.7-0.3-0.9c-0.1-0.1-0.3-0.1-0.5-0.1h-2.8c-0.7,0-1.5-0.1-2.1-0.3c-2.4-1-3.1-5.5-2.4-7.7c1.7-4.2,4.4-8,7.8-11
								l3.6-3c3.5-2.6,8.1-3.4,12.3-2l5.7,2.2l1.8-2.7C549.4,826.3,550.5,823.9,551,821.4z"/>
							<path class="st1" d="M658,541.5c-2.7,0.3-5.4,0.8-8,1.4l-6.1,1.7c-2.5,0.8-4.9,1.9-7.2,3.3l-1.6,1.1
								c-2.5,1.5-5.3,2.5-8.1,2.9l-6.2,0.7c-0.2,0-0.5,0-0.7,0c-2.7-0.1-5.2-1.4-6.8-3.6l-2.1-3.2c-1.5-2.2-3.2-4.3-5.1-6.3
								l-1.7-1.7c-1.6-1.3-3.7-1.8-5.7-1.3l-5.7,2.1c-2.8,0.9-5.7,1.2-8.6,0.8l-14.9-2.3c-2-0.2-3.9,0.8-4.9,2.5l-4,7.5
								c-1.4,2.5-2.9,4.9-4.6,7.1l-8.7,11.2c-1.6,2.1-3,4.4-4.1,6.9l-4.4,9.9c-1.3,2.6-3.1,4.9-5.3,6.8l-14.3,11.6
								c-1.6,1.5-2.5,3.6-2.5,5.8l1,13.8c0.3,2.1,1.6,4,3.4,5.1l5.4,2.8c2.6,1.5,4.6,3.7,5.8,6.4l3.1,7.8c1,2.8,0.2,5.9-2,7.9
								l-3.5,2.9c-1.9,1.7-3.4,3.8-4.5,6.1l-0.7,1.6c-0.7,1.7-0.1,3.6,1.4,4.7l2.2,1.4c2.4,1.7,3.9,4.4,4,7.4v1.2
								c-0.1,2.9-2.2,5.4-5,6.1l-7.6,1.4c-2.3,0.6-4.3,1.9-5.8,3.7l-0.8,1.1c-1.8,2.3-4.7,3.6-7.6,3.5l-8.9-0.9
								c-2.1-0.1-4.1,0.9-5.3,2.6l-0.8,1.2c-1.7,2.4-4.5,3.8-7.5,3.6l-6.9-0.7c-2.5-0.2-5.1,0.2-7.5,1l-4.9,2l3.6,6.4
								c1.1,2,3,5.3,4.1,7.2l7.3,12.2c1.4,2.2,3.1,4.3,5,6.1l6.9,6.1c2.1,2,3.7,4.6,4.5,7.4l3,12.1c0.7,2.3,2.1,4.3,4,5.7l3.5,2.3
								c2.4,1.7,4.4,3.7,6.2,6l11.9,17.2c1.5,1.9,3.5,3.4,5.8,4.4l15.4,5.4c2.8,1.1,5.1,3,6.7,5.5l1.3,2.4c1.3,2.6,1.8,5.6,1.4,8.5
								l-1.3,6.9c-0.6,2.9-1.9,5.5-3.7,7.8l-1.4,2.1l0.4,0.2c3,1,5.9,2.4,8.5,4.3c2.2,1.8,3.8,4.2,6.1,6l1.2,1c3.1,2.4,6.7,4,8,3.5
								c1.4-0.8,2.3-2.4,2.2-4c0.2-2.2,1.3-4.3,2.9-5.8c1.8-2,2.9-4.6,2.9-7.3c-0.1-1.6,0.2-3.2,0.9-4.7c0.7-1.2,1.5-1.9,1-3.5
								c-0.3-1.1-1.1-2-1.1-3.1c0-0.7,0.2-1.4,0.4-2.1c0.6-2.1,1.3-4.3,2.2-6.3c0.7-1.2,1.4-2.5,2-3.7c1.4-2.7,3-5.3,4.8-7.8
								c2.2-3,3.9-7.5,3.9-10.1c0.3-4,1.1-7.9,2.4-11.6l4-11.6c0.8-2,2.2-7.7,0.6-9.6c-0.5-0.6-1.4-0.7-2.1-1.1
								c-0.6-0.4-1.1-0.9-1.6-1.6c-1.2-1.6-2.2-3-2.1-5c0.1-1.4,0.1-2.7,0-4.1c-0.3-4.8,0.3-9.5,1.7-14.1c1.2-3.6,2-7.3,2.4-11.1
								c0.2-1.7-0.2-3.3,0.2-5c0.5-1.9,1.5-3.5,2.1-5.4c0.6-1.8,0.6-3.5,1.3-5.2c0.9-2.5,2.4-4.5,3.1-7.1c0.5-2.4,1.2-4.8,2.1-7.1
								c1.2-3.2,2-6.6,2.4-10l0.4-3c0.8-4.7,1.9-9.4,3.3-14l0.2-0.7c1.5-4.5,3.5-8.9,5.8-13.1l4.3-7.4c2-3.4,3.5-8.2,3.3-10.6
								c-0.1-2.5,1.2-4.9,3.4-6.2c3.3-1.6,3.9-6.7,4-9.8c0.1-3.5,2-6.7,4.9-8.5c1-0.5,1.9-1.2,2.7-1.9s1.2-1.9,0.9-3
								c-0.5-0.9-1.2-1.5-2.1-1.9c-2.1-1.4-4.1-7.2-3.4-9.7c0.5-1.7,3.3-5.1,6.4-7.7l3.7-3.1c3-2.6,5.9-6,6.5-7.6
								c0.5-1.6,3.7-4.6,7.1-6.7l1.1-0.7c3.4-2.1,5.8-5.2,5.4-7c-0.3-2.1,0.5-4.2,2.1-5.5c1.7-1.4,3-3.2,3.8-5.2
								c0.3-0.8,0.7-1.5,1.1-2.2c-2.5-1.5-5.8-2.9-7-2.8L658,541.5z"/>
							<path class="st1" d="M699.4,506.1c-2.9-0.6-5.8-1.4-8.6-2.4c-1.7-0.7-4.7-2-6.7-1.4c-1.1,0.4-2.3,0.5-3.5,0.3
								c-1.6-0.7,1.5-3.2,1.6-3.9c0-0.6-0.3-1.1-0.8-1.4c-0.5-0.2-1.1-0.4-1.6-0.6c-2.4-1-2.1-2.7-1.5-4.6c0.6-2.2,0.9-4.5,1.1-6.8
								c0.2-2,3.6-4.2,7.6-4.9c0,0,1.3-0.2,1.6-0.2c1.1-0.1,2.2-0.3,3.3-0.6c0.7,0,1.4-0.2,2-0.5c0.7-0.3,1.1-1,1.1-1.7
								c0-0.1,0-0.2-0.1-0.3c-0.1-0.1-0.3-0.2-0.5-0.2c-3.1-0.2-6.1,0.1-9.1,0.8c-1.7,0.4-3.5,0.1-5.1-0.7c-1.7-0.9-3.6-1.3-5.5-1.4
								c-1.6,0-2.5-0.8-1.9-1.8c0.7-1.1,1.7-2.2,2.3-3.3c0.5-0.9,0.6-2,1.4-2.9c0.6-0.6,1.3-1,1.9-1.6c0.2-0.1,0.3-0.4,0.3-0.7
								c-0.1-0.3-0.4-0.4-0.7-0.5c-1.9-0.4-3.6,1.1-5.5,0.2c-0.4-0.2-0.7-0.3-1.1-0.5c-0.8-0.1-1.7,0-2.5,0.4
								c-2.6,0.8-3.6-1.4-4.2-3.6c-0.3-2.5-0.1-5,0.8-7.3c1.3-3,3.2-5.8,5.5-8.1c2.2-2.1,3.3-4.7,2.7-5.6c-1.2-1.3-2.7-2.2-4.3-2.8
								c-2.3-0.5-4.6-0.4-6.8,0.4c-2.1,0.8-6.9,1.1-10.7,0.7s-9.2-1.2-12-1.8c-4.1-0.7-8.2-0.8-12.3-0.4l-2.2,0.2
								c-4.3,0.4-8.7-0.4-12.7-2.1c-3-1.6-5.5-6-5.5-9.8s0.7-8.2,1.5-9.6s3.5-2.4,6-2.1c2.2,0.3,4.5,0.3,6.8,0
								c2.2-0.8,4.2-2,6.1-3.3c2.1-1.5,3.7-3.3,3.6-4.1c-0.5-1.3-1.4-2.4-2.6-3.2c-1.2-0.9-1-2.1,0.5-2.5c2.2-0.6,4.5-0.1,6.8-0.2
								c2.7-0.1,3.8-1.3,5.4-3.2c2.5-3.6,4-7.7,4.4-12.1l0.2-2.6c0.3-4,0.7-9.6,1-12.5s-1.4-7.9-3.8-11.1l-3.6-4.9
								c-2.1-2.9-3.5-5-4-8.5c0-0.6-0.2-1.1-0.5-1.6c-0.6-0.7-1.6-0.6-2.5-0.6c-3.1,0.2-5.7-1.1-8.6-2c-1.5-0.6-3.1-0.4-4.4,0.4
								c-0.8,0.7-1.4,1.8-2.4,2.1c-1,0-1.9-0.2-2.7-0.8c-2.3-1.2-5-1.2-7.3,0c-3.2,1.7-4.5,5.7-5.5,8.9c-1.4,4-3.8,7.6-6.9,10.5
								c-2.6,2.1-7.9,3.6-11.9,3.3l-13.9-0.8c-4.3-0.3-8.6-1.4-12.5-3.3c-2.9-1.5-5.9-2.9-9-3.9l-3.6,5.9c-1,2.1-1.3,4.5-0.8,6.8
								l2.6,9.5c0.7,2.7-0.2,5.5-2.5,7.2c-2.4,1.3-5.3,1.7-8,1.2l-4.4-0.9c-2.7-0.6-5.5-1.4-8.1-2.4c-2.1-0.7-4.4-0.5-6.4,0.5
								l-4.2,2.4c-2,1.1-5.2,3-7.1,4.3l-4.4,2.8c-1.8,1.3-3.1,3.3-3.6,5.5v0.2c-0.5,2.9-1.6,5.6-3.2,8l-1.1,1.5
								c-1.4,2.1-2.2,4.4-2.5,6.9l-1,16.4c-0.2,2.8-0.8,5.5-1.7,8.1c-0.6,1.5-0.6,3.2-0.1,4.7c1,1.6,1.3,4.8,1,7l-1.6,12.7
								c-0.2,2.3,0.5,4.6,1.8,6.5l0,0l0.9,1.2l8.7,10.9c1.5,1.7,3.6,2.8,5.9,3.1l11.1,0.6c1.2,0.2,2.3-0.7,2.5-1.9
								c0-0.2,0-0.5,0-0.7l-0.6-5c-0.4-2.4-1.5-4.5-3.2-6.3l-3.3-3.1c-2.1-2.1-2.8-5.2-1.9-8l1.2-3.2c1.2-2.7,3.5-4.7,6.4-5.5
								l2.5-0.5c2.9-0.5,5.9,0.3,8.2,2.1l2.1,1.8c1.9,1.5,4.2,2.3,6.6,2.4h7.3c2.7,0,4.9,2.1,4.9,4.8c0,0.2,0,0.4,0,0.6l-1,9.6
								c-0.1,2.3,0.6,4.6,2.1,6.4l11.8,13.3c1.9,2.3,2.6,5.3,1.9,8.2l-1.5,5.4c-0.5,2.2-0.1,4.5,1.1,6.4l4.3,6
								c1.6,2.4,2.8,5,3.7,7.8l1.9,6.8l13,2.1c2.5,0.3,5.1,0,7.5-0.7l5.7-2.1c2.8-0.9,5.9-0.2,8.1,1.8l1.7,1.7c2,2,3.8,4.3,5.4,6.7
								l2.1,3.2c1.2,1.7,3.2,2.6,5.3,2.5l6.2-0.7c2.5-0.4,4.9-1.3,7.1-2.6l1.6-1.1c2.4-1.5,5.1-2.7,7.8-3.6l6.1-1.7
								c2.8-0.7,5.6-1.2,8.4-1.5l11.1-0.9c1.8-0.1,5.7,1.4,8.6,3.2c0.3-0.3,0.5-0.6,0.8-0.8c1.4-1.1,3.1-1.8,4.8-2
								c1.8-0.2,3.5-0.8,5-1.8c1.3-0.9,2.7-1.8,4.2-2.5c1.4-0.9,2.6-2.2,3.3-3.6c0.9-1.7,0.6-3.3-0.7-3.7c-1.2-0.4-2.4-0.5-3.6-0.3
								c-0.7,0.2-1.3-0.6-1.5-1.8c0.1-1.7,0.7-3.4,1.8-4.7c1.2-1.6,2-3.5,2.4-5.4c0.4-3.2,3.1-5,5.7-6.3c0.5-0.2,1-0.6,1.1-1.1
								C700.9,506.6,700.1,506.3,699.4,506.1z"/>
							<path class="st1" d="M343.2,499.8l-0.1-0.1c-1.5-1.9-3.5-3.3-5.8-4.1l-3.1-0.9c-2.8-0.9-5.2-2.7-7-5.1l-3.4-5.2
								c-1.5-2.2-3.3-4.2-5.2-6l-0.5-0.4c-1.1-0.9-1.7-2.2-1.8-3.6s0.4-2.8,1.4-3.8l1.3-1.4c1-1,1-2.7-0.1-3.7
								c-0.1-0.1-0.2-0.1-0.2-0.2l-3.5-2.8c-2.1-1.5-4.4-2.7-6.9-3.4l-5.1-1.3c-2.8-0.9-5.3-2.6-7.1-4.9l-1.7-2.5
								c-1.6-2.4-2.8-5.1-3.6-7.8l-0.7-2.4c-0.6-2.2-1.4-6-1.8-8.3l-2.8-17.5c-0.9-0.8-1.9-1.3-3-1.6c-2.1-0.1-4.3,0.4-6.1,1.4
								c-2,1-4.3,0.7-6-0.7c-1.6-1.4-3.8-2.6-4.9-2.6c-2,0-4.1,0.6-6.1,0.3c-2.3-0.3-4.5-1.9-6.8-1.3c-0.3,0.1-0.5,0.2-0.8,0.4
								c-0.9,0.7-0.8,2.2-0.4,3.3c0.6,1.7,0.9,3.1,1.3,4.8l0.2,0.9c0.9,4.5,0.2,9.2-2,13.2l-2.2,3.6c-2.1,3.4-1.7,7.2,0.7,8.3
								c2.4,1.2,6.4,3.2,8.8,4.5c2.4,1.3,4.6,3.2,4.8,4.2c0.8,1.8,2,3.5,3.4,4.9c1,1,2.9,3.1,1.8,4.6c-0.4,0.5-0.9,0.9-1.5,1.1
								c-1.1,0.5-2.3,0.7-3.5,0.7c-0.4,0.3-0.2,1,0.2,1.3c0.4,0.2,0.9,0.3,1.4,0.3c3-0.1,5.8,0.2,8.3-1.8c1.5-1.2,3.5-1.7,5.4-1.5
								c1.7,0.5,2.9,2,3.1,3.8c0.3,3-1.8,5.1-1.6,8c0,1.5,0.8,2.8,2.1,3.5c0.3,0.2,0.6,0.2,0.9,0.2c0.5-0.1,0.9-0.3,1.3-0.7
								c3.3-2.3,7.7-0.6,11,0.9c2.5,1,5.1,1.4,7.8,1.1c2.3-0.4,6.1,1.1,8.4,3.3c2.7,2.9,4.4,6.5,5,10.4c0.4,4.1,0.4,8.3,0,12.4
								c-0.3,3.7,0.8,7.4,2.9,10.4c2,2.4,3.1,5.1,2.5,6s-2.8,0.9-4.8,0c-1.9-0.8-3.9-1.3-6-1.3c-1.9,0.4-3.7,1.3-5.3,2.5
								s-5.5,1.1-8.5-0.2c-3.1-1.3-5.5-5.5-5.5-9.3c0-3.5,0.4-7,1.1-10.4c0.5-1.7,0.9-3.5,1.1-5.3c0-1.2-0.3-2.4-1-3.4
								c-1.1-1.1-2.6-1.7-4.2-1.8c-1.8-0.2-3.8,1-5.5,0.1c-1-0.5-1.8-1.3-2.3-2.4c-1.3-2.4,0.1-5.4-1.1-8c-1.1-2.3-3.3-3.5-5-5.4
								c-1.1-1.3-2.3-2.4-3.6-3.5c-0.6-0.5-1.3-0.9-2-1.1c-0.8-0.2-1.6,0-2.1,0.6c-0.5,0.8-0.6,1.7-0.5,2.6c0,3.8-1.4,5.5-3.7,8.4
								c-0.2,0.3-0.4,0.6-0.5,0.9s-0.1,0.6-0.1,0.9c0,2,0.7,3.9,0.8,5.8s-1.3,3.3-3,4.2c-0.8,0.4-1.7,0.8-2.1,1.6
								c-0.1,0.3-0.2,0.7-0.2,1c0,3.8,3.2,8.6,5.8,11.3c1.8,1.9,4.1,6.6,5.2,10.4l0.3,1.1c1,3.8,2.1,8.3,2.3,10
								c0.2,1.7,3.3,2.7,6.9,2.4c3.6-0.3,8,2.3,10,5.8c2,3.6,4.4,8.2,5.5,10.5c1.6,3.3,2.3,6.3,0.7,9.8c-0.6,1.4-1.7,2.5-2.3,3.8
								c-0.6,1.5-1.1,3.1-1.5,4.6c-0.6,2.2-1.6,5.4,0.1,7.4c0.9,1,2.2,1.5,3.5,1.4c2.9-0.1,4.8-2.9,6.5-5l15.9-19.4
								c3.1-3.6,6.9-6.5,11.1-8.7l4.7-2.2c4.4-1.9,9.1-2.9,13.9-3.1h4.3c4,0,8.9,2.5,10.9,5.4s1.6,7.8-0.9,10.9
								c-0.9,1.1-1.9,2.2-2.7,3.3c-1.2,1.6-3.5,2.7-4.4,4.4c-0.3,0.6-0.4,1.3-0.4,1.9c-0.2,4.5,1.8,8.8,5.3,11.5
								c2.9,2.5,6.9,3.9,8.8,3.1c5.1-2.1,6.7-8,11.5-9.9c1.6-0.6,3.3-1.2,4.4-2.5c0.6-0.8,0.9-1.8,1.5-2.6c0.8-1,1.8-1.9,2.6-3
								l4.4-6.1c2.3-3.2,4.1-7.8,3.8-10c-0.7-3.7-2-7.3-3.8-10.6l-3.7-7.1c-1.9-3.5-6.2-6.5-9.6-6.6c-4.4,0.2-8.6,1.4-12.5,3.5
								l-3,1.7c-2.4,1.6-5.7,1-7.3-1.4c-0.4-0.6-0.7-1.3-0.8-2l-0.5-1.7c-0.9-4.2,0.6-8.5,4-11.2l3.8-2.8c0.4-0.3,0.9-0.7,1.2-1.1
								l-12.9-1.5C347.6,503.6,345,502.1,343.2,499.8z"/>
							<path class="st1" d="M407.8,689.7l0.7,0.2c2.4,0.7,4.9,0.9,7.3,0.5l7-1.6c2.4-0.7,4.5-2,6.2-3.7l3.3-3.8c2.1-2.1,5-3.1,8-2.5
								l5,1.2c2.8,0.8,5.4,2.3,7.4,4.4l3.7,4.2c1.9,2.2,3.5,4.5,4.9,7l-1,0.6l0,0l1-0.6l1.3,2.4l5.2-2.1c2.7-1,5.7-1.4,8.6-1.2
								l6.9,0.8c2.1,0.1,4.1-0.9,5.3-2.6l0.8-1.2c1.7-2.4,4.5-3.8,7.5-3.6l8.9,0.9c2.1,0.1,4.2-0.9,5.5-2.5l0.8-1.1
								c1.8-2.3,4.4-4,7.2-4.6l7.6-1.4c1.8-0.4,3.1-2,3.2-3.8v-1.2c-0.2-2.2-1.2-4.2-3-5.5l-2.2-1.4c-2.4-1.7-3.4-4.8-2.3-7.5
								l0.7-1.6c1.2-2.6,3-5,5.2-6.9l3.5-2.9c1.4-1.3,1.9-3.4,1.3-5.2l-3.1-7.8c-1-2.2-2.7-4-4.7-5.2l-5.4-2.8
								c-2.6-1.5-4.3-4.1-4.6-7l-1-13.8c-0.1-3,1.1-5.8,3.3-7.8l14.3-11.6c1.9-1.7,3.5-3.7,4.6-6l4.4-9.9c1.2-2.6,2.7-5,4.4-7.3
								l8.7-11.2c1.6-2.2,3.1-4.4,4.4-6.8l4-7.5c1.4-2.4,3.9-3.8,6.7-3.7l-1.6-5.9c-0.8-2.5-1.9-4.9-3.3-7.1l-4.3-6
								c-1.6-2.5-2.1-5.5-1.4-8.4l1.5-5.4c0.4-2.1-0.1-4.3-1.4-6L546.9,483c-1.9-2.3-2.8-5.2-2.6-8.1l1-9.6c0.1-0.7-0.1-1.5-0.6-2
								s-1.2-0.9-2-0.8h-7.3c-2.9-0.1-5.8-1.2-8.1-3l-2.1-1.8c-1.8-1.3-4-1.9-6.2-1.6l-2.5,0.5c-2.1,0.6-3.8,2.1-4.7,4.1l-1.2,3.2
								c-0.6,1.9-0.1,4,1.3,5.5l3.4,3.1c2.1,2.1,3.4,4.8,3.9,7.7l0.6,5c0.4,2.5-1.4,4.8-3.9,5.2c-0.3,0-0.7,0.1-1,0l-11.1-0.7
								c-2.9-0.3-5.7-1.7-7.6-3.9l-8.1-10.2l-8.9-0.3c-2.9-0.2-5.7-1.5-7.8-3.5l-1.5-1.6c-1.7-1.6-3.9-2.5-6.2-2.7h-5.8
								c-2,0.1-3.8,1.3-4.8,3.1l-0.5,1.1c-1.3,2.7-4.1,4.2-7,3.9l-2.4-0.3c-2.4-0.2-4.8,0.3-7,1.4l-7.8,4.5c-2,1.3-3.4,3.2-4.2,5.5
								l-1.2,4.2c-0.7,2.5-3,4.1-5.5,4.2c-0.3,0-0.7,0-1-0.1l-12.8-2.3c0.7,0.7,1.3,1.5,1.8,2.4c1.4,2.4,2.4,5,3,7.7
								c0.7,3.2,2.8,6.9,4.6,8.1c2.9,2.3,5.6,4.9,8,7.7l3.8,4.4c2.9,3.3,6.2,6.2,9.9,8.6c2.8,1.7,5,6.4,4.9,10.3l-0.1,2.7
								c-0.4,4.6-2.1,9.1-4.9,12.8l-3.3,4c-2.6,3-6.6,5.9-8.9,6.4c-5.4,1.1-8.7,7.4-14.3,7.6c-0.7,0-1.5-0.1-2.2,0
								c-0.7,0-1.5,0.2-2,0.7c-1,0.9-0.7,2.1-0.7,3.2c-0.1,2.5,0,4.9,0.2,7.4c0,0.2,0.1,0.5,0.2,0.7c0.2,0.3,0.7,0.4,1,0.2
								s0.6-0.4,0.9-0.7c2.6-2.7,6.4-6.1,10.3-6.9c2.5-0.6,4.9-1.6,7.2-2.8c2.1-1.2,7.1-2.4,11-2.7l2.4-0.2c4-0.3,6.5,0.2,5.6,1.1
								c-1.9,2.5-3.6,5.1-5.1,7.9l-2,3.5c-1,1.7-2.1,3.2-3.2,4.8c-0.9,1.1-1.5,2.3-2,3.6c-0.4,1.4,0,2.5,0.1,3.9
								c0,0.9-0.1,1.8-0.3,2.7c-0.2,0.7-0.2,1.7,0.4,2.1c0.3,0.2,0.7,0.2,1.1,0.1l2.4-0.2c0.7-0.1,1.4-0.1,2,0.2
								c2.3,1.1,0.4,5-0.5,6.3l-13.9,22c-2.8,4.4-4.6,10.2-8.5,13.8c-0.7,0.7-1.6,1.2-2.2,1.9c-2.5,2.5-2.9,7-3.4,10.3
								c-0.8,3.4-2.8,6.4-5.5,8.4c-3.1,2.5-5.6,5.6-7.3,9.2c-0.3,0.7-0.7,1.4-1.3,2l8.4,7.7C403.2,687.4,405.4,688.7,407.8,689.7z"
								/>
							<path class="st1" d="M398.7,446.5c1.6-1.7,4.1-4.4,5.6-6.2l8-8.9c2-2.1,4.2-3.9,6.7-5.4l7.5-4.2c1.7-1.1,2.7-3,2.6-5.1
								l-0.6-5.3c-0.4-2.6-1.2-5.1-2.3-7.4l-1.3-2.5c-0.9-1.7-2.7-2.5-3.7-2.1c-1.5,0.6-2.8,1.8-3.4,3.3c-0.7,2-3.3,4.1-6,4.6
								l-0.5,0.1c-2.6,0.6-5.9-0.2-7.4-1.6c-1.5-1.3-3.3-2.2-5.2-2.8c-2.6-0.8-4.9-2.3-6.9-4.2l-0.9-1c-1.8-1.7-4-2.8-6.4-3.3
								l-8.4-1.3c-2.5-0.3-5,0.1-7.3,1l-1.3,0.6c-2.7,1.1-5.6,1.6-8.5,1.5l-12-0.8c-2.9-0.3-5.6-1.9-7.4-4.2l-3.5-4.9
								c-3.2,7.8-17.1,9.4-18.5-0.6l-0.4-3c-0.6-3.9-2.8-8.2-4.9-9.5c-2.1-1.3-5.4-1.9-7.3-1.3c-3.3,1-4.1,3.7-6.2,6
								c-0.5,0.5-0.9,1-1.3,1.6c-1,1.9,4.8,8.4,1.3,9.6c-1,0.2-2,0-2.9-0.4l-2.6-1c-0.9-0.4-2.2-0.7-2.8,0.2c-0.3,0.6-0.3,1.3,0,1.9
								c1.1,3.5,2.1,7.1,2.7,10.8c0.4,1.9,0.7,3.8,1.1,5.8c0.2,1.2,0.2,3.5,1.6,4.2c1.3,0.6,4.8-1.9,4.8,1c0,1.3-2,4.2-4.4,6.4
								c-2.4,2.2-5.9,2-7.6-0.4c-0.1-0.1-0.2-0.3-0.3-0.4l2.3,14.3c0.4,2.2,1.2,5.8,1.8,8l0.7,2.4c0.8,2.5,1.9,4.9,3.3,7.1l1.7,2.5
								c1.5,1.9,3.5,3.3,5.7,4l5.1,1.3c2.8,0.8,5.4,2.1,7.8,3.8l3.5,2.8c2.2,1.7,2.5,4.8,0.9,7c-0.1,0.1-0.2,0.3-0.3,0.4l-1.3,1.4
								c-1.1,1.2-1,3,0.1,4.1l0.1,0.1l0.5,0.4c2.1,1.9,4,4.1,5.6,6.5l3.4,5.2c1.4,1.9,3.4,3.4,5.7,4.1l3.1,0.9
								c2.8,0.9,5.3,2.7,7.1,5l0.1,0.2c1.4,1.8,3.5,3,5.7,3.3l14.6,1.7c0.3-0.3,0.7-0.6,1-0.9c0.4-0.3,0.8-0.7,1.2-1.1
								c0.3-0.4,0.4-1,0.3-1.5c-0.2-0.4-0.4-0.7-0.7-1c-4.1-4-6.4-10.1-9.1-15.2l-5.2-9.6c-1.9-3.6-0.7-8,2.7-10.2l12.6-7.8
								c3.4-2.1,7.7-1.9,9.5,0.4c1.6,2,5.3,3.6,8.9,3.9c1-1.7,2.1-3.3,3.3-4.8L398.7,446.5z"/>
							<path class="st1" d="M420.8,490.1l1.2-4.2c0.9-2.8,2.8-5.2,5.2-6.8l7.8-4.5c2.6-1.4,5.5-2,8.5-1.7l2.4,0.3
								c1.9,0.2,3.7-0.8,4.6-2.6l0.5-1.1c1.3-2.7,3.9-4.4,6.9-4.5h5.8c2.9,0.1,5.7,1.3,7.9,3.4l1.5,1.6c1.7,1.6,3.9,2.6,6.3,2.8
								l6.9,0.2c-1.5-2.3-2.2-5.1-2-7.8l1.6-12.7c0.3-1.8,0.1-3.7-0.6-5.5c-1.1-1.7-0.9-4.7-0.1-6.7c0.8-2.4,1.3-4.9,1.5-7.5l1-16.4
								c0.3-2.9,1.3-5.7,3-8.1l1.1-1.5c1.4-2.1,2.4-4.5,2.8-7v-0.2c0.5-2.9,2.2-5.5,4.6-7.2l4.4-2.8c2-1.2,5.2-3.2,7.2-4.3l4.2-2.4
								c2.6-1.3,5.7-1.5,8.4-0.6c2.5,1,5.1,1.7,7.7,2.3l4.4,0.9c2.1,0.4,4.3,0.1,6.3-0.9c1.4-1.1,1.9-3,1.5-4.7l-2.5-9.5
								c-0.6-2.9-0.2-5.9,1.1-8.5l3.3-5.5c-3.6-0.9-7.2-1.6-10.9-2c-3.4-0.4-7.9-3.5-9.9-7l-6.7-11.3c-2.3-4.2-3.8-8.7-4.4-13.4
								l-0.2-2.5c-0.4-4-1.7-8.5-2.9-10.1c-1.2-1.6-1.5-5.2-0.6-8.1c1.3-3.9,3-7.7,4.8-11.4c1.8-3.3,2.3-7,1.3-8
								c-1.1-1.1-2.6-1.7-4.2-1.9c-1.3,0-4.4,2.1-7.1,4.7c-2.2,2.2-4.6,4.2-7.2,5.9c-2.2,0.8-4.5,1.2-6.8,1.3c-2.8,0-5.4-1-7.5-2.8
								c-2-1.9-2.2-6.7-5.1-7.2c-1-0.1-2,0-3,0.2c-3.8,0.8-8,1.1-11.6,2.6c-2,0.6-4.1,0.8-6.1,0.7c-2.2-0.1-5.8,2.4-8.1,5.6
								l-0.3,0.4c-2.8,3.5-7,5.6-11.4,5.7l-5-0.1c-8.2-0.2-17,10.7-17,18.5v0.6c-0.3,4-0.3,7.9-0.1,11.9c0.2,2.6-1.8,6.2-4.6,8
								c-3.5,2.6-6.4,5.8-8.8,9.5l-4.3,6.9c-2.6,3.7-6.6,6.1-11,6.7l-0.8,0.1c-4.5,0.1-8.9-1.6-12.1-4.8l-0.2-0.3
								c-2.7-2.9-7.3-3.2-10.2-0.5c-3.5,3.1-6.9,4.8-11.1,7.1c-1.1,0.6-2.3,1.4-2.5,2.6c-0.3,1.8,1.6,3.1,3.2,3.9
								c1.7,0.8,3.6,1.8,3.6,3.7c0,5.4-9.7,7.3-13.4,7.2c-1.4,0-3-0.2-4.1,0.6c-1.2,0.8-1.5,2.3-1.8,3.8l4.6,6.4
								c1.4,1.8,3.4,2.9,5.7,3.2l12,0.8c2.5,0.1,5.1-0.4,7.4-1.3l1.3-0.6c2.7-1.1,5.7-1.5,8.6-1.1l8.4,1.3c2.9,0.6,5.5,2,7.7,4
								l0.9,1c1.6,1.6,3.6,2.8,5.8,3.5c2.3,0.6,4.4,1.8,6.2,3.3c1.6,1.1,3.5,1.5,5.3,1.1l0.5-0.1c1.8-0.4,3.4-1.5,4.3-3.2
								c0.9-2.2,2.7-3.9,4.9-4.7c2.2-0.7,5.1,0.7,6.4,3.2l1.3,2.5c1.3,2.6,2.1,5.4,2.6,8.2l0.6,5.3c0.2,3-1.2,5.8-3.7,7.3l-7.5,4.2
								c-2.3,1.4-4.3,3-6.1,4.9l-8,8.9c-1.5,1.7-4.1,4.5-5.6,6.2l-8.9,9.5c-0.8,1-1.6,2.1-2.3,3.2l1.7-0.1c4.3,0.1,8.3,2.5,10.3,6.3
								l0.6,1.3c1.1,2.5,1.7,5.2,1.9,8c0.3,2.8-1.1,5.1-2.5,7.4c-0.6,0.8-1,1.6-1.1,2.6c0,0.9,0.2,1.7,0.6,2.5
								c0.2,0.4,0.4,0.8,0.7,1.1l15.5,2.8C418.6,492.7,420.2,491.7,420.8,490.1z"/>
							<path class="st1" d="M355.5,645.5l0.4-1.8c0.7-2.5,2.6-4.5,5-5.4l1.4-0.4c2.5-0.9,4.4-2.8,5.2-5.3c0.8-3.1,1.1-6.9,2.9-9.5
								c0.3-0.4,0.8-0.9,1.2-0.7c1.1,0.5-0.2,2.4,0.4,3.1c0.5,0.5,1.3,0.5,1.8,0.1c0.5-0.5,1-1,1.4-1.5c2.6-2.6,6.2-3.9,9.8-3.5
								c1.8,0.2,3.7,0.6,5.4,1.2c2.2,1,4.7,1.4,7.1,1.2c4.9-0.6,6.2-5.5,8-9.4c1.4-3.1,2.9-6.2,4.3-9.3c1-2.1,0.1-4.7-1.9-5.8
								c-2.4-1.1-5.1-1.2-7.6-0.4l-30.4,12.3c-1.7,0.8-3.6,0.1-4.4-1.6c-0.2-0.3-0.3-0.7-0.3-1l-0.9-4.9c-0.4-2-0.6-4.1-0.7-6.1
								c-0.1-1.5,0.1-4.4-0.8-5.5c-0.4-0.5-1-0.7-1.6-0.8c-0.6,0-1.2,0.1-1.8,0.3c-1.8,0.6-3.3,1.5-5.2,2.2l-5.5,1.9l-6.5,2.2
								c-2.5,1-4.4,2.9-5.5,5.3l-4.1,10.5l-3.3,8.5c-0.9,2.8-1.9,5.6-3.1,8.3c-0.2,0.4-0.5,0.9-0.8,1.3c-0.8,1.1-1.8,2.2-1.8,3.6
								c0,1.4,1.2,2.7,2,4c1.1,1.9,1.1,3.7,1.1,5.8l-1.6,10.7c-0.5,3.7,0.4,8.2,3.2,10.8c0.6,0.7,1.5,1.1,2.4,1.3
								c0.7,0.1,1.5-0.1,2.2-0.4c2.7-1.1,4.4-3.6,6.7-5.4c1.4-1.1,2.9-2.2,4.3-3.3l7.8-5.8C353.3,650.5,354.8,648.1,355.5,645.5z"/>
							<path class="st1" d="M551,821.4l1.2-6.9c0.3-2.4-0.1-4.8-1.2-7l-1.3-2.4c-1.3-2-3.2-3.6-5.4-4.5l-15.4-5.4
								c-2.7-1.1-5.1-2.9-6.9-5.2l-11.9-17.1c-1.6-2.1-3.4-3.9-5.5-5.4l-3.5-2.3c-2.4-1.7-4.1-4.2-5-7l-3-12c-0.7-2.3-2-4.5-3.7-6.2
								l-6.9-6.1c-2.1-2-4-4.2-5.5-6.7l-7.3-12.2c-1.2-2-3.1-5.2-4.2-7.3l-6-10.9l0,0c-1.3-2.3-2.9-4.5-4.6-6.6l-3.7-4.2
								c-1.7-1.8-3.9-3-6.2-3.7l-5.1-1.2c-2.1-0.3-4.2,0.3-5.7,1.8l-3.4,3.8c-2,2.1-4.6,3.7-7.4,4.4l-7,1.6
								c-2.9,0.5-5.8,0.4-8.6-0.5l-0.7-0.3c-2.7-1.1-5.2-2.6-7.3-4.6l-8.4-7.8c-1.9,1.7-4.3,2.9-6.8,3.3l-15.7,2.2
								c-2.9,0.6-5.8-1.3-6.4-4.2c-0.1-0.6-0.1-1.3,0-2l0.2-1.7c0.4-3.9-0.2-8.5-1.4-10.1c-1.8-2.4-4.9-1.9-7.5-2.1
								c-1.1-0.2-2.3-0.1-3.3,0.5c-1.2,0.9-1.2,2.6-1.1,4.1c0.3,4.7,0.6,9.5,2.6,13.8c1.3,3,3.2,5.7,5.4,8c1.8,1.5,3.8,2.6,6.1,3.3
								c1.9,0.6,3.3,2.2,3.6,4.2c0.1,2.3-0.7,4.6-2.2,6.3c-1.5,1.6-1.9,6.1-1.1,10l2.2,9.9c0.8,4.5,0.8,9.1-0.2,13.5
								c-1.1,4.5-1.9,9-2.4,13.6L363,756c-0.2,4.5,1.5,8.9,4.6,12.1l8.9,8.2c3.1,2.9,5.7,6.3,7.8,10c1.5,4,2.3,8.2,2.3,12.4v18.6
								c0,4-1.7,9.3-3.7,11.9c-2.9,3.1-6.5,5.5-10.5,7l-0.4,0.1c-3.6,1.2-7.2,1.9-10.6-0.3c-0.8-0.7-1.8-1.3-2.7-1.7
								c-1.1-0.3-2.2-0.4-3.3-0.2c-0.8,0-1.5,0.2-2.2,0.4c-0.7,0.3-1.3,0.8-1.5,1.6c-0.1,0.8,0,1.6,0.5,2.2c0.6,1,1.1,2.1,1.8,3.1
								c1.6,2.6,3.7,5.1,4.8,5.6c3.6,1.8,2.4,8.2,5.3,10.6c1,0.9,2.2,1.4,3.2,2.2c0.8,0.5,1.3,1.5,1.3,2.5c-0.2,0.7-0.5,1.3-0.9,1.8
								c-0.9,1.3-1.6,3.5-0.8,5c1.1,2.1,4.4,4.1,7.2,4.5s8.5,0.6,12.4,0.6h21.8c4.4,0.2,8.3,2.7,10.5,6.4l2.1,4.1
								c1.8,3.5,6.1,6.4,9.5,6.4s8.5-2.4,11.2-5.3l0.4-0.4c2.7-3.1,3.1-7.7,0.9-11.2l-4.9-7.4c-2.6-4-5-8.2-7-12.6l-5.7-13.1
								c-1.7-4.4-2.2-9.1-1.5-13.7l2.4-11.6c1.1-4.6,2.8-9.1,5.1-13.3l6.7-11.6c2.1-3.7,3.8-7.6,4.9-11.7c0.7-3,3.1-6.5,5.3-7.8
								c3.2-1.5,6.6-2.4,10.1-2.6c3.4-0.2,8.8,1.5,11.9,3.9l3.4,2.6c3.2,2.4,5.2,6.1,4.4,8.3c-0.7,2.2-2.1,7.1-3,11l-0.5,2
								c-0.9,3.9-4,7.3-6.8,7.6c-2.9,0.3-5.9-0.6-6.8-2.1c-0.9-1.4-2.2-3.9-3-5.4s-4.6-2.1-8.4-1.2c-3.9,0.9-7.6,2.3-8.2,3.2
								s-0.5,3.1,0.4,4.8c1.1,2,2.6,3.7,4.4,4.9c1.7,1,3.7,1.3,5.7,1c1.6-0.4,3.3-0.6,5-0.4c1.2,0.2,2,3.7,1.8,7.7l-0.3,5.1
								c0,4.7,1.2,9.3,3.6,13.3l9.4,14.4c2.3,3.9,3.1,8.6,2.2,13.1l-2.2,8.8c-0.4,1.8-0.7,3.7-1.2,5.4c-0.9,2.9-2,5.2-1.5,8.4
								c0.3,2.2,0.7,4.1,0.2,6.3c-0.5,2-3.4,5.7-6.5,8.2c-2.7,2.2-4.9,5.1-8.4,6.1c-0.7,0.2-1.5,0.4-2.2,0.6
								c-0.7,0.3-1.3,0.8-1.6,1.5c-0.2,0.9,0,1.9,0.4,2.7c0.9,2.2,2.5,4.8,1,7.2c-0.5,1-0.9,2.1-1.1,3.2c-0.4,1.2-0.9,2.3-1.7,3.3
								c-0.4,0.5-0.6,1.1-0.5,1.7c0.3,0.8,1.3,0.9,2.1,0.9c2.5-0.1,5-1.1,6.9-2.8c1.7-1.4,4.1-2.8,5.2-4.9c0.8-1.5,4.5-4,8.2-5.4
								l14.4-5.6c4.4-1.8,8.6-4.2,12.6-6.9l3.1-2.3c3.7-2.9,6.9-6.4,9.4-10.3c2.1-3.5,3.1-6.8,6.5-9.2c2.5-1.6,4.8-3.5,6.9-5.6
								c1.3-1.4,2-3.1,3.3-4.5c0.3-0.3,0.5-0.7,0.6-1.1c0.1-0.7-0.5-1.3-0.9-1.8c-1.5-1.8-1.7-3.8-1.6-6c0.1-2.2-0.2-4.5-0.1-6.8
								c0.1-0.3,0-0.7-0.3-0.9c-0.1-0.1-0.3-0.1-0.5-0.1h-2.8c-0.7,0-1.5-0.1-2.1-0.3c-2.4-1-3.1-5.5-2.4-7.7c1.7-4.2,4.4-8,7.8-11
								l3.6-3c3.5-2.6,8.1-3.4,12.3-2l5.7,2.2l1.8-2.7C549.4,826.3,550.5,823.9,551,821.4z"/>
							<path class="st1" d="M658,541.5c-2.7,0.3-5.4,0.8-8,1.4l-6.1,1.7c-2.5,0.8-4.9,1.9-7.2,3.3l-1.6,1.1
								c-2.5,1.5-5.3,2.5-8.1,2.9l-6.2,0.7c-0.2,0-0.5,0-0.7,0c-2.7-0.1-5.2-1.4-6.8-3.6l-2.1-3.2c-1.5-2.2-3.2-4.3-5.1-6.3
								l-1.7-1.7c-1.6-1.3-3.7-1.8-5.7-1.3l-5.7,2.1c-2.8,0.9-5.7,1.2-8.6,0.8l-14.9-2.3c-2-0.2-3.9,0.8-4.9,2.5l-4,7.5
								c-1.4,2.5-2.9,4.9-4.6,7.1l-8.7,11.2c-1.6,2.1-3,4.4-4.1,6.9l-4.4,9.9c-1.3,2.6-3.1,4.9-5.3,6.8l-14.3,11.6
								c-1.6,1.5-2.5,3.6-2.5,5.8l1,13.8c0.3,2.1,1.6,4,3.4,5.1l5.4,2.8c2.6,1.5,4.6,3.7,5.8,6.4l3.1,7.8c1,2.8,0.2,5.9-2,7.9
								l-3.5,2.9c-1.9,1.7-3.4,3.8-4.5,6.1l-0.7,1.6c-0.7,1.7-0.1,3.6,1.4,4.7l2.2,1.4c2.4,1.7,3.9,4.4,4,7.4v1.2
								c-0.1,2.9-2.2,5.4-5,6.1l-7.6,1.4c-2.3,0.6-4.3,1.9-5.8,3.7l-0.8,1.1c-1.8,2.3-4.7,3.6-7.6,3.5l-8.9-0.9
								c-2.1-0.1-4.1,0.9-5.3,2.6l-0.8,1.2c-1.7,2.4-4.5,3.8-7.5,3.6l-6.9-0.7c-2.5-0.2-5.1,0.2-7.5,1l-4.9,2l3.6,6.4
								c1.1,2,3,5.3,4.1,7.2l7.3,12.2c1.4,2.2,3.1,4.3,5,6.1l6.9,6.1c2.1,2,3.7,4.6,4.5,7.4l3,12.1c0.7,2.3,2.1,4.3,4,5.7l3.5,2.3
								c2.4,1.7,4.4,3.7,6.2,6l11.9,17.2c1.5,1.9,3.5,3.4,5.8,4.4l15.4,5.4c2.8,1.1,5.1,3,6.7,5.5l1.3,2.4c1.3,2.6,1.8,5.6,1.4,8.5
								l-1.3,6.9c-0.6,2.9-1.9,5.5-3.7,7.8l-1.4,2.1l0.4,0.2c3,1,5.9,2.4,8.5,4.3c2.2,1.8,3.8,4.2,6.1,6l1.2,1c3.1,2.4,6.7,4,8,3.5
								c1.4-0.8,2.3-2.4,2.2-4c0.2-2.2,1.3-4.3,2.9-5.8c1.8-2,2.9-4.6,2.9-7.3c-0.1-1.6,0.2-3.2,0.9-4.7c0.7-1.2,1.5-1.9,1-3.5
								c-0.3-1.1-1.1-2-1.1-3.1c0-0.7,0.2-1.4,0.4-2.1c0.6-2.1,1.3-4.3,2.2-6.3c0.7-1.2,1.4-2.5,2-3.7c1.4-2.7,3-5.3,4.8-7.8
								c2.2-3,3.9-7.5,3.9-10.1c0.3-4,1.1-7.9,2.4-11.6l4-11.6c0.8-2,2.2-7.7,0.6-9.6c-0.5-0.6-1.4-0.7-2.1-1.1
								c-0.6-0.4-1.1-0.9-1.6-1.6c-1.2-1.6-2.2-3-2.1-5c0.1-1.4,0.1-2.7,0-4.1c-0.3-4.8,0.3-9.5,1.7-14.1c1.2-3.6,2-7.3,2.4-11.1
								c0.2-1.7-0.2-3.3,0.2-5c0.5-1.9,1.5-3.5,2.1-5.4c0.6-1.8,0.6-3.5,1.3-5.2c0.9-2.5,2.4-4.5,3.1-7.1c0.5-2.4,1.2-4.8,2.1-7.1
								c1.2-3.2,2-6.6,2.4-10l0.4-3c0.8-4.7,1.9-9.4,3.3-14l0.2-0.7c1.5-4.5,3.5-8.9,5.8-13.1l4.3-7.4c2-3.4,3.5-8.2,3.3-10.6
								c-0.1-2.5,1.2-4.9,3.4-6.2c3.3-1.6,3.9-6.7,4-9.8c0.1-3.5,2-6.7,4.9-8.5c1-0.5,1.9-1.2,2.7-1.9s1.2-1.9,0.9-3
								c-0.5-0.9-1.2-1.5-2.1-1.9c-2.1-1.4-4.1-7.2-3.4-9.7c0.5-1.7,3.3-5.1,6.4-7.7l3.7-3.1c3-2.6,5.9-6,6.5-7.6
								c0.5-1.6,3.7-4.6,7.1-6.7l1.1-0.7c3.4-2.1,5.8-5.2,5.4-7c-0.3-2.1,0.5-4.2,2.1-5.5c1.7-1.4,3-3.2,3.8-5.2
								c0.3-0.8,0.7-1.5,1.1-2.2c-2.5-1.5-5.8-2.9-7-2.8L658,541.5z"/>
							<path class="st1" d="M699.4,506.1c-2.9-0.6-5.8-1.4-8.6-2.4c-1.7-0.7-4.7-2-6.7-1.4c-1.1,0.4-2.3,0.5-3.5,0.3
								c-1.6-0.7,1.5-3.2,1.6-3.9c0-0.6-0.3-1.1-0.8-1.4c-0.5-0.2-1.1-0.4-1.6-0.6c-2.4-1-2.1-2.7-1.5-4.6c0.6-2.2,0.9-4.5,1.1-6.8
								c0.2-2,3.6-4.2,7.6-4.9c0,0,1.3-0.2,1.6-0.2c1.1-0.1,2.2-0.3,3.3-0.6c0.7,0,1.4-0.2,2-0.5c0.7-0.3,1.1-1,1.1-1.7
								c0-0.1,0-0.2-0.1-0.3c-0.1-0.1-0.3-0.2-0.5-0.2c-3.1-0.2-6.1,0.1-9.1,0.8c-1.7,0.4-3.5,0.1-5.1-0.7c-1.7-0.9-3.6-1.3-5.5-1.4
								c-1.6,0-2.5-0.8-1.9-1.8c0.7-1.1,1.7-2.2,2.3-3.3c0.5-0.9,0.6-2,1.4-2.9c0.6-0.6,1.3-1,1.9-1.6c0.2-0.1,0.3-0.4,0.3-0.7
								c-0.1-0.3-0.4-0.4-0.7-0.5c-1.9-0.4-3.6,1.1-5.5,0.2c-0.4-0.2-0.7-0.3-1.1-0.5c-0.8-0.1-1.7,0-2.5,0.4
								c-2.6,0.8-3.6-1.4-4.2-3.6c-0.3-2.5-0.1-5,0.8-7.3c1.3-3,3.2-5.8,5.5-8.1c2.2-2.1,3.3-4.7,2.7-5.6c-1.2-1.3-2.7-2.2-4.3-2.8
								c-2.3-0.5-4.6-0.4-6.8,0.4c-2.1,0.8-6.9,1.1-10.7,0.7s-9.2-1.2-12-1.8c-4.1-0.7-8.2-0.8-12.3-0.4l-2.2,0.2
								c-4.3,0.4-8.7-0.4-12.7-2.1c-3-1.6-5.5-6-5.5-9.8s0.7-8.2,1.5-9.6s3.5-2.4,6-2.1c2.2,0.3,4.5,0.3,6.8,0
								c2.2-0.8,4.2-2,6.1-3.3c2.1-1.5,3.7-3.3,3.6-4.1c-0.5-1.3-1.4-2.4-2.6-3.2c-1.2-0.9-1-2.1,0.5-2.5c2.2-0.6,4.5-0.1,6.8-0.2
								c2.7-0.1,3.8-1.3,5.4-3.2c2.5-3.6,4-7.7,4.4-12.1l0.2-2.6c0.3-4,0.7-9.6,1-12.5s-1.4-7.9-3.8-11.1l-3.6-4.9
								c-2.1-2.9-3.5-5-4-8.5c0-0.6-0.2-1.1-0.5-1.6c-0.6-0.7-1.6-0.6-2.5-0.6c-3.1,0.2-5.7-1.1-8.6-2c-1.5-0.6-3.1-0.4-4.4,0.4
								c-0.8,0.7-1.4,1.8-2.4,2.1c-1,0-1.9-0.2-2.7-0.8c-2.3-1.2-5-1.2-7.3,0c-3.2,1.7-4.5,5.7-5.5,8.9c-1.4,4-3.8,7.6-6.9,10.5
								c-2.6,2.1-7.9,3.6-11.9,3.3l-13.9-0.8c-4.3-0.3-8.6-1.4-12.5-3.3c-2.9-1.5-5.9-2.9-9-3.9l-3.6,5.9c-1,2.1-1.3,4.5-0.8,6.8
								l2.6,9.5c0.7,2.7-0.2,5.5-2.5,7.2c-2.4,1.3-5.3,1.7-8,1.2l-4.4-0.9c-2.7-0.6-5.5-1.4-8.1-2.4c-2.1-0.7-4.4-0.5-6.4,0.5
								l-4.2,2.4c-2,1.1-5.2,3-7.1,4.3l-4.4,2.8c-1.8,1.3-3.1,3.3-3.6,5.5v0.2c-0.5,2.9-1.6,5.6-3.2,8l-1.1,1.5
								c-1.4,2.1-2.2,4.4-2.5,6.9l-1,16.4c-0.2,2.8-0.8,5.5-1.7,8.1c-0.6,1.5-0.6,3.2-0.1,4.7c1,1.6,1.3,4.8,1,7l-1.6,12.7
								c-0.2,2.3,0.5,4.6,1.8,6.5l0,0l0.9,1.2l8.7,10.9c1.5,1.7,3.6,2.8,5.9,3.1l11.1,0.6c1.2,0.2,2.3-0.7,2.5-1.9
								c0-0.2,0-0.5,0-0.7l-0.6-5c-0.4-2.4-1.5-4.5-3.2-6.3l-3.3-3.1c-2.1-2.1-2.8-5.2-1.9-8l1.2-3.2c1.2-2.7,3.5-4.7,6.4-5.5
								l2.5-0.5c2.9-0.5,5.9,0.3,8.2,2.1l2.1,1.8c1.9,1.5,4.2,2.3,6.6,2.4h7.3c2.7,0,4.9,2.1,4.9,4.8c0,0.2,0,0.4,0,0.6l-1,9.6
								c-0.1,2.3,0.6,4.6,2.1,6.4l11.8,13.3c1.9,2.3,2.6,5.3,1.9,8.2l-1.5,5.4c-0.5,2.2-0.1,4.5,1.1,6.4l4.3,6
								c1.6,2.4,2.8,5,3.7,7.8l1.9,6.8l13,2.1c2.5,0.3,5.1,0,7.5-0.7l5.7-2.1c2.8-0.9,5.9-0.2,8.1,1.8l1.7,1.7c2,2,3.8,4.3,5.4,6.7
								l2.1,3.2c1.2,1.7,3.2,2.6,5.3,2.5l6.2-0.7c2.5-0.4,4.9-1.3,7.1-2.6l1.6-1.1c2.4-1.5,5.1-2.7,7.8-3.6l6.1-1.7
								c2.8-0.7,5.6-1.2,8.4-1.5l11.1-0.9c1.8-0.1,5.7,1.4,8.6,3.2c0.3-0.3,0.5-0.6,0.8-0.8c1.4-1.1,3.1-1.8,4.8-2
								c1.8-0.2,3.5-0.8,5-1.8c1.3-0.9,2.7-1.8,4.2-2.5c1.4-0.9,2.6-2.2,3.3-3.6c0.9-1.7,0.6-3.3-0.7-3.7c-1.2-0.4-2.4-0.5-3.6-0.3
								c-0.7,0.2-1.3-0.6-1.5-1.8c0.1-1.7,0.7-3.4,1.8-4.7c1.2-1.6,2-3.5,2.4-5.4c0.4-3.2,3.1-5,5.7-6.3c0.5-0.2,1-0.6,1.1-1.1
								C700.9,506.6,700.1,506.3,699.4,506.1z"/>
							<path class="st1" d="M343.2,499.8l-0.1-0.1c-1.5-1.9-3.5-3.3-5.8-4.1l-3.1-0.9c-2.8-0.9-5.2-2.7-7-5.1l-3.4-5.2
								c-1.5-2.2-3.3-4.2-5.2-6l-0.5-0.4c-1.1-0.9-1.7-2.2-1.8-3.6s0.4-2.8,1.4-3.8l1.3-1.4c1-1,1-2.7-0.1-3.7
								c-0.1-0.1-0.2-0.1-0.2-0.2l-3.5-2.8c-2.1-1.5-4.4-2.7-6.9-3.4l-5.1-1.3c-2.8-0.9-5.3-2.6-7.1-4.9l-1.7-2.5
								c-1.6-2.4-2.8-5.1-3.6-7.8l-0.7-2.4c-0.6-2.2-1.4-6-1.8-8.3l-2.8-17.5c-0.9-0.8-1.9-1.3-3-1.6c-2.1-0.1-4.3,0.4-6.1,1.4
								c-2,1-4.3,0.7-6-0.7c-1.6-1.4-3.8-2.6-4.9-2.6c-2,0-4.1,0.6-6.1,0.3c-2.3-0.3-4.5-1.9-6.8-1.3c-0.3,0.1-0.5,0.2-0.8,0.4
								c-0.9,0.7-0.8,2.2-0.4,3.3c0.6,1.7,0.9,3.1,1.3,4.8l0.2,0.9c0.9,4.5,0.2,9.2-2,13.2l-2.2,3.6c-2.1,3.4-1.7,7.2,0.7,8.3
								c2.4,1.2,6.4,3.2,8.8,4.5c2.4,1.3,4.6,3.2,4.8,4.2c0.8,1.8,2,3.5,3.4,4.9c1,1,2.9,3.1,1.8,4.6c-0.4,0.5-0.9,0.9-1.5,1.1
								c-1.1,0.5-2.3,0.7-3.5,0.7c-0.4,0.3-0.2,1,0.2,1.3c0.4,0.2,0.9,0.3,1.4,0.3c3-0.1,5.8,0.2,8.3-1.8c1.5-1.2,3.5-1.7,5.4-1.5
								c1.7,0.5,2.9,2,3.1,3.8c0.3,3-1.8,5.1-1.6,8c0,1.5,0.8,2.8,2.1,3.5c0.3,0.2,0.6,0.2,0.9,0.2c0.5-0.1,0.9-0.3,1.3-0.7
								c3.3-2.3,7.7-0.6,11,0.9c2.5,1,5.1,1.4,7.8,1.1c2.3-0.4,6.1,1.1,8.4,3.3c2.7,2.9,4.4,6.5,5,10.4c0.4,4.1,0.4,8.3,0,12.4
								c-0.3,3.7,0.8,7.4,2.9,10.4c2,2.4,3.1,5.1,2.5,6s-2.8,0.9-4.8,0c-1.9-0.8-3.9-1.3-6-1.3c-1.9,0.4-3.7,1.3-5.3,2.5
								s-5.5,1.1-8.5-0.2c-3.1-1.3-5.5-5.5-5.5-9.3c0-3.5,0.4-7,1.1-10.4c0.5-1.7,0.9-3.5,1.1-5.3c0-1.2-0.3-2.4-1-3.4
								c-1.1-1.1-2.6-1.7-4.2-1.8c-1.8-0.2-3.8,1-5.5,0.1c-1-0.5-1.8-1.3-2.3-2.4c-1.3-2.4,0.1-5.4-1.1-8c-1.1-2.3-3.3-3.5-5-5.4
								c-1.1-1.3-2.3-2.4-3.6-3.5c-0.6-0.5-1.3-0.9-2-1.1c-0.8-0.2-1.6,0-2.1,0.6c-0.5,0.8-0.6,1.7-0.5,2.6c0,3.8-1.4,5.5-3.7,8.4
								c-0.2,0.3-0.4,0.6-0.5,0.9s-0.1,0.6-0.1,0.9c0,2,0.7,3.9,0.8,5.8s-1.3,3.3-3,4.2c-0.8,0.4-1.7,0.8-2.1,1.6
								c-0.1,0.3-0.2,0.7-0.2,1c0,3.8,3.2,8.6,5.8,11.3c1.8,1.9,4.1,6.6,5.2,10.4l0.3,1.1c1,3.8,2.1,8.3,2.3,10
								c0.2,1.7,3.3,2.7,6.9,2.4c3.6-0.3,8,2.3,10,5.8c2,3.6,4.4,8.2,5.5,10.5c1.6,3.3,2.3,6.3,0.7,9.8c-0.6,1.4-1.7,2.5-2.3,3.8
								c-0.6,1.5-1.1,3.1-1.5,4.6c-0.6,2.2-1.6,5.4,0.1,7.4c0.9,1,2.2,1.5,3.5,1.4c2.9-0.1,4.8-2.9,6.5-5l15.9-19.4
								c3.1-3.6,6.9-6.5,11.1-8.7l4.7-2.2c4.4-1.9,9.1-2.9,13.9-3.1h4.3c4,0,8.9,2.5,10.9,5.4s1.6,7.8-0.9,10.9
								c-0.9,1.1-1.9,2.2-2.7,3.3c-1.2,1.6-3.5,2.7-4.4,4.4c-0.3,0.6-0.4,1.3-0.4,1.9c-0.2,4.5,1.8,8.8,5.3,11.5
								c2.9,2.5,6.9,3.9,8.8,3.1c5.1-2.1,6.7-8,11.5-9.9c1.6-0.6,3.3-1.2,4.4-2.5c0.6-0.8,0.9-1.8,1.5-2.6c0.8-1,1.8-1.9,2.6-3
								l4.4-6.1c2.3-3.2,4.1-7.8,3.8-10c-0.7-3.7-2-7.3-3.8-10.6l-3.7-7.1c-1.9-3.5-6.2-6.5-9.6-6.6c-4.4,0.2-8.6,1.4-12.5,3.5
								l-3,1.7c-2.4,1.6-5.7,1-7.3-1.4c-0.4-0.6-0.7-1.3-0.8-2l-0.5-1.7c-0.9-4.2,0.6-8.5,4-11.2l3.8-2.8c0.4-0.3,0.9-0.7,1.2-1.1
								l-12.9-1.5C347.6,503.6,345,502.1,343.2,499.8z"/>
							<path class="st1" d="M407.8,689.7l0.7,0.2c2.4,0.7,4.9,0.9,7.3,0.5l7-1.6c2.4-0.7,4.5-2,6.2-3.7l3.3-3.8c2.1-2.1,5-3.1,8-2.5
								l5,1.2c2.8,0.8,5.4,2.3,7.4,4.4l3.7,4.2c1.9,2.2,3.5,4.5,4.9,7l-1,0.6l0,0l1-0.6l1.3,2.4l5.2-2.1c2.7-1,5.7-1.4,8.6-1.2
								l6.9,0.8c2.1,0.1,4.1-0.9,5.3-2.6l0.8-1.2c1.7-2.4,4.5-3.8,7.5-3.6l8.9,0.9c2.1,0.1,4.2-0.9,5.5-2.5l0.8-1.1
								c1.8-2.3,4.4-4,7.2-4.6l7.6-1.4c1.8-0.4,3.1-2,3.2-3.8v-1.2c-0.2-2.2-1.2-4.2-3-5.5l-2.2-1.4c-2.4-1.7-3.4-4.8-2.3-7.5
								l0.7-1.6c1.2-2.6,3-5,5.2-6.9l3.5-2.9c1.4-1.3,1.9-3.4,1.3-5.2l-3.1-7.8c-1-2.2-2.7-4-4.7-5.2l-5.4-2.8
								c-2.6-1.5-4.3-4.1-4.6-7l-1-13.8c-0.1-3,1.1-5.8,3.3-7.8l14.3-11.6c1.9-1.7,3.5-3.7,4.6-6l4.4-9.9c1.2-2.6,2.7-5,4.4-7.3
								l8.7-11.2c1.6-2.2,3.1-4.4,4.4-6.8l4-7.5c1.4-2.4,3.9-3.8,6.7-3.7l-1.6-5.9c-0.8-2.5-1.9-4.9-3.3-7.1l-4.3-6
								c-1.6-2.5-2.1-5.5-1.4-8.4l1.5-5.4c0.4-2.1-0.1-4.3-1.4-6L546.9,483c-1.9-2.3-2.8-5.2-2.6-8.1l1-9.6c0.1-0.7-0.1-1.5-0.6-2
								s-1.2-0.9-2-0.8h-7.3c-2.9-0.1-5.8-1.2-8.1-3l-2.1-1.8c-1.8-1.3-4-1.9-6.2-1.6l-2.5,0.5c-2.1,0.6-3.8,2.1-4.7,4.1l-1.2,3.2
								c-0.6,1.9-0.1,4,1.3,5.5l3.4,3.1c2.1,2.1,3.4,4.8,3.9,7.7l0.6,5c0.4,2.5-1.4,4.8-3.9,5.2c-0.3,0-0.7,0.1-1,0l-11.1-0.7
								c-2.9-0.3-5.7-1.7-7.6-3.9l-8.1-10.2l-8.9-0.3c-2.9-0.2-5.7-1.5-7.8-3.5l-1.5-1.6c-1.7-1.6-3.9-2.5-6.2-2.7h-5.8
								c-2,0.1-3.8,1.3-4.8,3.1l-0.5,1.1c-1.3,2.7-4.1,4.2-7,3.9l-2.4-0.3c-2.4-0.2-4.8,0.3-7,1.4l-7.8,4.5c-2,1.3-3.4,3.2-4.2,5.5
								l-1.2,4.2c-0.7,2.5-3,4.1-5.5,4.2c-0.3,0-0.7,0-1-0.1l-12.8-2.3c0.7,0.7,1.3,1.5,1.8,2.4c1.4,2.4,2.4,5,3,7.7
								c0.7,3.2,2.8,6.9,4.6,8.1c2.9,2.3,5.6,4.9,8,7.7l3.8,4.4c2.9,3.3,6.2,6.2,9.9,8.6c2.8,1.7,5,6.4,4.9,10.3l-0.1,2.7
								c-0.4,4.6-2.1,9.1-4.9,12.8l-3.3,4c-2.6,3-6.6,5.9-8.9,6.4c-5.4,1.1-8.7,7.4-14.3,7.6c-0.7,0-1.5-0.1-2.2,0
								c-0.7,0-1.5,0.2-2,0.7c-1,0.9-0.7,2.1-0.7,3.2c-0.1,2.5,0,4.9,0.2,7.4c0,0.2,0.1,0.5,0.2,0.7c0.2,0.3,0.7,0.4,1,0.2
								s0.6-0.4,0.9-0.7c2.6-2.7,6.4-6.1,10.3-6.9c2.5-0.6,4.9-1.6,7.2-2.8c2.1-1.2,7.1-2.4,11-2.7l2.4-0.2c4-0.3,6.5,0.2,5.6,1.1
								c-1.9,2.5-3.6,5.1-5.1,7.9l-2,3.5c-1,1.7-2.1,3.2-3.2,4.8c-0.9,1.1-1.5,2.3-2,3.6c-0.4,1.4,0,2.5,0.1,3.9
								c0,0.9-0.1,1.8-0.3,2.7c-0.2,0.7-0.2,1.7,0.4,2.1c0.3,0.2,0.7,0.2,1.1,0.1l2.4-0.2c0.7-0.1,1.4-0.1,2,0.2
								c2.3,1.1,0.4,5-0.5,6.3l-13.9,22c-2.8,4.4-4.6,10.2-8.5,13.8c-0.7,0.7-1.6,1.2-2.2,1.9c-2.5,2.5-2.9,7-3.4,10.3
								c-0.8,3.4-2.8,6.4-5.5,8.4c-3.1,2.5-5.6,5.6-7.3,9.2c-0.3,0.7-0.7,1.4-1.3,2l8.4,7.7C403.2,687.4,405.4,688.7,407.8,689.7z"
								/>
							<path class="st2" d="M398.7,446.5c1.6-1.7,4.1-4.4,5.6-6.2l8-8.9c2-2.1,4.2-3.9,6.7-5.4l7.5-4.2c1.7-1.1,2.7-3,2.6-5.1
								l-0.6-5.3c-0.4-2.6-1.2-5.1-2.3-7.4l-1.3-2.5c-0.9-1.7-2.7-2.5-3.7-2.1c-1.5,0.6-2.8,1.8-3.4,3.3c-0.7,2-3.3,4.1-6,4.6
								l-0.5,0.1c-2.6,0.6-5.9-0.2-7.4-1.6c-1.5-1.3-3.3-2.2-5.2-2.8c-2.6-0.8-4.9-2.3-6.9-4.2l-0.9-1c-1.8-1.7-4-2.8-6.4-3.3
								l-8.4-1.3c-2.5-0.3-5,0.1-7.3,1l-1.3,0.6c-2.7,1.1-5.6,1.6-8.5,1.5l-12-0.8c-2.9-0.3-5.6-1.9-7.4-4.2l-3.5-4.9
								c-3.2,7.8-17.1,9.4-18.5-0.6l-0.4-3c-0.6-3.9-2.8-8.2-4.9-9.5c-2.1-1.3-5.4-1.9-7.3-1.3c-3.3,1-4.1,3.7-6.2,6
								c-0.5,0.5-0.9,1-1.3,1.6c-1,1.9,4.8,8.4,1.3,9.6c-1,0.2-2,0-2.9-0.4l-2.6-1c-0.9-0.4-2.2-0.7-2.8,0.2c-0.3,0.6-0.3,1.3,0,1.9
								c1.1,3.5,2.1,7.1,2.7,10.8c0.4,1.9,0.7,3.8,1.1,5.8c0.2,1.2,0.2,3.5,1.6,4.2c1.3,0.6,4.8-1.9,4.8,1c0,1.3-2,4.2-4.4,6.4
								c-2.4,2.2-5.9,2-7.6-0.4c-0.1-0.1-0.2-0.3-0.3-0.4l2.3,14.3c0.4,2.2,1.2,5.8,1.8,8l0.7,2.4c0.8,2.5,1.9,4.9,3.3,7.1l1.7,2.5
								c1.5,1.9,3.5,3.3,5.7,4l5.1,1.3c2.8,0.8,5.4,2.1,7.8,3.8l3.5,2.8c2.2,1.7,2.5,4.8,0.9,7c-0.1,0.1-0.2,0.3-0.3,0.4l-1.3,1.4
								c-1.1,1.2-1,3,0.1,4.1l0.1,0.1l0.5,0.4c2.1,1.9,4,4.1,5.6,6.5l3.4,5.2c1.4,1.9,3.4,3.4,5.7,4.1l3.1,0.9
								c2.8,0.9,5.3,2.7,7.1,5l0.1,0.2c1.4,1.8,3.5,3,5.7,3.3l14.6,1.7c0.3-0.3,0.7-0.6,1-0.9c0.4-0.3,0.8-0.7,1.2-1.1
								c0.3-0.4,0.4-1,0.3-1.5c-0.2-0.4-0.4-0.7-0.7-1c-4.1-4-6.4-10.1-9.1-15.2l-5.2-9.6c-1.9-3.6-0.7-8,2.7-10.2l12.6-7.8
								c3.4-2.1,7.7-1.9,9.5,0.4c1.6,2,5.3,3.6,8.9,3.9c1-1.7,2.1-3.3,3.3-4.8L398.7,446.5z"/>
							<path class="st2" d="M420.8,490.1l1.2-4.2c0.9-2.8,2.8-5.2,5.2-6.8l7.8-4.5c2.6-1.4,5.5-2,8.5-1.7l2.4,0.3
								c1.9,0.2,3.7-0.8,4.6-2.6l0.5-1.1c1.3-2.7,3.9-4.4,6.9-4.5h5.8c2.9,0.1,5.7,1.3,7.9,3.4l1.5,1.6c1.7,1.6,3.9,2.6,6.3,2.8
								l6.9,0.2c-1.5-2.3-2.2-5.1-2-7.8l1.6-12.7c0.3-1.8,0.1-3.7-0.6-5.5c-1.1-1.7-0.9-4.7-0.1-6.7c0.8-2.4,1.3-4.9,1.5-7.5l1-16.4
								c0.3-2.9,1.3-5.7,3-8.1l1.1-1.5c1.4-2.1,2.4-4.5,2.8-7v-0.2c0.5-2.9,2.2-5.5,4.6-7.2l4.4-2.8c2-1.2,5.2-3.2,7.2-4.3l4.2-2.4
								c2.6-1.3,5.7-1.5,8.4-0.6c2.5,1,5.1,1.7,7.7,2.3l4.4,0.9c2.1,0.4,4.3,0.1,6.3-0.9c1.4-1.1,1.9-3,1.5-4.7l-2.5-9.5
								c-0.6-2.9-0.2-5.9,1.1-8.5l3.3-5.5c-3.6-0.9-7.2-1.6-10.9-2c-3.4-0.4-7.9-3.5-9.9-7l-6.7-11.3c-2.3-4.2-3.8-8.7-4.4-13.4
								l-0.2-2.5c-0.4-4-1.7-8.5-2.9-10.1c-1.2-1.6-1.5-5.2-0.6-8.1c1.3-3.9,3-7.7,4.8-11.4c1.8-3.3,2.3-7,1.3-8
								c-1.1-1.1-2.6-1.7-4.2-1.9c-1.3,0-4.4,2.1-7.1,4.7c-2.2,2.2-4.6,4.2-7.2,5.9c-2.2,0.8-4.5,1.2-6.8,1.3c-2.8,0-5.4-1-7.5-2.8
								c-2-1.9-2.2-6.7-5.1-7.2c-1-0.1-2,0-3,0.2c-3.8,0.8-8,1.1-11.6,2.6c-2,0.6-4.1,0.8-6.1,0.7c-2.2-0.1-5.8,2.4-8.1,5.6
								l-0.3,0.4c-2.8,3.5-7,5.6-11.4,5.7l-5-0.1c-8.2-0.2-17,10.7-17,18.5v0.6c-0.3,4-0.3,7.9-0.1,11.9c0.2,2.6-1.8,6.2-4.6,8
								c-3.5,2.6-6.4,5.8-8.8,9.5l-4.3,6.9c-2.6,3.7-6.6,6.1-11,6.7l-0.8,0.1c-4.5,0.1-8.9-1.6-12.1-4.8l-0.2-0.3
								c-2.7-2.9-7.3-3.2-10.2-0.5c-3.5,3.1-6.9,4.8-11.1,7.1c-1.1,0.6-2.3,1.4-2.5,2.6c-0.3,1.8,1.6,3.1,3.2,3.9
								c1.7,0.8,3.6,1.8,3.6,3.7c0,5.4-9.7,7.3-13.4,7.2c-1.4,0-3-0.2-4.1,0.6c-1.2,0.8-1.5,2.3-1.8,3.8l4.6,6.4
								c1.4,1.8,3.4,2.9,5.7,3.2l12,0.8c2.5,0.1,5.1-0.4,7.4-1.3l1.3-0.6c2.7-1.1,5.7-1.5,8.6-1.1l8.4,1.3c2.9,0.6,5.5,2,7.7,4
								l0.9,1c1.6,1.6,3.6,2.8,5.8,3.5c2.3,0.6,4.4,1.8,6.2,3.3c1.6,1.1,3.5,1.5,5.3,1.1l0.5-0.1c1.8-0.4,3.4-1.5,4.3-3.2
								c0.9-2.2,2.7-3.9,4.9-4.7c2.2-0.7,5.1,0.7,6.4,3.2l1.3,2.5c1.3,2.6,2.1,5.4,2.6,8.2l0.6,5.3c0.2,3-1.2,5.8-3.7,7.3l-7.5,4.2
								c-2.3,1.4-4.3,3-6.1,4.9l-8,8.9c-1.5,1.7-4.1,4.5-5.6,6.2l-8.9,9.5c-0.8,1-1.6,2.1-2.3,3.2l1.7-0.1c4.3,0.1,8.3,2.5,10.3,6.3
								l0.6,1.3c1.1,2.5,1.7,5.2,1.9,8c0.3,2.8-1.1,5.1-2.5,7.4c-0.6,0.8-1,1.6-1.1,2.6c0,0.9,0.2,1.7,0.6,2.5
								c0.2,0.4,0.4,0.8,0.7,1.1l15.5,2.8C418.6,492.7,420.2,491.7,420.8,490.1z"/>
							<path class="st2" d="M355.5,645.5l0.4-1.8c0.7-2.5,2.6-4.5,5-5.4l1.4-0.4c2.5-0.9,4.4-2.8,5.2-5.3c0.8-3.1,1.1-6.9,2.9-9.5
								c0.3-0.4,0.8-0.9,1.2-0.7c1.1,0.5-0.2,2.4,0.4,3.1c0.5,0.5,1.3,0.5,1.8,0.1c0.5-0.5,1-1,1.4-1.5c2.6-2.6,6.2-3.9,9.8-3.5
								c1.8,0.2,3.7,0.6,5.4,1.2c2.2,1,4.7,1.4,7.1,1.2c4.9-0.6,6.2-5.5,8-9.4c1.4-3.1,2.9-6.2,4.3-9.3c1-2.1,0.1-4.7-1.9-5.8
								c-2.4-1.1-5.1-1.2-7.6-0.4l-30.4,12.3c-1.7,0.8-3.6,0.1-4.4-1.6c-0.2-0.3-0.3-0.7-0.3-1l-0.9-4.9c-0.4-2-0.6-4.1-0.7-6.1
								c-0.1-1.5,0.1-4.4-0.8-5.5c-0.4-0.5-1-0.7-1.6-0.8c-0.6,0-1.2,0.1-1.8,0.3c-1.8,0.6-3.3,1.5-5.2,2.2l-5.5,1.9l-6.5,2.2
								c-2.5,1-4.4,2.9-5.5,5.3l-4.1,10.5l-3.3,8.5c-0.9,2.8-1.9,5.6-3.1,8.3c-0.2,0.4-0.5,0.9-0.8,1.3c-0.8,1.1-1.8,2.2-1.8,3.6
								c0,1.4,1.2,2.7,2,4c1.1,1.9,1.1,3.7,1.1,5.8l-1.6,10.7c-0.5,3.7,0.4,8.2,3.2,10.8c0.6,0.7,1.5,1.1,2.4,1.3
								c0.7,0.1,1.5-0.1,2.2-0.4c2.7-1.1,4.4-3.6,6.7-5.4c1.4-1.1,2.9-2.2,4.3-3.3l7.8-5.8C353.3,650.5,354.8,648.1,355.5,645.5z"/>
							<path class="st2" d="M551,821.4l1.2-6.9c0.3-2.4-0.1-4.8-1.2-7l-1.3-2.4c-1.3-2-3.2-3.6-5.4-4.5l-15.4-5.4
								c-2.7-1.1-5.1-2.9-6.9-5.2l-11.9-17.1c-1.6-2.1-3.4-3.9-5.5-5.4l-3.5-2.3c-2.4-1.7-4.1-4.2-5-7l-3-12c-0.7-2.3-2-4.5-3.7-6.2
								l-6.9-6.1c-2.1-2-4-4.2-5.5-6.7l-7.3-12.2c-1.2-2-3.1-5.2-4.2-7.3l-6-10.9l0,0c-1.3-2.3-2.9-4.5-4.6-6.6l-3.7-4.2
								c-1.7-1.8-3.9-3-6.2-3.7l-5.1-1.2c-2.1-0.3-4.2,0.3-5.7,1.8l-3.4,3.8c-2,2.1-4.6,3.7-7.4,4.4l-7,1.6
								c-2.9,0.5-5.8,0.4-8.6-0.5l-0.7-0.3c-2.7-1.1-5.2-2.6-7.3-4.6l-8.4-7.8c-1.9,1.7-4.3,2.9-6.8,3.3l-15.7,2.2
								c-2.9,0.6-5.8-1.3-6.4-4.2c-0.1-0.6-0.1-1.3,0-2l0.2-1.7c0.4-3.9-0.2-8.5-1.4-10.1c-1.8-2.4-4.9-1.9-7.5-2.1
								c-1.1-0.2-2.3-0.1-3.3,0.5c-1.2,0.9-1.2,2.6-1.1,4.1c0.3,4.7,0.6,9.5,2.6,13.8c1.3,3,3.2,5.7,5.4,8c1.8,1.5,3.8,2.6,6.1,3.3
								c1.9,0.6,3.3,2.2,3.6,4.2c0.1,2.3-0.7,4.6-2.2,6.3c-1.5,1.6-1.9,6.1-1.1,10l2.2,9.9c0.8,4.5,0.8,9.1-0.2,13.5
								c-1.1,4.5-1.9,9-2.4,13.6L363,756c-0.2,4.5,1.5,8.9,4.6,12.1l8.9,8.2c3.1,2.9,5.7,6.3,7.8,10c1.5,4,2.3,8.2,2.3,12.4v18.6
								c0,4-1.7,9.3-3.7,11.9c-2.9,3.1-6.5,5.5-10.5,7l-0.4,0.1c-3.6,1.2-7.2,1.9-10.6-0.3c-0.8-0.7-1.8-1.3-2.7-1.7
								c-1.1-0.3-2.2-0.4-3.3-0.2c-0.8,0-1.5,0.2-2.2,0.4c-0.7,0.3-1.3,0.8-1.5,1.6c-0.1,0.8,0,1.6,0.5,2.2c0.6,1,1.1,2.1,1.8,3.1
								c1.6,2.6,3.7,5.1,4.8,5.6c3.6,1.8,2.4,8.2,5.3,10.6c1,0.9,2.2,1.4,3.2,2.2c0.8,0.5,1.3,1.5,1.3,2.5c-0.2,0.7-0.5,1.3-0.9,1.8
								c-0.9,1.3-1.6,3.5-0.8,5c1.1,2.1,4.4,4.1,7.2,4.5s8.5,0.6,12.4,0.6h21.8c4.4,0.2,8.3,2.7,10.5,6.4l2.1,4.1
								c1.8,3.5,6.1,6.4,9.5,6.4s8.5-2.4,11.2-5.3l0.4-0.4c2.7-3.1,3.1-7.7,0.9-11.2l-4.9-7.4c-2.6-4-5-8.2-7-12.6l-5.7-13.1
								c-1.7-4.4-2.2-9.1-1.5-13.7l2.4-11.6c1.1-4.6,2.8-9.1,5.1-13.3l6.7-11.6c2.1-3.7,3.8-7.6,4.9-11.7c0.7-3,3.1-6.5,5.3-7.8
								c3.2-1.5,6.6-2.4,10.1-2.6c3.4-0.2,8.8,1.5,11.9,3.9l3.4,2.6c3.2,2.4,5.2,6.1,4.4,8.3c-0.7,2.2-2.1,7.1-3,11l-0.5,2
								c-0.9,3.9-4,7.3-6.8,7.6c-2.9,0.3-5.9-0.6-6.8-2.1c-0.9-1.4-2.2-3.9-3-5.4s-4.6-2.1-8.4-1.2c-3.9,0.9-7.6,2.3-8.2,3.2
								s-0.5,3.1,0.4,4.8c1.1,2,2.6,3.7,4.4,4.9c1.7,1,3.7,1.3,5.7,1c1.6-0.4,3.3-0.6,5-0.4c1.2,0.2,2,3.7,1.8,7.7l-0.3,5.1
								c0,4.7,1.2,9.3,3.6,13.3l9.4,14.4c2.3,3.9,3.1,8.6,2.2,13.1l-2.2,8.8c-0.4,1.8-0.7,3.7-1.2,5.4c-0.9,2.9-2,5.2-1.5,8.4
								c0.3,2.2,0.7,4.1,0.2,6.3c-0.5,2-3.4,5.7-6.5,8.2c-2.7,2.2-4.9,5.1-8.4,6.1c-0.7,0.2-1.5,0.4-2.2,0.6
								c-0.7,0.3-1.3,0.8-1.6,1.5c-0.2,0.9,0,1.9,0.4,2.7c0.9,2.2,2.5,4.8,1,7.2c-0.5,1-0.9,2.1-1.1,3.2c-0.4,1.2-0.9,2.3-1.7,3.3
								c-0.4,0.5-0.6,1.1-0.5,1.7c0.3,0.8,1.3,0.9,2.1,0.9c2.5-0.1,5-1.1,6.9-2.8c1.7-1.4,4.1-2.8,5.2-4.9c0.8-1.5,4.5-4,8.2-5.4
								l14.4-5.6c4.4-1.8,8.6-4.2,12.6-6.9l3.1-2.3c3.7-2.9,6.9-6.4,9.4-10.3c2.1-3.5,3.1-6.8,6.5-9.2c2.5-1.6,4.8-3.5,6.9-5.6
								c1.3-1.4,2-3.1,3.3-4.5c0.3-0.3,0.5-0.7,0.6-1.1c0.1-0.7-0.5-1.3-0.9-1.8c-1.5-1.8-1.7-3.8-1.6-6c0.1-2.2-0.2-4.5-0.1-6.8
								c0.1-0.3,0-0.7-0.3-0.9c-0.1-0.1-0.3-0.1-0.5-0.1h-2.8c-0.7,0-1.5-0.1-2.1-0.3c-2.4-1-3.1-5.5-2.4-7.7c1.7-4.2,4.4-8,7.8-11
								l3.6-3c3.5-2.6,8.1-3.4,12.3-2l5.7,2.2l1.8-2.7C549.4,826.3,550.5,823.9,551,821.4z"/>
							<path class="st2" d="M658,541.5c-2.7,0.3-5.4,0.8-8,1.4l-6.1,1.7c-2.5,0.8-4.9,1.9-7.2,3.3l-1.6,1.1
								c-2.5,1.5-5.3,2.5-8.1,2.9l-6.2,0.7c-0.2,0-0.5,0-0.7,0c-2.7-0.1-5.2-1.4-6.8-3.6l-2.1-3.2c-1.5-2.2-3.2-4.3-5.1-6.3
								l-1.7-1.7c-1.6-1.3-3.7-1.8-5.7-1.3l-5.7,2.1c-2.8,0.9-5.7,1.2-8.6,0.8l-14.9-2.3c-2-0.2-3.9,0.8-4.9,2.5l-4,7.5
								c-1.4,2.5-2.9,4.9-4.6,7.1l-8.7,11.2c-1.6,2.1-3,4.4-4.1,6.9l-4.4,9.9c-1.3,2.6-3.1,4.9-5.3,6.8l-14.3,11.6
								c-1.6,1.5-2.5,3.6-2.5,5.8l1,13.8c0.3,2.1,1.6,4,3.4,5.1l5.4,2.8c2.6,1.5,4.6,3.7,5.8,6.4l3.1,7.8c1,2.8,0.2,5.9-2,7.9
								l-3.5,2.9c-1.9,1.7-3.4,3.8-4.5,6.1l-0.7,1.6c-0.7,1.7-0.1,3.6,1.4,4.7l2.2,1.4c2.4,1.7,3.9,4.4,4,7.4v1.2
								c-0.1,2.9-2.2,5.4-5,6.1l-7.6,1.4c-2.3,0.6-4.3,1.9-5.8,3.7l-0.8,1.1c-1.8,2.3-4.7,3.6-7.6,3.5l-8.9-0.9
								c-2.1-0.1-4.1,0.9-5.3,2.6l-0.8,1.2c-1.7,2.4-4.5,3.8-7.5,3.6l-6.9-0.7c-2.5-0.2-5.1,0.2-7.5,1l-4.9,2l3.6,6.4
								c1.1,2,3,5.3,4.1,7.2l7.3,12.2c1.4,2.2,3.1,4.3,5,6.1l6.9,6.1c2.1,2,3.7,4.6,4.5,7.4l3,12.1c0.7,2.3,2.1,4.3,4,5.7l3.5,2.3
								c2.4,1.7,4.4,3.7,6.2,6l11.9,17.2c1.5,1.9,3.5,3.4,5.8,4.4l15.4,5.4c2.8,1.1,5.1,3,6.7,5.5l1.3,2.4c1.3,2.6,1.8,5.6,1.4,8.5
								l-1.3,6.9c-0.6,2.9-1.9,5.5-3.7,7.8l-1.4,2.1l0.4,0.2c3,1,5.9,2.4,8.5,4.3c2.2,1.8,3.8,4.2,6.1,6l1.2,1c3.1,2.4,6.7,4,8,3.5
								c1.4-0.8,2.3-2.4,2.2-4c0.2-2.2,1.3-4.3,2.9-5.8c1.8-2,2.9-4.6,2.9-7.3c-0.1-1.6,0.2-3.2,0.9-4.7c0.7-1.2,1.5-1.9,1-3.5
								c-0.3-1.1-1.1-2-1.1-3.1c0-0.7,0.2-1.4,0.4-2.1c0.6-2.1,1.3-4.3,2.2-6.3c0.7-1.2,1.4-2.5,2-3.7c1.4-2.7,3-5.3,4.8-7.8
								c2.2-3,3.9-7.5,3.9-10.1c0.3-4,1.1-7.9,2.4-11.6l4-11.6c0.8-2,2.2-7.7,0.6-9.6c-0.5-0.6-1.4-0.7-2.1-1.1
								c-0.6-0.4-1.1-0.9-1.6-1.6c-1.2-1.6-2.2-3-2.1-5c0.1-1.4,0.1-2.7,0-4.1c-0.3-4.8,0.3-9.5,1.7-14.1c1.2-3.6,2-7.3,2.4-11.1
								c0.2-1.7-0.2-3.3,0.2-5c0.5-1.9,1.5-3.5,2.1-5.4c0.6-1.8,0.6-3.5,1.3-5.2c0.9-2.5,2.4-4.5,3.1-7.1c0.5-2.4,1.2-4.8,2.1-7.1
								c1.2-3.2,2-6.6,2.4-10l0.4-3c0.8-4.7,1.9-9.4,3.3-14l0.2-0.7c1.5-4.5,3.5-8.9,5.8-13.1l4.3-7.4c2-3.4,3.5-8.2,3.3-10.6
								c-0.1-2.5,1.2-4.9,3.4-6.2c3.3-1.6,3.9-6.7,4-9.8c0.1-3.5,2-6.7,4.9-8.5c1-0.5,1.9-1.2,2.7-1.9s1.2-1.9,0.9-3
								c-0.5-0.9-1.2-1.5-2.1-1.9c-2.1-1.4-4.1-7.2-3.4-9.7c0.5-1.7,3.3-5.1,6.4-7.7l3.7-3.1c3-2.6,5.9-6,6.5-7.6
								c0.5-1.6,3.7-4.6,7.1-6.7l1.1-0.7c3.4-2.1,5.8-5.2,5.4-7c-0.3-2.1,0.5-4.2,2.1-5.5c1.7-1.4,3-3.2,3.8-5.2
								c0.3-0.8,0.7-1.5,1.1-2.2c-2.5-1.5-5.8-2.9-7-2.8L658,541.5z"/>
							<path class="st2" d="M699.4,506.1c-2.9-0.6-5.8-1.4-8.6-2.4c-1.7-0.7-4.7-2-6.7-1.4c-1.1,0.4-2.3,0.5-3.5,0.3
								c-1.6-0.7,1.5-3.2,1.6-3.9c0-0.6-0.3-1.1-0.8-1.4c-0.5-0.2-1.1-0.4-1.6-0.6c-2.4-1-2.1-2.7-1.5-4.6c0.6-2.2,0.9-4.5,1.1-6.8
								c0.2-2,3.6-4.2,7.6-4.9c0,0,1.3-0.2,1.6-0.2c1.1-0.1,2.2-0.3,3.3-0.6c0.7,0,1.4-0.2,2-0.5c0.7-0.3,1.1-1,1.1-1.7
								c0-0.1,0-0.2-0.1-0.3c-0.1-0.1-0.3-0.2-0.5-0.2c-3.1-0.2-6.1,0.1-9.1,0.8c-1.7,0.4-3.5,0.1-5.1-0.7c-1.7-0.9-3.6-1.3-5.5-1.4
								c-1.6,0-2.5-0.8-1.9-1.8c0.7-1.1,1.7-2.2,2.3-3.3c0.5-0.9,0.6-2,1.4-2.9c0.6-0.6,1.3-1,1.9-1.6c0.2-0.1,0.3-0.4,0.3-0.7
								c-0.1-0.3-0.4-0.4-0.7-0.5c-1.9-0.4-3.6,1.1-5.5,0.2c-0.4-0.2-0.7-0.3-1.1-0.5c-0.8-0.1-1.7,0-2.5,0.4
								c-2.6,0.8-3.6-1.4-4.2-3.6c-0.3-2.5-0.1-5,0.8-7.3c1.3-3,3.2-5.8,5.5-8.1c2.2-2.1,3.3-4.7,2.7-5.6c-1.2-1.3-2.7-2.2-4.3-2.8
								c-2.3-0.5-4.6-0.4-6.8,0.4c-2.1,0.8-6.9,1.1-10.7,0.7s-9.2-1.2-12-1.8c-4.1-0.7-8.2-0.8-12.3-0.4l-2.2,0.2
								c-4.3,0.4-8.7-0.4-12.7-2.1c-3-1.6-5.5-6-5.5-9.8s0.7-8.2,1.5-9.6s3.5-2.4,6-2.1c2.2,0.3,4.5,0.3,6.8,0
								c2.2-0.8,4.2-2,6.1-3.3c2.1-1.5,3.7-3.3,3.6-4.1c-0.5-1.3-1.4-2.4-2.6-3.2c-1.2-0.9-1-2.1,0.5-2.5c2.2-0.6,4.5-0.1,6.8-0.2
								c2.7-0.1,3.8-1.3,5.4-3.2c2.5-3.6,4-7.7,4.4-12.1l0.2-2.6c0.3-4,0.7-9.6,1-12.5s-1.4-7.9-3.8-11.1l-3.6-4.9
								c-2.1-2.9-3.5-5-4-8.5c0-0.6-0.2-1.1-0.5-1.6c-0.6-0.7-1.6-0.6-2.5-0.6c-3.1,0.2-5.7-1.1-8.6-2c-1.5-0.6-3.1-0.4-4.4,0.4
								c-0.8,0.7-1.4,1.8-2.4,2.1c-1,0-1.9-0.2-2.7-0.8c-2.3-1.2-5-1.2-7.3,0c-3.2,1.7-4.5,5.7-5.5,8.9c-1.4,4-3.8,7.6-6.9,10.5
								c-2.6,2.1-7.9,3.6-11.9,3.3l-13.9-0.8c-4.3-0.3-8.6-1.4-12.5-3.3c-2.9-1.5-5.9-2.9-9-3.9l-3.6,5.9c-1,2.1-1.3,4.5-0.8,6.8
								l2.6,9.5c0.7,2.7-0.2,5.5-2.5,7.2c-2.4,1.3-5.3,1.7-8,1.2l-4.4-0.9c-2.7-0.6-5.5-1.4-8.1-2.4c-2.1-0.7-4.4-0.5-6.4,0.5
								l-4.2,2.4c-2,1.1-5.2,3-7.1,4.3l-4.4,2.8c-1.8,1.3-3.1,3.3-3.6,5.5v0.2c-0.5,2.9-1.6,5.6-3.2,8l-1.1,1.5
								c-1.4,2.1-2.2,4.4-2.5,6.9l-1,16.4c-0.2,2.8-0.8,5.5-1.7,8.1c-0.6,1.5-0.6,3.2-0.1,4.7c1,1.6,1.3,4.8,1,7l-1.6,12.7
								c-0.2,2.3,0.5,4.6,1.8,6.5l0,0l0.9,1.2l8.7,10.9c1.5,1.7,3.6,2.8,5.9,3.1l11.1,0.6c1.2,0.2,2.3-0.7,2.5-1.9
								c0-0.2,0-0.5,0-0.7l-0.6-5c-0.4-2.4-1.5-4.5-3.2-6.3l-3.3-3.1c-2.1-2.1-2.8-5.2-1.9-8l1.2-3.2c1.2-2.7,3.5-4.7,6.4-5.5
								l2.5-0.5c2.9-0.5,5.9,0.3,8.2,2.1l2.1,1.8c1.9,1.5,4.2,2.3,6.6,2.4h7.3c2.7,0,4.9,2.1,4.9,4.8c0,0.2,0,0.4,0,0.6l-1,9.6
								c-0.1,2.3,0.6,4.6,2.1,6.4l11.8,13.3c1.9,2.3,2.6,5.3,1.9,8.2l-1.5,5.4c-0.5,2.2-0.1,4.5,1.1,6.4l4.3,6
								c1.6,2.4,2.8,5,3.7,7.8l1.9,6.8l13,2.1c2.5,0.3,5.1,0,7.5-0.7l5.7-2.1c2.8-0.9,5.9-0.2,8.1,1.8l1.7,1.7c2,2,3.8,4.3,5.4,6.7
								l2.1,3.2c1.2,1.7,3.2,2.6,5.3,2.5l6.2-0.7c2.5-0.4,4.9-1.3,7.1-2.6l1.6-1.1c2.4-1.5,5.1-2.7,7.8-3.6l6.1-1.7
								c2.8-0.7,5.6-1.2,8.4-1.5l11.1-0.9c1.8-0.1,5.7,1.4,8.6,3.2c0.3-0.3,0.5-0.6,0.8-0.8c1.4-1.1,3.1-1.8,4.8-2
								c1.8-0.2,3.5-0.8,5-1.8c1.3-0.9,2.7-1.8,4.2-2.5c1.4-0.9,2.6-2.2,3.3-3.6c0.9-1.7,0.6-3.3-0.7-3.7c-1.2-0.4-2.4-0.5-3.6-0.3
								c-0.7,0.2-1.3-0.6-1.5-1.8c0.1-1.7,0.7-3.4,1.8-4.7c1.2-1.6,2-3.5,2.4-5.4c0.4-3.2,3.1-5,5.7-6.3c0.5-0.2,1-0.6,1.1-1.1
								C700.9,506.6,700.1,506.3,699.4,506.1z"/>
							<path class="st2" d="M343.2,499.8l-0.1-0.1c-1.5-1.9-3.5-3.3-5.8-4.1l-3.1-0.9c-2.8-0.9-5.2-2.7-7-5.1l-3.4-5.2
								c-1.5-2.2-3.3-4.2-5.2-6l-0.5-0.4c-1.1-0.9-1.7-2.2-1.8-3.6s0.4-2.8,1.4-3.8l1.3-1.4c1-1,1-2.7-0.1-3.7
								c-0.1-0.1-0.2-0.1-0.2-0.2l-3.5-2.8c-2.1-1.5-4.4-2.7-6.9-3.4l-5.1-1.3c-2.8-0.9-5.3-2.6-7.1-4.9l-1.7-2.5
								c-1.6-2.4-2.8-5.1-3.6-7.8l-0.7-2.4c-0.6-2.2-1.4-6-1.8-8.3l-2.8-17.5c-0.9-0.8-1.9-1.3-3-1.6c-2.1-0.1-4.3,0.4-6.1,1.4
								c-2,1-4.3,0.7-6-0.7c-1.6-1.4-3.8-2.6-4.9-2.6c-2,0-4.1,0.6-6.1,0.3c-2.3-0.3-4.5-1.9-6.8-1.3c-0.3,0.1-0.5,0.2-0.8,0.4
								c-0.9,0.7-0.8,2.2-0.4,3.3c0.6,1.7,0.9,3.1,1.3,4.8l0.2,0.9c0.9,4.5,0.2,9.2-2,13.2l-2.2,3.6c-2.1,3.4-1.7,7.2,0.7,8.3
								c2.4,1.2,6.4,3.2,8.8,4.5c2.4,1.3,4.6,3.2,4.8,4.2c0.8,1.8,2,3.5,3.4,4.9c1,1,2.9,3.1,1.8,4.6c-0.4,0.5-0.9,0.9-1.5,1.1
								c-1.1,0.5-2.3,0.7-3.5,0.7c-0.4,0.3-0.2,1,0.2,1.3c0.4,0.2,0.9,0.3,1.4,0.3c3-0.1,5.8,0.2,8.3-1.8c1.5-1.2,3.5-1.7,5.4-1.5
								c1.7,0.5,2.9,2,3.1,3.8c0.3,3-1.8,5.1-1.6,8c0,1.5,0.8,2.8,2.1,3.5c0.3,0.2,0.6,0.2,0.9,0.2c0.5-0.1,0.9-0.3,1.3-0.7
								c3.3-2.3,7.7-0.6,11,0.9c2.5,1,5.1,1.4,7.8,1.1c2.3-0.4,6.1,1.1,8.4,3.3c2.7,2.9,4.4,6.5,5,10.4c0.4,4.1,0.4,8.3,0,12.4
								c-0.3,3.7,0.8,7.4,2.9,10.4c2,2.4,3.1,5.1,2.5,6s-2.8,0.9-4.8,0c-1.9-0.8-3.9-1.3-6-1.3c-1.9,0.4-3.7,1.3-5.3,2.5
								s-5.5,1.1-8.5-0.2c-3.1-1.3-5.5-5.5-5.5-9.3c0-3.5,0.4-7,1.1-10.4c0.5-1.7,0.9-3.5,1.1-5.3c0-1.2-0.3-2.4-1-3.4
								c-1.1-1.1-2.6-1.7-4.2-1.8c-1.8-0.2-3.8,1-5.5,0.1c-1-0.5-1.8-1.3-2.3-2.4c-1.3-2.4,0.1-5.4-1.1-8c-1.1-2.3-3.3-3.5-5-5.4
								c-1.1-1.3-2.3-2.4-3.6-3.5c-0.6-0.5-1.3-0.9-2-1.1c-0.8-0.2-1.6,0-2.1,0.6c-0.5,0.8-0.6,1.7-0.5,2.6c0,3.8-1.4,5.5-3.7,8.4
								c-0.2,0.3-0.4,0.6-0.5,0.9s-0.1,0.6-0.1,0.9c0,2,0.7,3.9,0.8,5.8s-1.3,3.3-3,4.2c-0.8,0.4-1.7,0.8-2.1,1.6
								c-0.1,0.3-0.2,0.7-0.2,1c0,3.8,3.2,8.6,5.8,11.3c1.8,1.9,4.1,6.6,5.2,10.4l0.3,1.1c1,3.8,2.1,8.3,2.3,10
								c0.2,1.7,3.3,2.7,6.9,2.4c3.6-0.3,8,2.3,10,5.8c2,3.6,4.4,8.2,5.5,10.5c1.6,3.3,2.3,6.3,0.7,9.8c-0.6,1.4-1.7,2.5-2.3,3.8
								c-0.6,1.5-1.1,3.1-1.5,4.6c-0.6,2.2-1.6,5.4,0.1,7.4c0.9,1,2.2,1.5,3.5,1.4c2.9-0.1,4.8-2.9,6.5-5l15.9-19.4
								c3.1-3.6,6.9-6.5,11.1-8.7l4.7-2.2c4.4-1.9,9.1-2.9,13.9-3.1h4.3c4,0,8.9,2.5,10.9,5.4s1.6,7.8-0.9,10.9
								c-0.9,1.1-1.9,2.2-2.7,3.3c-1.2,1.6-3.5,2.7-4.4,4.4c-0.3,0.6-0.4,1.3-0.4,1.9c-0.2,4.5,1.8,8.8,5.3,11.5
								c2.9,2.5,6.9,3.9,8.8,3.1c5.1-2.1,6.7-8,11.5-9.9c1.6-0.6,3.3-1.2,4.4-2.5c0.6-0.8,0.9-1.8,1.5-2.6c0.8-1,1.8-1.9,2.6-3
								l4.4-6.1c2.3-3.2,4.1-7.8,3.8-10c-0.7-3.7-2-7.3-3.8-10.6l-3.7-7.1c-1.9-3.5-6.2-6.5-9.6-6.6c-4.4,0.2-8.6,1.4-12.5,3.5
								l-3,1.7c-2.4,1.6-5.7,1-7.3-1.4c-0.4-0.6-0.7-1.3-0.8-2l-0.5-1.7c-0.9-4.2,0.6-8.5,4-11.2l3.8-2.8c0.4-0.3,0.9-0.7,1.2-1.1
								l-12.9-1.5C347.6,503.6,345,502.1,343.2,499.8z"/>
							<path class="st2" d="M407.8,689.7l0.7,0.2c2.4,0.7,4.9,0.9,7.3,0.5l7-1.6c2.4-0.7,4.5-2,6.2-3.7l3.3-3.8c2.1-2.1,5-3.1,8-2.5
								l5,1.2c2.8,0.8,5.4,2.3,7.4,4.4l3.7,4.2c1.9,2.2,3.5,4.5,4.9,7l-1,0.6l0,0l1-0.6l1.3,2.4l5.2-2.1c2.7-1,5.7-1.4,8.6-1.2
								l6.9,0.8c2.1,0.1,4.1-0.9,5.3-2.6l0.8-1.2c1.7-2.4,4.5-3.8,7.5-3.6l8.9,0.9c2.1,0.1,4.2-0.9,5.5-2.5l0.8-1.1
								c1.8-2.3,4.4-4,7.2-4.6l7.6-1.4c1.8-0.4,3.1-2,3.2-3.8v-1.2c-0.2-2.2-1.2-4.2-3-5.5l-2.2-1.4c-2.4-1.7-3.4-4.8-2.3-7.5
								l0.7-1.6c1.2-2.6,3-5,5.2-6.9l3.5-2.9c1.4-1.3,1.9-3.4,1.3-5.2l-3.1-7.8c-1-2.2-2.7-4-4.7-5.2l-5.4-2.8
								c-2.6-1.5-4.3-4.1-4.6-7l-1-13.8c-0.1-3,1.1-5.8,3.3-7.8l14.3-11.6c1.9-1.7,3.5-3.7,4.6-6l4.4-9.9c1.2-2.6,2.7-5,4.4-7.3
								l8.7-11.2c1.6-2.2,3.1-4.4,4.4-6.8l4-7.5c1.4-2.4,3.9-3.8,6.7-3.7l-1.6-5.9c-0.8-2.5-1.9-4.9-3.3-7.1l-4.3-6
								c-1.6-2.5-2.1-5.5-1.4-8.4l1.5-5.4c0.4-2.1-0.1-4.3-1.4-6L546.9,483c-1.9-2.3-2.8-5.2-2.6-8.1l1-9.6c0.1-0.7-0.1-1.5-0.6-2
								s-1.2-0.9-2-0.8h-7.3c-2.9-0.1-5.8-1.2-8.1-3l-2.1-1.8c-1.8-1.3-4-1.9-6.2-1.6l-2.5,0.5c-2.1,0.6-3.8,2.1-4.7,4.1l-1.2,3.2
								c-0.6,1.9-0.1,4,1.3,5.5l3.4,3.1c2.1,2.1,3.4,4.8,3.9,7.7l0.6,5c0.4,2.5-1.4,4.8-3.9,5.2c-0.3,0-0.7,0.1-1,0l-11.1-0.7
								c-2.9-0.3-5.7-1.7-7.6-3.9l-8.1-10.2l-8.9-0.3c-2.9-0.2-5.7-1.5-7.8-3.5l-1.5-1.6c-1.7-1.6-3.9-2.5-6.2-2.7h-5.8
								c-2,0.1-3.8,1.3-4.8,3.1l-0.5,1.1c-1.3,2.7-4.1,4.2-7,3.9l-2.4-0.3c-2.4-0.2-4.8,0.3-7,1.4l-7.8,4.5c-2,1.3-3.4,3.2-4.2,5.5
								l-1.2,4.2c-0.7,2.5-3,4.1-5.5,4.2c-0.3,0-0.7,0-1-0.1l-12.8-2.3c0.7,0.7,1.3,1.5,1.8,2.4c1.4,2.4,2.4,5,3,7.7
								c0.7,3.2,2.8,6.9,4.6,8.1c2.9,2.3,5.6,4.9,8,7.7l3.8,4.4c2.9,3.3,6.2,6.2,9.9,8.6c2.8,1.7,5,6.4,4.9,10.3l-0.1,2.7
								c-0.4,4.6-2.1,9.1-4.9,12.8l-3.3,4c-2.6,3-6.6,5.9-8.9,6.4c-5.4,1.1-8.7,7.4-14.3,7.6c-0.7,0-1.5-0.1-2.2,0
								c-0.7,0-1.5,0.2-2,0.7c-1,0.9-0.7,2.1-0.7,3.2c-0.1,2.5,0,4.9,0.2,7.4c0,0.2,0.1,0.5,0.2,0.7c0.2,0.3,0.7,0.4,1,0.2
								s0.6-0.4,0.9-0.7c2.6-2.7,6.4-6.1,10.3-6.9c2.5-0.6,4.9-1.6,7.2-2.8c2.1-1.2,7.1-2.4,11-2.7l2.4-0.2c4-0.3,6.5,0.2,5.6,1.1
								c-1.9,2.5-3.6,5.1-5.1,7.9l-2,3.5c-1,1.7-2.1,3.2-3.2,4.8c-0.9,1.1-1.5,2.3-2,3.6c-0.4,1.4,0,2.5,0.1,3.9
								c0,0.9-0.1,1.8-0.3,2.7c-0.2,0.7-0.2,1.7,0.4,2.1c0.3,0.2,0.7,0.2,1.1,0.1l2.4-0.2c0.7-0.1,1.4-0.1,2,0.2
								c2.3,1.1,0.4,5-0.5,6.3l-13.9,22c-2.8,4.4-4.6,10.2-8.5,13.8c-0.7,0.7-1.6,1.2-2.2,1.9c-2.5,2.5-2.9,7-3.4,10.3
								c-0.8,3.4-2.8,6.4-5.5,8.4c-3.1,2.5-5.6,5.6-7.3,9.2c-0.3,0.7-0.7,1.4-1.3,2l8.4,7.7C403.2,687.4,405.4,688.7,407.8,689.7z"
								/>
							<path class="st2" d="M726.5,227.1c-2.4-1.5-4.5-3.6-6.2-6l-4.9-7.9c-1.2-2-3.2-5.1-4.5-7l-10.2-15.6
								c-1.5-2.1-3.4-3.9-5.5-5.3l-2.1-1.2c-0.1,0-0.2-0.1-0.3-0.1h-0.1c-0.2,0-0.3-0.1-0.5-0.2c-0.5-0.1-0.9-0.1-1.4,0.1
								c-0.7,0.3-1.3,0.8-1.6,1.6l-2.9,7.3c-1.2,2.6-3.5,4.6-6.3,5.4l-18.2,4.2c-2.8,0.5-5.8-0.3-8-2.2l-4.9-4.6
								c-2-2.1-2.8-5-2.1-7.8l0.9-2.8c0.5-1.9-0.3-3.8-2-4.9l-0.4-0.2c-2-1.1-5.3-3-7.3-4.2l-1.1-0.7c-2.3-1.5-4.5-3.3-6.3-5.4
								c-1.6-2.2-2.1-5-1.3-7.6c1-2.4,2.5-4.6,4.4-6.4c1.4-1.6,2.2-3.7,2.1-5.8l-1.5-19.2c-0.2-1.8-0.5-3.5-1-5.3
								c-0.7,0.5-1.6,0.8-2.4,0.9c-1.1-0.2-2.2-0.5-3.2-0.8l-2.8-1.1c-0.8-0.3-3.5,2-5.9,5.2l-3.2,4.1c-2.4,3.2-4.7,7.3-5.1,9.2
								c-0.4,1.9-3.1,5.4-5.9,7.7c-2,1.7-4.1,3.2-6.4,4.6c-0.9,0.5-1.5,1.3-1.8,2.3c-0.7,1.8-1.6,3.5-2.7,5
								c-1.5,2.6-2.5,5.4-2.9,8.4c-0.4,3-3.9,5.7-7.9,6l-1,0.1c-3.9,0.4-8.7,2.2-10.5,4.2c-1.8,1.9-6.5,3.6-10.5,3.8L558,185
								c-4,0.2-7.7,0.5-8.3,0.9c-0.9,0.4-2,0.6-3,0.6c-1.6-0.3-3.1-1-4.3-2.1c-2.5-2-5.1-3.8-7.9-5.4c-3.4-1.8-7.4-2.4-11.3-1.6
								c-4.4,1.3-4.9,4.1-7.1,7.4c-3.2,4.8-10.1,7.1-15.5,6.7c-2.9-0.2-5.5,0-5.9,0.3c-0.4,0.4-0.9,0.7-1.4,1
								c-0.5,0.2-0.7,0.7-0.7,1.2c0.1,0.7,0.6,1.3,1.2,1.6c0.9,0.9,1.6,2.1,1.7,3.4c0.3,1.5,0.7,5,0.9,7.7c0.3,3,1,6,2.2,8.9
								c1.1,2.8,1.7,5.7,1.8,8.7c-0.1,3.1-0.9,6.1-2.3,8.9c-1.2,2.2-2.9,4.2-4.9,5.7c-1.4,0.9-1.9,4.8-1.1,8.7l0.9,4.4
								c0.8,3.9,2,8.8,2.6,10.9c0.7,3.2,0.8,6.5,0.3,9.8c-0.2,1.3-0.4,3.3-1.1,4.4s-2.3,1.2-3,2.3c-0.4,0.8-0.1,1.9,0.6,2.4
								c1.4,1,5.1,3,6.7,2c1.2-0.7,2-1.8,2.4-3.1c0.1-1,2.3-3.8,4.9-6.3c2.9-2.8,5.5-5.9,7.7-9.3c1.4-2.3,3.1-4.4,5.1-6.1
								c1.6-0.8,3.4-1.2,5.2-1.2c1.7,0.1,4.9,2.5,7.3,5.3c2,2.5,4.2,4.8,6.7,6.9c1.6,1.5,2.7,3.4,3.3,5.5c0.5,2,1.4,3.9,2.7,5.5
								c0.9,0.9,2.2,1.4,3.5,1.5c1.8-0.3,3.5-0.9,5.2-1.6c1.5-0.7,3.1-1.1,4.8-1.3c0.7,0.1,1.9,1.4,2.7,2.8c0.8,1.4,2.4,2.2,4,1.9
								c1.4-0.4,4.9-2.7,7.8-5.1c3.1-2.6,5.9-5.6,8.3-8.9c1.6-2.5,3-5.2,3.1-6.1c0.2-1.4,0.7-2.6,1.4-3.8c0.5-0.7,1.6-2.4,2.5-1.5
								c0.8,0.9,0.4,2.8,0.7,3.8c0.6,1.6,1.7,3,3.2,3.9c2.3,1.6,4.9,2.7,6,2.6c1.1-0.2,2.1-0.8,2.7-1.7c0.5-0.8,0.8-1.7,1.1-2.6
								c0.2-0.6,1.4-1.1,2.7-1c1.4,0.1,2.8,1.5,3.3,3.2c0.6,1.8,2.5,2.9,4.4,2.5c1.9-0.3,3.6-1.3,4.9-2.7c1.1-0.9,2.6-1,3.5-2
								c0.3-0.3,0.5-0.7,0.8-1c1.3-1.6,4.2-1.9,6.1-2.1c4-0.5,7.9-1.3,11.7-2.3l4-1.1c2.7-0.8,5.5-1.3,8.4-1.4
								c1.7-0.1,6-0.7,7.4,0.4c0.6,0.5,1.6,2.7,2.2,5c1,2.7,3.1,4.8,5.7,5.7c3.7,1.6,7.1,3.7,10,6.3l0.7,0.6c3.4,2.8,7.1,5.2,11.1,7
								c3.1,1.3,8.7,3.4,12.4,4.8l2.8,1.1c4.3,1.9,7.9,4.9,10.5,8.7l0.8,1.4c2.1,3.4,4.3,6,5,5.8s1.1-3.6,0.9-7.6l-0.4-6.5
								c-0.2-4,0.8-7.8,2.4-8.5c1.5-0.7,4.5-2.2,6.7-3.3c2.2-1.2,4.2-2.9,5.8-4.8c1.1-1.5,1.7-6,1.4-10l-0.7-8.1
								c-0.3-3.7-0.3-7.3,0-11c0.4-2.2,1.6-4.2,3.4-5.6c0.9-0.9,1.5-2.1,1.7-3.3l0,0L726.5,227.1z"/>
							<path class="st2" d="M1113.5,0.9l-2.5,1.4c-2.5,1.4-5.2,2.4-7.9,3.1l-6,1.4c-2.8,0.6-5.6-1-6.5-3.7l-3.3-11
								c-0.8-2.3-2.3-4.4-4.2-6.1l-7.8-6c-2.1-1.5-4.5-2.7-7-3.5l-11.8-3.3c-2.3-0.5-4.7-0.1-6.7,1.1l-17,11.9
								c-2.4,1.6-5.5,1.2-7.4-1l-1.3-1.5c-1.7-1.8-3.9-3-6.2-3.6l-6.3-1.2c-2.8-0.6-5.5-1.5-8.1-2.6l-1.5-0.7
								c-2.5-1.1-5-1.8-7.7-2.4l-2.7-0.5c-2.1-0.2-4.1,0.7-5.2,2.4l-2.2,3.9c-1.2,2-3.3,5.2-4.6,7l-3,4.1c-1.4,2.1-2.2,4.5-2.3,6.9
								v1.2c-0.1,2.9-2.1,5.3-4.9,6l-11.5,2.5c-2.1,0.6-3.7,2.2-4.3,4.2l-1.3,5.2c-0.8,2.8-2.6,5.2-5.1,6.7l-10.7,6.1
								c-2.3,1.4-4.6,2.9-6.8,4.6l-3.7,3c1.6,0.9,3,2,4.3,3.2l6.3,6.7c1.9,2.2,2.6,5.2,1.9,8L933.8,70c-0.5,2.3-0.2,4.6,1,6.6
								l6.3,9.1c1.5,2.4,2.6,5.2,3,8l1.8,16.6c0.4,2.6,1.1,5.1,2.2,7.5l1.7,3.3c1.2,2.6,2.1,5.3,2.7,8.1l1.9,11.6
								c0.5,2.3,1.5,4.5,2.9,6.4c1.7,2.1,2.8,4.7,3.2,7.4l1.7,14.9v0.1c2.1,0,4.1,0.2,6.2,0.6c3,0.4,5.9-0.4,8.3-2.3
								c3.3-2.4,7-4.3,10.8-5.5l3.9-1.3c3.8-1.2,7.7-2.7,8.7-3.2c1.1-0.6,1.9-1.7,2.4-2.9c0.3-1,2.8-3.1,5.5-4.5s6.3-1.3,7.9,0.3
								c2.6,2.8,4.9,5.8,7.1,8.9l0.8,1.1c2.2,3.3,7.1,5.9,10.9,5.8c3.9-0.1,7.8,0.2,11.6,0.8c2.6,0.6,6.1-0.1,7.6-1.4
								c3.2-2.7,5-6.7,7.3-10.1c1-1.5,2.5-3.4,4.4-2c0.3,0.2,0.5,0.5,0.9,0.5c0.3,0,0.5-0.2,0.7-0.4c0.1-0.3,0.2-0.5,0.3-0.8
								c0.2-2,1.1-3.9,2.5-5.5c1.4-1.5,2.1-3.5,1.9-5.5c-0.2-2.4-2.3-4.3-4.8-4.1c-0.1,0-0.2,0-0.4,0c-2.6,0.2-5.2,1-7.4,2.4
								c-1.3,1.1-2.8,1-3.3-0.2c-0.5-1-0.5-2.3,0-3.3c0.5-0.6,4.1-1.8,8-2.6c4.6-0.9,9.4-2.8,13.1,1.6c1.1,1.4,2.9,2.2,4.7,2.2
								c2.4-0.7,4.7-1.8,6.8-3.2c2.2-1.4,4.5-2.5,7-3.3c1.5-0.3,4.5-3.2,6.8-6.5l3.7-5.4c2.4-3.5,5.2-6.7,8.3-9.6
								c1.7-1.3,3.6-2.4,5.7-3.1l-8.1-15.2c-1.1-2.4-1.3-5.1-0.5-7.6l2.9-7.6c0.8-2.5,0.6-5.2-0.6-7.5l-1.8-3
								c-1.2-2.4-1.8-5.1-1.7-7.8l1.4-13.8c0.4-2.7,1.4-5.3,2.9-7.5l14.7-20.2c1.6-2.3,2.9-4.7,4-7.2l4.4-11h-17.1
								C1118.2-0.9,1115.7-0.3,1113.5,0.9z"/>
							<path class="st2" d="M955.8,148.6c-1.7-2.1-2.9-4.7-3.4-7.3l-1.9-11.6c-0.5-2.6-1.3-5.1-2.5-7.6l-1.7-3.4
								c-1.2-2.6-2-5.4-2.4-8.2l-1.8-16.6c-0.4-2.5-1.3-5-2.7-7.1l-6.3-9c-1.5-2.5-2-5.4-1.3-8.3l4.7-15.6c0.5-2.1,0-4.4-1.5-6.1
								l-6.3-6.7c-1.5-1.4-3.2-2.6-5-3.5h-0.1c-0.4-0.2-0.8-0.4-1.3-0.5l-11.1-3.5c-2.7-1-4.9-3.1-6.1-5.7l-0.4-1.1l-13.9,4.1
								c-2.8,0.7-5.8,0.6-8.5-0.2l-4.1-1.4c-2.3-0.6-4.7-0.4-6.8,0.6l-0.6,0.4c-2.6,1.3-5.5,1.9-8.4,1.6l-11-1.6
								c-2.2-0.2-4.4,0.7-5.9,2.3L830.2,51c-1.9,2.1-4.4,3.8-7.2,4.7l-4,1.1c-2.1,0.7-3.8,2.4-4.5,4.4l-0.7,2.3
								c-0.5,2,0.2,4,1.9,5.3l4.1,2.8c2,1.3,2.6,4,1.3,6c-0.2,0.3-0.4,0.6-0.7,0.8l-1.3,1.3c-2.1,2-4.8,3.3-7.6,3.9l-6.9,1.1
								c-2.4,0.5-4.7,1.6-6.7,3.2l-2.1,1.9c-2.2,1.9-5,2.9-7.9,3.1h-10.5c-2.6,0.1-5.3,0.5-7.8,1.3l-6.6,2.4
								c-2.8,0.9-5.6,1.2-8.5,0.9l-14.4-2c-2.3-0.2-4.5,0.6-6.1,2.2l-15,15.9c-1.6,1.9-2.7,4.2-3,6.7l-1.9,17.5
								c-0.4,2.9-1.9,5.5-4.2,7.3l-4,2.9c-1.8,1.5-3.1,3.6-3.5,6l-1,7.5c-0.5,2.9-1.8,5.5-3.8,7.6l-0.5,0.5c-1.7,1.8-2.7,4-3,6.4
								l-0.4,6.5l0.2,0.1l2.1,1.2c2.4,1.5,4.6,3.5,6.2,5.9l10.3,15.6c1.3,1.9,3.3,5.1,4.5,7l4.9,7.9c1.5,2.1,3.3,3.9,5.5,5.3l13.9,8
								c0.1-1.2,0.1-2.5,0-3.7l-0.4-3.6c-0.4-3.9,0.9-9.2,2.9-11.7s5.6-7.1,8.1-10.2l7-8.9c3-3.4,7.2-5.5,11.7-5.8l4.4-0.1
								c4-0.1,8.4-0.3,9.7-0.6c1.2-0.3,2.4,0.4,2.7,1.6c0.1,1.5,0.1,3-0.1,4.4c-0.1,2-0.1,4.1,0.2,6.1s2.8,5.9,5.7,8.7l2.1,2.1
								c2.8,2.8,4.2,7.3,3,10c-1.8,3.7-4,7.3-6.4,10.8l-4.9,6.9c-2.3,3.2-4,6.4-3.8,7.1c0.2,0.7,1.4,0.7,2.6,0.1
								c2.2-1,4.6-1.7,6.9-2.2c2.8-0.9,4.8-3.5,4.9-6.4c0.1-3.3,0.8-6.6,2.1-9.6c1.2-2.5,2.8-4.7,4.8-6.5c1.5-1.3,6-1.7,9.9-1
								l0.7,0.1c3.9,0.7,8.3,0.4,9.8-0.6c2.2-1.3,4.6-2.2,7-2.7c2.7-0.8,4.8-3,5.5-5.7c0.4-2,1.1-3.9,2.2-5.7c1.3-1.6,4-2.2,5.5-3.6
								c1.8-1.6,3.8-2.8,4.4-2.6c0.9,0.3,1.7,0.7,2.4,1.2c1,0.6,2.2,0.8,3.3,0.7c1.9-0.5,3.5-1.5,4.9-2.9c1.6-1.5,6.1-2.8,10-3
								l9.1-0.5c3.6-0.2,7.2-0.7,10.8-1.6c1.6-0.6,3.2-1.1,4.9-1.5c0.7-0.1,2.5-2.4,3.9-5.1c1.4-2.7,5.5-4.6,9.3-4.3
								c3.7,0.3,7.4,0.2,11.1-0.4c2.7-0.7,5.1-2.4,6.7-4.7c1.2-2,2.5-3.7,3-3.7c0.4,0,0.6,1.5,0.4,3.3c-0.4,3.3,3.8,5.3,6.3,6.2
								c3.2,1,6.5,1.3,9.8,0.7c4.3-0.7,7.8-3.7,9.3-7.8c1.1-3.6,3.5-6.8,5.4-7.2l-1.7-14.8C958.3,152.6,957.3,150.5,955.8,148.6z"/>
							<path class="st2" d="M636.3,130.6l1.5,19.1c0.2,2.7-0.8,5.4-2.7,7.4c-1.6,1.6-3,3.5-3.9,5.7c-0.6,1.9-0.2,4,1,5.6
								c1.7,1.9,3.6,3.6,5.8,5l1.1,0.6c2,1.2,5.2,3,7.2,4.1l0.4,0.2c2.5,1.5,3.6,4.4,2.9,7.1l-0.9,2.8c-0.5,2.1,0.1,4.3,1.6,5.8
								l4.9,4.6c1.7,1.4,4,2,6.2,1.7l18.2-4.1c2.2-0.7,4-2.2,4.9-4.2l2.9-7.3c0.5-1.3,1.5-2.3,2.8-2.7c0.5-0.2,1.1-0.3,1.7-0.2
								l0.4-6.1c0.3-2.9,1.6-5.6,3.6-7.7l0.5-0.5c1.7-1.8,2.8-4,3.3-6.4l1-7.5c0.5-2.9,2-5.4,4.3-7.3l4-2.9c1.8-1.5,3-3.6,3.4-5.9
								l1.9-17.5c0.4-2.9,1.7-5.6,3.5-7.8l14.9-15.8c2.1-2,4.9-3,7.8-2.8l14.4,2c2.6,0.2,5.1,0,7.6-0.8l6.6-2.4
								c2.7-0.9,5.6-1.4,8.4-1.5H788c2.4-0.1,4.8-1,6.7-2.6l2-2c2.2-1.9,4.9-3.1,7.8-3.7l6.9-1.1c2.4-0.5,4.7-1.7,6.5-3.3l1.3-1.3
								c1-0.9,1.1-2.4,0.2-3.4c-0.2-0.2-0.3-0.3-0.6-0.5l-4.1-2.8c-2.3-1.7-3.3-4.7-2.6-7.4l0.7-2.3c1-2.7,3.1-4.9,5.9-5.8l4-1.1
								c2.4-0.8,4.5-2.2,6.2-4L844,31.4c1.9-2.1,4.8-3.2,7.7-3l11,1.6c2.5,0.2,4.9-0.3,7.2-1.4l0.6-0.4c2.6-1.3,5.6-1.6,8.4-0.8
								l4.1,1.4c2.4,0.7,4.9,0.7,7.4,0.2l13.7-4l-0.3-0.9c-1-2.6,0.1-5.6,2.5-7c1.7-1,2.6-3,2.2-4.9l-0.9-3.9
								c-0.6-2.4-1.9-4.6-3.7-6.3c-1-0.8-1.5-2-1.4-3.3c0.3-1.2,1.2-2.2,2.4-2.6l14.2-5.7c2.1-1,3.7-2.7,4.5-4.9l4.7-15.1
								c0.7-2.2,1.9-5.8,2.7-7.9l1.4-3.7c0.6-2,0.1-4.1-1.4-5.5l-10.3-8.9c-2.1-2-3.8-4.4-4.8-7.1c-0.2-0.8-0.4-1.7-0.7-2.7
								c-0.9-3-1.9-6.3-1-8.6c1.2-3,4.9-3.7,7.9-4.4c0.9-0.2,1.8-0.4,2.4-0.6l4.9-1.6c0.1-0.2,0.2-0.5,0.3-0.7
								c0.5-0.8,1-1.9,0.3-2.6c-0.5-0.3-1.2-0.4-1.8-0.2c-3.9,0.8-7.8,1.9-11.7,2.7c-1.9,0.4-4,0.6-5.9,0.3c-1,0-1.9-0.4-2.5-1.1
								c-1.3-1.7-3-3.1-5-4.2s-5.9,0.4-8.7,3.2l-0.2,0.2c-2.8,2.8-6,5.5-7,6c-2,0.6-4,0.9-6.1,0.9c-2.7,0.2-5.2,1.4-7.1,3.2
								c-1.6,1.7-6.1,3.3-10.1,3.7l-3.6,0.3c-3.2,0.2-6.4,0.7-9.5,1.6c-2.8,1.6-5.4,3.5-7.8,5.6l-2.6,2.2c-3,2.6-7.9,4.8-10.7,5
								c-2.3,0.2-5.3-2.2-6.8-1.6c-2.2,0.9-2.5,4.9-2.1,6.6c0.6,3.5,0.9,7.1,0.9,10.7v0.2c-0.2,4.5-2.1,8.8-5.4,11.8l-28,23.5
								c-3.8,3.1-10.5,3.4-13.5,7.5c-2.2,3-3.6,7.4-5.5,10.8c-2.2,3.8-5.1,6-8.6,8.4c-4.3,3.1-7,8.1-10.9,11.6
								c-6,5.4-13.8,6.4-19.2,12.8c-1.9,2.3-4.3,4.4-5.3,4.9c-1,0.4-3.2,2.4-4.8,4.4c-2.9,3.8-7.6,6-10.3,9.9
								c-1.5,2.1-2.4,4.9-4.8,6c-0.8,0.4-1.7,0.5-2.6,0.8c-3.7,1.5-4.9,7.1-7.5,9.9c-2.5,2.7-5.2,5-6.1,5.2
								c-2.7,0.7-2.7,4.4-4.8,5.6c-1,0.5-2,0.9-3.1,1c-0.8,0.1-1.5,0.3-2.1,0.7c-1.1,0.8-1.2,2.4-1.8,3.7c-0.9,1.6-2.7,2.3-3.7,3.8
								c-0.7,1.1-0.8,2.6-1.4,3.8c-1.9,3.2-4.7,5.7-8,7.2l-1.3,0.6c-4.4,1.9-9,3-13.7,3.4h-1c-4,0.2-9.1,2-11.3,4.1
								c-0.6,0.6-1.2,1.1-1.9,1.5c0.1,0.1,0.1,0.2,0.1,0.3C635.7,126.6,636.1,128.6,636.3,130.6z"/>
							<path class="st2" d="M1157-25.4l-4.6-15c-0.9-2.6-2.1-5.1-3.5-7.5l-9.3-14.3c-1.4-2.3-2.3-4.9-2.6-7.7l-1.6-19.4
								c-1,0.4-2.1,0.7-3.1,1c-3.7,1-7.4,2.3-10.8,4l-14.4,6.9c-4.3,1.9-9,3-13.7,3.3l-22.6,0.5c-3.7,0-7.5,0.5-11.1,1.5
								c-2.1,0.7-5.9,1.8-8.4,2.4c-3.9,0.8-7.8,1.2-11.8,1.3l-16.5,0.6c-4.8,0.1-9.6-0.4-14.3-1.4l-8.9-2c-3.3-0.9-6.6-1.3-10-1.4
								c-1.7,0.2-5.9,1.9-9.4,3.8l-9.5,5.3c-3.5,1.9-7.5,4.4-9,5.5c-1.8,1.2-3.9,1.7-6,1.5c-1.8-0.3-6.5-1.3-10.3-2.2l-5-1.3
								c-4.3-1.3-7.8-4.4-9.7-8.4l-1-2.6c-1-2.3-1.3-5-0.7-7.5l-3.5,1.1c-0.9,0.3-1.7,0.5-2.6,0.6c-2.7,0.6-5.7,1.2-6.5,3.2
								c-0.7,1.6,0.3,4.8,1,7.3c0.3,1,0.6,1.9,0.7,2.7c0.9,2.4,2.3,4.5,4.1,6.2l10.3,8.9c2.1,1.9,2.9,5,2,7.7l-1.4,3.7
								c-0.8,2.1-2,5.6-2.7,7.8l-4.7,15.1c-1,2.7-3.1,5-5.7,6.2L906-2.4c-0.6,0.2-1.1,0.6-1.2,1.2c0,0.6,0.2,1.2,0.7,1.5
								c2.1,2,3.5,4.5,4.3,7.3l0.9,3.9c0.5,2.8-0.7,5.6-3.2,7c-1.6,0.9-2.2,2.9-1.6,4.6l1.5,3.8c1,2.1,2.7,3.7,4.9,4.6l11.1,3.5
								c0.3,0.1,0.7,0.2,1,0.4l4.4-3.6c2.2-1.7,4.6-3.3,7-4.7l10.8-6.1c2-1.3,3.5-3.3,4.1-5.5l1.3-5.2c0.8-2.8,3-4.9,5.8-5.6
								l11.6-2.5c1.9-0.5,3.2-2.2,3.3-4.1v-0.9c0.1-2.9,1.1-5.7,2.7-8.1l3-4.1c1.4-1.8,3.4-4.9,4.5-6.9l2.2-3.9
								c1.6-2.4,4.4-3.7,7.2-3.3l2.7,0.5c2.8,0.5,5.5,1.4,8.1,2.5l1.5,0.7c2.5,1.1,5,1.9,7.7,2.5l6.3,1.2c2.8,0.7,5.4,2.2,7.4,4.3
								l1.3,1.5c1.2,1.4,3.3,1.6,4.8,0.6l17.2-11.9c2.5-1.5,5.4-2,8.3-1.4l11.8,3.3c2.7,0.9,5.3,2.2,7.7,3.8l7.8,6
								c2.2,1.9,3.9,4.3,4.8,7l3.3,11c0.6,1.7,2.3,2.7,4.1,2.4l6-1.4c2.6-0.7,5.1-1.7,7.5-3l2.5-1.4c2.6-1.4,5.4-2.1,8.3-2.2h17.5
								c0.1,0,0.2,0,0.4,0.1l0.7-1.7c1.1-2.5,2.8-4.6,4.9-6.4l10.7-7.9C1156.8-20.4,1157.6-23,1157-25.4z"/>
						</g>
					</g>
				</g>
			</g>
			<path class="st2" d="M228.2,148.7c0.3-0.6,0.5-1.2,0.7-1.8c0.9-3,1.8-6.3,0.7-9.3c-1.2-3.4-1-7.1,0.7-10.3l0.3-0.6
				c1.5-3.2,0.9-7.3-1.3-9.1c-2.2-1.9-6.1-1.4-8.7,1L217,122c-2.6,2.4-5.6,4.3-8.9,5.5c-2.3,0.6-5.2,3.9-6.4,7.2l-1.7,4.9
				c-0.8,2.2-1.4,5.1-0.3,7.3c0.7,1.1,1.2,2.3,1.8,3.4c0.7,2.1-0.1,4.8-0.4,7l-1.9,9.8c-1.2,6.1-3.5,11.9-6.9,17.1
				c-0.1,0.1-0.2,0.2-0.2,0.3c-0.4,0.5-0.7,1.1-0.9,1.7c-0.2,0.6,0,1.3,0.5,1.8c0.4,0.3,1,0.4,1.5,0.4c2.2,0,4.1-0.9,6.2-0.9
				c3.6,0.1,6.5,2.8,6.8,6.4l0.1,1.8c0.2,3.5-0.8,6.9-2.2,7.5c-3.1,1.4-4.5-2.1-6.3-3.6c-1.1-1-2.7-1.3-4-0.6
				c-0.4,0.3-0.8,0.7-1.1,1.1c-1.1,1.5-2.6,4.3-4.8,4.3c-2.5,0-4.1-3.4-4.6-5.4c-0.1-0.5-0.4-1.1-0.9-1.1s-0.7,0.7-0.8,1.3
				c-0.3,2.4-1.4,4.6-1.8,6.9c-0.3,1.4-0.7,2.9-1,4.3c-0.9,4.1-1.5,8.4-1.8,12.6l-1.2,17.3c-0.2,3.5,2.3,5.6,5.7,4.7l8.7-2.4
				c3.6-1.2,6.3-4.3,6.9-8l0.1-0.9c0.6-4.2,1.7-8.3,3.1-12.3l1.7-4.3c1.6-3.7,3.8-7,6.6-9.8c2.6-2.8,4.4-6.4,4.9-10.2
				c0.5-4.2,1.4-8.3,1.7-12.4c0.1-0.4,0-0.8-0.1-1.1c-0.7-1.4-2.7-0.2-3.7-1c-0.8-0.6-0.6-2.6-0.5-3.5c0.7-3.4,2.1-6.5,3.9-9.4
				l6.4-10.1C223.3,156.2,226.5,152.5,228.2,148.7z"/>
			<path class="st3" d="M429.9,159.3c0,0.1,0,0.1-0.2,0.1s-0.6,0-2.2,0h-8.2v1.1h7.7c1.6,0,2.2,0,2.3,0c0.1,0,0.1,0,0.1,0.1
				c0,0.3-0.1,0.7-0.1,1c0,1.2-0.3,2.3-0.8,3.4c-0.3,0.4-0.8,0.7-1.3,0.7c-0.4,0-0.7,0-1.2,0c-0.3,0-0.3,0-0.3-0.3s-0.1-0.5-0.2-0.7
				c0.5,0.1,1,0.1,1.5,0.1c0.3,0,0.6-0.1,0.8-0.4c0.4-1,0.6-2,0.6-3.1h-6.8v2.3h2.9v-0.9c0-0.3,0-0.6-0.1-0.9c0.4,0,0.7,0.1,1,0.1
				c0.1,0,0.2,0.1,0.2,0.1c0,0.1,0,0.2-0.1,0.2c-0.1,0.2-0.1,0.4-0.1,0.5v0.9c0,0.3,0,0.5,0,0.6s0,0.1-0.1,0.1s-0.9,0-2.2,0h-5.3
				v0.7c0,0.1,0,0.1-0.1,0.1H417c-0.1,0-0.1,0-0.1-0.1s0-0.3,0-0.9v-1.3c0-0.3,0-0.7-0.1-1c0.3,0,0.7,0,1,0.1c0.1,0,0.2,0.1,0.2,0.1
				c0,0.1,0,0.2-0.1,0.2c-0.1,0.1-0.1,0.3-0.1,0.5v0.8h2.9v-2.3c-1.4,0-2.1,0-2.2,0s-0.1,0-0.1-0.1s0-0.6,0-1.9v-4.3
				c0-1.3,0-1.8,0-1.9c0-0.1,0-0.1,0.1-0.1s0.6,0,2.2,0h0.7l0.5-0.9c0.1-0.3,0.2-0.6,0.2-0.9c0.3,0,0.7,0.1,1,0.2
				c0.1,0,0.2,0.1,0.2,0.2c0,0.1-0.1,0.1-0.1,0.2c-0.1,0.1-0.2,0.2-0.2,0.3c-0.2,0.3-0.3,0.6-0.5,0.9h2.6c1.5,0,2.1,0,2.2,0
				s0.1,0,0.1,0.1s0,0.4,0,1.3v1.7c0,1,0,1.2,0,1.3s0,0.1-0.1,0.1s-0.6,0-2.2,0h-5.5v1.1h8.2c1.6,0,2.2,0,2.2,0c0.1,0,0.2,0,0.2,0.1
				L429.9,159.3z M426.1,153.8h-6.8v1.1h6.8V153.8z M426.1,155.7h-6.8v1.2h6.8V155.7z"/>
			<path class="st3" d="M436.3,155.8c0.5,1.2,1.2,2.4,2.1,3.4c-0.2,0.2-0.3,0.4-0.4,0.6c0,0.1-0.1,0.2-0.1,0.2s-0.1-0.1-0.2-0.2
				c-0.6-1-1.1-2-1.5-3.1c0,4.9,0.1,8.7,0.1,9s0,0.1-0.1,0.1h-0.8c-0.1,0-0.1,0-0.1-0.1s0.1-4.1,0.1-8.7c-0.5,1.8-1.3,3.6-2.3,5.2
				c-0.1,0.1-0.1,0.2-0.2,0.2c0,0-0.1-0.1-0.1-0.2c-0.1-0.2-0.2-0.4-0.4-0.6c1.2-1.7,2.2-3.7,2.8-5.7h-0.7c-1.1,0-1.4,0-1.5,0
				s-0.1,0-0.1-0.1v-0.6c0-0.1,0-0.1,0.1-0.1s0.4,0,1.5,0h0.8v-1.7c0-0.6,0-1.3-0.1-1.9c0.4,0,0.7,0,1,0.1c0.1,0,0.2,0.1,0.2,0.1
				c0,0.1,0,0.2-0.1,0.3c-0.1,0.4-0.1,0.9-0.1,1.3v1.7h0.3c1.1,0,1.4,0,1.5,0s0.1,0,0.1,0.1v0.6c0,0.1,0,0.1-0.1,0.1s-0.4,0-1.5,0
				L436.3,155.8z M442.3,158.7c0.2,1,0.6,1.9,1.1,2.7c0.6-0.4,1.2-0.9,1.8-1.4c0.2-0.2,0.4-0.5,0.6-0.8c0.3,0.2,0.5,0.4,0.7,0.6
				c0.1,0.1,0.1,0.1,0.1,0.2c0,0.1-0.1,0.1-0.2,0.2c-0.2,0.1-0.4,0.2-0.6,0.4c-0.6,0.6-1.3,1.1-2,1.6c0.9,1.2,2.1,2.1,3.5,2.7
				c-0.2,0.2-0.4,0.4-0.5,0.6c-0.1,0.2-0.1,0.2-0.2,0.2s-0.2,0-0.2-0.1c-2.6-1.5-4.4-4-5-6.9H440v5.4c0.9-0.3,1.8-0.6,2.7-1
				c0,0.2-0.1,0.4-0.1,0.6c0,0.3,0,0.3-0.3,0.4c-1.2,0.4-2.2,0.8-3.8,1.3c-0.2,0-0.4,0.1-0.6,0.3c0,0-0.1,0.1-0.2,0.1
				s-0.1,0-0.2-0.2s-0.2-0.6-0.3-0.9c0.5,0,0.9-0.1,1.4-0.2l0.4-0.1v-9.2c0-1.9,0-2.7,0-2.8s0-0.1,0.1-0.1s0.7,0,2,0h2.6
				c1.3,0,1.8,0,1.9,0s0.1,0,0.1,0.1s0,0.6,0,1.7v2.8c0,1.1,0,1.6,0,1.7s0,0.1-0.1,0.1s-0.6,0-1.9,0L442.3,158.7z M444.7,153.1h-4.8
				v1.9h4.8V153.1z M444.7,155.8h-4.8v2h4.8V155.8z"/>
			<path class="st3" d="M454.3,162.9c-0.2,0.1-0.3,0.2-0.4,0.3c-0.8,0.8-1.8,1.5-2.8,2c-0.1,0.1-0.2,0.1-0.2,0.1
				c-0.1,0-0.1-0.1-0.2-0.2c-0.1-0.2-0.3-0.4-0.5-0.5c1.1-0.4,2.1-1.1,2.9-1.8c0.2-0.2,0.5-0.5,0.6-0.8c0.3,0.1,0.5,0.3,0.8,0.5
				c0.1,0.1,0.2,0.2,0.2,0.2C454.5,162.8,454.4,162.9,454.3,162.9z M463.4,161.2c0,0.1,0,0.1-0.1,0.1s-0.6,0-2.2,0h-3.9v2.5
				c0,1.4,0,1.8,0,1.9c0,0.1,0,0.1-0.1,0.1h-0.8c-0.1,0-0.1,0-0.1-0.1s0-0.5,0-1.9v-2.5H453c-1.6,0-2.1,0-2.2,0s-0.1,0-0.1-0.1
				s0-0.7,0-2v-4.3c0-0.6,0-1.2-0.1-1.8c0.4,0,0.7,0,1.1,0.1c0.1,0,0.2,0.1,0.2,0.1c0,0.1,0,0.2-0.1,0.3c-0.1,0.4-0.1,0.8-0.1,1.2
				v5.6h9.4c1.6,0,2.1,0,2.2,0s0.1,0,0.1,0.1V161.2z M461.4,157.3c0,1.2,0,1.7,0,1.7s-0.1,0.1-0.2,0.1s-0.5,0-2,0H456
				c-1.5,0-2,0-2,0c-0.1,0-0.2,0-0.2-0.1s0-0.5,0-1.7V154c0-1.2,0-1.6,0-1.7c0-0.1,0-0.1,0.1-0.1s0.6,0,2,0h3.3c1.5,0,1.9,0,2,0
				s0.2,0,0.2,0.1s0,0.5,0,1.7V157.3z M460.5,152.9h-5.7v1.3h5.7V152.9z M460.5,154.9h-5.7v1.3h5.7V154.9z M460.5,156.9h-5.7v1.4
				h5.7V156.9z M459.3,162.2c0.2-0.1,0.2-0.1,0.3-0.1c1,1,2.3,1.8,3.6,2.4c-0.2,0.1-0.4,0.3-0.5,0.5s-0.2,0.2-0.2,0.2
				c-0.1,0-0.2,0-0.2-0.1c-1.2-0.7-2.4-1.5-3.4-2.6c-0.1-0.1-0.1-0.1,0.1-0.3L459.3,162.2z"/>
			<path class="st3" d="M466.2,165.5l13.7-14.2l0.6,0.6L466.8,166L466.2,165.5z"/>
			<path class="st3" d="M483.3,155.9c0.1-0.1,0.2-0.1,0.3-0.1c0.8,0.5,1.6,1.1,2.3,1.7c0.1,0.1,0.1,0.1,0,0.2l-0.4,0.4
				c-0.2,0.2-0.2,0.2-0.3,0.1c-0.7-0.7-1.4-1.3-2.2-1.8c-0.1-0.1-0.1-0.1,0-0.2L483.3,155.9z M484.5,164.8c-0.1,0.2-0.2,0.5-0.3,0.7
				c0,0.1-0.1,0.2-0.1,0.2c-0.1,0-0.2,0-0.3-0.1c-0.3-0.2-0.4-0.3-0.7-0.5c0.3-0.4,0.6-0.7,0.8-1.2c0.6-1.2,1.1-2.5,1.5-3.8
				c0.1,0.2,0.3,0.4,0.5,0.5s0.2,0.1,0.2,0.2c0,0.1,0,0.2-0.1,0.3C485.6,162.4,485.1,163.7,484.5,164.8z M484.2,152
				c0.1-0.1,0.2-0.1,0.3-0.1c0.8,0.5,1.5,1.1,2.1,1.7c0.1,0.1,0.1,0.2-0.1,0.3l-0.3,0.4c-0.1,0.1-0.2,0.2-0.3,0.1
				c-0.6-0.7-1.3-1.3-2.1-1.8c-0.1-0.1-0.1-0.1,0-0.2L484.2,152z M497.3,156.2c0,0.1,0,0.1-0.1,0.1h-1.3v0.7c0,1.1,0,1.5,0,1.6
				s0,0.1-0.1,0.1s-0.7,0-2.3,0h-1.6v1.5h2c1.6,0,2.1,0,2.2,0s0.1,0,0.1,0.1v0.6c0,0.1,0,0.1-0.1,0.1s-0.6,0-2.2,0H492v1.5h2.8
				c1.6,0,2.2,0,2.3,0s0.1,0,0.1,0.1v0.6c0,0.1,0,0.1-0.1,0.1s-0.6,0-2.3,0H492c0,1.6,0,2.4,0,2.4s0,0.1-0.1,0.1h-0.8
				c-0.1,0-0.1,0-0.1-0.1s0-0.8,0-2.4h-2.5c-1.6,0-2.2,0-2.3,0c-0.1,0-0.1,0-0.1-0.1v-0.7c0-0.1,0-0.1,0.1-0.1s0.6,0,2.3,0h2.5V161
				h-1.6c-1.6,0-2.1,0-2.2,0s-0.1,0-0.1-0.1v-0.6c0-0.1,0-0.1,0.1-0.1s0.6,0,2.2,0h1.6v-1.5h-1.4c-1.5,0-1.9,0-2,0s-0.1,0-0.1-0.1
				V158c0-0.1,0-0.1,0.1-0.1s0.6,0,2,0h1.4v-1.5h-2.1c-1.6,0-2.2,0-2.3,0c-0.1,0-0.1,0-0.1-0.1v-0.6c0-0.1,0-0.1,0.1-0.1
				s0.6,0,2.3,0h2.1v-1.5h-1.3c-1.5,0-2,0-2.1,0s-0.1,0-0.1-0.1v-0.6c0-0.1,0-0.1,0.1-0.1s0.6,0,2.1,0h1.3c0-0.6,0-1.2-0.1-1.8
				c0.4,0,0.7,0.1,1,0.1c0.1,0,0.2,0.1,0.2,0.1c0,0.1,0,0.2-0.1,0.3c-0.1,0.4-0.1,0.8-0.1,1.3h1.6c1.6,0,2.2,0,2.3,0
				c0.1,0,0.1,0,0.1,0.1s0,0.5,0,1.6v0.9c0.9,0,1.2,0,1.3,0c0.1,0,0.1,0,0.1,0.1V156.2z M495,154h-3v1.5h3V154z M495,156.3h-3v1.5h3
				V156.3z"/>
			<path class="st3" d="M506.4,157c0,0.1,0,0.1-0.1,0.1s-0.5,0-1.9,0H504c0.6,1.2,1.4,2.3,2.3,3.2c-0.2,0.2-0.3,0.4-0.4,0.6
				c-0.1,0.1-0.1,0.2-0.1,0.2s-0.1-0.1-0.2-0.2c-0.8-1-1.4-2.1-1.9-3.2c0,4.2,0.1,7.7,0.1,8c0,0.2,0,0.1-0.1,0.1H503
				c-0.1,0-0.1,0-0.1-0.1s0.1-3.8,0.1-8c-0.6,1.9-1.6,3.6-2.7,5.2c-0.1,0.1-0.1,0.2-0.2,0.2c0,0-0.1-0.1-0.2-0.2
				c-0.1-0.2-0.3-0.5-0.4-0.7c1.3-1.6,2.4-3.3,3.1-5.2h-0.7c-1.4,0-1.8,0-1.9,0s-0.1,0-0.1-0.1v-0.6c0-0.1,0-0.1,0.1-0.1
				s0.5,0,1.9,0h0.9v-2.5c-0.7,0.2-1.3,0.4-2.1,0.5c-0.3,0.1-0.3,0.1-0.5-0.2c-0.1-0.2-0.2-0.3-0.4-0.5c1.6-0.3,3.2-0.7,4.7-1.4
				c0.3-0.1,0.5-0.3,0.7-0.5c0.2,0.2,0.5,0.3,0.7,0.6c0.1,0.1,0.2,0.2,0.2,0.3s-0.1,0.1-0.3,0.1c-0.2,0-0.5,0.1-0.7,0.2
				c-0.4,0.2-1,0.4-1.5,0.6v2.8h0.6c1.4,0,1.8,0,1.9,0s0.1,0,0.1,0.1L506.4,157z M513.1,159.9c0,4.2,0,4.9,0,5s0,0.1-0.1,0.1h-0.7
				c-0.1,0-0.1,0-0.1-0.1v-1.1h-4v1.2c0,0.1,0,0.1-0.1,0.1h-0.8c-0.1,0-0.1,0-0.1-0.1s0-0.8,0-5.1v-3c0-3,0-3.7,0-3.8s0-0.1,0.1-0.1
				s0.5,0,1.8,0h2.2c1.3,0,1.7,0,1.8,0s0.1,0,0.1,0.1s0,0.8,0,3.4L513.1,159.9L513.1,159.9z M512.1,154h-4v8.9h4V154z"/>
			<path class="st3" d="M520.7,163.2c1-0.2,2.1-0.4,3.2-0.7c-0.1,0.2-0.1,0.4-0.1,0.6c0,0.3,0,0.3-0.3,0.4c-1.7,0.4-3.7,0.8-5.6,1.1
				c-0.2,0-0.4,0.1-0.6,0.2c-0.1,0.1-0.1,0.1-0.2,0.1c-0.1,0-0.1-0.1-0.2-0.2c-0.1-0.3-0.2-0.6-0.2-0.9c0.5,0,0.9-0.1,1.5-0.1
				c0.6-0.1,1.1-0.2,1.8-0.3v-2.2h-1c-1.4,0-1.8,0-1.9,0c-0.1,0-0.1,0-0.1-0.1v-0.6c0-0.1,0-0.1,0.1-0.1c0.1,0,0.6,0,1.9,0h0.9v-1.8
				h-0.8c-1.3,0-1.8,0-1.9,0c-0.1,0-0.1,0-0.1-0.1s0-0.5,0-1.6V154c0-1.1,0-1.6,0-1.7c0-0.1,0-0.1,0.1-0.1c0.1,0,0.5,0,1.9,0h2.4
				c1.3,0,1.8,0,1.9,0c0.1,0,0.1,0,0.1,0.1s0,0.5,0,1.7v2.8c0,1.2,0,1.6,0,1.6s0,0.1-0.1,0.1c-0.1,0-0.5,0-1.9,0h-0.8v1.8h1
				c1.4,0,1.8,0,1.9,0c0.1,0,0.1,0,0.1,0.1v0.6c0,0.1,0,0.1-0.1,0.1c-0.1,0-0.5,0-1.9,0h-1L520.7,163.2L520.7,163.2z M519.8,153.1
				H518v1.9h1.8V153.1z M519.8,155.8H518v2h1.8V155.8z M522.6,153.1h-1.9v1.9h1.9V153.1z M522.6,155.8h-1.9v2h1.9V155.8z
				 M529.8,157.3c0.1,0,0.2,0,0.3,0s0.1,0,0.2-0.1c0.1,0,0.2,0.1,0.4,0.3c0.2,0.2,0.3,0.3,0.3,0.4s0,0.1-0.1,0.2
				c-0.1,0.1-0.2,0.2-0.2,0.4c-0.4,0.8-0.9,1.5-1.5,2.1c-0.1,0.1-0.1,0.2-0.2,0.2c-0.1,0-0.1-0.1-0.2-0.2c-0.2-0.1-0.4-0.2-0.6-0.3
				c0.7-0.6,1.3-1.4,1.7-2.2h-2.1v4.1c0,0.7,0,1.4,0,1.9c0,0.6-0.1,1-0.4,1.2s-0.7,0.3-2,0.3c-0.3,0-0.3,0-0.4-0.3
				c-0.1-0.2-0.2-0.5-0.3-0.7c0.5,0.1,1,0.1,1.5,0.1c0.6,0,0.8-0.1,0.8-0.8v-5.8h-1c-1.4,0-1.9,0-2,0c-0.1,0-0.1,0-0.1-0.1v-0.6
				c0-0.1,0-0.1,0.1-0.1c0.1,0,0.5,0,2,0h1.5c-0.8-0.9-1.6-1.8-2.6-2.5c-0.1-0.1-0.1-0.1,0.1-0.2l0.4-0.3c0.1-0.1,0.2-0.1,0.3-0.1
				c0.5,0.4,0.9,0.7,1.3,1.1c0.7-0.7,1.4-1.4,2-2.2h-2.7c-1.3,0-1.7,0-1.8,0s-0.1,0-0.1-0.1v-0.6c0-0.1,0-0.1,0.1-0.1
				c0.1,0,0.5,0,1.8,0h2.9c0.1,0,0.2,0,0.3-0.1c0.1,0,0.1,0,0.2,0c0.1,0,0.2,0.1,0.4,0.3c0.2,0.2,0.3,0.4,0.3,0.5s-0.1,0.2-0.2,0.2
				c-0.2,0.2-0.4,0.3-0.5,0.5c-0.6,0.8-1.3,1.5-2.1,2.2c0.2,0.3,0.5,0.5,0.7,0.8c0.1,0.1,0.1,0.1-0.1,0.2l-0.3,0.3L529.8,157.3z"/>
			<path class="st3" d="M535,162.3v1.4c0,0.1,0,0.1-0.1,0.1h-0.7c-0.1,0-0.1,0-0.1-0.1s0-0.8,0-4.8V156c0-2.8,0-3.5,0-3.6
				s0-0.1,0.1-0.1c0.1,0,0.5,0,1.9,0h2.7c1.4,0,1.8,0,1.9,0c0.1,0,0.1,0,0.1,0.1s0,0.8,0,3.6v2.6c0,3.9,0,4.4,0,4.6s0,0.1-0.1,0.1
				h-0.6c-0.1,0-0.1,0-0.1-0.1v-0.9L535,162.3z M535,156.8h1.9v-3.6H535V156.8z M535,161.5h1.9v-3.9H535V161.5z M537.9,153.1v3.6h2
				v-3.6H537.9z M537.9,161.5h2v-3.9h-2V161.5z M545.5,161.9c0,0.8,0,1.6,0,2.2s-0.1,1-0.4,1.3s-0.7,0.3-2.1,0.3
				c-0.3,0-0.3,0-0.4-0.3c-0.1-0.3-0.2-0.5-0.3-0.7c0.5,0.1,0.9,0.1,1.4,0.1c0.7,0,0.9-0.1,0.9-0.8v-8.7h-1.1c-1.5,0-1.9,0-2,0
				c-0.1,0-0.1,0-0.1-0.1v-0.7c0-0.1,0-0.1,0.1-0.1c0.1,0,0.6,0,2,0h2.2c1.5,0,1.9,0,2,0c0.1,0,0.1,0,0.1,0.1v0.7
				c0,0.1,0,0.1-0.1,0.1c-0.1,0-0.6,0-1.9,0h-0.2L545.5,161.9z"/>
			<line class="st4" x1="414.1" y1="169.1" x2="643.1" y2="169.1"/>
			<path class="st3" d="M642.9,173.3c2.3,0,4.2-1.9,4.2-4.2s-1.9-4.2-4.2-4.2s-4.2,1.9-4.2,4.2S640.6,173.3,642.9,173.3L642.9,173.3
				z"/>
		</g>
	</g>
</g>
</svg>
