<svg id="_1_1_02" data-name="1_1_02" xmlns="http://www.w3.org/2000/svg" xmlns:xlink="http://www.w3.org/1999/xlink" width="487.699" height="56.312" viewBox="0 0 487.699 56.312">
  <defs>
    <clipPath id="clip-path">
      <rect id="長方形_22" data-name="長方形 22" width="487.699" height="56.312" transform="translate(0 0)" fill="none"/>
    </clipPath>
    <clipPath id="clip-path-2">
      <path id="パス_56" data-name="パス 56" d="M13.109,50.088l228.772-1.14L13.109,47.811Z" fill="none"/>
    </clipPath>
    <linearGradient id="linear-gradient" x1="-0.073" y1="0.628" x2="-0.068" y2="0.628" gradientUnits="objectBoundingBox">
      <stop offset="0" stop-color="#e5b94a"/>
      <stop offset="0.112" stop-color="#f0d374"/>
      <stop offset="0.21" stop-color="#f9e895"/>
      <stop offset="0.446" stop-color="#9d6124"/>
      <stop offset="0.667" stop-color="#e5a14e"/>
      <stop offset="1" stop-color="#e5b94a"/>
    </linearGradient>
    <clipPath id="clip-path-3">
      <path id="パス_57" data-name="パス 57" d="M6.067,56.312s7.564-1.879,7.036-7.226a9.111,9.111,0,0,0-7.036,7.226" fill="none"/>
    </clipPath>
    <linearGradient id="linear-gradient-2" x1="-0.584" y1="0.909" x2="-0.474" y2="0.909" xlink:href="#linear-gradient"/>
    <clipPath id="clip-path-4">
      <path id="パス_58" data-name="パス 58" d="M13.1,48.816c.528-5.343-7.036-7.226-7.036-7.226A9.1,9.1,0,0,0,13.1,48.816" fill="none"/>
    </clipPath>
    <linearGradient id="linear-gradient-3" x1="-0.584" y1="1.757" x2="-0.474" y2="1.757" xlink:href="#linear-gradient"/>
    <clipPath id="clip-path-5">
      <path id="パス_59" data-name="パス 59" d="M0,49.1A8.657,8.657,0,0,0,5.041,51.06,8.655,8.655,0,0,0,10.08,49.1a8.653,8.653,0,0,0-5.039-1.958A8.655,8.655,0,0,0,0,49.1" fill="none"/>
    </clipPath>
    <linearGradient id="linear-gradient-4" x1="0.03" y1="1.656" x2="0.123" y2="1.656" xlink:href="#linear-gradient"/>
    <clipPath id="clip-path-6">
      <path id="パス_60" data-name="パス 60" d="M246.817,48.948l227.773,1.14V47.811Z" fill="none"/>
    </clipPath>
    <linearGradient id="linear-gradient-5" x1="-1.128" y1="0.629" x2="-1.123" y2="0.629" xlink:href="#linear-gradient"/>
    <clipPath id="clip-path-7">
      <path id="パス_61" data-name="パス 61" d="M474.6,48.816a9.1,9.1,0,0,0,7.033-7.226s-7.561,1.883-7.033,7.226" fill="none"/>
    </clipPath>
    <linearGradient id="linear-gradient-6" x1="-52.108" y1="1.757" x2="-51.998" y2="1.757" xlink:href="#linear-gradient"/>
    <clipPath id="clip-path-8">
      <path id="パス_62" data-name="パス 62" d="M481.632,56.312a9.111,9.111,0,0,0-7.033-7.226c-.528,5.347,7.033,7.226,7.033,7.226" fill="none"/>
    </clipPath>
    <linearGradient id="linear-gradient-7" x1="-52.109" y1="0.909" x2="-51.998" y2="0.909" xlink:href="#linear-gradient"/>
    <clipPath id="clip-path-9">
      <path id="パス_63" data-name="パス 63" d="M477.616,48.8a7.475,7.475,0,0,0,10.083,0,7.467,7.467,0,0,0-10.083,0" fill="none"/>
    </clipPath>
    <linearGradient id="linear-gradient-8" x1="-44.481" y1="1.705" x2="-44.388" y2="1.705" xlink:href="#linear-gradient"/>
    <clipPath id="clip-path-10">
      <path id="パス_64" data-name="パス 64" d="M240.989,48.685l-.311.263.311.268,3.3,2.831-2.538-3.1,2.538-3.1Z" fill="none"/>
    </clipPath>
    <linearGradient id="linear-gradient-9" x1="-48.021" y1="1.57" x2="-47.821" y2="1.57" xlink:href="#linear-gradient"/>
    <clipPath id="clip-path-11">
      <path id="パス_65" data-name="パス 65" d="M246.823,48.952l-2.537,3.1,3.3-2.831.307-.268-.307-.263-3.3-2.83Z" fill="none"/>
    </clipPath>
    <linearGradient id="linear-gradient-10" x1="-48.762" y1="1.57" x2="-48.562" y2="1.57" xlink:href="#linear-gradient"/>
    <clipPath id="clip-path-12">
      <path id="パス_66" data-name="パス 66" d="M13.109,8.5l228.772-1.14L13.109,6.222Z" fill="none"/>
    </clipPath>
    <linearGradient id="linear-gradient-11" x1="-0.073" y1="1.351" x2="-0.068" y2="1.351" xlink:href="#linear-gradient"/>
    <clipPath id="clip-path-13">
      <path id="パス_67" data-name="パス 67" d="M6.067,14.723S13.631,12.844,13.1,7.5a9.113,9.113,0,0,0-7.036,7.227" fill="none"/>
    </clipPath>
    <linearGradient id="linear-gradient-12" x1="-0.584" y1="5.613" x2="-0.474" y2="5.613" xlink:href="#linear-gradient"/>
    <clipPath id="clip-path-14">
      <path id="パス_68" data-name="パス 68" d="M13.1,7.227C13.631,1.883,6.067,0,6.067,0A9.1,9.1,0,0,0,13.1,7.227" fill="none"/>
    </clipPath>
    <linearGradient id="linear-gradient-13" x1="-0.584" y1="6.461" x2="-0.474" y2="6.461" xlink:href="#linear-gradient"/>
    <clipPath id="clip-path-15">
      <path id="パス_69" data-name="パス 69" d="M0,7.514A8.659,8.659,0,0,0,5.041,9.47,8.657,8.657,0,0,0,10.08,7.514,8.651,8.651,0,0,0,5.041,5.555,8.653,8.653,0,0,0,0,7.514" fill="none"/>
    </clipPath>
    <linearGradient id="linear-gradient-14" x1="0.03" y1="8.327" x2="0.123" y2="8.327" xlink:href="#linear-gradient"/>
    <clipPath id="clip-path-16">
      <path id="パス_70" data-name="パス 70" d="M246.817,7.359,474.59,8.5V6.222Z" fill="none"/>
    </clipPath>
    <linearGradient id="linear-gradient-15" x1="-1.128" y1="1.355" x2="-1.123" y2="1.355" xlink:href="#linear-gradient"/>
    <clipPath id="clip-path-17">
      <path id="パス_71" data-name="パス 71" d="M474.6,7.227A9.1,9.1,0,0,0,481.632,0s-7.561,1.883-7.033,7.227" fill="none"/>
    </clipPath>
    <linearGradient id="linear-gradient-16" x1="-52.107" y1="6.461" x2="-51.997" y2="6.461" xlink:href="#linear-gradient"/>
    <clipPath id="clip-path-18">
      <path id="パス_72" data-name="パス 72" d="M481.632,14.723A9.113,9.113,0,0,0,474.6,7.5c-.528,5.348,7.033,7.227,7.033,7.227" fill="none"/>
    </clipPath>
    <linearGradient id="linear-gradient-17" x1="-52.107" y1="5.613" x2="-51.997" y2="5.613" xlink:href="#linear-gradient"/>
    <clipPath id="clip-path-19">
      <path id="パス_73" data-name="パス 73" d="M477.616,7.212a7.475,7.475,0,0,0,10.083,0,7.464,7.464,0,0,0-10.083,0" fill="none"/>
    </clipPath>
    <linearGradient id="linear-gradient-18" x1="-44.48" y1="8.373" x2="-44.387" y2="8.373" xlink:href="#linear-gradient"/>
    <clipPath id="clip-path-20">
      <path id="パス_74" data-name="パス 74" d="M240.989,7.1l-.311.263.311.267,3.3,2.831-2.538-3.094,2.538-3.1Z" fill="none"/>
    </clipPath>
    <linearGradient id="linear-gradient-19" x1="-48.023" y1="7.616" x2="-47.823" y2="7.616" xlink:href="#linear-gradient"/>
    <clipPath id="clip-path-21">
      <path id="パス_75" data-name="パス 75" d="M246.823,7.363l-2.537,3.094,3.3-2.831.307-.267-.307-.263-3.3-2.83Z" fill="none"/>
    </clipPath>
    <linearGradient id="linear-gradient-20" x1="-48.764" y1="7.616" x2="-48.564" y2="7.616" xlink:href="#linear-gradient"/>
  </defs>
  <g id="グループ_45" data-name="グループ 45" transform="translate(0 0)">
    <g id="グループ_44" data-name="グループ 44" clip-path="url(#clip-path)">
      <path id="パス_41" data-name="パス 41" d="M86.656,34.372c1.848,0,2.288-.132,2.729-.528a5.588,5.588,0,0,0,1.209-1.694c.088-.154.155-.176.353-.11s.242.132.22.286c-.264,1.122-.815,3.08-1.189,4.224-1.5-.044-2.662-.044-4.246-.044-1.606,0-2.9,0-4.357.044-.22,0-.286-.022-.286-.374a.989.989,0,0,1,.132-.616,37.9,37.9,0,0,1,3.851-5.632c1.87-2.4,2.926-3.565,2.926-5.612,0-1.826-.638-3.146-1.892-3.146a1.814,1.814,0,0,0-1.826,1.276,4.846,4.846,0,0,0-.2,1.607c0,.616-.837,1.034-1.651,1.034-.616,0-1.056-.176-1.056-.837,0-1.408,1.782-3.74,4.731-3.74,2.97,0,4.554,1.76,4.554,3.9,0,2.816-2.024,3.872-4.246,5.941-2.443,2.222-2.992,2.9-3.653,4.026Z" fill="#3a4348"/>
      <path id="パス_42" data-name="パス 42" d="M103.933,28.695c0,5.061-1.826,8.251-4.885,8.251-3.168,0-4.929-3.036-4.929-8.119,0-5.149,1.8-8.317,4.929-8.317,3.059,0,4.885,3.168,4.885,8.185m-7.239.066c0,4.577.462,7.5,2.354,7.5,1.827,0,2.311-2.926,2.311-7.5,0-4.6-.44-7.569-2.311-7.569-1.892,0-2.354,2.97-2.354,7.569" fill="#3a4348"/>
      <path id="パス_43" data-name="パス 43" d="M112.072,34.372c1.848,0,2.288-.132,2.729-.528a5.588,5.588,0,0,0,1.209-1.694c.088-.154.154-.176.353-.11s.242.132.22.286c-.264,1.122-.815,3.08-1.189,4.224-1.5-.044-2.662-.044-4.246-.044-1.606,0-2.905,0-4.357.044-.22,0-.286-.022-.286-.374a.989.989,0,0,1,.132-.616,37.9,37.9,0,0,1,3.851-5.632c1.87-2.4,2.926-3.565,2.926-5.612,0-1.826-.638-3.146-1.892-3.146a1.814,1.814,0,0,0-1.826,1.276,4.846,4.846,0,0,0-.2,1.607c0,.616-.837,1.034-1.651,1.034-.616,0-1.056-.176-1.056-.837,0-1.408,1.782-3.74,4.731-3.74,2.97,0,4.554,1.76,4.554,3.9,0,2.816-2.024,3.872-4.246,5.941-2.443,2.222-2.992,2.9-3.653,4.026Z" fill="#3a4348"/>
      <path id="パス_44" data-name="パス 44" d="M129.349,28.695c0,5.061-1.826,8.251-4.885,8.251-3.168,0-4.929-3.036-4.929-8.119,0-5.149,1.8-8.317,4.929-8.317,3.059,0,4.885,3.168,4.885,8.185m-7.239.066c0,4.577.462,7.5,2.354,7.5,1.827,0,2.311-2.926,2.311-7.5,0-4.6-.44-7.569-2.311-7.569-1.892,0-2.354,2.97-2.354,7.569" fill="#3a4348"/>
      <path id="パス_45" data-name="パス 45" d="M147.986,31.93c1.21-1.453,1.474-1.628,1.628-1.628.2,0,.44.175,1.607,1.122.527.44.7.637.7.792s-.066.22-.286.22h-7.658c.022,2.354.066,4.488.066,5.435,0,.66-.44.946-1.32.946-.638,0-.968-.2-.968-.77s.088-2.267.088-5.611H134.1a12.03,12.03,0,0,0-1.628.132l-.242-.814a9.546,9.546,0,0,0,1.8.176h1.936V28.915c0-1.1-.022-2.2-.088-3.3a14.448,14.448,0,0,1,2.311,1.056h3.652V22.623h-4.07a14.822,14.822,0,0,1-4.951,4.818c-.088.066-.308-.11-.22-.2a19.314,19.314,0,0,0,3.807-6.293,12.034,12.034,0,0,0,.7-2.53c2.332.682,2.926.946,2.926,1.32,0,.242-.264.4-.946.484-.33.682-.66,1.3-1.013,1.892h9.33c1.144-1.342,1.408-1.518,1.562-1.518.2,0,.44.176,1.563,1.056.505.418.682.594.682.748s-.066.221-.286.221h-6.976v4.048h2.6c1.122-1.277,1.3-1.408,1.474-1.408.22,0,.418.131,1.5.968.506.4.639.55.639.726,0,.154-.088.22-.331.22h-5.875v.792c0,1.276,0,2.64.022,3.961Zm-6.139-4.753H138.04v4.752h3.807Z" fill="#3a4348"/>
      <path id="パス_46" data-name="パス 46" d="M193.68,21.214a1.781,1.781,0,0,1,.682-.308,2.652,2.652,0,0,1,1.518.858c.374.374.946.814.946,1.408,0,.352-.264.572-.835.638a2.778,2.778,0,0,0-1.255.55,42.489,42.489,0,0,1-5.038,2.9,18.186,18.186,0,0,1-1.365,4.6,12.227,12.227,0,0,1-5.28,5.589,1.724,1.724,0,0,1-.7.242c-.087,0-.176-.044-.176-.2,0-.11.089-.176.33-.374a15.162,15.162,0,0,0,4.115-5.9,12.33,12.33,0,0,0,1.034-4.774,2.112,2.112,0,0,0-.066-.748c-.066-.2-.572-.4-1.144-.463-.176-.022-.286,0-.286-.2,0-.111.154-.308.418-.507a1.826,1.826,0,0,1,.924-.22,6.009,6.009,0,0,1,2.157.33.618.618,0,0,1,.418.572.879.879,0,0,1-.066.33,3.48,3.48,0,0,0-.2.9,25.111,25.111,0,0,0,3.521-3.433.443.443,0,0,0,.154-.352c0-.088-.11-.11-.418-.088-1.1.088-2.266.176-3.454.286-1.409.132-2.817.308-4.115.528a8.257,8.257,0,0,0-2.442.616,1.577,1.577,0,0,1-.814.308c-.463,0-.925-.286-1.475-.968-.572-.748-.638-1.012-.638-1.452,0-.352.11-.616.242-.616s.176.066.4.264c.66.594.9.748,1.431.748.374,0,1.034-.044,1.914-.132,2.838-.22,5.7-.506,8.537-.726a2.054,2.054,0,0,0,1.034-.22" fill="#3a4348"/>
      <path id="パス_47" data-name="パス 47" d="M200.372,26.627c0-.154.243-.22.617-.22a7.241,7.241,0,0,1,2.222.352c1.166.374,1.738.99,1.738,1.694A1.241,1.241,0,0,1,203.8,29.8c-.33,0-.66-.242-.99-.77a5.617,5.617,0,0,0-2.135-2.112c-.219-.088-.308-.176-.308-.286m3.719,9.835c-.44,0-.836-.264-1.474-.99a3.782,3.782,0,0,1-1.034-1.936c0-.418.2-.792.308-.792.154,0,.2.132.33.264.33.374.726.88,1.276.88a3.7,3.7,0,0,0,1.32-.44,34.634,34.634,0,0,0,5.391-3.278,54.588,54.588,0,0,0,6.007-5.039c.22-.22.352-.374.506-.374a.2.2,0,0,1,.22.22.683.683,0,0,1-.154.374,28.056,28.056,0,0,1-5.1,5.721,43.551,43.551,0,0,1-6.117,4.422,2.166,2.166,0,0,0-.682.529,1.017,1.017,0,0,1-.792.439m-.88-14.522c0-.087.088-.176.374-.176a5.466,5.466,0,0,1,2.354.507c.682.352,1.563.923,1.563,1.782a1.2,1.2,0,0,1-1.167,1.342c-.4,0-.572-.2-.924-.814a7.334,7.334,0,0,0-1.98-2.354c-.176-.133-.22-.155-.22-.287m11.464-.021a1.646,1.646,0,0,1,.814,1.319.739.739,0,0,1-.727.771.792.792,0,0,1-.748-.506,8.213,8.213,0,0,0-1.386-1.937c-.088-.087-.242-.2-.242-.286,0-.131.11-.154.264-.154a1.944,1.944,0,0,1,.507.088,4.025,4.025,0,0,1,1.518.7m2.024-1.541a1.339,1.339,0,0,1,.792,1.122.738.738,0,0,1-.682.815.841.841,0,0,1-.814-.485,5.585,5.585,0,0,0-1.541-1.716c-.088-.066-.263-.176-.263-.264a.173.173,0,0,1,.175-.176,3.048,3.048,0,0,1,.573.066,5.137,5.137,0,0,1,1.76.638" fill="#3a4348"/>
      <path id="パス_48" data-name="パス 48" d="M235.434,21.214a1.781,1.781,0,0,1,.682-.308,2.646,2.646,0,0,1,1.517.858c.375.374.946.814.946,1.408,0,.352-.263.572-.834.638a2.769,2.769,0,0,0-1.255.55,42.657,42.657,0,0,1-5.038,2.9,18.186,18.186,0,0,1-1.365,4.6,12.227,12.227,0,0,1-5.28,5.589,1.729,1.729,0,0,1-.705.242c-.088,0-.176-.044-.176-.2,0-.11.088-.176.33-.374a15.159,15.159,0,0,0,4.114-5.9,12.33,12.33,0,0,0,1.034-4.774,2.136,2.136,0,0,0-.065-.748c-.066-.2-.572-.4-1.144-.463-.176-.022-.286,0-.286-.2,0-.111.154-.308.418-.507a1.823,1.823,0,0,1,.924-.22,6.009,6.009,0,0,1,2.157.33.619.619,0,0,1,.418.572.9.9,0,0,1-.066.33,3.438,3.438,0,0,0-.2.9,25.11,25.11,0,0,0,3.52-3.433.444.444,0,0,0,.155-.352c0-.088-.11-.11-.418-.088-1.1.088-2.267.176-3.455.286-1.409.132-2.816.308-4.114.528a8.245,8.245,0,0,0-2.442.616,1.58,1.58,0,0,1-.814.308c-.464,0-.925-.286-1.475-.968-.573-.748-.638-1.012-.638-1.452,0-.352.11-.616.242-.616s.176.066.4.264c.66.594.9.748,1.431.748.374,0,1.033-.044,1.914-.132,2.838-.22,5.7-.506,8.537-.726a2.06,2.06,0,0,0,1.034-.22" fill="#3a4348"/>
      <path id="パス_49" data-name="パス 49" d="M250.9,26.1c.814-1.033,1.078-1.21,1.232-1.21.2,0,.418.177,1.166.859.308.285.484.484.484.638s-.066.22-.286.22h-4.049a26.251,26.251,0,0,1-2.948,2.9h3.344c.683-.814.859-.946,1.035-.946.22,0,.4.132,1.166.748.33.286.462.44.462.616,0,.154-.11.264-.528.55v1.166c0,3.125.066,5.325.066,6.03,0,.615-.374.836-1.188.836-.682,0-.836-.353-.836-.749v-.55H246v.66c0,.639-.418.881-1.21.881-.638,0-.837-.264-.837-.771,0-.66.089-1.452.089-4.114,0-.836,0-1.672-.022-2.53a23.8,23.8,0,0,1-2.2,1.276c-.088.044-.22-.2-.132-.265.792-.593,1.584-1.232,2.333-1.914-.022-.66-.022-1.3-.045-1.958.683.286.991.44,1.387.638a26.39,26.39,0,0,0,2.2-2.508h-4.005a9.847,9.847,0,0,0-1.474.132l-.242-.814a8.033,8.033,0,0,0,1.651.175h2.332v-3.41h-1.606a7.155,7.155,0,0,0-1.254.132l-.242-.814a6.84,6.84,0,0,0,1.518.176h1.584v-1.5a18.977,18.977,0,0,0-.11-2c2.464.243,2.728.463,2.728.683,0,.176-.242.374-.7.594v2.222h.418c.528-.726.793-.9.946-.9.2,0,.4.176.88.638a1.166,1.166,0,0,1,.353.528c.11-.22.22-.418.329-.638a18.244,18.244,0,0,0,.925-2.222c2,.924,2.288,1.122,2.288,1.408s-.242.44-.792.44a32.1,32.1,0,0,1-3.213,4.664Zm-.88,3.917H246v2.926h4.027Zm0,3.433H246V36.7h4.027Zm-2.069-7.35a29.844,29.844,0,0,0,2.266-3.432.421.421,0,0,1-.175.022h-2.311V26.1ZM259.2,20.114c.792-.858.968-.99,1.144-.99.22,0,.374.132,1.276.968.4.374.528.55.528.726,0,.242-.11.33-.748.484a44.482,44.482,0,0,1-3.608,5.611c3.014,1.98,4.07,3.476,4.07,5.743a3.014,3.014,0,0,1-.968,2.42,2.544,2.544,0,0,1-1.694.572c-.374,0-.418-.066-.55-.682-.132-.638-.748-.924-2.179-1.32-.109-.022-.109-.33,0-.33.9.066,1.871.088,2.531.088a.741.741,0,0,0,.594-.176c.2-.176.242-.572.242-1.343a6.134,6.134,0,0,0-2.553-4.862,45.732,45.732,0,0,0,1.981-6.4H256.14V34.834c0,1.8.044,2.618.044,3.19,0,.682-.462.881-1.254.881-.616,0-.792-.243-.792-.749,0-1.694.066-3.234.066-12.189,0-3.895-.022-5.633-.11-6.91a20.928,20.928,0,0,1,2.222,1.057Z" fill="#3a4348"/>
      <path id="パス_50" data-name="パス 50" d="M273.251,20.576a16.45,16.45,0,0,0-.132-1.914c2.772.242,3.015.484,3.015.7,0,.176-.243.374-.683.572V22.38h5.3c1.232-1.32,1.5-1.5,1.65-1.5.2,0,.44.176,1.5,1.034.484.4.66.594.66.749s-.067.22-.286.22H266.584a10.634,10.634,0,0,0-1.54.132L264.8,22.2a9.334,9.334,0,0,0,1.782.176h6.667Zm2.134,6.4c0,5.721.044,9.66.044,10.979,0,.727-.352.969-1.254.969-.726,0-.924-.2-.924-.88,0-1.167.088-4.511.088-11.068h-4.268V35.3c0,.506-.331.836-1.365.836a.738.738,0,0,1-.836-.814c0-.814.088-2.662.088-6.006,0-1.673-.022-2.333-.132-4.027a13.086,13.086,0,0,1,2.508,1.188h4v-.814a18.985,18.985,0,0,0-.088-2.421c2.53.286,2.883.374,2.883.7,0,.221-.2.374-.749.6v1.936h4.445c.858-.924,1.034-1.056,1.21-1.056.22,0,.4.132,1.232.858.374.33.506.484.506.66,0,.22-.154.374-.594.638v1.21c0,3.873.022,4.4.022,5.061a2.241,2.241,0,0,1-.572,1.65,2.5,2.5,0,0,1-1.826.594c-.33,0-.4-.066-.484-.484-.154-.836-.374-1.188-2.157-1.738-.11-.022-.11-.264,0-.264,1.123.088,1.915.132,2.509.132.33,0,.4-.066.4-.4V26.979Z" fill="#3a4348"/>
      <path id="パス_51" data-name="パス 51" d="M297.634,25.218v2h5.633c.968-1.1,1.232-1.277,1.386-1.277.2,0,.462.177,1.452.9.44.33.617.5.617.659s-.066.22-.287.22H288.7a10.784,10.784,0,0,0-1.562.133l-.242-.815a9.473,9.473,0,0,0,1.8.177h6.975v-2h-4.2v.154c0,.528-.375.749-1.167.749-.616,0-.858-.2-.858-.639,0-.572.066-1.254.066-3.63q0-1.551-.066-3.1c.99.4,1.122.484,2.134.924h10.078c.7-.726.88-.858,1.056-.858.22,0,.418.132,1.166.726.352.287.484.44.484.617,0,.2-.176.374-.594.616v.7c0,1.87.044,3.19.044,3.608,0,.638-.418.88-1.188.88-.594,0-.88-.2-.88-.7v-.044Zm-4.356,10.32a17.021,17.021,0,0,1-6.183,2.97c-.11.022-.2-.22-.11-.264a14.344,14.344,0,0,0,3.894-2.993,6.838,6.838,0,0,0,1.034-1.452c1.628.859,2.157,1.189,2.157,1.408s-.154.353-.792.331m4.444-.814c.022.814.044,1.65.044,2.4a1.934,1.934,0,0,1-.308,1.122,2.156,2.156,0,0,1-1.936.7c-.374,0-.44-.066-.528-.528-.154-.792-.7-1.078-2.223-1.364-.109-.022-.109-.352,0-.352.925.044,1.893.088,2.641.088.264,0,.352-.088.352-.308v-3.5h-3.542c-.044.6-.374.792-1.233.792-.572,0-.792-.263-.792-.7s.066-.968.066-2.816q0-.924-.066-1.848a18.242,18.242,0,0,1,2.2.968h8.67c.638-.682.814-.814.99-.814.22,0,.4.132,1.122.682.33.286.462.44.462.616s-.044.22-.528.594v.4c0,1.034.066,1.782.066,2,0,.639-.374.858-1.188.858-.616,0-.814-.219-.814-.726h-3.455Zm4.027-14.544H291.474V22.2h10.275Zm0,2.53H291.474v2h10.275Zm-.572,7.173h-8.955v2.6h8.955Zm2.86,8.4c-.462,0-.7-.2-1.408-1.232a6.568,6.568,0,0,0-2.926-2.728c-.11-.044-.044-.265.065-.243,3.213.418,5.281,1.409,5.281,3.037a1.04,1.04,0,0,1-1.012,1.166" fill="#3a4348"/>
      <path id="パス_52" data-name="パス 52" d="M314.366,27.441a5.546,5.546,0,0,0,.33-.968,9.01,9.01,0,0,0,.286-1.32c1.65.4,2.2.594,2.2.792,0,.22-.221.352-.726.4a6.405,6.405,0,0,1-1.321,1.1h1.717c.527-.682.792-.858.946-.858.2,0,.44.176.99.616.22.176.4.374.4.528s-.066.22-.286.22h-2.993v2.266h.726c.485-.615.748-.792.9-.792.2,0,.44.177.924.573.2.153.374.352.374.505s-.066.221-.286.221h-2.641v2.266h.551c.638-.7.9-.88,1.056-.88.2,0,.44.176,1.012.616.242.2.418.4.418.55s-.066.22-.286.22h-2.751v2.64h.594c.551-.726.814-.9.969-.9.2,0,.44.176,1.034.638.242.2.418.4.418.55s-.066.221-.286.221H312.43v.7c0,.462-.418.7-1.122.7-.594,0-.836-.2-.836-.66,0-.617.131-2.487.131-6.249V29.245a22.07,22.07,0,0,1-1.826,1.431c-.088.066-.264-.133-.2-.22a16.62,16.62,0,0,0,3.542-5.766H310.45a6.544,6.544,0,0,0-1.211.133L309,24.009a5.666,5.666,0,0,0,1.386.176H312.3a24.346,24.346,0,0,0,.66-2.487h-.99a11.207,11.207,0,0,1-2.244,2.069c-.089.065-.243-.088-.177-.176a15.35,15.35,0,0,0,1.431-3.235,8.516,8.516,0,0,0,.374-1.8c2.112.484,2.552.638,2.552.946,0,.22-.2.33-.726.484-.286.44-.55.858-.814,1.21h3.762c.77-.946,1.035-1.122,1.188-1.122.2,0,.441.176,1.189.792.33.264.506.462.506.616s-.066.22-.286.22h-3.675a25.25,25.25,0,0,1-.814,2.487h2.223c.748-.9,1.012-1.079,1.166-1.079.2,0,.417.176,1.144.77.286.243.462.44.462.6s-.066.219-.286.219h-4.929a12.079,12.079,0,0,1-1.672,2.751Zm-.2.506h-1.782v2.266h1.782Zm-1.782,5.039h1.782V30.72h-1.782Zm0,.506c0,.88.022,1.76.022,2.64h1.76v-2.64Zm9.175-1.716a.448.448,0,0,1-.132.33c1.651.33,1.981.44,1.981.682,0,.176-.133.286-.529.418-.682,3.212-2.772,4.929-7.019,5.743-.11.022-.219-.221-.11-.264a7.873,7.873,0,0,0,4.621-3.851,7.019,7.019,0,0,0,.638-2.486,2.515,2.515,0,0,1-.616.066c-.594,0-.88-.2-.88-.638,0-.881.088-3.763.088-7.349,0-2.421-.022-3.609-.132-5.3,1.034.418,1.188.506,2.222,1.012h3.939c.77-.858.946-.99,1.122-.99.22,0,.4.132,1.166.748.352.308.484.462.484.638,0,.22-.088.33-.616.726v1.695c0,4.466.088,7.568.088,8.581,0,.506-.462.77-1.232.77-.528,0-.792-.2-.792-.617v-.109h-.374V36.4c0,.484.2.617.968.617.814,0,1.078-.089,1.276-.33A7.973,7.973,0,0,0,328.734,34c.022-.11.265-.088.265.022-.045.726-.111,1.8-.111,2.156,0,.264.022.286.374.507a.777.777,0,0,1,.418.7.951.951,0,0,1-.66.945,6.658,6.658,0,0,1-2.6.331c-2.244,0-2.817-.4-2.817-1.871,0-.286.044-.594.044-1.782V31.578h-2.09Zm4.291-11.134h-4.291v2.993h4.291Zm0,3.5h-4.291V27.2h4.291Zm0,3.564h-4.291v3.367h4.291Z" fill="#3a4348"/>
      <path id="パス_53" data-name="パス 53" d="M340.756,22.094V20.312a16.315,16.315,0,0,0-.088-1.892c2.53.242,2.794.462,2.794.682s-.242.418-.748.572v2.42h1.672a20.009,20.009,0,0,0,1.078-1.716,10.034,10.034,0,0,0,.726-1.672c1.761.66,2.465,1.056,2.465,1.386,0,.286-.242.374-.99.4a12.038,12.038,0,0,1-2.442,1.606h3.454c.9-.968,1.078-1.1,1.254-1.1.22,0,.4.132,1.5,1.078.507.44.638.595.638.77,0,.374-.2.463-.88.463a.719.719,0,0,0-.594.176,9.352,9.352,0,0,1-2.09,1.342c-.088.044-.242-.044-.2-.154a15.629,15.629,0,0,0,.572-2.068H334.727c.088,1.76-.7,2.882-1.76,2.882a1.1,1.1,0,0,1-1.144-1.144,1.059,1.059,0,0,1,.7-1.034,2.344,2.344,0,0,0,1.716-2.245c.022-.11.2-.132.22-.022a6.973,6.973,0,0,1,.22,1.056h2.882c-.374-.088-.572-.374-.814-1.21a4.194,4.194,0,0,0-.946-1.87.13.13,0,0,1,.132-.2c2.134.506,2.927,1.1,2.927,2.09,0,.66-.221,1.078-.793,1.188ZM339.5,37.5a17.6,17.6,0,0,1-6.886,1.54c-.111,0-.2-.264-.088-.286a17.122,17.122,0,0,0,4.312-1.936A5.328,5.328,0,0,0,338.2,35.67c2.178,1.079,2.376,1.188,2.376,1.475,0,.264-.11.308-1.079.352m-2.354-2.2c-.066.528-.506.727-1.144.727-.682,0-.924-.2-.924-.771,0-.66.088-1.408.088-4.114,0-1.21-.022-2.443-.066-3.675a20.445,20.445,0,0,1,2.376,1.057h8.89c.682-.749.858-.881,1.034-.881.22,0,.44.132,1.276.748.4.308.528.44.528.616,0,.2-.132.331-.66.683v.88c0,2.354.088,3.96.088,4.488,0,.616-.418.9-1.144.9-.682,0-.9-.154-.925-.66Zm1.32-8.317c-.066.462-.418.66-1.078.66-.594,0-.88-.22-.88-.616,0-.11.022-.462.022-.748V23.019a11.977,11.977,0,0,1,2.112,1.012h6.228c.726-.837.9-.968,1.078-.968.219,0,.418.131,1.188.77.352.286.484.44.484.616s-.154.33-.616.616v.308c0,.814.022,1.3.022,1.474,0,.484-.374.77-1.1.77-.617,0-.859-.154-.859-.638Zm8.1,2.046h-9.417v1.54h9.417Zm-9.417,3.565h9.417V31.072h-9.417Zm0,2.2h9.417V33.1h-9.417Zm7.921-10.253h-6.6v1.937h6.6Zm3.741,14.654a2.042,2.042,0,0,1-1.386-.638A11.677,11.677,0,0,0,343.44,36.2c-.11-.044-.088-.219.022-.219,4.313.153,6.425.879,6.425,2.288,0,.66-.484.924-1.078.924" fill="#3a4348"/>
      <path id="パス_54" data-name="パス 54" d="M376.132,25.571a19.133,19.133,0,0,0,1.3-2.4,16.171,16.171,0,0,0,.7-1.87c1.958.7,2.574,1.034,2.574,1.342,0,.264-.154.33-.968.4a15.994,15.994,0,0,1-2.9,2.531h3.433c.857-.991,1.034-1.123,1.21-1.123.22,0,.4.132,1.474,1.079.484.44.616.594.616.77,0,.4-.2.484-1.056.528-.374.044-.4.066-1.056.55a18.846,18.846,0,0,1-1.739,1.232.115.115,0,0,1-.176-.132,12.349,12.349,0,0,0,.88-2.4H366.274c.066,1.606-.528,3.036-1.8,3.036a1.109,1.109,0,0,1-1.144-1.188c0-.506.2-.77.836-1.056a2.477,2.477,0,0,0,1.562-2.421c0-.109.242-.132.264-.022a6.978,6.978,0,0,1,.242,1.145Zm-.946,8.6a21.982,21.982,0,0,0,8.141,1.98c.11,0,.11.2,0,.242a2.072,2.072,0,0,0-1.5,1.628c-.154.506-.221.594-.418.594a6.926,6.926,0,0,1-1.739-.44,27.559,27.559,0,0,1-4.972-2.31c-.4-.264-.77-.528-1.122-.814a23.356,23.356,0,0,1-9.638,3.433c-.11.022-.22-.287-.11-.331A26.725,26.725,0,0,0,372.3,33.91a15.108,15.108,0,0,1-3.058-4.8h-.528a11.286,11.286,0,0,0-1.959.176l-.241-.858a15.434,15.434,0,0,0,2.288.176h7.569c.858-.88,1.034-1.012,1.21-1.012.22,0,.374.132,1.342,1.012.44.418.572.594.572.77,0,.33-.2.462-1.034.7a17.019,17.019,0,0,1-3.543,3.961ZM365.218,22.16c-.11,0-.154-.33-.044-.33a49.33,49.33,0,0,0,11-2,14.928,14.928,0,0,0,2.794-1.233c1.892,1.166,2.355,1.519,2.355,1.849,0,.286-.352.374-1.321.2a46.158,46.158,0,0,1-7.789,1.364c1.584.616,2.354,1.32,2.354,2.244a1.165,1.165,0,0,1-1.166,1.189c-.528,0-.77-.286-.836-.991a5.092,5.092,0,0,0-.616-2.31c-.022-.044-.044-.066-.044-.11a45.963,45.963,0,0,1-6.689.132m4.027,3.345c-.594,0-.814-.352-.88-1.035a4.309,4.309,0,0,0-.573-2.068c-.065-.088.044-.176.155-.132,1.562.55,2.376,1.276,2.376,2.113a1.077,1.077,0,0,1-1.078,1.122m.484,3.608a14.494,14.494,0,0,0,3.586,3.917,16.248,16.248,0,0,0,3.125-3.917Z" fill="#3a4348"/>
      <path id="パス_55" data-name="パス 55" d="M395.072,22.094V20.312a16.543,16.543,0,0,0-.088-1.892c2.53.242,2.794.462,2.794.682s-.242.418-.748.572v2.42H398.7a20.263,20.263,0,0,0,1.078-1.716,10.036,10.036,0,0,0,.726-1.672c1.761.66,2.465,1.056,2.465,1.386,0,.286-.242.374-.991.4a12.032,12.032,0,0,1-2.441,1.606h3.454c.9-.968,1.078-1.1,1.254-1.1.22,0,.4.132,1.5,1.078.507.44.638.595.638.77,0,.374-.2.463-.88.463a.719.719,0,0,0-.594.176,9.358,9.358,0,0,1-2.091,1.342c-.087.044-.241-.044-.2-.154a15.451,15.451,0,0,0,.573-2.068H389.043c.088,1.76-.7,2.882-1.76,2.882a1.1,1.1,0,0,1-1.144-1.144,1.059,1.059,0,0,1,.7-1.034,2.345,2.345,0,0,0,1.717-2.245c.022-.11.2-.132.22-.022a7.091,7.091,0,0,1,.22,1.056h2.882c-.374-.088-.572-.374-.815-1.21a4.182,4.182,0,0,0-.945-1.87.13.13,0,0,1,.132-.2c2.134.506,2.927,1.1,2.927,2.09,0,.66-.222,1.078-.793,1.188Zm-1.256,15.4a17.586,17.586,0,0,1-6.885,1.54c-.111,0-.2-.264-.089-.286a17.114,17.114,0,0,0,4.313-1.936,5.328,5.328,0,0,0,1.365-1.145c2.178,1.079,2.376,1.188,2.376,1.475,0,.264-.11.308-1.08.352m-2.353-2.2c-.066.528-.506.727-1.144.727-.682,0-.924-.2-.924-.771,0-.66.088-1.408.088-4.114,0-1.21-.022-2.443-.066-3.675a20.446,20.446,0,0,1,2.376,1.057h8.89c.682-.749.857-.881,1.034-.881.22,0,.44.132,1.276.748.4.308.528.44.528.616,0,.2-.132.331-.66.683v.88c0,2.354.088,3.96.088,4.488,0,.616-.418.9-1.144.9-.683,0-.9-.154-.925-.66Zm1.32-8.317c-.066.462-.418.66-1.079.66-.593,0-.879-.22-.879-.616,0-.11.021-.462.021-.748V23.019a11.942,11.942,0,0,1,2.112,1.012h6.229c.726-.837.9-.968,1.078-.968.219,0,.418.131,1.188.77.352.286.484.44.484.616s-.154.33-.616.616v.308c0,.814.021,1.3.021,1.474,0,.484-.373.77-1.1.77-.617,0-.859-.154-.859-.638Zm8.1,2.046h-9.417v1.54h9.417Zm-9.417,3.565h9.417V31.072h-9.417Zm0,2.2h9.417V33.1h-9.417Zm7.921-10.253h-6.6v1.937h6.6Zm3.741,14.654a2.042,2.042,0,0,1-1.386-.638,11.677,11.677,0,0,0-3.983-2.355c-.11-.044-.088-.219.022-.219,4.313.153,6.425.879,6.425,2.288,0,.66-.484.924-1.078.924" fill="#3a4348"/>
    </g>
  </g>
  <g id="グループ_47" data-name="グループ 47" transform="translate(0 0)">
    <g id="グループ_46" data-name="グループ 46" clip-path="url(#clip-path-2)">
      <rect id="長方形_23" data-name="長方形 23" width="222.541" height="57.497" transform="translate(12.575 47.944) rotate(-13.985)" fill="url(#linear-gradient)"/>
    </g>
  </g>
  <g id="グループ_49" data-name="グループ 49" transform="translate(0 0)">
    <g id="グループ_48" data-name="グループ 48" clip-path="url(#clip-path-3)">
      <rect id="長方形_24" data-name="長方形 24" width="9.086" height="8.84" transform="matrix(0.97, -0.242, 0.242, 0.97, 4.372, 49.508)" fill="url(#linear-gradient-2)"/>
    </g>
  </g>
  <g id="グループ_51" data-name="グループ 51" transform="translate(0 0)">
    <g id="グループ_50" data-name="グループ 50" clip-path="url(#clip-path-4)">
      <rect id="長方形_25" data-name="長方形 25" width="9.086" height="8.84" transform="translate(4.372 42.012) rotate(-13.985)" fill="url(#linear-gradient-3)"/>
    </g>
  </g>
  <g id="グループ_53" data-name="グループ 53" transform="translate(0 0)">
    <g id="グループ_52" data-name="グループ 52" clip-path="url(#clip-path-5)">
      <rect id="長方形_26" data-name="長方形 26" width="10.727" height="6.235" transform="translate(-0.918 47.374) rotate(-13.985)" fill="url(#linear-gradient-4)"/>
    </g>
  </g>
  <g id="グループ_55" data-name="グループ 55" transform="translate(0 0)">
    <g id="グループ_54" data-name="グループ 54" clip-path="url(#clip-path-6)">
      <rect id="長方形_27" data-name="長方形 27" width="221.572" height="57.255" transform="translate(246.283 47.944) rotate(-13.985)" fill="url(#linear-gradient-5)"/>
    </g>
  </g>
  <g id="グループ_57" data-name="グループ 57" transform="translate(0 0)">
    <g id="グループ_56" data-name="グループ 56" clip-path="url(#clip-path-7)">
      <rect id="長方形_28" data-name="長方形 28" width="9.083" height="8.839" transform="matrix(0.97, -0.242, 0.242, 0.97, 472.376, 42.012)" fill="url(#linear-gradient-6)"/>
    </g>
  </g>
  <g id="グループ_59" data-name="グループ 59" transform="translate(0 0)">
    <g id="グループ_58" data-name="グループ 58" clip-path="url(#clip-path-8)">
      <rect id="長方形_29" data-name="長方形 29" width="9.083" height="8.839" transform="translate(472.376 49.508) rotate(-13.985)" fill="url(#linear-gradient-7)"/>
    </g>
  </g>
  <g id="グループ_61" data-name="グループ 61" transform="translate(0 0)">
    <g id="グループ_60" data-name="グループ 60" clip-path="url(#clip-path-9)">
      <rect id="長方形_30" data-name="長方形 30" width="10.73" height="6.236" transform="matrix(0.97, -0.242, 0.242, 0.97, 476.698, 47.071)" fill="url(#linear-gradient-8)"/>
    </g>
  </g>
  <g id="グループ_63" data-name="グループ 63" transform="translate(0 0)">
    <g id="グループ_62" data-name="グループ 62" clip-path="url(#clip-path-10)">
      <rect id="長方形_31" data-name="長方形 31" width="4.997" height="6.88" transform="matrix(0.97, -0.242, 0.242, 0.97, 239.226, 46.217)" fill="url(#linear-gradient-9)"/>
    </g>
  </g>
  <g id="グループ_65" data-name="グループ 65" transform="translate(0 0)">
    <g id="グループ_64" data-name="グループ 64" clip-path="url(#clip-path-11)">
      <rect id="長方形_32" data-name="長方形 32" width="4.996" height="6.88" transform="translate(242.834 46.217) rotate(-13.985)" fill="url(#linear-gradient-10)"/>
    </g>
  </g>
  <g id="グループ_67" data-name="グループ 67" transform="translate(0 0)">
    <g id="グループ_66" data-name="グループ 66" clip-path="url(#clip-path-12)">
      <rect id="長方形_33" data-name="長方形 33" width="222.541" height="57.497" transform="translate(12.575 6.355) rotate(-13.985)" fill="url(#linear-gradient-11)"/>
    </g>
  </g>
  <g id="グループ_69" data-name="グループ 69" transform="translate(0 0)">
    <g id="グループ_68" data-name="グループ 68" clip-path="url(#clip-path-13)">
      <rect id="長方形_34" data-name="長方形 34" width="9.086" height="8.841" transform="translate(4.372 7.918) rotate(-13.985)" fill="url(#linear-gradient-12)"/>
    </g>
  </g>
  <g id="グループ_71" data-name="グループ 71" transform="translate(0 0)">
    <g id="グループ_70" data-name="グループ 70" clip-path="url(#clip-path-14)">
      <rect id="長方形_35" data-name="長方形 35" width="9.086" height="8.841" transform="matrix(0.97, -0.242, 0.242, 0.97, 4.372, 0.422)" fill="url(#linear-gradient-13)"/>
    </g>
  </g>
  <g id="グループ_73" data-name="グループ 73" transform="translate(0 0)">
    <g id="グループ_72" data-name="グループ 72" clip-path="url(#clip-path-15)">
      <rect id="長方形_36" data-name="長方形 36" width="10.727" height="6.235" transform="translate(-0.918 5.784) rotate(-13.985)" fill="url(#linear-gradient-14)"/>
    </g>
  </g>
  <g id="グループ_75" data-name="グループ 75" transform="translate(0 0)">
    <g id="グループ_74" data-name="グループ 74" clip-path="url(#clip-path-16)">
      <rect id="長方形_37" data-name="長方形 37" width="221.572" height="57.255" transform="translate(246.283 6.355) rotate(-13.985)" fill="url(#linear-gradient-15)"/>
    </g>
  </g>
  <g id="グループ_77" data-name="グループ 77" transform="translate(0 0)">
    <g id="グループ_76" data-name="グループ 76" clip-path="url(#clip-path-17)">
      <rect id="長方形_38" data-name="長方形 38" width="9.083" height="8.84" transform="translate(472.376 0.422) rotate(-13.985)" fill="url(#linear-gradient-16)"/>
    </g>
  </g>
  <g id="グループ_79" data-name="グループ 79" transform="translate(0 0)">
    <g id="グループ_78" data-name="グループ 78" clip-path="url(#clip-path-18)">
      <rect id="長方形_39" data-name="長方形 39" width="9.083" height="8.84" transform="translate(472.376 7.918) rotate(-13.985)" fill="url(#linear-gradient-17)"/>
    </g>
  </g>
  <g id="グループ_81" data-name="グループ 81" transform="translate(0 0)">
    <g id="グループ_80" data-name="グループ 80" clip-path="url(#clip-path-19)">
      <rect id="長方形_40" data-name="長方形 40" width="10.73" height="6.237" transform="matrix(0.97, -0.242, 0.242, 0.97, 476.698, 5.481)" fill="url(#linear-gradient-18)"/>
    </g>
  </g>
  <g id="グループ_83" data-name="グループ 83" transform="translate(0 0)">
    <g id="グループ_82" data-name="グループ 82" clip-path="url(#clip-path-20)">
      <rect id="長方形_41" data-name="長方形 41" width="4.997" height="6.879" transform="matrix(0.97, -0.242, 0.242, 0.97, 239.226, 4.627)" fill="url(#linear-gradient-19)"/>
    </g>
  </g>
  <g id="グループ_85" data-name="グループ 85" transform="translate(0 0)">
    <g id="グループ_84" data-name="グループ 84" clip-path="url(#clip-path-21)">
      <rect id="長方形_42" data-name="長方形 42" width="4.995" height="6.879" transform="translate(242.834 4.627) rotate(-13.985)" fill="url(#linear-gradient-20)"/>
    </g>
  </g>
</svg>
