<svg id="_1_1_01" data-name="1_1_01" xmlns="http://www.w3.org/2000/svg" xmlns:xlink="http://www.w3.org/1999/xlink" width="487.699" height="56.312" viewBox="0 0 487.699 56.312">
  <defs>
    <clipPath id="clip-path">
      <rect id="長方形_1" data-name="長方形 1" width="487.699" height="56.312" transform="translate(0 0)" fill="none"/>
    </clipPath>
    <clipPath id="clip-path-2">
      <path id="パス_21" data-name="パス 21" d="M13.109,50.088l228.772-1.14L13.109,47.811Z" fill="none"/>
    </clipPath>
    <linearGradient id="linear-gradient" x1="-0.073" y1="0.628" x2="-0.068" y2="0.628" gradientUnits="objectBoundingBox">
      <stop offset="0" stop-color="#e5b94a"/>
      <stop offset="0.112" stop-color="#f0d374"/>
      <stop offset="0.21" stop-color="#f9e895"/>
      <stop offset="0.446" stop-color="#9d6124"/>
      <stop offset="0.667" stop-color="#e5a14e"/>
      <stop offset="1" stop-color="#e5b94a"/>
    </linearGradient>
    <clipPath id="clip-path-3">
      <path id="パス_22" data-name="パス 22" d="M6.067,56.312s7.564-1.879,7.036-7.226a9.111,9.111,0,0,0-7.036,7.226" fill="none"/>
    </clipPath>
    <linearGradient id="linear-gradient-2" x1="-0.584" y1="0.909" x2="-0.474" y2="0.909" xlink:href="#linear-gradient"/>
    <clipPath id="clip-path-4">
      <path id="パス_23" data-name="パス 23" d="M13.1,48.816c.528-5.343-7.036-7.226-7.036-7.226A9.1,9.1,0,0,0,13.1,48.816" fill="none"/>
    </clipPath>
    <linearGradient id="linear-gradient-3" x1="-0.584" y1="1.757" x2="-0.474" y2="1.757" xlink:href="#linear-gradient"/>
    <clipPath id="clip-path-5">
      <path id="パス_24" data-name="パス 24" d="M0,49.1A8.657,8.657,0,0,0,5.041,51.06,8.655,8.655,0,0,0,10.08,49.1a8.653,8.653,0,0,0-5.039-1.958A8.655,8.655,0,0,0,0,49.1" fill="none"/>
    </clipPath>
    <linearGradient id="linear-gradient-4" x1="0.03" y1="1.656" x2="0.123" y2="1.656" xlink:href="#linear-gradient"/>
    <clipPath id="clip-path-6">
      <path id="パス_25" data-name="パス 25" d="M246.817,48.948l227.773,1.14V47.811Z" fill="none"/>
    </clipPath>
    <linearGradient id="linear-gradient-5" x1="-1.128" y1="0.629" x2="-1.123" y2="0.629" xlink:href="#linear-gradient"/>
    <clipPath id="clip-path-7">
      <path id="パス_26" data-name="パス 26" d="M474.6,48.816a9.1,9.1,0,0,0,7.033-7.226s-7.561,1.883-7.033,7.226" fill="none"/>
    </clipPath>
    <linearGradient id="linear-gradient-6" x1="-52.108" y1="1.757" x2="-51.998" y2="1.757" xlink:href="#linear-gradient"/>
    <clipPath id="clip-path-8">
      <path id="パス_27" data-name="パス 27" d="M481.632,56.312a9.111,9.111,0,0,0-7.033-7.226c-.528,5.347,7.033,7.226,7.033,7.226" fill="none"/>
    </clipPath>
    <linearGradient id="linear-gradient-7" x1="-52.109" y1="0.909" x2="-51.998" y2="0.909" xlink:href="#linear-gradient"/>
    <clipPath id="clip-path-9">
      <path id="パス_28" data-name="パス 28" d="M477.616,48.8a7.475,7.475,0,0,0,10.083,0,7.467,7.467,0,0,0-10.083,0" fill="none"/>
    </clipPath>
    <linearGradient id="linear-gradient-8" x1="-44.481" y1="1.705" x2="-44.388" y2="1.705" xlink:href="#linear-gradient"/>
    <clipPath id="clip-path-10">
      <path id="パス_29" data-name="パス 29" d="M240.989,48.685l-.311.263.311.268,3.3,2.831-2.538-3.1,2.538-3.1Z" fill="none"/>
    </clipPath>
    <linearGradient id="linear-gradient-9" x1="-48.021" y1="1.57" x2="-47.821" y2="1.57" xlink:href="#linear-gradient"/>
    <clipPath id="clip-path-11">
      <path id="パス_30" data-name="パス 30" d="M246.823,48.952l-2.537,3.1,3.3-2.831.307-.268-.307-.263-3.3-2.83Z" fill="none"/>
    </clipPath>
    <linearGradient id="linear-gradient-10" x1="-48.762" y1="1.57" x2="-48.562" y2="1.57" xlink:href="#linear-gradient"/>
    <clipPath id="clip-path-12">
      <path id="パス_31" data-name="パス 31" d="M13.109,8.5l228.772-1.14L13.109,6.222Z" fill="none"/>
    </clipPath>
    <linearGradient id="linear-gradient-11" x1="-0.073" y1="1.351" x2="-0.068" y2="1.351" xlink:href="#linear-gradient"/>
    <clipPath id="clip-path-13">
      <path id="パス_32" data-name="パス 32" d="M6.067,14.723S13.631,12.844,13.1,7.5a9.113,9.113,0,0,0-7.036,7.227" fill="none"/>
    </clipPath>
    <linearGradient id="linear-gradient-12" x1="-0.584" y1="5.613" x2="-0.474" y2="5.613" xlink:href="#linear-gradient"/>
    <clipPath id="clip-path-14">
      <path id="パス_33" data-name="パス 33" d="M13.1,7.227C13.631,1.883,6.067,0,6.067,0A9.1,9.1,0,0,0,13.1,7.227" fill="none"/>
    </clipPath>
    <linearGradient id="linear-gradient-13" x1="-0.584" y1="6.461" x2="-0.474" y2="6.461" xlink:href="#linear-gradient"/>
    <clipPath id="clip-path-15">
      <path id="パス_34" data-name="パス 34" d="M0,7.514A8.659,8.659,0,0,0,5.041,9.47,8.657,8.657,0,0,0,10.08,7.514,8.651,8.651,0,0,0,5.041,5.555,8.653,8.653,0,0,0,0,7.514" fill="none"/>
    </clipPath>
    <linearGradient id="linear-gradient-14" x1="0.03" y1="8.327" x2="0.123" y2="8.327" xlink:href="#linear-gradient"/>
    <clipPath id="clip-path-16">
      <path id="パス_35" data-name="パス 35" d="M246.817,7.359,474.59,8.5V6.222Z" fill="none"/>
    </clipPath>
    <linearGradient id="linear-gradient-15" x1="-1.128" y1="1.355" x2="-1.123" y2="1.355" xlink:href="#linear-gradient"/>
    <clipPath id="clip-path-17">
      <path id="パス_36" data-name="パス 36" d="M474.6,7.227A9.1,9.1,0,0,0,481.632,0s-7.561,1.883-7.033,7.227" fill="none"/>
    </clipPath>
    <linearGradient id="linear-gradient-16" x1="-52.107" y1="6.461" x2="-51.997" y2="6.461" xlink:href="#linear-gradient"/>
    <clipPath id="clip-path-18">
      <path id="パス_37" data-name="パス 37" d="M481.632,14.723A9.113,9.113,0,0,0,474.6,7.5c-.528,5.348,7.033,7.227,7.033,7.227" fill="none"/>
    </clipPath>
    <linearGradient id="linear-gradient-17" x1="-52.107" y1="5.613" x2="-51.997" y2="5.613" xlink:href="#linear-gradient"/>
    <clipPath id="clip-path-19">
      <path id="パス_38" data-name="パス 38" d="M477.616,7.212a7.475,7.475,0,0,0,10.083,0,7.464,7.464,0,0,0-10.083,0" fill="none"/>
    </clipPath>
    <linearGradient id="linear-gradient-18" x1="-44.48" y1="8.373" x2="-44.387" y2="8.373" xlink:href="#linear-gradient"/>
    <clipPath id="clip-path-20">
      <path id="パス_39" data-name="パス 39" d="M240.989,7.1l-.311.263.311.267,3.3,2.831-2.538-3.094,2.538-3.1Z" fill="none"/>
    </clipPath>
    <linearGradient id="linear-gradient-19" x1="-48.023" y1="7.616" x2="-47.823" y2="7.616" xlink:href="#linear-gradient"/>
    <clipPath id="clip-path-21">
      <path id="パス_40" data-name="パス 40" d="M246.823,7.363l-2.537,3.094,3.3-2.831.307-.267-.307-.263-3.3-2.83Z" fill="none"/>
    </clipPath>
    <linearGradient id="linear-gradient-20" x1="-48.764" y1="7.616" x2="-48.564" y2="7.616" xlink:href="#linear-gradient"/>
  </defs>
  <g id="グループ_2" data-name="グループ 2" transform="translate(0 0)">
    <g id="グループ_1" data-name="グループ 1" clip-path="url(#clip-path)">
      <path id="パス_1" data-name="パス 1" d="M31.571,34.372c1.848,0,2.288-.132,2.729-.528a5.588,5.588,0,0,0,1.209-1.694c.088-.154.154-.176.353-.111s.242.133.22.287c-.264,1.122-.815,3.08-1.189,4.224-1.5-.044-2.662-.044-4.246-.044-1.606,0-2.9,0-4.357.044-.22,0-.286-.022-.286-.374a.989.989,0,0,1,.132-.616,37.958,37.958,0,0,1,3.851-5.633c1.87-2.4,2.926-3.564,2.926-5.61,0-1.827-.638-3.147-1.892-3.147a1.814,1.814,0,0,0-1.826,1.276,4.846,4.846,0,0,0-.2,1.607c0,.615-.837,1.034-1.651,1.034-.616,0-1.056-.176-1.056-.837,0-1.408,1.782-3.74,4.731-3.74,2.97,0,4.554,1.76,4.554,3.9,0,2.816-2.024,3.872-4.246,5.941-2.443,2.222-2.992,2.9-3.653,4.026Z" fill="#3a4348"/>
      <path id="パス_2" data-name="パス 2" d="M48.848,28.695c0,5.061-1.826,8.251-4.885,8.251-3.168,0-4.929-3.036-4.929-8.119,0-5.149,1.805-8.317,4.929-8.317,3.059,0,4.885,3.168,4.885,8.185m-7.239.066c0,4.577.462,7.5,2.354,7.5,1.827,0,2.311-2.926,2.311-7.5,0-4.6-.44-7.569-2.311-7.569-1.892,0-2.354,2.97-2.354,7.569" fill="#3a4348"/>
      <path id="パス_3" data-name="パス 3" d="M56.988,34.372c1.848,0,2.288-.132,2.729-.528a5.588,5.588,0,0,0,1.209-1.694c.088-.154.155-.176.353-.111s.242.133.22.287c-.264,1.122-.815,3.08-1.189,4.224-1.5-.044-2.662-.044-4.246-.044-1.606,0-2.9,0-4.357.044-.22,0-.286-.022-.286-.374a.989.989,0,0,1,.132-.616A37.958,37.958,0,0,1,55.4,29.927c1.87-2.4,2.926-3.564,2.926-5.61,0-1.827-.638-3.147-1.892-3.147a1.814,1.814,0,0,0-1.826,1.276,4.846,4.846,0,0,0-.2,1.607c0,.615-.837,1.034-1.651,1.034-.616,0-1.056-.176-1.056-.837,0-1.408,1.782-3.74,4.731-3.74,2.97,0,4.554,1.76,4.554,3.9,0,2.816-2.024,3.872-4.246,5.941-2.443,2.222-2.992,2.9-3.653,4.026Z" fill="#3a4348"/>
      <path id="パス_4" data-name="パス 4" d="M74.265,28.695c0,5.061-1.826,8.251-4.885,8.251-3.168,0-4.929-3.036-4.929-8.119,0-5.149,1.8-8.317,4.929-8.317,3.059,0,4.885,3.168,4.885,8.185m-7.239.066c0,4.577.462,7.5,2.354,7.5,1.827,0,2.311-2.926,2.311-7.5,0-4.6-.44-7.569-2.311-7.569-1.892,0-2.354,2.97-2.354,7.569" fill="#3a4348"/>
      <path id="パス_5" data-name="パス 5" d="M92.9,31.93c1.21-1.453,1.474-1.629,1.628-1.629.2,0,.44.176,1.606,1.123.528.44.7.638.7.792s-.066.22-.286.22H88.9c.022,2.354.066,4.488.066,5.434,0,.661-.44.947-1.32.947-.638,0-.968-.2-.968-.771s.088-2.266.088-5.61H79.018a12.017,12.017,0,0,0-1.628.132l-.243-.814a9.556,9.556,0,0,0,1.805.176h1.936V28.915c0-1.1-.022-2.2-.088-3.3a14.438,14.438,0,0,1,2.31,1.056h3.653V22.622H82.692a14.794,14.794,0,0,1-4.95,4.819c-.089.066-.308-.11-.221-.2a19.29,19.29,0,0,0,3.807-6.293,11.974,11.974,0,0,0,.7-2.53c2.332.682,2.926.946,2.926,1.32,0,.242-.264.4-.946.484-.33.682-.66,1.3-1.012,1.892h9.33c1.144-1.342,1.408-1.518,1.562-1.518.2,0,.44.176,1.562,1.056.506.418.682.594.682.748s-.066.22-.286.22H88.875v4.049h2.6c1.122-1.276,1.3-1.408,1.474-1.408.219,0,.418.132,1.5.968.506.4.638.55.638.726,0,.154-.088.22-.33.22H88.875v.792c0,1.276,0,2.64.022,3.961Zm-6.139-4.753H82.956v4.752h3.807Z" fill="#3a4348"/>
      <path id="パス_6" data-name="パス 6" d="M106.431,24.757v-.485a13.832,13.832,0,0,0-.088-1.848c2.332.22,2.574.286,2.574.55,0,.176-.132.286-.528.506v1.277h3.85v-.726c0-.683-.022-.947-.066-1.651,2,.2,2.553.33,2.553.638,0,.176-.11.287-.55.528v1.211h1.452c.9-1.123,1.166-1.3,1.32-1.3.2,0,.44.176,1.386.9.418.352.594.528.594.681s-.066.221-.286.221h-4.466c.022,1.782.066,3.014.066,3.454,0,.55-.352.814-1.166.814-.661,0-.837-.2-.837-.858v-.11h-3.85v.22c0,.594-.33.858-1.166.858-.617,0-.836-.242-.836-.792,0-.374.044-1.5.044-3.586h-3.1a34.036,34.036,0,0,1-.748,7.019A16.636,16.636,0,0,1,99.5,38.575c-.065.087-.286-.044-.242-.155a27.8,27.8,0,0,0,1.651-7.282c.176-1.827.264-3.873.264-6.315,0-1.739-.066-3.169-.2-4.753a16,16,0,0,1,2.508,1.166h5.457V19.872a8.954,8.954,0,0,0-.132-1.3c2.662.264,2.926.506,2.926.748s-.264.44-.748.616v1.3h4.8c1.012-1.188,1.276-1.364,1.43-1.364.2,0,.462.176,1.5.946.484.374.661.55.661.7s-.067.22-.287.22H103.35V23.59c0,.4,0,.793-.022,1.167Zm6.82,6.028c.9-.9,1.079-1.034,1.255-1.034.22,0,.4.132,1.3.969.418.374.55.549.55.726,0,.352-.308.462-1.122.66a16.936,16.936,0,0,1-2.949,3.058,27.224,27.224,0,0,0,7.371,1.453c.111,0,.067.219-.044.241-.792.242-1.078.573-1.408,1.607-.088.264-.2.352-.418.352a7.774,7.774,0,0,1-1.364-.264,18.615,18.615,0,0,1-5.325-2.135c-.11-.066-.22-.154-.33-.22a21.9,21.9,0,0,1-9.043,2.6c-.11.022-.2-.33-.088-.352a23.988,23.988,0,0,0,7.745-3.323,12.859,12.859,0,0,1-2.751-3.829h-1.319a5.012,5.012,0,0,0-1.3.177l-.242-.859a6.962,6.962,0,0,0,1.541.176Zm-6.094.506a11.267,11.267,0,0,0,3.278,3.015,16.731,16.731,0,0,0,2.816-3.015Zm5.082-6.028h-3.851v2.794h3.851Z" fill="#3a4348"/>
      <path id="パス_7" data-name="パス 7" d="M154.192,27.617H149.77a18.214,18.214,0,0,0-2.025.132l-.242-.814a15.446,15.446,0,0,0,2.289.176h4.4V22.028a27.917,27.917,0,0,0-.132-3.146c2.9.264,3.191.527,3.191.77,0,.22-.265.418-.814.594v6.865h3.5c1.21-1.474,1.474-1.65,1.628-1.65.2,0,.44.176,1.629,1.144.549.44.726.638.726.792s-.066.22-.287.22h-7.194v9.527h4.972c1.276-1.606,1.54-1.782,1.7-1.782.2,0,.44.176,1.715,1.232.6.484.771.682.771.836s-.066.22-.286.22H148.009a19.714,19.714,0,0,0-2.112.133l-.242-.815a15.779,15.779,0,0,0,2.332.176h6.205Z" fill="#3a4348"/>
      <path id="パス_8" data-name="パス 8" d="M179.348,24.735a13.725,13.725,0,0,0,3.234,5.1,16.315,16.315,0,0,0,6.337,3.763c.11.044.11.154,0,.2-.858.286-1.188.66-1.628,1.738-.132.308-.22.419-.4.419a2.879,2.879,0,0,1-1.012-.529,15.355,15.355,0,0,1-4.489-4.753,26,26,0,0,1-2.376-5.258c.154,7.041.242,11.728.242,12.564,0,.616-.484.88-1.342.88-.7,0-1.012-.22-1.012-.726,0-1.189.175-6.051.22-10.518a20.516,20.516,0,0,1-8.934,8.34c-.11.044-.242-.155-.154-.221a26.637,26.637,0,0,0,8.054-11h-5.039a15.834,15.834,0,0,0-1.893.132l-.242-.814a12.722,12.722,0,0,0,2.091.176h5.985V21.7a25.651,25.651,0,0,0-.132-3.058c2.266.176,2.948.308,2.948.66,0,.2-.176.374-.682.638v4.291h5.127c1.078-1.365,1.342-1.54,1.5-1.54.2,0,.44.175,1.584,1.078.506.418.682.594.682.748s-.066.22-.286.22Z" fill="#3a4348"/>
      <path id="パス_9" data-name="パス 9" d="M203.741,23.392a27.361,27.361,0,0,0,1.409-2.552,17.864,17.864,0,0,0,.792-2c1.98.9,2.618,1.276,2.618,1.563,0,.264-.264.417-1.012.417a21.017,21.017,0,0,1-3.037,2.575h3.411c.9-.968,1.078-1.1,1.254-1.1.22,0,.374.132,1.386,1.144.44.462.572.638.572.814,0,.352-.11.418-.946.484-.352.022-.374.022-.528.176a11.62,11.62,0,0,1-2.068,1.365c-.088.043-.242-.066-.2-.176a12.444,12.444,0,0,0,.7-2.2H194.1c.154,1.871-.528,3.037-1.716,3.037a1.1,1.1,0,0,1-1.145-1.166,1.069,1.069,0,0,1,.682-1.057,2.477,2.477,0,0,0,1.651-2.4c.022-.11.2-.132.22-.022a7.685,7.685,0,0,1,.242,1.1Zm-3.916,7.283a13.411,13.411,0,0,0-.067-1.65c.771.132,1.343.22,1.761.286a14.01,14.01,0,0,0,2.244-2.531h-7.2a4.747,4.747,0,0,0-1.254.177l-.242-.858a6.009,6.009,0,0,0,1.43.176h7.305c.9-.814,1.078-.947,1.255-.947.219,0,.4.133,1.254.9.374.33.505.483.505.66,0,.308-.241.418-1.078.44a21.352,21.352,0,0,1-3.5,2.134c.418.11.418.2.418.352,0,.22-.2.374-.77.638v.682h5.369c1.122-1.386,1.386-1.562,1.54-1.562.2,0,.44.176,1.606,1.078.528.44.7.616.7.77s-.066.22-.286.22h-8.933v2.333c.022,1.21.066,1.782.066,2.618a2.351,2.351,0,0,1-.4,1.431,2.557,2.557,0,0,1-2.223.813c-.417,0-.461-.088-.549-.572-.111-.792-.748-1.166-2.509-1.606-.11-.022-.088-.308.022-.308,1.21.088,2.354.154,3.147.154.264,0,.374-.088.374-.33V31.643h-6.953a8.7,8.7,0,0,0-1.387.132l-.242-.814a7.029,7.029,0,0,0,1.541.176h7.041Zm-3.169-7.547c-.594,0-.814-.286-1.056-1.386a5.03,5.03,0,0,0-1.188-2.31.144.144,0,0,1,.132-.22c2.332.66,3.3,1.474,3.3,2.64a1.2,1.2,0,0,1-1.188,1.276m4.621-.374c-.638,0-.792-.22-1.012-1.408a5.094,5.094,0,0,0-1.189-2.443c-.066-.087,0-.242.111-.2,2.31.771,3.322,1.629,3.322,2.839a1.173,1.173,0,0,1-1.232,1.21" fill="#3a4348"/>
      <path id="パス_10" data-name="パス 10" d="M213.536,29.2c-.11.045-.242-.176-.154-.242a22.68,22.68,0,0,0,7.041-7.151,16.887,16.887,0,0,0,1.54-3.344c3.1.836,3.125.858,3.125,1.122,0,.2-.176.308-.968.528a15.938,15.938,0,0,0,5.039,4.665,16.13,16.13,0,0,0,5.17,1.782c.11.022.11.286,0,.286-.7.066-1.188.616-1.518,1.8-.088.308-.2.418-.374.418a3.238,3.238,0,0,1-1.034-.44,19.677,19.677,0,0,1-3.125-2.2,18.815,18.815,0,0,1-4.444-5.9c-2.112,3.9-5.479,6.711-10.3,8.669m9.572,2a25.447,25.447,0,0,1-3.477,4.884c2.75-.022,5.5-.131,8.251-.286a9.075,9.075,0,0,0-2.156-2.838c-.088-.066.022-.264.132-.22,3.168,1.166,5.039,2.794,5.039,4.313a1.36,1.36,0,0,1-1.21,1.5c-.639,0-.77-.154-1.32-1.585-.089-.219-.155-.418-.242-.615A77.3,77.3,0,0,1,216.793,38.2c-.154.66-.264.836-.528.836-.352,0-.352,0-1.166-3.059a26.021,26.021,0,0,0,2.838.11h.814A25.413,25.413,0,0,0,220.2,31.2h-3.85a10.762,10.762,0,0,0-1.54.131l-.243-.814a9.272,9.272,0,0,0,1.783.177h13.025c1.057-1.321,1.321-1.5,1.475-1.5.2,0,.44.176,1.5,1.034.484.4.66.595.66.749s-.066.22-.286.22Zm1.518-4.247c.968-1.21,1.232-1.386,1.386-1.386.2,0,.418.176,1.364.968.418.352.594.55.594.7s-.066.22-.285.22h-7.592a7.612,7.612,0,0,0-1.3.132l-.242-.814a7.39,7.39,0,0,0,1.584.176Z" fill="#3a4348"/>
      <path id="パス_11" data-name="パス 11" d="M246.45,25.923c2.244-.177,3.036-.22,4.158-.352a3.866,3.866,0,0,0,.836-.242,2.34,2.34,0,0,1,.814-.2,4.39,4.39,0,0,1,2.091.594.962.962,0,0,1,.484.858.619.619,0,0,1-.506.66,6.691,6.691,0,0,1-1.342-.088A22.7,22.7,0,0,0,250.256,27c-.748,0-1.98,0-2.97.066.7.484,1.012.924,1.012,1.232a.665.665,0,0,1-.11.352,4.013,4.013,0,0,0-.44.99,14.545,14.545,0,0,1-2.4,4.335,13.492,13.492,0,0,1-4.489,3.719.959.959,0,0,1-.374.132c-.154,0-.22-.066-.22-.221,0-.11.176-.264.55-.594a18.451,18.451,0,0,0,3.234-4.048,16.767,16.767,0,0,0,1.629-3.9,6.817,6.817,0,0,0,.2-1.166,1.026,1.026,0,0,0-.242-.748c-1.563.154-3.191.352-4.2.55a2.716,2.716,0,0,0-1.034.374,1.018,1.018,0,0,1-.66.2c-.4,0-.792-.22-1.474-.99a1.96,1.96,0,0,1-.573-1.21c0-.331.11-.528.243-.528.11,0,.2.132.33.242a2.335,2.335,0,0,0,1.5.7c.528,0,1.3-.066,1.936-.132,1.5-.154,2.772-.286,4.753-.44m1.408-4.665a2.335,2.335,0,0,0,.66-.242,2.764,2.764,0,0,1,.836-.242,4,4,0,0,1,1.893.44.73.73,0,0,1,.352.66.74.74,0,0,1-.815.77c-.484.022-1.056.022-1.76.088-1.342.11-3.63.286-4.863.4-.418.044-.836.088-1.144.088a1.882,1.882,0,0,1-1.76-.792,1.557,1.557,0,0,1-.506-1.166c0-.2.044-.33.154-.33.066,0,.132.088.286.2a2.36,2.36,0,0,0,1.76.682,22.615,22.615,0,0,0,2.377-.176c.968-.11,1.826-.22,2.53-.374m6.227-.682a1.648,1.648,0,0,1,.814,1.32.739.739,0,0,1-.726.77.788.788,0,0,1-.748-.506,8.263,8.263,0,0,0-1.386-1.936c-.088-.088-.243-.2-.243-.286,0-.132.11-.154.265-.154a1.935,1.935,0,0,1,.506.088,4.032,4.032,0,0,1,1.518.7m2.024-1.518a1.339,1.339,0,0,1,.792,1.122.737.737,0,0,1-.682.814.842.842,0,0,1-.814-.484,5.583,5.583,0,0,0-1.54-1.716c-.088-.066-.264-.176-.264-.264a.174.174,0,0,1,.176-.176,3.039,3.039,0,0,1,.572.066,5.137,5.137,0,0,1,1.76.638" fill="#3a4348"/>
      <path id="パス_12" data-name="パス 12" d="M274.263,25.527a1.72,1.72,0,0,1,.836-.22,4.51,4.51,0,0,1,1.98.638.914.914,0,0,1,.44.748.64.64,0,0,1-.682.66,6.6,6.6,0,0,1-1.122-.154,13.854,13.854,0,0,0-2.245-.2h-1.32a13.009,13.009,0,0,1-1.474,6.293,9.83,9.83,0,0,1-6.359,4.269,4.5,4.5,0,0,1-.682.11c-.2,0-.286-.044-.286-.176a.175.175,0,0,1,.132-.176,10.514,10.514,0,0,0,5.7-4.863,12.848,12.848,0,0,0,1.166-5.435c-1.276.044-2.487.154-4.092.352-.022,1.211,0,2.421-.022,3.631-.022.99-.551,1.254-.881,1.254-.659,0-1.012-.286-1.012-1.1,0-.792.11-2.047.132-3.609a15.257,15.257,0,0,0-1.518.308,3.317,3.317,0,0,0-.946.4,1.3,1.3,0,0,1-.792.286,2.066,2.066,0,0,1-1.475-.859,1.93,1.93,0,0,1-.681-1.43c0-.242.066-.374.2-.374.066,0,.154.088.309.2a2.779,2.779,0,0,0,1.606.682c.33,0,.9-.022,1.518-.088.7-.088,1.056-.154,1.8-.242V24.163c0-.462-.022-.726-.22-.924a3.037,3.037,0,0,0-1.166-.594c-.154-.044-.22-.089-.22-.177s.132-.219.264-.308a1.426,1.426,0,0,1,.9-.219,4.688,4.688,0,0,1,1.936.571c.529.287.7.573.7.815a1.028,1.028,0,0,1-.2.616,2.217,2.217,0,0,0-.177.814c-.022.374-.044.858-.044,1.518,1.651-.176,2.641-.264,4.115-.374V23.5a5.442,5.442,0,0,0-.132-1.827.937.937,0,0,0-.55-.483,7.2,7.2,0,0,0-.748-.243c-.2-.044-.242-.088-.242-.176s.088-.22.33-.4a1.3,1.3,0,0,1,.792-.22,5.7,5.7,0,0,1,1.76.33c.748.242,1.1.683,1.1,1.034a1.052,1.052,0,0,1-.241.638,1.143,1.143,0,0,0-.2.639c-.044,1.188-.066,2.112-.088,3.036.44-.022.836-.044,1.254-.088a1.958,1.958,0,0,0,.837-.22m1.716-3.938a1.646,1.646,0,0,1,.814,1.32.739.739,0,0,1-.726.77.788.788,0,0,1-.748-.506,8.263,8.263,0,0,0-1.386-1.936c-.088-.089-.242-.2-.242-.287,0-.132.109-.153.264-.153a1.944,1.944,0,0,1,.506.087,4.033,4.033,0,0,1,1.518.7m2.046-1.519a1.339,1.339,0,0,1,.792,1.123.738.738,0,0,1-.682.814.841.841,0,0,1-.814-.485,5.583,5.583,0,0,0-1.54-1.716c-.088-.066-.264-.176-.264-.264a.174.174,0,0,1,.176-.176,3.039,3.039,0,0,1,.572.066,5.137,5.137,0,0,1,1.76.638" fill="#3a4348"/>
      <path id="パス_13" data-name="パス 13" d="M280.188,32.678c-.242.132-.374.242-.484.242-.176,0-.264-.11-.264-.286,0-.11.132-.22.374-.4a49.218,49.218,0,0,0,7.041-6.755,23.942,23.942,0,0,0,2.641-3.476,1.886,1.886,0,0,0,.352-.925c0-.2-.286-.484-.726-.748-.221-.132-.4-.176-.4-.308,0-.176.375-.506.924-.506a5.078,5.078,0,0,1,2.333.88,1.784,1.784,0,0,1,.946,1.211c0,.352-.22.615-.726.792a.859.859,0,0,0-.462.308c-1.232,1.342-2.288,2.508-3.1,3.366.837.594,1.408,1.057,1.408,1.5a.793.793,0,0,1-.087.417,2.854,2.854,0,0,0-.066.749v3.168c0,1.65.044,3.3.044,4.973a.881.881,0,0,1-.836.99,1.136,1.136,0,0,1-.991-.462,2.413,2.413,0,0,1-.462-1.43,1.455,1.455,0,0,1,.11-.507,8.637,8.637,0,0,0,.22-2.068c0-1.606.022-3.74.022-5.082a3.727,3.727,0,0,0-.154-1.431,31.152,31.152,0,0,1-7.657,5.787" fill="#3a4348"/>
      <path id="パス_14" data-name="パス 14" d="M299.362,23.172c0-.11.087-.176.22-.176a3.668,3.668,0,0,1,.418.022,7.864,7.864,0,0,1,2.794.88,2.615,2.615,0,0,1,1.518,2.2,1.168,1.168,0,0,1-1.188,1.232,1.145,1.145,0,0,1-1.078-.814,7.635,7.635,0,0,0-.924-1.584,5.749,5.749,0,0,0-1.607-1.541.25.25,0,0,1-.153-.22m3.212,9.99a42.242,42.242,0,0,0,6.1-4.313,46.76,46.76,0,0,0,5.171-5.369.472.472,0,0,1,.286-.2c.154,0,.219.087.219.2a.76.76,0,0,1-.131.374,28.888,28.888,0,0,1-4.577,6.162,49.966,49.966,0,0,1-5.875,5.148,3.489,3.489,0,0,0-.572.528,1.13,1.13,0,0,1-.88.528c-.462,0-.748-.2-1.342-.836-.946-1.012-1.232-1.584-1.232-2.046s.153-.836.352-.836c.11,0,.175.088.352.285.484.507.792.815,1.012.815a2.74,2.74,0,0,0,1.122-.44" fill="#3a4348"/>
      <path id="パス_15" data-name="パス 15" d="M327.181,22.094V20.312a16.315,16.315,0,0,0-.088-1.892c2.53.242,2.794.462,2.794.682s-.242.418-.748.572v2.42h1.672a19.776,19.776,0,0,0,1.078-1.716,10.036,10.036,0,0,0,.726-1.672c1.761.66,2.465,1.056,2.465,1.386,0,.286-.242.374-.99.4a12.039,12.039,0,0,1-2.442,1.606H335.1c.9-.967,1.078-1.1,1.254-1.1.22,0,.4.133,1.5,1.078.507.44.638.595.638.77,0,.374-.2.463-.88.463a.719.719,0,0,0-.594.176,9.352,9.352,0,0,1-2.09,1.342c-.088.044-.242-.044-.2-.154A15.624,15.624,0,0,0,335.3,22.6H321.152c.088,1.76-.7,2.882-1.76,2.882a1.1,1.1,0,0,1-1.144-1.145,1.058,1.058,0,0,1,.7-1.033,2.344,2.344,0,0,0,1.716-2.245c.022-.11.2-.132.22-.022a6.973,6.973,0,0,1,.22,1.056h2.882c-.374-.088-.572-.374-.814-1.21a4.194,4.194,0,0,0-.946-1.87.13.13,0,0,1,.132-.2c2.134.506,2.927,1.1,2.927,2.09,0,.66-.221,1.078-.793,1.188Zm-1.255,15.4a17.6,17.6,0,0,1-6.886,1.54c-.11,0-.2-.264-.088-.286a17.123,17.123,0,0,0,4.312-1.936,5.31,5.31,0,0,0,1.365-1.145c2.178,1.079,2.376,1.188,2.376,1.475,0,.264-.11.308-1.079.352m-2.354-2.2c-.066.528-.506.727-1.144.727-.682,0-.924-.2-.924-.77,0-.661.088-1.409.088-4.115,0-1.211-.022-2.443-.066-3.675a20.608,20.608,0,0,1,2.376,1.056h8.89c.682-.748.858-.88,1.034-.88.22,0,.44.132,1.276.748.4.308.528.44.528.616,0,.2-.132.331-.66.683v.88c0,2.354.088,3.96.088,4.488,0,.616-.418.9-1.144.9-.682,0-.9-.155-.925-.661Zm1.32-8.317c-.066.462-.418.66-1.078.66-.594,0-.88-.22-.88-.616,0-.11.022-.462.022-.748V23.019a11.977,11.977,0,0,1,2.112,1.012H331.3c.726-.837.9-.968,1.078-.968.219,0,.418.131,1.188.77.352.286.484.44.484.616s-.154.33-.616.616v.308c0,.814.022,1.3.022,1.474,0,.484-.374.77-1.1.77-.617,0-.859-.154-.859-.638Zm8.1,2.046h-9.417v1.54h9.417Zm-9.417,3.565h9.417V31.072h-9.417Zm0,2.2h9.417V33.1h-9.417Zm7.921-10.253h-6.6v1.937h6.6Zm3.741,14.654a2.042,2.042,0,0,1-1.386-.638,11.661,11.661,0,0,0-3.983-2.355c-.11-.044-.088-.219.022-.219,4.313.153,6.425.879,6.425,2.288,0,.66-.484.924-1.078.924" fill="#3a4348"/>
      <path id="パス_16" data-name="パス 16" d="M355.89,21.808c0,4.687.088,7.943.088,9.021,0,.638-.44.924-1.232.924-.66,0-.924-.22-.924-.748,0-.55.044-1.848.066-4.158a15.648,15.648,0,0,1-2.684,2.2c-.067.572-.177.792-.419.792-.22,0-.4-.418-1.056-2.6a14.5,14.5,0,0,0,1.716-.33c.77-.2,1.607-.463,2.443-.726.022-1.013.022-2.179.022-3.521a36.539,36.539,0,0,0-.132-3.829c2.464.309,2.728.4,2.728.683,0,.2-.2.352-.616.5Zm4.445,11.354a7.907,7.907,0,0,0,3.652,2.332,20.7,20.7,0,0,0,6.073.9c.11,0,.11.22,0,.264a2.692,2.692,0,0,0-1.518,1.98.306.306,0,0,1-.308.242,4.751,4.751,0,0,1-1.1-.22,18.347,18.347,0,0,1-3.675-1.5,9.017,9.017,0,0,1-3.476-3.741,7.1,7.1,0,0,1-2.267,3.037,14.22,14.22,0,0,1-7.745,2.486c-.11,0-.176-.308-.066-.33a13.553,13.553,0,0,0,5.567-2.376,6.989,6.989,0,0,0,2.332-3.08h-5.566a16,16,0,0,0-1.893.131l-.242-.814a12.664,12.664,0,0,0,2.068.176h5.809a7.189,7.189,0,0,0,.265-2.2c2.882.4,2.926.4,2.926.77,0,.264-.22.44-.792.594-.044.286-.111.573-.176.836h6.006c1.013-1.188,1.277-1.364,1.431-1.364.2,0,.44.176,1.452.968.44.352.616.528.616.682s-.066.221-.286.221Zm-8.1-8.406c-.6,0-.682-.154-.837-1.43a5.659,5.659,0,0,0-.9-2.442c-.066-.088.066-.242.154-.2,1.782.88,2.641,1.8,2.641,2.86a1.113,1.113,0,0,1-1.056,1.21m14.126,2.927c0,.858.022,1.672.022,2.266a1.941,1.941,0,0,1-.308,1.122c-.331.55-.991.77-2.047.77-.4,0-.44-.044-.484-.572-.11-.682-.484-.99-1.606-1.254-.11-.022-.11-.33,0-.33.814.066,1.562.066,2.09.066.33,0,.4-.066.4-.374v-2.6H357.76a6.742,6.742,0,0,0-1.232.133l-.242-.814a6.535,6.535,0,0,0,1.474.175h6.667V25.9a6.919,6.919,0,0,0-.066-.968c-.308.2-.66.4-.946.55-.088.044-.308-.065-.242-.154a17.224,17.224,0,0,0,2.113-2.794,16.694,16.694,0,0,0,.836-1.628c1.8.836,2.332,1.144,2.332,1.452,0,.2-.242.4-.88.33a29.04,29.04,0,0,1-2.773,1.98c1.849.22,2.178.308,2.178.616,0,.2-.2.33-.615.507v.483h.549c.705-1.056.969-1.232,1.123-1.232.2,0,.44.176,1.276.88.352.287.528.484.528.639s-.066.219-.286.219h-3.19Zm.88-7.306a36.059,36.059,0,0,1-10.5,1.189c-.11,0-.176-.264-.044-.308a32.688,32.688,0,0,0,7.239-1.695,12.459,12.459,0,0,0,2.354-1.122c1.321.924,2.025,1.54,2.025,1.739,0,.219-.242.33-1.078.2m-8.6,4.995c-.551,0-.748-.308-.837-1.166a4.15,4.15,0,0,0-.66-1.936c-.066-.088.044-.176.154-.132,1.518.506,2.355,1.254,2.355,2.112a1.027,1.027,0,0,1-1.012,1.122m2.222,4.973c-.44,0-.528-.088-1.056-1.144a4.049,4.049,0,0,0-1.431-1.628c-.088-.066-.066-.22.044-.22,2.2.154,3.389.835,3.389,1.892a.972.972,0,0,1-.946,1.1m1.342-5.3c-.506,0-.748-.22-.88-.9a4.1,4.1,0,0,0-.858-2.178c-.066-.088.044-.2.154-.154,1.738.594,2.53,1.276,2.53,2.2a.962.962,0,0,1-.946,1.034" fill="#3a4348"/>
      <path id="パス_17" data-name="パス 17" d="M376.532,24.426a38.786,38.786,0,0,1-.792,7.5,15.673,15.673,0,0,1-2.9,6.293c-.066.088-.264-.044-.22-.154a22.55,22.55,0,0,0,1.54-6.271,82.4,82.4,0,0,0,.352-8.625,38.1,38.1,0,0,0-.154-4.137,14.43,14.43,0,0,1,2.442,1.342h5.039c.968-1.078,1.145-1.21,1.32-1.21.221,0,.418.132,1.321.836.418.33.55.485.55.661,0,.153-.088.22-.33.22h-8.119v.682c0,.836,0,1.606-.023,2.354h4.929c.792-1.034,1.056-1.21,1.21-1.21.2,0,.44.176,1.276.858.353.286.529.484.529.638s-.066.22-.287.22h-4c-.044,1.056-.088,2.112-.176,3.169h1.892c.661-.881.836-1.013,1.013-1.013.219,0,.4.132,1.144.77.33.309.462.462.462.639,0,.153-.11.22-.573.594a37.75,37.75,0,0,1-.946,7.481,3.232,3.232,0,0,1-1.056,1.716,1.927,1.927,0,0,1-1.144.418c-.814,0-.836-.022-.88-.594-.11-.726-.55-1.1-1.694-1.474-.11-.044-.066-.286.044-.264a21.97,21.97,0,0,0,2.288.2c.528,0,.682-.308.924-1.694A48.082,48.082,0,0,0,382.1,28.1h-2.112c-.55,4.862-2.09,7.943-5.105,10.363-.088.066-.286-.11-.22-.2,2.508-3.168,3.521-7.019,3.587-13.84Zm12.366.55a28.6,28.6,0,0,1-.99,6.909,12,12,0,0,1-5.3,6.865c-.089.044-.265-.176-.177-.242,3.037-2.97,4.247-6.293,4.511-13.532h-.352a7.406,7.406,0,0,0-1.585.176l-.241-.88a7.637,7.637,0,0,0,1.738.2h.462c.022-1.034.044-2.156.044-3.344a18.577,18.577,0,0,0-.11-2.355c2.53.352,2.816.418,2.816.748,0,.243-.176.4-.66.617-.022,1.628-.066,3.058-.132,4.334h1.628c.748-.88.925-1.012,1.1-1.012.221,0,.4.132,1.167.814.33.286.462.462.462.638,0,.154-.066.22-.616.638-.22,7.129-.374,8.889-.924,10.782a3.349,3.349,0,0,1-1.078,1.826,2.269,2.269,0,0,1-1.5.484c-.44,0-.506-.066-.572-.506-.132-.814-.418-1.034-2.09-1.584-.11-.044-.088-.352.022-.33a23.766,23.766,0,0,0,2.442.2c.594,0,.683-.11.946-1.1.463-1.827.616-3.7.793-10.342Z" fill="#3a4348"/>
      <path id="パス_18" data-name="パス 18" d="M405.193,22.094V20.312a16.323,16.323,0,0,0-.088-1.892c2.53.242,2.794.462,2.794.682s-.242.418-.748.572v2.42h1.672a20.016,20.016,0,0,0,1.078-1.716,10.036,10.036,0,0,0,.726-1.672c1.761.66,2.465,1.056,2.465,1.386,0,.286-.242.374-.99.4a12.039,12.039,0,0,1-2.442,1.606h3.454c.9-.967,1.078-1.1,1.254-1.1.22,0,.4.133,1.5,1.078.507.44.638.595.638.77,0,.374-.2.463-.88.463a.719.719,0,0,0-.594.176,9.353,9.353,0,0,1-2.09,1.342c-.088.044-.242-.044-.2-.154a15.628,15.628,0,0,0,.572-2.068H399.164c.088,1.76-.7,2.882-1.76,2.882a1.1,1.1,0,0,1-1.144-1.145,1.058,1.058,0,0,1,.7-1.033,2.344,2.344,0,0,0,1.716-2.245c.022-.11.2-.132.22-.022a6.969,6.969,0,0,1,.22,1.056H402c-.374-.088-.572-.374-.814-1.21a4.193,4.193,0,0,0-.946-1.87.13.13,0,0,1,.132-.2c2.134.506,2.927,1.1,2.927,2.09,0,.66-.221,1.078-.793,1.188Zm-1.255,15.4a17.6,17.6,0,0,1-6.886,1.54c-.111,0-.2-.264-.088-.286a17.123,17.123,0,0,0,4.312-1.936,5.328,5.328,0,0,0,1.365-1.145c2.178,1.079,2.376,1.188,2.376,1.475,0,.264-.11.308-1.079.352m-2.354-2.2c-.066.528-.506.727-1.144.727-.682,0-.924-.2-.924-.77,0-.661.088-1.409.088-4.115,0-1.211-.022-2.443-.066-3.675a20.608,20.608,0,0,1,2.376,1.056h8.89c.682-.748.858-.88,1.034-.88.22,0,.44.132,1.276.748.4.308.528.44.528.616,0,.2-.132.331-.66.683v.88c0,2.354.088,3.96.088,4.488,0,.616-.418.9-1.144.9-.682,0-.9-.155-.925-.661Zm1.32-8.317c-.066.462-.418.66-1.078.66-.594,0-.88-.22-.88-.616,0-.11.022-.462.022-.748V23.019a11.977,11.977,0,0,1,2.112,1.012h6.228c.726-.837.9-.968,1.078-.968.219,0,.418.131,1.188.77.352.286.484.44.484.616s-.154.33-.616.616v.308c0,.814.022,1.3.022,1.474,0,.484-.374.77-1.1.77-.617,0-.859-.154-.859-.638Zm8.1,2.046h-9.417v1.54H411Zm-9.417,3.565H411V31.072h-9.417Zm0,2.2H411V33.1h-9.417Zm7.921-10.253h-6.6v1.937h6.6Zm3.741,14.654a2.042,2.042,0,0,1-1.386-.638,11.661,11.661,0,0,0-3.983-2.355c-.11-.044-.088-.219.022-.219,4.313.153,6.425.879,6.425,2.288,0,.66-.484.924-1.078.924" fill="#3a4348"/>
      <path id="パス_19" data-name="パス 19" d="M431.217,25.571a19.141,19.141,0,0,0,1.3-2.4,16.176,16.176,0,0,0,.7-1.87c1.958.7,2.574,1.034,2.574,1.342,0,.264-.154.33-.968.4a15.994,15.994,0,0,1-2.9,2.531h3.433c.857-.991,1.034-1.123,1.21-1.123.22,0,.4.132,1.474,1.079.484.44.616.594.616.77,0,.4-.2.483-1.056.528-.374.044-.4.066-1.056.55a18.851,18.851,0,0,1-1.739,1.232.115.115,0,0,1-.176-.132,12.333,12.333,0,0,0,.88-2.4H421.359c.066,1.607-.528,3.037-1.8,3.037a1.109,1.109,0,0,1-1.144-1.188c0-.506.2-.77.836-1.056a2.476,2.476,0,0,0,1.562-2.421c0-.11.242-.131.264-.022a6.974,6.974,0,0,1,.242,1.145Zm-.946,8.6a21.982,21.982,0,0,0,8.141,1.98c.11,0,.11.2,0,.242a2.072,2.072,0,0,0-1.5,1.629c-.154.5-.221.593-.418.593a6.926,6.926,0,0,1-1.739-.44,27.56,27.56,0,0,1-4.972-2.31c-.4-.264-.77-.528-1.122-.814a23.356,23.356,0,0,1-9.638,3.433c-.11.022-.22-.287-.11-.331a26.725,26.725,0,0,0,8.471-4.246,15.108,15.108,0,0,1-3.058-4.8H423.8a11.286,11.286,0,0,0-1.959.176l-.241-.858a15.434,15.434,0,0,0,2.288.176h7.569c.858-.88,1.034-1.012,1.21-1.012.22,0,.374.132,1.342,1.012.44.418.572.594.572.77,0,.33-.2.462-1.034.7a17.02,17.02,0,0,1-3.543,3.961ZM420.3,22.16c-.11,0-.154-.33-.044-.33a49.33,49.33,0,0,0,11-2,14.863,14.863,0,0,0,2.794-1.233c1.892,1.167,2.355,1.518,2.355,1.849,0,.286-.352.374-1.321.2a46.158,46.158,0,0,1-7.789,1.364c1.584.616,2.354,1.32,2.354,2.244a1.165,1.165,0,0,1-1.166,1.189c-.528,0-.77-.286-.836-.991a5.093,5.093,0,0,0-.616-2.31c-.022-.044-.044-.066-.044-.11a45.963,45.963,0,0,1-6.689.132M424.33,25.5c-.594,0-.814-.352-.88-1.035a4.31,4.31,0,0,0-.573-2.068c-.065-.088.044-.176.155-.132,1.562.55,2.376,1.276,2.376,2.113A1.077,1.077,0,0,1,424.33,25.5m.484,3.608A14.51,14.51,0,0,0,428.4,33.03a16.248,16.248,0,0,0,3.125-3.917Z" fill="#3a4348"/>
      <path id="パス_20" data-name="パス 20" d="M450.156,22.094V20.312a16.315,16.315,0,0,0-.088-1.892c2.53.242,2.794.462,2.794.682s-.242.418-.748.572v2.42h1.672a20.024,20.024,0,0,0,1.078-1.716,10.036,10.036,0,0,0,.726-1.672c1.761.66,2.465,1.056,2.465,1.386,0,.286-.242.374-.99.4a12.038,12.038,0,0,1-2.442,1.606h3.454c.9-.967,1.078-1.1,1.254-1.1.22,0,.4.133,1.5,1.078.507.44.638.595.638.77,0,.374-.2.463-.88.463a.719.719,0,0,0-.594.176,9.352,9.352,0,0,1-2.09,1.342c-.088.044-.242-.044-.2-.154a15.629,15.629,0,0,0,.572-2.068H444.127c.088,1.76-.7,2.882-1.76,2.882a1.1,1.1,0,0,1-1.144-1.145,1.058,1.058,0,0,1,.7-1.033,2.344,2.344,0,0,0,1.716-2.245c.022-.11.2-.132.22-.022a6.973,6.973,0,0,1,.22,1.056h2.882c-.374-.088-.572-.374-.814-1.21a4.194,4.194,0,0,0-.946-1.87.13.13,0,0,1,.132-.2c2.134.506,2.927,1.1,2.927,2.09,0,.66-.221,1.078-.793,1.188ZM448.9,37.5a17.6,17.6,0,0,1-6.886,1.54c-.111,0-.2-.264-.088-.286a17.123,17.123,0,0,0,4.312-1.936A5.328,5.328,0,0,0,447.6,35.67c2.178,1.079,2.376,1.188,2.376,1.475,0,.264-.11.308-1.079.352m-2.354-2.2c-.066.528-.506.727-1.144.727-.682,0-.924-.2-.924-.77,0-.661.088-1.409.088-4.115,0-1.211-.022-2.443-.066-3.675a20.61,20.61,0,0,1,2.376,1.056h8.89c.682-.748.858-.88,1.034-.88.22,0,.44.132,1.276.748.4.308.528.44.528.616,0,.2-.132.331-.66.683v.88c0,2.354.088,3.96.088,4.488,0,.616-.418.9-1.144.9-.682,0-.9-.155-.925-.661Zm1.32-8.317c-.066.462-.418.66-1.078.66-.594,0-.88-.22-.88-.616,0-.11.022-.462.022-.748V23.019a11.977,11.977,0,0,1,2.112,1.012h6.228c.726-.837.9-.968,1.078-.968.219,0,.418.131,1.188.77.352.286.484.44.484.616s-.154.33-.616.616v.308c0,.814.022,1.3.022,1.474,0,.484-.374.77-1.1.77-.617,0-.859-.154-.859-.638Zm8.1,2.046h-9.417v1.54h9.417Zm-9.417,3.565h9.417V31.072h-9.417Zm0,2.2h9.417V33.1h-9.417Zm7.921-10.253h-6.6v1.937h6.6Zm3.741,14.654a2.042,2.042,0,0,1-1.386-.638A11.661,11.661,0,0,0,452.84,36.2c-.11-.044-.088-.219.022-.219,4.313.153,6.425.879,6.425,2.288,0,.66-.484.924-1.078.924" fill="#3a4348"/>
    </g>
  </g>
  <g id="グループ_4" data-name="グループ 4" transform="translate(0 0)">
    <g id="グループ_3" data-name="グループ 3" clip-path="url(#clip-path-2)">
      <rect id="長方形_2" data-name="長方形 2" width="222.541" height="57.497" transform="translate(12.575 47.944) rotate(-13.985)" fill="url(#linear-gradient)"/>
    </g>
  </g>
  <g id="グループ_6" data-name="グループ 6" transform="translate(0 0)">
    <g id="グループ_5" data-name="グループ 5" clip-path="url(#clip-path-3)">
      <rect id="長方形_3" data-name="長方形 3" width="9.086" height="8.84" transform="matrix(0.97, -0.242, 0.242, 0.97, 4.372, 49.508)" fill="url(#linear-gradient-2)"/>
    </g>
  </g>
  <g id="グループ_8" data-name="グループ 8" transform="translate(0 0)">
    <g id="グループ_7" data-name="グループ 7" clip-path="url(#clip-path-4)">
      <rect id="長方形_4" data-name="長方形 4" width="9.086" height="8.84" transform="translate(4.372 42.012) rotate(-13.985)" fill="url(#linear-gradient-3)"/>
    </g>
  </g>
  <g id="グループ_10" data-name="グループ 10" transform="translate(0 0)">
    <g id="グループ_9" data-name="グループ 9" clip-path="url(#clip-path-5)">
      <rect id="長方形_5" data-name="長方形 5" width="10.727" height="6.235" transform="translate(-0.918 47.374) rotate(-13.985)" fill="url(#linear-gradient-4)"/>
    </g>
  </g>
  <g id="グループ_12" data-name="グループ 12" transform="translate(0 0)">
    <g id="グループ_11" data-name="グループ 11" clip-path="url(#clip-path-6)">
      <rect id="長方形_6" data-name="長方形 6" width="221.572" height="57.255" transform="translate(246.283 47.944) rotate(-13.985)" fill="url(#linear-gradient-5)"/>
    </g>
  </g>
  <g id="グループ_14" data-name="グループ 14" transform="translate(0 0)">
    <g id="グループ_13" data-name="グループ 13" clip-path="url(#clip-path-7)">
      <rect id="長方形_7" data-name="長方形 7" width="9.083" height="8.839" transform="matrix(0.97, -0.242, 0.242, 0.97, 472.376, 42.012)" fill="url(#linear-gradient-6)"/>
    </g>
  </g>
  <g id="グループ_16" data-name="グループ 16" transform="translate(0 0)">
    <g id="グループ_15" data-name="グループ 15" clip-path="url(#clip-path-8)">
      <rect id="長方形_8" data-name="長方形 8" width="9.083" height="8.839" transform="translate(472.376 49.508) rotate(-13.985)" fill="url(#linear-gradient-7)"/>
    </g>
  </g>
  <g id="グループ_18" data-name="グループ 18" transform="translate(0 0)">
    <g id="グループ_17" data-name="グループ 17" clip-path="url(#clip-path-9)">
      <rect id="長方形_9" data-name="長方形 9" width="10.73" height="6.236" transform="matrix(0.97, -0.242, 0.242, 0.97, 476.698, 47.071)" fill="url(#linear-gradient-8)"/>
    </g>
  </g>
  <g id="グループ_20" data-name="グループ 20" transform="translate(0 0)">
    <g id="グループ_19" data-name="グループ 19" clip-path="url(#clip-path-10)">
      <rect id="長方形_10" data-name="長方形 10" width="4.997" height="6.88" transform="matrix(0.97, -0.242, 0.242, 0.97, 239.226, 46.217)" fill="url(#linear-gradient-9)"/>
    </g>
  </g>
  <g id="グループ_22" data-name="グループ 22" transform="translate(0 0)">
    <g id="グループ_21" data-name="グループ 21" clip-path="url(#clip-path-11)">
      <rect id="長方形_11" data-name="長方形 11" width="4.996" height="6.88" transform="translate(242.834 46.217) rotate(-13.985)" fill="url(#linear-gradient-10)"/>
    </g>
  </g>
  <g id="グループ_24" data-name="グループ 24" transform="translate(0 0)">
    <g id="グループ_23" data-name="グループ 23" clip-path="url(#clip-path-12)">
      <rect id="長方形_12" data-name="長方形 12" width="222.541" height="57.497" transform="translate(12.575 6.355) rotate(-13.985)" fill="url(#linear-gradient-11)"/>
    </g>
  </g>
  <g id="グループ_26" data-name="グループ 26" transform="translate(0 0)">
    <g id="グループ_25" data-name="グループ 25" clip-path="url(#clip-path-13)">
      <rect id="長方形_13" data-name="長方形 13" width="9.086" height="8.841" transform="translate(4.372 7.918) rotate(-13.985)" fill="url(#linear-gradient-12)"/>
    </g>
  </g>
  <g id="グループ_28" data-name="グループ 28" transform="translate(0 0)">
    <g id="グループ_27" data-name="グループ 27" clip-path="url(#clip-path-14)">
      <rect id="長方形_14" data-name="長方形 14" width="9.086" height="8.841" transform="matrix(0.97, -0.242, 0.242, 0.97, 4.372, 0.422)" fill="url(#linear-gradient-13)"/>
    </g>
  </g>
  <g id="グループ_30" data-name="グループ 30" transform="translate(0 0)">
    <g id="グループ_29" data-name="グループ 29" clip-path="url(#clip-path-15)">
      <rect id="長方形_15" data-name="長方形 15" width="10.727" height="6.235" transform="translate(-0.918 5.784) rotate(-13.985)" fill="url(#linear-gradient-14)"/>
    </g>
  </g>
  <g id="グループ_32" data-name="グループ 32" transform="translate(0 0)">
    <g id="グループ_31" data-name="グループ 31" clip-path="url(#clip-path-16)">
      <rect id="長方形_16" data-name="長方形 16" width="221.572" height="57.255" transform="translate(246.283 6.355) rotate(-13.985)" fill="url(#linear-gradient-15)"/>
    </g>
  </g>
  <g id="グループ_34" data-name="グループ 34" transform="translate(0 0)">
    <g id="グループ_33" data-name="グループ 33" clip-path="url(#clip-path-17)">
      <rect id="長方形_17" data-name="長方形 17" width="9.083" height="8.84" transform="translate(472.376 0.422) rotate(-13.985)" fill="url(#linear-gradient-16)"/>
    </g>
  </g>
  <g id="グループ_36" data-name="グループ 36" transform="translate(0 0)">
    <g id="グループ_35" data-name="グループ 35" clip-path="url(#clip-path-18)">
      <rect id="長方形_18" data-name="長方形 18" width="9.083" height="8.84" transform="translate(472.376 7.918) rotate(-13.985)" fill="url(#linear-gradient-17)"/>
    </g>
  </g>
  <g id="グループ_38" data-name="グループ 38" transform="translate(0 0)">
    <g id="グループ_37" data-name="グループ 37" clip-path="url(#clip-path-19)">
      <rect id="長方形_19" data-name="長方形 19" width="10.73" height="6.237" transform="matrix(0.97, -0.242, 0.242, 0.97, 476.698, 5.481)" fill="url(#linear-gradient-18)"/>
    </g>
  </g>
  <g id="グループ_40" data-name="グループ 40" transform="translate(0 0)">
    <g id="グループ_39" data-name="グループ 39" clip-path="url(#clip-path-20)">
      <rect id="長方形_20" data-name="長方形 20" width="4.997" height="6.879" transform="matrix(0.97, -0.242, 0.242, 0.97, 239.226, 4.627)" fill="url(#linear-gradient-19)"/>
    </g>
  </g>
  <g id="グループ_42" data-name="グループ 42" transform="translate(0 0)">
    <g id="グループ_41" data-name="グループ 41" clip-path="url(#clip-path-21)">
      <rect id="長方形_21" data-name="長方形 21" width="4.995" height="6.879" transform="translate(242.834 4.627) rotate(-13.985)" fill="url(#linear-gradient-20)"/>
    </g>
  </g>
</svg>
