<svg id="_2_2_award_1" data-name="2_2_award_1" xmlns="http://www.w3.org/2000/svg" xmlns:xlink="http://www.w3.org/1999/xlink" width="487.699" height="56.312" viewBox="0 0 487.699 56.312">
  <defs>
    <clipPath id="clip-path">
      <rect id="長方形_64" data-name="長方形 64" width="487.699" height="56.312" transform="translate(0 0)" fill="none"/>
    </clipPath>
    <clipPath id="clip-path-2">
      <path id="パス_137" data-name="パス 137" d="M13.109,50.088l228.772-1.14L13.109,47.811Z" fill="none"/>
    </clipPath>
    <linearGradient id="linear-gradient" x1="-0.073" y1="0.628" x2="-0.068" y2="0.628" gradientUnits="objectBoundingBox">
      <stop offset="0" stop-color="#e5a834"/>
      <stop offset="0.121" stop-color="#f4cb61"/>
      <stop offset="0.21" stop-color="#ffe27f"/>
      <stop offset="0.446" stop-color="#8c4d19"/>
      <stop offset="0.667" stop-color="#e28d39"/>
      <stop offset="1" stop-color="#e5a834"/>
    </linearGradient>
    <clipPath id="clip-path-3">
      <path id="パス_138" data-name="パス 138" d="M6.067,56.312s7.564-1.879,7.036-7.226a9.111,9.111,0,0,0-7.036,7.226" fill="none"/>
    </clipPath>
    <linearGradient id="linear-gradient-2" x1="-0.584" y1="0.909" x2="-0.474" y2="0.909" xlink:href="#linear-gradient"/>
    <clipPath id="clip-path-4">
      <path id="パス_139" data-name="パス 139" d="M13.1,48.816c.528-5.343-7.036-7.226-7.036-7.226A9.1,9.1,0,0,0,13.1,48.816" fill="none"/>
    </clipPath>
    <linearGradient id="linear-gradient-3" x1="-0.584" y1="1.757" x2="-0.474" y2="1.757" xlink:href="#linear-gradient"/>
    <clipPath id="clip-path-5">
      <path id="パス_140" data-name="パス 140" d="M0,49.1A8.657,8.657,0,0,0,5.041,51.06,8.655,8.655,0,0,0,10.08,49.1a8.653,8.653,0,0,0-5.039-1.958A8.655,8.655,0,0,0,0,49.1" fill="none"/>
    </clipPath>
    <linearGradient id="linear-gradient-4" x1="0.03" y1="1.656" x2="0.123" y2="1.656" xlink:href="#linear-gradient"/>
    <clipPath id="clip-path-6">
      <path id="パス_141" data-name="パス 141" d="M246.817,48.948l227.773,1.14V47.811Z" fill="none"/>
    </clipPath>
    <linearGradient id="linear-gradient-5" x1="-1.128" y1="0.629" x2="-1.123" y2="0.629" xlink:href="#linear-gradient"/>
    <clipPath id="clip-path-7">
      <path id="パス_142" data-name="パス 142" d="M474.6,48.816a9.1,9.1,0,0,0,7.033-7.226s-7.561,1.883-7.033,7.226" fill="none"/>
    </clipPath>
    <linearGradient id="linear-gradient-6" x1="-52.108" y1="1.757" x2="-51.998" y2="1.757" xlink:href="#linear-gradient"/>
    <clipPath id="clip-path-8">
      <path id="パス_143" data-name="パス 143" d="M481.632,56.312a9.111,9.111,0,0,0-7.033-7.226c-.528,5.347,7.033,7.226,7.033,7.226" fill="none"/>
    </clipPath>
    <linearGradient id="linear-gradient-7" x1="-52.109" y1="0.909" x2="-51.998" y2="0.909" xlink:href="#linear-gradient"/>
    <clipPath id="clip-path-9">
      <path id="パス_144" data-name="パス 144" d="M477.616,48.8a7.475,7.475,0,0,0,10.083,0,7.467,7.467,0,0,0-10.083,0" fill="none"/>
    </clipPath>
    <linearGradient id="linear-gradient-8" x1="-44.481" y1="1.705" x2="-44.388" y2="1.705" xlink:href="#linear-gradient"/>
    <clipPath id="clip-path-10">
      <path id="パス_145" data-name="パス 145" d="M240.989,48.685l-.311.263.311.268,3.3,2.831-2.538-3.1,2.538-3.1Z" fill="none"/>
    </clipPath>
    <linearGradient id="linear-gradient-9" x1="-48.021" y1="1.57" x2="-47.821" y2="1.57" xlink:href="#linear-gradient"/>
    <clipPath id="clip-path-11">
      <path id="パス_146" data-name="パス 146" d="M246.823,48.952l-2.537,3.1,3.3-2.831.307-.268-.307-.263-3.3-2.83Z" fill="none"/>
    </clipPath>
    <linearGradient id="linear-gradient-10" x1="-48.762" y1="1.57" x2="-48.562" y2="1.57" xlink:href="#linear-gradient"/>
    <clipPath id="clip-path-12">
      <path id="パス_147" data-name="パス 147" d="M13.109,8.5l228.772-1.14L13.109,6.222Z" fill="none"/>
    </clipPath>
    <linearGradient id="linear-gradient-11" x1="-0.073" y1="1.351" x2="-0.068" y2="1.351" xlink:href="#linear-gradient"/>
    <clipPath id="clip-path-13">
      <path id="パス_148" data-name="パス 148" d="M6.067,14.723S13.631,12.844,13.1,7.5a9.113,9.113,0,0,0-7.036,7.227" fill="none"/>
    </clipPath>
    <linearGradient id="linear-gradient-12" x1="-0.584" y1="5.613" x2="-0.474" y2="5.613" xlink:href="#linear-gradient"/>
    <clipPath id="clip-path-14">
      <path id="パス_149" data-name="パス 149" d="M13.1,7.227C13.631,1.883,6.067,0,6.067,0A9.1,9.1,0,0,0,13.1,7.227" fill="none"/>
    </clipPath>
    <linearGradient id="linear-gradient-13" x1="-0.584" y1="6.461" x2="-0.474" y2="6.461" xlink:href="#linear-gradient"/>
    <clipPath id="clip-path-15">
      <path id="パス_150" data-name="パス 150" d="M0,7.514A8.659,8.659,0,0,0,5.041,9.47,8.657,8.657,0,0,0,10.08,7.514,8.651,8.651,0,0,0,5.041,5.555,8.653,8.653,0,0,0,0,7.514" fill="none"/>
    </clipPath>
    <linearGradient id="linear-gradient-14" x1="0.03" y1="8.327" x2="0.123" y2="8.327" xlink:href="#linear-gradient"/>
    <clipPath id="clip-path-16">
      <path id="パス_151" data-name="パス 151" d="M246.817,7.359,474.59,8.5V6.222Z" fill="none"/>
    </clipPath>
    <linearGradient id="linear-gradient-15" x1="-1.128" y1="1.355" x2="-1.123" y2="1.355" xlink:href="#linear-gradient"/>
    <clipPath id="clip-path-17">
      <path id="パス_152" data-name="パス 152" d="M474.6,7.227A9.1,9.1,0,0,0,481.632,0s-7.561,1.883-7.033,7.227" fill="none"/>
    </clipPath>
    <linearGradient id="linear-gradient-16" x1="-52.107" y1="6.461" x2="-51.997" y2="6.461" xlink:href="#linear-gradient"/>
    <clipPath id="clip-path-18">
      <path id="パス_153" data-name="パス 153" d="M481.632,14.723A9.113,9.113,0,0,0,474.6,7.5c-.528,5.348,7.033,7.227,7.033,7.227" fill="none"/>
    </clipPath>
    <linearGradient id="linear-gradient-17" x1="-52.107" y1="5.613" x2="-51.997" y2="5.613" xlink:href="#linear-gradient"/>
    <clipPath id="clip-path-19">
      <path id="パス_154" data-name="パス 154" d="M477.616,7.212a7.475,7.475,0,0,0,10.083,0,7.464,7.464,0,0,0-10.083,0" fill="none"/>
    </clipPath>
    <linearGradient id="linear-gradient-18" x1="-44.48" y1="8.373" x2="-44.387" y2="8.373" xlink:href="#linear-gradient"/>
    <clipPath id="clip-path-20">
      <path id="パス_155" data-name="パス 155" d="M240.989,7.1l-.311.263.311.267,3.3,2.831-2.538-3.094,2.538-3.1Z" fill="none"/>
    </clipPath>
    <linearGradient id="linear-gradient-19" x1="-48.023" y1="7.616" x2="-47.823" y2="7.616" xlink:href="#linear-gradient"/>
    <clipPath id="clip-path-21">
      <path id="パス_156" data-name="パス 156" d="M246.823,7.363l-2.537,3.094,3.3-2.831.307-.267-.307-.263-3.3-2.83Z" fill="none"/>
    </clipPath>
    <linearGradient id="linear-gradient-20" x1="-48.764" y1="7.616" x2="-48.564" y2="7.616" xlink:href="#linear-gradient"/>
  </defs>
  <g id="グループ_129" data-name="グループ 129" transform="translate(0 0)">
    <g id="グループ_128" data-name="グループ 128" clip-path="url(#clip-path)">
      <path id="パス_117" data-name="パス 117" d="M32.671,34.372c1.848,0,2.288-.132,2.729-.528a5.588,5.588,0,0,0,1.209-1.694c.088-.154.155-.176.353-.11s.242.132.22.286c-.264,1.122-.815,3.08-1.189,4.224-1.5-.044-2.662-.044-4.246-.044-1.606,0-2.905,0-4.357.044-.22,0-.286-.022-.286-.374a.989.989,0,0,1,.132-.616,37.9,37.9,0,0,1,3.851-5.632c1.87-2.4,2.926-3.565,2.926-5.612,0-1.826-.638-3.146-1.892-3.146A1.814,1.814,0,0,0,30.3,22.446a4.846,4.846,0,0,0-.2,1.607c0,.616-.837,1.034-1.651,1.034-.616,0-1.056-.176-1.056-.837,0-1.408,1.782-3.74,4.731-3.74,2.97,0,4.554,1.76,4.554,3.9,0,2.816-2.024,3.872-4.246,5.941-2.443,2.222-2.992,2.9-3.653,4.026Z" fill="#2c3438"/>
      <path id="パス_118" data-name="パス 118" d="M49.948,28.695c0,5.061-1.826,8.251-4.885,8.251-3.167,0-4.929-3.036-4.929-8.119,0-5.149,1.8-8.317,4.929-8.317,3.059,0,4.885,3.168,4.885,8.185m-7.239.066c0,4.577.463,7.5,2.354,7.5,1.827,0,2.312-2.926,2.312-7.5,0-4.6-.441-7.569-2.312-7.569-1.891,0-2.354,2.97-2.354,7.569" fill="#2c3438"/>
      <path id="パス_119" data-name="パス 119" d="M53.333,23.018c-.22.066-.308.044-.374-.242-.066-.242-.066-.308.2-.4,1.276-.462,3.213-1.277,4.687-1.981.154,0,.352.111.352.265-.022,1.76-.088,3.08-.088,4.862v6.888c0,2.178.022,2.463.242,2.926s.946.484,1.87.572c.154.022.2.088.2.33,0,.264-.044.308-.2.308-1.012-.044-2.222-.066-3.257-.066-1.144,0-2.31.022-3.344.066-.176,0-.22-.044-.22-.308,0-.242.066-.308.22-.33.924-.066,1.651-.088,1.87-.572a8.676,8.676,0,0,0,.22-2.926V24.536a3.733,3.733,0,0,0-.22-1.694c-.154-.242-.615-.264-1.3-.066Z" fill="#2c3438"/>
      <path id="パス_120" data-name="パス 120" d="M73.053,32.436c0,2.487-1.8,4.511-4.885,4.511-2.992,0-4.906-2-4.906-4.335,0-1.848,1.32-3.037,3.41-4.048-2.178-1.078-2.97-2.311-2.97-4.269,0-1.936,1.87-3.784,4.488-3.784,2.575,0,4.4,1.54,4.4,3.52,0,1.672-.924,2.552-2.882,3.5,2.464,1.21,3.344,2.6,3.344,4.906m-7.459.2c0,2.2,1.034,3.631,2.618,3.631,1.651,0,2.685-1.387,2.685-3.521,0-1.584-.9-2.53-3.587-3.829-1.452.859-1.716,2.113-1.716,3.719m4.841-8.581c0-1.738-.968-2.86-2.245-2.86-1.43,0-2.376,1.1-2.376,2.75,0,1.21.506,1.98,3.257,3.235a3.312,3.312,0,0,0,1.364-3.125" fill="#2c3438"/>
      <path id="パス_121" data-name="パス 121" d="M91.8,31.93c1.21-1.453,1.474-1.628,1.628-1.628.2,0,.44.175,1.606,1.122.528.44.7.637.7.792s-.066.219-.286.219H87.8c.022,2.355.066,4.489.066,5.435,0,.661-.44.947-1.32.947-.638,0-.968-.2-.968-.77s.088-2.267.088-5.612H77.918a12.036,12.036,0,0,0-1.628.133l-.243-.814a9.548,9.548,0,0,0,1.805.176h1.936V28.915c0-1.1-.022-2.2-.088-3.3a14.351,14.351,0,0,1,2.31,1.056h3.653V22.622H81.592a14.8,14.8,0,0,1-4.95,4.819c-.089.066-.308-.11-.221-.2a19.279,19.279,0,0,0,3.807-6.293,11.974,11.974,0,0,0,.7-2.53c2.332.682,2.926.946,2.926,1.32,0,.242-.264.4-.946.484-.33.682-.66,1.3-1.012,1.892h9.33c1.144-1.342,1.408-1.518,1.562-1.518.2,0,.44.176,1.562,1.056.506.418.682.594.682.748s-.066.22-.286.22H87.775v4.049h2.6c1.122-1.277,1.3-1.408,1.474-1.408.219,0,.418.131,1.5.968.506.4.638.55.638.726,0,.154-.088.22-.33.22H87.775v.792c0,1.276,0,2.64.022,3.961Zm-6.139-4.753H81.856v4.752h3.807Z" fill="#2c3438"/>
      <path id="パス_122" data-name="パス 122" d="M105.331,24.757v-.485a13.833,13.833,0,0,0-.088-1.848c2.332.22,2.574.286,2.574.55,0,.176-.132.287-.528.506v1.277h3.85v-.726c0-.683-.022-.947-.066-1.651,2,.2,2.553.33,2.553.638,0,.176-.11.287-.55.528v1.211h1.452c.9-1.122,1.166-1.3,1.32-1.3.2,0,.44.177,1.386.9.418.352.594.527.594.682s-.066.22-.285.22h-4.467c.022,1.782.066,3.014.066,3.454,0,.55-.352.814-1.166.814-.661,0-.837-.2-.837-.858v-.11h-3.85v.22c0,.594-.33.858-1.166.858-.617,0-.836-.242-.836-.792,0-.374.044-1.5.044-3.586h-3.1a34.035,34.035,0,0,1-.748,7.019A16.636,16.636,0,0,1,98.4,38.575c-.065.087-.286-.044-.242-.154a27.814,27.814,0,0,0,1.651-7.283c.176-1.827.264-3.873.264-6.315,0-1.739-.066-3.169-.2-4.753a16,16,0,0,1,2.508,1.166h5.457V19.872a8.94,8.94,0,0,0-.132-1.3c2.662.264,2.926.506,2.926.748s-.264.44-.748.616v1.3h4.8c1.012-1.188,1.276-1.364,1.43-1.364.2,0,.462.176,1.5.946.484.374.661.55.661.7s-.067.22-.287.22H102.25v1.849c0,.4,0,.792-.022,1.166Zm6.82,6.028c.9-.9,1.079-1.034,1.255-1.034.22,0,.4.132,1.3.969.418.374.55.549.55.726,0,.352-.308.462-1.122.66a16.97,16.97,0,0,1-2.949,3.058,27.19,27.19,0,0,0,7.371,1.452c.111,0,.067.22-.044.242-.792.242-1.078.572-1.408,1.607-.088.263-.2.352-.418.352a7.774,7.774,0,0,1-1.364-.264A18.644,18.644,0,0,1,110,36.418c-.11-.066-.22-.154-.33-.22a21.917,21.917,0,0,1-9.043,2.6c-.11.022-.2-.33-.088-.352a23.988,23.988,0,0,0,7.745-3.323,12.859,12.859,0,0,1-2.751-3.829h-1.319a5.051,5.051,0,0,0-1.3.177l-.242-.859a6.962,6.962,0,0,0,1.541.176Zm-6.094.506a11.267,11.267,0,0,0,3.278,3.015,16.731,16.731,0,0,0,2.816-3.015Zm5.082-6.028h-3.851v2.794h3.851Z" fill="#2c3438"/>
      <path id="パス_123" data-name="パス 123" d="M153.093,27.617h-4.422a18.214,18.214,0,0,0-2.025.132l-.242-.814a15.446,15.446,0,0,0,2.289.176h4.4V22.028a27.917,27.917,0,0,0-.132-3.146c2.9.264,3.191.528,3.191.77,0,.22-.265.418-.814.594v6.865h3.5c1.21-1.474,1.474-1.65,1.628-1.65.2,0,.44.176,1.629,1.144.549.44.726.638.726.792s-.066.22-.287.22h-7.194v9.527h4.972c1.276-1.606,1.54-1.782,1.7-1.782.2,0,.44.176,1.715,1.232.6.484.771.682.771.836s-.066.22-.286.22H146.91a19.457,19.457,0,0,0-2.112.133l-.242-.814a15.9,15.9,0,0,0,2.332.175h6.205Z" fill="#2c3438"/>
      <path id="パス_124" data-name="パス 124" d="M178.248,24.735a13.725,13.725,0,0,0,3.234,5.1,16.315,16.315,0,0,0,6.337,3.763c.11.044.11.154,0,.2-.858.286-1.188.66-1.628,1.738-.132.308-.22.418-.4.418a2.869,2.869,0,0,1-1.012-.528,15.361,15.361,0,0,1-4.489-4.752,26.033,26.033,0,0,1-2.376-5.259c.154,7.041.242,11.728.242,12.564,0,.616-.484.88-1.342.88-.7,0-1.012-.22-1.012-.726,0-1.189.175-6.051.22-10.518a20.508,20.508,0,0,1-8.934,8.339c-.11.045-.242-.154-.154-.22a26.638,26.638,0,0,0,8.054-11h-5.039a15.835,15.835,0,0,0-1.893.132l-.242-.814a12.722,12.722,0,0,0,2.091.176h5.985V21.7a25.648,25.648,0,0,0-.132-3.058c2.266.176,2.948.308,2.948.66,0,.2-.176.374-.682.638v4.291h5.127c1.078-1.365,1.342-1.54,1.5-1.54.2,0,.44.175,1.584,1.078.506.418.682.594.682.748s-.066.22-.286.22Z" fill="#2c3438"/>
      <path id="パス_125" data-name="パス 125" d="M202.642,23.392a27.361,27.361,0,0,0,1.409-2.552,17.715,17.715,0,0,0,.792-2c1.98.9,2.618,1.277,2.618,1.563,0,.264-.264.418-1.012.418a21.073,21.073,0,0,1-3.037,2.574h3.411c.9-.968,1.078-1.1,1.254-1.1.22,0,.374.132,1.386,1.144.44.462.572.638.572.814,0,.352-.11.419-.946.484-.352.022-.374.022-.528.176a11.675,11.675,0,0,1-2.068,1.365c-.088.043-.242-.066-.2-.177a12.4,12.4,0,0,0,.7-2.2H193.005c.154,1.871-.528,3.037-1.716,3.037a1.1,1.1,0,0,1-1.145-1.166,1.069,1.069,0,0,1,.682-1.057,2.477,2.477,0,0,0,1.651-2.4c.022-.11.2-.132.22-.022a7.685,7.685,0,0,1,.242,1.1Zm-3.916,7.283a13.411,13.411,0,0,0-.067-1.65c.771.132,1.343.22,1.761.286a14.041,14.041,0,0,0,2.244-2.53h-7.2a4.741,4.741,0,0,0-1.254.176l-.242-.859a5.964,5.964,0,0,0,1.43.177h7.3c.9-.814,1.078-.947,1.255-.947.219,0,.4.133,1.254.9.374.33.505.483.505.66,0,.308-.241.418-1.078.44a21.353,21.353,0,0,1-3.5,2.134c.418.11.418.2.418.352,0,.22-.2.374-.77.638v.682h5.369c1.122-1.386,1.386-1.562,1.54-1.562.2,0,.44.176,1.606,1.078.528.44.7.616.7.77s-.066.22-.286.22h-8.933v2.333c.022,1.21.066,1.782.066,2.618a2.346,2.346,0,0,1-.4,1.43,2.555,2.555,0,0,1-2.223.814c-.417,0-.461-.087-.549-.572-.111-.792-.748-1.166-2.509-1.606-.11-.022-.088-.308.022-.308,1.21.088,2.354.154,3.147.154.264,0,.374-.088.374-.33V31.643h-6.953a8.582,8.582,0,0,0-1.387.132l-.242-.814a7.029,7.029,0,0,0,1.541.176h7.041Zm-3.169-7.547c-.594,0-.814-.286-1.056-1.386a5.03,5.03,0,0,0-1.188-2.31.144.144,0,0,1,.132-.22c2.332.66,3.3,1.474,3.3,2.64a1.2,1.2,0,0,1-1.188,1.276m4.621-.374c-.638,0-.792-.22-1.012-1.408a5.094,5.094,0,0,0-1.189-2.443c-.066-.087,0-.241.111-.2,2.31.77,3.322,1.628,3.322,2.838a1.173,1.173,0,0,1-1.232,1.21" fill="#2c3438"/>
      <path id="パス_126" data-name="パス 126" d="M212.436,29.2c-.11.044-.242-.176-.154-.242a22.68,22.68,0,0,0,7.041-7.151,16.887,16.887,0,0,0,1.54-3.344c3.1.836,3.125.858,3.125,1.122,0,.2-.176.308-.968.528a15.927,15.927,0,0,0,5.039,4.665,16.13,16.13,0,0,0,5.17,1.782c.11.022.11.286,0,.286-.7.066-1.188.616-1.518,1.8-.088.308-.2.418-.374.418a3.214,3.214,0,0,1-1.034-.44,19.678,19.678,0,0,1-3.125-2.2,18.815,18.815,0,0,1-4.444-5.9c-2.112,3.9-5.479,6.711-10.3,8.669m9.572,2a25.447,25.447,0,0,1-3.477,4.884c2.75-.022,5.5-.132,8.251-.286a9.075,9.075,0,0,0-2.156-2.838c-.088-.066.022-.264.132-.22,3.168,1.166,5.039,2.794,5.039,4.313a1.36,1.36,0,0,1-1.21,1.5c-.639,0-.77-.155-1.32-1.584-.089-.22-.155-.419-.242-.616A77.3,77.3,0,0,1,215.693,38.2c-.154.66-.264.836-.528.836-.352,0-.352,0-1.166-3.059a26.021,26.021,0,0,0,2.838.11h.814A25.413,25.413,0,0,0,219.1,31.2h-3.85a10.634,10.634,0,0,0-1.54.132l-.243-.815a9.353,9.353,0,0,0,1.783.177h13.025c1.057-1.321,1.321-1.5,1.475-1.5.2,0,.44.176,1.5,1.034.484.4.66.595.66.748s-.066.221-.286.221Zm1.518-4.247c.968-1.21,1.232-1.386,1.386-1.386.2,0,.418.176,1.364.968.418.352.594.55.594.7s-.066.22-.285.22h-7.592a7.612,7.612,0,0,0-1.3.132l-.242-.814a7.39,7.39,0,0,0,1.584.176Z" fill="#2c3438"/>
      <path id="パス_127" data-name="パス 127" d="M245.35,25.922c2.244-.176,3.036-.219,4.159-.352a3.872,3.872,0,0,0,.835-.242,2.34,2.34,0,0,1,.814-.2,4.39,4.39,0,0,1,2.091.594.962.962,0,0,1,.484.858.62.62,0,0,1-.506.661,6.691,6.691,0,0,1-1.342-.088A22.494,22.494,0,0,0,249.156,27c-.748,0-1.98,0-2.97.066.7.485,1.012.925,1.012,1.233a.665.665,0,0,1-.11.352,4.013,4.013,0,0,0-.44.99,14.542,14.542,0,0,1-2.4,4.334,13.48,13.48,0,0,1-4.489,3.719.959.959,0,0,1-.374.132c-.154,0-.22-.066-.22-.22,0-.11.176-.264.55-.594a18.436,18.436,0,0,0,3.234-4.049,16.779,16.779,0,0,0,1.629-3.894,6.848,6.848,0,0,0,.2-1.166,1.025,1.025,0,0,0-.242-.748c-1.563.153-3.191.351-4.2.549a2.734,2.734,0,0,0-1.034.374,1.013,1.013,0,0,1-.66.2c-.4,0-.792-.22-1.474-.991a1.96,1.96,0,0,1-.573-1.209c0-.331.11-.529.243-.529.11,0,.2.132.33.242a2.335,2.335,0,0,0,1.5.7c.528,0,1.3-.066,1.936-.132,1.5-.154,2.772-.285,4.753-.44m1.408-4.664a2.329,2.329,0,0,0,.66-.243,2.787,2.787,0,0,1,.836-.241,4,4,0,0,1,1.893.44.73.73,0,0,1,.352.659.741.741,0,0,1-.815.771c-.484.022-1.056.022-1.76.088-1.342.11-3.63.286-4.863.4-.418.044-.836.088-1.144.088a1.882,1.882,0,0,1-1.76-.792,1.557,1.557,0,0,1-.506-1.166c0-.2.044-.33.154-.33.066,0,.132.087.286.2a2.356,2.356,0,0,0,1.76.682,22.529,22.529,0,0,0,2.377-.175c.968-.11,1.826-.221,2.53-.374m6.227-.682a1.646,1.646,0,0,1,.814,1.32.739.739,0,0,1-.726.77.788.788,0,0,1-.748-.506,8.262,8.262,0,0,0-1.386-1.936c-.088-.088-.242-.2-.242-.287,0-.131.109-.153.264-.153a1.944,1.944,0,0,1,.506.087,4.033,4.033,0,0,1,1.518.7m2.024-1.519a1.339,1.339,0,0,1,.792,1.123.738.738,0,0,1-.682.814.842.842,0,0,1-.814-.484,5.587,5.587,0,0,0-1.54-1.717c-.088-.066-.264-.176-.264-.264a.174.174,0,0,1,.176-.176,3.038,3.038,0,0,1,.572.066,5.137,5.137,0,0,1,1.76.638" fill="#2c3438"/>
      <path id="パス_128" data-name="パス 128" d="M273.164,25.527a1.72,1.72,0,0,1,.836-.221,4.5,4.5,0,0,1,1.98.639.913.913,0,0,1,.44.748.64.64,0,0,1-.682.66,6.6,6.6,0,0,1-1.122-.154,13.854,13.854,0,0,0-2.245-.2h-1.32a13.012,13.012,0,0,1-1.474,6.293,9.833,9.833,0,0,1-6.359,4.268,4.542,4.542,0,0,1-.682.111c-.2,0-.286-.045-.286-.177a.175.175,0,0,1,.132-.176,10.513,10.513,0,0,0,5.7-4.862,12.855,12.855,0,0,0,1.166-5.435c-1.276.044-2.487.154-4.092.352-.022,1.21,0,2.42-.022,3.631-.022.989-.551,1.253-.881,1.253-.659,0-1.012-.286-1.012-1.1,0-.792.11-2.046.132-3.608a15.257,15.257,0,0,0-1.518.308,3.351,3.351,0,0,0-.946.4,1.3,1.3,0,0,1-.792.286,2.064,2.064,0,0,1-1.475-.858,1.93,1.93,0,0,1-.681-1.43c0-.243.066-.374.2-.374.066,0,.154.087.309.2a2.777,2.777,0,0,0,1.606.681c.33,0,.9-.021,1.518-.087.7-.088,1.056-.154,1.8-.243V24.162c0-.462-.022-.726-.22-.924a3.037,3.037,0,0,0-1.166-.594c-.154-.044-.22-.088-.22-.176s.132-.22.264-.308a1.42,1.42,0,0,1,.9-.22,4.69,4.69,0,0,1,1.936.572c.529.286.7.572.7.814a1.025,1.025,0,0,1-.2.616,2.224,2.224,0,0,0-.177.815c-.022.374-.044.857-.044,1.518,1.651-.177,2.641-.265,4.115-.374V23.5a5.436,5.436,0,0,0-.132-1.826.941.941,0,0,0-.55-.484,7.441,7.441,0,0,0-.748-.242c-.2-.044-.242-.088-.242-.176s.088-.22.33-.4a1.3,1.3,0,0,1,.792-.22,5.7,5.7,0,0,1,1.76.33c.748.242,1.1.682,1.1,1.034a1.054,1.054,0,0,1-.241.638,1.14,1.14,0,0,0-.2.638c-.044,1.188-.066,2.112-.088,3.037.44-.022.836-.044,1.254-.088a1.973,1.973,0,0,0,.837-.22m1.716-3.939a1.648,1.648,0,0,1,.814,1.32.739.739,0,0,1-.726.77.788.788,0,0,1-.748-.506,8.263,8.263,0,0,0-1.386-1.936c-.088-.088-.242-.2-.242-.286,0-.132.109-.154.264-.154a1.935,1.935,0,0,1,.506.088,4.032,4.032,0,0,1,1.518.7m2.046-1.518a1.339,1.339,0,0,1,.792,1.122.737.737,0,0,1-.682.814.842.842,0,0,1-.814-.484,5.583,5.583,0,0,0-1.54-1.716c-.088-.066-.264-.176-.264-.264a.174.174,0,0,1,.176-.176,2.957,2.957,0,0,1,.572.066,5.137,5.137,0,0,1,1.76.638" fill="#2c3438"/>
      <path id="パス_129" data-name="パス 129" d="M279.088,32.678c-.242.132-.374.242-.484.242-.176,0-.264-.11-.264-.286,0-.11.132-.22.374-.4a49.218,49.218,0,0,0,7.041-6.755,23.882,23.882,0,0,0,2.641-3.476,1.883,1.883,0,0,0,.352-.925c0-.2-.286-.484-.726-.748-.221-.132-.4-.176-.4-.308,0-.176.374-.506.923-.506a5.078,5.078,0,0,1,2.333.88,1.786,1.786,0,0,1,.946,1.211c0,.352-.22.616-.726.792a.864.864,0,0,0-.462.308c-1.232,1.342-2.288,2.508-3.1,3.366.837.594,1.408,1.056,1.408,1.5a.793.793,0,0,1-.087.417,2.854,2.854,0,0,0-.066.749v3.168c0,1.65.044,3.3.044,4.973a.881.881,0,0,1-.836.99,1.136,1.136,0,0,1-.991-.462,2.411,2.411,0,0,1-.462-1.43,1.449,1.449,0,0,1,.11-.507,8.639,8.639,0,0,0,.22-2.068c0-1.606.022-3.74.022-5.082a3.731,3.731,0,0,0-.154-1.431,31.17,31.17,0,0,1-7.657,5.787" fill="#2c3438"/>
      <path id="パス_130" data-name="パス 130" d="M298.262,23.172c0-.11.087-.176.22-.176a3.668,3.668,0,0,1,.418.022,7.864,7.864,0,0,1,2.794.88,2.615,2.615,0,0,1,1.518,2.2,1.168,1.168,0,0,1-1.188,1.232,1.145,1.145,0,0,1-1.078-.814,7.635,7.635,0,0,0-.924-1.584,5.749,5.749,0,0,0-1.607-1.541.249.249,0,0,1-.153-.22m3.212,9.99a42.242,42.242,0,0,0,6.1-4.313,46.76,46.76,0,0,0,5.171-5.369.475.475,0,0,1,.286-.2.192.192,0,0,1,.22.2.76.76,0,0,1-.132.374,28.855,28.855,0,0,1-4.577,6.162,49.885,49.885,0,0,1-5.875,5.148,3.491,3.491,0,0,0-.572.528,1.13,1.13,0,0,1-.88.528c-.462,0-.748-.2-1.342-.836-.946-1.012-1.232-1.584-1.232-2.046s.153-.836.352-.836c.11,0,.176.088.352.286.484.506.792.814,1.012.814a2.74,2.74,0,0,0,1.122-.44" fill="#2c3438"/>
      <path id="パス_131" data-name="パス 131" d="M326.081,22.094V20.312a16.323,16.323,0,0,0-.088-1.892c2.53.242,2.794.462,2.794.682s-.242.418-.748.572v2.42h1.672a20.016,20.016,0,0,0,1.078-1.716,10.039,10.039,0,0,0,.726-1.672c1.761.66,2.465,1.056,2.465,1.386,0,.286-.242.374-.99.4a12.039,12.039,0,0,1-2.442,1.606H334c.9-.968,1.078-1.1,1.254-1.1.22,0,.4.132,1.5,1.078.507.44.638.595.638.77,0,.374-.2.463-.88.463a.719.719,0,0,0-.594.176,9.352,9.352,0,0,1-2.09,1.342c-.088.044-.242-.044-.2-.154A15.628,15.628,0,0,0,334.2,22.6H320.052c.088,1.76-.7,2.882-1.76,2.882a1.1,1.1,0,0,1-1.144-1.144,1.059,1.059,0,0,1,.7-1.034,2.344,2.344,0,0,0,1.716-2.245c.022-.11.2-.132.22-.022a6.969,6.969,0,0,1,.22,1.056h2.882c-.374-.088-.572-.374-.814-1.21a4.193,4.193,0,0,0-.946-1.87.13.13,0,0,1,.132-.2c2.134.506,2.927,1.1,2.927,2.09,0,.66-.221,1.078-.793,1.188Zm-1.255,15.4a17.6,17.6,0,0,1-6.886,1.54c-.111,0-.2-.264-.088-.286a17.123,17.123,0,0,0,4.312-1.936,5.328,5.328,0,0,0,1.365-1.145c2.178,1.079,2.376,1.188,2.376,1.475,0,.264-.11.308-1.079.352m-2.354-2.2c-.066.528-.506.727-1.144.727-.682,0-.924-.2-.924-.771,0-.66.088-1.408.088-4.114,0-1.21-.022-2.443-.066-3.675A20.446,20.446,0,0,1,322.8,28.52h8.89c.682-.749.858-.881,1.034-.881.22,0,.44.132,1.276.748.4.308.528.44.528.616,0,.2-.132.331-.66.683v.88c0,2.354.088,3.96.088,4.488,0,.616-.418.9-1.144.9-.682,0-.9-.154-.925-.66Zm1.32-8.317c-.066.462-.418.66-1.078.66-.594,0-.88-.22-.88-.616,0-.11.022-.462.022-.748V23.019a11.977,11.977,0,0,1,2.112,1.012H330.2c.726-.837.9-.968,1.078-.968.219,0,.418.131,1.188.77.352.286.484.44.484.616s-.154.33-.616.616v.308c0,.814.022,1.3.022,1.474,0,.484-.374.77-1.1.77-.617,0-.859-.154-.859-.638Zm8.1,2.046h-9.417v1.54h9.417Zm-9.417,3.565h9.417V31.072h-9.417Zm0,2.2h9.417V33.1h-9.417Zm7.921-10.253h-6.6v1.937h6.6Zm3.741,14.654a2.042,2.042,0,0,1-1.386-.638,11.677,11.677,0,0,0-3.983-2.355c-.11-.044-.088-.219.022-.219,4.313.153,6.425.879,6.425,2.288,0,.66-.484.924-1.078.924" fill="#2c3438"/>
      <path id="パス_132" data-name="パス 132" d="M354.79,21.808c0,4.687.089,7.943.089,9.022,0,.638-.44.924-1.233.924-.659,0-.923-.22-.923-.748,0-.55.044-1.849.066-4.159a15.656,15.656,0,0,1-2.685,2.2c-.066.572-.177.792-.419.792-.22,0-.4-.418-1.056-2.6a14.3,14.3,0,0,0,1.716-.33c.771-.2,1.608-.462,2.444-.726.021-1.012.021-2.178.021-3.52a36.263,36.263,0,0,0-.132-3.829c2.464.308,2.728.4,2.728.682,0,.2-.2.352-.616.506Zm4.446,11.354a7.894,7.894,0,0,0,3.652,2.332,20.689,20.689,0,0,0,6.073.9c.109,0,.109.219,0,.263a2.691,2.691,0,0,0-1.518,1.981.307.307,0,0,1-.309.242,4.751,4.751,0,0,1-1.1-.22,18.455,18.455,0,0,1-3.675-1.5,9.026,9.026,0,0,1-3.475-3.741,7.108,7.108,0,0,1-2.268,3.036,14.209,14.209,0,0,1-7.745,2.487c-.109,0-.176-.308-.065-.33a13.555,13.555,0,0,0,5.566-2.377,6.982,6.982,0,0,0,2.332-3.08h-5.566a15.779,15.779,0,0,0-1.892.132L349,32.48a12.664,12.664,0,0,0,2.068.176h5.808a7.189,7.189,0,0,0,.266-2.2c2.881.4,2.926.4,2.926.77,0,.264-.22.44-.792.594-.044.286-.112.572-.177.836h6.006c1.013-1.188,1.278-1.364,1.431-1.364.2,0,.44.176,1.452.968.44.352.616.528.616.682s-.065.22-.285.22Zm-8.1-8.4c-.6,0-.681-.154-.836-1.43a5.671,5.671,0,0,0-.9-2.443c-.067-.088.065-.242.153-.2,1.783.88,2.641,1.8,2.641,2.86a1.113,1.113,0,0,1-1.056,1.211m14.126,2.926c0,.858.022,1.672.022,2.266a1.935,1.935,0,0,1-.308,1.123c-.331.55-.991.77-2.047.77-.4,0-.44-.044-.483-.572-.111-.683-.484-.991-1.607-1.254-.109-.022-.109-.33,0-.33.814.065,1.563.065,2.09.065.331,0,.4-.065.4-.374v-2.6H356.66a6.741,6.741,0,0,0-1.232.132l-.242-.814a6.486,6.486,0,0,0,1.474.176h6.667V25.9a6.921,6.921,0,0,0-.065-.968c-.309.2-.66.4-.947.55-.087.044-.307-.066-.242-.154a17.235,17.235,0,0,0,2.113-2.8,16.258,16.258,0,0,0,.836-1.628c1.8.836,2.332,1.144,2.332,1.452,0,.2-.242.4-.88.331a29.163,29.163,0,0,1-2.772,1.98c1.849.22,2.177.308,2.177.616,0,.2-.2.33-.615.506v.484h.55c.7-1.056.969-1.232,1.122-1.232.2,0,.44.176,1.276.88.353.286.529.484.529.638s-.067.22-.287.22h-3.19Zm.881-7.305a36.108,36.108,0,0,1-10.5,1.188c-.109,0-.175-.264-.044-.308a32.739,32.739,0,0,0,7.24-1.694,12.49,12.49,0,0,0,2.354-1.122c1.32.924,2.025,1.54,2.025,1.738,0,.22-.243.33-1.078.2m-8.6,4.995c-.551,0-.749-.308-.838-1.166a4.146,4.146,0,0,0-.66-1.936c-.066-.088.045-.177.154-.133,1.518.507,2.355,1.255,2.355,2.113a1.027,1.027,0,0,1-1.011,1.122m2.221,4.973c-.44,0-.527-.089-1.056-1.145a4.041,4.041,0,0,0-1.431-1.628c-.087-.066-.065-.22.044-.22,2.2.154,3.39.836,3.39,1.892a.973.973,0,0,1-.947,1.1m1.342-5.3c-.506,0-.747-.22-.88-.9a4.092,4.092,0,0,0-.858-2.179c-.065-.088.044-.2.154-.154,1.738.594,2.531,1.277,2.531,2.2a.963.963,0,0,1-.947,1.034" fill="#2c3438"/>
      <path id="パス_133" data-name="パス 133" d="M375.432,24.426a38.8,38.8,0,0,1-.792,7.5,15.679,15.679,0,0,1-2.9,6.293c-.066.088-.265-.044-.221-.154a22.55,22.55,0,0,0,1.541-6.271,82.415,82.415,0,0,0,.352-8.625,38.066,38.066,0,0,0-.154-4.136,14.4,14.4,0,0,1,2.442,1.341h5.039c.968-1.078,1.144-1.21,1.32-1.21.22,0,.418.132,1.32.836.418.33.55.485.55.661,0,.154-.088.22-.33.22h-8.119v.682c0,.836,0,1.606-.022,2.354h4.928c.793-1.034,1.057-1.21,1.211-1.21.2,0,.44.176,1.276.858.352.286.528.484.528.638s-.066.22-.286.22h-4c-.044,1.056-.088,2.112-.177,3.169h1.893c.66-.881.836-1.013,1.012-1.013.22,0,.4.132,1.144.77.33.309.462.463.462.639,0,.153-.11.219-.572.594a37.75,37.75,0,0,1-.946,7.481,3.232,3.232,0,0,1-1.056,1.716,1.927,1.927,0,0,1-1.144.418c-.815,0-.837-.022-.881-.594-.109-.726-.55-1.1-1.694-1.474-.11-.044-.066-.286.044-.264a21.984,21.984,0,0,0,2.289.2c.527,0,.682-.308.923-1.694A47.851,47.851,0,0,0,381,28.1h-2.113c-.549,4.862-2.09,7.943-5.1,10.363-.088.066-.286-.11-.22-.2,2.508-3.168,3.52-7.019,3.586-13.84Zm12.366.55a28.6,28.6,0,0,1-.99,6.909,12,12,0,0,1-5.3,6.865c-.088.044-.264-.176-.176-.242,3.036-2.97,4.246-6.293,4.511-13.532h-.353a7.4,7.4,0,0,0-1.584.176l-.242-.88a7.639,7.639,0,0,0,1.739.2h.461c.022-1.034.044-2.156.044-3.345a18.778,18.778,0,0,0-.109-2.354c2.53.352,2.816.418,2.816.748,0,.242-.176.4-.66.617-.022,1.628-.066,3.058-.132,4.334h1.628c.748-.88.924-1.012,1.1-1.012.22,0,.4.132,1.167.814.33.286.461.462.461.638,0,.154-.066.22-.616.638-.22,7.129-.374,8.889-.924,10.782a3.349,3.349,0,0,1-1.078,1.826,2.265,2.265,0,0,1-1.5.484c-.44,0-.506-.066-.572-.506-.132-.814-.419-1.034-2.09-1.584-.111-.044-.089-.352.022-.33a23.746,23.746,0,0,0,2.442.2c.594,0,.682-.11.946-1.1.462-1.826.616-3.7.792-10.342Z" fill="#2c3438"/>
      <path id="パス_134" data-name="パス 134" d="M404.093,22.094V20.312a16.316,16.316,0,0,0-.088-1.892c2.53.242,2.794.462,2.794.682s-.242.418-.748.572v2.42h1.672a20.009,20.009,0,0,0,1.078-1.716,10.036,10.036,0,0,0,.726-1.672c1.761.66,2.465,1.056,2.465,1.386,0,.286-.242.374-.99.4a12.038,12.038,0,0,1-2.442,1.606h3.454c.9-.968,1.078-1.1,1.254-1.1.22,0,.4.132,1.5,1.078.507.44.638.595.638.77,0,.374-.2.463-.88.463a.719.719,0,0,0-.594.176,9.352,9.352,0,0,1-2.09,1.342c-.088.044-.242-.044-.2-.154a15.634,15.634,0,0,0,.572-2.068H398.064c.088,1.76-.7,2.882-1.76,2.882a1.1,1.1,0,0,1-1.144-1.144,1.059,1.059,0,0,1,.7-1.034,2.344,2.344,0,0,0,1.716-2.245c.022-.11.2-.132.22-.022a6.966,6.966,0,0,1,.22,1.056H400.9c-.374-.088-.572-.374-.814-1.21a4.194,4.194,0,0,0-.946-1.87.13.13,0,0,1,.132-.2c2.134.506,2.927,1.1,2.927,2.09,0,.66-.221,1.078-.793,1.188Zm-1.255,15.4a17.6,17.6,0,0,1-6.886,1.54c-.111,0-.2-.264-.088-.286a17.122,17.122,0,0,0,4.312-1.936,5.328,5.328,0,0,0,1.365-1.145c2.178,1.079,2.376,1.188,2.376,1.475,0,.264-.11.308-1.079.352m-2.354-2.2c-.066.528-.506.727-1.144.727-.682,0-.924-.2-.924-.771,0-.66.088-1.408.088-4.114,0-1.21-.022-2.443-.066-3.675a20.446,20.446,0,0,1,2.376,1.057h8.89c.682-.749.858-.881,1.034-.881.22,0,.44.132,1.276.748.4.308.528.44.528.616,0,.2-.132.331-.66.683v.88c0,2.354.088,3.96.088,4.488,0,.616-.418.9-1.144.9-.682,0-.9-.154-.925-.66Zm1.32-8.317c-.066.462-.418.66-1.078.66-.594,0-.88-.22-.88-.616,0-.11.022-.462.022-.748V23.019a11.978,11.978,0,0,1,2.112,1.012h6.228c.726-.837.9-.968,1.078-.968.219,0,.418.131,1.188.77.352.286.484.44.484.616s-.154.33-.616.616v.308c0,.814.022,1.3.022,1.474,0,.484-.374.77-1.1.77-.617,0-.859-.154-.859-.638Zm8.1,2.046h-9.417v1.54H409.9Zm-9.417,3.565H409.9V31.072h-9.417Zm0,2.2H409.9V33.1h-9.417ZM408.4,24.537h-6.6v1.937h6.6Zm3.741,14.654a2.042,2.042,0,0,1-1.386-.638,11.677,11.677,0,0,0-3.983-2.355c-.11-.044-.088-.219.022-.219,4.313.153,6.425.879,6.425,2.288,0,.66-.484.924-1.078.924" fill="#2c3438"/>
      <path id="パス_135" data-name="パス 135" d="M430.117,25.571a19.137,19.137,0,0,0,1.3-2.4,16.176,16.176,0,0,0,.7-1.87c1.958.7,2.574,1.034,2.574,1.342,0,.264-.154.33-.968.4a15.994,15.994,0,0,1-2.9,2.531h3.433c.857-.991,1.034-1.123,1.21-1.123.22,0,.4.132,1.474,1.079.484.44.616.594.616.77,0,.4-.2.484-1.056.528-.374.044-.4.066-1.056.55a18.846,18.846,0,0,1-1.739,1.232.115.115,0,0,1-.176-.132,12.349,12.349,0,0,0,.88-2.4H420.259c.066,1.606-.528,3.036-1.8,3.036a1.109,1.109,0,0,1-1.144-1.188c0-.506.2-.77.836-1.056a2.477,2.477,0,0,0,1.562-2.421c0-.109.242-.132.264-.022a6.974,6.974,0,0,1,.242,1.145Zm-.946,8.6a21.982,21.982,0,0,0,8.141,1.98c.11,0,.11.2,0,.242a2.072,2.072,0,0,0-1.5,1.628c-.154.506-.221.594-.418.594a6.926,6.926,0,0,1-1.739-.44,27.558,27.558,0,0,1-4.972-2.31c-.4-.264-.77-.528-1.122-.814a23.356,23.356,0,0,1-9.638,3.433c-.11.022-.22-.287-.11-.331a26.724,26.724,0,0,0,8.471-4.246,15.108,15.108,0,0,1-3.058-4.8H422.7a11.286,11.286,0,0,0-1.959.176l-.241-.858a15.433,15.433,0,0,0,2.288.176h7.569c.858-.88,1.034-1.012,1.21-1.012.22,0,.374.132,1.342,1.012.44.418.572.594.572.77,0,.33-.2.462-1.034.7a17.02,17.02,0,0,1-3.543,3.961ZM419.2,22.16c-.11,0-.154-.33-.044-.33a49.33,49.33,0,0,0,11-2,14.928,14.928,0,0,0,2.794-1.233c1.892,1.166,2.355,1.519,2.355,1.849,0,.286-.352.374-1.321.2a46.16,46.16,0,0,1-7.789,1.364c1.584.616,2.354,1.32,2.354,2.244a1.165,1.165,0,0,1-1.166,1.189c-.528,0-.77-.286-.836-.991a5.093,5.093,0,0,0-.616-2.31c-.022-.044-.044-.066-.044-.11a45.963,45.963,0,0,1-6.689.132M423.23,25.5c-.594,0-.814-.352-.88-1.035a4.31,4.31,0,0,0-.573-2.068c-.065-.088.044-.176.155-.132,1.562.55,2.376,1.276,2.376,2.113A1.077,1.077,0,0,1,423.23,25.5m.484,3.608A14.5,14.5,0,0,0,427.3,33.03a16.248,16.248,0,0,0,3.125-3.917Z" fill="#2c3438"/>
      <path id="パス_136" data-name="パス 136" d="M449.056,22.094V20.312a16.315,16.315,0,0,0-.088-1.892c2.53.242,2.794.462,2.794.682s-.242.418-.748.572v2.42h1.672a19.776,19.776,0,0,0,1.078-1.716,10.036,10.036,0,0,0,.726-1.672c1.761.66,2.465,1.056,2.465,1.386,0,.286-.242.374-.99.4a12.039,12.039,0,0,1-2.442,1.606h3.454c.9-.968,1.078-1.1,1.254-1.1.22,0,.4.132,1.5,1.078.507.44.638.595.638.77,0,.374-.2.463-.88.463a.719.719,0,0,0-.594.176,9.352,9.352,0,0,1-2.09,1.342c-.088.044-.242-.044-.2-.154a15.624,15.624,0,0,0,.572-2.068H443.027c.088,1.76-.7,2.882-1.76,2.882a1.1,1.1,0,0,1-1.144-1.144,1.059,1.059,0,0,1,.7-1.034,2.344,2.344,0,0,0,1.716-2.245c.022-.11.2-.132.22-.022a6.973,6.973,0,0,1,.22,1.056h2.882c-.374-.088-.572-.374-.814-1.21a4.194,4.194,0,0,0-.946-1.87.13.13,0,0,1,.132-.2c2.134.506,2.927,1.1,2.927,2.09,0,.66-.221,1.078-.793,1.188ZM447.8,37.5a17.6,17.6,0,0,1-6.886,1.54c-.11,0-.2-.264-.088-.286a17.123,17.123,0,0,0,4.312-1.936A5.31,5.31,0,0,0,446.5,35.67c2.178,1.079,2.376,1.188,2.376,1.475,0,.264-.11.308-1.079.352m-2.354-2.2c-.066.528-.506.727-1.144.727-.682,0-.924-.2-.924-.771,0-.66.088-1.408.088-4.114,0-1.21-.022-2.443-.066-3.675a20.446,20.446,0,0,1,2.376,1.057h8.89c.682-.749.858-.881,1.034-.881.22,0,.44.132,1.276.748.4.308.528.44.528.616,0,.2-.132.331-.66.683v.88c0,2.354.088,3.96.088,4.488,0,.616-.418.9-1.144.9-.682,0-.9-.154-.925-.66Zm1.32-8.317c-.066.462-.418.66-1.078.66-.594,0-.88-.22-.88-.616,0-.11.022-.462.022-.748V23.019a11.977,11.977,0,0,1,2.112,1.012h6.228c.726-.837.9-.968,1.078-.968.219,0,.418.131,1.188.77.352.286.484.44.484.616s-.154.33-.616.616v.308c0,.814.022,1.3.022,1.474,0,.484-.374.77-1.1.77-.617,0-.859-.154-.859-.638Zm8.1,2.046h-9.417v1.54h9.417Zm-9.417,3.565h9.417V31.072h-9.417Zm0,2.2h9.417V33.1h-9.417Zm7.921-10.253h-6.6v1.937h6.6Zm3.741,14.654a2.042,2.042,0,0,1-1.386-.638A11.677,11.677,0,0,0,451.74,36.2c-.11-.044-.088-.219.022-.219,4.313.153,6.425.879,6.425,2.288,0,.66-.484.924-1.078.924" fill="#2c3438"/>
    </g>
  </g>
  <g id="グループ_131" data-name="グループ 131" transform="translate(0 0)">
    <g id="グループ_130" data-name="グループ 130" clip-path="url(#clip-path-2)">
      <rect id="長方形_65" data-name="長方形 65" width="222.541" height="57.497" transform="translate(12.575 47.944) rotate(-13.985)" fill="url(#linear-gradient)"/>
    </g>
  </g>
  <g id="グループ_133" data-name="グループ 133" transform="translate(0 0)">
    <g id="グループ_132" data-name="グループ 132" clip-path="url(#clip-path-3)">
      <rect id="長方形_66" data-name="長方形 66" width="9.086" height="8.84" transform="matrix(0.97, -0.242, 0.242, 0.97, 4.372, 49.508)" fill="url(#linear-gradient-2)"/>
    </g>
  </g>
  <g id="グループ_135" data-name="グループ 135" transform="translate(0 0)">
    <g id="グループ_134" data-name="グループ 134" clip-path="url(#clip-path-4)">
      <rect id="長方形_67" data-name="長方形 67" width="9.086" height="8.84" transform="translate(4.372 42.012) rotate(-13.985)" fill="url(#linear-gradient-3)"/>
    </g>
  </g>
  <g id="グループ_137" data-name="グループ 137" transform="translate(0 0)">
    <g id="グループ_136" data-name="グループ 136" clip-path="url(#clip-path-5)">
      <rect id="長方形_68" data-name="長方形 68" width="10.727" height="6.235" transform="translate(-0.918 47.374) rotate(-13.985)" fill="url(#linear-gradient-4)"/>
    </g>
  </g>
  <g id="グループ_139" data-name="グループ 139" transform="translate(0 0)">
    <g id="グループ_138" data-name="グループ 138" clip-path="url(#clip-path-6)">
      <rect id="長方形_69" data-name="長方形 69" width="221.572" height="57.255" transform="translate(246.283 47.944) rotate(-13.985)" fill="url(#linear-gradient-5)"/>
    </g>
  </g>
  <g id="グループ_141" data-name="グループ 141" transform="translate(0 0)">
    <g id="グループ_140" data-name="グループ 140" clip-path="url(#clip-path-7)">
      <rect id="長方形_70" data-name="長方形 70" width="9.083" height="8.839" transform="matrix(0.97, -0.242, 0.242, 0.97, 472.376, 42.012)" fill="url(#linear-gradient-6)"/>
    </g>
  </g>
  <g id="グループ_143" data-name="グループ 143" transform="translate(0 0)">
    <g id="グループ_142" data-name="グループ 142" clip-path="url(#clip-path-8)">
      <rect id="長方形_71" data-name="長方形 71" width="9.083" height="8.839" transform="translate(472.376 49.508) rotate(-13.985)" fill="url(#linear-gradient-7)"/>
    </g>
  </g>
  <g id="グループ_145" data-name="グループ 145" transform="translate(0 0)">
    <g id="グループ_144" data-name="グループ 144" clip-path="url(#clip-path-9)">
      <rect id="長方形_72" data-name="長方形 72" width="10.73" height="6.236" transform="matrix(0.97, -0.242, 0.242, 0.97, 476.698, 47.071)" fill="url(#linear-gradient-8)"/>
    </g>
  </g>
  <g id="グループ_147" data-name="グループ 147" transform="translate(0 0)">
    <g id="グループ_146" data-name="グループ 146" clip-path="url(#clip-path-10)">
      <rect id="長方形_73" data-name="長方形 73" width="4.997" height="6.88" transform="matrix(0.97, -0.242, 0.242, 0.97, 239.226, 46.217)" fill="url(#linear-gradient-9)"/>
    </g>
  </g>
  <g id="グループ_149" data-name="グループ 149" transform="translate(0 0)">
    <g id="グループ_148" data-name="グループ 148" clip-path="url(#clip-path-11)">
      <rect id="長方形_74" data-name="長方形 74" width="4.996" height="6.88" transform="translate(242.834 46.217) rotate(-13.985)" fill="url(#linear-gradient-10)"/>
    </g>
  </g>
  <g id="グループ_151" data-name="グループ 151" transform="translate(0 0)">
    <g id="グループ_150" data-name="グループ 150" clip-path="url(#clip-path-12)">
      <rect id="長方形_75" data-name="長方形 75" width="222.541" height="57.497" transform="translate(12.575 6.355) rotate(-13.985)" fill="url(#linear-gradient-11)"/>
    </g>
  </g>
  <g id="グループ_153" data-name="グループ 153" transform="translate(0 0)">
    <g id="グループ_152" data-name="グループ 152" clip-path="url(#clip-path-13)">
      <rect id="長方形_76" data-name="長方形 76" width="9.086" height="8.841" transform="translate(4.372 7.918) rotate(-13.985)" fill="url(#linear-gradient-12)"/>
    </g>
  </g>
  <g id="グループ_155" data-name="グループ 155" transform="translate(0 0)">
    <g id="グループ_154" data-name="グループ 154" clip-path="url(#clip-path-14)">
      <rect id="長方形_77" data-name="長方形 77" width="9.086" height="8.841" transform="matrix(0.97, -0.242, 0.242, 0.97, 4.372, 0.422)" fill="url(#linear-gradient-13)"/>
    </g>
  </g>
  <g id="グループ_157" data-name="グループ 157" transform="translate(0 0)">
    <g id="グループ_156" data-name="グループ 156" clip-path="url(#clip-path-15)">
      <rect id="長方形_78" data-name="長方形 78" width="10.727" height="6.235" transform="translate(-0.918 5.784) rotate(-13.985)" fill="url(#linear-gradient-14)"/>
    </g>
  </g>
  <g id="グループ_159" data-name="グループ 159" transform="translate(0 0)">
    <g id="グループ_158" data-name="グループ 158" clip-path="url(#clip-path-16)">
      <rect id="長方形_79" data-name="長方形 79" width="221.572" height="57.255" transform="translate(246.283 6.355) rotate(-13.985)" fill="url(#linear-gradient-15)"/>
    </g>
  </g>
  <g id="グループ_161" data-name="グループ 161" transform="translate(0 0)">
    <g id="グループ_160" data-name="グループ 160" clip-path="url(#clip-path-17)">
      <rect id="長方形_80" data-name="長方形 80" width="9.083" height="8.84" transform="translate(472.376 0.422) rotate(-13.985)" fill="url(#linear-gradient-16)"/>
    </g>
  </g>
  <g id="グループ_163" data-name="グループ 163" transform="translate(0 0)">
    <g id="グループ_162" data-name="グループ 162" clip-path="url(#clip-path-18)">
      <rect id="長方形_81" data-name="長方形 81" width="9.083" height="8.84" transform="translate(472.376 7.918) rotate(-13.985)" fill="url(#linear-gradient-17)"/>
    </g>
  </g>
  <g id="グループ_165" data-name="グループ 165" transform="translate(0 0)">
    <g id="グループ_164" data-name="グループ 164" clip-path="url(#clip-path-19)">
      <rect id="長方形_82" data-name="長方形 82" width="10.73" height="6.237" transform="matrix(0.97, -0.242, 0.242, 0.97, 476.698, 5.481)" fill="url(#linear-gradient-18)"/>
    </g>
  </g>
  <g id="グループ_167" data-name="グループ 167" transform="translate(0 0)">
    <g id="グループ_166" data-name="グループ 166" clip-path="url(#clip-path-20)">
      <rect id="長方形_83" data-name="長方形 83" width="4.997" height="6.879" transform="matrix(0.97, -0.242, 0.242, 0.97, 239.226, 4.627)" fill="url(#linear-gradient-19)"/>
    </g>
  </g>
  <g id="グループ_169" data-name="グループ 169" transform="translate(0 0)">
    <g id="グループ_168" data-name="グループ 168" clip-path="url(#clip-path-21)">
      <rect id="長方形_84" data-name="長方形 84" width="4.995" height="6.879" transform="translate(242.834 4.627) rotate(-13.985)" fill="url(#linear-gradient-20)"/>
    </g>
  </g>
</svg>
