<svg id="_2_3_award_1" data-name="2_3_award_1" xmlns="http://www.w3.org/2000/svg" xmlns:xlink="http://www.w3.org/1999/xlink" width="507.699" height="56.312" viewBox="0 0 507.699 56.312">
  <defs>
    <clipPath id="clip-path">
      <rect id="長方形_43" data-name="長方形 43" width="507.699" height="56.312" transform="translate(0 0)" fill="none"/>
    </clipPath>
    <clipPath id="clip-path-2">
      <path id="パス_97" data-name="パス 97" d="M13.109,50.088l238.772-1.14L13.109,47.811Z" fill="none"/>
    </clipPath>
    <linearGradient id="linear-gradient" x1="-0.07" y1="0.623" x2="-0.066" y2="0.623" gradientUnits="objectBoundingBox">
      <stop offset="0" stop-color="#e5a834"/>
      <stop offset="0.121" stop-color="#f4cb61"/>
      <stop offset="0.21" stop-color="#ffe27f"/>
      <stop offset="0.446" stop-color="#8c4d19"/>
      <stop offset="0.667" stop-color="#e28d39"/>
      <stop offset="1" stop-color="#e5a834"/>
    </linearGradient>
    <clipPath id="clip-path-3">
      <path id="パス_98" data-name="パス 98" d="M6.067,56.312s7.564-1.879,7.036-7.226a9.111,9.111,0,0,0-7.036,7.226" fill="none"/>
    </clipPath>
    <linearGradient id="linear-gradient-2" x1="-0.584" y1="0.909" x2="-0.474" y2="0.909" xlink:href="#linear-gradient"/>
    <clipPath id="clip-path-4">
      <path id="パス_99" data-name="パス 99" d="M13.1,48.816c.528-5.343-7.036-7.226-7.036-7.226A9.1,9.1,0,0,0,13.1,48.816" fill="none"/>
    </clipPath>
    <linearGradient id="linear-gradient-3" x1="-0.584" y1="1.757" x2="-0.474" y2="1.757" xlink:href="#linear-gradient"/>
    <clipPath id="clip-path-5">
      <path id="パス_100" data-name="パス 100" d="M0,49.1A8.657,8.657,0,0,0,5.041,51.06,8.655,8.655,0,0,0,10.08,49.1a8.653,8.653,0,0,0-5.039-1.958A8.655,8.655,0,0,0,0,49.1" fill="none"/>
    </clipPath>
    <linearGradient id="linear-gradient-4" x1="0.03" y1="1.656" x2="0.123" y2="1.656" xlink:href="#linear-gradient"/>
    <clipPath id="clip-path-6">
      <path id="パス_101" data-name="パス 101" d="M256.817,48.948l237.773,1.14V47.811Z" fill="none"/>
    </clipPath>
    <linearGradient id="linear-gradient-5" x1="-1.124" y1="0.623" x2="-1.12" y2="0.623" xlink:href="#linear-gradient"/>
    <clipPath id="clip-path-7">
      <path id="パス_102" data-name="パス 102" d="M494.6,48.816a9.1,9.1,0,0,0,7.033-7.226s-7.562,1.883-7.033,7.226" fill="none"/>
    </clipPath>
    <linearGradient id="linear-gradient-6" x1="-54.304" y1="1.757" x2="-54.194" y2="1.757" xlink:href="#linear-gradient"/>
    <clipPath id="clip-path-8">
      <path id="パス_103" data-name="パス 103" d="M501.632,56.312a9.111,9.111,0,0,0-7.033-7.226c-.529,5.347,7.033,7.226,7.033,7.226" fill="none"/>
    </clipPath>
    <linearGradient id="linear-gradient-7" x1="-54.304" y1="0.909" x2="-54.194" y2="0.909" xlink:href="#linear-gradient"/>
    <clipPath id="clip-path-9">
      <path id="パス_104" data-name="パス 104" d="M497.616,48.8a7.475,7.475,0,0,0,10.083,0,7.467,7.467,0,0,0-10.083,0" fill="none"/>
    </clipPath>
    <linearGradient id="linear-gradient-8" x1="-46.345" y1="1.705" x2="-46.252" y2="1.705" xlink:href="#linear-gradient"/>
    <clipPath id="clip-path-10">
      <path id="パス_105" data-name="パス 105" d="M250.989,48.685l-.31.263.31.268,3.3,2.831-2.538-3.1,2.538-3.1Z" fill="none"/>
    </clipPath>
    <linearGradient id="linear-gradient-9" x1="-50.032" y1="1.57" x2="-49.832" y2="1.57" xlink:href="#linear-gradient"/>
    <clipPath id="clip-path-11">
      <path id="パス_106" data-name="パス 106" d="M256.823,48.952l-2.537,3.1,3.3-2.831.308-.268-.308-.263-3.3-2.83Z" fill="none"/>
    </clipPath>
    <linearGradient id="linear-gradient-10" x1="-50.753" y1="1.57" x2="-50.553" y2="1.57" xlink:href="#linear-gradient"/>
    <clipPath id="clip-path-12">
      <path id="パス_107" data-name="パス 107" d="M13.109,8.5l238.772-1.14L13.109,6.222Z" fill="none"/>
    </clipPath>
    <linearGradient id="linear-gradient-11" x1="-0.07" y1="1.317" x2="-0.066" y2="1.317" xlink:href="#linear-gradient"/>
    <clipPath id="clip-path-13">
      <path id="パス_108" data-name="パス 108" d="M6.067,14.723S13.631,12.844,13.1,7.5a9.113,9.113,0,0,0-7.036,7.227" fill="none"/>
    </clipPath>
    <linearGradient id="linear-gradient-12" x1="-0.584" y1="5.613" x2="-0.474" y2="5.613" xlink:href="#linear-gradient"/>
    <clipPath id="clip-path-14">
      <path id="パス_109" data-name="パス 109" d="M13.1,7.227C13.631,1.883,6.067,0,6.067,0A9.1,9.1,0,0,0,13.1,7.227" fill="none"/>
    </clipPath>
    <linearGradient id="linear-gradient-13" x1="-0.584" y1="6.461" x2="-0.474" y2="6.461" xlink:href="#linear-gradient"/>
    <clipPath id="clip-path-15">
      <path id="パス_110" data-name="パス 110" d="M0,7.514A8.659,8.659,0,0,0,5.041,9.47,8.657,8.657,0,0,0,10.08,7.514,8.651,8.651,0,0,0,5.041,5.555,8.653,8.653,0,0,0,0,7.514" fill="none"/>
    </clipPath>
    <linearGradient id="linear-gradient-14" x1="0.03" y1="8.327" x2="0.123" y2="8.327" xlink:href="#linear-gradient"/>
    <clipPath id="clip-path-16">
      <path id="パス_111" data-name="パス 111" d="M256.817,7.359,494.59,8.5V6.222Z" fill="none"/>
    </clipPath>
    <linearGradient id="linear-gradient-15" x1="-1.124" y1="1.32" x2="-1.12" y2="1.32" xlink:href="#linear-gradient"/>
    <clipPath id="clip-path-17">
      <path id="パス_112" data-name="パス 112" d="M494.6,7.227A9.1,9.1,0,0,0,501.632,0S494.07,1.883,494.6,7.227" fill="none"/>
    </clipPath>
    <linearGradient id="linear-gradient-16" x1="-54.303" y1="6.461" x2="-54.193" y2="6.461" xlink:href="#linear-gradient"/>
    <clipPath id="clip-path-18">
      <path id="パス_113" data-name="パス 113" d="M501.632,14.723A9.113,9.113,0,0,0,494.6,7.5c-.529,5.348,7.033,7.227,7.033,7.227" fill="none"/>
    </clipPath>
    <linearGradient id="linear-gradient-17" x1="-54.303" y1="5.613" x2="-54.193" y2="5.613" xlink:href="#linear-gradient"/>
    <clipPath id="clip-path-19">
      <path id="パス_114" data-name="パス 114" d="M497.616,7.212a7.475,7.475,0,0,0,10.083,0,7.464,7.464,0,0,0-10.083,0" fill="none"/>
    </clipPath>
    <linearGradient id="linear-gradient-18" x1="-46.344" y1="8.373" x2="-46.251" y2="8.373" xlink:href="#linear-gradient"/>
    <clipPath id="clip-path-20">
      <path id="パス_115" data-name="パス 115" d="M250.989,7.1l-.31.263.31.267,3.3,2.831-2.538-3.094,2.538-3.1Z" fill="none"/>
    </clipPath>
    <linearGradient id="linear-gradient-19" x1="-50.034" y1="7.616" x2="-49.834" y2="7.616" xlink:href="#linear-gradient"/>
    <clipPath id="clip-path-21">
      <path id="パス_116" data-name="パス 116" d="M256.823,7.363l-2.537,3.094,3.3-2.831.308-.267-.308-.263-3.3-2.83Z" fill="none"/>
    </clipPath>
    <linearGradient id="linear-gradient-20" x1="-50.756" y1="7.616" x2="-50.556" y2="7.616" xlink:href="#linear-gradient"/>
  </defs>
  <g id="グループ_87" data-name="グループ 87" transform="translate(0 0)">
    <g id="グループ_86" data-name="グループ 86" clip-path="url(#clip-path)">
      <path id="パス_76" data-name="パス 76" d="M31.724,34.372c1.848,0,2.288-.132,2.729-.528a5.588,5.588,0,0,0,1.209-1.694c.088-.154.155-.176.353-.11s.242.132.22.286c-.264,1.122-.815,3.08-1.189,4.224-1.5-.044-2.662-.044-4.246-.044-1.606,0-2.9,0-4.357.044-.22,0-.286-.022-.286-.374a.989.989,0,0,1,.132-.616,37.9,37.9,0,0,1,3.851-5.632c1.87-2.4,2.926-3.565,2.926-5.612,0-1.826-.638-3.146-1.892-3.146a1.814,1.814,0,0,0-1.826,1.276,4.846,4.846,0,0,0-.2,1.607c0,.616-.837,1.034-1.651,1.034-.616,0-1.056-.176-1.056-.837,0-1.408,1.782-3.74,4.731-3.74,2.97,0,4.554,1.76,4.554,3.9,0,2.816-2.024,3.872-4.246,5.941-2.443,2.222-2.992,2.9-3.653,4.026Z" fill="#2c3438"/>
      <path id="パス_77" data-name="パス 77" d="M49,28.695c0,5.061-1.826,8.251-4.885,8.251-3.168,0-4.929-3.036-4.929-8.119,0-5.149,1.8-8.317,4.929-8.317,3.059,0,4.885,3.168,4.885,8.185m-7.239.066c0,4.577.462,7.5,2.354,7.5,1.827,0,2.311-2.926,2.311-7.5,0-4.6-.44-7.569-2.311-7.569-1.892,0-2.354,2.97-2.354,7.569" fill="#2c3438"/>
      <path id="パス_78" data-name="パス 78" d="M52.386,23.018c-.22.066-.308.044-.374-.242-.066-.242-.066-.308.2-.4,1.276-.462,3.213-1.277,4.687-1.981.154,0,.352.111.352.265-.022,1.76-.088,3.08-.088,4.862v6.888c0,2.178.022,2.463.242,2.926s.946.484,1.87.572c.154.022.2.088.2.33,0,.264-.044.308-.2.308-1.012-.044-2.222-.066-3.257-.066-1.144,0-2.31.022-3.344.066-.176,0-.22-.044-.22-.308,0-.242.066-.308.22-.33.924-.066,1.651-.088,1.87-.572a8.676,8.676,0,0,0,.22-2.926V24.536a3.733,3.733,0,0,0-.22-1.694c-.154-.242-.615-.264-1.3-.066Z" fill="#2c3438"/>
      <path id="パス_79" data-name="パス 79" d="M69.457,28.739a3.278,3.278,0,0,1-2.9,1.629c-2.574,0-4.313-1.915-4.313-4.731,0-2.9,1.893-5.127,4.841-5.127,3.081,0,4.995,2.531,4.995,6.293,0,4.555-1.87,6.909-4.4,8.6a10.563,10.563,0,0,1-3.564,1.54c-.2,0-.353-.087-.528-.418-.221-.308-.154-.572.109-.593a6.427,6.427,0,0,0,3.037-.793c1.716-1.034,2.6-2.97,2.838-6.4ZM64.814,25.5c0,2.2.726,4.026,2.266,4.026.924,0,1.651-.571,2.266-1.936a2.94,2.94,0,0,0,.2-1.408c0-2.926-.813-4.994-2.464-4.994-1.518,0-2.266,1.914-2.266,4.312" fill="#2c3438"/>
      <path id="パス_80" data-name="パス 80" d="M90.657,31.93c1.21-1.453,1.474-1.628,1.628-1.628.2,0,.44.175,1.606,1.122.528.44.7.637.7.792s-.066.219-.286.219H86.652c.022,2.355.066,4.489.066,5.435,0,.661-.44.947-1.32.947-.638,0-.968-.2-.968-.77s.088-2.267.088-5.612H76.773a12.037,12.037,0,0,0-1.628.133l-.243-.814a9.548,9.548,0,0,0,1.805.176h1.936V28.915c0-1.1-.022-2.2-.088-3.3a14.438,14.438,0,0,1,2.31,1.056h3.653V22.622H80.447a14.8,14.8,0,0,1-4.95,4.819c-.089.066-.308-.11-.221-.2a19.279,19.279,0,0,0,3.807-6.293,11.974,11.974,0,0,0,.7-2.53c2.332.682,2.926.946,2.926,1.32,0,.242-.264.4-.946.484-.33.682-.66,1.3-1.012,1.892h9.33c1.144-1.342,1.408-1.518,1.562-1.518.2,0,.44.176,1.562,1.056.506.418.682.594.682.748s-.066.22-.286.22H86.63v4.049h2.6c1.122-1.277,1.3-1.408,1.474-1.408.219,0,.418.131,1.5.968.506.4.638.55.638.726,0,.154-.088.22-.33.22H86.63v.792c0,1.276,0,2.64.022,3.961Zm-6.139-4.753H80.711v4.752h3.807Z" fill="#2c3438"/>
      <path id="パス_81" data-name="パス 81" d="M104.186,24.757v-.485a13.832,13.832,0,0,0-.088-1.848c2.332.22,2.574.286,2.574.55,0,.176-.132.287-.528.506v1.277h3.85v-.726c0-.682-.022-.947-.066-1.651,2,.2,2.553.33,2.553.638,0,.176-.11.287-.55.528v1.211h1.452c.9-1.122,1.166-1.3,1.32-1.3.2,0,.44.177,1.386.9.418.352.594.528.594.682s-.066.22-.286.22h-4.466c.022,1.782.066,3.014.066,3.454,0,.55-.352.814-1.166.814-.661,0-.837-.2-.837-.858v-.11h-3.85v.22c0,.594-.33.858-1.166.858-.617,0-.836-.242-.836-.792,0-.374.044-1.5.044-3.586h-3.1a34.027,34.027,0,0,1-.748,7.019,16.636,16.636,0,0,1-3.081,6.293c-.065.087-.286-.044-.242-.154a27.815,27.815,0,0,0,1.651-7.283c.176-1.827.264-3.873.264-6.315,0-1.739-.066-3.169-.2-4.753a16,16,0,0,1,2.508,1.166h5.457V19.872a8.954,8.954,0,0,0-.132-1.3c2.662.264,2.926.506,2.926.748s-.264.44-.748.616v1.3h4.8c1.012-1.188,1.276-1.364,1.43-1.364.2,0,.462.176,1.5.946.484.374.661.55.661.7s-.067.22-.287.22H101.105v1.849c0,.4,0,.792-.022,1.166Zm6.82,6.029c.9-.9,1.079-1.035,1.255-1.035.22,0,.4.132,1.3.969.418.374.55.549.55.726,0,.352-.308.462-1.122.66a16.936,16.936,0,0,1-2.949,3.058,27.19,27.19,0,0,0,7.371,1.452c.111,0,.067.22-.044.242-.792.242-1.078.573-1.408,1.607-.088.263-.2.352-.418.352a7.774,7.774,0,0,1-1.364-.264,18.615,18.615,0,0,1-5.325-2.135c-.11-.066-.22-.153-.33-.22a21.917,21.917,0,0,1-9.043,2.6c-.11.022-.2-.33-.088-.352a23.989,23.989,0,0,0,7.745-3.323,12.858,12.858,0,0,1-2.751-3.829h-1.319a5.056,5.056,0,0,0-1.3.177l-.242-.859a6.97,6.97,0,0,0,1.541.177Zm-6.094.505a11.267,11.267,0,0,0,3.278,3.015,16.766,16.766,0,0,0,2.816-3.015Zm5.082-6.028h-3.851v2.794h3.851Z" fill="#2c3438"/>
      <path id="パス_82" data-name="パス 82" d="M151.947,27.617h-4.422a18.214,18.214,0,0,0-2.025.132l-.242-.814a15.446,15.446,0,0,0,2.289.176h4.4V22.028a27.917,27.917,0,0,0-.132-3.146c2.9.264,3.191.528,3.191.77,0,.22-.265.418-.814.594v6.865h3.5c1.21-1.474,1.474-1.65,1.628-1.65.2,0,.44.176,1.629,1.144.549.44.726.638.726.792s-.066.22-.287.22h-7.194v9.527h4.972c1.276-1.606,1.54-1.782,1.695-1.782.2,0,.44.176,1.715,1.232.6.484.771.682.771.836s-.066.22-.286.22H145.764a19.457,19.457,0,0,0-2.112.133l-.242-.814a15.9,15.9,0,0,0,2.332.175h6.205Z" fill="#2c3438"/>
      <path id="パス_83" data-name="パス 83" d="M177.1,24.735a13.725,13.725,0,0,0,3.234,5.1,16.315,16.315,0,0,0,6.337,3.763c.11.044.11.154,0,.2-.858.286-1.188.66-1.628,1.738-.132.308-.22.418-.4.418a2.869,2.869,0,0,1-1.012-.528,15.362,15.362,0,0,1-4.489-4.752,26.033,26.033,0,0,1-2.376-5.259c.154,7.041.242,11.728.242,12.564,0,.616-.484.88-1.342.88-.7,0-1.012-.22-1.012-.726,0-1.189.175-6.051.22-10.518a20.508,20.508,0,0,1-8.934,8.339c-.11.045-.242-.154-.154-.22a26.638,26.638,0,0,0,8.054-11h-5.039a15.835,15.835,0,0,0-1.893.132l-.242-.814a12.722,12.722,0,0,0,2.091.176h5.985V21.7a25.652,25.652,0,0,0-.132-3.058c2.266.176,2.948.308,2.948.66,0,.2-.176.374-.682.638v4.291h5.127c1.078-1.365,1.342-1.54,1.5-1.54.2,0,.44.175,1.584,1.078.506.418.682.594.682.748s-.066.22-.286.22Z" fill="#2c3438"/>
      <path id="パス_84" data-name="パス 84" d="M201.5,23.392A27.364,27.364,0,0,0,202.9,20.84a17.718,17.718,0,0,0,.792-2c1.98.9,2.618,1.277,2.618,1.563,0,.264-.264.418-1.012.418a21.073,21.073,0,0,1-3.037,2.574h3.411c.9-.968,1.078-1.1,1.254-1.1.22,0,.374.132,1.386,1.144.44.462.572.638.572.814,0,.352-.11.419-.946.484-.352.022-.374.022-.528.176a11.675,11.675,0,0,1-2.068,1.365c-.088.043-.242-.066-.2-.177a12.4,12.4,0,0,0,.7-2.2H191.859c.154,1.871-.528,3.037-1.716,3.037A1.1,1.1,0,0,1,189,25.769a1.069,1.069,0,0,1,.682-1.057,2.477,2.477,0,0,0,1.651-2.4c.022-.11.2-.132.22-.022a7.688,7.688,0,0,1,.242,1.1Zm-3.916,7.283a13.411,13.411,0,0,0-.067-1.65c.771.132,1.343.22,1.761.286a14.041,14.041,0,0,0,2.244-2.53h-7.2a4.741,4.741,0,0,0-1.254.176l-.242-.859a5.964,5.964,0,0,0,1.43.177h7.3c.9-.814,1.078-.947,1.255-.947.219,0,.4.133,1.254.9.374.33.505.483.505.66,0,.308-.241.418-1.078.44a21.353,21.353,0,0,1-3.5,2.134c.418.11.418.2.418.352,0,.22-.2.374-.77.638v.682h5.369c1.122-1.386,1.386-1.562,1.54-1.562.2,0,.44.176,1.606,1.078.528.44.7.616.7.77s-.066.22-.286.22h-8.933v2.333c.022,1.21.066,1.782.066,2.618a2.346,2.346,0,0,1-.4,1.43,2.555,2.555,0,0,1-2.223.814c-.417,0-.461-.087-.549-.572-.111-.792-.748-1.166-2.509-1.606-.11-.022-.088-.308.022-.308,1.21.088,2.354.154,3.147.154.264,0,.374-.088.374-.33V31.643h-6.953a8.582,8.582,0,0,0-1.387.132L189,30.961a7.029,7.029,0,0,0,1.541.176h7.041Zm-3.169-7.547c-.594,0-.814-.286-1.056-1.386a5.03,5.03,0,0,0-1.188-2.31.144.144,0,0,1,.132-.22c2.332.66,3.3,1.474,3.3,2.64a1.2,1.2,0,0,1-1.188,1.276m4.621-.374c-.638,0-.792-.22-1.012-1.408a5.094,5.094,0,0,0-1.189-2.443c-.066-.087,0-.241.111-.2,2.31.77,3.322,1.628,3.322,2.838a1.173,1.173,0,0,1-1.232,1.21" fill="#2c3438"/>
      <path id="パス_85" data-name="パス 85" d="M211.291,29.2c-.11.044-.242-.176-.154-.242a22.68,22.68,0,0,0,7.041-7.151,16.887,16.887,0,0,0,1.54-3.344c3.1.836,3.125.858,3.125,1.122,0,.2-.176.308-.968.528a15.927,15.927,0,0,0,5.039,4.665,16.13,16.13,0,0,0,5.17,1.782c.11.022.11.286,0,.286-.7.066-1.188.616-1.518,1.8-.088.308-.2.418-.374.418a3.214,3.214,0,0,1-1.034-.44,19.677,19.677,0,0,1-3.125-2.2,18.814,18.814,0,0,1-4.444-5.9c-2.112,3.9-5.479,6.711-10.3,8.669m9.572,2a25.447,25.447,0,0,1-3.477,4.884c2.75-.022,5.5-.132,8.251-.286a9.075,9.075,0,0,0-2.156-2.838c-.088-.066.022-.264.132-.22,3.168,1.166,5.039,2.794,5.039,4.313a1.36,1.36,0,0,1-1.21,1.5c-.639,0-.77-.155-1.32-1.584-.089-.22-.155-.419-.242-.616A77.3,77.3,0,0,1,214.548,38.2c-.154.66-.264.836-.528.836-.352,0-.352,0-1.166-3.059a26.021,26.021,0,0,0,2.838.11h.814a25.413,25.413,0,0,0,1.452-4.884h-3.85a10.634,10.634,0,0,0-1.54.132l-.243-.815a9.353,9.353,0,0,0,1.783.177h13.025c1.057-1.321,1.321-1.5,1.475-1.5.2,0,.44.176,1.5,1.034.484.4.66.595.66.748s-.066.221-.286.221Zm1.518-4.247c.968-1.21,1.232-1.386,1.386-1.386.2,0,.418.176,1.364.968.418.352.594.55.594.7s-.066.22-.285.22h-7.592a7.612,7.612,0,0,0-1.3.132l-.242-.814a7.39,7.39,0,0,0,1.584.176Z" fill="#2c3438"/>
      <path id="パス_86" data-name="パス 86" d="M244.205,25.922c2.244-.176,3.036-.219,4.159-.352a3.873,3.873,0,0,0,.835-.242,2.34,2.34,0,0,1,.814-.2,4.39,4.39,0,0,1,2.091.594.962.962,0,0,1,.484.858.62.62,0,0,1-.506.661,6.691,6.691,0,0,1-1.342-.088A22.494,22.494,0,0,0,248.011,27c-.748,0-1.98,0-2.97.066.7.485,1.012.925,1.012,1.233a.665.665,0,0,1-.11.352,4.014,4.014,0,0,0-.44.99,14.542,14.542,0,0,1-2.4,4.334,13.48,13.48,0,0,1-4.489,3.719.959.959,0,0,1-.374.132c-.154,0-.22-.066-.22-.22,0-.11.176-.264.55-.594a18.436,18.436,0,0,0,3.234-4.049,16.778,16.778,0,0,0,1.629-3.894,6.848,6.848,0,0,0,.2-1.166,1.025,1.025,0,0,0-.242-.748c-1.563.153-3.191.351-4.2.549a2.734,2.734,0,0,0-1.034.374,1.013,1.013,0,0,1-.66.2c-.4,0-.792-.22-1.474-.991a1.96,1.96,0,0,1-.573-1.209c0-.331.11-.529.243-.529.11,0,.2.132.33.242a2.335,2.335,0,0,0,1.5.7c.528,0,1.3-.066,1.936-.132,1.5-.154,2.772-.285,4.753-.44m1.408-4.664a2.329,2.329,0,0,0,.66-.243,2.787,2.787,0,0,1,.836-.241,4,4,0,0,1,1.893.44.73.73,0,0,1,.352.659.741.741,0,0,1-.815.771c-.484.022-1.056.022-1.76.088-1.342.11-3.63.286-4.863.4-.418.044-.836.088-1.144.088a1.882,1.882,0,0,1-1.76-.792,1.557,1.557,0,0,1-.506-1.166c0-.2.044-.33.154-.33.066,0,.132.087.286.2a2.356,2.356,0,0,0,1.76.682,22.529,22.529,0,0,0,2.377-.175c.968-.11,1.826-.221,2.53-.374m6.227-.682a1.646,1.646,0,0,1,.814,1.32.739.739,0,0,1-.726.77.788.788,0,0,1-.748-.506,8.262,8.262,0,0,0-1.386-1.936c-.088-.088-.242-.2-.242-.287,0-.131.109-.153.264-.153a1.944,1.944,0,0,1,.506.087,4.033,4.033,0,0,1,1.518.7m2.024-1.519a1.339,1.339,0,0,1,.792,1.123.738.738,0,0,1-.682.814.842.842,0,0,1-.814-.484,5.587,5.587,0,0,0-1.54-1.717c-.088-.066-.264-.176-.264-.264a.174.174,0,0,1,.176-.176,3.039,3.039,0,0,1,.572.066,5.137,5.137,0,0,1,1.76.638" fill="#2c3438"/>
      <path id="パス_87" data-name="パス 87" d="M272.018,25.527a1.72,1.72,0,0,1,.836-.221,4.5,4.5,0,0,1,1.98.639.913.913,0,0,1,.44.748.64.64,0,0,1-.682.66,6.6,6.6,0,0,1-1.122-.154,13.854,13.854,0,0,0-2.245-.2H269.9a13.012,13.012,0,0,1-1.474,6.293,9.833,9.833,0,0,1-6.359,4.268,4.542,4.542,0,0,1-.682.111c-.2,0-.286-.045-.286-.177a.175.175,0,0,1,.132-.176,10.513,10.513,0,0,0,5.7-4.862,12.855,12.855,0,0,0,1.166-5.435c-1.276.044-2.487.154-4.092.352-.022,1.21,0,2.42-.022,3.631-.022.989-.551,1.253-.881,1.253-.659,0-1.012-.286-1.012-1.1,0-.792.11-2.046.132-3.608a15.257,15.257,0,0,0-1.518.308,3.35,3.35,0,0,0-.946.4,1.3,1.3,0,0,1-.792.286,2.064,2.064,0,0,1-1.475-.858,1.93,1.93,0,0,1-.681-1.43c0-.243.066-.374.2-.374.066,0,.154.087.309.2a2.777,2.777,0,0,0,1.606.681c.33,0,.9-.021,1.518-.087.7-.088,1.056-.154,1.8-.243V24.162c0-.462-.022-.726-.22-.924a3.037,3.037,0,0,0-1.166-.594c-.154-.044-.22-.088-.22-.176s.132-.22.264-.308a1.42,1.42,0,0,1,.9-.22,4.69,4.69,0,0,1,1.936.572c.529.286.7.572.7.814a1.025,1.025,0,0,1-.2.616,2.223,2.223,0,0,0-.177.815c-.022.374-.044.857-.044,1.518,1.651-.177,2.641-.265,4.115-.374V23.5a5.436,5.436,0,0,0-.132-1.826.942.942,0,0,0-.55-.484,7.441,7.441,0,0,0-.748-.242c-.2-.044-.242-.088-.242-.176s.088-.22.33-.4a1.3,1.3,0,0,1,.792-.22,5.7,5.7,0,0,1,1.76.33c.748.242,1.1.682,1.1,1.034a1.054,1.054,0,0,1-.241.638,1.139,1.139,0,0,0-.2.638c-.044,1.188-.066,2.112-.088,3.037.44-.022.836-.044,1.254-.088a1.973,1.973,0,0,0,.837-.22m1.716-3.939a1.648,1.648,0,0,1,.814,1.32.739.739,0,0,1-.726.77.788.788,0,0,1-.748-.506,8.262,8.262,0,0,0-1.386-1.936c-.088-.088-.242-.2-.242-.286,0-.132.109-.154.264-.154a1.935,1.935,0,0,1,.506.088,4.032,4.032,0,0,1,1.518.7m2.046-1.518a1.339,1.339,0,0,1,.792,1.122.737.737,0,0,1-.682.814.842.842,0,0,1-.814-.484,5.583,5.583,0,0,0-1.54-1.716c-.088-.066-.264-.176-.264-.264a.174.174,0,0,1,.176-.176,2.958,2.958,0,0,1,.572.066,5.137,5.137,0,0,1,1.76.638" fill="#2c3438"/>
      <path id="パス_88" data-name="パス 88" d="M277.943,32.678c-.242.132-.374.242-.484.242-.176,0-.264-.11-.264-.286,0-.11.132-.22.374-.4a49.218,49.218,0,0,0,7.041-6.755,23.883,23.883,0,0,0,2.641-3.476,1.883,1.883,0,0,0,.352-.925c0-.2-.286-.484-.726-.748-.221-.132-.4-.176-.4-.308,0-.176.375-.506.924-.506a5.078,5.078,0,0,1,2.333.88,1.786,1.786,0,0,1,.946,1.211c0,.352-.22.616-.726.792a.864.864,0,0,0-.462.308c-1.232,1.342-2.288,2.508-3.1,3.366.837.594,1.408,1.056,1.408,1.5a.793.793,0,0,1-.087.417,2.854,2.854,0,0,0-.066.749v3.168c0,1.65.044,3.3.044,4.973a.881.881,0,0,1-.836.99,1.136,1.136,0,0,1-.991-.462,2.411,2.411,0,0,1-.462-1.43,1.449,1.449,0,0,1,.11-.507,8.639,8.639,0,0,0,.22-2.068c0-1.606.022-3.74.022-5.082a3.732,3.732,0,0,0-.154-1.431,31.152,31.152,0,0,1-7.657,5.787" fill="#2c3438"/>
      <path id="パス_89" data-name="パス 89" d="M297.116,23.172c0-.11.087-.176.22-.176a3.668,3.668,0,0,1,.418.022,7.864,7.864,0,0,1,2.794.88,2.615,2.615,0,0,1,1.518,2.2,1.168,1.168,0,0,1-1.188,1.232,1.145,1.145,0,0,1-1.078-.814,7.635,7.635,0,0,0-.924-1.584,5.749,5.749,0,0,0-1.607-1.541.249.249,0,0,1-.153-.22m3.212,9.99a42.242,42.242,0,0,0,6.1-4.313,46.76,46.76,0,0,0,5.171-5.369.475.475,0,0,1,.286-.2.192.192,0,0,1,.22.2.76.76,0,0,1-.132.374,28.855,28.855,0,0,1-4.577,6.162,49.885,49.885,0,0,1-5.875,5.148,3.489,3.489,0,0,0-.572.528,1.13,1.13,0,0,1-.88.528c-.462,0-.748-.2-1.342-.836-.946-1.012-1.232-1.584-1.232-2.046s.153-.836.352-.836c.11,0,.176.088.352.286.484.506.792.814,1.012.814a2.74,2.74,0,0,0,1.122-.44" fill="#2c3438"/>
      <path id="パス_90" data-name="パス 90" d="M324.936,22.094V20.312a16.315,16.315,0,0,0-.088-1.892c2.53.242,2.794.462,2.794.682s-.242.418-.748.572v2.42h1.672a20.024,20.024,0,0,0,1.078-1.716,10.036,10.036,0,0,0,.726-1.672c1.761.66,2.465,1.056,2.465,1.386,0,.286-.242.374-.99.4a12.039,12.039,0,0,1-2.442,1.606h3.454c.9-.968,1.078-1.1,1.254-1.1.22,0,.4.132,1.5,1.078.507.44.638.595.638.77,0,.374-.2.463-.88.463a.719.719,0,0,0-.594.176,9.352,9.352,0,0,1-2.09,1.342c-.088.044-.242-.044-.2-.154a15.629,15.629,0,0,0,.572-2.068H318.907c.088,1.76-.7,2.882-1.76,2.882A1.1,1.1,0,0,1,316,24.339a1.059,1.059,0,0,1,.7-1.034,2.344,2.344,0,0,0,1.716-2.245c.022-.11.2-.132.22-.022a6.973,6.973,0,0,1,.22,1.056h2.882c-.374-.088-.572-.374-.814-1.21a4.194,4.194,0,0,0-.946-1.87.13.13,0,0,1,.132-.2c2.134.506,2.927,1.1,2.927,2.09,0,.66-.221,1.078-.793,1.188Zm-1.255,15.4a17.6,17.6,0,0,1-6.886,1.54c-.111,0-.2-.264-.088-.286a17.123,17.123,0,0,0,4.312-1.936,5.328,5.328,0,0,0,1.365-1.145c2.178,1.079,2.376,1.188,2.376,1.475,0,.264-.11.308-1.079.352m-2.354-2.2c-.066.528-.506.727-1.144.727-.682,0-.924-.2-.924-.771,0-.66.088-1.408.088-4.114,0-1.21-.022-2.443-.066-3.675a20.446,20.446,0,0,1,2.376,1.057h8.89c.682-.749.858-.881,1.034-.881.22,0,.44.132,1.276.748.4.308.528.44.528.616,0,.2-.132.331-.66.683v.88c0,2.354.088,3.96.088,4.488,0,.616-.418.9-1.144.9-.682,0-.9-.154-.925-.66Zm1.32-8.317c-.066.462-.418.66-1.078.66-.594,0-.88-.22-.88-.616,0-.11.022-.462.022-.748V23.019a11.977,11.977,0,0,1,2.112,1.012h6.228c.726-.837.9-.968,1.078-.968.219,0,.418.131,1.188.77.352.286.484.44.484.616s-.154.33-.616.616v.308c0,.814.022,1.3.022,1.474,0,.484-.374.77-1.1.77-.617,0-.859-.154-.859-.638Zm8.1,2.046h-9.417v1.54h9.417Zm-9.417,3.565h9.417V31.072h-9.417Zm0,2.2h9.417V33.1h-9.417Zm7.921-10.253h-6.6v1.937h6.6Zm3.741,14.654a2.042,2.042,0,0,1-1.386-.638A11.677,11.677,0,0,0,327.62,36.2c-.11-.044-.088-.219.022-.219,4.313.153,6.425.879,6.425,2.288,0,.66-.484.924-1.078.924" fill="#2c3438"/>
      <path id="パス_91" data-name="パス 91" d="M349.949,27.947h-.484a11.03,11.03,0,0,0-1.562.131l-.243-.813a9.637,9.637,0,0,0,1.8.175H364.3c.924-1.166,1.188-1.342,1.342-1.342.2,0,.462.154,1.452.924.462.352.638.551.638.7s-.066.221-.286.221H357.1v3.586c0,2.442.044,5.479.044,6.491,0,.55-.33.836-1.211.836-.615,0-.814-.264-.814-.66,0-.2.022-.836.022-2.134V35.45a28.624,28.624,0,0,1-5.852,2c-.132.462-.264.66-.462.66-.242,0-.44-.55-.836-2.42.682,0,1.32-.022,1.958-.066Zm2.772-2.421c0,.506-.418.748-1.21.748-.594,0-.836-.176-.836-.66,0-.572.066-1.188.066-3.52,0-1.057-.022-2.113-.066-3.191.99.4,1.21.507,2.2.99h9.373c.749-.792.925-.924,1.1-.924.221,0,.4.132,1.233.792.374.309.506.462.506.638,0,.22-.176.419-.638.66v.727c0,1.914.022,3.256.022,3.674,0,.617-.374.858-1.188.858-.572,0-.858-.176-.858-.66v-.132Zm-.9,4.489h3.322V27.947h-3.322Zm0,2.53h3.322V30.521h-3.322Zm0,2.883c1.122-.132,2.222-.33,3.322-.551V33.051h-3.322ZM362.425,20.4h-9.7v2.046h9.7Zm0,2.553h-9.7V25.02h9.7Zm.946,6.953c.7-.748.88-.88,1.056-.88.22,0,.418.132,1.122.7.352.286.484.418.484.594,0,.264-.066.374-.726.726a12.016,12.016,0,0,1-2.134,3.565,12.786,12.786,0,0,0,4.686,1.562c.111.022.089.22-.022.264-.748.33-.858.836-1.078,1.738-.044.2-.132.308-.308.308a2.631,2.631,0,0,1-.924-.286,13.821,13.821,0,0,1-3.52-2.442,12.274,12.274,0,0,1-4.423,2.4c-.11.022-.242-.176-.154-.242a14.331,14.331,0,0,0,3.7-3.125,15.78,15.78,0,0,1-2.222-4.378,7.276,7.276,0,0,0-1.21.176l-.242-.858a8.713,8.713,0,0,0,1.716.176Zm-3.961.506a9.374,9.374,0,0,0,2.508,3.344,11.454,11.454,0,0,0,1.519-3.344Z" fill="#2c3438"/>
      <path id="パス_92" data-name="パス 92" d="M372.432,27.243a25.925,25.925,0,0,1-2.046,2.42c-.066.088-.33-.132-.264-.22a26.947,26.947,0,0,0,3.212-7.657,24.034,24.034,0,0,0,.573-3.213c1.936.418,2.75.77,2.75,1.123,0,.2-.132.308-.682.462a21.909,21.909,0,0,1-2.421,5.435c1.232.22,1.365.264,1.365.528,0,.176-.133.307-.573.528V38.024c0,.66-.374.924-1.166.924-.682,0-.9-.2-.9-.835,0-.573.154-2.311.154-5.788Zm15.821-.088c.659-.771.836-.9,1.012-.9.22,0,.4.131,1.254.9.374.352.506.506.506.682,0,.374-.242.484-1.012.484a.816.816,0,0,0-.506.176,13.373,13.373,0,0,1-1.232.836c.88.418,1.276.88,1.276,1.5a1.06,1.06,0,0,1-.968,1.122c-.463,0-.572-.153-.793-1.034a3.953,3.953,0,0,0-1.21-1.936.118.118,0,0,1,.11-.2,9.633,9.633,0,0,1,1.277.418,15.763,15.763,0,0,0,.418-1.54H377.1c0,1.672-.77,2.574-1.474,2.574a.859.859,0,0,1-.837-.924c0-.462.155-.726.683-1.056a1.992,1.992,0,0,0,1.166-1.848c0-.11.33-.11.352,0,.044.264.088.506.11.748h.968v-3.7c0-.726-.022-1.474-.088-2.222.968.286,1.1.33,2.046.682h1.519a10.189,10.189,0,0,0,.154-1.628h-2.839a13.852,13.852,0,0,0-1.76.132l-.242-.814a11.982,11.982,0,0,0,2.024.176h8.075c1.1-1.276,1.365-1.452,1.518-1.452.2,0,.418.176,1.409,1.011.418.374.594.573.594.727s-.066.22-.286.22h-6.425a8.782,8.782,0,0,1-1.364,1.628h3.256c.594-.66.77-.792.946-.792.221,0,.418.132,1.078.66.287.22.418.352.418.528,0,.2-.153.352-.571.572v4.269Zm-3.5,8.713a27.626,27.626,0,0,0,6.205.748c.11,0,.088.22-.022.264-.638.22-.836.55-1.122,1.694a.327.327,0,0,1-.286.243,5.475,5.475,0,0,1-1.1-.2,17.757,17.757,0,0,1-4.291-1.386c-.33-.154-.638-.33-.946-.506a18.363,18.363,0,0,1-8.1,2.179c-.11,0-.154-.265-.044-.287a18.436,18.436,0,0,0,6.887-2.772,10.034,10.034,0,0,1-1.826-2.046,12.475,12.475,0,0,1-4.467,2.684c-.111.044-.264-.154-.176-.22a12.877,12.877,0,0,0,3.63-3.609,6.982,6.982,0,0,0,.7-1.408,1.293,1.293,0,0,1-.617-1.3c0-.242.022-.682.022-1.056a5.634,5.634,0,0,0-.066-.858c1.958.22,2.332.308,2.332.616,0,.22-.175.352-.593.462v.572c0,.594.022.594,2.024.594a6.535,6.535,0,0,0,1.694-.11c.528-.176.7-.572,1.122-1.584.044-.11.242-.088.242.022v.726c0,.286.044.374.242.44.462.132.617.308.617.682,0,.528-.374.836-1.343,1.012a17.307,17.307,0,0,1-2.728.154c-.44,0-.836,0-1.188-.022.44.155.506.243.506.4,0,.177-.088.221-.6.33-.109.155-.241.287-.352.419h3.521c.682-.727.858-.859,1.034-.859.22,0,.418.132,1.276.814.4.309.528.463.528.639,0,.286-.132.374-.968.638a15.074,15.074,0,0,1-1.958,1.826ZM378.461,30.1c0,1.078-.484,1.958-1.518,1.958a.9.9,0,0,1-.946-.9c0-.44.22-.7.726-.9.924-.308,1.21-.616,1.3-1.43a.115.115,0,0,1,.22-.022,4.59,4.59,0,0,1,.22,1.3m7.349-7.679h-5.941v1.21h5.941Zm0,1.716h-5.941v1.188h5.941Zm0,1.695h-5.941v1.32h5.941Zm-5.369,7.657a7.846,7.846,0,0,0,2.355,1.694,14.168,14.168,0,0,0,1.87-1.936h-4Zm2.9-3.587c-.264,0-.418-.132-.616-.55a3.749,3.749,0,0,0-1.078-1.32c-.088-.066-.066-.176.044-.176,1.65.066,2.442.462,2.442,1.188a.864.864,0,0,1-.792.858" fill="#2c3438"/>
      <path id="パス_93" data-name="パス 93" d="M404.417,24.383a13.616,13.616,0,0,0,3.873,2.42,20.185,20.185,0,0,0,5.39,1.276.115.115,0,0,1,0,.221c-.594.241-.814.549-1.078,1.342-.2.616-.264.681-.484.681a3.89,3.89,0,0,1-.99-.263,16.694,16.694,0,0,1-7.085-5.281c.044,1.364.088,2.222.088,2.684,0,.572-.4.815-1.21.815-.506,0-.836-.155-.836-.639,0-.506.044-1.3.066-2.222a18.678,18.678,0,0,1-5.127,3.762,8.239,8.239,0,0,0,1.936.177h5.347c.748-.881.924-1.013,1.1-1.013.22,0,.4.132,1.188.858.352.308.485.485.485.661,0,.22-.2.374-.683.572-.109.528-.286,1.232-.462,1.848h2.333c.77-.836.946-.968,1.122-.968.22,0,.418.132,1.188.814.352.33.484.484.484.66,0,.154-.066.286-.572.572a11.37,11.37,0,0,1-1.21,4.027,2.225,2.225,0,0,1-.99.88,3.713,3.713,0,0,1-1.584.286c-.441,0-.573-.066-.6-.33-.11-.88-.462-1.254-2.4-1.76-.11-.022-.11-.33,0-.309a30.776,30.776,0,0,0,3.256.243c.441,0,.682-.155.99-1.078a14.387,14.387,0,0,0,.529-2.531h-2.707c-.066.154-.11.308-.154.44a.9.9,0,0,1-1.012.682c-.748,0-1.166-.2-1.166-.572a1.1,1.1,0,0,1,.088-.418,24.133,24.133,0,0,0,.924-3.058h-2.816c-.506,5.148-2.6,7.393-7.855,8.845-.11.022-.2-.176-.11-.22,4.048-2.156,5.478-4.225,5.764-8.625h-.418a8.626,8.626,0,0,0-1.87.132l-.2-.77a19.739,19.739,0,0,1-3.741,1.32c-.11.022-.2-.2-.11-.242a20.408,20.408,0,0,0,7.393-5.919h-5.28a7.633,7.633,0,0,0-1.3.132l-.241-.814a6.479,6.479,0,0,0,1.474.176h6.975v-2.31a53.113,53.113,0,0,1-6.425.2c-.11,0-.154-.264-.044-.285a57.627,57.627,0,0,0,9.087-1.673,17.358,17.358,0,0,0,3.212-1.21c1.8,1.21,2.091,1.518,2.091,1.782s-.264.4-1.342.2a41.953,41.953,0,0,1-4.621.792v2.509h4.951c1.144-1.32,1.408-1.5,1.562-1.5.2,0,.44.176,1.5,1.034.484.4.66.594.66.748s-.066.22-.286.22Z" fill="#2c3438"/>
      <path id="パス_94" data-name="パス 94" d="M425.04,22.094V20.312a16.315,16.315,0,0,0-.088-1.892c2.53.242,2.794.462,2.794.682s-.242.418-.748.572v2.42h1.672a20.015,20.015,0,0,0,1.078-1.716,10.034,10.034,0,0,0,.726-1.672c1.761.66,2.465,1.056,2.465,1.386,0,.286-.242.374-.99.4a12.038,12.038,0,0,1-2.442,1.606h3.454c.9-.968,1.078-1.1,1.254-1.1.22,0,.4.132,1.5,1.078.507.44.638.595.638.77,0,.374-.2.463-.88.463a.719.719,0,0,0-.594.176,9.352,9.352,0,0,1-2.09,1.342c-.088.044-.242-.044-.2-.154a15.629,15.629,0,0,0,.572-2.068H419.011c.088,1.76-.7,2.882-1.76,2.882a1.1,1.1,0,0,1-1.144-1.144,1.059,1.059,0,0,1,.7-1.034,2.344,2.344,0,0,0,1.716-2.245c.022-.11.2-.132.22-.022a6.973,6.973,0,0,1,.22,1.056h2.882c-.374-.088-.572-.374-.814-1.21a4.194,4.194,0,0,0-.946-1.87.13.13,0,0,1,.132-.2c2.134.506,2.927,1.1,2.927,2.09,0,.66-.221,1.078-.793,1.188Zm-1.255,15.4a17.6,17.6,0,0,1-6.886,1.54c-.111,0-.2-.264-.088-.286a17.122,17.122,0,0,0,4.312-1.936,5.328,5.328,0,0,0,1.365-1.145c2.178,1.079,2.376,1.188,2.376,1.475,0,.264-.11.308-1.079.352m-2.354-2.2c-.066.528-.506.727-1.144.727-.682,0-.924-.2-.924-.771,0-.66.088-1.408.088-4.114,0-1.21-.022-2.443-.066-3.675a20.445,20.445,0,0,1,2.376,1.057h8.89c.682-.749.858-.881,1.034-.881.22,0,.44.132,1.276.748.4.308.528.44.528.616,0,.2-.132.331-.66.683v.88c0,2.354.088,3.96.088,4.488,0,.616-.418.9-1.144.9-.682,0-.9-.154-.925-.66Zm1.32-8.317c-.066.462-.418.66-1.078.66-.594,0-.88-.22-.88-.616,0-.11.022-.462.022-.748V23.019a11.977,11.977,0,0,1,2.112,1.012h6.228c.726-.837.9-.968,1.078-.968.219,0,.418.131,1.188.77.352.286.484.44.484.616s-.154.33-.616.616v.308c0,.814.022,1.3.022,1.474,0,.484-.374.77-1.1.77-.617,0-.859-.154-.859-.638Zm8.1,2.046h-9.417v1.54h9.417Zm-9.417,3.565h9.417V31.072h-9.417Zm0,2.2h9.417V33.1h-9.417Zm7.921-10.253h-6.6v1.937h6.6Zm3.741,14.654a2.042,2.042,0,0,1-1.386-.638,11.677,11.677,0,0,0-3.983-2.355c-.11-.044-.088-.219.022-.219,4.313.153,6.425.879,6.425,2.288,0,.66-.484.924-1.078.924" fill="#2c3438"/>
      <path id="パス_95" data-name="パス 95" d="M451.065,25.571a19.133,19.133,0,0,0,1.3-2.4,16.176,16.176,0,0,0,.7-1.87c1.958.7,2.574,1.034,2.574,1.342,0,.264-.154.33-.968.4a15.994,15.994,0,0,1-2.9,2.531H455.2c.857-.991,1.034-1.123,1.21-1.123.22,0,.4.132,1.474,1.079.484.44.616.594.616.77,0,.4-.2.484-1.056.528-.374.044-.4.066-1.056.55a18.851,18.851,0,0,1-1.739,1.232.115.115,0,0,1-.176-.132,12.349,12.349,0,0,0,.88-2.4H441.207c.066,1.606-.528,3.036-1.8,3.036a1.109,1.109,0,0,1-1.144-1.188c0-.506.2-.77.836-1.056a2.477,2.477,0,0,0,1.562-2.421c0-.109.242-.132.264-.022a6.974,6.974,0,0,1,.242,1.145Zm-.946,8.6a21.982,21.982,0,0,0,8.141,1.98c.11,0,.11.2,0,.242a2.072,2.072,0,0,0-1.5,1.628c-.154.506-.221.594-.418.594a6.926,6.926,0,0,1-1.739-.44,27.558,27.558,0,0,1-4.972-2.31c-.4-.264-.77-.528-1.122-.814a23.356,23.356,0,0,1-9.638,3.433c-.11.022-.22-.287-.11-.331a26.724,26.724,0,0,0,8.471-4.246,15.108,15.108,0,0,1-3.058-4.8h-.528a11.286,11.286,0,0,0-1.959.176l-.241-.858a15.433,15.433,0,0,0,2.288.176h7.569c.858-.88,1.034-1.012,1.21-1.012.22,0,.374.132,1.342,1.012.44.418.572.594.572.77,0,.33-.2.462-1.034.7a17.02,17.02,0,0,1-3.543,3.961ZM440.151,22.16c-.11,0-.154-.33-.044-.33a49.33,49.33,0,0,0,11-2,14.929,14.929,0,0,0,2.794-1.233c1.892,1.166,2.355,1.519,2.355,1.849,0,.286-.352.374-1.321.2a46.16,46.16,0,0,1-7.789,1.364c1.584.616,2.354,1.32,2.354,2.244a1.165,1.165,0,0,1-1.166,1.189c-.528,0-.77-.286-.836-.991a5.093,5.093,0,0,0-.616-2.31c-.022-.044-.044-.066-.044-.11a45.963,45.963,0,0,1-6.689.132m4.027,3.345c-.594,0-.814-.352-.88-1.035a4.31,4.31,0,0,0-.573-2.068c-.065-.088.044-.176.155-.132,1.562.55,2.376,1.276,2.376,2.113a1.077,1.077,0,0,1-1.078,1.122m.484,3.608a14.5,14.5,0,0,0,3.586,3.917,16.247,16.247,0,0,0,3.125-3.917Z" fill="#2c3438"/>
      <path id="パス_96" data-name="パス 96" d="M470,22.094V20.312a16.315,16.315,0,0,0-.088-1.892c2.53.242,2.794.462,2.794.682s-.242.418-.748.572v2.42h1.672a19.776,19.776,0,0,0,1.078-1.716,10.036,10.036,0,0,0,.726-1.672c1.761.66,2.465,1.056,2.465,1.386,0,.286-.242.374-.99.4a12.039,12.039,0,0,1-2.442,1.606h3.454c.9-.968,1.078-1.1,1.254-1.1.22,0,.4.132,1.5,1.078.507.44.638.595.638.77,0,.374-.2.463-.88.463a.719.719,0,0,0-.594.176,9.352,9.352,0,0,1-2.09,1.342c-.088.044-.242-.044-.2-.154a15.624,15.624,0,0,0,.572-2.068H463.975c.088,1.76-.7,2.882-1.76,2.882a1.1,1.1,0,0,1-1.144-1.144,1.059,1.059,0,0,1,.7-1.034,2.344,2.344,0,0,0,1.716-2.245c.022-.11.2-.132.22-.022a6.969,6.969,0,0,1,.22,1.056h2.882c-.374-.088-.572-.374-.814-1.21a4.193,4.193,0,0,0-.946-1.87.13.13,0,0,1,.132-.2c2.134.506,2.927,1.1,2.927,2.09,0,.66-.221,1.078-.793,1.188Zm-1.255,15.4a17.6,17.6,0,0,1-6.886,1.54c-.11,0-.2-.264-.088-.286a17.123,17.123,0,0,0,4.312-1.936,5.31,5.31,0,0,0,1.365-1.145c2.178,1.079,2.376,1.188,2.376,1.475,0,.264-.11.308-1.079.352m-2.354-2.2c-.066.528-.506.727-1.144.727-.682,0-.924-.2-.924-.771,0-.66.088-1.408.088-4.114,0-1.21-.022-2.443-.066-3.675a20.446,20.446,0,0,1,2.376,1.057h8.89c.682-.749.858-.881,1.034-.881.22,0,.44.132,1.276.748.4.308.528.44.528.616,0,.2-.132.331-.66.683v.88c0,2.354.088,3.96.088,4.488,0,.616-.418.9-1.144.9-.682,0-.9-.154-.925-.66Zm1.32-8.317c-.066.462-.418.66-1.078.66-.594,0-.88-.22-.88-.616,0-.11.022-.462.022-.748V23.019a11.977,11.977,0,0,1,2.112,1.012h6.228c.726-.837.9-.968,1.078-.968.219,0,.418.131,1.188.77.352.286.484.44.484.616s-.154.33-.616.616v.308c0,.814.022,1.3.022,1.474,0,.484-.374.77-1.1.77-.617,0-.859-.154-.859-.638Zm8.1,2.046h-9.417v1.54h9.417Zm-9.417,3.565h9.417V31.072h-9.417Zm0,2.2h9.417V33.1h-9.417Zm7.921-10.253h-6.6v1.937h6.6Zm3.741,14.654a2.042,2.042,0,0,1-1.386-.638,11.677,11.677,0,0,0-3.983-2.355c-.11-.044-.088-.219.022-.219,4.313.153,6.425.879,6.425,2.288,0,.66-.484.924-1.078.924" fill="#2c3438"/>
    </g>
  </g>
  <g id="グループ_89" data-name="グループ 89" transform="translate(0 0)">
    <g id="グループ_88" data-name="グループ 88" clip-path="url(#clip-path-2)">
      <rect id="長方形_44" data-name="長方形 44" width="232.245" height="59.913" transform="translate(12.575 47.944) rotate(-13.985)" fill="url(#linear-gradient)"/>
    </g>
  </g>
  <g id="グループ_91" data-name="グループ 91" transform="translate(0 0)">
    <g id="グループ_90" data-name="グループ 90" clip-path="url(#clip-path-3)">
      <rect id="長方形_45" data-name="長方形 45" width="9.086" height="8.84" transform="matrix(0.97, -0.242, 0.242, 0.97, 4.372, 49.508)" fill="url(#linear-gradient-2)"/>
    </g>
  </g>
  <g id="グループ_93" data-name="グループ 93" transform="translate(0 0)">
    <g id="グループ_92" data-name="グループ 92" clip-path="url(#clip-path-4)">
      <rect id="長方形_46" data-name="長方形 46" width="9.086" height="8.84" transform="translate(4.372 42.012) rotate(-13.985)" fill="url(#linear-gradient-3)"/>
    </g>
  </g>
  <g id="グループ_95" data-name="グループ 95" transform="translate(0 0)">
    <g id="グループ_94" data-name="グループ 94" clip-path="url(#clip-path-5)">
      <rect id="長方形_47" data-name="長方形 47" width="10.727" height="6.235" transform="translate(-0.918 47.374) rotate(-13.985)" fill="url(#linear-gradient-4)"/>
    </g>
  </g>
  <g id="グループ_97" data-name="グループ 97" transform="translate(0 0)">
    <g id="グループ_96" data-name="グループ 96" clip-path="url(#clip-path-6)">
      <rect id="長方形_48" data-name="長方形 48" width="231.275" height="59.672" transform="matrix(0.97, -0.242, 0.242, 0.97, 256.283, 47.944)" fill="url(#linear-gradient-5)"/>
    </g>
  </g>
  <g id="グループ_99" data-name="グループ 99" transform="translate(0 0)">
    <g id="グループ_98" data-name="グループ 98" clip-path="url(#clip-path-7)">
      <rect id="長方形_49" data-name="長方形 49" width="9.084" height="8.839" transform="matrix(0.97, -0.242, 0.242, 0.97, 492.375, 42.012)" fill="url(#linear-gradient-6)"/>
    </g>
  </g>
  <g id="グループ_101" data-name="グループ 101" transform="translate(0 0)">
    <g id="グループ_100" data-name="グループ 100" clip-path="url(#clip-path-8)">
      <rect id="長方形_50" data-name="長方形 50" width="9.084" height="8.839" transform="matrix(0.97, -0.242, 0.242, 0.97, 492.375, 49.508)" fill="url(#linear-gradient-7)"/>
    </g>
  </g>
  <g id="グループ_103" data-name="グループ 103" transform="translate(0 0)">
    <g id="グループ_102" data-name="グループ 102" clip-path="url(#clip-path-9)">
      <rect id="長方形_51" data-name="長方形 51" width="10.73" height="6.236" transform="matrix(0.97, -0.242, 0.242, 0.97, 496.698, 47.071)" fill="url(#linear-gradient-8)"/>
    </g>
  </g>
  <g id="グループ_105" data-name="グループ 105" transform="translate(0 0)">
    <g id="グループ_104" data-name="グループ 104" clip-path="url(#clip-path-10)">
      <rect id="長方形_52" data-name="長方形 52" width="4.996" height="6.88" transform="translate(249.227 46.217) rotate(-13.985)" fill="url(#linear-gradient-9)"/>
    </g>
  </g>
  <g id="グループ_107" data-name="グループ 107" transform="translate(0 0)">
    <g id="グループ_106" data-name="グループ 106" clip-path="url(#clip-path-11)">
      <rect id="長方形_53" data-name="長方形 53" width="4.997" height="6.88" transform="translate(252.834 46.217) rotate(-13.985)" fill="url(#linear-gradient-10)"/>
    </g>
  </g>
  <g id="グループ_109" data-name="グループ 109" transform="translate(0 0)">
    <g id="グループ_108" data-name="グループ 108" clip-path="url(#clip-path-12)">
      <rect id="長方形_54" data-name="長方形 54" width="232.245" height="59.913" transform="translate(12.575 6.355) rotate(-13.985)" fill="url(#linear-gradient-11)"/>
    </g>
  </g>
  <g id="グループ_111" data-name="グループ 111" transform="translate(0 0)">
    <g id="グループ_110" data-name="グループ 110" clip-path="url(#clip-path-13)">
      <rect id="長方形_55" data-name="長方形 55" width="9.086" height="8.841" transform="translate(4.372 7.918) rotate(-13.985)" fill="url(#linear-gradient-12)"/>
    </g>
  </g>
  <g id="グループ_113" data-name="グループ 113" transform="translate(0 0)">
    <g id="グループ_112" data-name="グループ 112" clip-path="url(#clip-path-14)">
      <rect id="長方形_56" data-name="長方形 56" width="9.086" height="8.841" transform="matrix(0.97, -0.242, 0.242, 0.97, 4.372, 0.422)" fill="url(#linear-gradient-13)"/>
    </g>
  </g>
  <g id="グループ_115" data-name="グループ 115" transform="translate(0 0)">
    <g id="グループ_114" data-name="グループ 114" clip-path="url(#clip-path-15)">
      <rect id="長方形_57" data-name="長方形 57" width="10.727" height="6.235" transform="translate(-0.918 5.784) rotate(-13.985)" fill="url(#linear-gradient-14)"/>
    </g>
  </g>
  <g id="グループ_117" data-name="グループ 117" transform="translate(0 0)">
    <g id="グループ_116" data-name="グループ 116" clip-path="url(#clip-path-16)">
      <rect id="長方形_58" data-name="長方形 58" width="231.275" height="59.672" transform="matrix(0.97, -0.242, 0.242, 0.97, 256.283, 6.355)" fill="url(#linear-gradient-15)"/>
    </g>
  </g>
  <g id="グループ_119" data-name="グループ 119" transform="translate(0 0)">
    <g id="グループ_118" data-name="グループ 118" clip-path="url(#clip-path-17)">
      <rect id="長方形_59" data-name="長方形 59" width="9.084" height="8.84" transform="translate(492.375 0.422) rotate(-13.985)" fill="url(#linear-gradient-16)"/>
    </g>
  </g>
  <g id="グループ_121" data-name="グループ 121" transform="translate(0 0)">
    <g id="グループ_120" data-name="グループ 120" clip-path="url(#clip-path-18)">
      <rect id="長方形_60" data-name="長方形 60" width="9.084" height="8.84" transform="matrix(0.97, -0.242, 0.242, 0.97, 492.375, 7.918)" fill="url(#linear-gradient-17)"/>
    </g>
  </g>
  <g id="グループ_123" data-name="グループ 123" transform="translate(0 0)">
    <g id="グループ_122" data-name="グループ 122" clip-path="url(#clip-path-19)">
      <rect id="長方形_61" data-name="長方形 61" width="10.73" height="6.237" transform="matrix(0.97, -0.242, 0.242, 0.97, 496.698, 5.481)" fill="url(#linear-gradient-18)"/>
    </g>
  </g>
  <g id="グループ_125" data-name="グループ 125" transform="translate(0 0)">
    <g id="グループ_124" data-name="グループ 124" clip-path="url(#clip-path-20)">
      <rect id="長方形_62" data-name="長方形 62" width="4.996" height="6.879" transform="matrix(0.97, -0.242, 0.242, 0.97, 249.227, 4.627)" fill="url(#linear-gradient-19)"/>
    </g>
  </g>
  <g id="グループ_127" data-name="グループ 127" transform="translate(0 0)">
    <g id="グループ_126" data-name="グループ 126" clip-path="url(#clip-path-21)">
      <rect id="長方形_63" data-name="長方形 63" width="4.996" height="6.879" transform="translate(252.834 4.627) rotate(-13.985)" fill="url(#linear-gradient-20)"/>
    </g>
  </g>
</svg>
