<svg id="_2_4_award_1" data-name="2_4_award_1" xmlns="http://www.w3.org/2000/svg" xmlns:xlink="http://www.w3.org/1999/xlink" width="486.699" height="56.312" viewBox="0 0 486.699 56.312">
  <defs>
    <clipPath id="clip-path">
      <rect id="長方形_85" data-name="長方形 85" width="486.699" height="56.312" transform="translate(0 0)" fill="none"/>
    </clipPath>
    <clipPath id="clip-path-2">
      <path id="パス_177" data-name="パス 177" d="M13.109,50.088l227.772-1.14L13.109,47.811Z" fill="none"/>
    </clipPath>
    <linearGradient id="linear-gradient" x1="-0.073" y1="0.629" x2="-0.069" y2="0.629" gradientUnits="objectBoundingBox">
      <stop offset="0" stop-color="#e5b94a"/>
      <stop offset="0.112" stop-color="#f0d374"/>
      <stop offset="0.21" stop-color="#f9e895"/>
      <stop offset="0.446" stop-color="#9d6124"/>
      <stop offset="0.667" stop-color="#e5a14e"/>
      <stop offset="1" stop-color="#e5b94a"/>
    </linearGradient>
    <clipPath id="clip-path-3">
      <path id="パス_178" data-name="パス 178" d="M6.067,56.312s7.564-1.879,7.036-7.226a9.111,9.111,0,0,0-7.036,7.226" fill="none"/>
    </clipPath>
    <linearGradient id="linear-gradient-2" x1="-0.584" y1="0.909" x2="-0.474" y2="0.909" xlink:href="#linear-gradient"/>
    <clipPath id="clip-path-4">
      <path id="パス_179" data-name="パス 179" d="M13.1,48.816c.528-5.343-7.036-7.226-7.036-7.226A9.1,9.1,0,0,0,13.1,48.816" fill="none"/>
    </clipPath>
    <linearGradient id="linear-gradient-3" x1="-0.584" y1="1.757" x2="-0.474" y2="1.757" xlink:href="#linear-gradient"/>
    <clipPath id="clip-path-5">
      <path id="パス_180" data-name="パス 180" d="M0,49.1A8.657,8.657,0,0,0,5.041,51.06,8.655,8.655,0,0,0,10.08,49.1a8.653,8.653,0,0,0-5.039-1.958A8.655,8.655,0,0,0,0,49.1" fill="none"/>
    </clipPath>
    <linearGradient id="linear-gradient-4" x1="0.03" y1="1.656" x2="0.123" y2="1.656" xlink:href="#linear-gradient"/>
    <clipPath id="clip-path-6">
      <path id="パス_181" data-name="パス 181" d="M245.817,48.948l227.773,1.14V47.811Z" fill="none"/>
    </clipPath>
    <linearGradient id="linear-gradient-5" x1="-1.123" y1="0.629" x2="-1.119" y2="0.629" xlink:href="#linear-gradient"/>
    <clipPath id="clip-path-7">
      <path id="パス_182" data-name="パス 182" d="M473.6,48.816a9.106,9.106,0,0,0,7.033-7.226s-7.561,1.883-7.033,7.226" fill="none"/>
    </clipPath>
    <linearGradient id="linear-gradient-6" x1="-51.998" y1="1.757" x2="-51.888" y2="1.757" xlink:href="#linear-gradient"/>
    <clipPath id="clip-path-8">
      <path id="パス_183" data-name="パス 183" d="M480.632,56.312a9.113,9.113,0,0,0-7.033-7.226c-.528,5.347,7.033,7.226,7.033,7.226" fill="none"/>
    </clipPath>
    <linearGradient id="linear-gradient-7" x1="-51.999" y1="0.909" x2="-51.889" y2="0.909" xlink:href="#linear-gradient"/>
    <clipPath id="clip-path-9">
      <path id="パス_184" data-name="パス 184" d="M476.616,48.8a7.475,7.475,0,0,0,10.083,0,7.467,7.467,0,0,0-10.083,0" fill="none"/>
    </clipPath>
    <linearGradient id="linear-gradient-8" x1="-44.388" y1="1.705" x2="-44.295" y2="1.705" xlink:href="#linear-gradient"/>
    <clipPath id="clip-path-10">
      <path id="パス_185" data-name="パス 185" d="M239.99,48.685l-.312.263.312.268,3.3,2.831-2.538-3.1,2.538-3.1Z" fill="none"/>
    </clipPath>
    <linearGradient id="linear-gradient-9" x1="-47.821" y1="1.57" x2="-47.621" y2="1.57" xlink:href="#linear-gradient"/>
    <clipPath id="clip-path-11">
      <path id="パス_186" data-name="パス 186" d="M245.823,48.952l-2.537,3.1,3.3-2.831.308-.268-.308-.263-3.3-2.83Z" fill="none"/>
    </clipPath>
    <linearGradient id="linear-gradient-10" x1="-48.552" y1="1.57" x2="-48.352" y2="1.57" xlink:href="#linear-gradient"/>
    <clipPath id="clip-path-12">
      <path id="パス_187" data-name="パス 187" d="M13.109,8.5l227.772-1.14L13.109,6.222Z" fill="none"/>
    </clipPath>
    <linearGradient id="linear-gradient-11" x1="-0.073" y1="1.355" x2="-0.069" y2="1.355" xlink:href="#linear-gradient"/>
    <clipPath id="clip-path-13">
      <path id="パス_188" data-name="パス 188" d="M6.067,14.723S13.631,12.844,13.1,7.5a9.113,9.113,0,0,0-7.036,7.227" fill="none"/>
    </clipPath>
    <linearGradient id="linear-gradient-12" x1="-0.584" y1="5.613" x2="-0.474" y2="5.613" xlink:href="#linear-gradient"/>
    <clipPath id="clip-path-14">
      <path id="パス_189" data-name="パス 189" d="M13.1,7.227C13.631,1.883,6.067,0,6.067,0A9.1,9.1,0,0,0,13.1,7.227" fill="none"/>
    </clipPath>
    <linearGradient id="linear-gradient-13" x1="-0.584" y1="6.461" x2="-0.474" y2="6.461" xlink:href="#linear-gradient"/>
    <clipPath id="clip-path-15">
      <path id="パス_190" data-name="パス 190" d="M0,7.514A8.659,8.659,0,0,0,5.041,9.47,8.657,8.657,0,0,0,10.08,7.514,8.651,8.651,0,0,0,5.041,5.555,8.653,8.653,0,0,0,0,7.514" fill="none"/>
    </clipPath>
    <linearGradient id="linear-gradient-14" x1="0.03" y1="8.327" x2="0.123" y2="8.327" xlink:href="#linear-gradient"/>
    <clipPath id="clip-path-16">
      <path id="パス_191" data-name="パス 191" d="M245.817,7.359,473.59,8.5V6.222Z" fill="none"/>
    </clipPath>
    <linearGradient id="linear-gradient-15" x1="-1.123" y1="1.355" x2="-1.119" y2="1.355" xlink:href="#linear-gradient"/>
    <clipPath id="clip-path-17">
      <path id="パス_192" data-name="パス 192" d="M473.6,7.227A9.106,9.106,0,0,0,480.632,0s-7.561,1.883-7.033,7.227" fill="none"/>
    </clipPath>
    <linearGradient id="linear-gradient-16" x1="-51.997" y1="6.461" x2="-51.887" y2="6.461" xlink:href="#linear-gradient"/>
    <clipPath id="clip-path-18">
      <path id="パス_193" data-name="パス 193" d="M480.632,14.723A9.114,9.114,0,0,0,473.6,7.5c-.528,5.348,7.033,7.227,7.033,7.227" fill="none"/>
    </clipPath>
    <linearGradient id="linear-gradient-17" x1="-51.997" y1="5.613" x2="-51.887" y2="5.613" xlink:href="#linear-gradient"/>
    <clipPath id="clip-path-19">
      <path id="パス_194" data-name="パス 194" d="M476.616,7.212a7.475,7.475,0,0,0,10.083,0,7.464,7.464,0,0,0-10.083,0" fill="none"/>
    </clipPath>
    <linearGradient id="linear-gradient-18" x1="-44.387" y1="8.373" x2="-44.294" y2="8.373" xlink:href="#linear-gradient"/>
    <clipPath id="clip-path-20">
      <path id="パス_195" data-name="パス 195" d="M239.99,7.1l-.312.263.312.267,3.3,2.831-2.538-3.094,2.538-3.1Z" fill="none"/>
    </clipPath>
    <linearGradient id="linear-gradient-19" x1="-47.823" y1="7.616" x2="-47.623" y2="7.616" xlink:href="#linear-gradient"/>
    <clipPath id="clip-path-21">
      <path id="パス_196" data-name="パス 196" d="M245.823,7.363l-2.537,3.094,3.3-2.831.308-.267-.308-.263-3.3-2.83Z" fill="none"/>
    </clipPath>
    <linearGradient id="linear-gradient-20" x1="-48.554" y1="7.616" x2="-48.354" y2="7.616" xlink:href="#linear-gradient"/>
  </defs>
  <g id="グループ_171" data-name="グループ 171" transform="translate(0 0)">
    <g id="グループ_170" data-name="グループ 170" clip-path="url(#clip-path)">
      <path id="パス_157" data-name="パス 157" d="M38.412,34.372c1.848,0,2.288-.132,2.729-.528A5.588,5.588,0,0,0,42.35,32.15c.088-.154.154-.176.353-.111s.242.133.22.287c-.264,1.122-.815,3.08-1.189,4.224-1.5-.044-2.662-.044-4.246-.044-1.606,0-2.9,0-4.357.044-.22,0-.286-.022-.286-.374a.989.989,0,0,1,.132-.616,37.958,37.958,0,0,1,3.851-5.633c1.87-2.4,2.926-3.564,2.926-5.61,0-1.827-.638-3.147-1.892-3.147a1.814,1.814,0,0,0-1.826,1.276,4.846,4.846,0,0,0-.2,1.607c0,.615-.837,1.034-1.651,1.034-.616,0-1.056-.176-1.056-.837,0-1.408,1.782-3.74,4.731-3.74,2.97,0,4.554,1.76,4.554,3.9,0,2.816-2.024,3.872-4.246,5.941-2.443,2.222-2.992,2.9-3.653,4.026Z" fill="#3a4348"/>
      <path id="パス_158" data-name="パス 158" d="M55.689,28.695c0,5.061-1.826,8.251-4.885,8.251-3.168,0-4.929-3.036-4.929-8.119,0-5.149,1.805-8.317,4.929-8.317,3.059,0,4.885,3.168,4.885,8.185m-7.239.066c0,4.577.462,7.5,2.354,7.5,1.827,0,2.311-2.926,2.311-7.5,0-4.6-.44-7.569-2.311-7.569-1.892,0-2.354,2.97-2.354,7.569" fill="#3a4348"/>
      <path id="パス_159" data-name="パス 159" d="M63.829,34.372c1.848,0,2.288-.132,2.729-.528a5.588,5.588,0,0,0,1.209-1.694c.088-.154.155-.176.353-.111s.242.133.22.287c-.264,1.122-.815,3.08-1.189,4.224-1.5-.044-2.662-.044-4.246-.044-1.606,0-2.9,0-4.357.044-.22,0-.286-.022-.286-.374a.989.989,0,0,1,.132-.616,37.958,37.958,0,0,1,3.851-5.633c1.87-2.4,2.926-3.564,2.926-5.61,0-1.827-.638-3.147-1.892-3.147a1.814,1.814,0,0,0-1.826,1.276,4.846,4.846,0,0,0-.2,1.607c0,.615-.837,1.034-1.651,1.034-.616,0-1.056-.176-1.056-.837,0-1.408,1.782-3.74,4.731-3.74,2.97,0,4.554,1.76,4.554,3.9,0,2.816-2.024,3.872-4.246,5.941-2.443,2.222-2.992,2.9-3.653,4.026Z" fill="#3a4348"/>
      <path id="パス_160" data-name="パス 160" d="M81.106,28.695c0,5.061-1.826,8.251-4.885,8.251-3.168,0-4.929-3.036-4.929-8.119,0-5.149,1.8-8.317,4.929-8.317,3.059,0,4.885,3.168,4.885,8.185m-7.239.066c0,4.577.462,7.5,2.354,7.5,1.827,0,2.311-2.926,2.311-7.5,0-4.6-.44-7.569-2.311-7.569-1.892,0-2.354,2.97-2.354,7.569" fill="#3a4348"/>
      <path id="パス_161" data-name="パス 161" d="M99.743,31.929c1.21-1.452,1.474-1.628,1.628-1.628.2,0,.44.176,1.606,1.122.528.44.7.639.7.792s-.066.221-.286.221H95.738c.022,2.354.066,4.488.066,5.434,0,.66-.44.947-1.32.947-.638,0-.968-.2-.968-.771s.088-2.266.088-5.61H85.858a12.161,12.161,0,0,0-1.627.131l-.243-.813a9.622,9.622,0,0,0,1.805.175h1.936V28.915c0-1.1-.022-2.2-.088-3.3a14.444,14.444,0,0,1,2.31,1.057H93.6V22.622H89.533a14.794,14.794,0,0,1-4.95,4.819c-.089.066-.308-.11-.221-.2a19.29,19.29,0,0,0,3.807-6.293,11.99,11.99,0,0,0,.7-2.53c2.332.682,2.926.945,2.926,1.319,0,.243-.264.4-.946.485-.33.682-.66,1.3-1.012,1.892h9.33c1.144-1.342,1.408-1.518,1.562-1.518.2,0,.44.176,1.562,1.056.506.418.682.594.682.748s-.066.22-.286.22H95.716v4.049h2.6c1.122-1.276,1.3-1.409,1.474-1.409.219,0,.418.133,1.5.969.506.4.638.549.638.726,0,.153-.088.22-.33.22H95.716v.792c0,1.276,0,2.64.022,3.96ZM93.6,27.177H89.8v4.752H93.6Z" fill="#3a4348"/>
      <path id="パス_162" data-name="パス 162" d="M113.272,24.756v-.484a13.833,13.833,0,0,0-.088-1.848c2.332.22,2.574.286,2.574.55,0,.176-.132.286-.528.506v1.276h3.85V24.03c0-.682-.022-.946-.066-1.65,2,.2,2.552.33,2.552.638,0,.176-.109.286-.549.528v1.21h1.452c.9-1.122,1.166-1.3,1.32-1.3.2,0,.44.176,1.386.9.418.353.594.528.594.682s-.066.22-.286.22h-4.466c.022,1.783.066,3.015.066,3.455,0,.55-.352.814-1.166.814-.661,0-.837-.2-.837-.858v-.11h-3.85v.22c0,.594-.33.858-1.166.858-.617,0-.836-.242-.836-.792,0-.374.044-1.5.044-3.587h-3.1a34.019,34.019,0,0,1-.748,7.019,16.636,16.636,0,0,1-3.081,6.293c-.065.088-.286-.044-.242-.154a27.836,27.836,0,0,0,1.651-7.283c.176-1.826.264-3.872.264-6.315,0-1.738-.066-3.168-.2-4.753a16.1,16.1,0,0,1,2.508,1.167h5.457V19.872a8.982,8.982,0,0,0-.132-1.3c2.662.265,2.926.507,2.926.748s-.264.441-.748.617v1.3h4.8c1.012-1.189,1.276-1.364,1.43-1.364.2,0,.462.175,1.5.945.484.375.661.551.661.7s-.067.22-.287.22H110.191V23.59c0,.4,0,.792-.022,1.166Zm6.82,6.029c.9-.9,1.079-1.034,1.255-1.034.219,0,.4.132,1.3.968.418.374.55.55.55.726,0,.352-.308.462-1.122.661a16.936,16.936,0,0,1-2.949,3.058,27.19,27.19,0,0,0,7.371,1.452c.111,0,.067.22-.044.242-.792.242-1.078.572-1.408,1.606-.088.265-.2.353-.418.353a7.707,7.707,0,0,1-1.364-.265,18.641,18.641,0,0,1-5.325-2.134c-.11-.066-.22-.154-.33-.22a21.9,21.9,0,0,1-9.043,2.6c-.11.022-.2-.331-.088-.353a23.967,23.967,0,0,0,7.745-3.322,12.871,12.871,0,0,1-2.751-3.829H112.15a5.05,5.05,0,0,0-1.3.176l-.242-.858a7.023,7.023,0,0,0,1.541.176ZM114,31.291a11.267,11.267,0,0,0,3.278,3.015,16.8,16.8,0,0,0,2.816-3.015Zm5.082-6.029h-3.851v2.794h3.851Z" fill="#3a4348"/>
      <path id="パス_163" data-name="パス 163" d="M146.359,27.617h-4.422a18.214,18.214,0,0,0-2.025.132l-.242-.814a15.446,15.446,0,0,0,2.289.176h4.4V22.028a27.918,27.918,0,0,0-.132-3.146c2.9.264,3.191.527,3.191.77,0,.22-.265.418-.814.594v6.865h3.5c1.21-1.474,1.474-1.65,1.628-1.65.2,0,.44.176,1.629,1.144.549.44.726.638.726.792s-.066.22-.287.22H148.6v9.527h4.972c1.276-1.606,1.54-1.782,1.695-1.782.2,0,.44.176,1.715,1.232.6.484.771.682.771.836s-.066.22-.286.22H140.176a19.714,19.714,0,0,0-2.112.133l-.242-.815a15.779,15.779,0,0,0,2.332.176h6.2Z" fill="#3a4348"/>
      <path id="パス_164" data-name="パス 164" d="M171.514,24.734a13.725,13.725,0,0,0,3.234,5.1,16.315,16.315,0,0,0,6.337,3.763c.11.044.11.154,0,.2-.858.286-1.188.66-1.628,1.738-.132.308-.22.419-.4.419a2.879,2.879,0,0,1-1.012-.529,15.366,15.366,0,0,1-4.489-4.753,26,26,0,0,1-2.376-5.258c.154,7.041.242,11.728.242,12.564,0,.616-.484.88-1.342.88-.7,0-1.012-.22-1.012-.726,0-1.189.175-6.051.22-10.518a20.516,20.516,0,0,1-8.934,8.34c-.11.044-.241-.155-.154-.221a26.637,26.637,0,0,0,8.054-11h-5.039a15.835,15.835,0,0,0-1.893.132l-.242-.814a12.722,12.722,0,0,0,2.091.176h5.985V21.7a25.651,25.651,0,0,0-.132-3.058c2.266.176,2.948.308,2.948.66,0,.2-.176.374-.682.638v4.291h5.127c1.078-1.365,1.342-1.54,1.5-1.54.2,0,.44.175,1.584,1.078.506.418.682.594.682.748s-.066.22-.286.22Z" fill="#3a4348"/>
      <path id="パス_165" data-name="パス 165" d="M195.908,23.392a27.137,27.137,0,0,0,1.409-2.552,18.057,18.057,0,0,0,.792-2c1.98.9,2.618,1.276,2.618,1.563,0,.264-.264.417-1.012.417a21.015,21.015,0,0,1-3.037,2.575h3.411c.9-.968,1.078-1.1,1.254-1.1.22,0,.374.132,1.386,1.144.44.462.572.638.572.814,0,.352-.11.418-.946.484-.352.022-.374.022-.528.176a11.62,11.62,0,0,1-2.068,1.365c-.088.043-.242-.066-.2-.176a12.445,12.445,0,0,0,.7-2.2H186.271c.154,1.871-.528,3.037-1.717,3.037a1.1,1.1,0,0,1-1.144-1.166,1.069,1.069,0,0,1,.682-1.057,2.479,2.479,0,0,0,1.651-2.4c.022-.11.2-.132.22-.022a7.688,7.688,0,0,1,.242,1.1Zm-3.916,7.283a13.411,13.411,0,0,0-.067-1.65c.771.132,1.343.22,1.761.286a14.009,14.009,0,0,0,2.244-2.531h-7.195a4.747,4.747,0,0,0-1.254.177l-.242-.858a6.009,6.009,0,0,0,1.43.176h7.3c.9-.814,1.078-.947,1.254-.947.22,0,.4.133,1.255.9.374.33.506.483.506.66,0,.308-.242.418-1.079.44a21.353,21.353,0,0,1-3.5,2.134c.418.11.418.2.418.352,0,.22-.2.374-.77.638v.682h5.369c1.122-1.386,1.386-1.562,1.54-1.562.2,0,.44.176,1.606,1.078.528.44.7.616.7.77s-.065.22-.286.22H194.06v2.333c.022,1.21.066,1.782.066,2.618a2.351,2.351,0,0,1-.4,1.431,2.557,2.557,0,0,1-2.223.813c-.417,0-.461-.088-.549-.572-.111-.792-.748-1.166-2.509-1.606-.11-.022-.088-.308.022-.308,1.21.088,2.354.154,3.147.154.264,0,.374-.088.374-.33V31.643h-6.953a8.707,8.707,0,0,0-1.387.132l-.242-.814a7.029,7.029,0,0,0,1.541.176h7.041Zm-3.169-7.547c-.594,0-.814-.286-1.056-1.386a5.03,5.03,0,0,0-1.188-2.31.144.144,0,0,1,.132-.22c2.332.66,3.3,1.474,3.3,2.64a1.2,1.2,0,0,1-1.188,1.276m4.621-.374c-.638,0-.792-.22-1.012-1.408a5.1,5.1,0,0,0-1.188-2.443c-.067-.087,0-.242.11-.2,2.31.771,3.322,1.629,3.322,2.839a1.173,1.173,0,0,1-1.232,1.21" fill="#3a4348"/>
      <path id="パス_166" data-name="パス 166" d="M205.7,29.2c-.11.045-.242-.176-.154-.242a22.68,22.68,0,0,0,7.041-7.151,16.887,16.887,0,0,0,1.54-3.344c3.1.836,3.125.858,3.125,1.122,0,.2-.176.308-.968.528a15.938,15.938,0,0,0,5.039,4.665,16.13,16.13,0,0,0,5.17,1.782c.11.022.11.286,0,.286-.7.066-1.188.616-1.518,1.8-.088.308-.2.418-.374.418a3.238,3.238,0,0,1-1.034-.44,19.676,19.676,0,0,1-3.125-2.2,18.814,18.814,0,0,1-4.444-5.9c-2.112,3.9-5.479,6.711-10.3,8.669m9.572,2a25.4,25.4,0,0,1-3.477,4.884c2.751-.022,5.5-.131,8.251-.286a9.075,9.075,0,0,0-2.156-2.838c-.088-.066.022-.264.132-.22,3.168,1.166,5.039,2.794,5.039,4.313a1.36,1.36,0,0,1-1.21,1.5c-.639,0-.77-.154-1.321-1.585-.088-.219-.154-.418-.241-.615A77.321,77.321,0,0,1,208.96,38.2c-.154.66-.264.836-.528.836-.352,0-.352,0-1.166-3.059a26.021,26.021,0,0,0,2.838.11h.814A25.413,25.413,0,0,0,212.37,31.2h-3.85a10.762,10.762,0,0,0-1.54.131l-.243-.814a9.273,9.273,0,0,0,1.783.177h13.025c1.057-1.321,1.321-1.5,1.475-1.5.2,0,.44.176,1.5,1.034.484.4.66.595.66.749s-.066.22-.286.22Zm1.518-4.247c.968-1.21,1.232-1.386,1.386-1.386.2,0,.418.176,1.364.968.418.352.594.55.594.7s-.066.22-.285.22H212.26a7.612,7.612,0,0,0-1.3.132l-.242-.814a7.39,7.39,0,0,0,1.584.176Z" fill="#3a4348"/>
      <path id="パス_167" data-name="パス 167" d="M238.617,25.923c2.244-.177,3.035-.22,4.158-.352a3.884,3.884,0,0,0,.836-.242,2.335,2.335,0,0,1,.813-.2,4.394,4.394,0,0,1,2.092.594.963.963,0,0,1,.483.858.619.619,0,0,1-.506.66,6.7,6.7,0,0,1-1.343-.088A22.663,22.663,0,0,0,242.423,27c-.749,0-1.98,0-2.971.066.7.484,1.012.924,1.012,1.232a.656.656,0,0,1-.11.352,4.093,4.093,0,0,0-.44.99,14.523,14.523,0,0,1-2.4,4.335,13.482,13.482,0,0,1-4.489,3.719.955.955,0,0,1-.373.132c-.155,0-.22-.066-.22-.221,0-.11.175-.264.549-.594a18.451,18.451,0,0,0,3.234-4.048,16.724,16.724,0,0,0,1.629-3.9,6.713,6.713,0,0,0,.2-1.166,1.022,1.022,0,0,0-.242-.748c-1.562.154-3.191.352-4.2.55a2.731,2.731,0,0,0-1.035.374,1.017,1.017,0,0,1-.659.2c-.4,0-.793-.22-1.474-.99a1.968,1.968,0,0,1-.574-1.21c0-.331.111-.528.244-.528.11,0,.2.132.33.242a2.331,2.331,0,0,0,1.495.7c.529,0,1.3-.066,1.936-.132,1.5-.154,2.772-.286,4.754-.44m1.407-4.665a2.323,2.323,0,0,0,.66-.242,2.764,2.764,0,0,1,.836-.242,4,4,0,0,1,1.893.44.731.731,0,0,1,.353.66.741.741,0,0,1-.815.77c-.485.022-1.056.022-1.761.088-1.342.11-3.629.286-4.863.4-.417.044-.835.088-1.143.088a1.884,1.884,0,0,1-1.761-.792,1.557,1.557,0,0,1-.506-1.166c0-.2.045-.33.155-.33.065,0,.131.088.285.2a2.36,2.36,0,0,0,1.76.682,22.6,22.6,0,0,0,2.377-.176c.968-.11,1.826-.22,2.53-.374m6.227-.682a1.646,1.646,0,0,1,.814,1.32.738.738,0,0,1-.726.77.789.789,0,0,1-.748-.506,8.206,8.206,0,0,0-1.386-1.936c-.088-.088-.241-.2-.241-.286,0-.132.108-.154.263-.154a1.935,1.935,0,0,1,.506.088,4.032,4.032,0,0,1,1.518.7m2.024-1.518a1.338,1.338,0,0,1,.793,1.122.738.738,0,0,1-.683.814.839.839,0,0,1-.813-.484,5.6,5.6,0,0,0-1.541-1.716c-.088-.066-.263-.176-.263-.264a.173.173,0,0,1,.175-.176,3.039,3.039,0,0,1,.573.066,5.132,5.132,0,0,1,1.759.638" fill="#3a4348"/>
      <path id="パス_168" data-name="パス 168" d="M266.43,25.526a1.72,1.72,0,0,1,.836-.22,4.51,4.51,0,0,1,1.98.638.914.914,0,0,1,.44.748.64.64,0,0,1-.682.66,6.6,6.6,0,0,1-1.122-.154,13.853,13.853,0,0,0-2.245-.2h-1.32a13.009,13.009,0,0,1-1.474,6.293,9.83,9.83,0,0,1-6.359,4.269,4.5,4.5,0,0,1-.682.11c-.2,0-.286-.044-.286-.176a.175.175,0,0,1,.132-.176,10.514,10.514,0,0,0,5.7-4.863,12.848,12.848,0,0,0,1.166-5.435c-1.276.044-2.486.154-4.092.352-.022,1.211,0,2.421-.022,3.631-.022.99-.551,1.254-.881,1.254-.66,0-1.012-.286-1.012-1.1,0-.792.11-2.047.132-3.609a15.259,15.259,0,0,0-1.518.308,3.317,3.317,0,0,0-.946.4,1.3,1.3,0,0,1-.792.286,2.066,2.066,0,0,1-1.475-.859,1.932,1.932,0,0,1-.682-1.43c0-.242.067-.374.2-.374.066,0,.155.088.309.2a2.781,2.781,0,0,0,1.606.682c.33,0,.9-.022,1.518-.088.7-.088,1.056-.154,1.8-.242V24.162c0-.462-.022-.726-.22-.924a3.037,3.037,0,0,0-1.166-.594c-.154-.044-.22-.089-.22-.177s.132-.219.264-.308a1.426,1.426,0,0,1,.9-.219,4.692,4.692,0,0,1,1.936.571c.529.287.7.573.7.815a1.028,1.028,0,0,1-.2.616,2.217,2.217,0,0,0-.177.814c-.022.374-.044.858-.044,1.518,1.651-.176,2.641-.264,4.115-.374V23.5a5.442,5.442,0,0,0-.132-1.827.937.937,0,0,0-.55-.483,7.2,7.2,0,0,0-.748-.243c-.2-.044-.242-.088-.242-.176s.088-.22.33-.4a1.3,1.3,0,0,1,.792-.22,5.7,5.7,0,0,1,1.76.33c.748.242,1.1.683,1.1,1.034a1.052,1.052,0,0,1-.241.638,1.143,1.143,0,0,0-.2.639c-.044,1.188-.066,2.112-.088,3.036.44-.022.836-.044,1.254-.088a1.958,1.958,0,0,0,.837-.22m1.716-3.938a1.646,1.646,0,0,1,.814,1.32.739.739,0,0,1-.726.77.788.788,0,0,1-.748-.506,8.263,8.263,0,0,0-1.386-1.936c-.089-.089-.242-.2-.242-.287,0-.132.109-.153.264-.153a1.944,1.944,0,0,1,.506.087,4.033,4.033,0,0,1,1.518.7m2.046-1.519a1.339,1.339,0,0,1,.792,1.123.738.738,0,0,1-.682.814.841.841,0,0,1-.814-.485,5.583,5.583,0,0,0-1.54-1.716c-.088-.066-.264-.176-.264-.264a.174.174,0,0,1,.176-.176,3.039,3.039,0,0,1,.572.066,5.137,5.137,0,0,1,1.76.638" fill="#3a4348"/>
      <path id="パス_169" data-name="パス 169" d="M272.355,32.677c-.242.132-.374.242-.484.242-.176,0-.264-.11-.264-.286,0-.11.132-.22.374-.4a49.217,49.217,0,0,0,7.041-6.755,23.94,23.94,0,0,0,2.641-3.476,1.887,1.887,0,0,0,.352-.925c0-.2-.286-.484-.726-.748-.221-.132-.4-.176-.4-.308,0-.176.374-.506.923-.506a5.077,5.077,0,0,1,2.333.88,1.784,1.784,0,0,1,.946,1.211c0,.352-.22.615-.726.792a.859.859,0,0,0-.462.308c-1.232,1.342-2.288,2.508-3.1,3.366.837.594,1.408,1.057,1.408,1.5a.793.793,0,0,1-.087.417,2.854,2.854,0,0,0-.066.749v3.168c0,1.65.044,3.3.044,4.973a.881.881,0,0,1-.836.99,1.136,1.136,0,0,1-.991-.462,2.413,2.413,0,0,1-.462-1.43,1.454,1.454,0,0,1,.11-.507,8.639,8.639,0,0,0,.22-2.068c0-1.606.022-3.74.022-5.082a3.727,3.727,0,0,0-.154-1.431,31.17,31.17,0,0,1-7.657,5.787" fill="#3a4348"/>
      <path id="パス_170" data-name="パス 170" d="M291.528,23.172c0-.11.087-.176.22-.176a3.668,3.668,0,0,1,.418.022,7.864,7.864,0,0,1,2.794.88,2.615,2.615,0,0,1,1.518,2.2,1.168,1.168,0,0,1-1.188,1.232,1.145,1.145,0,0,1-1.078-.814,7.634,7.634,0,0,0-.924-1.584,5.748,5.748,0,0,0-1.607-1.541.25.25,0,0,1-.153-.22m3.212,9.99a42.24,42.24,0,0,0,6.1-4.313,46.758,46.758,0,0,0,5.171-5.369.472.472,0,0,1,.286-.2c.154,0,.22.087.22.2a.764.764,0,0,1-.132.374,28.856,28.856,0,0,1-4.577,6.162,49.887,49.887,0,0,1-5.875,5.148,3.49,3.49,0,0,0-.572.528,1.13,1.13,0,0,1-.88.528c-.462,0-.748-.2-1.342-.836-.946-1.012-1.232-1.584-1.232-2.046s.153-.836.352-.836c.11,0,.176.088.352.285.484.507.792.815,1.012.815a2.74,2.74,0,0,0,1.122-.44" fill="#3a4348"/>
      <path id="パス_171" data-name="パス 171" d="M319.348,22.093V20.311a16.323,16.323,0,0,0-.088-1.892c2.53.242,2.794.462,2.794.682s-.242.418-.748.572v2.42h1.672a20.017,20.017,0,0,0,1.078-1.716,10.036,10.036,0,0,0,.726-1.672c1.761.66,2.465,1.056,2.465,1.386,0,.286-.242.374-.99.4a12.039,12.039,0,0,1-2.442,1.606h3.454c.9-.967,1.078-1.1,1.254-1.1.22,0,.4.133,1.5,1.078.507.44.638.6.638.77,0,.374-.2.463-.88.463a.719.719,0,0,0-.594.176,9.353,9.353,0,0,1-2.09,1.342c-.088.044-.242-.044-.2-.154a15.628,15.628,0,0,0,.572-2.068H313.319c.088,1.76-.7,2.882-1.76,2.882a1.1,1.1,0,0,1-1.144-1.145,1.058,1.058,0,0,1,.7-1.033,2.344,2.344,0,0,0,1.716-2.245c.022-.11.2-.132.22-.022a6.969,6.969,0,0,1,.22,1.056h2.882c-.374-.088-.572-.374-.814-1.21a4.193,4.193,0,0,0-.946-1.87.13.13,0,0,1,.132-.2c2.134.506,2.927,1.1,2.927,2.09,0,.66-.221,1.078-.793,1.188Zm-1.255,15.4a17.6,17.6,0,0,1-6.886,1.54c-.111,0-.2-.264-.088-.286a17.123,17.123,0,0,0,4.312-1.936,5.328,5.328,0,0,0,1.365-1.145c2.178,1.079,2.376,1.188,2.376,1.475,0,.264-.11.308-1.079.352m-2.354-2.2c-.066.528-.506.727-1.144.727-.682,0-.924-.2-.924-.77,0-.661.088-1.409.088-4.115,0-1.211-.022-2.443-.066-3.675a20.608,20.608,0,0,1,2.376,1.056h8.89c.682-.748.858-.88,1.034-.88.22,0,.44.132,1.276.748.4.308.528.44.528.616,0,.2-.132.331-.66.683v.88c0,2.354.088,3.96.088,4.488,0,.616-.418.9-1.144.9-.682,0-.9-.155-.925-.661Zm1.32-8.317c-.066.462-.418.66-1.078.66-.594,0-.88-.22-.88-.616,0-.11.022-.462.022-.748V23.018a11.977,11.977,0,0,1,2.112,1.012h6.228c.726-.837.9-.968,1.078-.968.219,0,.418.131,1.188.77.352.286.484.44.484.616s-.154.33-.616.616v.308c0,.814.022,1.3.022,1.474,0,.484-.374.77-1.1.77-.617,0-.859-.154-.859-.638Zm8.1,2.046h-9.417v1.54h9.417Zm-9.417,3.565h9.417V31.071h-9.417Zm0,2.2h9.417V33.1h-9.417Zm7.921-10.253h-6.6v1.937h6.6ZM327.4,39.19a2.042,2.042,0,0,1-1.386-.638,11.661,11.661,0,0,0-3.983-2.355c-.11-.044-.088-.219.022-.219,4.313.153,6.425.879,6.425,2.288,0,.66-.484.924-1.078.924" fill="#3a4348"/>
      <path id="パス_172" data-name="パス 172" d="M343.744,27.243a25.925,25.925,0,0,1-2.046,2.42c-.066.088-.33-.132-.264-.22a26.947,26.947,0,0,0,3.212-7.657,24.024,24.024,0,0,0,.573-3.213c1.936.418,2.75.77,2.75,1.123,0,.2-.132.308-.682.462a21.909,21.909,0,0,1-2.421,5.435c1.232.22,1.365.264,1.365.528,0,.176-.133.308-.573.528V38.025c0,.659-.374.923-1.166.923-.682,0-.9-.2-.9-.835,0-.573.154-2.311.154-5.788Zm15.821-.088c.659-.771.836-.9,1.012-.9.22,0,.4.131,1.254.9.374.352.506.506.506.682,0,.374-.242.484-1.012.484a.816.816,0,0,0-.506.176,13.373,13.373,0,0,1-1.232.836c.88.418,1.276.88,1.276,1.5a1.06,1.06,0,0,1-.968,1.122c-.463,0-.572-.153-.793-1.034a3.953,3.953,0,0,0-1.21-1.936.118.118,0,0,1,.11-.2,9.631,9.631,0,0,1,1.277.418,15.754,15.754,0,0,0,.418-1.54H348.409c0,1.672-.77,2.574-1.474,2.574a.859.859,0,0,1-.837-.924c0-.462.155-.726.683-1.056a1.992,1.992,0,0,0,1.166-1.849c0-.109.33-.109.352,0,.044.265.088.507.11.749h.968v-3.7c0-.726-.022-1.474-.088-2.222.968.286,1.1.33,2.046.682h1.519a10.193,10.193,0,0,0,.154-1.628h-2.839a13.851,13.851,0,0,0-1.76.132l-.242-.814a12.087,12.087,0,0,0,2.024.176h8.075c1.1-1.276,1.365-1.453,1.518-1.453.2,0,.418.177,1.409,1.012.418.375.594.573.594.727s-.066.22-.286.22h-6.425a8.783,8.783,0,0,1-1.364,1.628h3.256c.594-.66.77-.792.946-.792.221,0,.418.132,1.078.66.287.22.418.352.418.528,0,.2-.153.352-.571.572v4.269Zm-3.5,8.713a27.626,27.626,0,0,0,6.2.748c.11,0,.088.22-.022.264-.638.22-.836.55-1.122,1.694a.327.327,0,0,1-.286.243,5.55,5.55,0,0,1-1.1-.2,17.756,17.756,0,0,1-4.291-1.386c-.33-.154-.638-.33-.946-.506a18.363,18.363,0,0,1-8.1,2.179c-.11,0-.154-.265-.044-.287a18.42,18.42,0,0,0,6.887-2.772,10.033,10.033,0,0,1-1.826-2.046,12.476,12.476,0,0,1-4.467,2.684c-.111.044-.264-.154-.176-.22a12.877,12.877,0,0,0,3.63-3.609,6.956,6.956,0,0,0,.7-1.408,1.292,1.292,0,0,1-.617-1.3c0-.242.022-.682.022-1.056a5.634,5.634,0,0,0-.066-.858c1.958.22,2.332.308,2.332.616,0,.22-.175.352-.593.462v.572c0,.6.022.6,2.024.6a6.477,6.477,0,0,0,1.694-.111c.528-.176.7-.572,1.122-1.584.044-.11.242-.088.242.022v.726c0,.286.044.374.242.44.462.132.617.308.617.682,0,.529-.374.836-1.343,1.012a17.306,17.306,0,0,1-2.728.154c-.44,0-.836,0-1.188-.022.44.155.506.243.506.4,0,.177-.088.221-.6.33-.109.155-.241.287-.352.418h3.521c.682-.726.858-.858,1.034-.858.22,0,.418.132,1.276.814.4.309.528.463.528.639,0,.286-.132.374-.968.638a15.076,15.076,0,0,1-1.958,1.826ZM349.773,30.1c0,1.078-.484,1.959-1.518,1.959a.9.9,0,0,1-.946-.9c0-.44.22-.7.726-.9.924-.308,1.21-.616,1.3-1.43a.115.115,0,0,1,.22-.022,4.59,4.59,0,0,1,.22,1.3m7.349-7.679h-5.941v1.21h5.941Zm0,1.716h-5.941v1.188h5.941Zm0,1.695h-5.941v1.32h5.941Zm-5.369,7.656a7.832,7.832,0,0,0,2.355,1.695,14.168,14.168,0,0,0,1.87-1.936h-4.005Zm2.9-3.586c-.264,0-.418-.132-.616-.55a3.749,3.749,0,0,0-1.078-1.32c-.088-.066-.066-.176.044-.176,1.65.066,2.442.462,2.442,1.188a.864.864,0,0,1-.792.858" fill="#3a4348"/>
      <path id="パス_173" data-name="パス 173" d="M375.729,24.382A13.616,13.616,0,0,0,379.6,26.8a20.222,20.222,0,0,0,5.391,1.276.115.115,0,0,1,0,.221c-.6.242-.815.549-1.079,1.342-.2.616-.264.682-.484.682a3.9,3.9,0,0,1-.99-.264,16.67,16.67,0,0,1-7.085-5.281c.044,1.364.088,2.222.088,2.685,0,.571-.4.814-1.21.814-.506,0-.836-.155-.836-.639,0-.506.044-1.3.066-2.222a18.693,18.693,0,0,1-5.127,3.762,8.238,8.238,0,0,0,1.936.177h5.347c.748-.881.924-1.013,1.1-1.013.22,0,.4.132,1.188.858.352.308.485.485.485.661,0,.22-.2.374-.683.572-.11.528-.286,1.232-.461,1.848h2.332c.77-.836.946-.968,1.122-.968.22,0,.418.132,1.188.814.352.33.484.484.484.66,0,.154-.066.286-.572.572a11.371,11.371,0,0,1-1.21,4.027,2.225,2.225,0,0,1-.99.88,3.71,3.71,0,0,1-1.584.286c-.441,0-.573-.066-.6-.33-.11-.881-.462-1.255-2.4-1.76-.11-.022-.11-.33,0-.309a31.048,31.048,0,0,0,3.256.243c.441,0,.682-.155.99-1.078a14.381,14.381,0,0,0,.529-2.531h-2.707c-.066.154-.11.308-.154.44a.9.9,0,0,1-1.012.682c-.748,0-1.166-.2-1.166-.572a1.1,1.1,0,0,1,.088-.418,24.138,24.138,0,0,0,.924-3.058h-2.816c-.506,5.148-2.6,7.393-7.855,8.845-.11.022-.2-.176-.11-.22,4.048-2.156,5.478-4.225,5.764-8.625h-.418a8.626,8.626,0,0,0-1.87.132l-.2-.771a19.67,19.67,0,0,1-3.741,1.321c-.11.022-.2-.2-.11-.243a20.4,20.4,0,0,0,7.393-5.918h-5.28a7.632,7.632,0,0,0-1.3.132l-.241-.814a6.479,6.479,0,0,0,1.474.176h6.975v-2.31a52.91,52.91,0,0,1-6.425.2c-.11,0-.154-.263-.044-.286a57.524,57.524,0,0,0,9.087-1.672,17.357,17.357,0,0,0,3.212-1.21c1.8,1.21,2.091,1.518,2.091,1.782s-.264.4-1.342.2a41.717,41.717,0,0,1-4.621.792v2.509h4.951c1.144-1.321,1.408-1.5,1.562-1.5.2,0,.44.175,1.5,1.034.484.4.66.594.66.748s-.066.22-.286.22Z" fill="#3a4348"/>
      <path id="パス_174" data-name="パス 174" d="M396.352,22.093V20.311a16.323,16.323,0,0,0-.088-1.892c2.53.242,2.794.462,2.794.682s-.242.418-.748.572v2.42h1.672a20.017,20.017,0,0,0,1.078-1.716,10.036,10.036,0,0,0,.726-1.672c1.761.66,2.465,1.056,2.465,1.386,0,.286-.242.374-.99.4a12.037,12.037,0,0,1-2.442,1.606h3.454c.9-.967,1.078-1.1,1.254-1.1.22,0,.4.133,1.5,1.078.507.44.638.6.638.77,0,.374-.2.463-.88.463a.719.719,0,0,0-.594.176,9.353,9.353,0,0,1-2.09,1.342c-.088.044-.242-.044-.2-.154a15.628,15.628,0,0,0,.572-2.068H390.323c.088,1.76-.7,2.882-1.76,2.882a1.1,1.1,0,0,1-1.144-1.145,1.058,1.058,0,0,1,.7-1.033,2.344,2.344,0,0,0,1.716-2.245c.022-.11.2-.132.22-.022a6.969,6.969,0,0,1,.22,1.056h2.882c-.374-.088-.572-.374-.814-1.21a4.193,4.193,0,0,0-.946-1.87.13.13,0,0,1,.132-.2c2.134.506,2.927,1.1,2.927,2.09,0,.66-.221,1.078-.793,1.188ZM395.1,37.5a17.6,17.6,0,0,1-6.886,1.54c-.111,0-.2-.264-.088-.286a17.122,17.122,0,0,0,4.312-1.936,5.328,5.328,0,0,0,1.365-1.145c2.178,1.079,2.376,1.188,2.376,1.475,0,.264-.11.308-1.079.352m-2.354-2.2c-.066.528-.506.727-1.144.727-.682,0-.924-.2-.924-.77,0-.661.088-1.409.088-4.115,0-1.211-.022-2.443-.066-3.675a20.608,20.608,0,0,1,2.376,1.056h8.89c.682-.748.858-.88,1.034-.88.22,0,.44.132,1.276.748.4.308.528.44.528.616,0,.2-.132.331-.66.683v.88c0,2.354.088,3.96.088,4.488,0,.616-.418.9-1.144.9-.682,0-.9-.155-.925-.661Zm1.32-8.317c-.066.462-.418.66-1.078.66-.594,0-.88-.22-.88-.616,0-.11.022-.462.022-.748V23.018a11.979,11.979,0,0,1,2.112,1.012h6.228c.726-.837.9-.968,1.078-.968.219,0,.418.131,1.188.77.352.286.484.44.484.616s-.154.33-.616.616v.308c0,.814.022,1.3.022,1.474,0,.484-.374.77-1.1.77-.617,0-.859-.154-.859-.638Zm8.1,2.046h-9.417v1.54h9.417Zm-9.417,3.565h9.417V31.071h-9.417Zm0,2.2h9.417V33.1h-9.417Zm7.921-10.253h-6.6v1.937h6.6ZM404.4,39.19a2.042,2.042,0,0,1-1.386-.638,11.661,11.661,0,0,0-3.983-2.355c-.11-.044-.088-.219.022-.219,4.313.153,6.425.879,6.425,2.288,0,.66-.484.924-1.078.924" fill="#3a4348"/>
      <path id="パス_175" data-name="パス 175" d="M422.376,25.571a19.137,19.137,0,0,0,1.3-2.4,16.176,16.176,0,0,0,.7-1.87c1.958.7,2.574,1.034,2.574,1.342,0,.264-.154.33-.968.4a15.994,15.994,0,0,1-2.9,2.531h3.433c.857-.991,1.034-1.123,1.21-1.123.22,0,.4.132,1.474,1.079.484.44.616.594.616.77,0,.4-.2.483-1.056.528-.374.044-.4.066-1.056.55a18.851,18.851,0,0,1-1.739,1.232.115.115,0,0,1-.176-.132,12.333,12.333,0,0,0,.88-2.4H412.518c.066,1.607-.528,3.037-1.8,3.037a1.109,1.109,0,0,1-1.144-1.188c0-.506.2-.77.836-1.056a2.476,2.476,0,0,0,1.562-2.421c0-.11.242-.131.264-.022a6.974,6.974,0,0,1,.242,1.145Zm-.946,8.6a21.982,21.982,0,0,0,8.141,1.98c.11,0,.11.2,0,.242a2.072,2.072,0,0,0-1.5,1.629c-.154.5-.221.593-.418.593a6.926,6.926,0,0,1-1.739-.44,27.558,27.558,0,0,1-4.972-2.31c-.4-.264-.77-.528-1.122-.814a23.356,23.356,0,0,1-9.638,3.433c-.11.022-.22-.287-.11-.331a26.724,26.724,0,0,0,8.471-4.246,15.107,15.107,0,0,1-3.058-4.8h-.528a11.286,11.286,0,0,0-1.959.176l-.241-.858a15.434,15.434,0,0,0,2.288.176h7.569c.858-.88,1.034-1.012,1.21-1.012.22,0,.374.132,1.342,1.012.44.418.572.594.572.77,0,.33-.2.462-1.034.7a17.02,17.02,0,0,1-3.543,3.961ZM411.462,22.16c-.11,0-.154-.33-.044-.33a49.33,49.33,0,0,0,11-2,14.863,14.863,0,0,0,2.794-1.233c1.892,1.167,2.355,1.518,2.355,1.849,0,.286-.352.374-1.321.2a46.159,46.159,0,0,1-7.789,1.364c1.584.616,2.354,1.32,2.354,2.244a1.165,1.165,0,0,1-1.166,1.189c-.528,0-.77-.286-.836-.991a5.093,5.093,0,0,0-.616-2.31c-.022-.044-.044-.066-.044-.11a45.963,45.963,0,0,1-6.689.132m4.027,3.345c-.594,0-.814-.352-.88-1.035a4.31,4.31,0,0,0-.573-2.068c-.065-.088.044-.176.155-.132,1.562.55,2.376,1.276,2.376,2.113a1.077,1.077,0,0,1-1.078,1.122m.484,3.608a14.51,14.51,0,0,0,3.586,3.917,16.248,16.248,0,0,0,3.125-3.917Z" fill="#3a4348"/>
      <path id="パス_176" data-name="パス 176" d="M441.315,22.093V20.311a16.315,16.315,0,0,0-.088-1.892c2.53.242,2.794.462,2.794.682s-.242.418-.748.572v2.42h1.672a19.776,19.776,0,0,0,1.078-1.716,10.036,10.036,0,0,0,.726-1.672c1.761.66,2.465,1.056,2.465,1.386,0,.286-.242.374-.99.4a12.039,12.039,0,0,1-2.442,1.606h3.454c.9-.967,1.078-1.1,1.254-1.1.22,0,.4.133,1.5,1.078.507.44.638.6.638.77,0,.374-.2.463-.88.463a.719.719,0,0,0-.594.176,9.352,9.352,0,0,1-2.09,1.342c-.088.044-.242-.044-.2-.154a15.629,15.629,0,0,0,.572-2.068H435.286c.088,1.76-.7,2.882-1.76,2.882a1.1,1.1,0,0,1-1.144-1.145,1.058,1.058,0,0,1,.7-1.033,2.344,2.344,0,0,0,1.716-2.245c.022-.11.2-.132.22-.022a6.973,6.973,0,0,1,.22,1.056h2.882c-.374-.088-.572-.374-.814-1.21a4.194,4.194,0,0,0-.946-1.87.13.13,0,0,1,.132-.2c2.134.506,2.927,1.1,2.927,2.09,0,.66-.221,1.078-.793,1.188ZM440.06,37.5a17.6,17.6,0,0,1-6.886,1.54c-.11,0-.2-.264-.088-.286a17.123,17.123,0,0,0,4.312-1.936,5.31,5.31,0,0,0,1.365-1.145c2.178,1.079,2.376,1.188,2.376,1.475,0,.264-.11.308-1.079.352m-2.354-2.2c-.066.528-.506.727-1.144.727-.682,0-.924-.2-.924-.77,0-.661.088-1.409.088-4.115,0-1.211-.022-2.443-.066-3.675a20.608,20.608,0,0,1,2.376,1.056h8.89c.682-.748.858-.88,1.034-.88.22,0,.44.132,1.276.748.4.308.528.44.528.616,0,.2-.132.331-.66.683v.88c0,2.354.088,3.96.088,4.488,0,.616-.418.9-1.144.9-.682,0-.9-.155-.925-.661Zm1.32-8.317c-.066.462-.418.66-1.078.66-.594,0-.88-.22-.88-.616,0-.11.022-.462.022-.748V23.018A11.977,11.977,0,0,1,439.2,24.03h6.228c.726-.837.9-.968,1.078-.968.219,0,.418.131,1.188.77.352.286.484.44.484.616s-.154.33-.616.616v.308c0,.814.022,1.3.022,1.474,0,.484-.374.77-1.1.77-.617,0-.859-.154-.859-.638Zm8.1,2.046h-9.417v1.54h9.417Zm-9.417,3.565h9.417V31.071h-9.417Zm0,2.2h9.417V33.1h-9.417Zm7.921-10.253h-6.6v1.937h6.6Zm3.741,14.654a2.042,2.042,0,0,1-1.386-.638A11.661,11.661,0,0,0,444,36.2c-.11-.044-.088-.219.022-.219,4.313.153,6.425.879,6.425,2.288,0,.66-.484.924-1.078.924" fill="#3a4348"/>
    </g>
  </g>
  <g id="グループ_173" data-name="グループ 173" transform="translate(0 0)">
    <g id="グループ_172" data-name="グループ 172" clip-path="url(#clip-path-2)">
      <rect id="長方形_86" data-name="長方形 86" width="221.571" height="57.255" transform="translate(12.575 47.944) rotate(-13.985)" fill="url(#linear-gradient)"/>
    </g>
  </g>
  <g id="グループ_175" data-name="グループ 175" transform="translate(0 0)">
    <g id="グループ_174" data-name="グループ 174" clip-path="url(#clip-path-3)">
      <rect id="長方形_87" data-name="長方形 87" width="9.086" height="8.84" transform="matrix(0.97, -0.242, 0.242, 0.97, 4.372, 49.508)" fill="url(#linear-gradient-2)"/>
    </g>
  </g>
  <g id="グループ_177" data-name="グループ 177" transform="translate(0 0)">
    <g id="グループ_176" data-name="グループ 176" clip-path="url(#clip-path-4)">
      <rect id="長方形_88" data-name="長方形 88" width="9.086" height="8.84" transform="translate(4.372 42.012) rotate(-13.985)" fill="url(#linear-gradient-3)"/>
    </g>
  </g>
  <g id="グループ_179" data-name="グループ 179" transform="translate(0 0)">
    <g id="グループ_178" data-name="グループ 178" clip-path="url(#clip-path-5)">
      <rect id="長方形_89" data-name="長方形 89" width="10.727" height="6.235" transform="translate(-0.918 47.374) rotate(-13.985)" fill="url(#linear-gradient-4)"/>
    </g>
  </g>
  <g id="グループ_181" data-name="グループ 181" transform="translate(0 0)">
    <g id="グループ_180" data-name="グループ 180" clip-path="url(#clip-path-6)">
      <rect id="長方形_90" data-name="長方形 90" width="221.572" height="57.255" transform="translate(245.283 47.944) rotate(-13.985)" fill="url(#linear-gradient-5)"/>
    </g>
  </g>
  <g id="グループ_183" data-name="グループ 183" transform="translate(0 0)">
    <g id="グループ_182" data-name="グループ 182" clip-path="url(#clip-path-7)">
      <rect id="長方形_91" data-name="長方形 91" width="9.083" height="8.839" transform="matrix(0.97, -0.242, 0.242, 0.97, 471.376, 42.012)" fill="url(#linear-gradient-6)"/>
    </g>
  </g>
  <g id="グループ_185" data-name="グループ 185" transform="translate(0 0)">
    <g id="グループ_184" data-name="グループ 184" clip-path="url(#clip-path-8)">
      <rect id="長方形_92" data-name="長方形 92" width="9.083" height="8.839" transform="translate(471.376 49.508) rotate(-13.985)" fill="url(#linear-gradient-7)"/>
    </g>
  </g>
  <g id="グループ_187" data-name="グループ 187" transform="translate(0 0)">
    <g id="グループ_186" data-name="グループ 186" clip-path="url(#clip-path-9)">
      <rect id="長方形_93" data-name="長方形 93" width="10.73" height="6.236" transform="matrix(0.97, -0.242, 0.242, 0.97, 475.698, 47.071)" fill="url(#linear-gradient-8)"/>
    </g>
  </g>
  <g id="グループ_189" data-name="グループ 189" transform="translate(0 0)">
    <g id="グループ_188" data-name="グループ 188" clip-path="url(#clip-path-10)">
      <rect id="長方形_94" data-name="長方形 94" width="4.997" height="6.88" transform="translate(238.226 46.217) rotate(-13.985)" fill="url(#linear-gradient-9)"/>
    </g>
  </g>
  <g id="グループ_191" data-name="グループ 191" transform="translate(0 0)">
    <g id="グループ_190" data-name="グループ 190" clip-path="url(#clip-path-11)">
      <rect id="長方形_95" data-name="長方形 95" width="4.997" height="6.88" transform="translate(241.834 46.217) rotate(-13.985)" fill="url(#linear-gradient-10)"/>
    </g>
  </g>
  <g id="グループ_193" data-name="グループ 193" transform="translate(0 0)">
    <g id="グループ_192" data-name="グループ 192" clip-path="url(#clip-path-12)">
      <rect id="長方形_96" data-name="長方形 96" width="221.571" height="57.255" transform="translate(12.575 6.355) rotate(-13.985)" fill="url(#linear-gradient-11)"/>
    </g>
  </g>
  <g id="グループ_195" data-name="グループ 195" transform="translate(0 0)">
    <g id="グループ_194" data-name="グループ 194" clip-path="url(#clip-path-13)">
      <rect id="長方形_97" data-name="長方形 97" width="9.086" height="8.841" transform="translate(4.372 7.918) rotate(-13.985)" fill="url(#linear-gradient-12)"/>
    </g>
  </g>
  <g id="グループ_197" data-name="グループ 197" transform="translate(0 0)">
    <g id="グループ_196" data-name="グループ 196" clip-path="url(#clip-path-14)">
      <rect id="長方形_98" data-name="長方形 98" width="9.086" height="8.841" transform="matrix(0.97, -0.242, 0.242, 0.97, 4.372, 0.422)" fill="url(#linear-gradient-13)"/>
    </g>
  </g>
  <g id="グループ_199" data-name="グループ 199" transform="translate(0 0)">
    <g id="グループ_198" data-name="グループ 198" clip-path="url(#clip-path-15)">
      <rect id="長方形_99" data-name="長方形 99" width="10.727" height="6.235" transform="translate(-0.918 5.784) rotate(-13.985)" fill="url(#linear-gradient-14)"/>
    </g>
  </g>
  <g id="グループ_201" data-name="グループ 201" transform="translate(0 0)">
    <g id="グループ_200" data-name="グループ 200" clip-path="url(#clip-path-16)">
      <rect id="長方形_100" data-name="長方形 100" width="221.572" height="57.255" transform="matrix(0.97, -0.242, 0.242, 0.97, 245.283, 6.355)" fill="url(#linear-gradient-15)"/>
    </g>
  </g>
  <g id="グループ_203" data-name="グループ 203" transform="translate(0 0)">
    <g id="グループ_202" data-name="グループ 202" clip-path="url(#clip-path-17)">
      <rect id="長方形_101" data-name="長方形 101" width="9.083" height="8.84" transform="translate(471.376 0.422) rotate(-13.985)" fill="url(#linear-gradient-16)"/>
    </g>
  </g>
  <g id="グループ_205" data-name="グループ 205" transform="translate(0 0)">
    <g id="グループ_204" data-name="グループ 204" clip-path="url(#clip-path-18)">
      <rect id="長方形_102" data-name="長方形 102" width="9.083" height="8.84" transform="translate(471.376 7.918) rotate(-13.985)" fill="url(#linear-gradient-17)"/>
    </g>
  </g>
  <g id="グループ_207" data-name="グループ 207" transform="translate(0 0)">
    <g id="グループ_206" data-name="グループ 206" clip-path="url(#clip-path-19)">
      <rect id="長方形_103" data-name="長方形 103" width="10.73" height="6.237" transform="matrix(0.97, -0.242, 0.242, 0.97, 475.698, 5.481)" fill="url(#linear-gradient-18)"/>
    </g>
  </g>
  <g id="グループ_209" data-name="グループ 209" transform="translate(0 0)">
    <g id="グループ_208" data-name="グループ 208" clip-path="url(#clip-path-20)">
      <rect id="長方形_104" data-name="長方形 104" width="4.997" height="6.879" transform="matrix(0.97, -0.242, 0.242, 0.97, 238.226, 4.627)" fill="url(#linear-gradient-19)"/>
    </g>
  </g>
  <g id="グループ_211" data-name="グループ 211" transform="translate(0 0)">
    <g id="グループ_210" data-name="グループ 210" clip-path="url(#clip-path-21)">
      <rect id="長方形_105" data-name="長方形 105" width="4.996" height="6.879" transform="translate(241.834 4.627) rotate(-13.985)" fill="url(#linear-gradient-20)"/>
    </g>
  </g>
</svg>
