<svg id="logo_g" xmlns="http://www.w3.org/2000/svg" xmlns:xlink="http://www.w3.org/1999/xlink" width="200.575" height="107.541" viewBox="0 0 200.575 107.541">
  <defs>
    <clipPath id="clip-path">
      <rect id="長方形_25" data-name="長方形 25" width="200.575" height="107.541" fill="#555"/>
    </clipPath>
  </defs>
  <path id="パス_96" data-name="パス 96" d="M125.914.6H130.1V20.343h10.006v3.79H125.914Z" fill="#555"/>
  <g id="グループ_35" data-name="グループ 35">
    <g id="グループ_34" data-name="グループ 34" clip-path="url(#clip-path)">
      <path id="パス_97" data-name="パス 97" d="M163.244,5.65a3.874,3.874,0,0,0-1.778-1.413,6.218,6.218,0,0,0-2.344-.448,5.928,5.928,0,0,0-1.413.166,3.841,3.841,0,0,0-1.23.532,2.806,2.806,0,0,0-.881.947,2.744,2.744,0,0,0-.332,1.379,2.158,2.158,0,0,0,.831,1.829,8.163,8.163,0,0,0,2.061,1.1q1.23.465,2.693.9a11.007,11.007,0,0,1,2.692,1.2,6.674,6.674,0,0,1,2.061,2.028,6.024,6.024,0,0,1,.831,3.357,7.387,7.387,0,0,1-.7,3.308,6.748,6.748,0,0,1-1.878,2.344,8.129,8.129,0,0,1-2.742,1.395,11.447,11.447,0,0,1-3.291.466A12.363,12.363,0,0,1,153.6,24a8.147,8.147,0,0,1-3.491-2.46l3.158-3.058a5.289,5.289,0,0,0,2.012,1.811,5.649,5.649,0,0,0,2.642.648,5.578,5.578,0,0,0,1.463-.2,4.585,4.585,0,0,0,1.33-.6,3.137,3.137,0,0,0,.964-1.015,2.719,2.719,0,0,0,.365-1.413,2.46,2.46,0,0,0-.831-1.994,7.343,7.343,0,0,0-2.061-1.181q-1.23-.482-2.692-.914a11.307,11.307,0,0,1-2.693-1.18,6.551,6.551,0,0,1-2.061-1.994,5.945,5.945,0,0,1-.831-3.341,6.348,6.348,0,0,1,.748-3.158,6.856,6.856,0,0,1,1.961-2.211A8.6,8.6,0,0,1,156.363.431,12,12,0,0,1,159.554,0a11.661,11.661,0,0,1,3.607.565A8.373,8.373,0,0,1,166.3,2.426Z" fill="#555"/>
      <path id="パス_98" data-name="パス 98" d="M179.333.6h9.274a14.227,14.227,0,0,1,4.489.715,10.913,10.913,0,0,1,3.823,2.177,10.648,10.648,0,0,1,2.658,3.673,12.555,12.555,0,0,1,1,5.2,10.918,10.918,0,0,1-4.105,8.891,12.6,12.6,0,0,1-4.022,2.161,14.01,14.01,0,0,1-4.338.715h-8.776Zm7.313,19.745a14.881,14.881,0,0,0,3.706-.448,8.808,8.808,0,0,0,3.043-1.4,6.617,6.617,0,0,0,2.044-2.46,8.213,8.213,0,0,0,.747-3.672,9.147,9.147,0,0,0-.665-3.658,6.332,6.332,0,0,0-1.845-2.476,7.65,7.65,0,0,0-2.791-1.395,13.149,13.149,0,0,0-3.541-.45h-3.823V20.343Z" fill="#555"/>
      <path id="パス_99" data-name="パス 99" d="M17.405,17.228a23.55,23.55,0,0,0-2.774-.134H3.839c-1.007,0-2.014.058-2.793.134V14.8a22.659,22.659,0,0,0,2.793.133H14.631a20.6,20.6,0,0,0,2.774-.133Z" fill="#555"/>
      <path id="パス_100" data-name="パス 100" d="M19.837,15.745a.623.623,0,0,0,.171.02c.133,0,.532-.02,1.159-.077.02-.93.038-1.824.038-2.507a23.187,23.187,0,0,0-.152-3.629,10.017,10.017,0,0,0,1.33.075h.609a7.789,7.789,0,0,0,.741-1.994l2.013.3c-.341.7-.588,1.216-.855,1.691h1.083a10.655,10.655,0,0,0,1.464-.075,7.251,7.251,0,0,0-.058,1.139v4.142a3.911,3.911,0,0,0,.456-.1V16.41c-.227.058-.323.076-.456.114v6.233c0,.836-.133,1.177-.569,1.463a2.7,2.7,0,0,1-1.464.285,11.541,11.541,0,0,1-1.443-.1,5.314,5.314,0,0,0-.362-1.843,10.015,10.015,0,0,0,1.805.191c.305,0,.381-.058.381-.381V16.848a5.566,5.566,0,0,0-.647.094.319.319,0,0,1-.132.019v2.85A12.269,12.269,0,0,0,25,21.465H23.428a9.1,9.1,0,0,0,.1-1.654V17.17l-.723.114c-.133,3.42-.589,5.51-1.614,7.41a8.354,8.354,0,0,0-1.539-1.5,7.436,7.436,0,0,0,1.178-3.134,18.361,18.361,0,0,0,.265-2.546c-.665.094-1.063.151-1.178.189l-.265-1.957Zm3.06-3.306c-.02,1.425-.02,1.805-.038,3.1.912-.1,2.108-.266,2.869-.4V11.2H22.9ZM24.36,11.7a11.7,11.7,0,0,1,1.1,2.433l-1.368.683a9.434,9.434,0,0,0-1.007-2.546Zm11.513,4.845a6.34,6.34,0,0,0-.341.7,14.41,14.41,0,0,1-2.261,3.8,10.228,10.228,0,0,0,3.438,1.71,8.107,8.107,0,0,0-1.045,1.937,12.35,12.35,0,0,1-3.705-2.28A13.972,13.972,0,0,1,28.6,24.656a5.577,5.577,0,0,0-1.2-1.748,10.3,10.3,0,0,0,3.249-1.9,11.577,11.577,0,0,1-2.015-3.743c-.151.018-.209.018-.456.056V15.5a6.814,6.814,0,0,0,1.274.076h4.255a5.958,5.958,0,0,0,1.274-.076Zm-5-6.4c-.076,2.375-.627,3.761-1.9,4.9a5.314,5.314,0,0,0-1.35-1.482c1.1-.8,1.539-1.918,1.539-4.066a5.387,5.387,0,0,0-.094-1.083,13.556,13.556,0,0,0,1.481.076h2.186a12.511,12.511,0,0,0,1.577-.076c-.038.418-.058.874-.058,1.539v2.717c0,.267.058.323.323.323.38,0,.513-.038.571-.209a10.1,10.1,0,0,0,.189-1.9,4.347,4.347,0,0,0,1.483.683c-.229,2.775-.438,3.04-2.319,3.04-1.728,0-2-.152-2-1.177V10.141Zm-.361,7.105c.323.723.532,1.2.665,1.426a7.555,7.555,0,0,0,.761,1.083,8.468,8.468,0,0,0,1.577-2.509Z" fill="#555"/>
      <path id="パス_101" data-name="パス 101" d="M43.568,22.908a10.086,10.086,0,0,0,.113,1.862h-2.2a12.825,12.825,0,0,0,.113-1.9V18.291a14.655,14.655,0,0,1-2.032,1.558,7.11,7.11,0,0,0-.931-1.9,12.842,12.842,0,0,0,3.134-2.47,10.672,10.672,0,0,0,1.977-2.812H40.775a11.356,11.356,0,0,0-1.52.076V10.71a10.745,10.745,0,0,0,1.424.076h.932V9.266A7.869,7.869,0,0,0,41.5,7.88h2.184a7.62,7.62,0,0,0-.094,1.4v1.5h.759a6.732,6.732,0,0,0,1.046-.057l.873.951a6.063,6.063,0,0,0-.4.778,14.854,14.854,0,0,1-1.824,3.116,10.166,10.166,0,0,0,2.887,2.3,8.62,8.62,0,0,0-.987,1.806,9.973,9.973,0,0,1-2.375-2.053Zm7.752-.874h2.185a19.547,19.547,0,0,0,2.089-.1v2.185a18.214,18.214,0,0,0-2.089-.113H47.273a17.11,17.11,0,0,0-2.053.113V21.939a20.3,20.3,0,0,0,2.072.1h1.995V14.909H47.919a17.793,17.793,0,0,0-1.786.1V12.933a11.741,11.741,0,0,0,1.786.1h1.368V9.817a15.242,15.242,0,0,0-.114-1.9h2.261a12.019,12.019,0,0,0-.114,1.9v3.211h1.919a11.28,11.28,0,0,0,1.805-.1v2.072a17.888,17.888,0,0,0-1.805-.1H51.32Z" fill="#555"/>
      <path id="パス_102" data-name="パス 102" d="M58.407,24.714a17.51,17.51,0,0,0,.114-2.375V10.748a18.753,18.753,0,0,0-.114-2.184,17.233,17.233,0,0,0,2.146.1H71.935a17.241,17.241,0,0,0,2.147-.1,18.66,18.66,0,0,0-.1,2.184v11.61a17.186,17.186,0,0,0,.114,2.356h-2.09V23.706H60.5v1.008ZM60.5,21.94H72.011V10.426H60.5Zm7.03-9.8a5.954,5.954,0,0,0-.1-1.33h2.091a5.924,5.924,0,0,0-.1,1.33v.684h.494a9.976,9.976,0,0,0,1.482-.095v1.881a10.968,10.968,0,0,0-1.52-.1h-.456v5.13c0,1.463-.513,1.824-2.508,1.824-.475,0-.608,0-1.71-.076a5.021,5.021,0,0,0-.475-1.824,17.6,17.6,0,0,0,2.2.19c.437,0,.589-.114.589-.494v-4.75h-4.56a10.126,10.126,0,0,0-1.691.1V12.725a9.454,9.454,0,0,0,1.691.095h4.56Zm-3.078,7.087A12.8,12.8,0,0,0,62.3,15.784l1.52-1.007a17.657,17.657,0,0,1,2.3,3.382Z" fill="#555"/>
      <path id="パス_103" data-name="パス 103" d="M77.939,12.458A23.034,23.034,0,0,1,81.188,14.7l-1.141,1.654A18.757,18.757,0,0,0,76.8,13.922Zm3.249,6.251c-.646,1.692-1.064,2.642-1.786,4.161-.305.647-.305.647-.57,1.236-.133.285-.133.285-.209.456l-1.748-1.539a21.657,21.657,0,0,0,2.678-5.472Zm-2.356-10.7a18.228,18.228,0,0,1,3.116,2.337l-1.235,1.6A17.727,17.727,0,0,0,77.6,9.418ZM81.15,22.054c.266.019.418.019.607.019.324,0,.818-.019,1.35-.057a26.531,26.531,0,0,0,2.261-5.035H83.411a15.178,15.178,0,0,0-1.976.114V15.042a13.7,13.7,0,0,0,1.994.115H86.28V12.42H84.094c-.721,0-1.348.038-1.937.1V10.5a12.783,12.783,0,0,0,1.957.115H86.28v-.78a11.808,11.808,0,0,0-.1-1.919h2.166a12.571,12.571,0,0,0-.1,1.919v.78h2.926a12.639,12.639,0,0,0,1.863-.115v2.015a12.068,12.068,0,0,0-1.843-.1H88.255v2.737h3.516a13.577,13.577,0,0,0,1.9-.115v2.053a14.385,14.385,0,0,0-1.9-.114H87.5a28.468,28.468,0,0,1-1.236,3.04c-.056.152-.36.76-.892,1.843a45.589,45.589,0,0,0,4.845-.608,24.182,24.182,0,0,0-1.787-2.584l1.635-.837a38.722,38.722,0,0,1,3.648,5.624l-1.767,1.065c-.4-.8-.514-1.045-.836-1.672a64.2,64.2,0,0,1-6.594.95c-2.051.209-2.393.247-2.964.36Z" fill="#555"/>
      <path id="パス_104" data-name="パス 104" d="M105.375,8.164a14.515,14.515,0,0,0-.114,1.881,13.144,13.144,0,0,0,1.786,7.2,12.473,12.473,0,0,0,2.869,3.458,12.877,12.877,0,0,0,2.813,1.957,6.727,6.727,0,0,0-1.407,2.033,18.235,18.235,0,0,1-4.635-4.294,14.225,14.225,0,0,1-2.414-5,13.175,13.175,0,0,1-1.444,3.687,12.777,12.777,0,0,1-2.793,3.495,16.1,16.1,0,0,1-2.831,2.109,5.326,5.326,0,0,0-1.425-1.881,12.021,12.021,0,0,0,3.991-3.058c2.355-2.7,3.343-5.682,3.343-10.052a8.973,8.973,0,0,0-.094-1.539Z" fill="#555"/>
      <path id="パス_105" data-name="パス 105" d="M4.119,39.077a15.628,15.628,0,0,0-.192-3.216l.912.048a10.661,10.661,0,0,1,1.168.176.215.215,0,0,1,.16.208,1.317,1.317,0,0,1-.1.416,10.587,10.587,0,0,0-.128,2.368c.4,0,1.584,0,3.568-.016a18.863,18.863,0,0,0-.176-3.312,15.179,15.179,0,0,1,1.808.176c.336.048.432.112.432.256a1.04,1.04,0,0,1-.112.416,5.5,5.5,0,0,0-.112,1.12v1.328c1.616-.032,2.224-.048,2.7-.1a.6.6,0,0,1,.16-.016.2.2,0,0,1,.175.08,3.63,3.63,0,0,1,.081.992c0,.752-.032.832-.272.832-.032,0-.032,0-.384-.032a24.409,24.409,0,0,0-2.5-.048,9.164,9.164,0,0,1-1.216,4.96,7.4,7.4,0,0,1-2.816,2.608,4.141,4.141,0,0,1-1.168.464c-.144,0-.16-.016-.5-.368a4.118,4.118,0,0,0-1.072-.848c2.3-.832,3.5-1.776,4.24-3.328a8.456,8.456,0,0,0,.7-3.5H8.455c-.144,0-.592,0-1.248.016-.288.016-.72.016-1.3.032,0,1.136,0,1.136.032,2.576v.208c0,.224-.048.3-.224.368a5.859,5.859,0,0,1-1.072.1c-.56,0-.64-.048-.64-.336v-.24c.064-1.456.08-1.712.1-2.64-.832.016-2.3.112-2.688.176a.2.2,0,0,1-.1.016.228.228,0,0,1-.24-.208,10.665,10.665,0,0,1-.192-1.84,18.882,18.882,0,0,0,2.608.112Z" fill="#555"/>
      <path id="パス_106" data-name="パス 106" d="M27.829,45.142a7.046,7.046,0,0,1,1.648,1.775c0,.145-.208.4-.7.88-.368.353-.528.464-.64.464a.393.393,0,0,1-.24-.111c-.175-.208-.175-.208-.912-1.04a21.059,21.059,0,0,0-3.471-3.04,24.989,24.989,0,0,1-3.633,3.088,8.016,8.016,0,0,1-1.968,1.1c-.16,0-.176-.015-.559-.447a6.334,6.334,0,0,0-.993-.864,17.125,17.125,0,0,0,4.72-3.153,19.532,19.532,0,0,0,4.017-5.1,59.866,59.866,0,0,0-6.288.128c-.193.015-.225.015-.257.015a.274.274,0,0,1-.3-.256,11.1,11.1,0,0,1-.112-1.839,43.649,43.649,0,0,0,5.1.208c.945,0,1.936-.033,2.464-.1a1.848,1.848,0,0,0,.576-.145.348.348,0,0,1,.193-.032c.271,0,.559.225.943.736a2.267,2.267,0,0,1,.48.945c0,.191-.047.256-.463.639a4.987,4.987,0,0,0-.865,1.2,23.2,23.2,0,0,1-1.824,2.544,21.846,21.846,0,0,1,3.088,2.4" fill="#555"/>
      <path id="パス_107" data-name="パス 107" d="M32.937,41.749c-.177.016-.289.016-.353.016a.358.358,0,0,0-.144.016H32.3a.285.285,0,0,1-.3-.272,8.319,8.319,0,0,1-.128-1.647,20.831,20.831,0,0,0,2.464.111q3.143.048,3.793.049c2.67,0,5.792-.049,6.288-.1h.143c.224,0,.224.017.224,1.072,0,.7-.032.784-.256.784H44.41c-.737-.032-1.041-.032-4.8-.08a9.824,9.824,0,0,1-.337,2.464,6.509,6.509,0,0,1-3.04,4.065,2.6,2.6,0,0,1-.942.447c-.082,0-.145-.031-.274-.159a4.164,4.164,0,0,0-1.343-1.025c2.832-1.328,3.871-2.847,3.967-5.807-2.591.015-3.472.031-4.7.063m5.584-5.408c1.535,0,3.215-.048,3.889-.128h.078c.225,0,.272.112.272.608v.336c0,.1,0,.256-.015.449,0,.431-.032.479-.335.479h-.194c-.431-.015-3.36-.063-4.079-.063-1.921,0-3.311.031-3.824.1a.4.4,0,0,1-.128.016.237.237,0,0,1-.271-.208,11.316,11.316,0,0,1-.129-1.728c.687.081,2.768.144,4.736.144" fill="#555"/>
      <path id="パス_108" data-name="パス 108" d="M52.32,43.6a16.006,16.006,0,0,1-3.216,1.68c-.16,0-.16,0-.464-.335a6.014,6.014,0,0,0-.992-.881,17.618,17.618,0,0,0,6.1-3.584A7.609,7.609,0,0,0,55.3,38.742c.847.558,1.487,1.168,1.487,1.407,0,.1-.048.143-.192.208a3.448,3.448,0,0,0-.848.64c-.336.3-.976.832-1.695,1.376v2.56c0,1.393.031,2.817.08,3.487V48.6c0,.257-.161.287-1.168.287-.641,0-.7-.015-.7-.19v-.113c0-.047,0-.161.015-.321.032-.4.048-1.807.048-3.327Z" fill="#555"/>
      <path id="パス_109" data-name="パス 109" d="M74.09,40.31c0,.735-.016.832-.224.832h-.08c-.559-.032-.736-.032-4.832-.032a10.334,10.334,0,0,1-2.08,5.744,6.619,6.619,0,0,1-1.824,1.695.679.679,0,0,1-.336.128.473.473,0,0,1-.336-.143,4.124,4.124,0,0,0-1.487-.832,7.519,7.519,0,0,0,4.08-6.577c-2.977.017-4.609.065-5.04.128a.381.381,0,0,1-.128.017.227.227,0,0,1-.24-.208,6.361,6.361,0,0,1-.225-1.776,47.521,47.521,0,0,0,5.729.143v-.72a12.561,12.561,0,0,0-.208-2.847,15.158,15.158,0,0,1,2.1.16c.24.048.336.128.336.288,0,.1,0,.111-.111.4a5.174,5.174,0,0,0-.112,1.329c0,.383,0,.416-.017,1.376,2.192-.016,3.921-.1,4.656-.176a.378.378,0,0,1,.128-.017c.208,0,.256.145.256.7v.385Z" fill="#555"/>
      <path id="パス_110" data-name="パス 110" d="M83.1,38.869a35.947,35.947,0,0,0-5.391.257.061.061,0,0,1-.048.016c-.305,0-.4-.528-.449-2.177a31.144,31.144,0,0,0,4.176.159c2.145,0,4.657-.047,5.056-.094a2.091,2.091,0,0,0,.673-.161.373.373,0,0,1,.176-.032c.271,0,.607.255,1.12.864.3.384.368.479.368.656a.57.57,0,0,1-.16.351c-.16.193-.177.242-.529,1.362a14.846,14.846,0,0,1-5.072,7.2,7.5,7.5,0,0,1-2.111,1.295c-.177,0-.208-.016-.576-.384a4.6,4.6,0,0,0-1.2-.911A12.833,12.833,0,0,0,84,43.542a10.8,10.8,0,0,0,2.16-4.688c-1.248.015-1.248.015-3.057.015m6.912-1.616c-.351.305-.559.448-.656.448s-.1,0-.384-.481a7.084,7.084,0,0,0-1.008-1.3c-.064-.062-.08-.1-.08-.142,0-.128.609-.577.785-.577.127,0,.32.161.8.7a3.712,3.712,0,0,1,.737,1.04c0,.112-.048.174-.193.3m.72-.815A6.81,6.81,0,0,0,89.547,34.9c-.064-.064-.08-.1-.08-.128,0-.08.08-.159.353-.352.208-.161.3-.192.416-.192.176.016.592.417,1.136,1.121a1.831,1.831,0,0,1,.368.607c0,.08-.049.161-.24.3a1.649,1.649,0,0,1-.592.336c-.065,0-.113-.031-.177-.158" fill="#555"/>
      <path id="パス_111" data-name="パス 111" d="M97.227,37.012a.275.275,0,0,1,.19.273.737.737,0,0,1-.031.223,4.225,4.225,0,0,0-.112,1.248c-.031,3.9-.736,6.4-2.416,8.529-.367.448-.512.592-.671.592a.7.7,0,0,1-.273-.1,4.424,4.424,0,0,0-1.551-.576,8.193,8.193,0,0,0,2.015-2.8,12.217,12.217,0,0,0,.945-5.313,12.541,12.541,0,0,0-.161-2.336,7.756,7.756,0,0,1,2.065.256m1.711,1.553a13.866,13.866,0,0,0-.144-2.08c1.728.063,2.352.191,2.352.512a.824.824,0,0,1-.08.32,2.065,2.065,0,0,0-.112.592c-.047.431-.047.431-.08,7.471a14.764,14.764,0,0,0,4.7-3.952,7.965,7.965,0,0,0,.24,1.921.672.672,0,0,1,.049.272c0,.256-.161.464-.9,1.152a14.251,14.251,0,0,1-3.472,2.432,3.022,3.022,0,0,0-.752.5.627.627,0,0,1-.368.16,3.105,3.105,0,0,1-1.184-.784c-.32-.321-.464-.56-.464-.768a.782.782,0,0,1,.064-.272,4.012,4.012,0,0,0,.144-1.472Z" fill="#555"/>
      <path id="パス_112" data-name="パス 112" d="M109.878,41.941h-.353a.36.36,0,0,0-.144.016h-.144a.284.284,0,0,1-.3-.256,8.439,8.439,0,0,1-.128-1.648c.96.1,3.168.16,6.193.16,2.719,0,5.855-.048,6.351-.1h.145c.223,0,.223.016.223,1.072,0,.705-.032.784-.255.784h-.113c-.736-.032-1.04-.032-4.8-.079a9.791,9.791,0,0,1-.335,2.463,6.517,6.517,0,0,1-3.041,4.064,2.6,2.6,0,0,1-.944.448c-.08,0-.143-.032-.271-.16a3.95,3.95,0,0,0-1.345-1.023c2.832-1.329,3.872-2.849,3.969-5.809-2.593.017-3.473.017-4.7.064m1.647-5.488c.368.016.688.032.864.032.817.048,1.056.048,2.113.048a43.364,43.364,0,0,0,4.431-.128h.08c.224,0,.273.113.273.608v.337c0,.1,0,.255-.017.447,0,.433-.032.48-.336.48-.176,0-1.344-.032-2.464-.047-.24-.017-.639-.017-1.215-.017-2.048,0-3.489.032-4,.1a.426.426,0,0,1-.128.015.24.24,0,0,1-.273-.208,11.738,11.738,0,0,1-.128-1.728,5.7,5.7,0,0,0,.8.064m9.12,1.248a7,7,0,0,0-1.183-1.616c-.1-.1-.1-.1-.1-.144,0-.1.1-.192.368-.4.256-.176.353-.24.448-.24.128,0,.288.128.689.56a4.241,4.241,0,0,1,.88,1.2c0,.1-.048.159-.241.319-.352.305-.576.448-.7.448-.064,0-.1-.032-.16-.128m2.256-1.2a.973.973,0,0,1-.432.225c-.047,0-.1-.033-.16-.145a7.557,7.557,0,0,0-1.2-1.568.233.233,0,0,1-.08-.128,1.8,1.8,0,0,1,.816-.575c.128.015.176.031.352.191a5.439,5.439,0,0,1,1.184,1.536c0,.1-.127.208-.48.464" fill="#555"/>
      <path id="パス_113" data-name="パス 113" d="M128.024,39.27a15.67,15.67,0,0,0-.191-3.217c.288.017.288.017.912.049a10.459,10.459,0,0,1,1.168.176.215.215,0,0,1,.16.208,1.3,1.3,0,0,1-.1.416,10.621,10.621,0,0,0-.127,2.368c.4,0,1.583,0,3.568-.017a18.841,18.841,0,0,0-.176-3.311,15.246,15.246,0,0,1,1.808.175c.336.048.431.113.431.256a1.029,1.029,0,0,1-.111.416,5.373,5.373,0,0,0-.112,1.12v1.329c1.616-.033,2.223-.048,2.7-.1a.563.563,0,0,1,.16-.017.209.209,0,0,1,.176.08,3.7,3.7,0,0,1,.08.993c0,.752-.032.832-.273.832-.031,0-.031,0-.383-.033a24.939,24.939,0,0,0-2.5-.047,9.161,9.161,0,0,1-1.215,4.959,7.412,7.412,0,0,1-2.817,2.609,4.161,4.161,0,0,1-1.168.464c-.143,0-.159-.017-.5-.368a4.12,4.12,0,0,0-1.071-.849c2.3-.831,3.5-1.775,4.24-3.327a8.461,8.461,0,0,0,.7-3.5h-1.04c-.143,0-.592,0-1.247.016-.288.015-.721.015-1.3.032,0,1.135,0,1.135.033,2.576v.207c0,.225-.048.305-.224.368a5.862,5.862,0,0,1-1.072.1c-.56,0-.64-.049-.64-.336v-.24c.063-1.456.08-1.712.1-2.641-.832.017-2.3.112-2.689.177a.211.211,0,0,1-.1.015.227.227,0,0,1-.24-.208,10.768,10.768,0,0,1-.191-1.839,19.028,19.028,0,0,0,2.607.112Zm9.04-1.425a7.482,7.482,0,0,0-1.04-1.76.14.14,0,0,1-.048-.095c0-.128.577-.512.752-.512s.464.351.929,1.055a2.619,2.619,0,0,1,.464.865c0,.111-.112.223-.464.416a1.39,1.39,0,0,1-.433.176c-.08,0-.127-.033-.16-.145m1.889-2.416a3.971,3.971,0,0,1,.687,1.2c0,.1-.127.208-.4.368a1.5,1.5,0,0,1-.465.193.18.18,0,0,1-.159-.145,8.144,8.144,0,0,0-1.009-1.712c-.048-.048-.063-.08-.063-.112,0-.128.559-.464.767-.464.128,0,.256.128.641.672" fill="#555"/>
      <path id="パス_114" data-name="パス 114" d="M148.969,43.509c0,2.017.032,3.5.1,4.593v.111c0,.176-.048.24-.208.256a9.617,9.617,0,0,1-1.408.08c-.5,0-.543-.031-.543-.3v-.08c.063-.815.1-2.639.1-4.656V41.4a26.254,26.254,0,0,1-2.544,1.5,7.143,7.143,0,0,1-1.92.847.419.419,0,0,1-.337-.176,5.959,5.959,0,0,0-1.343-1.168A22.013,22.013,0,0,0,145.5,40.2a21.757,21.757,0,0,0,4.64-3.872,4.04,4.04,0,0,0,.528-.752c1.008.672,1.728,1.344,1.728,1.648,0,.1-.064.177-.256.257a4.231,4.231,0,0,0-1.151.863c-.7.624-1.393,1.185-2.017,1.648Z" fill="#555"/>
      <path id="パス_115" data-name="パス 115" d="M168.209,39.893a.84.84,0,0,1,.112.368c0,.16-.064.272-.272.56a16.633,16.633,0,0,1-3.248,3.184A24.182,24.182,0,0,1,159.921,47c-1.232.576-1.3.608-1.488.784-.128.128-.193.16-.288.16-.144,0-.272-.128-.512-.48a7.163,7.163,0,0,1-.8-1.7,18.376,18.376,0,0,0,5.424-2.415,14.33,14.33,0,0,0,5.216-5.185,8.738,8.738,0,0,0,.736,1.728m-10.656-2.688c.271-.3.384-.384.528-.384a9.354,9.354,0,0,1,2.5,1.584c.608.5.8.7.8.864a3.18,3.18,0,0,1-.672.976c-.352.4-.528.544-.656.544-.112,0-.112,0-.768-.624a13.438,13.438,0,0,0-1.665-1.328c-.559-.368-.559-.368-.671-.432a.193.193,0,0,1-.1-.144,3.2,3.2,0,0,1,.7-1.056" fill="#555"/>
      <path id="パス_116" data-name="パス 116" d="M172.729,41.7c-.033,0-.113.015-.128.015-.352,0-.5-.543-.609-2.191a33.7,33.7,0,0,0,4.865.176c3.2,0,4.064,0,4.368-.032a2.067,2.067,0,0,0,.608-.128.737.737,0,0,1,.3-.063.925.925,0,0,1,.687.383A2.794,2.794,0,0,1,183.545,41c0,.176-.08.3-.272.511-.128.113-.208.256-.512.945a10.561,10.561,0,0,1-4.16,4.992,9.4,9.4,0,0,1-2.577,1.2c-.223,0-.351-.1-.624-.417a2.825,2.825,0,0,0-1.055-.9,11.651,11.651,0,0,0,4.672-2.591,8.181,8.181,0,0,0,2.032-3.376c-6.065.079-7.185.127-8.32.335m5.232-5.68a33.969,33.969,0,0,0,3.5-.127h.191c.208,0,.288.158.3.64,0,.192,0,.367.016.528v.063c0,.576-.064.736-.272.736-.064,0-.192-.017-.337-.017-.3-.031-1.5-.062-2-.062-2.4,0-4.111.031-5.055.112h-.128c-.416,0-.48-.24-.577-2.033a34.4,34.4,0,0,0,4.353.16" fill="#555"/>
      <path id="パス_117" data-name="パス 117" d="M190.951,42.549c0,.08-.032.128-.16.272a2.05,2.05,0,0,0-.336.608c-.7,1.552-1.968,3.264-2.432,3.264-.1,0-.128-.016-.464-.3a4.336,4.336,0,0,0-1.072-.592,6.963,6.963,0,0,0,2.608-4.176c1.3.416,1.856.7,1.856.928m1.488-2.352a46.754,46.754,0,0,0-4.944.144h-.032a.32.32,0,0,1-.3-.256A6.466,6.466,0,0,1,187,38.4a32.929,32.929,0,0,0,4.832.192h.608v-.432a11.652,11.652,0,0,0-.176-2.208,10.023,10.023,0,0,1,2.16.24.242.242,0,0,1,.176.256.854.854,0,0,1-.112.352,3.174,3.174,0,0,0-.192,1.344V38.6h1.04c1.04,0,3.088-.08,3.728-.128a.6.6,0,0,1,.176-.016.179.179,0,0,1,.192.16c.016.08.032.544.032.752,0,.848-.016.9-.336.9-.08,0-.24,0-1.168-.032-.56-.016-.768-.016-3.648-.032v2.992c0,1.6,0,1.6.032,2.96.016.192.016.336.016.432,0,1.552-.56,2.064-2.224,2.064a4.55,4.55,0,0,1-1.344-.128c-.112-.048-.144-.128-.192-.368a5.922,5.922,0,0,0-.5-1.5,6.229,6.229,0,0,0,1.68.224c.576,0,.688-.144.688-.864Zm6.512,6.24a.363.363,0,0,1-.224.112c-.288,0-.864-.656-1.568-1.76a11.382,11.382,0,0,1-1.248-2.5c0-.128.112-.24.368-.368a4.2,4.2,0,0,1,1.056-.432c.128,0,.192.08.288.272a12.308,12.308,0,0,0,1.184,2.176,8.019,8.019,0,0,0,1.472,1.648,4.114,4.114,0,0,0-1.328.848m-1.616-8.64a7.237,7.237,0,0,0-1.136-1.648c-.1-.1-.1-.112-.1-.144,0-.112.08-.192.384-.4a1.064,1.064,0,0,1,.448-.224c.128,0,.288.128.672.592a4.5,4.5,0,0,1,.848,1.232c0,.176-.736.736-.96.736-.064,0-.112-.032-.16-.144m2.272-1.136a1.34,1.34,0,0,1-.432.208c-.064,0-.1-.032-.16-.144a7.745,7.745,0,0,0-1.152-1.6c-.064-.064-.08-.1-.08-.128,0-.128.656-.56.848-.56.08,0,.16.048.32.208A5.291,5.291,0,0,1,200.1,36.2c0,.1-.128.224-.5.464" fill="#555"/>
      <path id="パス_118" data-name="パス 118" d="M1.213,78.416v-13.9H3.321v11.92h6.787v1.984Z" fill="#555"/>
      <path id="パス_119" data-name="パス 119" d="M17.581,78.45v-.875h-.042a1.621,1.621,0,0,1-.829.743,4.055,4.055,0,0,1-1.545.248,3.486,3.486,0,0,1-2.479-.878,2.779,2.779,0,0,1-.916-2.146,2.912,2.912,0,0,1,.792-2.078,3.122,3.122,0,0,1,2.337-.858h2.682V71.554q.009-1.32-1.977-1.281a3.652,3.652,0,0,0-1.144.153,1.394,1.394,0,0,0-.678.62l-1.527-1.2a3.723,3.723,0,0,1,3.255-1.438,5.073,5.073,0,0,1,2.9.706,2.939,2.939,0,0,1,1.1,2.555V78.45Zm0-3.477v-.724h-2.32q-1.7.048-1.681,1.2a1.083,1.083,0,0,0,.439.857A2,2,0,0,0,15.4,76.7a3.321,3.321,0,0,0,1.719-.295q.459-.315.459-1.43" fill="#555"/>
      <path id="パス_120" data-name="パス 120" d="M22.154,78.416v-13.9h1.992V69.57a5.244,5.244,0,0,1,1.168-.849A2.926,2.926,0,0,1,26.7,68.4a3.155,3.155,0,0,1,1.563.368,3.5,3.5,0,0,1,1.086.921,3.016,3.016,0,0,1,.558,1.245,14.451,14.451,0,0,1,.148,2.524,14.794,14.794,0,0,1-.148,2.553,2.942,2.942,0,0,1-.558,1.245,3.337,3.337,0,0,1-1.086.921,3.22,3.22,0,0,1-1.563.359,3.3,3.3,0,0,1-2.555-1.145v1.028ZM26.1,70.389q-1.4,0-1.678,1a7.738,7.738,0,0,0-.276,2.062,7.851,7.851,0,0,0,.276,2.092q.277,1,1.678,1t1.683-.964a7.61,7.61,0,0,0,.281-2.13,7.49,7.49,0,0,0-.281-2.1q-.282-.966-1.683-.965" fill="#555"/>
      <path id="パス_121" data-name="パス 121" d="M32.225,73.455a8.466,8.466,0,0,1,.248-2.377,3.791,3.791,0,0,1,.822-1.412,4.65,4.65,0,0,1,1.13-.859,4.5,4.5,0,0,1,3.755,0,4.616,4.616,0,0,1,1.136.859,3.788,3.788,0,0,1,.821,1.412,8.466,8.466,0,0,1,.248,2.377,8.6,8.6,0,0,1-.248,2.4,3.785,3.785,0,0,1-.821,1.413,4.273,4.273,0,0,1-1.136.858,4.585,4.585,0,0,1-3.755,0,4.3,4.3,0,0,1-1.13-.858,3.787,3.787,0,0,1-.822-1.413,8.6,8.6,0,0,1-.248-2.4m6.176.019a7.178,7.178,0,0,0-.109-1.519,2.7,2.7,0,0,0-.378-.84,1.849,1.849,0,0,0-1.605-.726,1.819,1.819,0,0,0-1.6.726,2.3,2.3,0,0,0-.387.84,7.642,7.642,0,0,0-.1,1.5,7.947,7.947,0,0,0,.1,1.534,2.212,2.212,0,0,0,.387.835,1.818,1.818,0,0,0,1.6.725,1.848,1.848,0,0,0,1.605-.725,2.594,2.594,0,0,0,.378-.831,7.174,7.174,0,0,0,.109-1.518" fill="#555"/>
      <path id="パス_122" data-name="パス 122" d="M42.916,78.416v-9.9h1.992v1.056h.038A3.1,3.1,0,0,1,47.523,68.4a3.334,3.334,0,0,1,2.072.763l-1.442,1.717a2.183,2.183,0,0,0-1.317-.487,2.038,2.038,0,0,0-1.331.492,1.926,1.926,0,0,0-.6,1.579v5.956Z" fill="#555"/>
      <path id="パス_123" data-name="パス 123" d="M56.185,78.45v-.875h-.041a1.619,1.619,0,0,1-.83.743,4.051,4.051,0,0,1-1.545.248,3.487,3.487,0,0,1-2.479-.878,2.783,2.783,0,0,1-.916-2.146,2.916,2.916,0,0,1,.792-2.078,3.126,3.126,0,0,1,2.338-.858h2.681V71.554q.01-1.32-1.976-1.281a3.663,3.663,0,0,0-1.145.153,1.4,1.4,0,0,0-.678.62l-1.527-1.2a3.724,3.724,0,0,1,3.255-1.438,5.074,5.074,0,0,1,2.9.706,2.938,2.938,0,0,1,1.1,2.555V78.45Zm0-3.477v-.724h-2.32q-1.7.048-1.681,1.2a1.083,1.083,0,0,0,.439.857,2,2,0,0,0,1.385.391,3.323,3.323,0,0,0,1.719-.295q.459-.315.458-1.43" fill="#555"/>
      <path id="パス_124" data-name="パス 124" d="M60.873,78.424V70.04h-1V68.513h1V66.956l1.992-2.129v3.686h1.452V70.04H62.865v8.384Z" fill="#555"/>
      <path id="パス_125" data-name="パス 125" d="M66.124,73.455a8.429,8.429,0,0,1,.248-2.377,3.775,3.775,0,0,1,.821-1.412,4.65,4.65,0,0,1,1.13-.859,4.506,4.506,0,0,1,3.756,0,4.615,4.615,0,0,1,1.136.859,3.773,3.773,0,0,1,.82,1.412,8.429,8.429,0,0,1,.248,2.377,8.558,8.558,0,0,1-.248,2.4,3.769,3.769,0,0,1-.82,1.413,4.273,4.273,0,0,1-1.136.858,4.588,4.588,0,0,1-3.756,0,4.3,4.3,0,0,1-1.13-.858,3.771,3.771,0,0,1-.821-1.413,8.558,8.558,0,0,1-.248-2.4m6.176.019a7.16,7.16,0,0,0-.11-1.519,2.72,2.72,0,0,0-.377-.84,1.85,1.85,0,0,0-1.605-.726,1.818,1.818,0,0,0-1.6.726,2.317,2.317,0,0,0-.388.84,7.745,7.745,0,0,0-.1,1.5,8.053,8.053,0,0,0,.1,1.534,2.229,2.229,0,0,0,.388.835,1.817,1.817,0,0,0,1.6.725,1.849,1.849,0,0,0,1.605-.725,2.614,2.614,0,0,0,.377-.831,7.156,7.156,0,0,0,.11-1.518" fill="#555"/>
      <path id="パス_126" data-name="パス 126" d="M76.813,78.416v-9.9h1.992v1.056h.038A3.1,3.1,0,0,1,81.421,68.4a3.336,3.336,0,0,1,2.072.763L82.05,70.876a2.183,2.183,0,0,0-1.317-.487,2.038,2.038,0,0,0-1.331.492,1.929,1.929,0,0,0-.6,1.579v5.956Z" fill="#555"/>
      <path id="パス_127" data-name="パス 127" d="M86.961,78.032l-3.551-9.52h2.1l2.347,6.94H87.9l2.348-6.94h2.11L88.1,80.469a2.751,2.751,0,0,1-1.156,1.55,3.333,3.333,0,0,1-1.641.406h-.668V80.541h.592a1.161,1.161,0,0,0,1.192-.859Z" fill="#555"/>
      <path id="パス_128" data-name="パス 128" d="M99.366,78.416V70.04h-1V68.513h1l0-1.308a2.536,2.536,0,0,1,.766-2.039,2.868,2.868,0,0,1,1.931-.654h1.292V66.38h-1.13q-.872,0-.871.822v1.311h2V70.04h-2v8.376Z" fill="#555"/>
      <path id="パス_129" data-name="パス 129" d="M104.418,73.455a8.429,8.429,0,0,1,.248-2.377,3.775,3.775,0,0,1,.821-1.412,4.65,4.65,0,0,1,1.13-.859,4.506,4.506,0,0,1,3.756,0,4.616,4.616,0,0,1,1.136.859,3.773,3.773,0,0,1,.82,1.412,8.429,8.429,0,0,1,.248,2.377,8.558,8.558,0,0,1-.248,2.4,3.769,3.769,0,0,1-.82,1.413,4.273,4.273,0,0,1-1.136.858,4.588,4.588,0,0,1-3.756,0,4.3,4.3,0,0,1-1.13-.858,3.771,3.771,0,0,1-.821-1.413,8.558,8.558,0,0,1-.248-2.4m6.176.019a7.16,7.16,0,0,0-.11-1.519,2.72,2.72,0,0,0-.377-.84,1.85,1.85,0,0,0-1.605-.726,1.817,1.817,0,0,0-1.6.726,2.317,2.317,0,0,0-.388.84,7.745,7.745,0,0,0-.1,1.5,8.053,8.053,0,0,0,.1,1.534,2.229,2.229,0,0,0,.388.835,1.817,1.817,0,0,0,1.6.725,1.849,1.849,0,0,0,1.605-.725,2.613,2.613,0,0,0,.377-.831,7.156,7.156,0,0,0,.11-1.518" fill="#555"/>
      <path id="パス_130" data-name="パス 130" d="M115.107,78.416v-9.9H117.1v1.056h.038a3.1,3.1,0,0,1,2.577-1.173,3.334,3.334,0,0,1,2.072.763l-1.442,1.717a2.183,2.183,0,0,0-1.317-.487,2.038,2.038,0,0,0-1.331.492,1.926,1.926,0,0,0-.6,1.579v5.956Z" fill="#555"/>
      <path id="パス_131" data-name="パス 131" d="M0,101.623l1.394-1.585a6.441,6.441,0,0,0,1.8,1.012,6.049,6.049,0,0,0,2.139.382,3.377,3.377,0,0,0,2.023-.535,1.656,1.656,0,0,0,.735-1.4q0-1.641-1.813-1.88-.477-.057-.887-.114l-.954-.134a4.285,4.285,0,0,1-2.748-1.322,3.785,3.785,0,0,1-.944-2.591,3.882,3.882,0,0,1,1.188-2.921A4.624,4.624,0,0,1,5.28,89.388,7.069,7.069,0,0,1,7.7,89.8,9.854,9.854,0,0,1,9.8,90.837L8.621,92.573A7.743,7.743,0,0,0,6.979,91.8a5.553,5.553,0,0,0-1.793-.3,2.716,2.716,0,0,0-1.652.5,1.724,1.724,0,0,0-.678,1.488A1.644,1.644,0,0,0,3.314,94.6a2.465,2.465,0,0,0,1.517.677c.185.033.407.066.668.1s.56.071.9.109A4.133,4.133,0,0,1,9.272,96.9a4.083,4.083,0,0,1,.93,2.6,3.6,3.6,0,0,1-1.326,2.979,5.542,5.542,0,0,1-3.56,1.059A7.78,7.78,0,0,1,0,101.623" fill="#555"/>
      <path id="パス_132" data-name="パス 132" d="M12.688,100.1V93.513h1.991V99.42a2.127,2.127,0,0,0,.559,1.571,1.916,1.916,0,0,0,1.415.557,1.884,1.884,0,0,0,1.388-.557A2.125,2.125,0,0,0,18.6,99.42V93.513H20.59v9.9H18.6v-1.048h-.041A3.076,3.076,0,0,1,16,103.533a3.507,3.507,0,0,1-2.243-.873,3.113,3.113,0,0,1-1.072-2.563" fill="#555"/>
      <path id="パス_133" data-name="パス 133" d="M22.5,101.77l1.394-1.375a4.3,4.3,0,0,0,3.121,1.27,2.777,2.777,0,0,0,1.4-.32,1.033,1.033,0,0,0,.554-.95q0-.868-1.214-.975L26,99.259a3.393,3.393,0,0,1-2.045-.811,2.523,2.523,0,0,1-.811-1.995A2.649,2.649,0,0,1,24.2,94.17a4.346,4.346,0,0,1,2.633-.774,5.688,5.688,0,0,1,3.886,1.35L29.492,96.2a6.611,6.611,0,0,0-1.221-.658,3.755,3.755,0,0,0-1.433-.259,1.977,1.977,0,0,0-1.326.34,1.1,1.1,0,0,0-.372.853.843.843,0,0,0,.276.6,1.653,1.653,0,0,0,1.032.334l1.643.114a2.925,2.925,0,0,1,2.207.949,3.155,3.155,0,0,1,.669,2.018,2.547,2.547,0,0,1-1.193,2.251,5.134,5.134,0,0,1-2.909.792A6.21,6.21,0,0,1,22.5,101.77" fill="#555"/>
      <path id="パス_134" data-name="パス 134" d="M33.528,103.424V95.04h-1V93.513h1V91.956l1.992-2.129v3.686h1.452V95.04H35.52v8.384Z" fill="#555"/>
      <path id="パス_135" data-name="パス 135" d="M44.515,103.45v-.875h-.041a1.619,1.619,0,0,1-.83.743,4.051,4.051,0,0,1-1.545.248,3.487,3.487,0,0,1-2.479-.878,2.783,2.783,0,0,1-.916-2.146,2.916,2.916,0,0,1,.792-2.078,3.126,3.126,0,0,1,2.338-.858h2.681V96.554q.01-1.32-1.976-1.281a3.663,3.663,0,0,0-1.145.153,1.4,1.4,0,0,0-.678.62l-1.527-1.2a3.724,3.724,0,0,1,3.255-1.438,5.074,5.074,0,0,1,2.9.706,2.938,2.938,0,0,1,1.1,2.555v6.783Zm0-3.477v-.724h-2.32q-1.7.048-1.681,1.2a1.083,1.083,0,0,0,.439.857,2,2,0,0,0,1.385.391,3.323,3.323,0,0,0,1.719-.295q.459-.315.458-1.43" fill="#555"/>
      <path id="パス_136" data-name="パス 136" d="M49.145,89.512h1.992V91.5H49.145Zm0,4h1.992v9.908H49.145Z" fill="#555"/>
      <path id="パス_137" data-name="パス 137" d="M54.2,103.416v-9.9H56.19v1.056h.042A3.094,3.094,0,0,1,58.8,93.4a3.479,3.479,0,0,1,2.225.878A3.117,3.117,0,0,1,62.1,96.832v6.584H60.108v-5.9a2.128,2.128,0,0,0-.557-1.566,1.875,1.875,0,0,0-1.387-.563,1.911,1.911,0,0,0-1.416.563,2.132,2.132,0,0,0-.558,1.566v5.9Z" fill="#555"/>
      <path id="パス_138" data-name="パス 138" d="M70.36,103.45v-.875h-.041a1.619,1.619,0,0,1-.83.743,4.051,4.051,0,0,1-1.545.248,3.488,3.488,0,0,1-2.479-.878,2.783,2.783,0,0,1-.916-2.146,2.916,2.916,0,0,1,.792-2.078,3.126,3.126,0,0,1,2.338-.858H70.36V96.554q.01-1.32-1.976-1.281a3.663,3.663,0,0,0-1.145.153,1.4,1.4,0,0,0-.678.62l-1.527-1.2a3.724,3.724,0,0,1,3.255-1.438,5.074,5.074,0,0,1,2.9.706,2.938,2.938,0,0,1,1.1,2.555v6.783Zm0-3.477v-.724H68.04q-1.7.048-1.681,1.2a1.083,1.083,0,0,0,.439.857,2,2,0,0,0,1.385.391A3.323,3.323,0,0,0,69.9,101.4q.459-.315.458-1.43" fill="#555"/>
      <path id="パス_139" data-name="パス 139" d="M74.933,103.416v-13.9h1.992V94.57a5.244,5.244,0,0,1,1.168-.849A2.926,2.926,0,0,1,79.48,93.4a3.155,3.155,0,0,1,1.563.368,3.5,3.5,0,0,1,1.086.921,3.016,3.016,0,0,1,.558,1.245,14.45,14.45,0,0,1,.148,2.524,14.793,14.793,0,0,1-.148,2.553,2.942,2.942,0,0,1-.558,1.245,3.337,3.337,0,0,1-1.086.921,3.219,3.219,0,0,1-1.563.359,3.3,3.3,0,0,1-2.555-1.145v1.028Zm3.946-8.027q-1.4,0-1.678,1a7.738,7.738,0,0,0-.276,2.062,7.851,7.851,0,0,0,.276,2.092q.278,1,1.678,1t1.683-.964a7.61,7.61,0,0,0,.281-2.13,7.489,7.489,0,0,0-.281-2.1q-.282-.966-1.683-.965" fill="#555"/>
      <path id="パス_140" data-name="パス 140" d="M85.5,101.021V89.512h1.992v11.349q0,.687.748.687h.68v1.869h-.879a2.981,2.981,0,0,1-1.814-.532,2.154,2.154,0,0,1-.727-1.864" fill="#555"/>
      <path id="パス_141" data-name="パス 141" d="M98.58,99.216H92.413a2.21,2.21,0,0,0,2.357,2.448,2.98,2.98,0,0,0,2.176-.954l1.442,1.23a4.25,4.25,0,0,1-1.656,1.225,5.031,5.031,0,0,1-4.881-.621q-1.431-.988-1.43-4.041,0-2.892,1.321-4A4.256,4.256,0,0,1,94.5,93.4a4.069,4.069,0,0,1,2.853,1.13,3.946,3.946,0,0,1,1.222,3.046Zm-6.167-1.644H96.6a2.489,2.489,0,0,0-.631-1.7,1.969,1.969,0,0,0-1.461-.589,2,2,0,0,0-1.476.589,2.4,2.4,0,0,0-.616,1.7" fill="#555"/>
      <path id="パス_142" data-name="パス 142" d="M106.391,103.416v-13.9h4.869A4.593,4.593,0,0,1,115.5,91.85a4.716,4.716,0,0,1,.63,1.661,24.568,24.568,0,0,1,.114,2.958,19.834,19.834,0,0,1-.157,3.135,4.387,4.387,0,0,1-.625,1.512,5.2,5.2,0,0,1-1.705,1.637,4.955,4.955,0,0,1-2.63.663ZM108.5,91.5v9.928h2.531a2.923,2.923,0,0,0,2.579-1.212,2.8,2.8,0,0,0,.435-1.131,21.993,21.993,0,0,0,.091-2.545,21.708,21.708,0,0,0-.1-2.587,2.8,2.8,0,0,0-.52-1.288A2.915,2.915,0,0,0,111.03,91.5Z" fill="#555"/>
      <path id="パス_143" data-name="パス 143" d="M126.583,99.216h-6.167a2.21,2.21,0,0,0,2.357,2.448,2.98,2.98,0,0,0,2.176-.954l1.442,1.23a4.25,4.25,0,0,1-1.656,1.225,5.031,5.031,0,0,1-4.881-.621q-1.431-.988-1.43-4.041,0-2.892,1.321-4a4.256,4.256,0,0,1,2.763-1.108,4.069,4.069,0,0,1,2.853,1.13,3.946,3.946,0,0,1,1.222,3.046Zm-6.167-1.644H124.6a2.489,2.489,0,0,0-.631-1.7,1.969,1.969,0,0,0-1.461-.589,2,2,0,0,0-1.476.589,2.4,2.4,0,0,0-.616,1.7" fill="#555"/>
      <path id="パス_144" data-name="パス 144" d="M128.015,101.77l1.394-1.375a4.3,4.3,0,0,0,3.121,1.27,2.777,2.777,0,0,0,1.4-.32,1.033,1.033,0,0,0,.554-.95q0-.868-1.214-.975l-1.757-.161a3.393,3.393,0,0,1-2.045-.811,2.523,2.523,0,0,1-.811-1.995,2.649,2.649,0,0,1,1.057-2.283,4.346,4.346,0,0,1,2.633-.774,5.688,5.688,0,0,1,3.886,1.35L135,96.2a6.611,6.611,0,0,0-1.221-.658,3.755,3.755,0,0,0-1.433-.259,1.977,1.977,0,0,0-1.326.34,1.1,1.1,0,0,0-.372.853.843.843,0,0,0,.276.6,1.653,1.653,0,0,0,1.032.334l1.643.114a2.925,2.925,0,0,1,2.207.949,3.155,3.155,0,0,1,.669,2.018,2.547,2.547,0,0,1-1.193,2.251,5.134,5.134,0,0,1-2.909.792,6.21,6.21,0,0,1-4.362-1.763" fill="#555"/>
      <path id="パス_145" data-name="パス 145" d="M138.981,89.512h1.992V91.5h-1.992Zm0,4h1.992v9.908h-1.992Z" fill="#555"/>
      <path id="パス_146" data-name="パス 146" d="M149.6,103.41v-1.022a3.325,3.325,0,0,1-2.559,1.145,3.15,3.15,0,0,1-1.627-.387,3.468,3.468,0,0,1-.988-.817,3.191,3.191,0,0,1-.587-1.173,13.915,13.915,0,0,1-.157-2.682,13.93,13.93,0,0,1,.157-2.682,3.3,3.3,0,0,1,.587-1.183,3.713,3.713,0,0,1,.988-.816,3.093,3.093,0,0,1,1.627-.4A3.421,3.421,0,0,1,149.6,94.57V93.513h1.992v9.677a4,4,0,0,1-1.3,3.293,4.6,4.6,0,0,1-2.992,1.058,4.135,4.135,0,0,1-1.869-.457,5.172,5.172,0,0,1-1.576-1.2l1.547-1.231a3.64,3.64,0,0,0,.863.631,2.257,2.257,0,0,0,1.074.266,2.378,2.378,0,0,0,1.627-.554,1.988,1.988,0,0,0,.635-1.585m-3.926-4.936a12.706,12.706,0,0,0,.062,1.585,1.527,1.527,0,0,0,.331.726,2.169,2.169,0,0,0,.591.515,1.817,1.817,0,0,0,.993.248,1.76,1.76,0,0,0,.97-.248,2.411,2.411,0,0,0,.6-.515,1.573,1.573,0,0,0,.318-.726,19.981,19.981,0,0,0,0-3.171,1.624,1.624,0,0,0-.318-.734,2.633,2.633,0,0,0-.6-.512,1.745,1.745,0,0,0-.97-.253,1.8,1.8,0,0,0-.993.253,2.347,2.347,0,0,0-.591.512,1.576,1.576,0,0,0-.331.734,12.737,12.737,0,0,0-.062,1.586" fill="#555"/>
      <path id="パス_147" data-name="パス 147" d="M154.6,103.416v-9.9h1.992v1.056h.042A3.091,3.091,0,0,1,159.2,93.4a3.476,3.476,0,0,1,2.224.878,3.115,3.115,0,0,1,1.072,2.558v6.584h-1.992v-5.9a2.128,2.128,0,0,0-.557-1.566,1.877,1.877,0,0,0-1.387-.563,1.911,1.911,0,0,0-1.416.563,2.128,2.128,0,0,0-.558,1.566v5.9Z" fill="#555"/>
    </g>
  </g>
</svg>
