<svg id="logo_w" xmlns="http://www.w3.org/2000/svg" xmlns:xlink="http://www.w3.org/1999/xlink" width="201.586" height="49.91" viewBox="0 0 201.586 49.91">
  <defs>
    <clipPath id="clip-path">
      <rect id="長方形_1" data-name="長方形 1" width="201.586" height="49.91" transform="translate(0 0)" fill="#fff"/>
    </clipPath>
  </defs>
  <path id="パス_1" data-name="パス 1" d="M124.955.6V24.134h14.194v-3.79H129.144V.6Z" fill="#fff"/>
  <g id="グループ_2" data-name="グループ 2">
    <g id="グループ_1" data-name="グループ 1" clip-path="url(#clip-path)">
      <path id="パス_2" data-name="パス 2" d="M162.285,5.651a3.874,3.874,0,0,0-1.778-1.413,6.218,6.218,0,0,0-2.344-.448,5.928,5.928,0,0,0-1.413.166,3.841,3.841,0,0,0-1.23.532,2.8,2.8,0,0,0-.881.947,2.741,2.741,0,0,0-.332,1.379,2.158,2.158,0,0,0,.831,1.829,8.163,8.163,0,0,0,2.061,1.1q1.23.465,2.693.9a11.007,11.007,0,0,1,2.692,1.2,6.663,6.663,0,0,1,2.061,2.028,6.024,6.024,0,0,1,.831,3.357,7.387,7.387,0,0,1-.7,3.308,6.748,6.748,0,0,1-1.878,2.344,8.129,8.129,0,0,1-2.742,1.4,11.447,11.447,0,0,1-3.291.466A12.362,12.362,0,0,1,152.645,24a8.147,8.147,0,0,1-3.491-2.46l3.158-3.058a5.289,5.289,0,0,0,2.012,1.811,5.649,5.649,0,0,0,2.642.648,5.538,5.538,0,0,0,1.463-.2,4.532,4.532,0,0,0,1.33-.6,3.124,3.124,0,0,0,.964-1.014,2.719,2.719,0,0,0,.365-1.413,2.458,2.458,0,0,0-.831-1.994,7.343,7.343,0,0,0-2.061-1.181q-1.23-.482-2.692-.914a11.307,11.307,0,0,1-2.693-1.18,6.551,6.551,0,0,1-2.061-1.994,5.945,5.945,0,0,1-.831-3.341,6.345,6.345,0,0,1,.748-3.158,6.856,6.856,0,0,1,1.961-2.211A8.584,8.584,0,0,1,155.4.432,11.96,11.96,0,0,1,158.6,0,11.661,11.661,0,0,1,162.2.565a8.359,8.359,0,0,1,3.141,1.862Z" fill="#fff"/>
      <path id="パス_3" data-name="パス 3" d="M178.375.6h9.274a14.216,14.216,0,0,1,4.488.714A10.926,10.926,0,0,1,195.96,3.49a10.664,10.664,0,0,1,2.659,3.674,12.554,12.554,0,0,1,1,5.2,10.929,10.929,0,0,1-4.1,8.892,12.612,12.612,0,0,1-4.023,2.161,14.035,14.035,0,0,1-4.338.715h-8.775Zm7.313,19.745a14.839,14.839,0,0,0,3.706-.449,8.8,8.8,0,0,0,3.042-1.4,6.624,6.624,0,0,0,2.044-2.46,8.214,8.214,0,0,0,.748-3.673,9.142,9.142,0,0,0-.665-3.657,6.352,6.352,0,0,0-1.845-2.476,7.68,7.68,0,0,0-2.792-1.4,13.182,13.182,0,0,0-3.54-.449h-3.823V20.344Z" fill="#fff"/>
      <path id="パス_4" data-name="パス 4" d="M16.446,17.228a23.788,23.788,0,0,0-2.774-.133H2.88c-1.007,0-2.014.057-2.793.133V14.8a22.858,22.858,0,0,0,2.793.133H13.672a20.771,20.771,0,0,0,2.774-.133Z" fill="#fff"/>
      <path id="パス_5" data-name="パス 5" d="M18.878,15.746a.654.654,0,0,0,.171.019c.133,0,.532-.019,1.159-.076.02-.931.038-1.824.038-2.508a23.2,23.2,0,0,0-.152-3.629,9.845,9.845,0,0,0,1.33.076h.609a7.794,7.794,0,0,0,.741-2l2.013.3c-.341.7-.588,1.216-.855,1.691h1.083a10.477,10.477,0,0,0,1.464-.076,7.263,7.263,0,0,0-.058,1.14v4.142a3.911,3.911,0,0,0,.456-.095v1.672c-.227.057-.323.076-.456.114v6.232c0,.836-.133,1.178-.569,1.463a2.692,2.692,0,0,1-1.464.285,11.507,11.507,0,0,1-1.443-.095,5.314,5.314,0,0,0-.362-1.843,10.085,10.085,0,0,0,1.805.19c.305,0,.381-.057.381-.38V16.848a5.732,5.732,0,0,0-.647.1.319.319,0,0,1-.132.019v2.85a12.243,12.243,0,0,0,.056,1.653H22.469a9.085,9.085,0,0,0,.1-1.653V17.171l-.723.114c-.133,3.42-.589,5.51-1.614,7.41a8.29,8.29,0,0,0-1.539-1.5,7.44,7.44,0,0,0,1.178-3.135,18.329,18.329,0,0,0,.265-2.546c-.665.095-1.063.152-1.178.19l-.265-1.957Zm3.06-3.306c-.02,1.425-.02,1.805-.038,3.1.912-.095,2.108-.266,2.869-.4V11.2H21.938ZM23.4,11.7a11.711,11.711,0,0,1,1.1,2.432l-1.368.684a9.434,9.434,0,0,0-1.007-2.546Zm11.513,4.845a6.34,6.34,0,0,0-.341.7,14.4,14.4,0,0,1-2.261,3.8,10.191,10.191,0,0,0,3.438,1.71,8.137,8.137,0,0,0-1.045,1.938A12.35,12.35,0,0,1,31,22.415a13.972,13.972,0,0,1-3.363,2.242,5.566,5.566,0,0,0-1.2-1.748,10.276,10.276,0,0,0,3.249-1.9,11.555,11.555,0,0,1-2.015-3.743c-.151.019-.209.019-.456.057V15.5a6.9,6.9,0,0,0,1.274.076h4.255a6.029,6.029,0,0,0,1.274-.076Zm-5-6.4c-.076,2.375-.627,3.762-1.9,4.9a5.314,5.314,0,0,0-1.35-1.482c1.1-.8,1.539-1.919,1.539-4.066a5.38,5.38,0,0,0-.094-1.083,13.811,13.811,0,0,0,1.481.076H31.78a12.7,12.7,0,0,0,1.577-.076c-.038.418-.058.874-.058,1.539v2.717c0,.266.058.323.323.323.38,0,.513-.038.571-.209a10.118,10.118,0,0,0,.189-1.9,4.349,4.349,0,0,0,1.483.684c-.229,2.774-.438,3.04-2.319,3.04-1.728,0-2-.152-2-1.178V10.141Zm-.361,7.106c.323.722.532,1.2.665,1.425a7.445,7.445,0,0,0,.761,1.083,8.463,8.463,0,0,0,1.577-2.508Z" fill="#fff"/>
      <path id="パス_6" data-name="パス 6" d="M42.609,22.909a10.085,10.085,0,0,0,.113,1.862h-2.2a12.834,12.834,0,0,0,.113-1.9V18.292A14.655,14.655,0,0,1,38.6,19.85a7.11,7.11,0,0,0-.931-1.9A12.842,12.842,0,0,0,40.8,15.48a10.672,10.672,0,0,0,1.977-2.812H39.816a11.356,11.356,0,0,0-1.52.076V10.711a10.746,10.746,0,0,0,1.424.076h.932V9.267a7.88,7.88,0,0,0-.114-1.387h2.184a7.632,7.632,0,0,0-.094,1.406v1.5h.759a6.732,6.732,0,0,0,1.046-.057l.873.95a6.078,6.078,0,0,0-.4.779,14.879,14.879,0,0,1-1.824,3.116,10.166,10.166,0,0,0,2.887,2.3,8.637,8.637,0,0,0-.987,1.805,9.946,9.946,0,0,1-2.375-2.052Zm7.752-.874h2.185a19.548,19.548,0,0,0,2.089-.095v2.185a17.981,17.981,0,0,0-2.089-.114H46.314a16.893,16.893,0,0,0-2.053.114V21.94a20.3,20.3,0,0,0,2.072.095h1.995V14.91H46.96c-.608,0-1.216.038-1.786.1V12.934a11.872,11.872,0,0,0,1.786.1h1.368V9.818a15.242,15.242,0,0,0-.114-1.9h2.261a12.019,12.019,0,0,0-.114,1.9v3.211H52.28a11.4,11.4,0,0,0,1.805-.1v2.071c-.589-.057-1.16-.1-1.805-.1H50.361Z" fill="#fff"/>
      <path id="パス_7" data-name="パス 7" d="M57.448,24.714a17.5,17.5,0,0,0,.114-2.375V10.749a18.772,18.772,0,0,0-.114-2.185,17.233,17.233,0,0,0,2.146.1H70.976a17.241,17.241,0,0,0,2.147-.1,18.678,18.678,0,0,0-.1,2.185V22.358a17.176,17.176,0,0,0,.114,2.356h-2.09V23.707H59.538v1.007Zm2.09-2.774H71.052V10.426H59.538Zm7.03-9.8a5.96,5.96,0,0,0-.1-1.33h2.091a5.929,5.929,0,0,0-.1,1.33v.684h.494a9.976,9.976,0,0,0,1.482-.095v1.881a10.968,10.968,0,0,0-1.52-.1h-.456v5.13c0,1.463-.513,1.824-2.508,1.824-.475,0-.608,0-1.71-.076a5.032,5.032,0,0,0-.475-1.824,17.6,17.6,0,0,0,2.2.19c.437,0,.589-.114.589-.494v-4.75h-4.56a10.126,10.126,0,0,0-1.691.1V12.725a9.454,9.454,0,0,0,1.691.095h4.56ZM63.49,19.223a12.819,12.819,0,0,0-2.147-3.439l1.52-1.007a17.657,17.657,0,0,1,2.3,3.382Z" fill="#fff"/>
      <path id="パス_8" data-name="パス 8" d="M76.98,12.459A22.867,22.867,0,0,1,80.229,14.7l-1.141,1.653a18.757,18.757,0,0,0-3.249-2.432Zm3.249,6.251c-.646,1.691-1.064,2.641-1.786,4.161-.305.646-.305.646-.57,1.235-.133.285-.133.285-.209.456l-1.748-1.539a21.638,21.638,0,0,0,2.678-5.472Zm-2.356-10.7a18.281,18.281,0,0,1,3.116,2.337l-1.235,1.6a17.722,17.722,0,0,0-3.117-2.527Zm2.318,14.041c.266.019.418.019.607.019.324,0,.818-.019,1.35-.057a26.531,26.531,0,0,0,2.261-5.035H82.452a15.178,15.178,0,0,0-1.976.114V15.043a13.724,13.724,0,0,0,1.994.114h2.851V12.421H83.135c-.721,0-1.348.038-1.937.1V10.5a12.807,12.807,0,0,0,1.957.114h2.166V9.837a11.808,11.808,0,0,0-.1-1.919h2.166a12.554,12.554,0,0,0-.1,1.919v.779h2.926a12.656,12.656,0,0,0,1.863-.114v2.014a12.089,12.089,0,0,0-1.843-.1H87.3v2.736h3.516a13.593,13.593,0,0,0,1.9-.114v2.052a14.385,14.385,0,0,0-1.9-.114H86.537a28.288,28.288,0,0,1-1.236,3.04c-.056.152-.36.76-.892,1.843a45.589,45.589,0,0,0,4.845-.608,24.283,24.283,0,0,0-1.787-2.584l1.635-.836A38.666,38.666,0,0,1,92.75,23.46l-1.767,1.064c-.4-.8-.514-1.045-.836-1.672a64.2,64.2,0,0,1-6.594.95c-2.051.209-2.393.247-2.964.361Z" fill="#fff"/>
      <path id="パス_9" data-name="パス 9" d="M104.416,8.165a14.5,14.5,0,0,0-.114,1.881,13.147,13.147,0,0,0,1.786,7.2,12.487,12.487,0,0,0,2.869,3.458,12.912,12.912,0,0,0,2.813,1.957,6.715,6.715,0,0,0-1.407,2.033,18.253,18.253,0,0,1-4.635-4.294,14.225,14.225,0,0,1-2.414-5,13.157,13.157,0,0,1-1.444,3.686,12.766,12.766,0,0,1-2.793,3.5,16.1,16.1,0,0,1-2.831,2.109,5.308,5.308,0,0,0-1.425-1.881,12.022,12.022,0,0,0,3.991-3.059c2.355-2.7,3.343-5.681,3.343-10.051a8.973,8.973,0,0,0-.094-1.539Z" fill="#fff"/>
      <path id="パス_10" data-name="パス 10" d="M3.435,39.387a16.6,16.6,0,0,0-.2-3.417l.969.051a11.326,11.326,0,0,1,1.241.187.229.229,0,0,1,.17.221,1.387,1.387,0,0,1-.1.442,11.328,11.328,0,0,0-.136,2.516c.425,0,1.683,0,3.792-.017a20.042,20.042,0,0,0-.187-3.519,16.127,16.127,0,0,1,1.921.187c.356.051.459.119.459.272a1.124,1.124,0,0,1-.119.442,5.771,5.771,0,0,0-.119,1.19v1.411c1.716-.034,2.363-.051,2.873-.1a.638.638,0,0,1,.17-.017.216.216,0,0,1,.186.085,3.86,3.86,0,0,1,.086,1.054c0,.8-.034.884-.289.884-.034,0-.034,0-.408-.034a25.948,25.948,0,0,0-2.653-.051c-.1,2.55-.441,3.91-1.292,5.27A7.847,7.847,0,0,1,6.8,49.213a4.4,4.4,0,0,1-1.24.493c-.153,0-.171-.017-.527-.391a4.393,4.393,0,0,0-1.139-.9c2.447-.884,3.723-1.887,4.505-3.536a9,9,0,0,0,.748-3.723H8.041c-.153,0-.628,0-1.326.017-.305.017-.764.017-1.377.034,0,1.207,0,1.207.034,2.737v.221c0,.238-.05.323-.238.391a6.212,6.212,0,0,1-1.138.1c-.6,0-.68-.051-.68-.357v-.255c.067-1.547.085-1.819.1-2.8-.883.017-2.448.119-2.855.187a.218.218,0,0,1-.1.017A.242.242,0,0,1,.2,41.223,11.393,11.393,0,0,1,0,39.268a20.088,20.088,0,0,0,2.772.119Z" fill="#fff"/>
      <path id="パス_11" data-name="パス 11" d="M29.121,45.83a7.462,7.462,0,0,1,1.751,1.887c0,.153-.221.425-.748.935-.391.374-.561.493-.68.493a.42.42,0,0,1-.255-.119c-.187-.221-.187-.221-.969-1.1a22.342,22.342,0,0,0-3.689-3.23,26.356,26.356,0,0,1-3.859,3.281,8.537,8.537,0,0,1-2.091,1.173c-.17,0-.187-.017-.595-.476a6.668,6.668,0,0,0-1.054-.918A18.231,18.231,0,0,0,21.947,44.4a20.733,20.733,0,0,0,4.267-5.423,63.644,63.644,0,0,0-6.681.136c-.2.017-.238.017-.272.017a.291.291,0,0,1-.323-.272,11.807,11.807,0,0,1-.119-1.955,46.126,46.126,0,0,0,5.423.221c1,0,2.057-.034,2.618-.1a1.954,1.954,0,0,0,.612-.153.368.368,0,0,1,.2-.034c.289,0,.595.238,1,.782a2.427,2.427,0,0,1,.51,1c0,.2-.051.272-.493.68a5.347,5.347,0,0,0-.918,1.275,24.585,24.585,0,0,1-1.938,2.7,23.29,23.29,0,0,1,3.281,2.55" fill="#fff"/>
      <path id="パス_12" data-name="パス 12" d="M35.564,42.226c-.187.017-.306.017-.374.017a.377.377,0,0,0-.153.017h-.153a.3.3,0,0,1-.323-.289,8.921,8.921,0,0,1-.136-1.751,22.291,22.291,0,0,0,2.618.119q3.341.051,4.029.051c2.839,0,6.155-.051,6.681-.1h.153c.238,0,.238.017.238,1.139,0,.748-.034.833-.272.833h-.119c-.782-.034-1.1-.034-5.1-.085a10.351,10.351,0,0,1-.357,2.618,6.915,6.915,0,0,1-3.23,4.318,2.765,2.765,0,0,1-1,.476c-.085,0-.153-.034-.289-.17a4.433,4.433,0,0,0-1.428-1.088c3.009-1.411,4.114-3.026,4.216-6.171-2.753.017-3.689.034-5,.068M41.5,36.48c1.632,0,3.417-.051,4.131-.136h.085c.238,0,.289.119.289.646v.357c0,.1,0,.272-.017.476,0,.459-.034.51-.357.51h-.2c-.459-.017-3.57-.068-4.335-.068-2.04,0-3.519.034-4.063.1a.42.42,0,0,1-.136.017.253.253,0,0,1-.288-.221,12.171,12.171,0,0,1-.137-1.836c.731.085,2.941.153,5.032.153" fill="#fff"/>
      <path id="パス_13" data-name="パス 13" d="M64.991,40.7c0,.782-.017.884-.238.884h-.085c-.6-.034-.782-.034-5.134-.034a10.993,10.993,0,0,1-2.21,6.1,7.054,7.054,0,0,1-1.938,1.8.725.725,0,0,1-.357.136.5.5,0,0,1-.357-.153,4.409,4.409,0,0,0-1.581-.884,7.987,7.987,0,0,0,4.335-6.987c-3.163.017-4.9.068-5.355.136a.423.423,0,0,1-.136.017.243.243,0,0,1-.256-.221,6.841,6.841,0,0,1-.237-1.887,50.335,50.335,0,0,0,6.086.153V39a13.227,13.227,0,0,0-.222-3.026,16.129,16.129,0,0,1,2.228.17c.255.051.357.136.357.306,0,.1,0,.119-.119.425a5.538,5.538,0,0,0-.119,1.411c0,.408,0,.442-.017,1.462,2.329-.017,4.165-.1,4.947-.187a.423.423,0,0,1,.136-.017c.221,0,.272.153.272.748V40.7Z" fill="#fff"/>
      <path id="パス_14" data-name="パス 14" d="M74.545,39.166a38.6,38.6,0,0,0-5.729.272.063.063,0,0,1-.052.017c-.322,0-.424-.561-.475-2.312a33.008,33.008,0,0,0,4.437.17c2.278,0,4.947-.051,5.371-.1a2.186,2.186,0,0,0,.715-.17A.4.4,0,0,1,79,37.007c.289,0,.646.272,1.19.918.322.408.391.51.391.7a.6.6,0,0,1-.17.374c-.17.2-.188.255-.561,1.445a15.773,15.773,0,0,1-5.389,7.65,7.955,7.955,0,0,1-2.244,1.377c-.187,0-.221-.017-.612-.408a4.873,4.873,0,0,0-1.275-.969A13.6,13.6,0,0,0,75.5,44.13a11.455,11.455,0,0,0,2.295-4.981c-1.326.017-1.326.017-3.247.017m7.343-1.717c-.374.323-.594.476-.7.476s-.1,0-.408-.51a7.545,7.545,0,0,0-1.071-1.377c-.068-.068-.085-.1-.085-.153,0-.136.646-.612.833-.612.135,0,.339.17.85.748a3.931,3.931,0,0,1,.781,1.1c0,.119-.05.187-.2.323m.766-.867A7.227,7.227,0,0,0,81.4,34.95c-.068-.068-.085-.1-.085-.136,0-.085.085-.17.374-.374.221-.17.323-.2.442-.2.187.017.629.442,1.207,1.19a1.947,1.947,0,0,1,.391.646c0,.085-.051.17-.256.323a1.751,1.751,0,0,1-.628.357c-.068,0-.12-.034-.187-.17" fill="#fff"/>
      <path id="パス_15" data-name="パス 15" d="M90.083,37.194a.292.292,0,0,1,.2.289.766.766,0,0,1-.034.238,4.474,4.474,0,0,0-.12,1.326c-.033,4.148-.781,6.8-2.566,9.061-.392.476-.544.629-.714.629a.729.729,0,0,1-.289-.1,4.728,4.728,0,0,0-1.649-.612,8.664,8.664,0,0,0,2.141-2.975,12.945,12.945,0,0,0,1-5.644,13.226,13.226,0,0,0-.171-2.482,8.153,8.153,0,0,1,2.194.272M91.9,38.843a14.874,14.874,0,0,0-.153-2.21c1.836.068,2.5.2,2.5.544a.871.871,0,0,1-.085.34,2.158,2.158,0,0,0-.119.629c-.051.459-.051.459-.085,7.939a15.725,15.725,0,0,0,5-4.2,8.453,8.453,0,0,0,.255,2.04.74.74,0,0,1,.05.289c0,.272-.17.493-.951,1.224a15.132,15.132,0,0,1-3.689,2.584,3.24,3.24,0,0,0-.8.527.665.665,0,0,1-.392.17,3.306,3.306,0,0,1-1.258-.833c-.339-.34-.493-.6-.493-.816a.843.843,0,0,1,.069-.289,4.287,4.287,0,0,0,.153-1.564Z" fill="#fff"/>
      <path id="パス_16" data-name="パス 16" d="M103.343,42.43h-.374a.375.375,0,0,0-.152.017h-.154a.3.3,0,0,1-.323-.272,8.967,8.967,0,0,1-.136-1.751c1.021.1,3.367.17,6.58.17,2.889,0,6.221-.051,6.749-.1h.153c.237,0,.237.017.237,1.139,0,.748-.034.833-.271.833h-.119c-.783-.034-1.106-.034-5.1-.085A10.4,10.4,0,0,1,110.076,45a6.924,6.924,0,0,1-3.231,4.318,2.765,2.765,0,0,1-1,.476c-.085,0-.152-.034-.289-.17a4.183,4.183,0,0,0-1.428-1.088c3.009-1.411,4.115-3.026,4.216-6.171-2.754.017-3.688.017-5,.068m1.751-5.831c.392.017.732.034.918.034.867.051,1.122.051,2.244.051a46.088,46.088,0,0,0,4.709-.136h.085c.238,0,.289.119.289.646v.357c0,.1,0,.272-.016.476,0,.459-.035.51-.358.51-.186,0-1.428-.034-2.618-.051-.255-.017-.68-.017-1.292-.017-2.176,0-3.705.034-4.25.1a.422.422,0,0,1-.136.017.254.254,0,0,1-.289-.221,12.464,12.464,0,0,1-.136-1.836,6.38,6.38,0,0,0,.85.068m9.691,1.326a7.411,7.411,0,0,0-1.258-1.717c-.1-.1-.1-.1-.1-.153,0-.1.1-.2.392-.425.271-.187.374-.255.475-.255.136,0,.306.136.732.6a4.472,4.472,0,0,1,.934,1.275c0,.1-.05.17-.255.34-.374.323-.612.476-.748.476-.068,0-.1-.034-.169-.136m2.4-1.275a1.04,1.04,0,0,1-.459.238c-.051,0-.1-.034-.17-.153a8.025,8.025,0,0,0-1.274-1.666.248.248,0,0,1-.085-.136,1.919,1.919,0,0,1,.867-.612c.136.017.186.034.374.2a5.779,5.779,0,0,1,1.258,1.632c0,.1-.137.221-.511.493" fill="#fff"/>
      <path id="パス_17" data-name="パス 17" d="M122.3,39.591a16.6,16.6,0,0,0-.2-3.417l.969.051a11.327,11.327,0,0,1,1.241.187.229.229,0,0,1,.17.221,1.4,1.4,0,0,1-.1.442,11.249,11.249,0,0,0-.136,2.516c.425,0,1.683,0,3.791-.017a20.042,20.042,0,0,0-.187-3.519,16.127,16.127,0,0,1,1.921.187c.357.051.459.119.459.272a1.105,1.105,0,0,1-.119.442,5.846,5.846,0,0,0-.119,1.19v1.411c1.717-.034,2.363-.051,2.873-.1a.638.638,0,0,1,.17-.017.219.219,0,0,1,.187.085,3.922,3.922,0,0,1,.085,1.054c0,.8-.034.884-.289.884-.034,0-.034,0-.408-.034a25.935,25.935,0,0,0-2.652-.051,9.737,9.737,0,0,1-1.292,5.27,7.869,7.869,0,0,1-2.992,2.771,4.4,4.4,0,0,1-1.241.493c-.153,0-.17-.017-.527-.391a4.376,4.376,0,0,0-1.139-.9c2.448-.884,3.723-1.887,4.5-3.536a8.984,8.984,0,0,0,.748-3.723h-1.1c-.153,0-.629,0-1.326.017-.306.017-.765.017-1.377.034,0,1.207,0,1.207.034,2.737v.221c0,.238-.051.323-.238.391a6.224,6.224,0,0,1-1.139.1c-.6,0-.68-.051-.68-.357v-.255c.068-1.547.084-1.819.1-2.805-.884.017-2.448.119-2.856.187a.216.216,0,0,1-.1.017.242.242,0,0,1-.255-.221,11.318,11.318,0,0,1-.2-1.955,20.063,20.063,0,0,0,2.771.119Zm9.605-1.513a7.986,7.986,0,0,0-1.1-1.87.143.143,0,0,1-.051-.1c0-.136.612-.544.8-.544.17,0,.493.374.986,1.122a2.77,2.77,0,0,1,.493.918c0,.119-.119.238-.493.442a1.447,1.447,0,0,1-.459.187c-.085,0-.136-.034-.17-.153m2.006-2.567a4.184,4.184,0,0,1,.73,1.275c0,.1-.135.221-.424.391a1.589,1.589,0,0,1-.493.2.193.193,0,0,1-.17-.153,8.648,8.648,0,0,0-1.071-1.819c-.051-.051-.068-.085-.068-.119,0-.136.6-.493.816-.493.136,0,.272.136.68.714" fill="#fff"/>
      <path id="パス_18" data-name="パス 18" d="M144.789,44.1c0,2.142.034,3.723.1,4.879v.119c0,.187-.051.255-.222.272a10.372,10.372,0,0,1-1.5.085c-.527,0-.578-.034-.578-.323v-.085c.068-.867.1-2.805.1-4.947V41.852a27.676,27.676,0,0,1-2.7,1.6,7.573,7.573,0,0,1-2.04.9.443.443,0,0,1-.357-.187,6.361,6.361,0,0,0-1.428-1.241,23.476,23.476,0,0,0,4.931-2.346,23.141,23.141,0,0,0,4.929-4.114,4.431,4.431,0,0,0,.562-.8c1.07.714,1.836,1.428,1.836,1.751,0,.1-.069.187-.273.272a4.485,4.485,0,0,0-1.223.918c-.748.663-1.48,1.258-2.143,1.751Z" fill="#fff"/>
      <path id="パス_19" data-name="パス 19" d="M166.77,40.254a.893.893,0,0,1,.119.391c0,.17-.068.289-.289.6a17.674,17.674,0,0,1-3.451,3.383,25.684,25.684,0,0,1-5.184,3.179c-1.31.612-1.378.646-1.581.833-.137.136-.205.17-.307.17-.152,0-.289-.136-.544-.51a7.609,7.609,0,0,1-.85-1.8,19.5,19.5,0,0,0,5.763-2.567,15.215,15.215,0,0,0,5.542-5.508,9.344,9.344,0,0,0,.782,1.836M155.448,37.4c.289-.323.408-.408.562-.408a9.954,9.954,0,0,1,2.651,1.683c.646.527.85.748.85.918a3.388,3.388,0,0,1-.713,1.037c-.374.425-.562.578-.7.578-.119,0-.119,0-.816-.663a14.2,14.2,0,0,0-1.768-1.411c-.6-.391-.6-.391-.714-.459a.206.206,0,0,1-.1-.153,3.4,3.4,0,0,1,.748-1.122" fill="#fff"/>
      <path id="パス_20" data-name="パス 20" d="M171.835,42.175c-.033,0-.118.017-.135.017-.374,0-.527-.578-.646-2.329a35.953,35.953,0,0,0,5.168.187c3.4,0,4.318,0,4.641-.034a2.2,2.2,0,0,0,.646-.136.785.785,0,0,1,.323-.068.988.988,0,0,1,.731.408,2.981,2.981,0,0,1,.765,1.207c0,.187-.085.323-.289.544-.136.119-.221.272-.544,1a11.215,11.215,0,0,1-4.42,5.3,9.959,9.959,0,0,1-2.738,1.275c-.237,0-.373-.1-.662-.442a3,3,0,0,0-1.122-.952,12.355,12.355,0,0,0,4.964-2.754,8.672,8.672,0,0,0,2.159-3.587c-6.443.085-7.634.136-8.841.357m5.56-6.035A35.812,35.812,0,0,0,181.118,36h.2c.22,0,.3.17.323.68,0,.2,0,.391.017.561v.068c0,.612-.068.782-.289.782-.068,0-.205-.017-.357-.017-.323-.034-1.6-.068-2.125-.068-2.55,0-4.369.034-5.372.119h-.136c-.442,0-.51-.255-.612-2.159a36.744,36.744,0,0,0,4.624.17" fill="#fff"/>
      <path id="パス_21" data-name="パス 21" d="M191.676,43.076c0,.085-.034.136-.171.289a2.2,2.2,0,0,0-.357.646c-.748,1.649-2.09,3.468-2.584,3.468-.1,0-.135-.017-.493-.323a4.58,4.58,0,0,0-1.138-.629,7.4,7.4,0,0,0,2.77-4.437c1.377.442,1.973.748,1.973.986m1.581-2.5A49.7,49.7,0,0,0,188,40.73h-.033a.34.34,0,0,1-.324-.272,6.871,6.871,0,0,1-.17-1.785,34.987,34.987,0,0,0,5.134.2h.647v-.459a12.376,12.376,0,0,0-.188-2.346,10.631,10.631,0,0,1,2.295.255.257.257,0,0,1,.188.272.925.925,0,0,1-.119.374,3.354,3.354,0,0,0-.205,1.428v.476h1.1c1.105,0,3.281-.085,3.961-.136a.637.637,0,0,1,.187-.017.19.19,0,0,1,.2.17c.017.085.035.578.035.8,0,.9-.018.952-.358.952-.085,0-.255,0-1.241-.034-.6-.017-.815-.017-3.876-.034v3.179c0,1.7,0,1.7.034,3.145.017.2.017.357.017.459,0,1.649-.6,2.193-2.362,2.193a4.843,4.843,0,0,1-1.429-.136c-.118-.051-.153-.136-.2-.391a6.335,6.335,0,0,0-.528-1.6,6.618,6.618,0,0,0,1.785.238c.612,0,.731-.153.731-.918Zm6.919,6.63a.39.39,0,0,1-.239.119c-.3,0-.918-.7-1.666-1.87a12.094,12.094,0,0,1-1.326-2.652c0-.136.119-.255.391-.391a4.463,4.463,0,0,1,1.122-.459c.137,0,.2.085.307.289a13.015,13.015,0,0,0,1.257,2.312,8.551,8.551,0,0,0,1.564,1.751,4.368,4.368,0,0,0-1.41.9m-1.718-9.18a7.688,7.688,0,0,0-1.207-1.751c-.1-.1-.1-.119-.1-.153,0-.119.085-.2.409-.425a1.124,1.124,0,0,1,.475-.238c.136,0,.307.136.714.629a4.755,4.755,0,0,1,.9,1.309c0,.187-.782.782-1.02.782-.068,0-.118-.034-.17-.153m2.414-1.207a1.423,1.423,0,0,1-.459.221c-.067,0-.1-.034-.17-.153a8.191,8.191,0,0,0-1.224-1.7c-.068-.068-.084-.1-.084-.136,0-.136.7-.595.9-.595.085,0,.17.051.341.221a5.633,5.633,0,0,1,1.223,1.649c0,.1-.135.238-.527.493" fill="#fff"/>
    </g>
  </g>
</svg>
