<svg id="logo_l" xmlns="http://www.w3.org/2000/svg" xmlns:xlink="http://www.w3.org/1999/xlink" width="202.545" height="107.542" viewBox="0 0 202.545 107.542">
  <defs>
    <clipPath id="clip-path">
      <rect id="長方形_2" data-name="長方形 2" width="202.545" height="107.542" transform="translate(0 0)" fill="none"/>
    </clipPath>
  </defs>
  <path id="パス_22" data-name="パス 22" d="M125.914.6H130.1V20.344h10.006v3.79H125.914Z" fill="#1a1311"/>
  <g id="グループ_5" data-name="グループ 5">
    <g id="グループ_4" data-name="グループ 4" clip-path="url(#clip-path)">
      <path id="パス_23" data-name="パス 23" d="M163.244,5.651a3.874,3.874,0,0,0-1.778-1.413,6.218,6.218,0,0,0-2.344-.448,5.928,5.928,0,0,0-1.413.166,3.841,3.841,0,0,0-1.23.532,2.8,2.8,0,0,0-.881.947,2.741,2.741,0,0,0-.332,1.379,2.158,2.158,0,0,0,.831,1.829,8.163,8.163,0,0,0,2.061,1.1q1.23.465,2.693.9a11.007,11.007,0,0,1,2.692,1.2,6.663,6.663,0,0,1,2.061,2.028,6.024,6.024,0,0,1,.831,3.357,7.387,7.387,0,0,1-.7,3.308,6.748,6.748,0,0,1-1.878,2.344,8.129,8.129,0,0,1-2.742,1.4,11.447,11.447,0,0,1-3.291.466A12.362,12.362,0,0,1,153.6,24a8.147,8.147,0,0,1-3.491-2.46l3.158-3.058a5.289,5.289,0,0,0,2.012,1.811,5.649,5.649,0,0,0,2.642.648,5.538,5.538,0,0,0,1.463-.2,4.532,4.532,0,0,0,1.33-.6,3.124,3.124,0,0,0,.964-1.014,2.719,2.719,0,0,0,.365-1.413,2.458,2.458,0,0,0-.831-1.994,7.343,7.343,0,0,0-2.061-1.181q-1.23-.482-2.692-.914a11.307,11.307,0,0,1-2.693-1.18,6.551,6.551,0,0,1-2.061-1.994,5.945,5.945,0,0,1-.831-3.341,6.345,6.345,0,0,1,.748-3.158,6.856,6.856,0,0,1,1.961-2.211A8.584,8.584,0,0,1,156.363.432,11.92,11.92,0,0,1,159.554,0a11.661,11.661,0,0,1,3.607.565A8.359,8.359,0,0,1,166.3,2.427Z" fill="#1a1311"/>
      <path id="パス_24" data-name="パス 24" d="M179.333.6h9.274a14.226,14.226,0,0,1,4.489.714,10.944,10.944,0,0,1,3.823,2.177,10.661,10.661,0,0,1,2.658,3.674,12.553,12.553,0,0,1,1,5.2,10.921,10.921,0,0,1-4.105,8.892,12.6,12.6,0,0,1-4.022,2.161,14.04,14.04,0,0,1-4.338.715h-8.776Zm7.313,19.745a14.834,14.834,0,0,0,3.706-.449,8.807,8.807,0,0,0,3.043-1.4,6.633,6.633,0,0,0,2.044-2.46,8.215,8.215,0,0,0,.747-3.673,9.142,9.142,0,0,0-.665-3.657,6.332,6.332,0,0,0-1.845-2.476,7.667,7.667,0,0,0-2.791-1.4,13.19,13.19,0,0,0-3.541-.449h-3.823V20.344Z" fill="#1a1311"/>
      <path id="パス_25" data-name="パス 25" d="M17.405,17.228a24.011,24.011,0,0,0-2.774-.133H3.839c-1.007,0-2.014.058-2.793.133V14.8a22.658,22.658,0,0,0,2.793.133H14.631a20.6,20.6,0,0,0,2.774-.133Z" fill="#1a1311"/>
      <path id="パス_26" data-name="パス 26" d="M19.837,15.746a.654.654,0,0,0,.171.019c.133,0,.532-.019,1.159-.077.02-.929.038-1.823.038-2.507a23.2,23.2,0,0,0-.152-3.629,9.845,9.845,0,0,0,1.33.076h.609a7.789,7.789,0,0,0,.741-1.994l2.013.3c-.341.7-.588,1.217-.855,1.692h1.083a10.477,10.477,0,0,0,1.464-.076,7.263,7.263,0,0,0-.058,1.14v4.142a3.911,3.911,0,0,0,.456-.095v1.672c-.227.057-.323.076-.456.113v6.233c0,.836-.133,1.177-.569,1.463a2.692,2.692,0,0,1-1.464.285A11.507,11.507,0,0,1,23.9,24.41a5.31,5.31,0,0,0-.362-1.843,9.991,9.991,0,0,0,1.805.19c.305,0,.381-.057.381-.38V16.849a5.566,5.566,0,0,0-.647.094.319.319,0,0,1-.132.019v2.849A12.278,12.278,0,0,0,25,21.466H23.428a9.109,9.109,0,0,0,.1-1.655v-2.64l-.723.114c-.133,3.42-.589,5.51-1.614,7.41a8.29,8.29,0,0,0-1.539-1.5,7.441,7.441,0,0,0,1.178-3.134,18.375,18.375,0,0,0,.265-2.547c-.665.095-1.063.152-1.178.19l-.265-1.957ZM22.9,12.44c-.02,1.425-.02,1.805-.038,3.1.912-.095,2.108-.267,2.869-.4V11.2H22.9ZM24.36,11.7a11.7,11.7,0,0,1,1.1,2.433l-1.368.683a9.44,9.44,0,0,0-1.007-2.547Zm11.513,4.845a6.34,6.34,0,0,0-.341.7,14.426,14.426,0,0,1-2.261,3.8,10.209,10.209,0,0,0,3.438,1.709,8.137,8.137,0,0,0-1.045,1.938,12.35,12.35,0,0,1-3.705-2.28A13.972,13.972,0,0,1,28.6,24.657a5.566,5.566,0,0,0-1.2-1.748,10.276,10.276,0,0,0,3.249-1.9,11.56,11.56,0,0,1-2.015-3.742c-.151.018-.209.018-.456.056V15.5a6.9,6.9,0,0,0,1.274.076h4.255a6.029,6.029,0,0,0,1.274-.076Zm-5-6.4c-.076,2.375-.627,3.761-1.9,4.9a5.314,5.314,0,0,0-1.35-1.482c1.1-.8,1.539-1.919,1.539-4.066a5.38,5.38,0,0,0-.094-1.083,13.556,13.556,0,0,0,1.481.076h2.186a12.511,12.511,0,0,0,1.577-.076c-.038.418-.058.874-.058,1.539v2.717c0,.267.058.323.323.323.38,0,.513-.038.571-.209a10.118,10.118,0,0,0,.189-1.9,4.309,4.309,0,0,0,1.483.683c-.229,2.776-.438,3.041-2.319,3.041-1.728,0-2-.152-2-1.177V10.142Zm-.361,7.1c.323.723.532,1.2.665,1.426a7.49,7.49,0,0,0,.761,1.082,8.463,8.463,0,0,0,1.577-2.508Z" fill="#1a1311"/>
      <path id="パス_27" data-name="パス 27" d="M43.568,22.909a10.067,10.067,0,0,0,.113,1.861h-2.2a12.819,12.819,0,0,0,.113-1.9V18.292a14.655,14.655,0,0,1-2.032,1.558,7.1,7.1,0,0,0-.931-1.9,12.846,12.846,0,0,0,3.134-2.471,10.65,10.65,0,0,0,1.977-2.811H40.775a11.19,11.19,0,0,0-1.52.076V10.711a10.746,10.746,0,0,0,1.424.076h.932V9.266A7.869,7.869,0,0,0,41.5,7.88h2.184a7.632,7.632,0,0,0-.094,1.406v1.5h.759a6.576,6.576,0,0,0,1.046-.058l.873.952a6,6,0,0,0-.4.778,14.854,14.854,0,0,1-1.824,3.116,10.166,10.166,0,0,0,2.887,2.3,8.637,8.637,0,0,0-.987,1.805,9.968,9.968,0,0,1-2.375-2.052Zm7.752-.874h2.185a19.548,19.548,0,0,0,2.089-.095v2.185a18.2,18.2,0,0,0-2.089-.114H47.273a17.1,17.1,0,0,0-2.053.114V21.94a20.3,20.3,0,0,0,2.072.095h1.995V14.91H47.919c-.608,0-1.216.038-1.786.1V12.934a11.741,11.741,0,0,0,1.786.1h1.368V9.818a15.23,15.23,0,0,0-.114-1.9h2.261a12.011,12.011,0,0,0-.114,1.9v3.211h1.919a11.28,11.28,0,0,0,1.805-.1v2.071c-.589-.057-1.16-.1-1.805-.1H51.32Z" fill="#1a1311"/>
      <path id="パス_28" data-name="パス 28" d="M58.407,24.714a17.5,17.5,0,0,0,.114-2.375V10.749a18.783,18.783,0,0,0-.114-2.185,17.208,17.208,0,0,0,2.146.1H71.935a17.216,17.216,0,0,0,2.147-.1,18.689,18.689,0,0,0-.1,2.185v11.61a17.159,17.159,0,0,0,.114,2.355h-2.09V23.707H60.5v1.007Zm2.09-2.773H72.011V10.427H60.5Zm7.03-9.805a5.965,5.965,0,0,0-.1-1.33h2.091a5.934,5.934,0,0,0-.1,1.33v.685h.494a9.976,9.976,0,0,0,1.482-.1v1.881a10.948,10.948,0,0,0-1.52-.1h-.456v5.131c0,1.463-.513,1.824-2.508,1.824-.475,0-.608,0-1.71-.076a5.021,5.021,0,0,0-.475-1.824,17.553,17.553,0,0,0,2.2.189c.437,0,.589-.113.589-.494v-4.75h-4.56a10.108,10.108,0,0,0-1.691.1V12.726a9.454,9.454,0,0,0,1.691.1h4.56Zm-3.078,7.088A12.8,12.8,0,0,0,62.3,15.785l1.52-1.007a17.657,17.657,0,0,1,2.3,3.382Z" fill="#1a1311"/>
      <path id="パス_29" data-name="パス 29" d="M77.939,12.459A22.95,22.95,0,0,1,81.188,14.7l-1.141,1.654A18.706,18.706,0,0,0,76.8,13.923Zm3.249,6.251c-.646,1.692-1.064,2.641-1.786,4.161-.305.646-.305.646-.57,1.236-.133.285-.133.285-.209.455l-1.748-1.539a21.627,21.627,0,0,0,2.678-5.471Zm-2.356-10.7a18.287,18.287,0,0,1,3.116,2.338l-1.235,1.6A17.727,17.727,0,0,0,77.6,9.419ZM81.15,22.054c.266.02.418.02.607.02.324,0,.818-.02,1.35-.057a26.531,26.531,0,0,0,2.261-5.035H83.411a15.192,15.192,0,0,0-1.976.113V15.043a13.7,13.7,0,0,0,1.994.115H86.28V12.421H84.094c-.721,0-1.348.038-1.937.1V10.5a12.807,12.807,0,0,0,1.957.114H86.28V9.837a11.808,11.808,0,0,0-.1-1.919h2.166a12.554,12.554,0,0,0-.1,1.919v.779h2.926a12.656,12.656,0,0,0,1.863-.114v2.015a12.068,12.068,0,0,0-1.843-.1H88.255v2.737h3.516a13.577,13.577,0,0,0,1.9-.115v2.052a14.4,14.4,0,0,0-1.9-.113H87.5a28.338,28.338,0,0,1-1.236,3.039c-.056.152-.36.761-.892,1.844a45.589,45.589,0,0,0,4.845-.608,24.182,24.182,0,0,0-1.787-2.584l1.635-.837a38.721,38.721,0,0,1,3.648,5.624l-1.767,1.065c-.4-.8-.514-1.045-.836-1.672a64.228,64.228,0,0,1-6.594.949c-2.051.209-2.393.248-2.964.361Z" fill="#1a1311"/>
      <path id="パス_30" data-name="パス 30" d="M105.375,8.165a14.515,14.515,0,0,0-.114,1.881,13.144,13.144,0,0,0,1.786,7.2,12.473,12.473,0,0,0,2.869,3.458,12.912,12.912,0,0,0,2.813,1.957,6.715,6.715,0,0,0-1.407,2.033,18.235,18.235,0,0,1-4.635-4.294,14.225,14.225,0,0,1-2.414-5,13.175,13.175,0,0,1-1.444,3.687,12.777,12.777,0,0,1-2.793,3.5,16.1,16.1,0,0,1-2.831,2.109,5.33,5.33,0,0,0-1.425-1.882,11.994,11.994,0,0,0,3.991-3.058c2.355-2.7,3.343-5.681,3.343-10.051a8.973,8.973,0,0,0-.094-1.539Z" fill="#1a1311"/>
      <path id="パス_31" data-name="パス 31" d="M4.394,39.388a16.617,16.617,0,0,0-.2-3.418c.306.018.306.018.969.051a11.573,11.573,0,0,1,1.241.187.229.229,0,0,1,.17.221,1.377,1.377,0,0,1-.1.442,11.343,11.343,0,0,0-.136,2.517c.425,0,1.683,0,3.792-.018a20.049,20.049,0,0,0-.187-3.519,16.343,16.343,0,0,1,1.921.187c.356.051.459.12.459.272a1.127,1.127,0,0,1-.119.443,5.762,5.762,0,0,0-.119,1.19v1.41c1.716-.033,2.363-.051,2.873-.1a.676.676,0,0,1,.17-.016.216.216,0,0,1,.186.085,3.845,3.845,0,0,1,.086,1.053c0,.8-.034.884-.289.884-.034,0-.034,0-.408-.033a25.948,25.948,0,0,0-2.653-.051,9.725,9.725,0,0,1-1.292,5.27,7.847,7.847,0,0,1-2.992,2.771,4.417,4.417,0,0,1-1.24.492c-.153,0-.171-.016-.527-.39a4.417,4.417,0,0,0-1.139-.9c2.447-.883,3.723-1.886,4.5-3.536a8.992,8.992,0,0,0,.748-3.722H9c-.153,0-.628,0-1.326.017-.3.017-.764.017-1.377.033,0,1.207,0,1.207.034,2.738v.22c0,.239-.05.324-.238.392a6.212,6.212,0,0,1-1.138.1c-.595,0-.68-.051-.68-.358v-.254c.067-1.548.085-1.82.1-2.805-.883.016-2.448.119-2.855.186a.207.207,0,0,1-.1.018.242.242,0,0,1-.254-.221,11.406,11.406,0,0,1-.205-1.955,20.249,20.249,0,0,0,2.772.119Z" fill="#1a1311"/>
      <path id="パス_32" data-name="パス 32" d="M30.08,45.83a7.439,7.439,0,0,1,1.751,1.888c0,.152-.221.424-.748.934-.391.374-.561.493-.68.493a.42.42,0,0,1-.255-.119c-.187-.22-.187-.22-.969-1.1a22.343,22.343,0,0,0-3.689-3.23,26.3,26.3,0,0,1-3.859,3.281,8.5,8.5,0,0,1-2.091,1.173c-.17,0-.187-.017-.6-.476a6.72,6.72,0,0,0-1.054-.918A18.187,18.187,0,0,0,22.906,44.4a20.733,20.733,0,0,0,4.267-5.423,63.644,63.644,0,0,0-6.681.136c-.2.017-.238.017-.272.017a.291.291,0,0,1-.323-.272,11.807,11.807,0,0,1-.119-1.955,46.126,46.126,0,0,0,5.423.221,26.155,26.155,0,0,0,2.618-.1,1.954,1.954,0,0,0,.612-.153.368.368,0,0,1,.2-.034c.289,0,.595.238,1,.782a2.421,2.421,0,0,1,.51,1c0,.2-.051.271-.493.68a5.347,5.347,0,0,0-.918,1.275,24.585,24.585,0,0,1-1.938,2.7,23.364,23.364,0,0,1,3.281,2.55" fill="#1a1311"/>
      <path id="パス_33" data-name="パス 33" d="M36.523,42.226a3.6,3.6,0,0,1-.374.018.377.377,0,0,0-.153.017h-.153a.3.3,0,0,1-.323-.289,8.926,8.926,0,0,1-.136-1.752A21.833,21.833,0,0,0,38,40.339q3.341.052,4.029.051c2.839,0,6.155-.051,6.681-.1h.153c.238,0,.238.017.238,1.138,0,.748-.034.834-.272.834h-.119c-.782-.035-1.105-.035-5.1-.086a10.36,10.36,0,0,1-.357,2.619,6.918,6.918,0,0,1-3.23,4.318,2.756,2.756,0,0,1-1,.475c-.085,0-.153-.033-.289-.169a4.433,4.433,0,0,0-1.428-1.088c3.009-1.411,4.114-3.026,4.216-6.171-2.753.016-3.689.034-5,.067m5.933-5.745c1.632,0,3.417-.052,4.131-.136h.085c.238,0,.289.119.289.646v.356c0,.1,0,.273-.017.477,0,.459-.034.51-.357.51h-.2c-.459-.017-3.57-.069-4.335-.069-2.04,0-3.519.035-4.063.1a.444.444,0,0,1-.136.016.252.252,0,0,1-.288-.22,12.182,12.182,0,0,1-.137-1.836c.731.085,2.941.153,5.032.153" fill="#1a1311"/>
      <path id="パス_34" data-name="パス 34" d="M65.95,40.7c0,.781-.017.884-.238.884h-.085c-.6-.034-.782-.034-5.134-.034a10.993,10.993,0,0,1-2.21,6.1,7.039,7.039,0,0,1-1.938,1.8.725.725,0,0,1-.357.136.5.5,0,0,1-.357-.153,4.424,4.424,0,0,0-1.581-.884,7.989,7.989,0,0,0,4.335-6.987c-3.163.017-4.9.069-5.355.136a.423.423,0,0,1-.136.017.243.243,0,0,1-.256-.221,6.841,6.841,0,0,1-.237-1.887,50.472,50.472,0,0,0,6.086.152V39a13.247,13.247,0,0,0-.222-3.027,16.63,16.63,0,0,1,2.228.17c.255.052.357.137.357.307,0,.1,0,.119-.119.425a5.538,5.538,0,0,0-.119,1.411c0,.408,0,.441-.017,1.462,2.329-.017,4.165-.1,4.947-.187a.423.423,0,0,1,.136-.017c.221,0,.272.153.272.748V40.7Z" fill="#1a1311"/>
      <path id="パス_35" data-name="パス 35" d="M75.5,39.166a38.6,38.6,0,0,0-5.729.272.063.063,0,0,1-.052.017c-.322,0-.424-.561-.475-2.311a33.075,33.075,0,0,0,4.437.169c2.278,0,4.947-.05,5.371-.1a2.214,2.214,0,0,0,.715-.171.4.4,0,0,1,.187-.034c.289,0,.646.272,1.19.918.322.408.391.51.391.7a.6.6,0,0,1-.17.374c-.17.2-.188.255-.561,1.445a15.773,15.773,0,0,1-5.389,7.65,7.955,7.955,0,0,1-2.244,1.377c-.187,0-.221-.017-.612-.408a4.873,4.873,0,0,0-1.275-.969,13.6,13.6,0,0,0,5.168-3.961,11.45,11.45,0,0,0,2.295-4.981c-1.326.017-1.326.017-3.247.017m7.343-1.717c-.374.323-.594.476-.7.476s-.1,0-.408-.51a7.544,7.544,0,0,0-1.071-1.377c-.068-.068-.085-.1-.085-.152,0-.137.646-.613.833-.613.135,0,.339.17.85.747a3.944,3.944,0,0,1,.781,1.106c0,.119-.05.187-.2.323m.766-.867a7.25,7.25,0,0,0-1.258-1.632c-.068-.068-.085-.1-.085-.136,0-.085.085-.17.374-.374.221-.17.323-.2.442-.2.187.017.629.443,1.207,1.191a1.936,1.936,0,0,1,.391.645c0,.085-.051.17-.256.323a1.759,1.759,0,0,1-.628.358c-.068,0-.12-.035-.187-.171" fill="#1a1311"/>
      <path id="パス_36" data-name="パス 36" d="M91.042,37.195a.29.29,0,0,1,.2.289.769.769,0,0,1-.034.238,4.466,4.466,0,0,0-.12,1.326c-.033,4.148-.781,6.8-2.566,9.061-.392.476-.544.629-.714.629a.746.746,0,0,1-.289-.1,4.728,4.728,0,0,0-1.649-.612,8.676,8.676,0,0,0,2.141-2.976,12.943,12.943,0,0,0,1-5.643,13.219,13.219,0,0,0-.171-2.482,8.112,8.112,0,0,1,2.194.272m1.819,1.648a14.861,14.861,0,0,0-.153-2.209c1.836.067,2.5.2,2.5.543a.868.868,0,0,1-.085.34,2.165,2.165,0,0,0-.119.629c-.051.46-.051.46-.085,7.939a15.7,15.7,0,0,0,5-4.2,8.462,8.462,0,0,0,.255,2.041.735.735,0,0,1,.05.289c0,.272-.17.492-.951,1.224a15.159,15.159,0,0,1-3.689,2.584,3.241,3.241,0,0,0-.8.526.659.659,0,0,1-.392.17,3.313,3.313,0,0,1-1.258-.832c-.339-.34-.493-.6-.493-.816a.848.848,0,0,1,.069-.29,4.28,4.28,0,0,0,.153-1.564Z" fill="#1a1311"/>
      <path id="パス_37" data-name="パス 37" d="M104.3,42.43h-.374a.375.375,0,0,0-.152.017h-.154a.3.3,0,0,1-.323-.273,8.947,8.947,0,0,1-.136-1.75c1.021.1,3.367.17,6.58.17,2.889,0,6.221-.05,6.749-.1h.153c.237,0,.237.016.237,1.139,0,.748-.034.832-.271.832h-.119c-.783-.033-1.106-.033-5.1-.084A10.4,10.4,0,0,1,111.035,45a6.924,6.924,0,0,1-3.231,4.318,2.765,2.765,0,0,1-1,.476c-.085,0-.152-.035-.289-.17a4.171,4.171,0,0,0-1.428-1.088c3.009-1.411,4.115-3.027,4.216-6.171-2.754.017-3.688.017-5,.068m1.751-5.832c.392.018.732.035.918.035.867.051,1.122.051,2.244.051a45.678,45.678,0,0,0,4.709-.137h.085c.238,0,.289.12.289.647v.357c0,.1,0,.272-.016.476,0,.459-.035.51-.358.51-.186,0-1.428-.034-2.618-.051-.255-.017-.68-.017-1.292-.017-2.176,0-3.705.034-4.25.1a.422.422,0,0,1-.136.017.254.254,0,0,1-.289-.221,12.464,12.464,0,0,1-.136-1.836,6.225,6.225,0,0,0,.85.067m9.691,1.326a7.427,7.427,0,0,0-1.258-1.716c-.1-.1-.1-.1-.1-.153,0-.1.1-.205.392-.426.271-.186.374-.254.475-.254.136,0,.306.135.732.594a4.484,4.484,0,0,1,.934,1.276c0,.1-.05.17-.255.34-.374.323-.612.476-.748.476-.068,0-.1-.034-.169-.137m2.4-1.274a1.034,1.034,0,0,1-.459.237c-.051,0-.1-.033-.17-.152a8.025,8.025,0,0,0-1.274-1.666.246.246,0,0,1-.085-.137,1.917,1.917,0,0,1,.867-.611c.136.017.186.034.374.2a5.779,5.779,0,0,1,1.258,1.632c0,.1-.137.221-.511.493" fill="#1a1311"/>
      <path id="パス_38" data-name="パス 38" d="M123.257,39.591a16.586,16.586,0,0,0-.2-3.416l.969.051a11.339,11.339,0,0,1,1.241.186.231.231,0,0,1,.17.222,1.4,1.4,0,0,1-.1.441,11.266,11.266,0,0,0-.136,2.516c.425,0,1.683,0,3.791-.017a20.02,20.02,0,0,0-.187-3.518,16.172,16.172,0,0,1,1.921.186c.357.052.459.12.459.273a1.1,1.1,0,0,1-.119.441,5.856,5.856,0,0,0-.119,1.19v1.412c1.717-.034,2.363-.051,2.873-.1a.676.676,0,0,1,.17-.016.217.217,0,0,1,.187.085,3.907,3.907,0,0,1,.085,1.053c0,.8-.034.885-.289.885-.034,0-.034,0-.408-.035a25.935,25.935,0,0,0-2.652-.051,9.735,9.735,0,0,1-1.292,5.27,7.854,7.854,0,0,1-2.992,2.771,4.368,4.368,0,0,1-1.241.493c-.153,0-.17-.016-.527-.391a4.418,4.418,0,0,0-1.139-.9c2.448-.883,3.723-1.886,4.5-3.536a8.979,8.979,0,0,0,.748-3.722h-1.1c-.153,0-.629,0-1.326.016-.306.018-.765.018-1.377.034,0,1.207,0,1.207.034,2.738v.22c0,.239-.051.324-.238.391a6.21,6.21,0,0,1-1.139.1c-.6,0-.68-.052-.68-.357v-.256c.068-1.547.084-1.818.1-2.8-.884.017-2.448.119-2.856.187a.216.216,0,0,1-.1.017.243.243,0,0,1-.255-.222,11.306,11.306,0,0,1-.2-1.955,20.063,20.063,0,0,0,2.771.119Zm9.6-1.513a7.986,7.986,0,0,0-1.1-1.87.141.141,0,0,1-.051-.1c0-.137.612-.545.8-.545.17,0,.493.375.986,1.123a2.77,2.77,0,0,1,.493.918c0,.119-.119.238-.493.441a1.459,1.459,0,0,1-.459.188c-.085,0-.136-.034-.17-.154m2.006-2.567a4.2,4.2,0,0,1,.73,1.275c0,.1-.135.221-.424.391a1.576,1.576,0,0,1-.493.205.194.194,0,0,1-.17-.154,8.7,8.7,0,0,0-1.071-1.819.172.172,0,0,1-.068-.119c0-.135.6-.492.816-.492.136,0,.272.135.68.713" fill="#1a1311"/>
      <path id="パス_39" data-name="パス 39" d="M145.748,44.1c0,2.142.034,3.723.1,4.879V49.1c0,.187-.051.254-.222.272a10.554,10.554,0,0,1-1.5.084c-.527,0-.578-.034-.578-.323v-.084c.068-.867.1-2.805.1-4.947V41.853a27.674,27.674,0,0,1-2.7,1.6,7.55,7.55,0,0,1-2.04.9.443.443,0,0,1-.357-.187,6.361,6.361,0,0,0-1.428-1.241,23.426,23.426,0,0,0,4.931-2.346,23.109,23.109,0,0,0,4.929-4.113,4.441,4.441,0,0,0,.562-.8c1.07.714,1.836,1.429,1.836,1.751,0,.1-.069.188-.273.272a4.524,4.524,0,0,0-1.223.919c-.748.663-1.48,1.258-2.143,1.751Z" fill="#1a1311"/>
      <path id="パス_40" data-name="パス 40" d="M167.729,40.254a.9.9,0,0,1,.119.391c0,.17-.068.289-.289.6a17.7,17.7,0,0,1-3.451,3.383,25.635,25.635,0,0,1-5.184,3.178c-1.31.613-1.378.647-1.581.834-.137.135-.205.17-.307.17-.152,0-.289-.136-.544-.51a7.609,7.609,0,0,1-.85-1.8,19.5,19.5,0,0,0,5.763-2.567,15.22,15.22,0,0,0,5.542-5.507,9.365,9.365,0,0,0,.782,1.835M156.407,37.4c.289-.323.408-.408.562-.408a9.941,9.941,0,0,1,2.651,1.682c.646.528.85.748.85.918a3.364,3.364,0,0,1-.713,1.037c-.374.426-.562.579-.7.579-.119,0-.119,0-.816-.662a14.22,14.22,0,0,0-1.768-1.413c-.6-.39-.6-.39-.714-.459a.2.2,0,0,1-.1-.152,3.4,3.4,0,0,1,.748-1.122" fill="#1a1311"/>
      <path id="パス_41" data-name="パス 41" d="M172.795,42.175c-.033,0-.118.018-.135.018-.374,0-.527-.578-.646-2.329a36.189,36.189,0,0,0,5.168.186c3.4,0,4.318,0,4.641-.033a2.208,2.208,0,0,0,.646-.137.785.785,0,0,1,.323-.068.988.988,0,0,1,.731.408,2.988,2.988,0,0,1,.765,1.207c0,.188-.085.323-.289.545-.136.119-.221.272-.544,1a11.217,11.217,0,0,1-4.42,5.305,9.99,9.99,0,0,1-2.738,1.275c-.237,0-.373-.1-.662-.442a3,3,0,0,0-1.122-.952,12.367,12.367,0,0,0,4.964-2.754,8.672,8.672,0,0,0,2.159-3.587c-6.443.085-7.634.135-8.841.356m5.56-6.035a36.076,36.076,0,0,0,3.723-.135h.2c.22,0,.305.17.323.68,0,.2,0,.391.017.56v.069c0,.611-.068.781-.289.781-.068,0-.2-.017-.357-.017-.323-.034-1.6-.067-2.125-.067-2.55,0-4.369.033-5.372.119h-.136c-.442,0-.51-.256-.612-2.16a36.548,36.548,0,0,0,4.624.17" fill="#1a1311"/>
      <path id="パス_42" data-name="パス 42" d="M192.635,43.076c0,.085-.034.136-.171.289a2.205,2.205,0,0,0-.357.645c-.748,1.65-2.09,3.469-2.584,3.469-.1,0-.135-.017-.493-.323a4.548,4.548,0,0,0-1.138-.629,7.4,7.4,0,0,0,2.77-4.436c1.377.441,1.973.748,1.973.985m1.581-2.5a49.7,49.7,0,0,0-5.254.153h-.033a.34.34,0,0,1-.324-.272,6.865,6.865,0,0,1-.17-1.785,34.931,34.931,0,0,0,5.134.2h.647v-.459a12.38,12.38,0,0,0-.188-2.347,10.631,10.631,0,0,1,2.295.255.258.258,0,0,1,.188.271.923.923,0,0,1-.119.375,3.354,3.354,0,0,0-.205,1.428v.477h1.105c1.1,0,3.281-.086,3.961-.137a.6.6,0,0,1,.187-.018.19.19,0,0,1,.2.17c.017.086.035.578.035.8,0,.9-.018.952-.358.952-.085,0-.255,0-1.241-.034-.6-.017-.815-.017-3.876-.034v3.18c0,1.7,0,1.7.034,3.144.017.2.017.357.017.459,0,1.648-.6,2.193-2.362,2.193a4.808,4.808,0,0,1-1.429-.136c-.118-.051-.153-.136-.2-.391a6.335,6.335,0,0,0-.528-1.6,6.618,6.618,0,0,0,1.785.238c.612,0,.731-.154.731-.918Zm6.919,6.63a.39.39,0,0,1-.239.119c-.3,0-.918-.7-1.666-1.87A12.072,12.072,0,0,1,197.9,42.8c0-.134.119-.254.391-.39a4.424,4.424,0,0,1,1.122-.459c.137,0,.2.085.307.289a13.015,13.015,0,0,0,1.257,2.312,8.552,8.552,0,0,0,1.564,1.75,4.389,4.389,0,0,0-1.41.9m-1.718-9.18a7.711,7.711,0,0,0-1.207-1.751c-.1-.1-.1-.119-.1-.153,0-.118.085-.2.409-.425a1.124,1.124,0,0,1,.475-.238c.136,0,.307.136.714.629a4.755,4.755,0,0,1,.9,1.309c0,.187-.782.782-1.02.782-.068,0-.118-.035-.17-.153m2.414-1.207a1.423,1.423,0,0,1-.459.221c-.067,0-.1-.034-.17-.154a8.237,8.237,0,0,0-1.224-1.7c-.068-.068-.084-.1-.084-.137,0-.135.7-.594.9-.594.085,0,.17.051.341.221a5.633,5.633,0,0,1,1.223,1.649c0,.1-.135.238-.527.493" fill="#1a1311"/>
      <path id="パス_43" data-name="パス 43" d="M1.213,78.416v-13.9H3.321v11.92h6.787v1.983Z" fill="#1a1311"/>
      <path id="パス_44" data-name="パス 44" d="M17.581,78.45v-.875h-.042a1.622,1.622,0,0,1-.829.744,4.057,4.057,0,0,1-1.545.247,3.485,3.485,0,0,1-2.479-.877,2.781,2.781,0,0,1-.916-2.146,2.915,2.915,0,0,1,.792-2.079,3.122,3.122,0,0,1,2.337-.858h2.682V71.554q.009-1.318-1.977-1.28a3.684,3.684,0,0,0-1.144.152,1.4,1.4,0,0,0-.678.62l-1.527-1.2a3.721,3.721,0,0,1,3.255-1.439,5.073,5.073,0,0,1,2.9.706,2.942,2.942,0,0,1,1.1,2.556V78.45Zm0-3.476v-.725h-2.32q-1.7.049-1.681,1.2a1.083,1.083,0,0,0,.439.857A2,2,0,0,0,15.4,76.7a3.308,3.308,0,0,0,1.719-.3q.459-.313.459-1.429" fill="#1a1311"/>
      <path id="パス_45" data-name="パス 45" d="M22.154,78.416v-13.9h1.992V69.57a5.271,5.271,0,0,1,1.168-.848A2.914,2.914,0,0,1,26.7,68.4a3.155,3.155,0,0,1,1.563.367,3.516,3.516,0,0,1,1.086.921,3.022,3.022,0,0,1,.558,1.245,14.459,14.459,0,0,1,.148,2.524,14.786,14.786,0,0,1-.148,2.553,2.951,2.951,0,0,1-.558,1.246,3.362,3.362,0,0,1-1.086.921,3.231,3.231,0,0,1-1.563.358,3.3,3.3,0,0,1-2.555-1.145v1.028ZM26.1,70.39q-1.4,0-1.678,1a7.727,7.727,0,0,0-.276,2.062,7.839,7.839,0,0,0,.276,2.091q.277,1,1.678,1t1.683-.965a7.6,7.6,0,0,0,.281-2.129,7.5,7.5,0,0,0-.281-2.1q-.282-.964-1.683-.964" fill="#1a1311"/>
      <path id="パス_46" data-name="パス 46" d="M32.225,73.455a8.453,8.453,0,0,1,.248-2.376,3.8,3.8,0,0,1,.822-1.413,4.623,4.623,0,0,1,1.13-.858,4.5,4.5,0,0,1,3.755,0,4.59,4.59,0,0,1,1.136.858,3.8,3.8,0,0,1,.821,1.413,8.454,8.454,0,0,1,.248,2.376,8.6,8.6,0,0,1-.248,2.406,3.789,3.789,0,0,1-.821,1.412,4.3,4.3,0,0,1-1.136.859,4.6,4.6,0,0,1-3.755,0,4.324,4.324,0,0,1-1.13-.859,3.791,3.791,0,0,1-.822-1.412,8.6,8.6,0,0,1-.248-2.406m6.176.019a7.185,7.185,0,0,0-.109-1.519,2.705,2.705,0,0,0-.378-.839,1.846,1.846,0,0,0-1.605-.726,1.816,1.816,0,0,0-1.6.726,2.3,2.3,0,0,0-.387.839,7.647,7.647,0,0,0-.1,1.5,7.935,7.935,0,0,0,.1,1.533,2.223,2.223,0,0,0,.387.836,1.82,1.82,0,0,0,1.6.725,1.851,1.851,0,0,0,1.605-.725,2.6,2.6,0,0,0,.378-.831,7.178,7.178,0,0,0,.109-1.519" fill="#1a1311"/>
      <path id="パス_47" data-name="パス 47" d="M42.916,78.416v-9.9h1.992v1.055h.038A3.1,3.1,0,0,1,47.523,68.4a3.328,3.328,0,0,1,2.072.763l-1.442,1.716a2.182,2.182,0,0,0-1.317-.486,2.042,2.042,0,0,0-1.331.491,1.929,1.929,0,0,0-.6,1.58v5.955Z" fill="#1a1311"/>
      <path id="パス_48" data-name="パス 48" d="M56.185,78.45v-.875h-.041a1.621,1.621,0,0,1-.83.744,4.053,4.053,0,0,1-1.545.247,3.487,3.487,0,0,1-2.479-.877,2.784,2.784,0,0,1-.916-2.146,2.919,2.919,0,0,1,.792-2.079,3.126,3.126,0,0,1,2.338-.858h2.681V71.554q.01-1.318-1.976-1.28a3.7,3.7,0,0,0-1.145.152,1.407,1.407,0,0,0-.678.62l-1.527-1.2a3.722,3.722,0,0,1,3.255-1.439,5.074,5.074,0,0,1,2.9.706,2.941,2.941,0,0,1,1.1,2.556V78.45Zm0-3.476v-.725h-2.32q-1.7.049-1.681,1.2a1.083,1.083,0,0,0,.439.857,2.007,2.007,0,0,0,1.385.391,3.311,3.311,0,0,0,1.719-.3q.459-.313.458-1.429" fill="#1a1311"/>
      <path id="パス_49" data-name="パス 49" d="M60.873,78.425V70.041h-1V68.514h1V66.957l1.992-2.129v3.686h1.452v1.527H62.865v8.384Z" fill="#1a1311"/>
      <path id="パス_50" data-name="パス 50" d="M66.124,73.455a8.416,8.416,0,0,1,.248-2.376,3.787,3.787,0,0,1,.821-1.413,4.624,4.624,0,0,1,1.13-.858,4.506,4.506,0,0,1,3.756,0,4.59,4.59,0,0,1,1.136.858,3.784,3.784,0,0,1,.82,1.413,8.416,8.416,0,0,1,.248,2.376,8.562,8.562,0,0,1-.248,2.406,3.773,3.773,0,0,1-.82,1.412,4.3,4.3,0,0,1-1.136.859,4.6,4.6,0,0,1-3.756,0,4.324,4.324,0,0,1-1.13-.859,3.775,3.775,0,0,1-.821-1.412,8.561,8.561,0,0,1-.248-2.406m6.176.019a7.167,7.167,0,0,0-.11-1.519,2.726,2.726,0,0,0-.377-.839,1.848,1.848,0,0,0-1.605-.726,1.815,1.815,0,0,0-1.6.726,2.32,2.32,0,0,0-.388.839,7.75,7.75,0,0,0-.1,1.5,8.041,8.041,0,0,0,.1,1.533,2.241,2.241,0,0,0,.388.836,1.819,1.819,0,0,0,1.6.725,1.852,1.852,0,0,0,1.605-.725,2.623,2.623,0,0,0,.377-.831,7.16,7.16,0,0,0,.11-1.519" fill="#1a1311"/>
      <path id="パス_51" data-name="パス 51" d="M76.813,78.416v-9.9h1.992v1.055h.038A3.1,3.1,0,0,1,81.421,68.4a3.33,3.33,0,0,1,2.072.763L82.05,70.876a2.182,2.182,0,0,0-1.317-.486,2.042,2.042,0,0,0-1.331.491,1.932,1.932,0,0,0-.6,1.58v5.955Z" fill="#1a1311"/>
      <path id="パス_52" data-name="パス 52" d="M86.961,78.033l-3.551-9.52h2.1l2.347,6.94H87.9l2.348-6.94h2.11L88.1,80.47a2.754,2.754,0,0,1-1.156,1.55,3.344,3.344,0,0,1-1.641.406h-.668V80.541h.592a1.161,1.161,0,0,0,1.192-.859Z" fill="#1a1311"/>
      <path id="パス_53" data-name="パス 53" d="M99.366,78.416V70.041h-1V68.514h1l0-1.309a2.534,2.534,0,0,1,.766-2.038,2.863,2.863,0,0,1,1.931-.654h1.292V66.38h-1.13q-.872,0-.871.823v1.311h2v1.527h-2v8.375Z" fill="#1a1311"/>
      <path id="パス_54" data-name="パス 54" d="M104.418,73.455a8.416,8.416,0,0,1,.248-2.376,3.787,3.787,0,0,1,.821-1.413,4.624,4.624,0,0,1,1.13-.858,4.506,4.506,0,0,1,3.756,0,4.59,4.59,0,0,1,1.136.858,3.784,3.784,0,0,1,.82,1.413,8.416,8.416,0,0,1,.248,2.376,8.561,8.561,0,0,1-.248,2.406,3.773,3.773,0,0,1-.82,1.412,4.3,4.3,0,0,1-1.136.859,4.6,4.6,0,0,1-3.756,0,4.324,4.324,0,0,1-1.13-.859,3.775,3.775,0,0,1-.821-1.412,8.561,8.561,0,0,1-.248-2.406m6.176.019a7.167,7.167,0,0,0-.11-1.519,2.726,2.726,0,0,0-.377-.839,1.848,1.848,0,0,0-1.605-.726,1.815,1.815,0,0,0-1.6.726,2.32,2.32,0,0,0-.388.839,7.75,7.75,0,0,0-.1,1.5,8.041,8.041,0,0,0,.1,1.533,2.241,2.241,0,0,0,.388.836,1.819,1.819,0,0,0,1.6.725,1.852,1.852,0,0,0,1.605-.725,2.623,2.623,0,0,0,.377-.831,7.16,7.16,0,0,0,.11-1.519" fill="#1a1311"/>
      <path id="パス_55" data-name="パス 55" d="M115.107,78.416v-9.9H117.1v1.055h.038a3.1,3.1,0,0,1,2.577-1.172,3.328,3.328,0,0,1,2.072.763l-1.442,1.716a2.182,2.182,0,0,0-1.317-.486,2.042,2.042,0,0,0-1.331.491,1.929,1.929,0,0,0-.6,1.58v5.955Z" fill="#1a1311"/>
      <path id="パス_56" data-name="パス 56" d="M0,101.623l1.394-1.584a6.466,6.466,0,0,0,1.8,1.012,6.072,6.072,0,0,0,2.139.382,3.384,3.384,0,0,0,2.023-.535,1.656,1.656,0,0,0,.735-1.4q0-1.643-1.813-1.88c-.318-.038-.614-.077-.887-.115s-.591-.082-.954-.134a4.284,4.284,0,0,1-2.748-1.321,3.787,3.787,0,0,1-.944-2.591,3.882,3.882,0,0,1,1.188-2.921A4.62,4.62,0,0,1,5.28,89.388,7.069,7.069,0,0,1,7.7,89.8,9.9,9.9,0,0,1,9.8,90.837L8.621,92.573A7.789,7.789,0,0,0,6.979,91.8a5.553,5.553,0,0,0-1.793-.3,2.716,2.716,0,0,0-1.652.5,1.726,1.726,0,0,0-.678,1.489A1.644,1.644,0,0,0,3.314,94.6a2.47,2.47,0,0,0,1.517.677c.185.033.407.066.668.1s.56.071.9.109A4.125,4.125,0,0,1,9.272,96.9a4.08,4.08,0,0,1,.93,2.6,3.6,3.6,0,0,1-1.326,2.979,5.537,5.537,0,0,1-3.56,1.059A7.775,7.775,0,0,1,0,101.623" fill="#1a1311"/>
      <path id="パス_57" data-name="パス 57" d="M12.688,100.1V93.514h1.991v5.907a2.124,2.124,0,0,0,.559,1.57,1.916,1.916,0,0,0,1.415.558,1.885,1.885,0,0,0,1.388-.558,2.123,2.123,0,0,0,.556-1.57V93.514H20.59v9.9H18.6v-1.047h-.041A3.078,3.078,0,0,1,16,103.533a3.507,3.507,0,0,1-2.243-.873,3.111,3.111,0,0,1-1.072-2.562" fill="#1a1311"/>
      <path id="パス_58" data-name="パス 58" d="M22.5,101.77,23.9,100.4a4.3,4.3,0,0,0,3.121,1.27,2.767,2.767,0,0,0,1.4-.321,1.031,1.031,0,0,0,.554-.949q0-.869-1.214-.975L26,99.259a3.393,3.393,0,0,1-2.045-.811,2.521,2.521,0,0,1-.811-1.995A2.647,2.647,0,0,1,24.2,94.171a4.345,4.345,0,0,1,2.633-.773,5.694,5.694,0,0,1,3.886,1.349L29.492,96.2a6.617,6.617,0,0,0-1.221-.659,3.755,3.755,0,0,0-1.433-.258,1.984,1.984,0,0,0-1.326.339,1.1,1.1,0,0,0-.372.853.841.841,0,0,0,.276.6,1.654,1.654,0,0,0,1.032.333l1.643.115a2.918,2.918,0,0,1,2.207.949,3.152,3.152,0,0,1,.669,2.017,2.549,2.549,0,0,1-1.193,2.252,5.142,5.142,0,0,1-2.909.791A6.2,6.2,0,0,1,22.5,101.77" fill="#1a1311"/>
      <path id="パス_59" data-name="パス 59" d="M33.528,103.425V95.041h-1V93.514h1V91.957l1.992-2.129v3.686h1.452v1.527H35.52v8.384Z" fill="#1a1311"/>
      <path id="パス_60" data-name="パス 60" d="M44.515,103.45v-.875h-.041a1.621,1.621,0,0,1-.83.744,4.053,4.053,0,0,1-1.545.247,3.487,3.487,0,0,1-2.479-.877,2.784,2.784,0,0,1-.916-2.146,2.919,2.919,0,0,1,.792-2.079,3.126,3.126,0,0,1,2.338-.858h2.681V96.554q.01-1.318-1.976-1.28a3.7,3.7,0,0,0-1.145.152,1.407,1.407,0,0,0-.678.62l-1.527-1.2a3.722,3.722,0,0,1,3.255-1.439,5.074,5.074,0,0,1,2.9.706,2.941,2.941,0,0,1,1.1,2.556v6.782Zm0-3.476v-.725h-2.32q-1.7.049-1.681,1.2a1.083,1.083,0,0,0,.439.857,2.007,2.007,0,0,0,1.385.391,3.311,3.311,0,0,0,1.719-.3q.459-.313.458-1.429" fill="#1a1311"/>
      <path id="パス_61" data-name="パス 61" d="M49.145,89.513h1.992V91.5H49.145Zm0,4h1.992v9.907H49.145Z" fill="#1a1311"/>
      <path id="パス_62" data-name="パス 62" d="M54.2,103.416v-9.9H56.19v1.055h.042A3.093,3.093,0,0,1,58.8,93.4a3.479,3.479,0,0,1,2.225.878A3.115,3.115,0,0,1,62.1,96.832v6.584H60.108v-5.9a2.129,2.129,0,0,0-.557-1.566,1.874,1.874,0,0,0-1.387-.562,1.91,1.91,0,0,0-1.416.562,2.134,2.134,0,0,0-.558,1.566v5.9Z" fill="#1a1311"/>
      <path id="パス_63" data-name="パス 63" d="M70.36,103.45v-.875h-.041a1.621,1.621,0,0,1-.83.744,4.053,4.053,0,0,1-1.545.247,3.487,3.487,0,0,1-2.479-.877,2.784,2.784,0,0,1-.916-2.146,2.919,2.919,0,0,1,.792-2.079,3.126,3.126,0,0,1,2.338-.858H70.36V96.554q.01-1.318-1.976-1.28a3.7,3.7,0,0,0-1.145.152,1.407,1.407,0,0,0-.678.62l-1.527-1.2a3.722,3.722,0,0,1,3.255-1.439,5.074,5.074,0,0,1,2.9.706,2.941,2.941,0,0,1,1.1,2.556v6.782Zm0-3.476v-.725H68.04q-1.7.049-1.681,1.2a1.083,1.083,0,0,0,.439.857,2.007,2.007,0,0,0,1.385.391,3.311,3.311,0,0,0,1.719-.3q.459-.313.458-1.429" fill="#1a1311"/>
      <path id="パス_64" data-name="パス 64" d="M74.933,103.416v-13.9h1.992V94.57a5.271,5.271,0,0,1,1.168-.848A2.914,2.914,0,0,1,79.48,93.4a3.155,3.155,0,0,1,1.563.367,3.516,3.516,0,0,1,1.086.921,3.021,3.021,0,0,1,.558,1.245,14.458,14.458,0,0,1,.148,2.524,14.785,14.785,0,0,1-.148,2.553,2.951,2.951,0,0,1-.558,1.246,3.361,3.361,0,0,1-1.086.921,3.231,3.231,0,0,1-1.563.358,3.3,3.3,0,0,1-2.555-1.145v1.028Zm3.946-8.026q-1.4,0-1.678,1a7.727,7.727,0,0,0-.276,2.062,7.839,7.839,0,0,0,.276,2.091q.278,1,1.678,1t1.683-.965a7.6,7.6,0,0,0,.281-2.129,7.5,7.5,0,0,0-.281-2.1q-.282-.964-1.683-.964" fill="#1a1311"/>
      <path id="パス_65" data-name="パス 65" d="M85.5,101.021V89.513h1.992v11.349q0,.687.748.687h.68v1.868h-.879a2.994,2.994,0,0,1-1.814-.53,2.158,2.158,0,0,1-.727-1.866" fill="#1a1311"/>
      <path id="パス_66" data-name="パス 66" d="M98.58,99.216H92.413a2.21,2.21,0,0,0,2.357,2.449,2.978,2.978,0,0,0,2.176-.955l1.442,1.231a4.27,4.27,0,0,1-1.656,1.225,5.038,5.038,0,0,1-4.881-.621q-1.431-.988-1.43-4.042,0-2.892,1.321-4A4.26,4.26,0,0,1,94.5,93.4a4.064,4.064,0,0,1,2.853,1.13,3.944,3.944,0,0,1,1.222,3.045Zm-6.167-1.644H96.6a2.485,2.485,0,0,0-.631-1.7,1.966,1.966,0,0,0-1.461-.59,1.994,1.994,0,0,0-1.476.59,2.4,2.4,0,0,0-.616,1.7" fill="#1a1311"/>
      <path id="パス_67" data-name="パス 67" d="M106.391,103.416v-13.9h4.869a4.593,4.593,0,0,1,4.239,2.338,4.719,4.719,0,0,1,.63,1.66,24.591,24.591,0,0,1,.114,2.958,19.816,19.816,0,0,1-.157,3.135,4.379,4.379,0,0,1-.625,1.512,5.19,5.19,0,0,1-1.705,1.637,4.946,4.946,0,0,1-2.63.663ZM108.5,91.5v9.928h2.531a2.924,2.924,0,0,0,2.579-1.213,2.8,2.8,0,0,0,.435-1.131,21.972,21.972,0,0,0,.091-2.544,21.708,21.708,0,0,0-.1-2.587,2.8,2.8,0,0,0-.52-1.289A2.914,2.914,0,0,0,111.03,91.5Z" fill="#1a1311"/>
      <path id="パス_68" data-name="パス 68" d="M126.583,99.216h-6.167a2.21,2.21,0,0,0,2.357,2.449,2.978,2.978,0,0,0,2.176-.955l1.442,1.231a4.27,4.27,0,0,1-1.656,1.225,5.038,5.038,0,0,1-4.881-.621q-1.431-.988-1.43-4.042,0-2.892,1.321-4a4.26,4.26,0,0,1,2.763-1.107,4.064,4.064,0,0,1,2.853,1.13,3.944,3.944,0,0,1,1.222,3.045Zm-6.167-1.644H124.6a2.485,2.485,0,0,0-.631-1.7,1.966,1.966,0,0,0-1.461-.59,1.994,1.994,0,0,0-1.476.59,2.4,2.4,0,0,0-.616,1.7" fill="#1a1311"/>
      <path id="パス_69" data-name="パス 69" d="M128.015,101.77l1.394-1.374a4.3,4.3,0,0,0,3.121,1.27,2.767,2.767,0,0,0,1.4-.321,1.031,1.031,0,0,0,.554-.949q0-.869-1.214-.975l-1.757-.162a3.393,3.393,0,0,1-2.045-.811,2.521,2.521,0,0,1-.811-1.995,2.647,2.647,0,0,1,1.057-2.282,4.345,4.345,0,0,1,2.633-.773,5.694,5.694,0,0,1,3.886,1.349L135,96.2a6.617,6.617,0,0,0-1.221-.659,3.755,3.755,0,0,0-1.433-.258,1.984,1.984,0,0,0-1.326.339,1.1,1.1,0,0,0-.372.853.841.841,0,0,0,.276.6,1.654,1.654,0,0,0,1.032.333l1.643.115a2.918,2.918,0,0,1,2.207.949,3.152,3.152,0,0,1,.669,2.017,2.549,2.549,0,0,1-1.193,2.252,5.142,5.142,0,0,1-2.909.791,6.2,6.2,0,0,1-4.362-1.763" fill="#1a1311"/>
      <path id="パス_70" data-name="パス 70" d="M138.981,89.513h1.992V91.5h-1.992Zm0,4h1.992v9.907h-1.992Z" fill="#1a1311"/>
      <path id="パス_71" data-name="パス 71" d="M149.6,103.411v-1.023a3.322,3.322,0,0,1-2.559,1.145,3.15,3.15,0,0,1-1.627-.387,3.467,3.467,0,0,1-.988-.816,3.207,3.207,0,0,1-.587-1.173,13.93,13.93,0,0,1-.157-2.682,13.922,13.922,0,0,1,.157-2.682,3.287,3.287,0,0,1,.587-1.183,3.714,3.714,0,0,1,.988-.817,3.1,3.1,0,0,1,1.627-.395A3.42,3.42,0,0,1,149.6,94.57V93.514h1.992v9.677a4,4,0,0,1-1.3,3.292,4.6,4.6,0,0,1-2.992,1.059,4.124,4.124,0,0,1-1.869-.458,5.141,5.141,0,0,1-1.576-1.2l1.547-1.23a3.61,3.61,0,0,0,.863.63,2.247,2.247,0,0,0,1.074.267,2.378,2.378,0,0,0,1.627-.554,1.99,1.99,0,0,0,.635-1.585m-3.926-4.937a12.706,12.706,0,0,0,.062,1.585,1.523,1.523,0,0,0,.331.726,2.188,2.188,0,0,0,.591.516,1.825,1.825,0,0,0,.993.248,1.769,1.769,0,0,0,.97-.248,2.434,2.434,0,0,0,.6-.516,1.569,1.569,0,0,0,.318-.726,19.969,19.969,0,0,0,0-3.17,1.632,1.632,0,0,0-.318-.735,2.631,2.631,0,0,0-.6-.511,1.737,1.737,0,0,0-.97-.253,1.792,1.792,0,0,0-.993.253,2.345,2.345,0,0,0-.591.511,1.584,1.584,0,0,0-.331.735,12.706,12.706,0,0,0-.062,1.585" fill="#1a1311"/>
      <path id="パス_72" data-name="パス 72" d="M154.6,103.416v-9.9h1.992v1.055h.042A3.09,3.09,0,0,1,159.2,93.4a3.476,3.476,0,0,1,2.224.878,3.113,3.113,0,0,1,1.072,2.557v6.584h-1.992v-5.9a2.129,2.129,0,0,0-.557-1.566,1.876,1.876,0,0,0-1.387-.562,1.91,1.91,0,0,0-1.416.562,2.13,2.13,0,0,0-.558,1.566v5.9Z" fill="#1a1311"/>
    </g>
  </g>
</svg>
