<svg id="logo_w" xmlns="http://www.w3.org/2000/svg" xmlns:xlink="http://www.w3.org/1999/xlink" width="199.688" height="48.982" viewBox="0 0 199.688 48.982">
  <defs>
    <clipPath id="clip-path">
      <rect id="長方形_24" data-name="長方形 24" width="199.688" height="48.982" transform="translate(0 0)" fill="#fff"/>
    </clipPath>
  </defs>
  <path id="パス_74" data-name="パス 74" d="M125.027.6V24.134h14.194v-3.79H129.216V.6Z" transform="translate(0 0)" fill="#fff"/>
  <g id="グループ_32" data-name="グループ 32" transform="translate(0 0)">
    <g id="グループ_31" data-name="グループ 31" clip-path="url(#clip-path)">
      <path id="パス_75" data-name="パス 75" d="M162.358,5.651a3.874,3.874,0,0,0-1.778-1.413,6.218,6.218,0,0,0-2.344-.448,5.928,5.928,0,0,0-1.413.166,3.841,3.841,0,0,0-1.23.532,2.8,2.8,0,0,0-.881.947,2.741,2.741,0,0,0-.332,1.379,2.158,2.158,0,0,0,.831,1.829,8.163,8.163,0,0,0,2.061,1.1q1.23.465,2.693.9a11.007,11.007,0,0,1,2.692,1.2,6.663,6.663,0,0,1,2.061,2.028,6.024,6.024,0,0,1,.831,3.357,7.387,7.387,0,0,1-.7,3.308,6.748,6.748,0,0,1-1.878,2.344,8.129,8.129,0,0,1-2.742,1.4,11.447,11.447,0,0,1-3.291.466A12.363,12.363,0,0,1,152.718,24a8.147,8.147,0,0,1-3.491-2.46l3.158-3.058a5.289,5.289,0,0,0,2.012,1.811,5.649,5.649,0,0,0,2.642.648,5.538,5.538,0,0,0,1.463-.2,4.532,4.532,0,0,0,1.33-.6,3.124,3.124,0,0,0,.964-1.014,2.719,2.719,0,0,0,.365-1.413,2.458,2.458,0,0,0-.831-1.994,7.343,7.343,0,0,0-2.061-1.181q-1.23-.482-2.692-.914a11.307,11.307,0,0,1-2.693-1.18,6.551,6.551,0,0,1-2.061-1.994,5.945,5.945,0,0,1-.831-3.341,6.345,6.345,0,0,1,.748-3.158A6.856,6.856,0,0,1,152.7,1.745,8.584,8.584,0,0,1,155.477.432,11.92,11.92,0,0,1,158.668,0a11.661,11.661,0,0,1,3.607.565,8.359,8.359,0,0,1,3.141,1.862Z" fill="#fff"/>
      <path id="パス_76" data-name="パス 76" d="M178.447.6h9.274a14.216,14.216,0,0,1,4.488.714,10.926,10.926,0,0,1,3.823,2.177,10.663,10.663,0,0,1,2.659,3.674,12.553,12.553,0,0,1,1,5.2,10.929,10.929,0,0,1-4.105,8.892,12.612,12.612,0,0,1-4.023,2.161,14.035,14.035,0,0,1-4.338.715h-8.775Zm7.313,19.745a14.839,14.839,0,0,0,3.706-.449,8.8,8.8,0,0,0,3.042-1.4,6.624,6.624,0,0,0,2.044-2.46,8.214,8.214,0,0,0,.748-3.673,9.142,9.142,0,0,0-.665-3.657,6.351,6.351,0,0,0-1.845-2.476A7.68,7.68,0,0,0,190,4.837a13.182,13.182,0,0,0-3.54-.449h-3.823V20.344Z" fill="#fff"/>
      <path id="パス_77" data-name="パス 77" d="M16.519,17.228a23.788,23.788,0,0,0-2.774-.133H2.953c-1.007,0-2.014.057-2.793.133V14.8a22.858,22.858,0,0,0,2.793.133H13.745a20.771,20.771,0,0,0,2.774-.133Z" fill="#fff"/>
      <path id="パス_78" data-name="パス 78" d="M18.95,15.746a.654.654,0,0,0,.171.019c.133,0,.532-.019,1.159-.076.02-.931.038-1.824.038-2.508a23.2,23.2,0,0,0-.152-3.629,9.845,9.845,0,0,0,1.33.076H22.1a7.794,7.794,0,0,0,.741-2l2.013.3c-.341.7-.588,1.216-.855,1.691h1.083a10.477,10.477,0,0,0,1.464-.076,7.263,7.263,0,0,0-.058,1.14v4.142a3.911,3.911,0,0,0,.456-.095v1.672c-.227.057-.323.076-.456.114v6.232c0,.836-.133,1.178-.569,1.463a2.692,2.692,0,0,1-1.464.285,11.507,11.507,0,0,1-1.443-.095,5.314,5.314,0,0,0-.362-1.843,10.085,10.085,0,0,0,1.8.19c.305,0,.381-.057.381-.38V16.848a5.732,5.732,0,0,0-.647.1.319.319,0,0,1-.132.019v2.85a12.243,12.243,0,0,0,.056,1.653H22.541a9.085,9.085,0,0,0,.1-1.653V17.171l-.723.114c-.133,3.42-.589,5.51-1.614,7.41a8.29,8.29,0,0,0-1.539-1.5,7.44,7.44,0,0,0,1.178-3.135,18.329,18.329,0,0,0,.265-2.546c-.665.095-1.063.152-1.178.19l-.265-1.957Zm3.06-3.306c-.02,1.425-.02,1.805-.038,3.1.912-.095,2.108-.266,2.869-.4V11.2H22.01Zm1.463-.741a11.711,11.711,0,0,1,1.1,2.432l-1.368.684A9.433,9.433,0,0,0,22.2,12.269Zm11.513,4.845a6.34,6.34,0,0,0-.341.7,14.4,14.4,0,0,1-2.261,3.8,10.191,10.191,0,0,0,3.438,1.71,8.137,8.137,0,0,0-1.045,1.938,12.35,12.35,0,0,1-3.7-2.28,13.972,13.972,0,0,1-3.363,2.242,5.566,5.566,0,0,0-1.2-1.748,10.276,10.276,0,0,0,3.249-1.9,11.555,11.555,0,0,1-2.015-3.743c-.151.019-.209.019-.456.057V15.5a6.9,6.9,0,0,0,1.274.076H32.82a6.029,6.029,0,0,0,1.274-.076Zm-5-6.4c-.076,2.375-.627,3.762-1.9,4.9a5.314,5.314,0,0,0-1.35-1.482c1.1-.8,1.539-1.919,1.539-4.066a5.38,5.38,0,0,0-.094-1.083,13.811,13.811,0,0,0,1.481.076h2.186a12.7,12.7,0,0,0,1.577-.076c-.038.418-.058.874-.058,1.539v2.717c0,.266.058.323.323.323.38,0,.513-.038.571-.209a10.118,10.118,0,0,0,.189-1.9,4.349,4.349,0,0,0,1.483.684c-.229,2.774-.438,3.04-2.319,3.04-1.728,0-2-.152-2-1.178V10.141Zm-.361,7.106c.323.722.532,1.2.665,1.425a7.445,7.445,0,0,0,.761,1.083,8.463,8.463,0,0,0,1.577-2.508Z" fill="#fff"/>
      <path id="パス_79" data-name="パス 79" d="M42.682,22.909a10.086,10.086,0,0,0,.113,1.862h-2.2a12.834,12.834,0,0,0,.113-1.9V18.292a14.655,14.655,0,0,1-2.032,1.558,7.111,7.111,0,0,0-.931-1.9,12.842,12.842,0,0,0,3.134-2.47,10.672,10.672,0,0,0,1.977-2.812H39.889a11.356,11.356,0,0,0-1.52.076V10.711a10.746,10.746,0,0,0,1.424.076h.932V9.267a7.88,7.88,0,0,0-.114-1.387h2.184A7.632,7.632,0,0,0,42.7,9.286v1.5h.759a6.732,6.732,0,0,0,1.046-.057l.873.95a6.078,6.078,0,0,0-.4.779,14.879,14.879,0,0,1-1.824,3.116,10.166,10.166,0,0,0,2.887,2.3,8.637,8.637,0,0,0-.987,1.805,9.946,9.946,0,0,1-2.375-2.052Zm7.752-.874h2.185a19.548,19.548,0,0,0,2.089-.095v2.185a17.982,17.982,0,0,0-2.089-.114H46.387a16.893,16.893,0,0,0-2.053.114V21.94a20.3,20.3,0,0,0,2.072.095h2V14.91H47.033c-.608,0-1.216.038-1.786.1V12.934a11.872,11.872,0,0,0,1.786.1H48.4V9.818a15.242,15.242,0,0,0-.114-1.9h2.261a12.018,12.018,0,0,0-.114,1.9v3.211h1.919a11.4,11.4,0,0,0,1.805-.1v2.071c-.589-.057-1.16-.1-1.805-.1H50.434Z" fill="#fff"/>
      <path id="パス_80" data-name="パス 80" d="M57.521,24.714a17.54,17.54,0,0,0,.113-2.375V10.749a18.787,18.787,0,0,0-.113-2.185,17.223,17.223,0,0,0,2.146.1H71.049a17.26,17.26,0,0,0,2.147-.1,18.464,18.464,0,0,0-.1,2.185V22.358a17.176,17.176,0,0,0,.114,2.356H71.124V23.707H59.611v1.007Zm2.09-2.774H71.124V10.426H59.611Zm7.03-9.8a6.021,6.021,0,0,0-.1-1.33h2.09a5.99,5.99,0,0,0-.1,1.33v.684h.5a10,10,0,0,0,1.482-.095v1.881a10.984,10.984,0,0,0-1.521-.1H68.54v5.13c0,1.463-.513,1.824-2.507,1.824-.475,0-.609,0-1.71-.076a5.032,5.032,0,0,0-.476-1.824,17.6,17.6,0,0,0,2.2.19c.438,0,.59-.114.59-.494v-4.75h-4.56a10.139,10.139,0,0,0-1.692.1V12.725a9.46,9.46,0,0,0,1.692.095h4.56Zm-3.078,7.087a12.844,12.844,0,0,0-2.147-3.439l1.52-1.007a17.653,17.653,0,0,1,2.3,3.382Z" fill="#fff"/>
      <path id="パス_81" data-name="パス 81" d="M77.053,12.459A22.867,22.867,0,0,1,80.3,14.7l-1.141,1.653a18.758,18.758,0,0,0-3.249-2.432ZM80.3,18.71c-.646,1.691-1.064,2.641-1.786,4.161-.305.646-.305.646-.57,1.235-.133.285-.133.285-.209.456l-1.748-1.539a21.638,21.638,0,0,0,2.678-5.472Zm-2.356-10.7a18.281,18.281,0,0,1,3.116,2.337l-1.235,1.6A17.722,17.722,0,0,0,76.71,9.419Zm2.318,14.041c.266.019.418.019.607.019.324,0,.818-.019,1.35-.057a26.531,26.531,0,0,0,2.261-5.035H82.525a15.178,15.178,0,0,0-1.976.114V15.043a13.724,13.724,0,0,0,1.994.114h2.851V12.421H83.208c-.721,0-1.348.038-1.937.1V10.5a12.807,12.807,0,0,0,1.957.114h2.166V9.837A11.809,11.809,0,0,0,85.3,7.918h2.166a12.555,12.555,0,0,0-.1,1.919v.779h2.926a12.656,12.656,0,0,0,1.863-.114v2.014a12.089,12.089,0,0,0-1.843-.1H87.369v2.736h3.516a13.593,13.593,0,0,0,1.9-.114v2.052a14.385,14.385,0,0,0-1.9-.114H86.61a28.288,28.288,0,0,1-1.236,3.04c-.056.152-.36.76-.892,1.843a45.59,45.59,0,0,0,4.845-.608,24.282,24.282,0,0,0-1.787-2.584l1.635-.836a38.667,38.667,0,0,1,3.648,5.624l-1.767,1.064c-.4-.8-.514-1.045-.836-1.672a64.2,64.2,0,0,1-6.594.95c-2.051.209-2.393.247-2.964.361Z" fill="#fff"/>
      <path id="パス_82" data-name="パス 82" d="M104.488,8.165a14.5,14.5,0,0,0-.114,1.881,13.146,13.146,0,0,0,1.786,7.2,12.487,12.487,0,0,0,2.869,3.458,12.912,12.912,0,0,0,2.813,1.957,6.715,6.715,0,0,0-1.407,2.033A18.253,18.253,0,0,1,105.8,20.4a14.225,14.225,0,0,1-2.414-5,13.157,13.157,0,0,1-1.444,3.686,12.766,12.766,0,0,1-2.793,3.5,16.1,16.1,0,0,1-2.831,2.109,5.308,5.308,0,0,0-1.425-1.881,12.022,12.022,0,0,0,3.991-3.059c2.355-2.7,3.343-5.681,3.343-10.051a8.974,8.974,0,0,0-.094-1.539Z" fill="#fff"/>
      <path id="パス_83" data-name="パス 83" d="M3.232,39.077a15.628,15.628,0,0,0-.192-3.216l.912.048a10.661,10.661,0,0,1,1.168.176.215.215,0,0,1,.16.208,1.317,1.317,0,0,1-.1.416,10.587,10.587,0,0,0-.128,2.368c.4,0,1.584,0,3.568-.016a18.863,18.863,0,0,0-.176-3.312,15.179,15.179,0,0,1,1.808.176c.336.048.432.112.432.256a1.04,1.04,0,0,1-.112.416,5.5,5.5,0,0,0-.112,1.12v1.328c1.616-.032,2.224-.048,2.7-.1a.6.6,0,0,1,.16-.016.2.2,0,0,1,.175.08,3.63,3.63,0,0,1,.081.992c0,.752-.032.832-.272.832-.032,0-.032,0-.384-.032a24.409,24.409,0,0,0-2.5-.048,9.164,9.164,0,0,1-1.216,4.96A7.4,7.4,0,0,1,6.4,48.325a4.141,4.141,0,0,1-1.168.464c-.144,0-.16-.016-.5-.368a4.118,4.118,0,0,0-1.072-.848c2.3-.832,3.5-1.776,4.24-3.328a8.456,8.456,0,0,0,.7-3.5H7.568c-.144,0-.592,0-1.248.016-.288.016-.72.016-1.3.032,0,1.136,0,1.136.032,2.576v.208c0,.224-.048.3-.224.368a5.859,5.859,0,0,1-1.072.1c-.56,0-.64-.048-.64-.336v-.24c.064-1.456.08-1.712.1-2.64-.832.016-2.3.112-2.688.176a.2.2,0,0,1-.1.016.228.228,0,0,1-.24-.208A10.652,10.652,0,0,1,0,38.965a18.882,18.882,0,0,0,2.608.112Z" fill="#fff"/>
      <path id="パス_84" data-name="パス 84" d="M26.942,45.142a7.023,7.023,0,0,1,1.648,1.776c0,.144-.208.4-.7.88-.368.352-.528.464-.64.464a.4.4,0,0,1-.24-.112c-.175-.208-.175-.208-.912-1.04a21.059,21.059,0,0,0-3.471-3.04,24.864,24.864,0,0,1-3.633,3.088,8.035,8.035,0,0,1-1.968,1.1c-.16,0-.176-.016-.559-.448a6.334,6.334,0,0,0-.993-.864A17.144,17.144,0,0,0,20.19,43.8a19.537,19.537,0,0,0,4.017-5.1,59.866,59.866,0,0,0-6.288.128c-.193.016-.225.016-.257.016a.274.274,0,0,1-.3-.256,11.112,11.112,0,0,1-.112-1.84,43.424,43.424,0,0,0,5.1.208c.945,0,1.936-.032,2.464-.1a1.839,1.839,0,0,0,.576-.144.348.348,0,0,1,.193-.032c.271,0,.559.224.943.736a2.271,2.271,0,0,1,.48.944c0,.192-.047.256-.463.64a5,5,0,0,0-.865,1.2,23.007,23.007,0,0,1-1.824,2.544,21.92,21.92,0,0,1,3.088,2.4" fill="#fff"/>
      <path id="パス_85" data-name="パス 85" d="M32.05,41.75c-.176.016-.288.016-.352.016a.355.355,0,0,0-.144.016H31.41a.284.284,0,0,1-.3-.272,8.308,8.308,0,0,1-.129-1.648,20.987,20.987,0,0,0,2.465.112q3.142.048,3.792.048c2.671,0,5.792-.048,6.288-.1h.143c.224,0,.224.016.224,1.072,0,.7-.031.784-.256.784h-.111c-.737-.032-1.04-.032-4.8-.08a9.785,9.785,0,0,1-.336,2.464,6.508,6.508,0,0,1-3.04,4.064,2.6,2.6,0,0,1-.943.448c-.081,0-.145-.032-.273-.16a4.162,4.162,0,0,0-1.344-1.024c2.832-1.328,3.872-2.848,3.968-5.808-2.592.016-3.472.032-4.7.064m5.584-5.408c1.536,0,3.216-.048,3.889-.128H41.6c.224,0,.272.112.272.608v.336c0,.1,0,.256-.015.448,0,.432-.033.48-.336.48H41.33c-.431-.016-3.36-.064-4.08-.064-1.92,0-3.311.032-3.824.1a.4.4,0,0,1-.128.016.238.238,0,0,1-.271-.208A11.467,11.467,0,0,1,32.9,36.2c.687.08,2.767.144,4.735.144" fill="#fff"/>
      <path id="パス_86" data-name="パス 86" d="M51.434,43.606a16.006,16.006,0,0,1-3.216,1.68c-.16,0-.16,0-.464-.336a6.012,6.012,0,0,0-.992-.88,17.618,17.618,0,0,0,6.1-3.584,7.591,7.591,0,0,0,1.553-1.744c.847.56,1.487,1.168,1.487,1.408,0,.1-.048.144-.192.208a3.447,3.447,0,0,0-.848.64c-.336.3-.976.832-1.7,1.376v2.56c0,1.392.031,2.816.08,3.488V48.6c0,.256-.161.288-1.168.288-.641,0-.7-.016-.7-.192v-.112c0-.048,0-.16.015-.32.032-.4.048-1.808.048-3.328Z" fill="#fff"/>
      <path id="パス_87" data-name="パス 87" d="M73.2,40.31c0,.736-.016.832-.224.832H72.9c-.559-.032-.736-.032-4.832-.032a10.331,10.331,0,0,1-2.08,5.744,6.639,6.639,0,0,1-1.824,1.7.679.679,0,0,1-.336.128.474.474,0,0,1-.336-.144A4.154,4.154,0,0,0,62,47.7a7.518,7.518,0,0,0,4.08-6.576c-2.977.016-4.609.064-5.04.128a.4.4,0,0,1-.128.016.227.227,0,0,1-.24-.208,6.35,6.35,0,0,1-.225-1.776,47.385,47.385,0,0,0,5.729.144v-.72a12.57,12.57,0,0,0-.208-2.848,15.158,15.158,0,0,1,2.1.16c.24.048.336.128.336.288,0,.1,0,.112-.111.4a5.164,5.164,0,0,0-.112,1.328c0,.384,0,.416-.017,1.376,2.192-.016,3.921-.1,4.656-.176a.4.4,0,0,1,.128-.016c.208,0,.256.144.256.7v.384Z" fill="#fff"/>
      <path id="パス_88" data-name="パス 88" d="M82.213,38.87a36.31,36.31,0,0,0-5.391.256.061.061,0,0,1-.048.016c-.305,0-.4-.528-.449-2.176a31.077,31.077,0,0,0,4.176.16c2.145,0,4.657-.048,5.056-.1a2.063,2.063,0,0,0,.673-.16.373.373,0,0,1,.176-.032c.271,0,.607.256,1.12.864.3.384.368.48.368.656a.573.573,0,0,1-.16.352c-.16.192-.177.24-.529,1.36a14.833,14.833,0,0,1-5.072,7.2,7.488,7.488,0,0,1-2.111,1.3c-.177,0-.208-.016-.576-.384a4.606,4.606,0,0,0-1.2-.912,12.813,12.813,0,0,0,4.865-3.728,10.793,10.793,0,0,0,2.16-4.688c-1.248.016-1.248.016-3.057.016m6.912-1.616c-.351.3-.559.448-.656.448s-.1,0-.384-.48a7.017,7.017,0,0,0-1.008-1.3c-.064-.064-.08-.1-.08-.144,0-.128.609-.576.785-.576.127,0,.32.16.8.7a3.727,3.727,0,0,1,.737,1.04c0,.112-.048.176-.193.3m.72-.816A6.8,6.8,0,0,0,88.661,34.9c-.064-.064-.08-.1-.08-.128,0-.08.08-.16.353-.352.208-.16.3-.192.416-.192.176.016.592.416,1.136,1.12a1.851,1.851,0,0,1,.368.608c0,.08-.049.16-.24.3a1.666,1.666,0,0,1-.592.336c-.065,0-.113-.032-.177-.16" fill="#fff"/>
      <path id="パス_89" data-name="パス 89" d="M96.34,37.014a.272.272,0,0,1,.191.272.743.743,0,0,1-.031.224,4.217,4.217,0,0,0-.112,1.248c-.032,3.9-.736,6.4-2.416,8.528-.368.448-.512.592-.672.592a.686.686,0,0,1-.272-.1,4.442,4.442,0,0,0-1.552-.576,8.166,8.166,0,0,0,2.015-2.8,12.2,12.2,0,0,0,.945-5.312,12.536,12.536,0,0,0-.16-2.336,7.671,7.671,0,0,1,2.064.256m1.712,1.552a13.86,13.86,0,0,0-.145-2.08c1.729.064,2.353.192,2.353.512a.839.839,0,0,1-.08.32,2.031,2.031,0,0,0-.112.592c-.048.432-.048.432-.08,7.472a14.8,14.8,0,0,0,4.7-3.952,7.906,7.906,0,0,0,.24,1.92.684.684,0,0,1,.048.272c0,.256-.16.464-.9,1.152a14.224,14.224,0,0,1-3.472,2.432,3.05,3.05,0,0,0-.752.5.623.623,0,0,1-.369.16,3.1,3.1,0,0,1-1.183-.784c-.32-.32-.464-.56-.464-.768a.8.8,0,0,1,.063-.272,4,4,0,0,0,.145-1.472Z" fill="#fff"/>
      <path id="パス_90" data-name="パス 90" d="M108.992,41.942h-.353a.36.36,0,0,0-.144.016h-.144a.284.284,0,0,1-.3-.256,8.44,8.44,0,0,1-.128-1.648c.96.1,3.168.16,6.193.16,2.719,0,5.855-.048,6.351-.1h.145c.223,0,.223.016.223,1.072,0,.7-.032.784-.255.784h-.113c-.736-.032-1.04-.032-4.8-.08a9.793,9.793,0,0,1-.335,2.464,6.517,6.517,0,0,1-3.041,4.064,2.6,2.6,0,0,1-.944.448c-.08,0-.143-.032-.271-.16a3.967,3.967,0,0,0-1.345-1.024c2.832-1.328,3.872-2.848,3.969-5.808-2.593.016-3.473.016-4.7.064m1.647-5.488c.368.016.688.032.864.032.817.048,1.056.048,2.113.048a43.364,43.364,0,0,0,4.431-.128h.08c.224,0,.273.112.273.608v.336c0,.1,0,.256-.017.448,0,.432-.032.48-.336.48-.176,0-1.344-.032-2.464-.048-.24-.016-.639-.016-1.215-.016-2.048,0-3.489.032-4,.1a.4.4,0,0,1-.128.016.24.24,0,0,1-.273-.208,11.737,11.737,0,0,1-.128-1.728,6.019,6.019,0,0,0,.8.064m9.12,1.248a7,7,0,0,0-1.183-1.616c-.1-.1-.1-.1-.1-.144,0-.1.1-.192.368-.4.256-.176.353-.24.448-.24.128,0,.288.128.689.56a4.243,4.243,0,0,1,.88,1.2c0,.1-.048.16-.241.32-.352.3-.576.448-.7.448-.064,0-.1-.032-.16-.128m2.256-1.2a.979.979,0,0,1-.432.224c-.047,0-.1-.032-.16-.144a7.557,7.557,0,0,0-1.2-1.568.233.233,0,0,1-.08-.128,1.811,1.811,0,0,1,.816-.576c.128.016.176.032.352.192a5.439,5.439,0,0,1,1.184,1.536c0,.1-.127.208-.48.464" fill="#fff"/>
      <path id="パス_91" data-name="パス 91" d="M127.137,39.27a15.657,15.657,0,0,0-.191-3.216l.912.048a10.7,10.7,0,0,1,1.168.176.217.217,0,0,1,.16.208,1.3,1.3,0,0,1-.1.416,10.639,10.639,0,0,0-.127,2.368c.4,0,1.583,0,3.568-.016a18.864,18.864,0,0,0-.176-3.312,15.2,15.2,0,0,1,1.808.176c.336.048.431.112.431.256a1.032,1.032,0,0,1-.111.416,5.355,5.355,0,0,0-.112,1.12v1.328c1.616-.032,2.223-.048,2.7-.1a.6.6,0,0,1,.16-.016.206.206,0,0,1,.176.08,3.691,3.691,0,0,1,.08.992c0,.752-.032.832-.273.832-.031,0-.031,0-.383-.032a24.422,24.422,0,0,0-2.5-.048,9.165,9.165,0,0,1-1.215,4.96,7.4,7.4,0,0,1-2.817,2.608,4.129,4.129,0,0,1-1.168.464c-.143,0-.159-.016-.5-.368a4.1,4.1,0,0,0-1.071-.848c2.3-.832,3.5-1.776,4.24-3.328a8.457,8.457,0,0,0,.7-3.5h-1.04c-.143,0-.592,0-1.247.016-.288.016-.721.016-1.3.032,0,1.136,0,1.136.033,2.576v.208c0,.224-.048.3-.224.368a5.877,5.877,0,0,1-1.072.1c-.56,0-.64-.048-.64-.336v-.24c.063-1.456.08-1.712.1-2.64-.832.016-2.3.112-2.689.176a.2.2,0,0,1-.1.016A.228.228,0,0,1,124.1,41a10.784,10.784,0,0,1-.191-1.84,18.866,18.866,0,0,0,2.607.112Zm9.04-1.424a7.482,7.482,0,0,0-1.04-1.76.143.143,0,0,1-.048-.1c0-.128.577-.512.752-.512s.464.352.929,1.056a2.628,2.628,0,0,1,.464.864c0,.112-.112.224-.464.416a1.364,1.364,0,0,1-.433.176c-.08,0-.127-.032-.16-.144m1.889-2.416a3.96,3.96,0,0,1,.687,1.2c0,.1-.127.208-.4.368a1.488,1.488,0,0,1-.465.192.18.18,0,0,1-.159-.144,8.143,8.143,0,0,0-1.009-1.712c-.048-.048-.063-.08-.063-.112,0-.128.559-.464.767-.464.128,0,.256.128.641.672" fill="#fff"/>
      <path id="パス_92" data-name="パス 92" d="M148.082,43.51c0,2.016.032,3.5.1,4.592v.112c0,.176-.048.24-.208.256a9.762,9.762,0,0,1-1.408.08c-.5,0-.543-.032-.543-.3v-.08c.063-.816.1-2.64.1-4.656V41.4a26.049,26.049,0,0,1-2.544,1.5,7.127,7.127,0,0,1-1.92.848.418.418,0,0,1-.337-.176,5.959,5.959,0,0,0-1.343-1.168,22.063,22.063,0,0,0,4.64-2.208,21.787,21.787,0,0,0,4.64-3.872,4.074,4.074,0,0,0,.528-.752c1.008.672,1.728,1.344,1.728,1.648,0,.1-.064.176-.256.256a4.221,4.221,0,0,0-1.151.864c-.705.624-1.393,1.184-2.017,1.648Z" fill="#fff"/>
      <path id="パス_93" data-name="パス 93" d="M167.322,39.894a.84.84,0,0,1,.112.368c0,.16-.064.272-.272.56a16.634,16.634,0,0,1-3.248,3.184A24.182,24.182,0,0,1,159.034,47c-1.232.576-1.3.608-1.488.784-.128.128-.193.16-.288.16-.144,0-.272-.128-.512-.48a7.161,7.161,0,0,1-.8-1.7,18.355,18.355,0,0,0,5.424-2.416,14.32,14.32,0,0,0,5.216-5.184,8.738,8.738,0,0,0,.736,1.728m-10.656-2.688c.271-.3.384-.384.528-.384a9.354,9.354,0,0,1,2.5,1.584c.608.5.8.7.8.864a3.18,3.18,0,0,1-.672.976c-.352.4-.528.544-.656.544-.112,0-.112,0-.768-.624a13.438,13.438,0,0,0-1.665-1.328c-.559-.368-.559-.368-.671-.432a.193.193,0,0,1-.1-.144,3.2,3.2,0,0,1,.7-1.056" fill="#fff"/>
      <path id="パス_94" data-name="パス 94" d="M171.842,41.7c-.033,0-.113.016-.128.016-.352,0-.5-.544-.609-2.192a33.857,33.857,0,0,0,4.865.176c3.2,0,4.064,0,4.368-.032a2.067,2.067,0,0,0,.608-.128.739.739,0,0,1,.3-.064.926.926,0,0,1,.687.384A2.8,2.8,0,0,1,182.658,41c0,.176-.08.3-.272.512-.128.112-.208.256-.512.944a10.561,10.561,0,0,1-4.16,4.992,9.386,9.386,0,0,1-2.577,1.2c-.223,0-.351-.1-.624-.416a2.825,2.825,0,0,0-1.055-.9,11.629,11.629,0,0,0,4.672-2.592,8.162,8.162,0,0,0,2.032-3.376c-6.065.08-7.185.128-8.32.336m5.232-5.68a33.705,33.705,0,0,0,3.5-.128h.191c.208,0,.288.16.305.64,0,.192,0,.368.016.528v.064c0,.576-.064.736-.272.736-.064,0-.192-.016-.337-.016-.3-.032-1.5-.064-2-.064-2.4,0-4.111.032-5.055.112H173.3c-.416,0-.48-.24-.577-2.032a34.6,34.6,0,0,0,4.353.16" fill="#fff"/>
      <path id="パス_95" data-name="パス 95" d="M190.065,42.55c0,.08-.032.128-.16.272a2.05,2.05,0,0,0-.336.608c-.7,1.552-1.968,3.264-2.432,3.264-.1,0-.128-.016-.464-.3A4.336,4.336,0,0,0,185.6,45.8a6.963,6.963,0,0,0,2.608-4.176c1.3.416,1.856.7,1.856.928m1.488-2.352a46.754,46.754,0,0,0-4.944.144h-.032a.32.32,0,0,1-.3-.256,6.466,6.466,0,0,1-.16-1.68,32.929,32.929,0,0,0,4.832.192h.608v-.432a11.652,11.652,0,0,0-.176-2.208,10.023,10.023,0,0,1,2.16.24.242.242,0,0,1,.176.256.854.854,0,0,1-.112.352,3.174,3.174,0,0,0-.192,1.344V38.6h1.04c1.04,0,3.088-.08,3.728-.128a.6.6,0,0,1,.176-.016.179.179,0,0,1,.192.16c.016.08.032.544.032.752,0,.848-.016.9-.336.9-.08,0-.24,0-1.168-.032-.56-.016-.768-.016-3.648-.032V43.19c0,1.6,0,1.6.032,2.96.016.192.016.336.016.432,0,1.552-.56,2.064-2.224,2.064a4.55,4.55,0,0,1-1.344-.128c-.112-.048-.144-.128-.192-.368a5.922,5.922,0,0,0-.5-1.5,6.229,6.229,0,0,0,1.68.224c.576,0,.688-.144.688-.864Zm6.512,6.24a.363.363,0,0,1-.224.112c-.288,0-.864-.656-1.568-1.76a11.382,11.382,0,0,1-1.248-2.5c0-.128.112-.24.368-.368a4.2,4.2,0,0,1,1.056-.432c.128,0,.192.08.288.272a12.309,12.309,0,0,0,1.184,2.176,8.019,8.019,0,0,0,1.472,1.648,4.114,4.114,0,0,0-1.328.848m-1.616-8.64a7.236,7.236,0,0,0-1.136-1.648c-.1-.1-.1-.112-.1-.144,0-.112.08-.192.384-.4a1.064,1.064,0,0,1,.448-.224c.128,0,.288.128.672.592a4.5,4.5,0,0,1,.848,1.232c0,.176-.736.736-.96.736-.064,0-.112-.032-.16-.144m2.272-1.136a1.34,1.34,0,0,1-.432.208c-.064,0-.1-.032-.16-.144a7.745,7.745,0,0,0-1.152-1.6c-.064-.064-.08-.1-.08-.128,0-.128.656-.56.848-.56.08,0,.16.048.32.208a5.291,5.291,0,0,1,1.152,1.552c0,.1-.128.224-.5.464" fill="#fff"/>
    </g>
  </g>
</svg>
